<svg width="48" height="36" viewBox="0 0 48 36" fill="none" xmlns="http://www.w3.org/2000/svg">
<g clip-path="url(#clip0_160_12627)">
<g style="mix-blend-mode:multiply">
<path d="M18.7879 34.6699L46.6316 18.5952C48.6606 17.4234 48.405 15.3787 46.0654 14.03L37.1236 8.86701C34.784 7.51435 31.2411 7.36886 29.216 8.54064L1.37234 24.6154C-0.656658 25.7871 -0.401066 27.8319 1.93858 29.1806L10.8803 34.3435C13.22 35.6962 16.7629 35.8417 18.7879 34.6699Z" fill="#EAEAEA"/>
</g>
<path d="M23.1566 28.9959L10.0192 21.1669L16.8337 13.1846L34.8391 4.4198L45.8098 13.4127L44.0207 16.4404L29.1767 7.52228L24.0256 28.1111L23.1566 28.9959Z" fill="#070407"/>
<path d="M18.1352 32.8375L4.91521 25.2209L9.54731 17.8756L22.5746 26.2511L18.1352 32.8375Z" fill="url(#paint0_linear_160_12627)"/>
<path d="M38.8066 20.9034L25.5866 13.2829L30.2187 5.94153L43.246 14.317L38.8066 20.9034Z" fill="url(#paint1_linear_160_12627)"/>
<path d="M32.7392 2.24527L33.911 4.65569L29.2239 5.66626L30.6945 5.7331L28.811 4.65569L26.145 6.1971L25.7832 6.82232L24.2615 9.44507L22.7948 11.3129L10.0191 20.3844V17.6672L8.13564 16.5938L5.47355 18.1312L3.59005 21.3792V21.9415L2.75643 22.4212L1.7144 23.3571L1.42735 19.8889L16.8336 5.42639L25.8855 0.522979L32.3971 0L32.7392 2.24527Z" fill="#6E727D"/>
<path d="M32.3972 0L1.42744 19.8889L16.8337 5.42639L25.8855 0.519046L32.3972 0Z" fill="#838690"/>
<path d="M7.18415 15.7758L27.7966 2.19806L29.6368 0.373535L25.6889 0.986954L16.8966 5.75274L8.06496 13.8609L7.18415 15.7758Z" fill="#1E232D"/>
<path d="M32.5112 0.452148L31.6422 1.01838L31.5753 1.87559L31.9213 2.26095L33.0381 1.68685L32.6881 1.84807L32.5112 0.452148Z" fill="#FE2739"/>
<path d="M8.70589 15.6186V15.8113L9.09124 15.8664L9.84229 15.076V14.9187L8.70589 15.6186Z" fill="#FEB339"/>
<path d="M10.7505 19.7434L17.3212 14.2305V14.2148L19.13 8.33224L19.2794 7.91149L19.8378 4.09729L16.8611 5.71341L11.883 10.3455L10.3573 13.6367V13.6485L10.7466 19.7395L10.7505 19.7434ZM17.2347 14.1715L10.837 19.5389L10.4595 13.6564L11.9695 10.3966L16.924 5.78812L19.708 4.27424L19.1811 7.88004L19.0317 8.29291L17.2307 14.1636L17.2347 14.1715Z" fill="#66686E"/>
<path d="M17.1953 14.3091L22.8301 11.0533L24.3008 9.4804L25.8343 6.83405L26.4477 3.54676L26.7269 2.94907L26.2944 0.601562L26.2354 0.63302L19.7395 4.16018L19.1929 7.89181L19.0435 8.30468L17.1993 14.3091H17.1953ZM22.7633 10.9786L17.3644 14.0968L19.13 8.33614L19.2794 7.9154L19.822 4.22309L26.2157 0.750985L26.6168 2.93334L26.3455 3.51923L25.7321 6.80259L24.2182 9.41749L22.7594 10.9786H22.7633Z" fill="#66686E"/>
<path d="M9.63379 19.8772C9.63379 21.6702 8.36763 23.8526 6.80656 24.757C5.24549 25.6575 3.97933 24.9379 3.97933 23.1448C3.97933 21.3517 5.24549 19.1694 6.80656 18.265C8.36763 17.3645 9.63379 18.0841 9.63379 19.8772Z" fill="#070407"/>
<path d="M3.59009 21.9415L2.75647 22.4252L1.52963 23.1684L1.30943 23.2942L1.44312 24.3441L2.00936 24.9025L3.59009 24.4345V21.9415Z" fill="#171618"/>
<path d="M28.8346 7.09368C28.8346 8.88675 27.5684 11.0691 26.0073 11.9735C24.4463 12.8779 23.1801 12.1544 23.1801 10.3613C23.1801 8.56824 25.9169 7.2313 27.478 6.33084C29.039 5.43037 28.8346 5.30061 28.8346 7.09368Z" fill="#070407"/>
<path d="M10.7584 30.4979L2.73283 25.8697L1.30939 23.2942L3.55466 21.1865L17.1521 29.7704L16.232 30.4271L14.8085 30.8675L10.7584 30.4979Z" fill="#535C5E"/>
<path d="M10.0192 20.3844V21.1669L22.7909 12.0954L22.7948 11.3129L10.0192 20.3844Z" fill="#171618"/>
<path d="M29.1767 7.52219L29.6564 7.24301L33.911 4.65564L29.2239 5.66621L29.1767 7.52219Z" fill="#171618"/>
<path d="M10.2983 17.3763V20.2231L10.0192 20.3844V17.6672L8.13565 16.5938L5.47357 18.1312L3.59006 21.3792V21.9415L3.31087 22.1027V21.4067L5.35953 17.8756L8.25361 16.2045L10.2983 17.3723V17.3763Z" fill="#171618"/>
<path d="M30.9698 5.43814L29.4992 5.50499L29.22 5.66621L30.6907 5.72912L28.8072 4.65564L26.1451 6.19312L24.2616 9.44109L22.7909 11.3089L22.5118 11.4701L23.9824 9.46862L26.031 5.93753L28.9251 4.26636L30.9698 5.43421V5.43814Z" fill="#171618"/>
<path d="M46.0851 9.95229V13.098L44.0404 14.2226V13.4362L42.1568 12.3627L39.4948 13.9002L39.1291 14.5293L37.6113 17.1482L37.4029 19.9872L23.2195 28.174L23.3729 26.1214L21.4854 24.3008L18.8194 25.8383L16.9398 29.0862V29.6485L16.1023 30.1283L14.7732 30.5411V27.5959L28.9998 12.4492L38.0477 7.54187L45.7469 7.70702L46.0851 9.95229Z" fill="#BEC3C7"/>
<path d="M31.1429 17.569L31.949 17.105C32.0551 17.046 32.1377 17.0932 32.1377 17.2112V17.2544C32.1377 17.3724 32.0512 17.5218 31.949 17.5808L30.8401 18.2217C30.7142 18.2925 30.6513 18.1588 30.7378 18.0054C30.844 17.8167 30.9895 17.6594 31.1429 17.569Z" fill="#948D8E"/>
<path d="M23.4476 26.8489L23.3886 28.1386L37.3989 20.0501L37.4028 18.7958L23.4476 26.8489Z" fill="#AFB4B8"/>
<path d="M22.378 23.4987V23.6324L22.6414 23.7543L23.0582 23.361L23.011 23.1094L22.4251 23.42L22.378 23.4987Z" fill="#4E5056"/>
<path d="M45.7468 7.70702L14.7731 27.5959L28.9997 12.4453L38.0476 7.54187L45.7468 7.70702Z" fill="#CFD3D6"/>
<path d="M14.7732 28.178L15.8978 27.6983L16.1809 27.3326L17.333 26.5658L16.3224 28.2291L14.7732 28.8976V28.178Z" fill="url(#paint2_linear_160_12627)"/>
<path d="M22.4252 23.42V23.5536L22.5235 23.6126L23.1566 23.0857L23.0583 23.0267L22.4252 23.42Z" fill="#FE7F39"/>
<path d="M22.5235 23.479V23.6127L22.7398 23.711L23.1566 23.3178V23.0858L22.5235 23.479Z" fill="#FEB339"/>
<path d="M17.1521 29.7705L16.232 30.4272L14.8085 30.8676L14.9383 31.9214L15.5714 32.7314L16.9437 32.3854L17.1521 31.1822V29.7705Z" fill="#3C4749"/>
<path d="M17.1521 31.1822L14.9383 31.9214L14.8085 30.8676L16.232 30.4272L17.1521 29.7705V31.1822Z" fill="#404B4D"/>
<path d="M14.7732 27.596V30.5412L10.8568 30.1873L10.7073 27.1477L14.7732 27.596Z" fill="#BEC3C7"/>
<path d="M2.97278 25.6336L1.71449 23.3568L1.42744 19.8887L2.19814 22.2362L2.3515 22.9046V22.9086L2.54024 23.7343L2.97278 25.6336Z" fill="#BEC3C7"/>
<path d="M10.7073 27.1477L10.8567 30.1873L2.97269 25.6338L2.19805 22.2365L10.7073 27.1477Z" fill="#CFD3D6"/>
<path d="M16.8336 5.42639L1.42738 19.8889L2.19808 22.2364L10.7073 27.1477L14.7732 27.596L28.9998 12.4453L16.8336 5.42639Z" fill="#EAEAEA"/>
<path d="M28.8936 12.3863L14.8086 27.3836L10.7977 26.9432L2.33178 22.0555L1.5886 19.7867L16.8729 5.44605L16.8336 5.42639L1.42738 19.8889L2.19808 22.2364L10.7073 27.1477L14.7732 27.596L28.9998 12.4453L28.8936 12.3863Z" fill="#CFD3D6"/>
<path d="M14.7732 28.178V28.8976L10.7781 28.4925L10.7427 27.7533L14.7732 28.178Z" fill="#E5E6EA"/>
<path d="M14.8086 30.8675L14.9384 31.9213L10.9079 31.4967L10.7742 30.4468L14.8086 30.8675Z" fill="#42494D"/>
<path d="M15.5714 32.7314L14.9383 31.9214L10.9079 31.4967L11.5409 32.3067L15.5714 32.7314Z" fill="#3C4749"/>
<path d="M3.49961 27.7297L2.86653 26.9197L10.9078 31.4967L11.5409 32.3068L3.49961 27.7297Z" fill="#3C4749"/>
<path d="M2.73285 25.8698L2.86655 26.9196L10.9078 31.4967L10.7741 30.4468L2.73285 25.8698Z" fill="#42494D"/>
<path d="M2.73288 25.8698L2.86658 26.9196L1.44313 24.3441L1.30944 23.2942L2.73288 25.8698Z" fill="#42494D"/>
<path d="M2.54016 23.7346L1.55712 21.4932L1.48634 20.6321L2.35142 22.9049V22.9088L2.54016 23.7346Z" fill="#E5E6EA"/>
<path d="M16.8337 5.42636L28.9998 12.4453L38.0477 7.54187L25.8855 0.522949L16.8337 5.42636Z" fill="#EAEAEA"/>
<g style="mix-blend-mode:multiply">
<path d="M24.0964 27.4348L31.9332 22.9088L32.5898 16.1848L32.177 15.5596L31.245 11.5331L29.0234 12.7442L23.3492 19.2677L23.6913 21.0332L24.0688 21.6152L24.0964 27.4348ZM31.8388 22.8499L24.1947 27.2618L24.1671 21.5837L23.7779 20.986L23.4554 19.2952L29.0941 12.815L31.1782 11.6825L32.0905 15.6068L32.4876 16.2084L31.8388 22.8459V22.8499Z" fill="#D4D4D4"/>
</g>
<path d="M45.7468 7.70705L44.5121 6.49201L36.0029 1.58073L32.3971 0L25.8854 0.522979L38.0476 7.5419L45.7468 7.70705H45.7429H45.7468Z" fill="#BEC3C7"/>
<g style="mix-blend-mode:multiply">
<path d="M31.827 22.9717L37.45 19.7277L37.6623 17.1678L39.1841 14.5411V14.5254L38.8892 12.1386L38.3898 11.5605L37.1826 8.32043L31.1585 11.5841L32.0944 15.6067L32.4915 16.2084L31.8349 22.9678L31.827 22.9717ZM37.3517 19.6647L31.945 22.7869L32.5898 16.1848L32.177 15.5596L31.2686 11.6353L37.1276 8.46199L38.3072 11.6156L38.7909 12.1779L39.0779 14.5215L37.5601 17.1482L37.3517 19.6647Z" fill="#D4D4D4"/>
</g>
<path d="M28.6537 12.638L19.5468 22.3151L6.84587 14.9816L16.7078 5.74097L28.6537 12.638Z" fill="#1E1E1E"/>
<path d="M27.9459 12.638L24.8749 15.8977L23.2155 17.6633L19.7552 21.3398L9.1069 15.1899L8.05308 14.5844L16.9358 6.28357L27.9459 12.638Z" fill="#1E2329"/>
<path d="M19.6609 7.85649L10.1214 14.6552L9.14233 14.089L17.2465 6.46057L19.6609 7.85649Z" fill="#313942"/>
<path d="M31.4613 0.385376L26.5186 0.735339L38.087 7.4161L43.8477 7.53799L42.4793 6.44878L34.2846 1.71445L31.4613 0.385376Z" fill="#1E1E1E"/>
<path d="M42.3417 7.2234L41.8266 6.63751L33.5415 1.81667L31.3434 0.869019L27.4702 1.06956L29.6486 2.32392L29.6722 2.33965L37.9023 7.08185L42.3417 7.2234Z" fill="#272E36"/>
<path d="M40.0374 7.10544L42.3456 7.2234L41.8265 6.63751L33.5415 1.81667L31.3434 0.869019L30.3879 1.41559L40.0374 7.10544Z" fill="#272E36"/>
<path d="M40.8671 7.14079L38.7555 7.09754L29.4677 1.96606L30.3878 1.41162C30.3878 1.41162 31.7484 2.05256 32.6842 2.44578C33.0224 2.58734 33.5178 2.84293 34.0841 3.14964C35.0907 3.69228 36.3215 4.39614 37.2691 4.91518C37.5208 5.05281 37.7882 5.21403 38.0595 5.38704C39.0504 6.02406 40.8592 7.14079 40.8592 7.14079H40.8671Z" fill="#272E36"/>
<path d="M38.5234 5.65055C38.5234 5.65055 38.0909 5.4618 38.0673 5.45C37.9493 5.40282 37.4735 5.72132 37.0685 5.64268C36.927 5.61516 34.7643 4.35293 34.725 4.26249C34.6542 4.10127 35.1103 3.80243 35.1103 3.80243C35.0749 3.77097 34.8665 3.57829 34.7486 3.51538C34.7328 3.50751 34.721 3.48785 34.721 3.46033C35.7277 4.00297 36.7815 4.65571 37.7291 5.17475C37.9808 5.31238 38.2482 5.4736 38.5195 5.64661L38.5234 5.65055Z" fill="#272E36"/>
<path d="M38.2247 19.2676C38.2247 21.0607 39.4908 21.7842 41.0519 20.8798C42.613 19.9793 43.8792 17.793 43.8792 16C43.8792 14.2069 42.613 13.4873 41.0519 14.3878C39.4908 15.2882 38.2247 17.4745 38.2247 19.2676Z" fill="#2D2C37"/>
<path d="M38.2247 19.2676C38.2247 21.0607 39.4908 21.7842 41.0519 20.8798C42.613 19.9793 43.8792 17.793 43.8792 16C43.8792 14.2069 42.613 13.4873 41.0519 14.3878C39.4908 15.2882 38.2247 17.4745 38.2247 19.2676Z" fill="url(#paint3_linear_160_12627)"/>
<path d="M38.4016 19.2322C38.4016 20.9584 39.6206 21.6505 41.1227 20.7854C42.6248 19.9164 43.8438 17.8166 43.8438 16.0904C43.8438 14.3642 42.6248 13.6721 41.1227 14.5372C39.6206 15.4062 38.4016 17.506 38.4016 19.2322Z" fill="url(#paint4_linear_160_12627)"/>
<path d="M38.7831 19.0199C38.7831 20.4866 39.8212 21.0804 41.0991 20.3411C42.3771 19.6019 43.4152 17.8128 43.4152 16.3461C43.4152 14.8794 42.3771 14.2856 41.0991 15.0249C39.8212 15.7641 38.7831 17.5532 38.7831 19.0199Z" fill="#504F58"/>
<path d="M38.8578 18.8665C38.8578 20.2585 39.8408 20.8208 41.0558 20.1169C42.267 19.417 43.25 17.7222 43.25 16.3303C43.25 14.9383 42.267 14.376 41.0558 15.0798C39.8447 15.7797 38.8578 17.4745 38.8578 18.8665Z" fill="#BABABE"/>
<path d="M43.0927 16.7511C43.0022 17.5493 42.6012 18.4616 41.9681 19.189C41.335 19.9126 40.6233 20.2783 40.0492 20.2429C39.7936 20.2271 39.5695 20.1328 39.3925 19.9519C39.3335 19.8968 39.2824 19.83 39.2352 19.7553C39.2274 19.7395 39.2156 19.7277 39.2077 19.712C39.1762 19.657 39.1487 19.6019 39.1251 19.539C39.0937 19.4604 39.0661 19.3778 39.0465 19.2873C39.0111 19.1301 38.9954 18.961 38.9954 18.784C38.9954 18.7015 38.9954 18.6189 39.0072 18.5363C39.0072 18.493 39.015 18.4498 39.019 18.4105C39.019 18.3829 39.0268 18.3554 39.0308 18.324C39.0308 18.2964 39.0386 18.2728 39.0425 18.2453C39.0543 18.1667 39.0701 18.0841 39.0897 18.0055C39.0976 17.9661 39.1094 17.9268 39.1212 17.8875C39.1291 17.8521 39.1369 17.8206 39.1487 17.7892C39.1605 17.742 39.1762 17.6948 39.192 17.6476C39.2038 17.6122 39.2156 17.5769 39.2274 17.5415C39.2824 17.3881 39.3453 17.2387 39.42 17.0893C39.4358 17.0578 39.4515 17.0263 39.4633 16.9988C39.5144 16.8966 39.5695 16.7983 39.6324 16.7C39.6481 16.6764 39.6638 16.6528 39.6756 16.6253C39.7032 16.582 39.7346 16.5348 39.7621 16.4916C39.8762 16.3225 39.9981 16.1573 40.1318 16.004C40.1986 15.9253 40.2655 15.8546 40.3362 15.7877C40.3677 15.7523 40.4031 15.7209 40.4345 15.6933C40.4424 15.6855 40.4542 15.6737 40.466 15.6658C40.4935 15.6422 40.521 15.6186 40.5486 15.595C40.8749 15.3119 41.2092 15.1192 41.5277 15.0249C42.086 14.8558 42.5815 14.9856 42.8685 15.4417C42.8764 15.4535 42.8882 15.4692 42.8961 15.4849C42.9511 15.5754 42.9904 15.6776 43.0258 15.7838C43.1123 16.0669 43.132 16.3972 43.0927 16.7511Z" fill="url(#paint5_linear_160_12627)"/>
<path d="M40.3755 16.0826L40.3558 16.7C40.1238 16.6803 39.8958 16.6567 39.6795 16.6292C39.707 16.5859 39.7385 16.5387 39.766 16.4955C39.8801 16.3264 40.002 16.1612 40.1356 16.0079C40.2025 15.9292 40.2693 15.8585 40.3401 15.7916C40.3716 15.7562 40.407 15.7248 40.4384 15.6972C40.4463 15.6894 40.4581 15.6776 40.4699 15.6697C40.4974 15.6461 40.5249 15.6225 40.5525 15.5989C40.8788 15.3158 41.2131 15.1232 41.5316 15.0288C42.0899 14.8597 42.5854 14.9895 42.8724 15.4456C41.276 14.899 40.3794 16.0865 40.3794 16.0865L40.3755 16.0826Z" fill="#393843"/>
<path d="M42.959 16.7434C42.959 16.7434 42.4281 17.4473 41.8815 17.636C41.335 17.8208 40.2772 19.1027 40.2772 19.1027L40.3598 16.7041C41.6102 16.7985 42.9629 16.7474 42.9629 16.7474L42.959 16.7434Z" fill="#393843"/>
<path d="M41.8658 16.3303C41.7872 17.0185 41.4411 17.801 40.8985 18.4222C40.5997 18.7643 40.2772 19.016 39.9666 19.1615C39.7149 19.2834 39.4711 19.3384 39.2509 19.3266C39.2352 19.3266 39.2155 19.3266 39.1998 19.3227C39.1487 19.3227 39.0976 19.3109 39.0464 19.2952C39.0111 19.1379 38.9953 18.9688 38.9953 18.7919C38.9953 18.7093 38.9953 18.6267 39.0071 18.5441C39.0071 18.5009 39.015 18.4576 39.0189 18.4183C39.0189 18.3908 39.0268 18.3633 39.0307 18.3318C39.0307 18.3043 39.0386 18.2807 39.0425 18.2532C39.0543 18.1745 39.07 18.0919 39.0897 18.0133C39.0976 17.974 39.1094 17.9347 39.1212 17.8953C39.129 17.8599 39.1369 17.8285 39.1487 17.797C39.1605 17.7498 39.1762 17.7027 39.1919 17.6555C39.2037 17.6201 39.2155 17.5847 39.2273 17.5493C39.2824 17.3959 39.3453 17.2465 39.42 17.0971C39.4357 17.0656 39.4515 17.0342 39.4633 17.0067C39.5144 16.9044 39.5694 16.8061 39.6323 16.7078C39.6756 16.637 39.7188 16.5702 39.7621 16.4994C39.8761 16.3303 39.998 16.1652 40.1317 16.0118C40.1986 15.9332 40.2654 15.8624 40.3362 15.7956C40.3677 15.7602 40.403 15.7287 40.4345 15.7012C40.4424 15.6933 40.4542 15.6815 40.466 15.6737C40.4935 15.6501 40.521 15.6265 40.5485 15.6029C40.8749 15.3198 41.2091 15.1271 41.5276 15.0327C41.5906 15.0917 41.6456 15.1625 41.6967 15.249C41.74 15.3276 41.7793 15.4141 41.8068 15.5085C41.8462 15.6422 41.8697 15.7877 41.8776 15.945C41.8815 16.0708 41.8776 16.2045 41.8619 16.3382L41.8658 16.3303Z" fill="url(#paint6_linear_160_12627)"/>
<path d="M40.2851 17.4785L39.9115 17.2622L39.6402 16.7038C39.6835 16.6331 39.7267 16.5662 39.77 16.4954C39.884 16.3264 40.0059 16.1612 40.1396 16.0078C40.2064 15.9292 40.2733 15.8584 40.3441 15.7916C40.3755 15.7562 40.4109 15.7247 40.4424 15.6972C40.4502 15.6893 40.462 15.6775 40.4738 15.6697C40.5485 15.7129 40.6075 15.7523 40.6115 15.7562L40.1435 16.2949L40.289 17.4824L40.2851 17.4785Z" fill="url(#paint7_linear_160_12627)"/>
<path d="M40.2851 17.4785L40.3362 17.9621L39.9666 19.1614L39.8014 19.7002C39.7464 19.8181 39.9115 20.0855 39.8368 20.0737C39.711 20.0501 39.4043 19.8653 39.2391 19.7552C39.2312 19.7395 39.2194 19.7277 39.2116 19.7119C39.1801 19.6569 39.1526 19.6018 39.129 19.5389C39.129 19.5114 39.1408 19.4839 39.1565 19.4524L39.1998 19.3187L39.8761 17.3251L39.9076 17.2622L40.2811 17.4785H40.2851Z" fill="url(#paint8_linear_160_12627)"/>
<path d="M42.5461 15.6894C42.5147 15.6736 42.4714 15.6776 42.4242 15.7012L40.6272 16.4601L40.5761 16.4876V17.451L40.9733 17.2229L42.4636 16.641C42.5579 16.5859 42.6326 16.4601 42.6366 16.35C42.6484 16.1376 42.9708 16.0944 42.9315 15.9096C42.9236 15.8742 42.5658 15.6972 42.5422 15.6854L42.5461 15.6894Z" fill="url(#paint9_linear_160_12627)"/>
<path d="M40.6547 18.2452L39.8722 16.6409C39.8329 16.574 39.8565 16.4521 39.9273 16.3538C40.002 16.2516 40.0806 16.1572 40.1632 16.0589C40.2458 15.9646 40.3283 15.878 40.4149 15.7955C40.4974 15.7168 40.5879 15.709 40.6233 15.7758L41.4058 17.3801L40.6547 18.2413V18.2452Z" fill="#DFDFE3"/>
<path d="M40.9535 17.6751V16.7117L41.0047 16.6842L42.8017 15.9253C42.8842 15.8781 42.955 15.9017 42.9707 15.9843C43.0101 16.1652 43.0258 16.3657 43.014 16.578C43.0101 16.6881 42.9314 16.814 42.841 16.869L41.3507 17.451L40.9535 17.679V17.6751Z" fill="#DFDFE3"/>
<path d="M39.538 19.9165C39.4869 19.8771 39.483 19.7749 39.5341 19.6687L40.2576 17.5414L40.2891 17.4785L40.9575 17.6751L40.7177 18.1784L40.179 19.9165C40.1239 20.0344 40.0177 20.1131 39.943 20.0973C39.7936 20.0698 39.6599 20.0069 39.5419 19.9165H39.538Z" fill="#DFDFE3"/>
<path d="M39.9391 19.8614C39.9391 19.8614 39.9588 19.8378 39.9666 19.8181L40.5171 18.0526L41.2053 17.2661L42.727 16.6645C42.7506 16.6527 42.7821 16.5977 42.786 16.5623C42.7899 16.4365 42.786 16.3185 42.7742 16.2084L40.9222 17.0027L40.5093 16.0393C40.4542 16.0983 40.3952 16.1573 40.3441 16.2202C40.2655 16.3106 40.1908 16.4011 40.12 16.4994C40.1043 16.523 40.0964 16.5426 40.0925 16.5584L40.5171 17.5453C40.5171 17.5453 39.7425 19.7867 39.7386 19.7867C39.7976 19.826 39.8644 19.8535 39.9391 19.8732V19.8614Z" fill="#4B4A4B"/>
<path d="M17.5532 31.2018C17.5532 32.9949 18.8193 33.7184 20.3804 32.814C21.9415 31.9135 23.2076 29.7272 23.2076 27.9342C23.2076 26.1411 21.9415 25.4215 20.3804 26.322C18.8193 27.2224 17.5532 29.4087 17.5532 31.2018Z" fill="#2D2C37"/>
<path d="M17.5532 31.2018C17.5532 32.9949 18.8193 33.7184 20.3804 32.814C21.9415 31.9135 23.2076 29.7272 23.2076 27.9342C23.2076 26.1411 21.9415 25.4215 20.3804 26.322C18.8193 27.2224 17.5532 29.4087 17.5532 31.2018Z" fill="url(#paint10_linear_160_12627)"/>
<path d="M17.7262 31.1703C17.7262 32.8965 18.9452 33.5886 20.4473 32.7235C21.9494 31.8545 23.1683 29.7547 23.1683 28.0285C23.1683 26.3023 21.9494 25.6102 20.4473 26.4753C18.9452 27.3443 17.7262 29.4441 17.7262 31.1703Z" fill="url(#paint11_linear_160_12627)"/>
<path d="M18.1116 30.954C18.1116 32.4207 19.1496 33.0145 20.4276 32.2752C21.7056 31.536 22.7437 29.7468 22.7437 28.2801C22.7437 26.8134 21.7056 26.2197 20.4276 26.9589C19.1496 27.6982 18.1116 29.4873 18.1116 30.954Z" fill="#504F58"/>
<path d="M18.1863 30.8007C18.1863 32.1927 19.1693 32.755 20.3843 32.0511C21.5994 31.3473 22.5785 29.6564 22.5785 28.2645C22.5785 26.8725 21.5954 26.3102 20.3843 27.014C19.1732 27.714 18.1863 29.4087 18.1863 30.8007Z" fill="#BABABE"/>
<path d="M22.4173 28.6852C22.3268 29.4834 21.9257 30.3957 21.2927 31.1231C20.6596 31.8466 19.9479 32.2123 19.3738 32.1769C19.1182 32.1612 18.894 32.0668 18.7171 31.886C18.6581 31.8309 18.607 31.7641 18.5598 31.6894C18.5519 31.6736 18.5401 31.6618 18.5323 31.6461C18.5008 31.5911 18.4733 31.536 18.4497 31.4731C18.4182 31.3944 18.3907 31.3119 18.3711 31.2214C18.3357 31.0641 18.3199 30.8951 18.3199 30.7181C18.3199 30.6355 18.3199 30.553 18.3317 30.4704C18.3317 30.4271 18.3396 30.3839 18.3435 30.3446C18.3435 30.317 18.3514 30.2895 18.3553 30.258C18.3553 30.2305 18.3632 30.2069 18.3671 30.1794C18.3789 30.1008 18.3947 30.0182 18.4143 29.9395C18.4222 29.9002 18.434 29.8609 18.4458 29.8216C18.4536 29.7862 18.4615 29.7547 18.4733 29.7233C18.4851 29.6761 18.5008 29.6289 18.5166 29.5817C18.5283 29.5463 18.5401 29.5109 18.5519 29.4755C18.607 29.3222 18.6699 29.1728 18.7446 29.0233C18.7603 28.9919 18.7761 28.9604 18.7879 28.9329C18.839 28.8307 18.894 28.7324 18.957 28.6341C18.9727 28.6105 18.9884 28.5869 19.0002 28.5593C19.0277 28.5161 19.0592 28.4689 19.0867 28.4257C19.2008 28.2566 19.3226 28.0914 19.4563 27.9381C19.5232 27.8594 19.59 27.7886 19.6608 27.7218C19.6923 27.6864 19.7277 27.655 19.7591 27.6274C19.767 27.6196 19.7788 27.6078 19.7906 27.5999C19.8181 27.5763 19.8456 27.5527 19.8732 27.5291C20.1995 27.246 20.5338 27.0533 20.8523 26.959C21.4106 26.7899 21.9061 26.9196 22.1931 27.3758C22.201 27.3876 22.2128 27.4033 22.2207 27.419C22.2757 27.5095 22.315 27.6117 22.3504 27.7179C22.4369 28.001 22.4566 28.3313 22.4173 28.6852Z" fill="url(#paint12_linear_160_12627)"/>
<path d="M19.7041 28.0206L19.6845 28.6379C19.4525 28.6183 19.2244 28.5947 19.0081 28.5672C19.0357 28.5239 19.0671 28.4767 19.0946 28.4335C19.2087 28.2644 19.3306 28.0992 19.4643 27.9459C19.5311 27.8672 19.598 27.7965 19.6687 27.7296C19.7002 27.6942 19.7356 27.6628 19.767 27.6352C19.7749 27.6274 19.7867 27.6156 19.7985 27.6077C19.826 27.5841 19.8535 27.5605 19.8811 27.5369C20.2074 27.2538 20.5417 27.0611 20.8602 26.9668C21.4185 26.7977 21.914 26.9274 22.201 27.3836C20.6046 26.837 19.7081 28.0245 19.7081 28.0245L19.7041 28.0206Z" fill="#393843"/>
<path d="M22.2876 28.6773C22.2876 28.6773 21.7567 29.3811 21.2102 29.5699C20.6636 29.7547 19.6058 31.0366 19.6058 31.0366L19.6884 28.6379C20.9388 28.7323 22.2915 28.6812 22.2915 28.6812L22.2876 28.6773Z" fill="#393843"/>
<path d="M21.1905 28.2644C21.1119 28.9525 20.7658 29.735 20.2232 30.3563C19.9244 30.6984 19.6019 30.9501 19.2913 31.0956C19.0396 31.2175 18.7958 31.2725 18.5756 31.2607C18.5599 31.2607 18.5402 31.2607 18.5245 31.2568C18.4734 31.2568 18.4223 31.245 18.3712 31.2293C18.3358 31.072 18.32 30.9029 18.32 30.726C18.32 30.6434 18.32 30.5608 18.3318 30.4782C18.3318 30.435 18.3397 30.3917 18.3436 30.3524C18.3436 30.3249 18.3515 30.2973 18.3554 30.2659C18.3554 30.2384 18.3633 30.2148 18.3672 30.1872C18.379 30.1086 18.3947 30.026 18.4144 29.9474C18.4223 29.9081 18.4341 29.8687 18.4459 29.8294C18.4537 29.794 18.4616 29.7626 18.4734 29.7311C18.4852 29.6839 18.5009 29.6367 18.5166 29.5896C18.5284 29.5542 18.5402 29.5188 18.552 29.4834C18.6071 29.33 18.67 29.1806 18.7447 29.0312C18.7604 28.9997 18.7762 28.9683 18.788 28.9407C18.8391 28.8385 18.8941 28.7402 18.957 28.6419C19.0003 28.5711 19.0436 28.5043 19.0868 28.4335C19.2008 28.2644 19.3227 28.0993 19.4564 27.9459C19.5233 27.8673 19.5901 27.7965 19.6609 27.7296C19.6924 27.6942 19.7278 27.6628 19.7592 27.6353C19.7671 27.6274 19.7789 27.6156 19.7907 27.6077C19.8182 27.5841 19.8457 27.5606 19.8732 27.537C20.1996 27.2538 20.5338 27.0612 20.8524 26.9668C20.9153 27.0258 20.9703 27.0966 21.0214 27.1831C21.0647 27.2617 21.104 27.3482 21.1315 27.4387C21.1709 27.5723 21.1945 27.7178 21.2023 27.8751C21.2062 28.001 21.2023 28.1347 21.1866 28.2683L21.1905 28.2644Z" fill="url(#paint13_linear_160_12627)"/>
<path d="M19.6098 29.4166L19.2362 29.2003L18.9649 28.6419C19.0082 28.5712 19.0514 28.5043 19.0947 28.4335C19.2087 28.2645 19.3306 28.0993 19.4643 27.946C19.5311 27.8673 19.598 27.7965 19.6688 27.7297C19.7002 27.6943 19.7356 27.6628 19.7671 27.6353C19.7749 27.6274 19.7867 27.6157 19.7985 27.6078C19.8732 27.651 19.9322 27.6904 19.9362 27.6943L19.4682 28.233L19.6137 29.4205L19.6098 29.4166Z" fill="url(#paint14_linear_160_12627)"/>
<path d="M19.6098 29.4166L19.6609 29.9002L19.2913 31.0996L19.1261 31.6383C19.0711 31.7562 19.2362 32.0236 19.1615 32.0118C19.0357 31.9882 18.729 31.8034 18.5638 31.6933C18.5559 31.6776 18.5442 31.6658 18.5363 31.6501C18.5048 31.595 18.4773 31.54 18.4537 31.477C18.4537 31.4495 18.4655 31.422 18.4812 31.3905L18.5245 31.2568L19.2008 29.2632L19.2323 29.2003L19.6058 29.4166H19.6098Z" fill="url(#paint15_linear_160_12627)"/>
<path d="M21.8746 27.6275C21.8432 27.6118 21.7999 27.6157 21.7527 27.6393L19.9557 28.3982L19.9046 28.4257V29.3891L20.3018 29.161L21.7921 28.5791C21.8864 28.524 21.9611 28.3982 21.9651 28.2881C21.9769 28.0757 22.2993 28.0325 22.26 27.8477C22.2521 27.8123 21.8943 27.6353 21.8707 27.6235L21.8746 27.6275Z" fill="url(#paint16_linear_160_12627)"/>
<path d="M19.9833 30.1794L19.2008 28.5751C19.1615 28.5082 19.1851 28.3863 19.2559 28.288C19.3306 28.1858 19.4092 28.0914 19.4918 27.9931C19.5744 27.8988 19.657 27.8122 19.7435 27.7297C19.826 27.651 19.9165 27.6432 19.9519 27.71L20.7344 29.3143L19.9833 30.1755V30.1794Z" fill="#DFDFE3"/>
<path d="M20.2821 29.6092V28.6458L20.3333 28.6183L22.1303 27.8594C22.2128 27.8122 22.2836 27.8358 22.2994 27.9184C22.3387 28.0992 22.3544 28.2998 22.3426 28.5121C22.3387 28.6222 22.26 28.748 22.1696 28.8031L20.6793 29.3851L20.2782 29.6131L20.2821 29.6092Z" fill="#DFDFE3"/>
<path d="M18.8626 31.8545C18.8115 31.8151 18.8075 31.7129 18.8587 31.6067L19.5822 29.4794L19.6136 29.4165L20.2821 29.6131L20.0422 30.1164L19.5035 31.8545C19.4485 31.9724 19.3423 32.0511 19.2676 32.0353C19.1182 32.0078 18.9845 31.9449 18.8665 31.8545H18.8626Z" fill="#DFDFE3"/>
<path d="M19.2637 31.7956C19.2637 31.7956 19.2834 31.772 19.2912 31.7523L19.8417 29.9868L20.5299 29.2003L22.0516 28.5987C22.0752 28.5869 22.1067 28.5319 22.1106 28.4965C22.1145 28.3707 22.1106 28.2527 22.0988 28.1426L20.2467 28.9369L19.8339 27.9735C19.7788 28.0325 19.7198 28.0915 19.6687 28.1544C19.5901 28.2448 19.5154 28.3353 19.4446 28.4336C19.4288 28.4572 19.421 28.4768 19.417 28.4926L19.8417 29.4795C19.8417 29.4795 19.0671 31.7209 19.0632 31.7209C19.1221 31.7602 19.189 31.7877 19.2637 31.8074V31.7956Z" fill="#4B4A4B"/>
<path d="M15.8978 27.6982L16.3225 28.2291L14.7732 28.8976V28.178L15.8978 27.6982Z" fill="#EBFBFF"/>
<path d="M16.1809 27.3326L15.8978 27.6983L16.3224 28.2291L17.333 26.5658L16.1809 27.3326Z" fill="#ACCCD5"/>
<path d="M16.1809 27.3326L15.8978 27.6983L15.5714 28.2291L14.7732 28.6498L13.2436 28.5319L13.0509 28.7206L14.7732 28.8976L16.3224 28.2291L17.333 26.5658L16.1809 27.3326Z" fill="#FE6D39"/>
<path d="M13.2436 28.5319L13.5346 28.3392L14.7732 28.4375L15.3866 28.0915L15.4849 27.8752L15.8978 27.6982L15.5715 28.2291L14.7732 28.6498L13.2436 28.5319Z" fill="#FFA032"/>
<path d="M20.9467 22.8184L43.1989 8.42271L38.4173 8.22217L37.2613 8.25363L29.0116 12.7284L21.2102 21.6938L20.9467 22.8184Z" fill="#1E1E1E"/>
<path d="M41.803 8.88675L38.5 11.0219L37.5248 11.6511L37.3557 11.7612L35.1458 13.1885L32.4837 14.9069L32.4641 14.9226L21.8433 21.7803L21.9691 21.4068L29.2554 13.0313L30.1952 12.524L31.6187 11.7494L32.9084 11.0494L34.7251 10.0664L36.9271 8.87102L37.0568 8.80024L37.0686 8.79237L37.3793 8.62329H38.3781L41.803 8.88675Z" fill="#1E2329"/>
<path d="M23.7111 20.577L23.4948 19.653L22.8932 20.3411L23.0347 21.0135L23.7111 20.577Z" fill="#1E1E1E"/>
<path d="M32.1494 15.127L31.3197 11.9105L30.6001 12.2998L31.4691 15.5635L32.1494 15.127Z" fill="#1E1E1E"/>
<path d="M38.8105 11.0966L37.1001 8.53284L36.3844 8.92212L38.1303 11.537L38.8105 11.0966Z" fill="#1E1E1E"/>
<path d="M44.0207 16.0943L46.7339 12.4138L46.0851 11.6903V12.1582L44.1033 13.3654L44.0404 13.8727L44.0207 16.0943Z" fill="#535C5E"/>
<path d="M23.2195 28.174L23.1566 28.9958L37.3989 20.7697L37.4028 19.9872L23.2195 28.174Z" fill="#404B4D"/>
<path d="M44.0207 16.4404L46.7339 13.4794V12.4138L44.3195 13.9277L44.0404 14.2226L44.0207 16.4404Z" fill="#404B4D"/>
<path d="M21.8157 24.0374L23.4357 25.2013L23.652 25.8305L23.4357 28.0521L23.2194 28.178L23.3728 26.1254L21.8157 24.5446L18.9216 26.2158L16.8729 29.7469L16.8965 29.9592L16.4718 29.9239V29.4402L18.7053 25.5906L21.5994 23.9194L21.8157 24.0413V24.0374Z" fill="#535C5E"/>
<path d="M23.652 25.8304L23.4358 28.8346L23.1566 28.9958L23.3729 26.1214L21.7017 24.926L19.0396 26.4635L17.1561 29.7115V30.2738L16.9044 30.4547L16.8809 29.739L18.9295 26.2079L21.8236 24.5367L23.6599 25.8265L23.652 25.8304Z" fill="#404B4D"/>
<path d="M44.1032 13.3655L44.3195 13.9278L44.0403 14.2227L43.824 13.6604L42.4871 12.5397L39.593 14.2109L37.5443 17.742L37.3477 20.5456L37.1197 20.1485L37.3281 17.1797L39.3767 13.6486L42.2708 11.9774L44.0993 13.3655H44.1032Z" fill="#535C5E"/>
<path d="M44.3196 13.9277V14.8439L44.0404 15.0051V14.2226L42.3731 12.925L39.7111 14.4625L37.8275 17.7105L37.4029 20.7697L37.1237 20.1484L37.5484 17.7419L39.597 14.2108L42.4911 12.5397L44.3235 13.9277H44.3196Z" fill="#404B4D"/>
<path d="M1.9386 22.3583L1.89141 21.973L1.53359 21.1865L1.55718 21.4932L1.9386 22.3583Z" fill="#FE6D39"/>
<path d="M1.93852 22.3583L2.08008 22.323L2.01323 22.0162L1.82842 21.5326L1.61215 21.104L1.58069 20.9742L1.50991 20.9034L1.53351 21.1866L1.89133 21.973L1.93852 22.3583Z" fill="#FFA032"/>
<path d="M22.0674 18.8862L19.7553 21.3399L8.05313 14.5844L9.394 13.3301L9.55128 13.7036L10.9079 14.0339L15.3709 16.6842L17.2347 16.2949L22.0674 18.8862Z" fill="#272E36"/>
<path d="M46.0851 9.95231L45.1885 10.5736L45.3301 9.40967L45.9435 9.02039L46.0851 9.95231Z" fill="#ED2637"/>
<path d="M23.4751 9.95235C23.2156 10.4793 22.5117 10.3338 22.3112 10.2079C22.1106 10.0821 20.4434 9.14233 20.1917 8.94965C19.9401 8.75697 20.2547 8.14355 20.2547 8.14355C20.2547 8.14355 22.1106 9.2367 23.4712 9.95629L23.4751 9.95235Z" fill="#1E1E1E"/>
<path d="M21.0686 9.59454L21.7135 9.96809C22.0752 10.1765 22.4291 10.4085 22.7751 10.6641C22.8892 10.7467 22.9521 10.9197 22.9206 11.0612L22.842 11.4348C22.8105 11.5764 22.6965 11.6432 22.5785 11.5921C22.2089 11.4348 21.8432 11.25 21.4854 11.0455L20.8405 10.672C20.4788 10.4635 20.1249 10.2315 19.7788 9.97596C19.6648 9.89338 19.6019 9.72037 19.6333 9.57881L19.712 9.20525C19.7434 9.06369 19.8575 8.99685 19.9754 9.04797C20.3451 9.20525 20.7108 9.39006 21.0686 9.59454Z" fill="#272E36"/>
<path d="M20.927 10.0702C20.9348 9.88542 20.9742 9.37817 20.9742 9.37817L21.6151 9.38997C21.6151 9.38997 21.5443 10.1096 21.5365 10.1371C21.5011 10.255 21.3438 10.3848 21.2769 10.3769C21.1197 10.3612 20.9191 10.2668 20.927 10.0702Z" fill="#272E36"/>
<path d="M21.0254 9.22485C20.9271 9.35855 20.9664 9.53943 21.1158 9.622C21.2613 9.70851 21.4618 9.66919 21.5601 9.53156C21.6585 9.39787 21.6191 9.21699 21.4697 9.13441C21.3242 9.04791 21.1237 9.08723 21.0254 9.22485Z" fill="#272E36"/>
<g style="mix-blend-mode:screen">
<path d="M20.868 8.14355L11.1477 17.4628L18.0212 21.4343L28.1268 12.347L20.868 8.14355Z" fill="#0B0E0F"/>
</g>
<path d="M8.70581 22.4133L7.19586 22.7869L7.91938 23.2234L8.70581 22.4133Z" fill="#6FC2DE"/>
<path d="M6.74759 23.947L7.64019 23.0111L8.26147 23.3847L6.74759 23.947Z" fill="#6FC2DE"/>
<path d="M2.54018 23.7346L2.98059 23.6127L10.1883 27.7729L10.7781 28.4925L10.7427 27.7532L2.35144 22.9088L2.54018 23.7346Z" fill="#E5E6EA"/>
<path d="M3.13004 23.5025L2.62279 23.6362L2.08015 22.3229L1.93859 22.3583L2.54021 23.7345L2.98061 23.6126L10.1883 27.7729L10.3849 27.7217L3.13004 23.5025Z" fill="#DEE9EC"/>
<path d="M10.1882 27.7729L10.3848 27.7218L10.778 28.174L13.3772 28.4453L13.0508 28.7206L10.778 28.4925L10.1882 27.7729Z" fill="#DEE9EC"/>
</g>
<defs>
<linearGradient id="paint0_linear_160_12627" x1="11.7611" y1="29.1727" x2="16.0983" y2="21.6584" gradientUnits="userSpaceOnUse">
<stop stop-color="#181818"/>
<stop offset="0.27" stop-color="#262626"/>
<stop offset="0.77" stop-color="#2E2E2E"/>
</linearGradient>
<linearGradient id="paint1_linear_160_12627" x1="32.4325" y1="17.2347" x2="36.7697" y2="9.72428" gradientUnits="userSpaceOnUse">
<stop stop-color="#181818"/>
<stop offset="0.27" stop-color="#262626"/>
<stop offset="0.77" stop-color="#2E2E2E"/>
</linearGradient>
<linearGradient id="paint2_linear_160_12627" x1="16.3382" y1="28.2212" x2="15.8702" y2="27.4112" gradientUnits="userSpaceOnUse">
<stop offset="0.06" stop-color="#92A4A8"/>
<stop offset="0.6" stop-color="#C5F2FF"/>
<stop offset="0.66" stop-color="#C0EBF7"/>
<stop offset="0.75" stop-color="#B3D7E1"/>
<stop offset="0.86" stop-color="#9FB8BF"/>
<stop offset="0.92" stop-color="#92A4A8"/>
</linearGradient>
<linearGradient id="paint3_linear_160_12627" x1="42.4596" y1="20.0658" x2="39.6481" y2="15.1978" gradientUnits="userSpaceOnUse">
<stop stop-color="#141414"/>
<stop offset="0.44" stop-color="#1E1E1E"/>
<stop offset="0.78" stop-color="#202020"/>
<stop offset="0.98" stop-color="#282828"/>
<stop offset="1" stop-color="#2A2A2A"/>
</linearGradient>
<linearGradient id="paint4_linear_160_12627" x1="42.4754" y1="20.0029" x2="39.77" y2="15.3197" gradientUnits="userSpaceOnUse">
<stop stop-color="#161616"/>
<stop offset="0.3" stop-color="#1A1A1A"/>
<stop offset="0.79" stop-color="#1D1D1D"/>
<stop offset="0.8" stop-color="#1E1E1E"/>
</linearGradient>
<linearGradient id="paint5_linear_160_12627" x1="39.6048" y1="20.1131" x2="42.5029" y2="15.0878" gradientUnits="userSpaceOnUse">
<stop offset="0.27" stop-color="#ECEEF7"/>
<stop offset="0.77" stop-color="#9C9AA8"/>
</linearGradient>
<linearGradient id="paint6_linear_160_12627" x1="41.0951" y1="18.5166" x2="39.6638" y2="16.0394" gradientUnits="userSpaceOnUse">
<stop offset="0.26" stop-color="#393843"/>
<stop offset="0.78" stop-color="#23222E"/>
</linearGradient>
<linearGradient id="paint7_linear_160_12627" x1="40.8749" y1="16.6802" x2="39.7267" y2="17.0105" gradientUnits="userSpaceOnUse">
<stop stop-color="#ADAEB8"/>
<stop offset="0.08" stop-color="#BABBC5"/>
<stop offset="0.2" stop-color="#C9CBD3"/>
<stop offset="0.34" stop-color="#D2D4DC"/>
<stop offset="0.55" stop-color="#D5D7DF"/>
<stop offset="0.66" stop-color="#C0C1CA"/>
<stop offset="1" stop-color="#868490"/>
</linearGradient>
<linearGradient id="paint8_linear_160_12627" x1="40.3401" y1="18.8587" x2="39.4082" y2="18.4851" gradientUnits="userSpaceOnUse">
<stop stop-color="#ADAEB8"/>
<stop offset="0.08" stop-color="#BABBC5"/>
<stop offset="0.2" stop-color="#C9CBD3"/>
<stop offset="0.34" stop-color="#D2D4DC"/>
<stop offset="0.55" stop-color="#D5D7DF"/>
<stop offset="0.66" stop-color="#C0C1CA"/>
<stop offset="1" stop-color="#868490"/>
</linearGradient>
<linearGradient id="paint9_linear_160_12627" x1="41.917" y1="16.9634" x2="41.3783" y2="16.0315" gradientUnits="userSpaceOnUse">
<stop stop-color="#8A8B93"/>
<stop offset="0.07" stop-color="#96979F"/>
<stop offset="0.2" stop-color="#A5A7AE"/>
<stop offset="0.34" stop-color="#AEB0B7"/>
<stop offset="0.55" stop-color="#B1B3BA"/>
<stop offset="0.65" stop-color="#9E9FA6"/>
<stop offset="1" stop-color="#63626B"/>
</linearGradient>
<linearGradient id="paint10_linear_160_12627" x1="21.7842" y1="32.004" x2="18.9727" y2="27.132" gradientUnits="userSpaceOnUse">
<stop stop-color="#141414"/>
<stop offset="0.44" stop-color="#1E1E1E"/>
<stop offset="0.78" stop-color="#202020"/>
<stop offset="0.98" stop-color="#282828"/>
<stop offset="1" stop-color="#2A2A2A"/>
</linearGradient>
<linearGradient id="paint11_linear_160_12627" x1="21.7999" y1="31.941" x2="19.0985" y2="27.2578" gradientUnits="userSpaceOnUse">
<stop stop-color="#161616"/>
<stop offset="0.3" stop-color="#1A1A1A"/>
<stop offset="0.79" stop-color="#1D1D1D"/>
<stop offset="0.8" stop-color="#1E1E1E"/>
</linearGradient>
<linearGradient id="paint12_linear_160_12627" x1="18.9294" y1="32.0472" x2="21.8314" y2="27.0219" gradientUnits="userSpaceOnUse">
<stop offset="0.27" stop-color="#ECEEF7"/>
<stop offset="0.77" stop-color="#9C9AA8"/>
</linearGradient>
<linearGradient id="paint13_linear_160_12627" x1="20.4237" y1="30.4546" x2="18.9924" y2="27.9734" gradientUnits="userSpaceOnUse">
<stop offset="0.26" stop-color="#393843"/>
<stop offset="0.78" stop-color="#23222E"/>
</linearGradient>
<linearGradient id="paint14_linear_160_12627" x1="20.2035" y1="28.6184" x2="19.0514" y2="28.9447" gradientUnits="userSpaceOnUse">
<stop stop-color="#ADAEB8"/>
<stop offset="0.08" stop-color="#BABBC5"/>
<stop offset="0.2" stop-color="#C9CBD3"/>
<stop offset="0.34" stop-color="#D2D4DC"/>
<stop offset="0.55" stop-color="#D5D7DF"/>
<stop offset="0.66" stop-color="#C0C1CA"/>
<stop offset="1" stop-color="#868490"/>
</linearGradient>
<linearGradient id="paint15_linear_160_12627" x1="19.6688" y1="30.7968" x2="18.7368" y2="30.4193" gradientUnits="userSpaceOnUse">
<stop stop-color="#ADAEB8"/>
<stop offset="0.08" stop-color="#BABBC5"/>
<stop offset="0.2" stop-color="#C9CBD3"/>
<stop offset="0.34" stop-color="#D2D4DC"/>
<stop offset="0.55" stop-color="#D5D7DF"/>
<stop offset="0.66" stop-color="#C0C1CA"/>
<stop offset="1" stop-color="#868490"/>
</linearGradient>
<linearGradient id="paint16_linear_160_12627" x1="21.2455" y1="28.8976" x2="20.7068" y2="27.9696" gradientUnits="userSpaceOnUse">
<stop stop-color="#ADAEB8"/>
<stop offset="0.08" stop-color="#BABBC5"/>
<stop offset="0.2" stop-color="#C9CBD3"/>
<stop offset="0.34" stop-color="#D2D4DC"/>
<stop offset="0.55" stop-color="#D5D7DF"/>
<stop offset="0.66" stop-color="#C0C1CA"/>
<stop offset="1" stop-color="#868490"/>
</linearGradient>
<clipPath id="clip0_160_12627">
<rect width="48" height="35.4603" fill="white" transform="matrix(-1 0 0 1 48 0)"/>
</clipPath>
</defs>
</svg>
