<svg width="56" height="49" viewBox="0 0 56 49" fill="none" xmlns="http://www.w3.org/2000/svg">
<g clip-path="url(#clip0_160_15035)">
<g style="mix-blend-mode:multiply">
<path d="M26.5289 41.4062L28.6296 40.1311L29.7549 37.7658C29.5509 37.7658 29.4298 37.7626 29.4298 37.7626L27.294 36.7106L26.1814 36.7808L21.7823 38.3715L26.5257 41.4094L26.5289 41.4062ZM18.8081 48.2281L54.7473 27.4788C56.5834 26.4172 56.3794 24.6066 54.2882 23.4335L46.6758 19.165C44.5846 17.9919 41.4 17.8994 39.5606 18.961L3.6214 39.7103C1.78522 40.7719 1.98924 42.5825 4.08044 43.7556L11.6929 48.0241C13.7841 49.1972 16.9687 49.2897 18.8081 48.2281Z" fill="#EAEAEA"/>
</g>
<path d="M15.8562 28.059L15.2027 25.0337L16.1846 21.6132L15.5279 21.2339L10.6537 25.2027L8.45098 27.364L8.07482 28.6359L8.29159 29.1332L7.45639 33.2519L7.23962 33.5579V33.9054L6.70725 35.3941L6.28328 35.6395L5.89756 36.14L6.3566 36.7074L7.01328 37.0868L7.74648 35.5216L7.87717 35.528L8.13539 34.4314L9.24793 28.5818L9.71972 28.0303L9.80579 27.3991L10.2298 26.8348L14.342 23.4048L13.7746 25.7478L14.766 29.0185L15.3111 28.9834L15.7447 28.5371L15.8562 28.059Z" fill="#423D3D"/>
<path d="M8.94824 29.5126L8.29156 29.1333L8.07479 28.636L8.73147 29.0121L8.94824 29.5126Z" fill="#1E1A1A"/>
<path d="M9.10767 27.7402L8.45098 27.364L8.07482 28.6359L8.73151 29.0121L9.10767 27.7402Z" fill="#312C2C"/>
<path d="M8.94824 29.5126L8.29156 29.1333L7.45636 33.2519L7.23958 33.558V33.9054L6.88255 35.2921L7.36391 35.7735L7.89627 34.2848V33.9373L8.11304 33.6313L8.94824 29.5126Z" fill="#382B2D"/>
<path d="M8.59105 29.1747C8.51773 29.1906 8.41573 29.1556 8.36472 29.0982C8.31372 29.0408 8.33284 28.9834 8.40616 28.9675C8.47948 28.9515 8.58149 28.9866 8.63249 29.044C8.6835 29.1014 8.66437 29.1587 8.59105 29.1747Z" fill="#898989"/>
<path d="M7.18848 33.2487L7.1024 33.22L6.54135 34.9254C6.57004 34.9382 6.59873 34.9446 6.63061 34.9446L7.18848 33.2518V33.2487Z" fill="#939393"/>
<path d="M6.54466 34.9222L7.10571 33.2168L6.99733 33.1817L6.9527 33.1658L6.42352 34.7756V34.7788C6.41715 34.8011 6.42034 34.8298 6.44265 34.8585H6.44903C6.47134 34.8872 6.50641 34.9095 6.54466 34.9222Z" fill="#818181"/>
<path d="M7.27466 33.2742L7.19178 33.2487L6.63391 34.9414C6.63391 34.9414 6.6626 34.9414 6.67854 34.9414C6.7168 34.9318 6.73911 34.9127 6.74549 34.8872L7.27466 33.2773V33.2742Z" fill="#898989"/>
<path d="M7.27466 33.2742L7.19178 33.2487L6.63391 34.9414C6.63391 34.9414 6.6626 34.9414 6.67854 34.9414C6.7168 34.9318 6.73911 34.9127 6.74549 34.8872L7.27466 33.2773V33.2742Z" fill="#818181"/>
<path d="M7.10571 33.22L6.99733 33.1849L6.44265 34.8585H6.44903C6.47134 34.8872 6.50641 34.9095 6.54466 34.9223L7.10571 33.2168V33.22Z" fill="#898989"/>
<path d="M7.20775 33.3252C7.13443 33.3411 7.03242 33.3061 6.98142 33.2487C6.93041 33.1913 6.94954 33.1339 7.02286 33.118C7.09618 33.102 7.19819 33.1371 7.24919 33.1945C7.3002 33.2519 7.28107 33.3093 7.20775 33.3252Z" fill="#A7A7A7"/>
<path d="M8.07153 30.7686L7.93127 30.724L7.02275 33.4846C7.07057 33.5038 7.11838 33.5133 7.1662 33.5133L8.07153 30.7686Z" fill="#939393"/>
<path d="M7.02287 33.4846L7.9314 30.724L7.75607 30.6666L7.68593 30.6443L6.82842 33.2487C6.81567 33.2902 6.82842 33.3348 6.86667 33.3794V33.3826C6.90492 33.4272 6.9623 33.4623 7.02287 33.4814V33.4846Z" fill="#818181"/>
<path d="M8.20557 30.8132L8.07167 30.7686L7.16634 33.5132C7.19184 33.5132 7.21416 33.5132 7.23647 33.5101C7.30023 33.4973 7.33849 33.4622 7.34805 33.424L8.20557 30.8164V30.8132Z" fill="#818181"/>
<path d="M8.20557 30.8132L8.07167 30.7686L7.16634 33.5132C7.19184 33.5132 7.21416 33.5132 7.23647 33.5101C7.30023 33.4973 7.33849 33.4622 7.34805 33.424L8.20557 30.8164V30.8132Z" fill="#818181"/>
<path d="M7.9314 30.7208L7.75607 30.6635L6.86348 33.3795V33.3826C6.90174 33.4273 6.95912 33.4623 7.01969 33.4815L7.92821 30.7208H7.9314Z" fill="#898989"/>
<path d="M8.09707 30.8929C7.97594 30.9184 7.81336 30.8642 7.73048 30.7718C7.6476 30.6793 7.67947 30.5837 7.80061 30.5582C7.92175 30.5327 8.08432 30.5869 8.1672 30.6793C8.25009 30.7718 8.21821 30.8674 8.09707 30.8929Z" fill="#A7A7A7"/>
<path d="M8.5752 29.0981L8.48913 29.0695L7.92489 30.7749C7.95358 30.7845 7.98545 30.7941 8.01415 30.7941L8.57201 29.1013L8.5752 29.0981Z" fill="#939393"/>
<path d="M7.92819 30.7718L8.49243 29.0664L8.38405 29.0313L8.3426 29.0186L7.81024 30.6284C7.80068 30.6539 7.81024 30.6794 7.83256 30.7081C7.85806 30.7368 7.89312 30.7591 7.92819 30.7718Z" fill="#818181"/>
<path d="M8.66138 29.1236L8.5785 29.0981L8.02063 30.7909C8.02063 30.7909 8.04932 30.7909 8.06207 30.7845C8.10032 30.7749 8.12264 30.7558 8.12902 30.7335L8.66138 29.1236Z" fill="#898989"/>
<path d="M8.66138 29.1236L8.5785 29.0981L8.02063 30.7909C8.02063 30.7909 8.04932 30.7909 8.06207 30.7845C8.10032 30.7749 8.12264 30.7558 8.12902 30.7335L8.66138 29.1236Z" fill="#818181"/>
<path d="M8.49243 29.0663L8.38405 29.0312L7.83256 30.708C7.85806 30.7367 7.89312 30.759 7.92819 30.7718L8.49243 29.0663Z" fill="#898989"/>
<path d="M15.4226 29.3979L14.7659 29.0186L13.7745 25.7479L14.3324 23.4463L14.9986 23.7842L14.4312 26.1272L15.4226 29.3979Z" fill="#1E1A1A"/>
<path d="M6.70728 35.3941L6.24823 34.409L5.13569 33.8575L4.83286 34.3676L5.89758 35.002L6.36937 36.0189L6.70728 35.3941Z" fill="#423D3D"/>
<path d="M16.5098 28.4383L15.8595 25.4131L16.1846 23.1147V21.6133L11.3073 25.5821L9.1077 27.7402L8.73154 29.0122L8.94831 29.5126L8.11311 33.6313L7.89634 33.9373V34.2848L7.36398 35.7735L6.94 36.0189L6.55428 36.5194L7.01332 37.0868L7.77521 36.0922L7.83577 35.9297L7.96966 35.936L8.79211 34.8108L9.90465 28.9611L10.3764 28.4097L10.4625 27.7785L10.8865 27.2142L14.9988 23.7842L14.4313 26.1272L15.4227 29.3979L15.9678 29.3628L16.4014 28.9165L16.5098 28.4383Z" fill="#362326"/>
<path d="M7.36377 35.7735L6.90473 34.7884L5.79219 34.2369L5.48935 34.747L6.55407 35.3814L7.02586 36.3983L7.36377 35.7735Z" fill="#291E1F"/>
<path d="M9.50277 28.6838C9.54103 28.6838 9.58247 28.6711 9.62391 28.6487C9.76417 28.5691 9.87256 28.381 9.87256 28.2216C9.87256 28.1004 9.8088 28.0208 9.70679 28.0208C9.66854 28.0208 9.6271 28.0335 9.58565 28.0558C9.44539 28.1355 9.33701 28.3236 9.33701 28.483C9.33701 28.6041 9.40076 28.6838 9.50277 28.6838Z" fill="#1C1818"/>
<path d="M9.40082 28.5021C9.40082 28.6455 9.50283 28.7061 9.63034 28.6328C9.75785 28.5594 9.85986 28.3841 9.85986 28.2375C9.85986 28.0908 9.75785 28.0335 9.63034 28.1068C9.50283 28.1801 9.40082 28.3554 9.40082 28.5021Z" fill="#1C1818"/>
<path d="M39.0091 7.59656L39.5415 11.5399L20.9917 26.7871L19.0249 25.1007L31.0014 11.5972L37.9094 7.60931L39.0091 7.59656Z" fill="#434C5F"/>
<path d="M24.0583 17.4117L24.2878 18.0047L24.4026 24.2846L20.1214 27.4214L16.975 28.9739L13.851 30.3797L13.5418 29.8792L15.8752 24.8712L24.0583 17.4117Z" fill="#434C5F"/>
<path d="M35.9233 10.7365L20.4402 25.8116C20.4402 25.8116 18.4159 28.2439 18.7028 30.2522C18.9929 32.2605 20.268 32.455 21.7567 31.5942C23.2454 30.7335 37.514 22.4963 37.514 22.4963C37.514 22.4963 42.2893 19.2702 42.2893 13.3951C42.2893 8.1257 38.2089 8.72819 35.9233 10.7365Z" fill="#434C5F"/>
<path d="M11.8586 30.3032V28.9516L12.3845 28.7667L12.579 24.766L12.732 23.5419L24.4057 15.2058L24.7755 15.1548L25.3079 16.1494L25.1931 18.5243C25.1931 18.5243 20.7015 20.8641 19.8918 22.7067C19.0821 24.546 18.5593 27.1281 18.5593 27.1281L16.7646 28.4065L11.8586 30.3V30.3032Z" fill="#434C5F"/>
<path d="M37.9698 6.17163L38.2759 6.97177L35.171 8.7665L28.789 15.5788L27.2971 17.6349L26.1559 17.6445L29.4266 11.4729L35.2857 7.55513L37.0008 6.40753L37.9698 6.17163Z" fill="#434C5F"/>
<path d="M33.9723 1.31972L34.6863 7.5678L34.9764 7.40203L35.2856 7.55504C35.2856 7.55504 29.9015 11.6801 29.2862 12.7225C28.6678 13.7649 27.3002 17.6349 27.3002 17.6349L26.2387 18.9992L24.3292 20.1022L24.2909 18.0046L24.1762 15.5628L25.3334 7.32552L33.9755 1.31653L33.9723 1.31972Z" fill="#434C5F"/>
<path d="M34.7344 0.714066L34.6483 0.0988217L34.3901 0L28.1484 4.30034L24.4027 7.34149L24.5653 7.90892L25.1009 7.71446L33.998 1.50464L34.7344 0.714066Z" fill="#434C5F"/>
<path d="M33.4782 2.20276L34.1699 7.60607L29.962 10.5962L29.8154 4.6478L33.4782 2.20276Z" fill="#7E7E7E"/>
<path d="M22.4358 19.9971L23.1658 19.5763V22.0181L22.4358 22.4389V19.9971Z" fill="#434C5F"/>
<path d="M40.6541 6.63378L40.1472 7.29046L38.8147 8.05872C38.8147 8.05872 37.9891 7.8547 36.2963 8.69947C34.6036 9.54423 29.9877 14.8168 29.9877 14.8168L26.6023 19.0471L24.4887 20.3509V20.0066L26.5831 18.5498L29.9749 13.6629L35.8628 7.75588L40.1472 6.36281L40.6541 6.30225V6.63378Z" fill="#434C5F"/>
<path d="M16.2069 28.9993C15.9168 26.991 17.9442 24.5587 17.9442 24.5587L33.4273 9.48364C34.7949 8.28184 36.8064 7.58371 38.2026 8.34559L34.9415 6.46798C34.8714 6.42017 34.7981 6.37872 34.7216 6.34047L34.712 6.3341C33.3221 5.63597 31.3584 6.33091 30.0132 7.51039L14.5301 22.5855C14.5301 22.5855 12.5058 25.0178 12.7927 27.0261C12.9107 27.8485 13.1944 28.3649 13.5929 28.6327L13.5992 28.6391C13.6407 28.6646 13.6821 28.6901 13.7236 28.7092L17.0038 30.6028C16.6085 30.335 16.3248 29.8186 16.2069 28.9993Z" fill="#4F1F26"/>
<path d="M26.4429 13.4876L24.5334 13.2485L24.7023 12.9265L26.631 13.1783L28.0559 14.7149L27.8073 14.9571L26.4429 13.4876Z" fill="#5D3138"/>
<path d="M27.9443 12.1105L26.0348 11.8746L26.2069 11.5494L28.1356 11.8013L29.5159 13.2932L29.2672 13.5354L27.9443 12.1105Z" fill="#5D3138"/>
<path d="M24.9383 14.8646L23.032 14.6256L23.2009 14.3036L25.1296 14.5522L26.5959 16.1398L26.3473 16.3788L24.9383 14.8646Z" fill="#5D3138"/>
<path d="M29.4457 10.7365L27.5394 10.4974L27.7083 10.1754L29.637 10.4241L30.9758 11.8713L30.7272 12.1136L29.4457 10.7365Z" fill="#5D3138"/>
<path d="M23.4367 16.2387L21.5272 16.0028L21.6961 15.6808L23.6247 15.9294L25.1326 17.5616L24.8871 17.8007L23.4367 16.2387Z" fill="#5D3138"/>
<path d="M32.4517 7.98219L30.5422 7.74311L30.7112 7.42114L32.6398 7.66979L33.9404 9.07561C33.8448 9.14255 33.7523 9.21268 33.6631 9.286L32.4517 7.98219Z" fill="#5D3138"/>
<path d="M30.9503 9.35939L29.0408 9.12031L29.2129 8.79834L31.1415 9.04699L32.4358 10.4496L32.1871 10.6919L30.9503 9.35939Z" fill="#5D3138"/>
<path d="M33.9565 6.60834L32.047 6.36925L32.0789 6.3055C32.318 6.22261 32.5603 6.16205 32.7993 6.12061L34.1446 6.29593L35.8564 8.14804L35.8437 8.17036C35.7289 8.19905 35.6142 8.23411 35.4994 8.27237L33.9501 6.60834H33.9565Z" fill="#5D3138"/>
<path d="M16.1558 23.3251L14.2464 23.086L14.4153 22.764L16.3439 23.0127L17.8645 24.6576C17.8135 24.7213 17.7434 24.817 17.6541 24.9381L16.1558 23.3251Z" fill="#5D3138"/>
<path d="M21.9321 17.6157L20.0258 17.3766L20.1724 17.0993L20.2139 17.0579L22.1233 17.3065L23.6726 18.9833L23.4271 19.2224L21.9321 17.6157Z" fill="#5D3138"/>
<path d="M13.0127 27.8709L13.0669 27.7689L14.9955 28.0176L16.2898 29.4202C16.3599 29.7007 16.4556 29.9398 16.5703 30.1311L16.5384 30.1948L14.8043 28.33L13.1371 28.1228C13.0924 28.0463 13.051 27.9634 13.0127 27.8709Z" fill="#5D3138"/>
<path d="M12.8085 26.1144L14.6479 26.3535L16.2258 28.0589C16.2035 28.2119 16.1876 28.3682 16.1844 28.5212L14.4598 26.6659L12.7766 26.4555C12.783 26.3439 12.7926 26.2291 12.8085 26.1176V26.1144Z" fill="#5D3138"/>
<path d="M15.0113 25.0083L13.2006 24.7819C13.2485 24.6704 13.2963 24.562 13.3505 24.4568L15.2026 24.6959L16.7773 26.3982C16.7232 26.5097 16.6721 26.6213 16.6211 26.7361L15.0113 25.0051V25.0083Z" fill="#5D3138"/>
<path d="M17.4244 21.744L15.6297 21.5209L15.9421 21.218L17.6125 21.4348L19.2925 23.2486L19.0438 23.4877L17.4244 21.744Z" fill="#5D3138"/>
<path d="M20.4307 18.9929L18.5212 18.7538L18.5754 18.655L18.789 18.4446L20.6187 18.6805L22.2126 20.4051L21.9672 20.6442L20.4307 18.9929Z" fill="#5D3138"/>
<path d="M18.9261 20.37L17.0548 20.1341L17.3672 19.8313L19.1173 20.0576L20.7527 21.8269L20.504 22.0659L18.9261 20.37Z" fill="#5D3138"/>
<path d="M22.0309 18.3108H22.3273V16.2769L22.6461 14.0136C22.6589 13.918 22.7163 13.8415 22.8055 13.8032C22.8948 13.765 22.9904 13.7713 23.0669 13.8255L24.4568 14.7595L24.6226 14.5109L23.2327 13.5769C23.0701 13.4653 22.8629 13.4494 22.6812 13.5291C22.4995 13.6088 22.3784 13.7745 22.3497 13.969L22.0277 16.2546V18.3108H22.0309Z" fill="#E26600"/>
<path d="M23.8735 7.60926L24.1572 7.95991C24.4664 8.35839 24.7183 9.01826 24.7183 9.43267V11.6004C24.7183 12.0148 24.3421 12.0754 24.0329 11.6769L23.8735 11.2274C23.5643 10.8289 23.4495 10.3731 23.4495 9.95866L23.3252 7.79096C23.3252 7.37655 23.5643 7.21078 23.8735 7.60926Z" fill="#1F140B"/>
<path d="M23.8863 7.76223L24.0298 7.95987C24.339 8.35835 24.5908 9.01822 24.5908 9.43263V11.6003C24.5908 12.0147 24.339 12.0275 24.0298 11.629L23.7461 11.2306C23.4368 10.8321 23.3253 10.3762 23.3253 9.96181V7.79411C23.3253 7.37969 23.5771 7.36694 23.8863 7.76542V7.76223Z" fill="#332D28"/>
<path d="M25.1232 14.6893L24.3995 13.0381C24.1095 12.6778 23.9532 12.2315 23.9532 11.7725L23.9596 7.29365C23.9596 6.92068 24.3932 6.71666 24.6801 6.95256L25.9871 8.02047L25.8755 8.27549L24.6004 7.18208C24.425 7.03225 24.1509 7.15658 24.1509 7.38929V11.6832C24.1509 12.1487 24.3103 12.5981 24.6067 12.9584L25.2539 14.4949L25.1264 14.6925L25.1232 14.6893Z" fill="#312821"/>
<path d="M45.847 11.543L46.3794 15.4863L27.8296 30.7335L25.8627 29.0472L37.8393 15.5468L44.7472 11.5589L45.847 11.543Z" fill="#380009"/>
<path d="M31.1641 24.0487L24.3262 20.1022L24.1732 15.5628L25.3304 7.32874L32.1682 11.2752L31.011 19.5125L31.1641 24.0487Z" fill="#5C2930"/>
<path d="M24.5429 14.7276L26.6819 16.4905L27.0963 16.6785L30.8069 18.333L31.6294 12.2858L29.1939 11.0489L28.0846 10.4878L25.4578 8.71543L25.4228 8.69312L24.5844 14.4343L24.5429 14.7276Z" fill="#67383F"/>
<path d="M24.5428 14.7276L26.6819 16.4905L27.0995 16.6786C27.3577 15.5246 27.7593 13.8701 28.0526 13.1146C28.4861 11.9989 29.0918 11.186 29.197 11.0521L28.0909 10.4879L25.4641 8.71863L24.5907 14.4375L24.546 14.7308L24.5428 14.7276Z" fill="#7E7E7E"/>
<path d="M24.5429 14.7276L25.6363 13.9562L28.0845 14.7914L31.0205 16.771L30.8069 18.333L26.6819 16.4905L24.5429 14.7276Z" fill="#784A51"/>
<path d="M31.011 19.5125L30.4755 19.1332L24.4027 15.2058L24.2147 15.2664L24.1732 15.5628L25.1965 20.1788L30.399 23.6057L31.1641 24.0488L31.011 19.5125Z" fill="#ECBB1F"/>
<path d="M30.1279 20.9183L30.3606 21.5113L30.4753 27.7912L26.497 31.1033L23.3538 32.6558L20.5677 33.9086L19.9174 33.5611L22.254 28.5531L30.1279 20.9183Z" fill="#5C2930"/>
<path d="M30.3798 22.5664L30.7241 23.9308L27.0295 27.4119L25.6364 29.1715L26.3313 25.5566L28.9071 23.3825L30.3798 22.5664Z" fill="#380009"/>
<path d="M45.3593 16.1844L29.8762 31.2595C29.8762 31.2595 27.8519 33.6918 28.1388 35.7001C28.4289 37.7084 29.7041 37.9028 31.1928 37.0421C32.6815 36.1814 46.95 27.9442 46.95 27.9442C46.95 27.9442 51.7253 24.7181 51.7253 18.843C51.7253 13.5736 47.645 14.1761 45.3593 16.1844Z" fill="#250007"/>
<path d="M48.8052 15.2664C48.751 15.2664 48.6937 15.2664 48.6363 15.2727C49.0826 15.9836 49.2069 16.9814 49.2069 17.8803C49.2069 23.2582 44.9544 26.3344 44.6834 26.5257L28.9453 35.6109C28.8592 35.6619 28.7763 35.7033 28.6934 35.7448C28.9102 36.9848 29.5031 36.9848 29.7008 36.9848C30.0355 36.9848 30.4595 36.8414 30.9249 36.5736L46.663 27.4884C46.934 27.2971 51.1865 24.2209 51.1865 18.8431C51.1865 17.2109 50.7721 15.2664 48.8021 15.2664H48.8052Z" fill="#4F1F26"/>
<path d="M37.9666 29.0536C37.9666 29.9111 38.5723 30.2585 39.3215 29.825C40.0706 29.3915 40.6763 28.3459 40.6763 27.4884C40.6763 26.6308 40.0706 26.2834 39.3215 26.7169C38.5723 27.1504 37.9666 28.196 37.9666 29.0536Z" fill="#6A3B42"/>
<path d="M38.2632 28.6647C38.2632 29.2098 38.6458 29.4266 39.1208 29.1524C39.5957 28.8783 39.9783 28.2152 39.9783 27.6733C39.9783 27.1314 39.5957 26.9114 39.1208 27.1856C38.6458 27.4597 38.2632 28.1228 38.2632 28.6647Z" fill="#805E63"/>
<path d="M34.763 30.7942C34.763 31.6517 35.3687 31.9991 36.1178 31.5656C36.867 31.1321 37.4727 30.0865 37.4727 29.229C37.4727 28.3714 36.867 28.024 36.1178 28.4575C35.3687 28.891 34.763 29.9366 34.763 30.7942Z" fill="#6A3B42"/>
<path d="M35.0594 30.4083C35.0594 30.9535 35.4419 31.1702 35.9169 30.8961C36.3919 30.6219 36.7744 29.9589 36.7744 29.4169C36.7744 28.875 36.3919 28.6551 35.9169 28.9292C35.4419 29.2034 35.0594 29.8664 35.0594 30.4083Z" fill="#805E63"/>
<path d="M40.4181 24.342C40.4181 27.4055 42.5826 28.6424 45.254 27.0995C47.9253 25.5566 50.0898 21.8237 50.0898 18.757C50.0898 15.6903 47.9253 14.4567 45.254 15.9996C42.5826 17.5425 40.4181 21.2754 40.4181 24.342Z" fill="#4F1F26"/>
<path d="M42.8615 27.7739C41.0254 26.7005 41.0439 23.2528 42.9027 20.0732C44.7614 16.8935 47.7567 15.186 49.5928 16.2593C51.4288 17.3326 51.4104 20.7804 49.5516 23.96C47.6928 27.1397 44.6976 28.8472 42.8615 27.7739Z" fill="#E68D00"/>
<path d="M41.7188 24.6193C41.7188 27.4756 43.7367 28.6264 46.2263 27.1887C48.716 25.751 50.7339 22.2699 50.7339 19.4136C50.7339 16.5574 48.716 15.4066 46.2263 16.8443C43.7367 18.282 41.7188 21.763 41.7188 24.6193Z" fill="#6A3B42"/>
<path d="M48.0497 16.2386C49.3599 16.3374 50.2461 17.4436 50.2461 19.2989C50.2461 22.0468 48.3048 25.3971 45.9107 26.7775C44.1766 27.7784 42.6815 27.4724 41.9865 26.1877C42.605 27.8422 44.2722 28.3203 46.2359 27.1855C48.7224 25.7478 50.7402 22.2699 50.7402 19.4168C50.7402 17.3033 49.6341 16.127 48.0529 16.2386H48.0497Z" fill="#4F1820"/>
<path d="M42.0376 24.0679C42.0376 26.5065 43.759 27.4884 45.8852 26.2611C48.0115 25.0338 49.7329 22.0627 49.7329 19.6241C49.7329 17.1854 48.0115 16.2036 45.8852 17.4309C43.759 18.6582 42.0376 21.6292 42.0376 24.0679Z" fill="#805E63"/>
<path d="M43.4547 26.004C42.1293 25.2292 42.1433 22.7394 43.4858 20.4428C44.8284 18.1462 46.9912 16.9125 48.3165 17.6873C49.6419 18.4621 49.628 20.952 48.2854 23.2486C46.9428 25.5451 44.7801 26.7788 43.4547 26.004Z" fill="#6A3B42"/>
<path d="M42.9205 23.1307C42.9205 24.7883 44.0904 25.4546 45.5344 24.6194C46.9785 23.7874 48.1484 21.7663 48.1484 20.1118C48.1484 18.4574 46.9785 17.7879 45.5344 18.6231C44.0904 19.4551 42.9205 21.4762 42.9205 23.1307Z" fill="#805E63"/>
<path d="M44.3678 22.4804C44.3678 23.3857 45.0086 23.7523 45.7991 23.2965C46.5897 22.8406 47.2305 21.7344 47.2305 20.8291C47.2305 19.9238 46.5897 19.5572 45.7991 20.013C45.0086 20.4689 44.3678 21.5751 44.3678 22.4804Z" fill="#E66A00"/>
<path d="M44.4538 22.6715C44.4538 23.5769 45.0945 23.9435 45.8851 23.4876C46.6757 23.0318 47.3164 21.9256 47.3164 21.0203C47.3164 20.1149 46.6757 19.7483 45.8851 20.2042C45.0945 20.66 44.4538 21.7662 44.4538 22.6715Z" fill="#E68D00"/>
<path d="M38.8433 27.3863L39.4394 27.6892L43.4975 25.0082L46.4685 20.829L46.2262 20.7047L43.2648 22.3369L40.7368 23.2996L38.5436 25.5629L38.8433 27.3863Z" fill="#FFB828"/>
<path d="M39.4396 27.6892L44.0938 25.3111L46.8225 22.9585L46.4687 20.8291L43.8579 22.6398L38.9168 24.5238L39.4396 27.6892Z" fill="#EB7F00"/>
<path d="M42.8663 23.274L41.1449 23.8447L41.4446 24.0806L43.1692 23.5131L42.8663 23.274Z" fill="#FFB828"/>
<path d="M43.1692 23.5132L41.4446 24.0806V24.8234L43.1692 24.2559V23.5132Z" fill="#EC9700"/>
<path d="M41.4446 24.0806L41.1449 23.8447V24.5875L41.4446 24.8234V24.0806Z" fill="#E26600"/>
<path d="M40.9154 23.8989L39.1908 24.4695L39.4937 24.7054L41.2183 24.1348L40.9154 23.8989Z" fill="#FFB828"/>
<path d="M41.2183 24.1348L39.4937 24.7054V25.4481L41.2183 24.8807V24.1348Z" fill="#EC9700"/>
<path d="M39.4937 24.7054L39.1908 24.4695V25.2122L39.4937 25.4481V24.7054Z" fill="#006B8D"/>
<g style="mix-blend-mode:multiply">
<path d="M41.7314 22.9203L42.2893 23.2391L41.5752 24.8393L39.3247 26.9847L38.7572 26.8572L38.5436 25.563L40.7368 23.2996L41.7314 22.9203Z" fill="#A7A7A7"/>
</g>
<path d="M43.8579 22.6398L44.0938 25.3111L46.8225 22.9585L46.4687 20.8291L43.8579 22.6398Z" fill="#E27D00"/>
<path d="M32.6111 30.2299L33.4718 30.724L35.3813 28.3268L39.9909 23.7427L41.4062 20.8864L40.5455 20.3923L39.3374 22.4485L34.6832 27.0835L32.0692 28.8272L32.6111 30.2299Z" fill="#FF9A0A"/>
<path d="M33.4719 30.724L36.2421 28.8209L40.8485 24.2368L41.9482 22.2859L41.4063 20.8865L40.195 22.9458L35.5408 27.5777L32.9268 29.3214L33.4719 30.724Z" fill="#E27D00"/>
<path d="M28.7476 35.0466C28.7476 36.5991 29.8442 37.2239 31.1958 36.4429C32.5474 35.6619 33.644 33.7715 33.644 32.2223C33.644 30.673 32.5474 30.045 31.1958 30.826C29.8442 31.607 28.7476 33.4974 28.7476 35.0466Z" fill="#E68D00"/>
<path d="M29.041 34.8777C29.041 36.2421 30.0037 36.7904 31.1927 36.105C32.3818 35.4196 33.3445 33.7556 33.3445 32.3944C33.3445 31.0332 32.3818 30.4817 31.1927 31.1671C30.0037 31.8525 29.041 33.5133 29.041 34.8777Z" fill="#6A3B42"/>
<path d="M29.5096 34.2624C29.5096 35.1263 30.1184 35.4738 30.8707 35.0371C31.6231 34.6035 32.2319 33.5515 32.2319 32.6877C32.2319 31.8238 31.6231 31.4763 30.8707 31.913C30.1184 32.3466 29.5096 33.3985 29.5096 34.2624Z" fill="#805E63"/>
<path d="M30.2235 33.8511C30.2235 34.2624 30.5136 34.4281 30.8739 34.2209C31.2309 34.0137 31.5242 33.5132 31.5242 33.102C31.5242 32.6908 31.2341 32.525 30.8739 32.7322C30.5168 32.9394 30.2235 33.4399 30.2235 33.8511Z" fill="#E66A00"/>
<path d="M30.4277 33.8863C30.4277 34.2433 30.6795 34.3868 30.9919 34.2082C31.3043 34.0297 31.5562 33.593 31.5562 33.236C31.5562 32.8789 31.3043 32.7355 30.9919 32.914C30.6795 33.0925 30.4277 33.5292 30.4277 33.8863Z" fill="#E68D00"/>
<path d="M51.7253 18.843C51.7253 24.7181 46.95 27.9442 46.95 27.9442C46.95 27.9442 32.6815 36.1814 31.1928 37.0421C29.7041 37.9028 28.4289 37.7084 28.1388 35.7001C27.8488 33.6918 29.8762 31.2595 29.8762 31.2595L45.3593 16.1844C47.645 14.1761 51.7253 13.5736 51.7253 18.843ZM51.1866 18.843C51.1866 17.2109 50.7722 15.2663 48.8021 15.2663C47.8299 15.2663 46.6504 15.77 45.7227 16.5797L30.2715 31.6229C30.0898 31.8492 28.4321 33.9659 28.6712 35.6204C28.8688 36.9847 29.4937 36.9847 29.7009 36.9847C30.0356 36.9847 30.4596 36.8413 30.925 36.5735L46.6631 27.4883C46.9341 27.297 51.1866 24.2208 51.1866 18.843Z" fill="#816065"/>
<path d="M18.569 34.1764V32.8247L18.7635 32.4486L18.958 28.4479L19.111 27.2238L26.6182 20.6314L29.7008 17.9983L30.4786 19.1331L30.5615 22.4357C30.5615 22.4357 27.2813 24.699 26.8509 25.9232C26.1847 27.8199 25.3622 30.6124 25.3622 30.6124L23.1435 32.0883L18.5722 34.1764H18.569Z" fill="#E25D00"/>
<path d="M12.5758 24.766L12.3845 28.7667L18.7601 32.4486L18.9546 28.4479L12.5758 24.766Z" fill="#FF9A0A"/>
<path d="M12.4579 27.2078L12.5758 24.766L13.1432 26.2069L16.5669 28.1801L18.9546 28.4479L18.8335 30.9439L16.4681 30.6762L13.0476 28.7029L12.4579 27.2078Z" fill="#5C2930"/>
<path d="M12.544 25.4418L13.1114 26.8827L16.5319 28.8527L18.9228 29.1237L18.9387 28.7858L16.5479 28.518L13.1274 26.5448L12.5599 25.1039L12.544 25.4418Z" fill="#4A2126"/>
<path d="M12.5123 26.1144L13.0797 27.5553L16.5002 29.5285L18.891 29.7995L18.907 29.4616L16.5161 29.1906L13.0956 27.2174L12.5282 25.7765L12.5123 26.1144Z" fill="#4A2126"/>
<path d="M12.4803 26.7902L13.0477 28.2311L16.4682 30.2043L18.8591 30.4721L18.875 30.1342L16.4842 29.8664L13.0636 27.8932L12.4962 26.4523L12.4803 26.7902Z" fill="#4A2126"/>
<path d="M12.7321 23.5419L12.5759 24.766L13.1433 26.2069L16.567 28.1801L18.9547 28.4479L19.1077 27.2238L17.2938 27.1122L12.9807 24.6225L12.7321 23.5419Z" fill="#FF9A0A"/>
<path d="M12.3845 28.7667L12.3973 28.4894L11.8586 28.9548L18.7027 32.9045L25.3079 28.84L25.0305 28.6233L18.7601 32.4486L12.3845 28.7667Z" fill="#FFD02D"/>
<path d="M11.8587 30.3031L18.7029 34.256V32.9044L11.8587 28.9547V30.3031Z" fill="#FF9A0A"/>
<path d="M11.779 30.6093L16.5607 32.6112L18.7029 34.2561L15.6107 34.17L11.7184 31.9226L11.779 30.6093Z" fill="#FF9A0A"/>
<path d="M11.8587 28.9547L18.7029 32.9044L15.6107 32.8215L11.779 30.6092L11.8587 28.9547Z" fill="#FFD02D"/>
<path d="M12.3847 28.7667L18.7603 32.4486L16.3726 32.184L12.9521 30.2076L12.3847 28.7667Z" fill="#FF9A0A"/>
<path d="M23.4558 27.1122L22.7672 27.5075V27.8422L23.5674 27.1759L23.4558 27.1122Z" fill="#DC6E36"/>
<path d="M23.5674 27.1759L22.8788 27.5712V27.9059L23.5674 27.5042V27.1759Z" fill="#FF8936"/>
<path d="M22.8789 27.5712L22.7673 27.5074V27.8422L22.8789 27.9059V27.5712Z" fill="#D75716"/>
<path d="M18.8335 30.944L20.3636 29.9812L21.8714 28.8432L21.9926 28.3842L22.101 27.9793L22.1807 27.6828V26.293L20.0162 27.9092L18.9546 28.4479L18.9387 28.7858L18.9227 29.1237L18.9068 29.4616L18.8909 29.7995L18.8749 30.1343L18.859 30.4722L18.8335 30.944Z" fill="#380009"/>
<path d="M18.9228 29.1237L19.9812 28.585L22.1648 26.956V26.6309L20.0003 28.2471L18.9387 28.7858L18.9228 29.1237Z" fill="#290006"/>
<path d="M18.8909 29.7995L19.9492 29.2576L22.1807 27.5968V27.2716L19.9683 28.9229L18.9068 29.4616L18.8909 29.7995Z" fill="#290006"/>
<path d="M18.8591 30.4721L19.9174 29.9334L21.9927 28.3841L22.1011 27.9792L19.9366 29.5955L18.875 30.1342L18.8591 30.4721Z" fill="#290006"/>
<path d="M22.1807 26.2929L25.4227 24.0487L30.198 20.1692L30.1566 21.5527L25.6363 25.0306L22.1807 27.2716V26.2929Z" fill="#290006"/>
<path d="M18.7028 32.9044L23.9148 29.7421L25.3079 28.84L25.3621 29.7357L25.072 30.8897L23.2772 32.168L18.7028 34.256V32.9044Z" fill="#E26600"/>
<path d="M23.9086 30.877L23.8927 30.0513L24.8745 26.6308L24.221 26.2515L19.3437 30.2203L17.1409 32.3816L16.7648 33.6535L16.9847 34.1508L16.1495 38.2695L15.9327 38.5787V38.923L15.4004 40.4117L14.9764 40.6571L14.5875 41.1576L15.0465 41.725L15.7032 42.1044L16.4364 40.5392L16.5703 40.5455L16.8253 39.4489L17.9411 33.5993L18.4128 33.0478L18.4957 32.4167L18.9197 31.8524L23.0352 28.4224L22.4645 30.7654L22.8184 31.8397L23.3635 31.8046L23.8002 31.3583L23.9086 30.877Z" fill="#423D3D"/>
<path d="M17.6414 34.5302L16.9847 34.1509L16.7647 33.6536L17.4214 34.0297L17.6414 34.5302Z" fill="#1E1A1A"/>
<path d="M17.7976 32.7609L17.1409 32.3816L16.7648 33.6535L17.4214 34.0297L17.7976 32.7609Z" fill="#312C2C"/>
<path d="M17.6414 34.5302L16.9847 34.1509L16.1495 38.2695L15.9327 38.5787V38.923L15.5725 40.3097L16.0538 40.7911L16.5862 39.3024V38.9549L16.8062 38.6489L17.6414 34.5302Z" fill="#382B2D"/>
<path d="M17.332 34.2752C17.2587 34.2911 17.1567 34.256 17.1057 34.1987C17.0547 34.1413 17.0738 34.0839 17.1471 34.068C17.2204 34.052 17.3225 34.0871 17.3735 34.1413C17.4245 34.1987 17.4053 34.256 17.332 34.272V34.2752Z" fill="#898989"/>
<path d="M15.9294 38.3491L15.8434 38.3204L15.2823 40.0259C15.311 40.0387 15.3397 40.045 15.3716 40.045L15.9294 38.3523V38.3491Z" fill="#939393"/>
<path d="M15.2856 40.0228L15.8467 38.3174L15.7383 38.2823L15.6937 38.2664L15.1645 39.8762C15.1581 39.9017 15.1613 39.9304 15.1836 39.9591H15.19C15.2123 39.9878 15.2474 40.0101 15.2856 40.0228Z" fill="#818181"/>
<path d="M16.0156 38.3746L15.9327 38.3491L15.3749 40.0418C15.3749 40.0418 15.4036 40.0418 15.4195 40.0418C15.4578 40.0323 15.4801 40.0131 15.4865 39.9876L16.0156 38.3778V38.3746Z" fill="#898989"/>
<path d="M16.0156 38.3746L15.9327 38.3491L15.3749 40.0418C15.3749 40.0418 15.4036 40.0418 15.4195 40.0418C15.4578 40.0323 15.4801 40.0131 15.4865 39.9876L16.0156 38.3778V38.3746Z" fill="#818181"/>
<path d="M15.8467 38.3205L15.7383 38.2854L15.1836 39.959H15.19C15.2123 39.9877 15.2474 40.01 15.2856 40.0228L15.8467 38.3173V38.3205Z" fill="#898989"/>
<path d="M15.9485 38.4257C15.8752 38.4416 15.7731 38.4065 15.7221 38.3492C15.6711 38.2918 15.6903 38.2344 15.7636 38.2185C15.8369 38.2025 15.9389 38.2376 15.9899 38.295C16.0409 38.3523 16.0218 38.4097 15.9485 38.4257Z" fill="#A7A7A7"/>
<path d="M16.8125 35.8691L16.6722 35.8245L15.7637 38.5851C15.8115 38.6042 15.8594 38.6138 15.9072 38.6138L16.8125 35.8691Z" fill="#939393"/>
<path d="M15.7636 38.5851L16.6721 35.8244L16.5 35.7671L16.4298 35.7448L15.5723 38.3492C15.5596 38.3906 15.5723 38.4353 15.6106 38.4799V38.4863C15.652 38.5309 15.7094 38.5628 15.77 38.5851H15.7636Z" fill="#818181"/>
<path d="M16.9463 35.9136L16.8124 35.869L15.9071 38.6137C15.9326 38.6137 15.9549 38.6137 15.9772 38.6105C16.041 38.5978 16.0792 38.5627 16.0888 38.5245L16.9463 35.9136Z" fill="#818181"/>
<path d="M16.9463 35.9136L16.8124 35.869L15.9071 38.6137C15.9326 38.6137 15.9549 38.6137 15.9772 38.6105C16.041 38.5978 16.0792 38.5627 16.0888 38.5245L16.9463 35.9136Z" fill="#818181"/>
<path d="M16.6721 35.8213L16.4968 35.7639L15.6042 38.4799V38.4863C15.6456 38.5309 15.703 38.5628 15.7636 38.5851L16.6721 35.8245V35.8213Z" fill="#898989"/>
<path d="M16.8347 35.9934C16.7136 36.0189 16.551 35.9647 16.4681 35.8722C16.3852 35.7798 16.4171 35.6841 16.5382 35.6586C16.6594 35.6331 16.8219 35.6873 16.9048 35.7798C16.9877 35.8722 16.9558 35.9679 16.8379 35.9934H16.8347Z" fill="#A7A7A7"/>
<path d="M17.3162 34.1986L17.2301 34.1699L16.6659 35.8754C16.6945 35.885 16.7264 35.8945 16.7551 35.8945L17.313 34.1986H17.3162Z" fill="#939393"/>
<path d="M16.6692 35.8723L17.2334 34.1668L17.125 34.1318L17.0836 34.119L16.5512 35.7289C16.5416 35.7544 16.5512 35.7799 16.5735 35.8086H16.5767C16.599 35.8372 16.6341 35.8596 16.6692 35.8723Z" fill="#818181"/>
<path d="M17.4023 34.2242L17.3195 34.1987L16.7616 35.8946C16.7616 35.8946 16.7903 35.8946 16.803 35.8883C16.8413 35.8787 16.8636 35.8596 16.87 35.8373L17.4023 34.2274V34.2242Z" fill="#898989"/>
<path d="M17.4023 34.2242L17.3195 34.1987L16.7616 35.8946C16.7616 35.8946 16.7903 35.8946 16.803 35.8883C16.8413 35.8787 16.8636 35.8596 16.87 35.8373L17.4023 34.2274V34.2242Z" fill="#818181"/>
<path d="M17.2334 34.1668L17.125 34.1317L16.5735 35.8085H16.5767C16.599 35.8372 16.6341 35.8595 16.6692 35.8722L17.2334 34.1668Z" fill="#898989"/>
<path d="M23.4749 32.2191L22.8182 31.8397L22.4644 30.7655L23.0254 28.4639L23.6885 28.8018L23.121 31.1448L23.4749 32.2191Z" fill="#1E1A1A"/>
<path d="M24.5653 31.2564L24.5494 30.4307L24.8745 28.1323V26.6309L20.0004 30.5997L17.7976 32.761L17.4214 34.0297L17.6414 34.5302L16.8062 38.6488L16.5862 38.9549V39.3023L16.0539 40.791L15.6331 41.0365L15.2442 41.537L15.7032 42.1044L16.4651 41.1098L16.5257 40.9472L16.6596 40.9568L17.482 39.8283L18.5946 33.9787L19.0695 33.4272L19.1524 32.7961L19.5764 32.2318L23.6887 28.8017L23.1212 31.1448L23.4751 32.2191L24.0202 32.1808L24.4569 31.7377L24.5653 31.2564Z" fill="#362326"/>
<path d="M28.1387 35.7001C27.8486 33.6918 29.8761 31.2595 29.8761 31.2595L45.3592 16.1844C46.7268 14.9826 48.7383 14.2845 50.1345 15.0464L46.8734 13.1688C46.8033 13.121 46.73 13.0795 46.6534 13.0413L46.6439 13.0349C45.254 12.3368 43.2903 13.0317 41.9451 14.2112L26.462 29.2863C26.462 29.2863 24.4377 31.7186 24.7246 33.7269C24.8426 34.5493 25.1263 35.0658 25.5247 35.3335L25.5311 35.3399C25.5726 35.3654 25.614 35.3909 25.6554 35.41L28.9357 37.3036C28.5404 37.0358 28.2567 36.5194 28.1387 35.7001Z" fill="#4F1F26"/>
<path d="M38.3748 20.1851L36.4653 19.9492L36.6342 19.624L38.5628 19.8759L39.9878 21.4156L39.7391 21.6546L38.3748 20.1851Z" fill="#5D3138"/>
<path d="M39.8762 18.8112L37.9699 18.5721L38.1388 18.2501L40.0674 18.4988L41.4478 19.9938L41.1991 20.2329L39.8762 18.8112Z" fill="#5D3138"/>
<path d="M36.8702 21.5623L34.9639 21.3232L35.1328 21.0012L37.0614 21.2499L38.5278 22.8374L38.2792 23.0765L36.8702 21.5623Z" fill="#5D3138"/>
<path d="M41.3808 17.4341L39.4713 17.195L39.6402 16.873L41.5688 17.1217L42.9077 18.5721L42.6591 18.8112L41.3808 17.4341Z" fill="#5D3138"/>
<path d="M35.3685 22.9393L33.459 22.7003L33.6312 22.3783L35.5566 22.6269L37.0676 24.2591L36.819 24.4982L35.3685 22.9393Z" fill="#5D3138"/>
<path d="M44.3836 14.683L42.4741 14.4439L42.6431 14.1219L44.5717 14.3706L45.8723 15.7764C45.7767 15.8434 45.6842 15.9135 45.595 15.9868L44.3836 14.683Z" fill="#5D3138"/>
<path d="M42.8822 16.0569L40.9727 15.821L41.1448 15.4958L43.0734 15.7477L44.3677 17.1471L44.1222 17.3894L42.8822 16.0569Z" fill="#5D3138"/>
<path d="M45.8884 13.3058L43.9789 13.0668L44.0108 13.003C44.2499 12.9201 44.4922 12.8596 44.7312 12.8181L46.0765 12.9934L47.7883 14.8456L47.7756 14.8679C47.6608 14.8966 47.5461 14.9316 47.4313 14.9699L45.882 13.3058H45.8884Z" fill="#5D3138"/>
<path d="M28.0877 30.0226L26.1782 29.7835L26.3472 29.4615L28.2758 29.7102L29.7964 31.3551C29.7454 31.4189 29.6752 31.5145 29.586 31.6356L28.0877 30.0226Z" fill="#5D3138"/>
<path d="M33.864 24.3134L31.9577 24.0775L32.1043 23.7969L32.1457 23.7555L34.0552 24.0041L35.6045 25.6809L35.359 25.92L33.864 24.3134Z" fill="#5D3138"/>
<path d="M24.9446 34.5716L24.9988 34.4696L26.9274 34.7183L28.2217 36.1209C28.2918 36.4014 28.3874 36.6405 28.5022 36.8318L28.4703 36.8955L26.7362 35.0307L25.0689 34.8234C25.0243 34.7469 24.9829 34.6641 24.9446 34.5716Z" fill="#5D3138"/>
<path d="M24.7406 32.812L26.58 33.0511L28.158 34.7566C28.1356 34.9096 28.1197 35.0658 28.1165 35.2188L26.3919 33.3635L24.7088 33.1531C24.7151 33.0415 24.7247 32.9268 24.7406 32.8152V32.812Z" fill="#5D3138"/>
<path d="M26.9432 31.709L25.1325 31.4826C25.1803 31.3711 25.2282 31.2627 25.2823 31.1575L27.1345 31.3966L28.7092 33.0988C28.655 33.2104 28.604 33.322 28.553 33.4367L26.9432 31.7058V31.709Z" fill="#5D3138"/>
<path d="M29.3566 28.4447L27.5618 28.2184L27.8742 27.9155L29.5478 28.1323L31.2246 29.9462L30.976 30.1884L29.3566 28.4447Z" fill="#5D3138"/>
<path d="M32.3626 25.6904L30.4531 25.4513L30.5073 25.3525L30.7208 25.1421L32.5506 25.3812L34.1445 27.1026L33.8991 27.3417L32.3626 25.6904Z" fill="#5D3138"/>
<path d="M30.858 27.0675L28.9867 26.8316L29.2991 26.5288L31.0492 26.7551L32.6846 28.5244L32.4391 28.7635L30.858 27.0675Z" fill="#5D3138"/>
<path d="M34.1477 23.0095L33.5101 23.5419L35.7129 24.7245L45.34 14.9635C45.34 14.9635 46.5132 14.3674 47.3165 14.2239C48.1198 14.0837 48.8594 14.3132 48.8594 14.3132L46.8734 13.1688C46.8734 13.1688 45.4421 12.9903 45.254 13.0636C45.0659 13.1369 38.0241 18.7187 38.0241 18.7187L34.1477 23.0095Z" fill="#380009"/>
<path d="M44.7949 10.4878L46.0796 12.206L42.0088 12.7129L34.1955 22.2667L31.3297 24.2973L31.1639 24.0487L36.2644 15.4225L42.1235 11.5015L43.8258 10.7237L44.7949 10.4878Z" fill="#E25D00"/>
<path d="M40.8102 5.26625L41.486 10.9788L41.8143 11.3454L42.1235 11.4984C42.1235 11.4984 36.3026 15.7318 35.6842 16.7774C35.0658 17.8198 34.1062 21.9129 34.1062 21.9129L31.1639 24.0487L31.0109 19.5093L32.168 11.2721L40.8102 5.26306V5.26625Z" fill="#380009"/>
<path d="M41.5752 4.6606L41.4859 4.04535L41.2277 3.94653L34.986 8.25006L31.2435 11.2912L31.4029 11.8555L31.9385 11.6642L41.011 5.26628L41.5752 4.6606Z" fill="#E25D00"/>
<path d="M40.3162 6.15247L40.9219 11.6132L36.8001 14.5427L36.6534 8.5975L40.3162 6.15247Z" fill="#4F2F32"/>
<path d="M36.0476 9.08203V14.9763L34.8872 17.0611L33.6599 21.8747L31.6038 23.2263L31.352 19.3499L32.4422 11.6928L36.0476 9.08203Z" fill="#4F2F32"/>
<path d="M49.0508 12.1678L47.8968 12.4292L45.8375 13.0093C45.8375 13.0093 45.2318 13.2134 43.7463 14.3865C42.3405 15.499 38.6873 19.5252 38.6873 19.5252L36.0669 23.2549L35.7162 23.9307L33.8928 22.8788V22.289L34.151 22.0977L36.816 17.7305L42.7039 11.8235L46.5515 11.0775L47.0584 11.017L49.0508 12.1678Z" fill="#FFC523"/>
<path d="M36.8127 17.7305L38.7285 18.8334L35.9711 23.1497L34.1477 22.0977L36.8127 17.7305Z" fill="#FF9A0A"/>
<path d="M20.2426 18.4541V19.8982C20.2426 19.9683 20.3478 20.2807 20.4307 20.3221C20.4466 20.3317 20.4625 20.3381 20.4785 20.3445C20.5901 20.3955 20.7335 20.405 20.861 20.3763H20.8706L20.9885 20.3285C21.0714 20.2807 21.1065 20.217 21.1001 20.1564V18.7155L20.2458 18.4541H20.2426Z" fill="#615851"/>
<path d="M19.4903 20.2074C19.4935 20.4242 19.5604 20.5453 19.656 20.6441C19.6688 20.6601 19.6815 20.676 19.6943 20.6888C19.7517 20.7461 19.9111 20.7844 19.9461 20.727L20.8578 20.3764H20.8674L20.9854 20.3285L20.8738 20.1723L20.5167 19.6878H20.5136L20.3829 19.5093L20.3095 19.5475L20.2458 19.5826L19.5604 19.9396C19.5222 19.9843 19.4966 20.0799 19.4966 20.2074H19.4903Z" fill="#615851"/>
<path d="M19.656 20.6441C19.6688 20.66 19.6815 20.676 19.6943 20.6887C19.7517 20.7461 19.9111 20.7844 19.9461 20.727L20.8578 20.3763H20.8674L20.9854 20.3285C21.0682 20.2807 21.1033 20.2169 21.0969 20.1564V18.8685C20.9184 18.843 20.7208 18.8207 20.5677 18.8111C20.4721 18.8016 20.351 18.7378 20.2426 18.6804V19.4232C20.2426 19.4232 20.2426 19.4327 20.2522 19.4487C20.2617 19.471 20.2745 19.5092 20.3095 19.5475C20.3478 19.5953 20.4084 19.6431 20.5136 19.6814H20.5167C20.7686 19.7866 20.8929 19.8472 20.8929 19.8758C20.8929 19.9045 20.8706 20.1723 20.8706 20.1723C20.8706 20.1723 20.6984 20.2552 20.4753 20.3444C20.1661 20.4783 19.7676 20.6441 19.656 20.6441Z" fill="#463C34"/>
<path d="M19.8856 10.6313V18.875C19.8856 18.9961 19.9558 19.1141 20.1056 19.2033C20.1151 19.2065 20.1183 19.2129 20.1279 19.2161C20.2745 19.3022 20.4658 19.3468 20.6571 19.35C20.8101 19.3595 20.9599 19.3404 21.0938 19.299C21.1639 19.283 21.2277 19.2543 21.2851 19.2225C21.454 19.1236 21.5337 18.9929 21.5178 18.8654V10.6313H19.8824H19.8856Z" fill="#69645F"/>
<path d="M21.097 10.6313V19.299C21.1671 19.283 21.2309 19.2543 21.2882 19.2225C21.4572 19.1236 21.5369 18.9929 21.521 18.8654V10.6313H21.097Z" fill="#615851"/>
<path d="M20.1087 10.6312V19.2032C20.1087 19.2032 20.1214 19.2128 20.131 19.216C20.2776 19.302 20.4689 19.3467 20.6602 19.3499V10.6281H20.1087V10.6312Z" fill="#737373"/>
<path d="M21.3551 12.3559C21.283 12.3559 21.2244 12.2646 21.2244 12.1519C21.2244 12.0392 21.283 11.9479 21.3551 11.9479C21.4273 11.9479 21.4858 12.0392 21.4858 12.1519C21.4858 12.2646 21.4273 12.3559 21.3551 12.3559Z" fill="#2B2B2B"/>
<path d="M21.2244 13.1687C21.2244 13.2803 21.2818 13.3728 21.3551 13.3728C21.4285 13.3728 21.4858 13.2803 21.4858 13.1687C21.4858 13.0572 21.4285 12.9647 21.3551 12.9647C21.2818 12.9647 21.2244 13.0572 21.2244 13.1687Z" fill="#2B2B2B"/>
<path d="M21.2244 14.1857C21.2244 14.2973 21.2818 14.3897 21.3551 14.3897C21.4285 14.3897 21.4858 14.2973 21.4858 14.1857C21.4858 14.0741 21.4285 13.9817 21.3551 13.9817C21.2818 13.9817 21.2244 14.0741 21.2244 14.1857Z" fill="#2B2B2B"/>
<path d="M21.2244 15.2026C21.2244 15.3141 21.2818 15.4066 21.3551 15.4066C21.4285 15.4066 21.4858 15.3141 21.4858 15.2026C21.4858 15.091 21.4285 14.9985 21.3551 14.9985C21.2818 14.9985 21.2244 15.091 21.2244 15.2026Z" fill="#2B2B2B"/>
<path d="M21.2244 16.2195C21.2244 16.3311 21.2818 16.4235 21.3551 16.4235C21.4285 16.4235 21.4858 16.3311 21.4858 16.2195C21.4858 16.1079 21.4285 16.0155 21.3551 16.0155C21.2818 16.0155 21.2244 16.1079 21.2244 16.2195Z" fill="#2B2B2B"/>
<path d="M21.2244 17.2395C21.2244 17.3511 21.2818 17.4436 21.3551 17.4436C21.4285 17.4436 21.4858 17.3511 21.4858 17.2395C21.4858 17.128 21.4285 17.0355 21.3551 17.0355C21.2818 17.0355 21.2244 17.128 21.2244 17.2395Z" fill="#2B2B2B"/>
<path d="M20.6347 12.8627C20.6347 12.9743 20.7144 13.0667 20.8132 13.0667C20.912 13.0667 20.9917 12.9743 20.9917 12.8627C20.9917 12.7511 20.912 12.6587 20.8132 12.6587C20.7144 12.6587 20.6347 12.7511 20.6347 12.8627Z" fill="#2B2B2B"/>
<path d="M20.6347 13.8797C20.6347 13.9913 20.7144 14.0837 20.8132 14.0837C20.912 14.0837 20.9917 13.9913 20.9917 13.8797C20.9917 13.7681 20.912 13.6757 20.8132 13.6757C20.7144 13.6757 20.6347 13.7681 20.6347 13.8797Z" fill="#2B2B2B"/>
<path d="M20.6347 14.8965C20.6347 15.0081 20.7144 15.1005 20.8132 15.1005C20.912 15.1005 20.9917 15.0081 20.9917 14.8965C20.9917 14.785 20.912 14.6925 20.8132 14.6925C20.7144 14.6925 20.6347 14.785 20.6347 14.8965Z" fill="#2B2B2B"/>
<path d="M20.6347 15.9135C20.6347 16.0251 20.7144 16.1175 20.8132 16.1175C20.912 16.1175 20.9917 16.0251 20.9917 15.9135C20.9917 15.8019 20.912 15.7095 20.8132 15.7095C20.7144 15.7095 20.6347 15.8019 20.6347 15.9135Z" fill="#2B2B2B"/>
<path d="M20.6347 16.9303C20.6347 17.0419 20.7144 17.1344 20.8132 17.1344C20.912 17.1344 20.9917 17.0419 20.9917 16.9303C20.9917 16.8188 20.912 16.7263 20.8132 16.7263C20.7144 16.7263 20.6347 16.8188 20.6347 16.9303Z" fill="#2B2B2B"/>
<path d="M20.6347 17.9505C20.6347 18.0621 20.7144 18.1545 20.8132 18.1545C20.912 18.1545 20.9917 18.0621 20.9917 17.9505C20.9917 17.8389 20.912 17.7465 20.8132 17.7465C20.7144 17.7465 20.6347 17.8389 20.6347 17.9505Z" fill="#2B2B2B"/>
<path d="M20.1373 12.3559C20.1373 12.4674 20.2074 12.5599 20.2935 12.5599C20.3796 12.5599 20.4497 12.4674 20.4497 12.3559C20.4497 12.2443 20.3796 12.1519 20.2935 12.1519C20.2074 12.1519 20.1373 12.2443 20.1373 12.3559Z" fill="#2B2B2B"/>
<path d="M20.1373 13.3728C20.1373 13.4844 20.2074 13.5769 20.2935 13.5769C20.3796 13.5769 20.4497 13.4844 20.4497 13.3728C20.4497 13.2613 20.3796 13.1688 20.2935 13.1688C20.2074 13.1688 20.1373 13.2613 20.1373 13.3728Z" fill="#2B2B2B"/>
<path d="M20.1373 14.3897C20.1373 14.5013 20.2074 14.5937 20.2935 14.5937C20.3796 14.5937 20.4497 14.5013 20.4497 14.3897C20.4497 14.2781 20.3796 14.1857 20.2935 14.1857C20.2074 14.1857 20.1373 14.2781 20.1373 14.3897Z" fill="#2B2B2B"/>
<path d="M20.1373 15.4067C20.1373 15.5182 20.2074 15.6107 20.2935 15.6107C20.3796 15.6107 20.4497 15.5182 20.4497 15.4067C20.4497 15.2951 20.3796 15.2026 20.2935 15.2026C20.2074 15.2026 20.1373 15.2951 20.1373 15.4067Z" fill="#2B2B2B"/>
<path d="M20.1373 16.4267C20.1373 16.5382 20.2074 16.6307 20.2935 16.6307C20.3796 16.6307 20.4497 16.5382 20.4497 16.4267C20.4497 16.3151 20.3796 16.2227 20.2935 16.2227C20.2074 16.2227 20.1373 16.3151 20.1373 16.4267Z" fill="#2B2B2B"/>
<path d="M20.1373 17.4436C20.1373 17.5552 20.2074 17.6477 20.2935 17.6477C20.3796 17.6477 20.4497 17.5552 20.4497 17.4436C20.4497 17.3321 20.3796 17.2396 20.2935 17.2396C20.2074 17.2396 20.1373 17.3321 20.1373 17.4436Z" fill="#2B2B2B"/>
<path d="M19.9175 11.8459C19.9175 11.9574 19.943 12.0499 19.9748 12.0499C20.0067 12.0499 20.0322 11.9574 20.0322 11.8459C20.0322 11.7343 20.0067 11.6418 19.9748 11.6418C19.943 11.6418 19.9175 11.7343 19.9175 11.8459Z" fill="#2B2B2B"/>
<path d="M19.9175 12.8627C19.9175 12.9743 19.943 13.0667 19.9748 13.0667C20.0067 13.0667 20.0322 12.9743 20.0322 12.8627C20.0322 12.7511 20.0067 12.6587 19.9748 12.6587C19.943 12.6587 19.9175 12.7511 19.9175 12.8627Z" fill="#2B2B2B"/>
<path d="M19.9175 13.8797C19.9175 13.9913 19.943 14.0837 19.9748 14.0837C20.0067 14.0837 20.0322 13.9913 20.0322 13.8797C20.0322 13.7681 20.0067 13.6757 19.9748 13.6757C19.943 13.6757 19.9175 13.7681 19.9175 13.8797Z" fill="#2B2B2B"/>
<path d="M19.9175 14.8965C19.9175 15.0081 19.943 15.1005 19.9748 15.1005C20.0067 15.1005 20.0322 15.0081 20.0322 14.8965C20.0322 14.785 20.0067 14.6925 19.9748 14.6925C19.943 14.6925 19.9175 14.785 19.9175 14.8965Z" fill="#2B2B2B"/>
<path d="M19.9175 15.9135C19.9175 16.0251 19.943 16.1175 19.9748 16.1175C20.0067 16.1175 20.0322 16.0251 20.0322 15.9135C20.0322 15.8019 20.0067 15.7095 19.9748 15.7095C19.943 15.7095 19.9175 15.8019 19.9175 15.9135Z" fill="#2B2B2B"/>
<path d="M19.9748 17.1344C19.9432 17.1344 19.9175 17.043 19.9175 16.9303C19.9175 16.8177 19.9432 16.7263 19.9748 16.7263C20.0065 16.7263 20.0322 16.8177 20.0322 16.9303C20.0322 17.043 20.0065 17.1344 19.9748 17.1344Z" fill="#2B2B2B"/>
<path d="M19.9175 17.9505C19.9175 18.0621 19.943 18.1545 19.9748 18.1545C20.0067 18.1545 20.0322 18.0621 20.0322 17.9505C20.0322 17.8389 20.0067 17.7465 19.9748 17.7465C19.943 17.7465 19.9175 17.8389 19.9175 17.9505Z" fill="#2B2B2B"/>
<path d="M21.285 10.966C20.9662 11.1509 20.4466 11.1477 20.1278 10.966C19.8059 10.7811 19.8059 10.4814 20.1246 10.2965C20.4434 10.1116 20.963 10.1148 21.2818 10.2965C21.6038 10.4814 21.6038 10.7811 21.285 10.966Z" fill="#838383"/>
<path d="M21.1002 8.80153L20.3128 9.33389V10.4942C20.3096 10.5548 20.3478 10.6186 20.4275 10.6632C20.5805 10.7525 20.8292 10.7525 20.9854 10.6632C21.0651 10.6154 21.1033 10.5548 21.1002 10.4911V8.79834V8.80153Z" fill="#615851"/>
<path d="M20.9854 9.03737C20.8323 9.22545 20.5837 9.38484 20.4275 9.3944C20.2745 9.40397 20.2713 9.26052 20.4275 9.07562C20.5805 8.88754 20.8292 8.72815 20.9854 8.71859C21.1384 8.70903 21.1416 8.85248 20.9854 9.03737Z" fill="#838383"/>
<path d="M20.5102 9.06927C20.6186 8.93857 20.794 8.82381 20.8992 8.81743C21.0043 8.81105 21.0075 8.90988 20.8992 9.04058C20.7908 9.17128 20.6154 9.28604 20.5102 9.29241C20.4019 9.29879 20.4019 9.19997 20.5102 9.06927Z" fill="#332D28"/>
<path d="M19.1077 27.2238L17.2938 27.1122L12.9807 24.6225L12.7321 23.5419L21.5017 17.4341L24.7756 15.1548L26.6691 16.6722L29.6975 17.9983L26.6181 20.6314L19.1077 27.2238Z" fill="#FFC523"/>
<g style="mix-blend-mode:screen">
<path d="M22.1456 16.9878L13.1529 23.5419L13.4493 24.3102L17.4022 26.5735L19.1077 26.8476L26.0347 20.9598L29.6975 17.9983L19.1077 27.2238L17.2938 27.1122L12.9807 24.6226L12.7321 23.5419L22.1456 16.9878Z" fill="#FF6200"/>
</g>
<path d="M49.0508 12.4994L48.5503 12.8755L44.8939 13.5354L39.1591 19.2989L36.3028 23.4112L35.713 23.9308V23.3411L35.9713 23.1498L38.7287 18.8335L44.6963 12.9712L48.5439 12.2252L49.0508 12.1678V12.4994Z" fill="#E25D00"/>
<path d="M24.7756 15.1548L24.4027 15.2058L12.7321 23.5419L24.7756 15.1548Z" fill="#E29200"/>
<path d="M24.4027 7.34149L31.2437 11.2912L34.9862 8.25001L41.2279 3.94649L41.4861 4.04531L34.6483 0.0988217L34.3901 0L28.1483 4.30034L24.4027 7.34149Z" fill="#FFC523"/>
<path d="M28.1483 4.30029L34.9861 8.24997L31.2436 11.2911L24.4026 7.34145L28.1483 4.30029Z" fill="#FFD02D"/>
<path d="M24.5653 7.90898L31.4031 11.8555L31.2437 11.2912L24.4027 7.34155L24.5653 7.90898Z" fill="#ECBB1F"/>
<path d="M44.7949 10.4878L41.1226 7.97583L41.486 10.9819L41.8143 11.3485L42.1236 11.5015L44.7949 10.4878Z" fill="#F37C00"/>
<path d="M34.0713 12.8213L34.4507 12.8595C34.7599 12.9233 35.0117 13.309 35.0117 13.7234V16.127C35.0117 16.5414 34.7599 16.8251 34.4507 16.7646L33.9311 16.6753C33.6218 16.6115 33.5071 16.2768 33.5071 15.8624V13.4588C33.5071 13.0444 33.7589 12.7607 34.0681 12.8213H34.0713Z" fill="#1F140B"/>
<path d="M34.0713 12.8883L34.4507 12.9265C34.7599 12.9903 35.0117 13.376 35.0117 13.7904V16.194C35.0117 16.6084 34.7599 16.8921 34.4507 16.8316L33.9311 16.7423C33.6218 16.6786 33.5071 16.3438 33.5071 15.9294V13.5258C33.5071 13.1114 33.7589 12.8277 34.0681 12.8883H34.0713Z" fill="#332D28"/>
<path d="M34.0266 16.5064V13.5673C34.0266 13.0987 33.8385 12.6524 33.5069 12.324L32.2063 11.0425L32.1904 10.8863L32.3115 10.8322L33.7205 12.1774C34.0648 12.5057 34.2625 12.9648 34.2625 13.4398V16.5702C34.2625 17.1472 33.9724 17.6859 33.491 18.0015L31.2372 19.4838L31.081 19.4264L31.1735 19.1969L33.3858 17.7178C33.7875 17.4468 34.0266 16.9942 34.0266 16.5096V16.5064Z" fill="#312821"/>
<path d="M40.4182 11.2912C40.3035 11.3294 36.6662 9.08205 36.6662 9.08205L36.6534 8.5975L40.1058 6.15247L40.4182 11.2912Z" fill="#664A4C"/>
<path d="M33.8895 22.2891L35.7129 23.341V23.9308L33.8895 22.8788V22.2891Z" fill="#FF9A0A"/>
<path d="M42.7039 11.8235L44.6963 12.9711L49.0508 12.1678L47.0584 11.017L42.7039 11.8235Z" fill="#FFB828"/>
<path d="M46.2008 10.5006L47.5715 11.2912V11.967L45.9776 10.6281L46.2008 10.5006Z" fill="#FFD02D"/>
<path d="M45.9777 10.6281L47.3452 11.4186V12.0976L45.9777 11.3071V10.6281Z" fill="#E29200"/>
<path d="M47.3452 11.4186L47.5715 11.2911V11.967L47.3452 12.0977V11.4186Z" fill="#E25B00"/>
<g style="mix-blend-mode:screen">
<path d="M41.2278 3.94649L34.7342 8.10338L31.1639 10.8768L24.97 7.32874L28.4702 4.48842L34.39 0L28.1483 4.30034L24.4026 7.34149L31.2436 11.2912L34.9861 8.25001L41.2278 3.94649Z" fill="#FF6200"/>
</g>
<path d="M15.158 28.7476L15.1197 29.4202L15.7318 29.7708L15.7732 29.1014L15.158 28.7476Z" fill="#F1F1F1"/>
<path d="M13.7043 27.9092L13.6661 28.5786L14.275 28.9293L14.3196 28.263L13.7043 27.9092Z" fill="#F1F1F1"/>
<path d="M15.7381 29.6911L15.7541 29.4393L15.3683 29.2066L15.1229 29.3405L15.158 28.7476L15.7732 29.1014L15.7381 29.6911Z" fill="#AAAAAA"/>
<path d="M14.2845 28.8528L14.3005 28.6009L13.9147 28.3682L13.6693 28.5021L13.7043 27.9092L14.3196 28.263L14.2845 28.8528Z" fill="#AAAAAA"/>
<path d="M14.9317 30.689C14.9317 30.8324 15.0401 30.9918 15.1931 31.0842L15.9295 31.521C16.0506 31.6007 16.1781 31.5528 16.1654 31.4317V31.4126L16.1431 31.2118C16.1431 31.097 16.057 30.9695 15.9359 30.8993L15.4035 30.5806L15.107 30.4021C15.0178 30.3479 14.9285 30.3797 14.9285 30.4658L14.9349 30.6858L14.9317 30.689Z" fill="#CDCDCD"/>
<path d="M15.6648 31.1639L16.1589 31.4126L16.1366 31.2118C16.1366 31.097 16.0506 30.9695 15.9294 30.8993L15.3971 30.5806V30.7686C15.4034 30.9121 15.5086 31.0715 15.6616 31.1639H15.6648Z" fill="#E3E7EB"/>
<path d="M13.0892 29.6019C13.0892 29.7454 13.1976 29.9048 13.3506 29.9972L14.087 30.4339C14.2081 30.5136 14.3356 30.4658 14.3228 30.3447V30.3255L14.3005 30.1247C14.3005 30.01 14.2145 29.8824 14.0933 29.8123L13.561 29.4935L13.2645 29.315C13.1752 29.2608 13.086 29.2927 13.086 29.3788L13.0924 29.5987L13.0892 29.6019Z" fill="#CDCDCD"/>
<path d="M13.8223 30.0769L14.3164 30.3255L14.2941 30.1247C14.2941 30.01 14.208 29.8824 14.0869 29.8123L13.5545 29.4935V29.6816C13.5609 29.8251 13.6661 29.9845 13.8191 30.0769H13.8223Z" fill="#E3E7EB"/>
<path d="M40.6348 3.71057L34.2911 7.92165L34.2624 7.96309L34.4664 8.08423L40.6794 3.79345L40.6348 3.71057Z" fill="#E29200"/>
<path d="M40.4754 3.61816L34.2911 7.92169L34.4218 8.00138L40.6348 3.71061L40.4754 3.61816Z" fill="#FFD02D"/>
<path d="M39.4522 3.03162L33.1053 7.24269L33.0766 7.28095L33.2806 7.40527L39.4937 3.1145L39.4522 3.03162Z" fill="#E29200"/>
<path d="M39.2896 2.93591L33.1052 7.24262L33.2359 7.32232L39.4521 3.03155L39.2896 2.93591Z" fill="#FFD02D"/>
<path d="M38.2664 2.34937L31.9195 6.56044L31.894 6.60188L32.098 6.72621L38.311 2.43225L38.2664 2.34937Z" fill="#E29200"/>
<path d="M38.107 2.25696L31.9195 6.56048L32.0533 6.64018L38.2664 2.3494L38.107 2.25696Z" fill="#FFD02D"/>
<path d="M37.0804 1.67041L30.7367 5.88149L30.708 5.91974L30.912 6.04406L37.125 1.75329L37.0804 1.67041Z" fill="#E29200"/>
<path d="M36.9212 1.578L30.7369 5.88153L30.8676 5.96122L37.0806 1.67045L36.9212 1.578Z" fill="#FFD02D"/>
<path d="M35.8978 0.988159L29.5509 5.19924L29.5222 5.24068L29.7262 5.365L35.9392 1.07104L35.8978 0.988159Z" fill="#E29200"/>
<path d="M35.7351 0.895752L29.5508 5.19928L29.6847 5.27897L35.8977 0.988198L35.7351 0.895752Z" fill="#FFD02D"/>
<path d="M34.712 0.309204L28.3651 4.52028L28.3396 4.56172L28.5436 4.68286L34.7566 0.392087L34.712 0.309204Z" fill="#E29200"/>
<path d="M34.5525 0.216797L28.365 4.52032L28.4989 4.60002L34.7119 0.309243L34.5525 0.216797Z" fill="#FFD02D"/>
<path d="M34.4219 8.00134L31.1767 10.4846L31.1481 10.5261L31.3521 10.6504L34.4666 8.08423L34.4219 8.00134Z" fill="#E29200"/>
<path d="M34.2625 7.90894L31.1767 10.4847L31.3074 10.5644L34.4219 8.00138L34.2625 7.90894Z" fill="#FFD02D"/>
<path d="M33.2361 7.32239L29.991 9.80568L29.9623 9.84712L30.1663 9.96826L33.2808 7.40527L33.2361 7.32239Z" fill="#E29200"/>
<path d="M33.0767 7.22998L29.9909 9.80572L30.1248 9.88541L33.2361 7.32243L33.0767 7.22998Z" fill="#FFD02D"/>
<path d="M32.0533 6.64014L28.8049 9.12343L28.7794 9.16487L28.9834 9.28919L32.0979 6.72621L32.0533 6.64014Z" fill="#E29200"/>
<path d="M31.8938 6.54773L28.8049 9.12347L28.9387 9.20635L32.0532 6.64018L31.8938 6.54773Z" fill="#FFD02D"/>
<path d="M29.3437 9.1554L29.8474 9.44548L29.5828 9.66544L29.076 9.37535L29.3437 9.1554Z" fill="#FFA036"/>
<path d="M29.0759 9.37537L29.5828 9.66546V9.91729L29.0759 9.62401V9.37537Z" fill="#FF8936"/>
<path d="M29.5828 9.66539L29.8474 9.44543V9.69727L29.5828 9.91723V9.66539Z" fill="#D75716"/>
<path d="M28.0813 8.41577L28.5881 8.70905L28.3204 8.92901L27.8135 8.63573L28.0813 8.41577Z" fill="#FFA036"/>
<path d="M27.8135 8.63574L28.3203 8.92902V9.18085L27.8135 8.88758V8.63574Z" fill="#FF8936"/>
<path d="M28.3204 8.92906L28.5881 8.70911V8.96094L28.3204 9.1809V8.92906Z" fill="#D75716"/>
<path d="M26.9114 7.71765L27.4182 8.00774L27.1504 8.23089L26.6436 7.93761L26.9114 7.71765Z" fill="#FFA036"/>
<path d="M26.6435 7.93762L27.1504 8.2309V8.47955L26.6435 8.18946V7.93762Z" fill="#FF8936"/>
<path d="M27.1504 8.23084L27.4182 8.00769V8.25953L27.1504 8.47948V8.23084Z" fill="#D75716"/>
<path d="M30.8675 5.96118L27.6223 8.44447L27.5936 8.48592L27.7976 8.60705L30.9121 6.04406L30.8675 5.96118Z" fill="#E29200"/>
<path d="M30.708 5.86877L27.6223 8.44451L27.753 8.52421L30.8674 5.96122L30.708 5.86877Z" fill="#FFD02D"/>
<path d="M29.6849 5.27893L26.4365 7.76541L26.411 7.80366L26.6118 7.92799L29.7263 5.365L29.6849 5.27893Z" fill="#E29200"/>
<path d="M29.5222 5.18652L26.4365 7.76545L26.5703 7.84514L29.6848 5.27897L29.5222 5.18652Z" fill="#FFD02D"/>
<path d="M28.4988 4.59998L25.2537 7.08327L25.225 7.12471L25.429 7.24585L28.5435 4.68286L28.4988 4.59998Z" fill="#E29200"/>
<path d="M28.3396 4.50757L25.2538 7.08331L25.3845 7.163L28.499 4.60001L28.3396 4.50757Z" fill="#FFD02D"/>
<g style="mix-blend-mode:multiply">
<path d="M33.9533 7.19161L34.0298 6.36597L36.0477 6.40422C36.2071 6.41378 36.3601 6.44566 36.4749 6.50623C36.7235 6.63374 36.7076 6.83457 36.4366 6.95571C36.3378 7.00034 36.2167 7.01946 36.0955 7.03222L33.9501 7.19798L33.9533 7.19161Z" fill="#D99824"/>
</g>
<path d="M34.7246 6.27036L33.1849 6.24805V6.81229C33.1785 6.90473 33.2455 7.00037 33.3889 7.07369C33.6758 7.22351 34.1636 7.22989 34.476 7.08962C34.6322 7.01949 34.715 6.92705 34.7246 6.83141V6.26717V6.27036Z" fill="#B2CDCF"/>
<path d="M34.6545 4.87092L33.3284 4.85498L33.1849 6.24805C33.1785 6.34049 33.2455 6.43613 33.3889 6.50945C33.6758 6.65927 34.1636 6.66565 34.476 6.52857C34.6322 6.45844 34.715 6.366 34.7246 6.27036L34.6545 4.87092Z" fill="#D76600"/>
<path d="M34.4792 4.64464C34.2305 4.51713 33.8097 4.51075 33.542 4.6287C33.2742 4.74665 33.2551 4.94748 33.5037 5.07818C33.7524 5.20569 34.1731 5.21207 34.4409 5.09412C34.7087 4.97617 34.7278 4.77534 34.4792 4.64464Z" fill="#FFA71E"/>
<path d="M34.4857 6.00583C34.2179 5.86875 33.7653 5.85919 33.4752 5.98989C33.1851 6.1174 33.166 6.33417 33.4337 6.47125C33.7015 6.60832 34.1542 6.61789 34.4443 6.48719C34.7344 6.35967 34.7535 6.1429 34.4857 6.00583Z" fill="#FF9C00"/>
<path d="M33.7588 5.48296C33.6887 5.66785 33.66 5.96751 33.7333 6.13965C33.8066 6.31179 34.1286 6.26397 34.1987 6.07589C34.2688 5.891 34.2465 5.79218 34.1732 5.62004C34.0999 5.44789 33.8289 5.29488 33.7588 5.47977V5.48296Z" fill="#FF9C00"/>
<path d="M34.017 5.64238C33.9596 5.83365 33.9628 6.10142 34.0234 6.2385C34.0839 6.37876 34.1828 6.33732 34.2401 6.14605C34.2975 5.95478 34.2943 5.68701 34.2338 5.54993C34.1732 5.40967 34.0744 5.45111 34.017 5.64238Z" fill="#FFA71E"/>
<path d="M0.000141144 38.3588L15.3302 47.2081L19.2863 44.1223L20.0833 36.513L4.75315 27.6637L3.9562 33.0224L2.68745 35.9233L0.000141144 38.3588Z" fill="#262021"/>
<path d="M5.85276 34.9032L20.9023 43.5931L15.0527 47.0487L0.481325 38.5437L5.85276 34.9032Z" fill="#362E2F"/>
<path d="M15.8274 46.1274L1.05515 37.6033L0.277325 38.5214L15.0528 47.0487L15.8274 46.1274Z" fill="#5C4E4F"/>
<path d="M19.8058 36.3505L17.6954 37.6893L17.5902 38.0782L18.2469 39.2035L16.669 44.3965L16.1557 44.9033L15.8274 46.1274L15.0528 47.0487L15.3301 47.2081L20.625 43.4306L22.9617 40.3862L19.8058 36.3505Z" fill="#4A3F40"/>
<path d="M4.75301 27.6637L2.64268 28.9994L2.54068 29.3883L3.19418 30.5136L1.61621 35.7065L1.10298 36.2166L0.777827 37.4407L3.8147e-06 38.3588L0.27734 38.5213L5.57227 34.7406L7.91211 31.6963L4.75301 27.6637Z" fill="#4A3F40"/>
<path d="M5.03035 27.8263L2.92003 29.162L2.81802 29.5509L3.4747 30.6762L1.89356 35.8691L1.38351 36.376L1.05517 37.6033L0.277343 38.5213L0.481361 38.5437L5.8528 34.9032L8.18945 31.8589L5.03035 27.8263Z" fill="#2E2728"/>
<path d="M20.0831 36.5131L17.9728 37.8519L17.8708 38.2377L18.5243 39.3661L16.9463 44.5591L16.4331 45.0659L16.1079 46.29L15.3301 47.2081L15.5309 47.2336L20.9023 43.5932L23.2422 40.5488L20.0831 36.5131Z" fill="#2E2728"/>
<path d="M17.9729 37.8519L17.8709 38.2376L2.54082 29.3883L2.64282 28.9994L4.75315 27.6637L20.0833 36.513L17.9729 37.8519Z" fill="#5C4E4F"/>
<g style="mix-blend-mode:multiply">
<path d="M0.481485 38.5437L3.95619 38.2376L6.20358 37.4375L7.91224 36.9402L17.3035 42.3053L18.2471 39.2035L17.5904 38.0783L2.81814 29.5509L3.47483 30.6762L1.89368 35.8691L1.38363 36.376L1.05529 37.6033L0.277468 38.5214L0.481485 38.5437Z" fill="#AFABA6"/>
</g>
<path d="M16.6053 46.0669L17.6478 45.2699L20.0322 37.7404L18.9866 38.5373L16.6053 46.0669Z" fill="#A3A8B1"/>
<path d="M18.6167 39.704L19.6623 38.9038L19.8472 38.3141L18.8048 39.111L18.6167 39.704Z" fill="#E82D24"/>
<path d="M18.2151 40.9759L19.2607 40.179L19.4456 39.5861L18.4031 40.3862L18.2151 40.9759Z" fill="#E82D24"/>
<path d="M17.8135 42.2479L18.8559 41.451L19.0439 40.8612L17.9983 41.6582L17.8135 42.2479Z" fill="#E82D24"/>
<path d="M17.4118 43.5197L18.4543 42.7228L18.6423 42.1331L17.5967 42.93L17.4118 43.5197Z" fill="#E82D24"/>
<path d="M17.0071 44.7917L18.0527 43.9948L18.2375 43.405L17.1951 44.202L17.0071 44.7917Z" fill="#E82D24"/>
<path d="M16.6052 46.0669L17.6476 45.2667L17.8357 44.677L16.7901 45.474L16.6052 46.0669Z" fill="#E82D24"/>
</g>
<defs>
<clipPath id="clip0_160_15035">
<rect width="56" height="48.9677" fill="white" transform="matrix(-1 0 0 1 56 0)"/>
</clipPath>
</defs>
</svg>
