<svg width="27" height="48" viewBox="0 0 27 48" fill="none" xmlns="http://www.w3.org/2000/svg">
<g clip-path="url(#clip0_160_14282)">
<g style="mix-blend-mode:multiply">
<path d="M17.6903 46.9793L25.1185 42.3613C27.8917 40.8179 27.5597 38.0938 24.3867 36.2675L20.9801 34.1153C17.801 32.2952 12.9801 32.0677 10.2069 33.605L2.77874 38.2229C0.00548363 39.7664 0.337536 42.4904 3.51048 44.3167L6.91709 46.4689C10.0962 48.289 14.9171 48.5166 17.6903 46.9793Z" fill="#EAEAEA"/>
</g>
<path d="M17.6656 43.8248L23.2244 40.615V17.8387L12.8631 15.3298L17.6656 43.8248Z" fill="#AEB3B7"/>
<path d="M8.05446 38.2721L17.6655 43.8248V18.103L8.05446 12.5565V38.2721Z" fill="#EAEAEA"/>
<path d="M17.6656 18.103L23.2244 17.8386L13.6133 12.2921L8.0545 12.5565L17.6656 18.103Z" fill="#EAEAEA"/>
<path d="M18.3297 45.1468L19.4673 44.4889V7.08997L18.3297 7.74792V45.1468Z" fill="#BEC3C7"/>
<path d="M6.04981 38.063L18.3296 45.1468V7.74789L6.04981 0.657959V38.063Z" fill="#301C34"/>
<path d="M18.3297 7.74789L19.4673 7.08993L7.19365 0L6.04991 0.657955L18.3297 7.74789Z" fill="#EAEAEA"/>
<path d="M6.04981 22.1737L18.3296 29.2574V27.7878L6.04981 20.6979V22.1737Z" fill="#BEC3C7"/>
<path d="M15.5872 46.7271L18.6741 44.95V28.2675L15.5872 30.0507V46.7271Z" fill="#BEC3C7"/>
<path d="M3.31352 39.6434L15.5872 46.7271V30.0507L3.31352 22.9608V39.6434Z" fill="#CFD3D6"/>
<path d="M15.5873 30.0507L18.3298 28.4704L6.0562 21.3805L3.31369 22.9608L15.5873 30.0507Z" fill="#A5ABAF"/>
<path d="M15.5871 29.7863L18.3296 28.1999V26.9946L15.5871 28.5811V29.7863Z" fill="#BEC3C7"/>
<path d="M3.31352 22.6964L15.5872 29.7864V28.5811L3.31352 21.4912V22.6964Z" fill="#CFD3D6"/>
<path d="M15.5871 28.5811L18.3296 26.9947L6.05595 19.9109L3.31345 21.4912L15.5871 28.5811Z" fill="#3F2544"/>
<path d="M7.34116 3.8739L17.6655 9.36506L17.2043 21.7617L6.57252 15.6249L7.34116 3.8739Z" fill="#3F2544"/>
<path d="M9.10607 7.79089L17.3213 12.5319L17.0138 20.7163L8.02382 15.5265L9.10607 7.79089Z" fill="#CAD7E0"/>
<path d="M3.83008 13.0792L3.31355 12.7841L3.3197 21.4974L3.83008 21.7925V13.0792Z" fill="#CFD3D6"/>
<path d="M6.08667 3.90465L5.57014 3.6095L3.31342 12.784L3.82994 13.0791L6.08667 3.90465Z" fill="#F7F2EC"/>
<path d="M6.57251 3.62792L6.06213 3.33276L5.57021 3.60947L6.08673 3.90463L6.57251 3.62792Z" fill="#EAEAEA"/>
<path d="M6.08686 3.90467L3.83013 13.0792V21.7924L6.57264 20.206V15.6249L8.39893 2.57031L6.08686 3.90467Z" fill="#BEC3C7"/>
<path d="M6.0867 3.90466L7.88224 6.25363L18.3296 12.2859V10.1214L6.0867 3.90466Z" fill="#AEB3B7"/>
<path d="M15.5872 19.8739L15.0768 19.5726V28.2859L15.5872 28.5811V19.8739Z" fill="#CFD3D6"/>
<path d="M17.844 10.6934L17.3336 10.3982L15.0769 19.5727L15.5873 19.874L17.844 10.6934Z" fill="#F7F2EC"/>
<path d="M18.3296 10.4166L17.8192 10.1215L17.3334 10.3982L17.8438 10.6933L18.3296 10.4166Z" fill="#EAEAEA"/>
<path d="M17.8438 10.6933L15.5871 19.874V28.5811L19.2212 27.2468L18.3296 10.4166L17.8438 10.6933Z" fill="#BEC3C7"/>
<path d="M17.8439 10.6994L18.9814 10.0414V7.36658L17.8439 8.02453V10.6994Z" fill="#BEC3C7"/>
<path d="M5.57012 3.60956L17.8438 10.6995V8.02462L5.57012 0.934692V3.60956Z" fill="#CFD3D6"/>
<path d="M17.1858 8.40581L6.22807 2.07837V3.22825L17.1858 9.55569V8.40581Z" fill="#4D76E8"/>
<path d="M17.8439 8.02457L18.9814 7.36662L6.70781 0.282837L5.57022 0.934643L17.8439 8.02457Z" fill="#EAEAEA"/>
<path d="M12.0946 24.2214L12.3159 24.3505C12.4205 24.412 12.5926 24.412 12.6972 24.3505L12.771 24.3075C12.8755 24.246 12.8755 24.1476 12.771 24.0861L12.5496 23.957C12.4451 23.8955 12.2729 23.8955 12.1683 23.957L12.0946 24C11.99 24.0615 11.99 24.1599 12.0946 24.2214ZM11.3013 23.545L11.3751 23.5019C11.4796 23.4404 11.6518 23.4404 11.7564 23.5019L11.9777 23.6311C12.0823 23.6926 12.0823 23.7909 11.9777 23.8524L11.9039 23.8955C11.7994 23.957 11.6272 23.957 11.5227 23.8955L11.3013 23.7663C11.1968 23.7049 11.1968 23.6065 11.3013 23.545ZM10.5081 23.0838L10.5819 23.0407C10.6864 22.9793 10.8586 22.9793 10.9631 23.0407L11.1845 23.1699C11.289 23.2314 11.289 23.3298 11.1845 23.3912L11.1107 23.4343C11.0062 23.4958 10.834 23.4958 10.7295 23.4343L10.5081 23.3052C10.4036 23.2437 10.4036 23.1453 10.5081 23.0838ZM11.5165 24.3382L11.5903 24.2952C11.6949 24.2337 11.867 24.2337 11.9716 24.2952L12.1929 24.4243C12.2975 24.4858 12.2975 24.5842 12.1929 24.6457L12.1192 24.6887C12.0146 24.7502 11.8424 24.7502 11.7379 24.6887L11.5165 24.5596C11.412 24.4981 11.412 24.3997 11.5165 24.3382ZM10.7233 23.877L10.7971 23.834C10.9016 23.7725 11.0738 23.7725 11.1783 23.834L11.3997 23.9631C11.5042 24.0246 11.5042 24.123 11.3997 24.1845L11.3259 24.2275C11.2214 24.289 11.0492 24.289 10.9447 24.2275L10.7233 24.0984C10.6188 24.0369 10.6188 23.9385 10.7233 23.877ZM9.93007 23.4158L10.0039 23.3728C10.1084 23.3113 10.2806 23.3113 10.3851 23.3728L10.6065 23.5019C10.711 23.5634 10.711 23.6618 10.6065 23.7233L10.5327 23.7663C10.4281 23.8278 10.256 23.8278 10.1514 23.7663L9.93007 23.6372C9.82554 23.5757 9.82554 23.4773 9.93007 23.4158ZM10.9385 24.6703L11.0123 24.6272C11.1169 24.5657 11.289 24.5657 11.3936 24.6272L11.6149 24.7563C11.7195 24.8178 11.7195 24.9162 11.6149 24.9777L11.5411 25.0208C11.4366 25.0823 11.2644 25.0823 11.1599 25.0208L10.9385 24.8916C10.834 24.8301 10.834 24.7318 10.9385 24.6703ZM10.1453 24.2091L10.2191 24.166C10.3236 24.1045 10.4958 24.1045 10.6003 24.166L10.8217 24.2952C10.9262 24.3567 10.9262 24.455 10.8217 24.5165L10.7479 24.5596C10.6434 24.6211 10.4712 24.6211 10.3667 24.5596L10.1453 24.4304C10.0408 24.369 10.0408 24.2706 10.1453 24.2091ZM9.35205 23.7479L9.42584 23.7049C9.53038 23.6434 9.70256 23.6434 9.80709 23.7049L10.0285 23.834C10.133 23.8955 10.133 23.9939 10.0285 24.0554L9.95467 24.0984C9.85013 24.1599 9.67796 24.1599 9.57342 24.0984L9.35205 23.9693C9.24752 23.9078 9.24752 23.8094 9.35205 23.7479ZM10.3605 25.0023L10.4343 24.9593C10.5388 24.8978 10.711 24.8978 10.8155 24.9593L11.0369 25.0884C11.1414 25.1499 11.1414 25.2483 11.0369 25.3098L10.9631 25.3528C10.8586 25.4143 10.6864 25.4143 10.5819 25.3528L10.3605 25.2237C10.256 25.1622 10.256 25.0638 10.3605 25.0023ZM9.56727 24.5411L9.64106 24.4981C9.7456 24.4366 9.91777 24.4366 10.0223 24.4981L10.2437 24.6272C10.3482 24.6887 10.3482 24.7871 10.2437 24.8486L10.1699 24.8916C10.0654 24.9531 9.89318 24.9531 9.78864 24.8916L9.56727 24.7625C9.46274 24.701 9.46274 24.6026 9.56727 24.5411ZM8.77404 24.0799L8.84783 24.0369C8.95236 23.9754 9.12454 23.9754 9.22907 24.0369L9.45044 24.166C9.55498 24.2275 9.55498 24.3259 9.45044 24.3874L9.37665 24.4304C9.27212 24.4919 9.09994 24.4919 8.99541 24.4304L8.77404 24.3013C8.6695 24.2398 8.6695 24.1414 8.77404 24.0799Z" fill="#8F7794"/>
<path d="M9.17977 22.3213L9.25355 22.2783C9.35809 22.2168 9.53027 22.2168 9.6348 22.2783L9.85617 22.4074C9.9607 22.4689 9.9607 22.5673 9.85617 22.6288L9.78238 22.6718C9.67784 22.7333 9.50567 22.7333 9.40113 22.6718L9.17977 22.5427C9.07523 22.4812 9.07523 22.3828 9.17977 22.3213Z" fill="#8F7794"/>
<path d="M8.60189 22.6534L8.67568 22.6103C8.78021 22.5488 8.95238 22.5488 9.05692 22.6103L9.27829 22.7395C9.38282 22.8009 9.38282 22.8993 9.27829 22.9608L9.2045 23.0039C9.09996 23.0654 8.92779 23.0654 8.82325 23.0039L8.60189 22.8747C8.49735 22.8132 8.49735 22.7149 8.60189 22.6534Z" fill="#D32F2F"/>
<path d="M8.01766 22.9915L8.09145 22.9485C8.19598 22.887 8.36816 22.887 8.47269 22.9485L8.69406 23.0776C8.79859 23.1391 8.79859 23.2375 8.69406 23.299L8.62027 23.342C8.51574 23.4035 8.34356 23.4035 8.23903 23.342L8.01766 23.2129C7.91312 23.1514 7.91312 23.053 8.01766 22.9915Z" fill="#EAEAEA"/>
<path d="M7.43978 23.3235L7.51356 23.2805C7.6181 23.219 7.79028 23.219 7.89481 23.2805L8.11618 23.4096C8.22071 23.4711 8.22071 23.5695 8.11618 23.631L8.04239 23.674C7.93785 23.7355 7.76568 23.7355 7.66114 23.674L7.43978 23.5449C7.33524 23.4834 7.33524 23.385 7.43978 23.3235Z" fill="#C3D32A"/>
<path d="M8.79257 8.17215L8.74952 8.49806C8.74337 8.55955 8.66958 8.59644 8.61424 8.5657L8.01778 8.22135C7.95629 8.18445 7.91939 8.11681 7.93169 8.04302L7.97473 7.71712C7.98088 7.65563 8.05467 7.61873 8.11001 7.64948L8.70648 7.99383C8.76797 8.03072 8.80486 8.09836 8.79257 8.17215Z" fill="#8F7794"/>
<path d="M8.56503 9.8079L8.52198 10.1338C8.51583 10.1953 8.44204 10.2322 8.3867 10.2014L7.79024 9.85709C7.72875 9.82019 7.69185 9.75255 7.70415 9.67876L7.74719 9.35286C7.75334 9.29137 7.82713 9.25448 7.88247 9.28522L8.47894 9.62957C8.54043 9.66647 8.57732 9.73411 8.56503 9.8079Z" fill="#8F7794"/>
<path d="M8.33749 11.4496L8.29444 11.7755C8.28829 11.837 8.21451 11.8739 8.15916 11.8432L7.5627 11.4988C7.50121 11.4619 7.46431 11.3943 7.47661 11.3205L7.51965 10.9946C7.5258 10.9331 7.59959 10.8962 7.65494 10.9269L8.2514 11.2713C8.31289 11.3082 8.34979 11.3758 8.33749 11.4496Z" fill="#8F7794"/>
<path d="M8.10995 13.0854L8.0669 13.4113C8.06075 13.4728 7.98697 13.5097 7.93162 13.4789L7.33516 13.1346C7.27367 13.0977 7.23677 13.03 7.24907 12.9562L7.29212 12.6303C7.29827 12.5688 7.37205 12.5319 7.4274 12.5627L8.02386 12.907C8.08535 12.9439 8.12225 13.0116 8.10995 13.0854Z" fill="#8F7794"/>
<path d="M7.88241 14.7271L7.83937 15.053C7.83322 15.1145 7.75943 15.1514 7.70409 15.1206L7.10762 14.7763C7.04613 14.7394 7.00923 14.6717 7.02153 14.598L7.06458 14.2721C7.07073 14.2106 7.14451 14.1737 7.19986 14.2044L7.79632 14.5488C7.85781 14.5857 7.89471 14.6533 7.88241 14.7271Z" fill="#8F7794"/>
<path d="M9.84398 20.9992L14.5542 23.7171V22.7148L9.84398 19.9907V20.9992Z" fill="#201323"/>
<path opacity="0.5" d="M9.94851 20.9377L14.5542 23.5941V22.7148L9.84398 19.9907L9.94851 20.9377Z" fill="#9E9E9E"/>
<path d="M7.15692 18.472L9.10619 19.5972C9.19843 19.6526 9.27222 19.6218 9.27222 19.5296V18.2075C9.27222 18.1153 9.19843 17.9985 9.10619 17.9431L7.15692 16.8178C7.06468 16.7625 6.99089 16.7932 6.99089 16.8855V18.2075C6.99089 18.2998 7.06468 18.4166 7.15692 18.472Z" fill="#3E353F"/>
<path d="M7.126 18.2076L9.13062 19.3575V19.0439L7.126 17.8878V18.2076Z" fill="#959AA5"/>
<path d="M7.32886 18.0047L7.12594 18.2076V17.8878L7.32886 18.0047Z" fill="#7A7D84"/>
<path d="M6.954 19.382L9.27222 20.7225V20.452L6.954 19.1115V19.382Z" fill="#44C116"/>
</g>
<defs>
<clipPath id="clip0_160_14282">
<rect width="26.103" height="48" fill="white" transform="matrix(-1 0 0 1 27 0)"/>
</clipPath>
</defs>
</svg>
