<svg width="56" height="42" viewBox="0 0 56 42" fill="none" xmlns="http://www.w3.org/2000/svg">
<g clip-path="url(#clip0_160_13603)">
<g style="mix-blend-mode:multiply">
<path d="M20.6855 40.3148L54.4933 20.0838C56.7272 18.7937 56.4458 16.5424 53.8699 15.0574L44.0249 9.37301C41.449 7.88372 37.5483 7.72354 35.3186 9.01368L1.51084 29.2447C-0.723099 30.5348 -0.441692 32.7861 2.13427 34.271L11.9792 39.9555C14.5551 41.4448 18.4559 41.6049 20.6855 40.3148Z" fill="#EAEAEA"/>
</g>
<path d="M12.174 15.7934C12.174 15.7934 12.174 15.7718 12.174 15.7675C12.213 15.7978 12.252 15.8194 12.2953 15.8411C12.3819 15.8324 12.4858 15.8367 12.5594 15.8843C12.607 15.919 12.6243 15.945 12.62 16.0012C12.6156 16.0619 12.607 16.1138 12.5853 16.1744C12.555 16.261 12.5161 16.3519 12.5247 16.4472C12.5334 16.5511 12.568 16.6463 12.5853 16.7502C12.5897 16.7805 12.6156 16.8325 12.6026 16.8584C12.5897 16.9017 12.5204 16.9234 12.4858 16.945C12.4338 16.9797 12.3775 17.0143 12.3256 17.0489C12.2736 17.0792 12.265 17.0879 12.2433 17.0273C12.1827 16.8801 12.1134 16.7329 12.0571 16.5857C12.0268 16.5078 12.0571 16.4169 12.0701 16.3346C12.0831 16.2394 12.0961 16.1441 12.1134 16.0489C12.1221 16.0012 12.1307 15.9536 12.1394 15.906C12.1394 15.8973 12.1611 15.8324 12.1654 15.7978L12.174 15.7934Z" fill="#E08019"/>
<path d="M12.1826 14.5379C11.5202 14.4037 11.4552 15.2522 11.6414 15.4211C12.096 15.8324 12.4596 16.0315 12.6848 16.1181C13.0225 16.2436 13.2259 16.3302 13.4164 15.7111C13.477 15.5163 12.7887 14.6591 12.1826 14.5379Z" fill="#F59D1B"/>
<path d="M1.06492 31.1063L2.54555 30.2187L2.86159 28.2229L3.07373 26.6514L0.216364 28.3398V29.8681L1.06492 31.1063Z" fill="#322920"/>
<path d="M48.1985 18.1703L46.2373 17.1615L39.345 21.2181L22.6035 33.5091L20.8111 32.2103L15.2609 35.2971L15.0575 28.7944L49.1423 11.5204L48.1985 18.1703Z" fill="#0E0600"/>
<path d="M47.4754 16.6766L45.6181 19.9453L45.3324 20.4475L43.2933 23.5127C43.2933 23.5127 42.2023 22.8763 41.3537 22.3827C41.2671 22.3351 41.1849 22.2831 41.1069 22.2398C41.1069 22.2398 41.0983 22.2398 41.094 22.2355C40.6351 21.9195 40.358 21.309 40.358 20.4691C40.358 20.244 40.3753 20.0102 40.4143 19.7764C40.5398 18.9972 40.8688 18.1876 41.3234 17.4646C41.8213 16.668 42.4794 15.9796 43.2023 15.564C43.9037 15.1614 44.5444 15.0834 45.0423 15.2739C45.1246 15.3259 45.2198 15.3865 45.3324 15.4514C46.1117 15.9147 47.4797 16.6723 47.4797 16.6723L47.4754 16.6766Z" fill="#1A0606"/>
<path d="M45.9126 20.1142L45.3325 20.4475L43.4535 21.5298L40.4143 19.7765C40.5399 18.9972 40.8689 18.1876 41.3235 17.4646L45.6182 19.9453L45.9126 20.1142Z" fill="#1A0606"/>
<path d="M40.6395 20.6423C40.6395 18.8413 41.9123 16.6463 43.4839 15.7372L40.6395 20.6423Z" fill="#242726"/>
<path d="M43.7479 15.8843C44.5921 15.3951 45.3498 15.3821 45.8736 15.7501C45.8996 15.7675 45.9299 15.7891 45.9602 15.8107C45.4537 15.5683 44.7783 15.6289 44.0336 16.0575C42.4621 16.9623 41.1893 19.1573 41.1893 20.9627C41.1893 21.7982 41.4664 22.4 41.9166 22.716C41.843 22.6727 41.7824 22.6381 41.7348 22.6121C41.2196 22.3177 40.9035 21.6857 40.9035 20.7852C40.9035 18.9841 42.1764 16.7892 43.7479 15.88V15.8843Z" fill="#260E08"/>
<path d="M44.263 16.183C45.1073 15.6938 45.8649 15.6808 46.3888 16.0488C46.4147 16.0662 46.445 16.0878 46.4753 16.1095C45.9688 15.867 45.2934 15.9276 44.5488 16.3562C42.9772 17.2611 41.7044 19.456 41.7044 21.2614C41.7044 22.0969 41.9815 22.6987 42.4317 23.0147C42.3581 22.9715 42.2975 22.9368 42.2499 22.9108C41.7347 22.6164 41.4187 21.9844 41.4187 21.0839C41.4187 19.2829 42.6915 17.0879 44.263 16.1787V16.183Z" fill="#260E08"/>
<path d="M44.7782 16.4818C45.6224 15.9925 46.38 15.9796 46.9039 16.3475C46.9299 16.3649 46.9602 16.3865 46.9905 16.4082C46.4839 16.1657 45.8086 16.2263 45.0639 16.6549C43.4924 17.5598 42.2195 19.7547 42.2195 21.5601C42.2195 22.3956 42.4966 22.9974 42.9469 23.3135C42.8733 23.2702 42.8127 23.2355 42.765 23.2095C42.2499 22.9152 41.9338 22.2831 41.9338 21.3826C41.9338 19.5816 43.2066 17.3866 44.7782 16.4774V16.4818Z" fill="#260E08"/>
<path d="M48.1985 18.4387C48.1985 20.2397 46.9257 22.4347 45.3541 23.3395C43.7826 24.2443 42.5097 23.5213 42.5097 21.7203C42.5097 19.9193 43.7826 17.7243 45.3541 16.8195C46.9257 15.9147 48.1985 16.6377 48.1985 18.4387Z" fill="#5D463C"/>
<path d="M48.1162 18.5512C48.1162 20.3176 46.8694 22.4693 45.3281 23.3568C43.7912 24.2443 42.54 23.5343 42.54 21.7679C42.54 20.0016 43.7869 17.8499 45.3281 16.9624C46.865 16.0749 48.1162 16.7849 48.1162 18.5512Z" fill="#3F261A"/>
<path d="M45.4406 23.2313C43.869 24.1361 42.5962 23.4131 42.5962 21.6121C42.5962 20.4518 43.1244 19.1314 43.9167 18.0967C43.0768 19.1487 42.5096 20.5211 42.5096 21.7247C42.5096 23.5257 43.7825 24.253 45.354 23.3438C45.9125 23.0191 46.4363 22.5299 46.8779 21.9541C46.458 22.4823 45.9644 22.9282 45.4406 23.2313Z" fill="#260E08"/>
<path d="M43.7304 22.8602C42.8448 22.3426 42.8548 20.6779 43.7526 19.1422C44.6503 17.6064 46.096 16.7811 46.9816 17.2988C47.8671 17.8164 47.8572 19.4811 46.9594 21.0168C46.0616 22.5526 44.6159 23.3779 43.7304 22.8602Z" fill="#5B4A44"/>
<path d="M47.103 19.0751C47.103 20.1834 46.3194 21.5298 45.3583 22.0883C44.3929 22.6468 43.6136 22.2009 43.6136 21.0926C43.6136 19.9842 44.3972 18.6378 45.3583 18.0793C46.3237 17.5208 47.103 17.9668 47.103 19.0751Z" fill="#6C7277"/>
<path d="M47.103 19.0751C47.103 20.1834 46.3194 21.5298 45.3583 22.0883C44.3929 22.6468 43.6136 22.2009 43.6136 21.0926C43.6136 19.9842 44.3972 18.6378 45.3583 18.0793C46.3237 17.5208 47.103 17.9668 47.103 19.0751ZM46.9255 19.1357C46.9255 18.1053 46.1982 17.6897 45.2977 18.2092C44.3972 18.7287 43.6699 19.9842 43.6699 21.0146C43.6699 22.045 44.3972 22.4606 45.2977 21.9411C46.1982 21.4216 46.9255 20.1661 46.9255 19.1357Z" fill="#A5A9B2"/>
<path d="M46.6138 19.192C46.6138 20.1012 45.9688 21.2138 45.1765 21.6684C44.4405 22.0927 43.8387 21.8112 43.7521 21.045C43.7435 20.9843 43.7435 20.9194 43.7435 20.8501C43.7435 20.2354 44.0379 19.5297 44.4708 18.9972C44.6786 18.7374 44.9211 18.5209 45.1808 18.3738C45.9731 17.9148 46.6182 18.2828 46.6182 19.192H46.6138Z" fill="#2C3D4F"/>
<path d="M45.0554 18.7244C45.5273 18.4516 46.1248 18.4516 46.5317 18.6897C46.3326 18.1659 45.8044 18.0143 45.1767 18.3737C44.5619 18.7287 44.0424 19.469 43.8346 20.2093C44.09 19.5946 44.5402 19.0188 45.0554 18.7244Z" fill="#0F2237"/>
<path d="M45.8691 19.3911C45.8691 20.0838 45.3799 20.928 44.7781 21.2787C44.3062 21.5515 43.9036 21.4389 43.7521 21.0493C43.7434 20.9887 43.7434 20.9237 43.7434 20.8544C43.7434 20.2397 44.0378 19.534 44.4708 19.0015C44.5703 18.9106 44.6742 18.8326 44.7781 18.772C45.3799 18.4257 45.8691 18.7028 45.8691 19.3955V19.3911Z" fill="#260E08"/>
<path d="M43.947 20.3609C43.947 20.3825 43.947 20.4042 43.947 20.4258C43.9557 20.5557 43.9817 20.6682 44.0293 20.7548C44.1765 21.0362 44.4969 21.1012 44.8692 20.889C45.38 20.5946 45.7957 19.876 45.7957 19.2915C45.7957 18.9755 45.6744 18.759 45.4839 18.6767C45.4753 18.6724 45.4666 18.6681 45.4623 18.6681C45.3367 18.6205 45.1766 18.6291 45.0077 18.6984C44.9644 18.7157 44.9168 18.7374 44.8735 18.7633C44.4839 18.9885 44.1505 19.456 44.012 19.9279C43.9817 20.0232 43.9643 20.1227 43.9557 20.218C43.9514 20.2656 43.947 20.3176 43.947 20.3652V20.3609Z" fill="#3D454B"/>
<path d="M44.0032 20.4085C44.0032 20.4301 44.0032 20.4518 44.0032 20.4734C44.0118 20.6033 44.0378 20.7158 44.0854 20.8024C44.2326 21.0838 44.553 21.1488 44.9253 20.9366C45.4362 20.6422 45.8518 19.9236 45.8518 19.3391C45.8518 19.0231 45.7306 18.8066 45.5401 18.7244C45.5314 18.72 45.5228 18.7157 45.5184 18.7157C45.3886 18.6681 45.2327 18.6767 45.0639 18.746C45.0206 18.7633 44.973 18.785 44.9297 18.8109C44.54 19.0361 44.2067 19.5036 44.0681 19.9755C44.0378 20.0708 44.0205 20.1704 44.0118 20.2656C44.0075 20.3132 44.0032 20.3652 44.0032 20.4128V20.4085Z" fill="#7E8386"/>
<path d="M44.5444 20.1227L44.3236 20.5643L44.4924 20.6726L45.3496 19.075L45.1808 18.9668L44.5444 20.1227Z" fill="#3D454B"/>
<path d="M44.8735 19.9106L44.4925 20.6726L44.6787 20.7549L45.5186 19.2006L45.3497 19.0751L44.8735 19.9106Z" fill="#C6C9CA"/>
<path d="M44.3236 19.9669C44.3236 20.0794 44.3583 20.166 44.4145 20.218C44.4925 20.2872 44.683 20.3868 44.683 20.3868L45.2891 19.3478C45.2891 19.3478 45.1419 19.2742 45.0813 19.2222C45.0033 19.1573 44.8821 19.153 44.7479 19.2309C44.5141 19.3651 44.3193 19.6985 44.3193 19.9669H44.3236Z" fill="#6C7277"/>
<path d="M44.5532 20.1055C44.5532 20.3782 44.7437 20.4865 44.9818 20.3479C45.2156 20.2137 45.4104 19.8804 45.4104 19.6119C45.4104 19.3392 45.2199 19.231 44.9818 19.3695C44.748 19.5037 44.5532 19.8371 44.5532 20.1055Z" fill="#C6C9CA"/>
<path d="M44.774 19.9713C44.774 20.0189 44.7869 20.0579 44.8129 20.0752C44.8475 20.1055 44.9255 20.1444 44.9255 20.1444L45.1809 19.7028C45.1809 19.7028 45.1203 19.6725 45.0943 19.6509C45.0597 19.6249 45.0121 19.6206 44.9515 19.6509C44.8519 19.7072 44.7696 19.85 44.7696 19.9626L44.774 19.9713Z" fill="#6C7277"/>
<path d="M44.8734 20.0318C44.8734 20.1487 44.9557 20.192 45.0552 20.1357C45.1548 20.0794 45.2371 19.9366 45.2371 19.824C45.2371 19.7115 45.1548 19.6638 45.0552 19.7201C44.9557 19.7764 44.8734 19.9193 44.8734 20.0318Z" fill="#D6D8D9"/>
<path d="M21.8846 31.444L20.0273 34.7127L19.7416 35.2149L17.7024 38.2801C17.7024 38.2801 16.6115 37.6436 15.7629 37.1501C15.6763 37.1025 15.5941 37.0505 15.5161 37.0072C15.5161 37.0072 15.5075 37.0072 15.5031 37.0029C15.0442 36.6869 14.7672 36.0764 14.7672 35.2365C14.7672 35.0114 14.7845 34.7776 14.8234 34.5438C14.949 33.7646 15.278 32.955 15.7326 32.232C16.2305 31.4354 16.8885 30.747 17.6115 30.3357C18.3129 29.9331 18.9536 29.8552 19.4515 30.0457C19.5338 30.0976 19.629 30.1582 19.7416 30.2232C20.5208 30.6864 21.8889 31.444 21.8889 31.444H21.8846Z" fill="#1A0606"/>
<path d="M20.3218 34.8815L19.7416 35.2148L17.8627 36.2972L14.8235 34.5438C14.9491 33.7645 15.2781 32.9549 15.7327 32.2319L20.0274 34.7126L20.3218 34.8815Z" fill="#1A0606"/>
<path d="M15.0531 35.4097C15.0531 33.6087 16.3259 31.4137 17.8975 30.5045L15.0531 35.4097Z" fill="#242726"/>
<path d="M18.1615 30.6517C19.0057 30.1625 19.7633 30.1495 20.2872 30.5175C20.3132 30.5348 20.3435 30.5564 20.3738 30.5781C19.8672 30.3356 19.1919 30.3962 18.4472 30.8248C16.8757 31.7297 15.6028 33.9247 15.6028 35.73C15.6028 36.5656 15.8799 37.1673 16.3302 37.4834C16.2566 37.4401 16.196 37.4054 16.1483 37.3795C15.6332 37.0851 15.3171 36.453 15.3171 35.5525C15.3171 33.7515 16.5899 31.5565 18.1615 30.6473V30.6517Z" fill="#260E08"/>
<path d="M18.6766 30.9504C19.5208 30.4612 20.2785 30.4482 20.8023 30.8162C20.8283 30.8335 20.8586 30.8551 20.8889 30.8768C20.3824 30.6343 19.707 30.695 18.9624 31.1236C17.3908 32.0284 16.118 34.2234 16.118 36.0287C16.118 36.8643 16.3951 37.466 16.8453 37.7821C16.7717 37.7388 16.7111 37.7042 16.6635 37.6782C16.1483 37.3838 15.8322 36.7517 15.8322 35.8512C15.8322 34.0502 17.1051 31.8552 18.6766 30.9461V30.9504Z" fill="#260E08"/>
<path d="M19.1918 31.2492C20.036 30.76 20.7936 30.747 21.3175 31.115C21.3434 31.1323 21.3737 31.154 21.4041 31.1756C20.8975 30.9332 20.2221 30.9938 19.4775 31.4224C17.9059 32.3272 16.6331 34.5222 16.6331 36.3275C16.6331 37.1631 16.9102 37.7649 17.3605 38.0809C17.2869 38.0376 17.2262 38.003 17.1786 37.977C16.6634 37.6826 16.3474 37.0505 16.3474 36.15C16.3474 34.349 17.6202 32.154 19.1918 31.2449V31.2492Z" fill="#260E08"/>
<path d="M22.6077 33.206C22.6077 35.007 21.3348 37.202 19.7633 38.1068C18.1917 39.0117 16.9189 38.2887 16.9189 36.4876C16.9189 34.6866 18.1917 32.4917 19.7633 31.5868C21.3348 30.682 22.6077 31.405 22.6077 33.206Z" fill="#5D463C"/>
<path d="M22.5254 33.3186C22.5254 35.085 21.2785 37.2366 19.7373 38.1241C18.2004 39.0117 16.9492 38.3016 16.9492 36.5353C16.9492 34.7689 18.1961 32.6172 19.7373 31.7297C21.2742 30.8422 22.5254 31.5522 22.5254 33.3186Z" fill="#3F261A"/>
<path d="M19.8542 37.9986C18.2826 38.9034 17.0098 38.1804 17.0098 36.3794C17.0098 35.2192 17.538 33.8987 18.3302 32.864C17.4903 33.916 16.9232 35.2884 16.9232 36.492C16.9232 38.293 18.196 39.0203 19.7676 38.1112C20.3261 37.7865 20.8499 37.2973 21.2915 36.7215C20.8716 37.2496 20.378 37.6956 19.8542 37.9986Z" fill="#260E08"/>
<path d="M22.0493 33.5308C22.0493 34.9768 21.0276 36.7432 19.7634 37.4705C18.5036 38.1978 17.4775 37.6177 17.4775 36.1673C17.4775 34.7214 18.4993 32.955 19.7634 32.2277C21.0233 31.5003 22.0493 32.0805 22.0493 33.5308Z" fill="#5B4A44"/>
<path d="M21.5125 33.8381C21.5125 34.9465 20.7288 36.2929 19.7677 36.8514C18.8023 37.4098 18.023 36.9639 18.023 35.8556C18.023 34.7473 18.8066 33.4009 19.7677 32.8424C20.7332 32.2839 21.5125 32.7298 21.5125 33.8381Z" fill="#6C7277"/>
<path d="M21.5125 33.8381C21.5125 34.9465 20.7288 36.2929 19.7677 36.8514C18.8023 37.4098 18.023 36.9639 18.023 35.8556C18.023 34.7473 18.8066 33.4009 19.7677 32.8424C20.7332 32.2839 21.5125 32.7298 21.5125 33.8381ZM21.335 33.8988C21.335 32.8684 20.6076 32.4528 19.7071 32.9723C18.8066 33.4918 18.0793 34.7473 18.0793 35.7777C18.0793 36.8081 18.8066 37.2237 19.7071 36.7042C20.6076 36.1846 21.335 34.9291 21.335 33.8988Z" fill="#A5A9B2"/>
<path d="M21.0233 33.9593C21.0233 34.8685 20.3782 35.9811 19.5859 36.4357C18.8499 36.86 18.2482 36.5786 18.1616 35.8123C18.1529 35.7517 18.1529 35.6867 18.1529 35.6175C18.1529 35.0027 18.4473 34.297 18.8802 33.7645C19.088 33.5047 19.3305 33.2883 19.5902 33.1411C20.3825 32.6822 21.0276 33.0502 21.0276 33.9593H21.0233Z" fill="#2C3D4F"/>
<path d="M19.4646 33.4918C19.9365 33.2191 20.534 33.2191 20.9409 33.4572C20.7418 32.9333 20.2136 32.7818 19.5858 33.1411C18.9711 33.4961 18.4516 34.2365 18.2437 34.9768C18.4992 34.362 18.9494 33.7862 19.4646 33.4918Z" fill="#0F2237"/>
<path d="M20.2786 34.1585C20.2786 34.8512 19.7894 35.6954 19.1876 36.0461C18.7157 36.3188 18.313 36.2062 18.1615 35.8166C18.1529 35.756 18.1529 35.691 18.1529 35.6218C18.1529 35.007 18.4473 34.3013 18.8802 33.7688C18.9798 33.6779 19.0837 33.6 19.1876 33.5394C19.7894 33.193 20.2786 33.4701 20.2786 34.1628V34.1585Z" fill="#260E08"/>
<path d="M18.3562 35.1283C18.3562 35.15 18.3562 35.1716 18.3562 35.1933C18.3649 35.3231 18.3908 35.4357 18.4385 35.5223C18.5857 35.8037 18.906 35.8686 19.2784 35.6565C19.7892 35.3621 20.2048 34.6434 20.2048 34.059C20.2048 33.7429 20.0836 33.5265 19.8931 33.4442C19.8845 33.4399 19.8758 33.4355 19.8715 33.4355C19.7459 33.3879 19.5857 33.3966 19.4169 33.4658C19.3736 33.4832 19.326 33.5048 19.2827 33.5308C18.893 33.7559 18.5597 34.2235 18.4211 34.6954C18.3908 34.7906 18.3735 34.8902 18.3649 34.9854C18.3605 35.0331 18.3562 35.085 18.3562 35.1326V35.1283Z" fill="#3D454B"/>
<path d="M18.417 35.1715C18.417 35.1932 18.417 35.2148 18.417 35.2365C18.4257 35.3663 18.4516 35.4789 18.4993 35.5655C18.6465 35.8469 18.9668 35.9118 19.3391 35.6997C19.85 35.4053 20.2656 34.6866 20.2656 34.1022C20.2656 33.7861 20.1444 33.5697 19.9539 33.4874C19.9453 33.4831 19.9366 33.4788 19.9323 33.4788C19.8067 33.4311 19.6465 33.4398 19.4777 33.5091C19.4344 33.5264 19.3868 33.548 19.3435 33.574C18.9538 33.7991 18.6205 34.2667 18.4819 34.7386C18.4516 34.8338 18.4343 34.9334 18.4257 35.0287C18.4213 35.0763 18.417 35.1282 18.417 35.1759V35.1715Z" fill="#7E8386"/>
<path d="M18.9538 34.8901L18.733 35.3317L18.9018 35.4399L19.759 33.8424L19.5902 33.7299L18.9538 34.8901Z" fill="#3D454B"/>
<path d="M19.2827 34.678L18.9017 35.4399L19.0879 35.5222L19.9321 33.968L19.759 33.8424L19.2827 34.678Z" fill="#C6C9CA"/>
<path d="M18.733 34.7343C18.733 34.8469 18.7677 34.9335 18.824 34.9854C18.9019 35.0547 19.0924 35.1543 19.0924 35.1543L19.6985 34.1152C19.6985 34.1152 19.5513 34.0416 19.4907 33.9897C19.4127 33.9247 19.2915 33.9204 19.1573 33.9983C18.9235 34.1326 18.7287 34.4659 18.7287 34.7343H18.733Z" fill="#6C7277"/>
<path d="M18.9624 34.8728C18.9624 35.1456 19.1529 35.2538 19.391 35.1153C19.6248 34.9811 19.8196 34.6477 19.8196 34.3793C19.8196 34.1065 19.6291 33.9983 19.391 34.1368C19.1572 34.271 18.9624 34.6044 18.9624 34.8728Z" fill="#C6C9CA"/>
<path d="M19.1875 34.7386C19.1875 34.7862 19.2005 34.8252 19.2265 34.8425C19.2611 34.8728 19.339 34.9118 19.339 34.9118L19.5945 34.4702C19.5945 34.4702 19.5339 34.4399 19.5079 34.4182C19.4733 34.3923 19.4256 34.3879 19.365 34.4182C19.2654 34.4745 19.1832 34.6174 19.1832 34.7299L19.1875 34.7386Z" fill="#6C7277"/>
<path d="M19.2828 34.7993C19.2828 34.9162 19.3651 34.9595 19.4647 34.9032C19.5642 34.8469 19.6465 34.704 19.6465 34.5915C19.6465 34.4789 19.5642 34.4313 19.4647 34.4876C19.3651 34.5439 19.2828 34.6867 19.2828 34.7993Z" fill="#D6D8D9"/>
<path d="M0.562759 27.9069L0.75325 29.6993L2.44169 29.1018L3.0781 28.8767L3.36384 28.7771C3.40281 28.4264 3.48073 28.0714 3.58464 27.7164C4.0955 25.989 5.32503 24.2746 6.75372 23.4477C8.18673 22.6208 9.41193 22.9195 9.92279 24.0538C10.0873 24.4175 10.1782 24.872 10.1782 25.4002C10.1782 25.4652 10.1782 25.5258 10.1782 25.5864C10.1782 25.8418 10.1696 26.0886 10.1652 26.3181L27.0929 16.5467L28.4567 15.7588L28.9199 15.4557C28.9156 15.2436 28.9113 15.0141 28.9113 14.7717V14.5855C28.9113 14.0574 29.0022 13.4989 29.1667 12.9447C29.6776 11.2173 30.9071 9.5029 32.3358 8.67599C33.7688 7.84909 34.994 8.14782 35.5049 9.2821C35.6694 9.64577 35.7603 10.1003 35.7603 10.6285C35.7603 10.7497 35.7603 10.8666 35.7603 10.9792L36.033 10.7974L40.2671 7.97031L41.4707 6.25156L41.6655 5.97882L41.7045 5.70607L41.9556 3.87476L41.869 0.601778L41.5876 0L35.6824 2.91797L34.9377 3.28597L33.4354 2.15601L33.6086 1.72308L32.8683 1.74905C23.8719 6.15199 18.2135 10.2086 18.2135 10.2086L17.6117 11.0744L17.9321 11.0225L17.7892 11.174L11.7541 17.5901L10.8796 17.9105L1.381 24.3785L1.00435 25.0496L0.567093 27.9069H0.562759Z" fill="#D33336"/>
<path d="M41.6524 0.731689L31.2014 6.48105L12.3471 17.365L1.22934 25.1189L1.68393 25.292L11.7583 18.7417L41.8818 1.34646L41.6524 0.731689Z" fill="#F56E75"/>
<path d="M0.58004 27.7944L1.58877 27.132L1.87451 25.1665L1.49786 25.2228L0.922055 25.5561L0.58004 27.7944Z" fill="#FDB91D"/>
<path d="M17.9278 11.0268L25.8591 6.11735L33.4355 2.15601L34.9377 3.28596L31.2448 6.10869L11.7498 17.5944L17.9278 11.0268Z" fill="#F56E75"/>
<path d="M29.4524 14.2782C29.4524 16.1052 30.7426 16.8368 32.3314 15.919C33.9203 15.0012 35.2104 12.7759 35.2104 10.9489C35.2104 9.12196 33.9203 8.3903 32.3314 9.30812C30.7426 10.2259 29.4524 12.4512 29.4524 14.2782Z" fill="#3A3E40"/>
<path d="M3.8704 29.0455C3.8704 30.8725 5.16054 31.6042 6.74941 30.6863C8.33827 29.7685 9.62842 27.5433 9.62842 25.7163C9.62842 23.8893 8.33827 23.1576 6.74941 24.0755C5.16054 24.9933 3.8704 27.2185 3.8704 29.0455Z" fill="#3A3E40"/>
<path d="M35.5006 9.29076C35.6651 9.65442 35.756 10.109 35.756 10.6372C35.756 10.7584 35.756 10.8753 35.756 10.9879L36.0288 10.806L40.2629 7.97897L41.6612 5.98747L41.7002 5.71472L35.5049 9.29076H35.5006Z" fill="#991A17"/>
<path d="M10.1738 25.5908C10.1738 25.8462 10.1651 26.093 10.1608 26.3224L28.4479 15.7632L28.6428 15.6376L28.9112 15.4601C28.9025 15.1917 28.9025 14.9016 28.9025 14.5899C28.9025 14.0617 28.9934 13.5033 29.158 12.9491L9.91405 24.0582C10.0786 24.4218 10.1695 24.8764 10.1695 25.4046C10.1695 25.4695 10.1695 25.5302 10.1695 25.5908H10.1738Z" fill="#991A17"/>
<path d="M10.1608 26.3223L28.4479 15.7631L28.9111 15.46C28.9068 15.2479 28.9025 15.0184 28.9025 14.776L10.1738 25.5907C10.1738 25.8461 10.1651 26.0929 10.1608 26.3223Z" fill="#F56E75"/>
<path d="M12.4856 17.1614L31.1927 6.13894L31.262 3.87037L30.868 3.49805L23.993 7.2689L18.8454 10.4596L12.4856 17.1614Z" fill="#322920"/>
<path d="M42.2847 4.02197L39.9728 5.32077V6.72348L42.2847 5.39004V4.02197Z" fill="#D7A32F"/>
<path d="M19.5382 14.9838L21.0881 14.0876V13.5032L19.5382 14.3993V14.9838Z" fill="#322920"/>
<path d="M19.6335 14.763L20.9929 13.9751V13.5594L19.6335 14.3431V14.763Z" fill="#F56E75"/>
<path d="M28.7641 9.6544L30.3184 8.76256V8.1781L28.7641 9.06994V9.6544Z" fill="#322920"/>
<path d="M28.8637 9.43366L30.2188 8.65005V8.2301L28.8637 9.01804V9.43366Z" fill="#F56E75"/>
<path d="M13.3949 18.5296L17.4731 16.1744V18.2872L13.3949 20.6423V18.5296Z" fill="#F56E75"/>
<path d="M30.9331 4.13448L30.721 6.09135L22.5039 11.0051L24.2746 7.3685L30.6733 3.90503L30.9331 4.13448Z" fill="#4D5258"/>
<path d="M10.8752 17.9148L17.6074 11.0788L17.9277 11.0269L11.7498 17.5945L10.8752 17.9148Z" fill="#4D5258"/>
<path d="M33.6129 1.72302L35.8901 2.81835L34.9377 3.28591L33.4354 2.15596L33.6129 1.72302Z" fill="#4D5258"/>
<g style="mix-blend-mode:multiply">
<path d="M28.0323 15.1917L28.0669 15.1744L28.8116 11.6459L31.2273 8.43357L31.3918 7.45081V6.4161L31.3442 3.83149L30.8767 3.38989L23.9454 7.19105L18.7978 10.3818L12.2821 17.3001L11.676 18.6984L11.5375 23.0797V23.0927L11.9877 24.4435L28.0279 15.183L28.0323 15.1917ZM11.8406 18.759L12.4164 17.4126L18.8974 10.5246L24.032 7.34258L30.8507 3.60203L31.1754 3.90941L31.223 6.42043V7.43782L31.0801 8.34699L28.6644 11.555L27.9154 15.0618L12.0873 24.201L11.7107 23.0754L11.8406 18.7547V18.759Z" fill="#ABABAB"/>
</g>
<g style="mix-blend-mode:multiply">
<path d="M21.5427 18.798L21.3825 16.8152L21.4734 13.079L21.8198 11.5897L23.9152 7.23438L24.071 7.30797L21.98 11.6503L21.638 13.1006L21.5514 16.8109L21.7116 18.7851L21.5427 18.798Z" fill="#ABABAB"/>
</g>
<path d="M39.9728 5.10426L42.0509 3.90503L42.2847 4.02192V5.38999L41.2586 7.45942L40.146 8.21272L39.9728 6.72343V5.10426Z" fill="#322920"/>
<path d="M10.1653 23.3351L28.3398 12.8408V12.2866L10.1653 22.7809V23.3351Z" fill="#322920"/>
<path d="M39.4922 6.52425L35.8902 8.60667V7.92696L39.4922 5.84888V6.52425Z" fill="#322920"/>
<path d="M28.6341 14.6115C28.6341 14.9838 28.6384 15.3259 28.647 15.6376L28.9155 15.4601C28.9068 15.1917 28.9068 14.9016 28.9068 14.5899C28.9068 14.0617 28.9977 13.5032 29.1622 12.9491C29.6731 11.2216 30.9026 9.50723 32.3313 8.68033C33.7643 7.85342 34.9895 8.15215 35.5004 9.28643C35.6649 9.6501 35.7558 10.1047 35.7558 10.6329C35.7558 10.7541 35.7558 10.871 35.7558 10.9835L36.0286 10.8017C36.0286 10.6502 36.0286 10.4943 36.0286 10.3341C36.0286 9.86224 35.9593 9.44229 35.8381 9.09161C35.3445 7.69757 33.9591 7.28628 32.3313 8.22575C30.6991 9.16521 29.3181 11.1784 28.8245 13.1395C28.699 13.6374 28.6341 14.131 28.6341 14.6029V14.6115Z" fill="#F56E75"/>
<path d="M3.07367 28.881L3.35941 28.7815C3.39837 28.4308 3.4763 28.0758 3.5802 27.7208C4.09106 25.9934 5.3206 24.279 6.74928 23.4521C8.18229 22.6252 9.40749 22.9239 9.91835 24.0582C10.0829 24.4218 10.1738 24.8764 10.1738 25.4046C10.1738 25.4695 10.1738 25.5301 10.1738 25.5907C10.1738 25.8462 10.1651 26.093 10.1608 26.3224L10.4292 26.1665C10.4379 25.9328 10.4422 25.6903 10.4465 25.4349C10.4465 25.3267 10.4465 25.2184 10.4465 25.1059C10.4465 24.634 10.3773 24.214 10.256 23.8633C9.7625 22.4693 8.37711 22.058 6.74928 22.9975C5.11712 23.9369 3.73606 25.9501 3.24251 27.9113C3.16026 28.236 3.10398 28.5607 3.07367 28.8767V28.881Z" fill="#F56E75"/>
<path d="M41.2585 1.52396V3.70162L41.9382 3.41156L41.8646 0.610474L41.6525 0.731695L41.2585 1.52396Z" fill="#D7A32F"/>
<path d="M9.55486 31.1062L13.9924 32.5566L13.5162 35.5741L8.60673 33.7515L3.49378 30.708L0.580142 28.0714V27.7943L1.00009 25.0538L2.87469 27.1492L9.55486 31.1062Z" fill="#FDC01F"/>
<path d="M14.3689 31.8856L13.9922 32.5566L9.55467 31.1063L6.01328 29.4481L2.8745 27.1493L0.9999 25.0539L1.37655 24.3828L14.3689 31.8856Z" fill="#FFDA1C"/>
<path d="M10.8751 17.9148L23.8718 25.4175L14.3689 31.8856L9.93568 30.3876L6.18648 28.6472L3.25984 26.4306L1.37658 24.3828L10.8751 17.9148Z" fill="#FFEE2B"/>
<path d="M3.25981 26.4306L6.18644 28.6473L9.93565 30.3876L18.1787 24.3266L12.4856 20.5514L3.25981 26.4306Z" fill="#FFF82B"/>
<path d="M23.8718 25.4175L18.7329 23.8027L13.1697 20.1487L10.8751 17.9148L17.6073 11.0787L27.989 17.0705L23.8718 25.4175Z" fill="#665F55"/>
<path d="M21.5599 14.1093L21.3608 14.3084L20.8283 14.04L20.5772 14.0227L20.4256 14.3691L20.4776 14.6028L21.1486 15.1007L22.3608 15.6808L22.5427 15.6246L22.6855 15.2046L22.5167 14.9492L21.798 14.5595L21.9929 14.3647L21.7591 14.1483L21.5599 14.1093Z" fill="#706D65"/>
<path d="M23.4346 7.86646L21.3868 11.6676L13.5377 16.2437L19.1658 10.4814L23.4346 7.86646Z" fill="#999690"/>
<path d="M41.5875 0L44.2414 0.961113L52.965 6.19095L54.5798 7.50274L48.8824 10.3168L35.8901 2.8184L41.5875 0Z" fill="#FFEE2B"/>
<path d="M17.6073 11.0788L17.7848 11.1827L18.984 12.304L25.6599 16.1571L27.9891 17.0749L43.9946 7.71488L42.0031 5.92687L36.2191 2.58895L33.6129 1.71875L32.8726 1.74473C23.8762 6.14766 18.2177 10.2043 18.2177 10.2043L17.616 11.0701L17.6073 11.0788Z" fill="#FFF82B"/>
<path d="M13.5595 35.1499L13.1915 36.886L14.8799 36.2885L16.183 35.8469L16.4688 35.7473C16.5077 35.3967 16.4688 35.5785 16.5727 35.2235C17.0835 33.4961 18.3347 31.6518 19.7634 30.8249C21.1964 29.998 22.4 30.4266 22.9108 31.5609C23.0753 31.9245 22.6164 32.0588 22.6164 32.5869C22.6164 32.6519 22.6164 32.7125 22.6164 32.7731C22.6164 33.0285 22.6078 33.2753 22.6034 33.5048L41.527 22.5472L41.9902 22.2441C41.9859 22.032 41.9816 21.8025 41.9816 21.5601C41.9816 21.4995 41.9816 21.4346 41.9816 21.3739C41.9816 20.8458 41.9902 21.006 42.1547 20.4518C42.6656 18.7244 43.8995 16.9191 45.3281 16.0921C46.7612 15.2652 47.982 15.6549 48.4929 16.7892C48.6574 17.1528 48.1985 17.287 48.1985 17.8152C48.1985 17.9364 48.1985 18.0533 48.1985 18.1659L48.4712 17.9841L52.7053 15.157L54.6535 13.4859L54.6925 13.2131L54.9436 11.3818L54.857 8.10885L54.5799 7.49841L47.9301 10.7844L43.8172 8.14781L43.9904 7.71488L43.2501 7.74086C34.2537 12.1438 28.5952 16.2047 28.5952 16.2047L27.9935 17.0706L28.3138 17.0186L24.4824 25.1881L23.8719 25.4132L14.3734 31.8812L13.9967 32.5523L13.5638 35.1456L13.5595 35.1499Z" fill="#FDB01C"/>
<path d="M13.5595 35.1499L13.9924 32.5566L24.7508 26.2444L54.8743 8.84912L54.9436 11.3818L54.6925 13.2131L54.6535 13.4858L52.7053 15.157L48.4712 17.984L48.1985 18.1659C48.1985 18.0533 48.1985 17.9364 48.1985 17.8152C48.1985 17.287 48.6574 17.1528 48.4929 16.7891C47.982 15.6548 46.7612 15.2652 45.3281 16.0921C43.8951 16.919 42.6656 18.7243 42.1547 20.4517C41.9902 21.0059 41.9816 20.8457 41.9816 21.3739C41.9816 21.4388 41.9816 21.4994 41.9816 21.5601C41.9816 21.8025 41.9816 22.0276 41.9902 22.2441L41.527 22.5471L22.6034 33.5047C22.6121 33.2752 22.6164 33.0328 22.6164 32.773C22.6164 32.7124 22.6164 32.6475 22.6164 32.5869C22.6164 32.0587 23.0753 31.9245 22.9108 31.5608C22.4 30.4265 21.1964 29.9979 19.7634 30.8248C18.3304 31.6517 17.0835 33.496 16.5727 35.2235C16.4688 35.5785 16.5077 35.3966 16.4688 35.7473L16.183 35.8469L14.8799 36.2885L13.1915 36.8859L13.5595 35.1499Z" fill="#FDB01C"/>
<path d="M54.6448 8.2301L44.1938 13.9838L25.3395 24.8678L14.369 31.8856L13.9923 32.5567L24.7507 26.2445L54.8743 8.8492L54.6448 8.2301Z" fill="#FFDC3B"/>
<path d="M13.594 35.1499L14.607 34.4615L14.646 33.5827L14.4122 33.0502L13.9143 33.0588L13.594 35.1499Z" fill="#ACB9C5"/>
<path d="M28.3094 17.0186L36.2364 12.1091L43.8171 8.1521L47.9299 10.7887L44.6699 12.7758L44.1851 13.6417L24.4822 25.1924L28.3094 17.0186Z" fill="#FFDA30"/>
<path d="M48.4928 16.7936C48.6573 17.1572 48.1984 17.2914 48.1984 17.8196C48.1984 17.9408 48.1984 18.0577 48.1984 18.1703L48.4711 17.9885L52.7052 15.1614L54.6534 13.4903L54.6924 13.2175L48.4971 16.7936H48.4928Z" fill="#E08019"/>
<path d="M22.6165 32.7775C22.6165 33.0329 22.6078 33.2797 22.6035 33.5091L41.527 22.5516L41.7219 22.426L41.9903 22.2485C41.9816 21.9801 41.9816 21.69 41.9816 21.3783C41.9816 20.8501 41.9903 21.0103 42.1548 20.4562L22.9109 31.5653C23.0754 31.9289 22.6165 32.0631 22.6165 32.5913C22.6165 32.6563 22.6165 32.7169 22.6165 32.7775Z" fill="#E08019"/>
<path d="M22.6035 33.5091L41.527 22.5515L41.9902 22.2485C41.9859 22.0364 41.9816 21.8069 41.9816 21.5645L22.6164 32.7774C22.6164 33.0329 22.6078 33.2796 22.6035 33.5091Z" fill="#322920"/>
<path d="M25.478 24.6599L44.1851 13.6418L41.6437 9.86659L41.2498 9.49426L34.167 13.5032L29.2272 16.4515L25.478 24.6599Z" fill="#0E0600"/>
<path d="M32.5307 22.4866L34.0806 21.5904V21.006L32.5307 21.9022V22.4866Z" fill="#322920"/>
<path d="M32.6257 22.2615L33.9851 21.4779V21.0623L32.6257 21.8459V22.2615Z" fill="#D5D6D5"/>
<path d="M41.7606 17.1571L43.3105 16.261V15.6765L41.7606 16.5727V17.1571Z" fill="#322920"/>
<path d="M41.8559 16.9363L43.2153 16.1527V15.7328L41.8559 16.5164V16.9363Z" fill="#D5D6D5"/>
<path d="M33.8164 13.8625L34.3835 19.166L26.5301 23.7464L29.5433 16.4731L33.8164 13.8625Z" fill="#483F32"/>
<path d="M41.3147 10.1306L43.7131 13.5941L35.496 18.5079L34.6562 13.3603L41.0549 9.89685L41.3147 10.1306Z" fill="#483F32"/>
<path d="M23.8718 25.4176L27.989 17.0706L28.3093 17.0187L24.4822 25.1925L23.8718 25.4176Z" fill="#4D5258"/>
<path d="M43.9904 7.71484L48.8826 10.3168L47.9301 10.7887L43.8172 8.15211L43.9904 7.71484Z" fill="#483F32"/>
<g style="mix-blend-mode:multiply">
<path d="M40.4749 22.374L40.5009 22.361L41.7997 19.153L44.2198 15.9363L44.3843 14.9535V13.8972L41.7001 9.8016L41.2585 9.38599L34.1194 13.4296L29.1796 16.3779L29.158 16.3909L25.2616 24.8331L24.6728 26.2055L24.5343 30.5781L24.3697 31.6734L40.4749 22.374ZM25.4131 24.9023L29.2879 16.5121L34.206 13.5768L41.2325 9.59812L41.5702 9.91417L44.2154 13.9491V14.9405L44.0726 15.8497L41.6568 19.0577L40.3623 22.2398L24.5862 31.3487L24.6988 30.5911L24.8287 26.2574L25.4088 24.898L25.4131 24.9023Z" fill="#ABABAB"/>
</g>
<g style="mix-blend-mode:multiply">
<path d="M34.9161 25.5517L34.7516 25.5214L35.085 23.8546L35.1716 20.1574L34.8165 19.14L34.0806 13.5162L34.2494 13.4945L34.9811 19.101L35.3447 20.1314V20.1487L35.2538 23.8719L34.9161 25.5517Z" fill="#ABABAB"/>
</g>
<path d="M55.6104 11.8537L55.238 11.3429L54.9436 11.2043V11.3818L54.9133 11.6113L52.7703 12.7889L52.7054 14.3604L52.385 15.3735L52.9175 15.7285L55.6104 11.8537Z" fill="#322920"/>
<path d="M53.2985 12.9404L55.3809 11.7412L55.6104 11.8538V13.2262L54.0345 14.9752L52.9175 15.7285L53.2985 14.5596V12.9404Z" fill="#2D241B"/>
<path d="M23.1575 31.1582L41.3364 20.6639V20.2007L23.1575 30.695V31.1582Z" fill="#322920"/>
<path d="M52.4844 14.027L48.8824 16.1051V15.6851L52.4844 13.6071V14.027Z" fill="#322920"/>
<path d="M41.7088 21.3913C41.7088 21.7636 41.7132 22.1057 41.7218 22.4174L41.9902 22.2399C41.9816 21.9715 41.9816 21.6814 41.9816 21.3697C41.9816 20.8415 41.9902 21.0017 42.1548 20.4475C42.6656 18.7201 43.8951 17.0057 45.3238 16.1788C46.7568 15.3519 47.5924 15.6506 48.1033 16.7849C48.2678 17.1486 48.1985 17.2828 48.1985 17.811C48.1985 17.9322 48.1985 18.0491 48.1985 18.1616L48.4713 17.9798C48.4713 17.8283 48.4713 17.6724 48.4713 17.5122C48.4713 17.0403 48.5665 16.9408 48.441 16.5858C47.9474 15.1917 46.9517 14.7804 45.3238 15.7199C43.6917 16.6594 42.3106 18.6725 41.8171 20.6337C41.6915 21.1316 41.7088 20.9064 41.7088 21.3827V21.3913Z" fill="#322920"/>
<path d="M16.1872 35.847L16.4729 35.7474C16.5119 35.3967 16.4729 35.5785 16.5768 35.2235C17.0877 33.4961 18.3172 31.7817 19.7459 30.9548C21.1789 30.1279 22.0534 30.4266 22.5686 31.5609C22.7332 31.9246 22.6206 32.0588 22.6206 32.587C22.6206 32.6519 22.6206 32.7125 22.6206 32.7731C22.6206 33.0285 22.6119 33.2753 22.6076 33.5048L22.876 33.3489C22.8847 33.1151 22.889 32.8727 22.8933 32.6173C22.8933 32.509 22.8933 32.4008 22.8933 32.2882C22.8933 31.8163 23.0275 31.7168 22.9063 31.3618C22.4128 29.9677 21.3781 29.5564 19.7459 30.4959C18.1138 31.4354 16.7327 33.4485 16.2391 35.4097C16.1569 35.7344 16.2175 35.5222 16.1872 35.8383V35.847Z" fill="#322920"/>
<path d="M54.251 9.02671V11.2044L54.9307 10.9143L54.8571 8.10889L54.6449 8.23011L54.251 9.02671Z" fill="#D1241D"/>
<path d="M36.6089 2.81835L38.7562 3.73617L46.0555 7.84904L48.8826 10.3168L43.9904 7.71483L33.613 1.72302L36.6089 2.81835Z" fill="#665F55"/>
<path d="M13.5161 35.5742L8.74085 33.4658L3.6279 30.4266L0.58005 28.0714L0.753222 29.7036L6.09563 33.7645L13.1914 36.8859L13.5161 35.5742Z" fill="#FDC01F"/>
<path d="M0.0950222 28.2489L3.12123 30.721L8.74937 34.0372L12.8796 35.5395L13.2086 35.8426V37.3665L13.8796 37.8644L9.52432 36.6089L3.12989 32.7601L1.0648 31.1063L0.216244 29.7901L0.0950222 28.2489Z" fill="#1D1309"/>
<path d="M13.2087 35.8426L7.44639 33.916L3.51102 31.5955L0.0951691 28.2489L0.21639 29.8681L2.61917 32.1929L8.77983 35.8859L13.2087 37.3665V35.8426Z" fill="#322920"/>
<path d="M13.8797 37.8644L15.1915 37.3666L15.6201 36.0591L15.2478 34.6737L13.2087 35.8426V37.3666L13.8797 37.8644Z" fill="#2D241B"/>
<path d="M18.2135 10.2129L19.5902 11.4338L26.266 15.2869L28.5952 16.2047L27.9891 17.0706L25.6599 16.1527L18.9841 12.2996L17.6074 11.0788L18.2135 10.2129Z" fill="#FFF82B"/>
<path d="M46.3152 19.2352C46.3152 19.9972 45.7783 20.9236 45.1116 21.309C44.4492 21.6943 43.9081 21.3869 43.9081 20.6249C43.9081 19.863 44.4449 18.9365 45.1116 18.5512C45.7783 18.1659 46.3152 18.4732 46.3152 19.2352Z" fill="#7E8181"/>
<path d="M46.4407 19.2915C46.4407 20.0534 45.9038 20.9799 45.2371 21.3652C44.5747 21.7505 44.0336 21.4432 44.0336 20.6812C44.0336 19.9192 44.5704 18.9927 45.2371 18.6074C45.8995 18.2221 46.4407 18.5295 46.4407 19.2915Z" fill="#D5D6D5"/>
<path d="M46.2546 19.3997C46.2546 20.0448 45.8001 20.8284 45.2372 21.1531C44.6744 21.4778 44.2198 21.218 44.2198 20.573C44.2198 19.9279 44.6744 19.1443 45.2372 18.8196C45.8001 18.4949 46.2546 18.7546 46.2546 19.3997Z" fill="#2B2B2D"/>
<path d="M46.168 19.5426C46.168 20.0968 45.7783 20.7722 45.2934 21.0492C44.8129 21.3263 44.4189 21.1055 44.4189 20.5514C44.4189 19.9972 44.8086 19.3218 45.2934 19.0448C45.774 18.7677 46.168 18.9885 46.168 19.5426Z" fill="#59595B"/>
<path style="mix-blend-mode:screen" d="M45.2372 19.1271C45.2372 19.1271 45.774 18.7417 46.0294 19.166C46.155 19.3695 46.1117 19.6076 46.1117 19.6076C46.1117 19.6076 45.8692 20.0059 45.38 20.3393C44.9514 20.6293 44.5401 20.8285 44.5401 20.8285C44.5401 20.8285 44.3583 20.4865 44.6051 19.9323C44.9038 19.2699 45.2328 19.1314 45.2328 19.1314L45.2372 19.1271Z" fill="url(#paint0_linear_160_13603)"/>
<path d="M20.6855 34.0027C20.6855 34.7646 20.1487 35.6911 19.482 36.0764C18.8196 36.4617 18.2784 36.1543 18.2784 35.3924C18.2784 34.6304 18.8153 33.7039 19.482 33.3186C20.1444 32.9333 20.6855 33.2407 20.6855 34.0027Z" fill="#7E8181"/>
<path d="M20.811 34.0589C20.811 34.8209 20.2742 35.7474 19.6075 36.1327C18.9451 36.518 18.4039 36.2106 18.4039 35.4486C18.4039 34.6867 18.9408 33.7602 19.6075 33.3749C20.2699 32.9896 20.811 33.297 20.811 34.0589Z" fill="#D5D6D5"/>
<path d="M20.6292 34.1672C20.6292 34.8122 20.1746 35.5959 19.6118 35.9206C19.0489 36.2453 18.5944 35.9855 18.5944 35.3404C18.5944 34.6953 19.0489 33.9117 19.6118 33.587C20.1746 33.2623 20.6292 33.5221 20.6292 34.1672Z" fill="#2B2B2D"/>
<path d="M20.5383 34.31C20.5383 34.8641 20.1487 35.5395 19.6638 35.8166C19.1832 36.0937 18.7893 35.8729 18.7893 35.3187C18.7893 34.7645 19.1789 34.0892 19.6638 33.8121C20.1444 33.535 20.5383 33.7558 20.5383 34.31Z" fill="#59595B"/>
<path style="mix-blend-mode:screen" d="M19.6119 33.8944C19.6119 33.8944 20.1488 33.5091 20.4042 33.9334C20.5297 34.1368 20.4864 34.375 20.4864 34.375C20.4864 34.375 20.244 34.7732 19.7548 35.1066C19.3262 35.3967 18.9149 35.5958 18.9149 35.5958C18.9149 35.5958 18.7331 35.2538 18.9798 34.6997C19.2786 34.0373 19.6076 33.8987 19.6076 33.8987L19.6119 33.8944Z" fill="url(#paint1_linear_160_13603)"/>
<path d="M15.2478 34.6737L14.8668 34.4616L13.5723 35.2971L13.2087 35.44L8.31653 33.5784L5.5371 32.1107L3.19925 30.5348L0.580005 28.0715V27.7944L0.627625 27.4827L0.0951138 28.249L3.09102 31.3488L4.92666 32.5956L7.44633 33.9161L13.2087 35.8426L15.2478 34.6737Z" fill="#3F362D"/>
<path d="M10.8753 17.9148L17.6074 11.0787L17.7849 11.1783L11.1264 18.1572L10.8753 17.9148Z" fill="#FFDA30"/>
<path d="M8.12605 32.9506C8.4724 32.9506 8.78844 32.7298 8.90533 32.4051L9.28198 31.3574L5.9787 29.8378L3.25987 27.7554L3.48067 29.63C3.53695 30.0889 3.80537 30.5045 4.19934 30.7426L5.63668 31.76L7.70178 32.8294C7.82733 32.903 7.97453 32.9419 8.12172 32.9419L8.12605 32.9506Z" fill="#D5D6D5"/>
<path d="M3.47648 28.3485L3.45483 28.3312L3.48514 28.5953L3.50678 28.7728L3.53276 28.9979V29.0325L3.56307 29.2577L3.58471 29.4352L3.60636 29.6213C3.60636 29.6213 3.60636 29.6473 3.61069 29.6603C3.61069 29.6733 3.61069 29.6863 3.61502 29.6949C3.63234 29.7858 3.65398 29.8724 3.68862 29.9547C3.79685 30.2404 4.00033 30.4829 4.26875 30.643L5.70176 31.6604L7.76253 32.7298C7.97033 32.8553 8.21277 32.8553 8.41625 32.7644C8.47253 32.7384 8.52449 32.7081 8.57211 32.6648C8.58943 32.6519 8.60674 32.6389 8.61973 32.6215C8.6587 32.5869 8.689 32.5436 8.71931 32.5003C8.74529 32.457 8.77126 32.4137 8.78858 32.3618V32.3488L8.84486 32.2016L8.86651 32.1453L8.91846 31.9981L8.97474 31.8423L9.02669 31.6951L9.04834 31.6388L5.80134 30.1278L3.47648 28.3485Z" fill="#989A98"/>
<path d="M3.41565 28.0281L3.4243 28.106L3.45461 28.3311L5.80111 30.1321L9.04812 31.6387L9.13037 31.4223L5.918 29.9416L3.41565 28.0281Z" fill="#989A98"/>
<path d="M3.45477 28.1494L3.48507 28.4135L5.80127 30.1842L8.97901 31.6605L9.04828 31.6389L9.10889 31.4873L5.80127 29.9461L3.47642 28.1667L3.45477 28.1494Z" fill="#595C59"/>
<path d="M3.55417 28.1364L3.71436 29.5088C3.76631 29.9374 4.00875 30.314 4.38107 30.5348L5.81409 31.5522L7.87485 32.6216C8.13894 32.7774 8.45931 32.7428 8.67578 32.5653C8.46364 32.8337 8.074 32.9246 7.76229 32.7341L5.70152 31.6648L4.26851 30.6474C3.90052 30.4266 3.65375 30.0499 3.6018 29.6213L3.41563 28.0325L3.55417 28.1364Z" fill="#595C59"/>
<path d="M5.80134 30.1322L3.47648 28.3485L3.48514 28.3918L5.91823 30.2491L9.03102 31.6994L9.04834 31.6388L5.80134 30.1322Z" fill="#595C59"/>
<path d="M3.50678 28.7728L3.53276 28.998L3.53709 29.0326L5.87926 30.8249L8.84919 32.2017L8.8665 32.1454L8.91846 32.0025L5.87926 30.5868L3.50678 28.7728Z" fill="#595C59"/>
<path d="M3.58471 29.4352L3.60635 29.6213C3.60635 29.6213 3.60635 29.6473 3.61068 29.6603C3.61068 29.6733 3.61068 29.6863 3.61501 29.6949L5.84029 31.3964L8.57643 32.6692C8.57643 32.6692 8.61107 32.6432 8.62406 32.6259C8.66302 32.5913 8.69333 32.548 8.72363 32.5047L5.84029 31.1669L3.58471 29.4438V29.4352Z" fill="#595C59"/>
<path d="M3.45483 28.3312L3.48514 28.5953L5.80134 30.366L8.97907 31.8423L9.03102 31.6994L9.04834 31.6388L5.80134 30.1322L3.47648 28.3485L3.45483 28.3312Z" fill="#D5D6D5"/>
<path d="M3.53271 28.9979L3.53704 29.0326L3.56301 29.2577L5.76232 30.9375L8.79286 32.3488L8.84914 32.2016L8.86646 32.1454L5.76232 30.7037L3.53271 28.9979Z" fill="#D5D6D5"/>
<path d="M3.61058 29.6603C3.61058 29.6603 3.61058 29.6863 3.61491 29.6949C3.63223 29.7858 3.65388 29.8724 3.68851 29.9547L5.7233 31.5132L8.41615 32.7644C8.47243 32.7384 8.52438 32.7081 8.57201 32.6648C8.58932 32.6518 8.60664 32.6389 8.61963 32.6215L5.7233 31.2751L3.60626 29.6603H3.61058Z" fill="#D5D6D5"/>
<path d="M9.5071 33.3878C9.66296 33.6649 9.91406 33.89 10.2344 34.0156L13.1914 35.1499H13.594L13.6503 34.7949L13.8884 33.2493L13.9187 33.0545L9.59369 31.6864L9.40753 32.2016C9.26033 32.6085 9.31228 33.0372 9.51143 33.3878H9.5071Z" fill="#ACB9C5"/>
<path d="M9.50704 33.3879L10.1564 33.2927L10.6197 33.5741L13.0658 34.4702L13.5117 34.5049L13.6459 34.7993L13.7065 34.9291L13.884 33.2537L13.8927 33.1801L13.9143 33.0589L9.5893 31.6908L9.40314 32.206C9.25594 32.6129 9.30789 33.0415 9.50704 33.3922V33.3879Z" fill="#72889D"/>
<path d="M0.606033 27.6168L2.16026 29.1234C2.33344 29.2663 2.54558 29.2706 2.71009 29.184C2.88759 29.0931 3.00881 28.9026 2.97851 28.6645V28.6429L2.82698 27.6384L1.30738 25.976L0.922072 25.556L0.606033 27.6168Z" fill="#ACB9C5"/>
<path d="M1.10817 27.2272L1.30299 27.3224L2.7057 28.7165V29.1884C2.8832 29.0975 3.00442 28.907 2.97411 28.6689V28.6472L2.82259 27.6428L1.30299 25.9803L1.10817 27.2315V27.2272Z" fill="#72889D"/>
<path d="M1.22507 27.0368L2.7793 28.5434C2.83991 28.5953 2.90485 28.63 2.97412 28.6473L2.80095 27.829L1.35062 26.2445L1.22507 27.0411V27.0368Z" fill="#DCDBDD"/>
<path d="M9.91839 32.2319C9.8015 32.7645 10.0959 33.3056 10.6068 33.4961L13.0831 34.4053L13.7282 34.2754L13.8538 33.2796L9.979 32.0544L9.91406 32.2363L9.91839 32.2319Z" fill="#DCDBDD"/>
<path d="M1.30737 25.9761L1.10822 27.2273L0.705595 27.4827L0.965355 25.6038L1.30737 25.9761Z" fill="#FD3C1D"/>
<path d="M13.9922 33.1801H14.3689L14.5637 33.6043L14.4988 34.4009L13.7065 34.9248L13.7282 34.271L13.8927 33.1801H13.9922Z" fill="#FD3C1D"/>
<path d="M11.2995 18.1573L12.9403 17.2698L13.9274 17.5945L20.6292 22.2615L24.5386 23.8157L24.4087 24.3266L23.9844 25.1795L23.8719 25.4176L18.7329 23.8027L13.1697 20.1488L11.1263 18.1573H11.2995Z" fill="#78736A"/>
<path d="M5.81861 29.8464L5.59782 31.6907L5.77532 31.7773L6.14331 30.0283L5.81861 29.8464Z" fill="#D5D6D5"/>
<path d="M11.1263 18.1572L13.0788 20.0578L18.7329 23.8027L23.8718 25.4175L18.261 24.1577L12.5679 20.3782L11.1263 18.1572Z" fill="#12181D"/>
<path d="M9.93565 30.3876L18.1787 24.3265L10.295 30.5088L9.55467 31.1063L9.93565 30.3876Z" fill="#FDB01C"/>
<path d="M2.87446 27.1493L3.25978 26.4306L12.4856 20.5514L3.17752 26.3787L2.87446 27.1493Z" fill="#FDB01C"/>
<path d="M26.8764 23.452L26.8894 23.4304C26.8418 23.4304 26.7942 23.4217 26.7509 23.4131C26.6903 23.3525 26.608 23.2875 26.5171 23.2789C26.4608 23.2745 26.4262 23.2875 26.3959 23.3308C26.3612 23.3784 26.3352 23.4261 26.3136 23.4867C26.2833 23.5733 26.253 23.6685 26.1881 23.7378C26.1145 23.8114 26.0279 23.8677 25.9499 23.9326C25.9283 23.9499 25.8763 23.9759 25.8677 24.0062C25.8547 24.0495 25.8893 24.1058 25.9023 24.1447C25.9196 24.2053 25.9413 24.266 25.9629 24.3266C25.9846 24.3828 25.9846 24.3915 26.0409 24.3612C26.1794 24.2833 26.3266 24.2183 26.4651 24.1361C26.5387 24.0928 26.569 24.0019 26.6123 23.9326C26.6643 23.8503 26.7119 23.7681 26.7595 23.6815C26.7812 23.6382 26.8071 23.5949 26.8288 23.5516C26.8331 23.543 26.8591 23.4823 26.8764 23.4477V23.452Z" fill="#E08019"/>
<path d="M26.491 22.4779C25.8373 22.6554 26.1576 23.4434 26.4001 23.5083C26.9932 23.6728 27.4088 23.6901 27.6469 23.6685C28.0063 23.6339 28.2271 23.6209 28.1232 22.9758C28.0885 22.7723 27.0928 22.3134 26.4953 22.4779H26.491Z" fill="#F59D1B"/>
<path d="M53.8267 13.265L54.7532 12.7239L54.8008 13.2867L53.8613 13.8408L53.8267 13.265Z" fill="#D4D6DA"/>
<path d="M53.8786 13.3084L54.7141 12.8235L54.7488 13.2434L53.9046 13.737L53.8786 13.3084Z" fill="#FF7400"/>
<path d="M22.5861 28.0325L22.5125 28.1494V28.4871L23.2139 28.1061L22.5861 28.0325Z" fill="#E08019"/>
<path d="M23.2873 27.6602L22.586 28.0325V28.3658L23.3999 27.7208L23.2873 27.6602Z" fill="#E07436"/>
<path d="M23.3999 27.7207L22.6942 28.093V28.4307L23.3999 28.0497V27.7207Z" fill="#FF9436"/>
<path d="M22.6943 28.0931L22.5861 28.0325V28.3658L22.6943 28.4308V28.0931Z" fill="#DB5E16"/>
<path d="M26.3873 26.093L30.4656 23.7378V25.8462L26.3873 28.2057V26.093Z" fill="#0E0600"/>
<path d="M26.5388 26.1406L30.3616 23.9326V24.582L26.5388 26.79V26.1406Z" fill="#FFB914"/>
<path d="M26.5388 26.9501L30.3616 24.7422V25.7769L26.5388 27.9849V26.9501Z" fill="#989A98"/>
<path d="M26.0669 12.213H27.6385L37.254 6.70609L37.4358 5.65406L35.0979 4.32495L26.0669 12.213Z" fill="#FDB01C"/>
<path d="M35.7993 6.63252L26.1103 12.1741L25.4998 9.57647L35.1845 4.03491L35.7993 6.63252Z" fill="white"/>
<path d="M35.7993 6.6326L26.1103 12.1742L24.175 10.4987L35.1283 4.18652L35.7993 6.6326Z" fill="#ACB9C5"/>
<path d="M34.3531 3.53271L24.6684 9.07427L25.4996 9.57647L35.1843 4.03492L34.3531 3.53271Z" fill="white"/>
<path d="M34.3531 3.53271L24.6684 9.07427L25.4996 9.4336L34.9246 4.03492L34.3531 3.53271Z" fill="white"/>
<path d="M24.6684 9.07434L24.0147 10.8537L26.1101 12.1741L25.4997 9.57654L24.6684 9.07434Z" fill="#5C544C"/>
<path d="M34.8769 7.1607L34.3098 4.53712L35.1843 4.03491L35.8813 6.58489L34.8769 7.1607Z" fill="#322920"/>
<path d="M34.3098 4.53711L33.4786 4.02192L34.3531 3.52405L35.1843 4.03491L34.3098 4.53711Z" fill="#3F362D"/>
<path d="M26.0669 12.2131L25.5041 9.58948L26.3743 9.08728L27.0713 11.6373L26.0669 12.2131Z" fill="#322920"/>
<path d="M25.5041 9.58948L24.6685 9.07429L25.543 8.57642L26.3743 9.08728L25.5041 9.58948Z" fill="#3F362D"/>
<path d="M6.65405 34.2321V34.8902C6.65405 35.0504 6.48521 35.1456 6.34234 35.0634L4.08675 33.7862C3.86596 33.6607 3.72742 33.4269 3.72742 33.1801V32.4961C3.72742 32.3359 3.89627 32.2406 4.03913 32.3229L6.29472 33.6304C6.51119 33.7559 6.64973 33.9897 6.64973 34.2321H6.65405Z" fill="#FAF1BD"/>
<path d="M6.39001 35.007C6.49392 35.0113 6.57617 34.9334 6.57617 34.8338V34.219C6.57617 33.9896 6.45062 33.7775 6.24714 33.6606L4.07815 32.4051C4.05217 32.3877 4.02186 32.3791 3.99156 32.3791C3.88766 32.3747 3.8054 32.4527 3.8054 32.5566V33.1973C3.8054 33.4268 3.93528 33.6432 4.13876 33.7601L6.30342 34.9853C6.3294 34.9983 6.35971 35.007 6.38568 35.0113L6.39001 35.007Z" fill="#FFC814"/>
</g>
<defs>
<linearGradient id="paint0_linear_160_13603" x1="44.7653" y1="18.4777" x2="46.536" y2="23.5863" gradientUnits="userSpaceOnUse">
<stop offset="0.12"/>
<stop offset="0.21" stop-color="#171824"/>
<stop offset="0.35" stop-color="#363853"/>
<stop offset="0.48" stop-color="#4F527A"/>
<stop offset="0.61" stop-color="#626698"/>
<stop offset="0.74" stop-color="#7075AD"/>
<stop offset="0.87" stop-color="#797EBA"/>
<stop offset="0.98" stop-color="#7C81BF"/>
</linearGradient>
<linearGradient id="paint1_linear_160_13603" x1="19.1357" y1="33.2407" x2="20.9107" y2="38.3536" gradientUnits="userSpaceOnUse">
<stop offset="0.12"/>
<stop offset="0.21" stop-color="#171824"/>
<stop offset="0.35" stop-color="#363853"/>
<stop offset="0.48" stop-color="#4F527A"/>
<stop offset="0.61" stop-color="#626698"/>
<stop offset="0.74" stop-color="#7075AD"/>
<stop offset="0.87" stop-color="#797EBA"/>
<stop offset="0.98" stop-color="#7C81BF"/>
</linearGradient>
<clipPath id="clip0_160_13603">
<rect width="56" height="41.185" fill="white" transform="matrix(-1 0 0 1 56 0)"/>
</clipPath>
</defs>
</svg>
