<svg width="20" height="48" viewBox="0 0 20 48" fill="none" xmlns="http://www.w3.org/2000/svg">
<g clip-path="url(#clip0_160_12750)">
<g style="mix-blend-mode:multiply">
<path d="M15.8597 44.7995C15.8597 46.5693 13.3848 48 10.3268 48C7.2687 48 4.79377 46.5625 4.79377 44.7995C4.79377 43.0366 7.2687 41.5923 10.3268 41.5923C13.3848 41.5923 15.8597 43.0298 15.8597 44.7995Z" fill="#EAEAEA"/>
</g>
<path d="M14.5308 43.457C14.0291 42.1213 12.144 41.1245 9.8861 41.1245C7.62815 41.1245 5.73636 42.1213 5.24138 43.457H5.09898V44.1554C5.09898 45.8303 7.24166 47.1864 9.8861 47.1864C12.5305 47.1864 14.6732 45.8303 14.6732 44.1554V43.457H14.5308Z" fill="#716471"/>
<path d="M14.6732 43.5859C14.6732 45.2607 12.5305 46.6168 9.8861 46.6168C7.24166 46.6168 5.09898 45.2607 5.09898 43.5859C5.09898 41.9111 7.24166 40.5549 9.8861 40.5549C12.5305 40.5549 14.6732 41.9111 14.6732 43.5859Z" fill="#CAC5CA"/>
<path d="M8.76728 14.6259V43.2333C8.76728 43.6266 9.26904 43.9385 9.88608 43.9385C10.5031 43.9385 11.0049 43.6198 11.0049 43.2333V14.6259H8.77406H8.76728Z" fill="#887C88"/>
<path d="M-3.33786e-05 5.70923L9.88611 11.4185V19.5485L-3.33786e-05 13.8392V5.70923Z" fill="#FFB325"/>
<path d="M9.88608 0L19.7722 5.70928L9.88608 11.4186L-6.67572e-05 5.70928L9.88608 0Z" fill="#EDD181"/>
<path d="M9.88607 0.7052L18.5449 5.7093L9.88607 10.7066L1.22722 5.7093L9.88607 0.7052Z" fill="#887C88"/>
<path d="M9.88602 2.34607L15.7106 5.70926L9.88602 9.07244L4.06147 5.70926L9.88602 2.34607Z" fill="#CAC5CA"/>
<path d="M19.7722 5.70923L9.88608 11.4185V19.5485L19.7722 13.8392V5.70923Z" fill="#975EC9"/>
<path d="M4.06156 5.70923V7.34336L9.88611 10.7065V9.07242L4.06156 5.70923Z" fill="#ABA2AB"/>
<path d="M15.7106 5.70923V7.34336L9.88602 10.7065V9.07242L15.7106 5.70923Z" fill="#665766"/>
<path d="M9.88607 0.7052V2.34611L15.7106 5.7093V7.34343L18.5449 5.7093L9.88607 0.7052Z" fill="#766876"/>
</g>
<defs>
<clipPath id="clip0_160_12750">
<rect width="19.7723" height="48" fill="white" transform="matrix(-1 0 0 1 19.7722 0)"/>
</clipPath>
</defs>
</svg>
