<svg width="56" height="47" viewBox="0 0 56 47" fill="none" xmlns="http://www.w3.org/2000/svg">
<g clip-path="url(#clip0_160_12770)">
<g style="mix-blend-mode:multiply">
<path d="M14.2939 45.9867L54.2406 22.9235C55.5506 22.1669 55.3856 20.8467 53.875 19.9759L46.723 15.8477C45.2123 14.9743 42.9248 14.8804 41.6173 15.6369L1.67059 38.7001C0.360535 39.4567 0.525562 40.7769 2.03619 41.6477L9.18821 45.7759C10.6988 46.6493 12.9864 46.7433 14.2939 45.9867Z" fill="#EAEAEA"/>
</g>
<path d="M4.49634 30.4335C4.49634 30.7712 4.25768 30.9058 3.96571 30.7357C3.67374 30.5656 3.43509 30.1543 3.43509 29.8191C3.43509 29.484 3.67374 29.3469 3.96571 29.517C4.25768 29.6871 4.49634 30.0984 4.49634 30.4335Z" fill="#484038"/>
<path d="M4.34656 30.436C4.34656 30.7255 4.14091 30.8423 3.88956 30.6975C3.63567 30.5528 3.43256 30.1974 3.43256 29.9079C3.43256 29.6185 3.63821 29.5017 3.88956 29.6464C4.14345 29.7912 4.34656 30.1466 4.34656 30.436Z" fill="#6A635C"/>
<path d="M3.8058 30.1771H3.97083V32.7363H3.8058V30.1771Z" fill="#3E362E"/>
<path d="M2.82575 32.0533L2.68357 31.9695L3.85907 29.9917L5.01172 30.7153L4.92286 30.8524L3.91493 30.2202L2.82575 32.0533Z" fill="#3E362E"/>
<path d="M44.6766 23.3297L43.7017 23.0073L37.5957 26.3967L40.1828 21.2377C40.1828 21.2377 43.3665 20.4913 43.4732 20.4303C43.5798 20.3694 45.1209 20.7655 44.6766 23.3323V23.3297Z" fill="#2D241B"/>
<path d="M6.63663 22.9463L12.7375 19.4249V31.7258L6.63663 35.2472V22.9463Z" fill="#FBED00"/>
<path d="M0.845422 35.2827L0.934284 37.7556L1.72134 37.3011L1.77973 37.2631C1.77465 37.1869 1.77211 37.1107 1.77211 37.0346C1.77211 35.4351 2.90192 33.4852 4.29576 32.6804C5.57535 31.9416 6.63406 32.424 6.79909 33.7493C6.80925 33.833 6.81686 33.9219 6.8194 34.0133L7.04028 33.8711V31.6242L6.20499 30.921C6.20499 30.921 5.60074 30.7026 4.58773 31.2992C3.57472 31.8959 1.87113 32.8353 1.87113 32.8353L1.69595 33.1399L0.847963 35.2853L0.845422 35.2827Z" fill="#FFC71F"/>
<path d="M6.63668 22.9463V33.3481L28.8569 20.5192C28.9229 20.2856 29.0042 20.052 29.1007 19.8235C29.2809 19.3919 29.5094 18.9704 29.7785 18.5769C30.0527 18.1758 30.365 17.8051 30.7052 17.4852C30.987 17.2237 31.2866 16.9952 31.5964 16.8175C31.9061 16.6372 32.2057 16.5204 32.4875 16.457C32.8277 16.3833 33.14 16.3909 33.4142 16.4773C33.6833 16.5585 33.9118 16.7159 34.0921 16.9419C34.1886 17.0612 34.2698 17.2008 34.3358 17.3583L45.1464 11.1177V0.713379L6.63922 22.9463H6.63668Z" fill="#FBC900"/>
<path d="M6.63668 22.9464L45.1438 0.715963L46.0146 0L7.54559 22.2101L6.63668 22.9464Z" fill="#322920"/>
<path d="M1.30249 36.4049L1.40151 38.2228L2.35867 37.6693L2.41706 37.6287C2.41198 37.5551 2.40944 37.4814 2.40944 37.4027C2.40944 35.8032 3.53924 33.8534 4.93309 33.0485C6.21268 32.3097 7.27139 32.7921 7.43642 34.1174L7.67761 33.9473V23.5455L7.32471 28.5192L5.7176 29.6236L1.86612 32.7007L1.597 33.4497L1.29996 36.4024L1.30249 36.4049Z" fill="#FBC900"/>
<path d="M2.78763 37.7252C2.78763 39.1165 3.77017 39.6751 4.98122 38.9769C6.19226 38.2761 7.1748 36.5827 7.1748 35.1914C7.1748 33.8001 6.19226 33.2416 4.98122 33.9397C3.77017 34.6405 2.78763 36.3339 2.78763 37.7252Z" fill="#3A3E40"/>
<path d="M30.0337 22.5641C29.1815 22.0659 29.1899 20.4658 30.0525 18.9902C30.9152 17.5146 32.3053 16.7222 33.1575 17.2204C34.0097 17.7186 34.0013 19.3187 33.1386 20.7943C32.276 22.2699 30.8859 23.0623 30.0337 22.5641Z" fill="#3A3E40"/>
<path d="M12.4685 24.782L44.7808 6.12633V5.57031L12.4685 24.226V24.782Z" fill="#322920"/>
<path d="M12.4685 26.5618L44.7808 7.90357V7.3501L12.4685 26.0058V26.5618Z" fill="#322920"/>
<path d="M44.7808 9.36084L33.8864 15.6522C34.2267 15.5785 34.5389 15.5862 34.8131 15.6725L44.7808 9.91685V9.36084Z" fill="#322920"/>
<path d="M12.4684 28.0165V28.5726L28.6359 19.2371C28.9101 18.836 29.2224 18.4653 29.5626 18.1454L12.4684 28.0165Z" fill="#322920"/>
<path d="M44.7808 10.7699L34.0896 16.9419C34.186 17.0612 34.2673 17.2009 34.3333 17.3583L44.7808 11.3259V10.7699Z" fill="#322920"/>
<path d="M12.4684 29.4255V29.9815L28.8569 20.5191C28.9229 20.2856 29.0041 20.052 29.1006 19.8235L12.4684 29.4255Z" fill="#322920"/>
<path d="M41.4497 7.24092L44.0444 5.74298V2.25964L41.4497 3.75758V7.24092Z" fill="#322920"/>
<path d="M41.6478 6.98956L43.8464 5.71759V2.51099L41.6478 3.78296V6.98956Z" fill="#4D5258"/>
<path d="M41.6478 5.54741L43.8464 4.27543V4.11548L41.6478 5.38492V5.54741Z" fill="#322920"/>
<path d="M37.9004 9.28975L40.4951 7.79181V4.30847L37.9004 5.80641V9.28975Z" fill="#322920"/>
<path d="M38.0983 9.03842L40.297 7.76644V4.56238L38.0983 5.83182V9.03842Z" fill="#4D5258"/>
<path d="M38.0983 7.59635L40.297 6.32438V6.16443L38.0983 7.43387V7.59635Z" fill="#322920"/>
<path d="M34.3509 11.3411L36.9457 9.84064V6.3573L34.3509 7.85524V11.3411Z" fill="#322920"/>
<path d="M34.549 11.0872L36.7477 9.81781V6.61121L34.549 7.88064V11.0872Z" fill="#4D5258"/>
<path d="M34.549 9.64518L36.7477 8.37321V8.21326L34.549 9.48269V9.64518Z" fill="#322920"/>
<path d="M30.8016 13.3901L33.3964 11.8896V8.40625L30.8016 9.90419V13.3901Z" fill="#322920"/>
<path d="M30.9997 13.1362L33.1984 11.8668V8.66016L30.9997 9.92959V13.1362Z" fill="#4D5258"/>
<path d="M30.9997 11.694L33.1984 10.4246V10.2621L30.9997 11.5315V11.694Z" fill="#322920"/>
<path d="M27.2523 15.4389L29.847 13.9384V10.4551L27.2523 11.953V15.4389Z" fill="#322920"/>
<path d="M27.4504 15.185L29.649 13.9156V10.709L27.4504 11.9784V15.185Z" fill="#4D5258"/>
<path d="M27.4504 13.743L29.649 12.4735V12.311L27.4504 13.583V13.743Z" fill="#322920"/>
<path d="M23.703 17.4877L26.2977 15.9872V12.5039L23.703 14.0044V17.4877Z" fill="#322920"/>
<path d="M23.901 17.2339L26.1022 15.9644V12.7578L23.901 14.0273V17.2339Z" fill="#4D5258"/>
<path d="M23.901 15.7918L26.1022 14.5224V14.3599L23.901 15.6318V15.7918Z" fill="#322920"/>
<path d="M20.1536 19.5367L22.7509 18.0387V14.5529L20.1536 16.0533V19.5367Z" fill="#322920"/>
<path d="M20.3517 19.2828L22.5529 18.0134V14.8068L20.3517 16.0762V19.2828Z" fill="#4D5258"/>
<path d="M20.3517 17.8407L22.5529 16.5713V16.4088L20.3517 17.6808V17.8407Z" fill="#322920"/>
<path d="M16.6043 21.5855L19.2015 20.0876V16.6017L16.6043 18.1022V21.5855Z" fill="#322920"/>
<path d="M16.8023 21.3316L19.0035 20.0622V16.8556L16.8023 18.125V21.3316Z" fill="#4D5258"/>
<path d="M16.8023 19.8896L19.0035 18.6202V18.4602L16.8023 19.7296V19.8896Z" fill="#322920"/>
<path d="M12.5116 23.9492L16.1422 21.8521V18.3688L12.5116 20.4633V23.9492Z" fill="#322920"/>
<path d="M12.7096 23.6954L15.9441 21.8267V18.6227L12.7096 20.4888V23.6954Z" fill="#4D5258"/>
<path d="M12.7096 22.2533L15.9441 20.3847V20.2247L12.7096 22.0908V22.2533Z" fill="#322920"/>
<path d="M7.62171 24.3479L7.99746 24.1321L8.31482 24.3403V26.9147L7.88575 27.8185L7.33989 28.3009L7.62171 24.3479Z" fill="#4D5258"/>
<path d="M44.2704 9.94227L45.2936 9.35071V11.1685L44.2704 11.7601V9.94227Z" fill="#322920"/>
<path d="M43.5773 23.251L42.1479 25.767L41.927 26.1554L40.358 28.5166C40.358 28.5166 39.5176 28.0266 38.8651 27.6458C38.7966 27.6077 38.7331 27.5696 38.6747 27.5366C38.6722 27.5366 38.6671 27.5341 38.6645 27.5315C38.3116 27.2878 38.0984 26.8206 38.0984 26.1707C38.0984 25.9955 38.1136 25.8178 38.1415 25.635C38.238 25.0358 38.4894 24.4087 38.8397 23.8527C39.2256 23.2383 39.7283 22.7102 40.2843 22.3903C40.8226 22.0806 41.3177 22.0196 41.701 22.1694C41.7645 22.21 41.8381 22.2557 41.9219 22.3065C42.5211 22.6645 43.5773 23.2484 43.5773 23.2484V23.251Z" fill="#151B1F"/>
<path d="M42.3739 25.8965L41.9271 26.1554L40.4824 26.9882L38.1416 25.6375C38.2381 25.0383 38.4894 24.4112 38.8398 23.8552L42.1479 25.767L42.3739 25.8965Z" fill="#151B1F"/>
<path d="M38.3142 26.3053C38.3142 24.9191 39.2942 23.2282 40.5027 22.53L38.3142 26.3053Z" fill="#242726"/>
<path d="M40.7084 22.6391C41.3584 22.2634 41.9423 22.2507 42.3434 22.5376C42.3612 22.5503 42.3841 22.5655 42.412 22.5833C42.021 22.3954 41.5005 22.4436 40.9293 22.7737C39.7208 23.4719 38.7408 25.1628 38.7408 26.549C38.7408 27.1939 38.954 27.656 39.3019 27.8997C39.246 27.8667 39.1978 27.8413 39.1622 27.821C38.7662 27.595 38.5199 27.1076 38.5199 26.4144C38.5199 25.0257 39.4999 23.3373 40.7084 22.6391Z" fill="#260E08"/>
<path d="M41.1044 22.8702C41.7543 22.4945 42.3383 22.4818 42.7394 22.7687C42.7572 22.7814 42.7801 22.7966 42.808 22.8144C42.417 22.6265 41.8965 22.6747 41.3253 23.0048C40.1168 23.703 39.1368 25.3939 39.1368 26.7801C39.1368 27.425 39.35 27.887 39.6979 28.1308C39.642 28.0978 39.5938 28.0724 39.5582 28.0521C39.1622 27.8261 38.9159 27.3386 38.9159 26.6455C38.9159 25.2568 39.8959 23.5684 41.1044 22.8702Z" fill="#260E08"/>
<path d="M41.5005 23.1013C42.1505 22.7255 42.7344 22.7128 43.1356 22.9997C43.1533 23.0124 43.1762 23.0277 43.2041 23.0454C42.8131 22.8576 42.2926 22.9058 41.7214 23.2359C40.5129 23.934 39.5329 25.6249 39.5329 27.0112C39.5329 27.656 39.7462 28.1181 40.094 28.3618C40.0381 28.3288 39.9899 28.3035 39.9543 28.2831C39.5583 28.0572 39.312 27.5697 39.312 26.8766C39.312 25.4878 40.292 23.7995 41.5005 23.1013Z" fill="#260E08"/>
<path d="M44.1333 24.6093C44.1333 25.9956 43.1533 27.6865 41.9448 28.3847C40.7363 29.0828 39.7563 28.5243 39.7563 27.1355C39.7563 25.7468 40.7363 24.0584 41.9448 23.3602C43.1533 22.662 44.1333 23.2206 44.1333 24.6093Z" fill="#585B5D"/>
<path d="M44.0698 24.6932C44.0698 26.054 43.1101 27.7093 41.9245 28.3948C40.7388 29.0778 39.7791 28.5319 39.7791 27.1711C39.7791 25.8103 40.7388 24.1549 41.9245 23.4694C43.1101 22.7865 44.0698 23.3323 44.0698 24.6932Z" fill="#3A3E40"/>
<path d="M42.0108 28.2983C40.8023 28.9965 39.8223 28.438 39.8223 27.0492C39.8223 26.1581 40.2285 25.14 40.8379 24.3428C40.1904 25.1527 39.7538 26.2114 39.7538 27.1355C39.7538 28.5218 40.7338 29.0829 41.9423 28.3847C42.3739 28.1359 42.775 27.7601 43.1152 27.3158C42.7903 27.722 42.412 28.0648 42.0083 28.2983H42.0108Z" fill="#260E08"/>
<path d="M43.7042 24.8556C43.7042 25.9702 42.9172 27.3284 41.9448 27.8895C40.9724 28.4506 40.1853 28.0013 40.1853 26.8867C40.1853 25.7721 40.9724 24.4138 41.9448 23.8527C42.9172 23.2916 43.7042 23.741 43.7042 24.8556Z" fill="#575E66"/>
<path d="M43.2904 25.0968C43.2904 25.9499 42.6887 26.9883 41.9448 27.4174C41.2009 27.8464 40.5992 27.5037 40.5992 26.6506C40.5992 25.7976 41.2009 24.7592 41.9448 24.3301C42.6887 23.901 43.2904 24.2438 43.2904 25.0968Z" fill="#6C7277"/>
<path d="M43.2904 25.0968C43.2904 25.9499 42.6887 26.9883 41.9448 27.4174C41.2009 27.8464 40.5992 27.5037 40.5992 26.6506C40.5992 25.7976 41.2009 24.7592 41.9448 24.3301C42.6887 23.901 43.2904 24.2438 43.2904 25.0968ZM43.1533 25.1451C43.1533 24.3504 42.5922 24.0305 41.9016 24.4316C41.2085 24.8303 40.6474 25.7976 40.6474 26.5922C40.6474 27.3869 41.2085 27.7068 41.9016 27.3057C42.5948 26.9071 43.1533 25.9397 43.1533 25.1451Z" fill="#A5A9B2"/>
<path d="M42.9121 25.1881C42.9121 25.8889 42.4171 26.7445 41.8052 27.0974C41.239 27.4223 40.7744 27.2065 40.7084 26.6175C40.7033 26.5693 40.7008 26.521 40.7008 26.4677C40.7008 25.9955 40.9267 25.4522 41.2619 25.0409C41.4218 24.8428 41.6097 24.6753 41.8077 24.561C42.4196 24.2081 42.9147 24.4899 42.9147 25.1932L42.9121 25.1881Z" fill="#2C3D4F"/>
<path d="M41.7138 24.8252C42.0768 24.6145 42.5364 24.6145 42.8486 24.7973C42.6963 24.3936 42.2875 24.2768 41.8052 24.5561C41.3329 24.8277 40.9318 25.4015 40.7718 25.9702C40.9673 25.4954 41.3152 25.0537 41.7112 24.8252H41.7138Z" fill="#0F2237"/>
<path d="M42.3408 25.3405C42.3408 25.8736 41.9651 26.5236 41.5005 26.7927C41.1374 27.0009 40.8277 26.9171 40.7109 26.615C40.7058 26.5668 40.7033 26.5185 40.7033 26.4652C40.7033 25.993 40.9292 25.4497 41.2644 25.0384C41.3405 24.9698 41.4192 24.9089 41.503 24.8606C41.9676 24.5915 42.3434 24.8073 42.3434 25.3405H42.3408Z" fill="#260E08"/>
<path d="M40.8606 26.0895C40.8606 26.1073 40.8606 26.1225 40.8606 26.1403C40.8657 26.2393 40.8886 26.3256 40.9241 26.3942C41.0358 26.61 41.2846 26.6633 41.5715 26.4957C41.9676 26.2672 42.2875 25.7163 42.2875 25.2644C42.2875 25.0207 42.1935 24.8556 42.0463 24.7922C42.0412 24.7896 42.0336 24.7871 42.0285 24.7845C41.9295 24.7465 41.8102 24.7541 41.6781 24.8074C41.6451 24.8201 41.6096 24.8379 41.5741 24.8582C41.2745 25.0308 41.018 25.3913 40.9114 25.7544C40.8886 25.828 40.8733 25.9042 40.8657 25.9778C40.8606 26.0159 40.8581 26.054 40.8581 26.0921L40.8606 26.0895Z" fill="#3D454B"/>
<path d="M40.9064 26.1225C40.9064 26.1403 40.9064 26.1555 40.9064 26.1733C40.9115 26.2723 40.9343 26.3586 40.9699 26.4272C41.0816 26.643 41.3304 26.6963 41.6173 26.5287C42.0134 26.3002 42.3333 25.7493 42.3333 25.2974C42.3333 25.0536 42.2393 24.8886 42.0921 24.8251C42.087 24.8226 42.0794 24.82 42.0743 24.8175C41.9753 24.7794 41.8559 24.787 41.7239 24.8404C41.6909 24.853 41.6554 24.8708 41.6198 24.8911C41.3202 25.0638 41.0638 25.4243 40.9572 25.7874C40.9343 25.861 40.9191 25.9371 40.9115 26.0108C40.9064 26.0489 40.9039 26.0869 40.9039 26.125L40.9064 26.1225Z" fill="#7E8386"/>
<path d="M41.3202 25.9042L41.1501 26.2444L41.2796 26.3282L41.9397 25.0968L41.8102 25.0131L41.3202 25.9042Z" fill="#3D454B"/>
<path d="M41.5742 25.7391L41.2796 26.3282L41.4218 26.3916L42.0718 25.1933L41.9398 25.0968L41.5742 25.7391Z" fill="#C6C9CA"/>
<path d="M41.1502 25.7823C41.1502 25.8712 41.1755 25.9347 41.2212 25.9753C41.2822 26.0286 41.4269 26.1048 41.4269 26.1048L41.894 25.305C41.894 25.305 41.7823 25.2492 41.7366 25.2111C41.6757 25.1603 41.5843 25.1578 41.4802 25.2187C41.2974 25.3228 41.1502 25.5767 41.1502 25.7849V25.7823Z" fill="#6C7277"/>
<path d="M41.3278 25.8915C41.3278 26.0997 41.4751 26.1835 41.6579 26.0794C41.8407 25.9753 41.9879 25.7214 41.9879 25.5132C41.9879 25.305 41.8407 25.2213 41.6579 25.3253C41.4751 25.4294 41.3278 25.6833 41.3278 25.8915Z" fill="#C6C9CA"/>
<path d="M41.4979 25.7874C41.4979 25.8255 41.5081 25.8534 41.5284 25.8687C41.5538 25.8915 41.6147 25.922 41.6147 25.922L41.8127 25.5818C41.8127 25.5818 41.7645 25.5589 41.7467 25.5411C41.7213 25.5208 41.6833 25.5183 41.6376 25.5437C41.5614 25.5894 41.4979 25.696 41.4979 25.7849V25.7874Z" fill="#6C7277"/>
<path d="M41.5741 25.833C41.5741 25.9219 41.6376 25.9574 41.7138 25.9117C41.7899 25.866 41.8534 25.7594 41.8534 25.6706C41.8534 25.5817 41.7899 25.5462 41.7138 25.5919C41.6376 25.6376 41.5741 25.7442 41.5741 25.833Z" fill="#D6D8D9"/>
<path d="M16.9825 28.9179V41.2212L6.63662 35.2473V22.9464L16.9825 28.9179Z" fill="#FDC419"/>
<path d="M5.49161 24.9318L5.80389 25.2999C6.05778 25.6274 6.26343 26.1657 6.26343 26.5059V28.4735C6.26343 28.8137 6.05778 28.8239 5.80389 28.4964L5.37736 27.9632C5.12347 27.6357 5.03207 27.2625 5.03207 26.9248V24.9572C5.03207 24.617 5.23772 24.6068 5.49161 24.9343V24.9318Z" fill="#484038"/>
<path d="M6.59859 29.6618L5.51195 28.9559V24.4469L7.40088 25.4751L7.30948 25.6452L5.70491 24.7719V28.8493L6.70269 29.4993L6.59859 29.6618Z" fill="#3E362E"/>
<path d="M16.9801 28.9178V39.3196L39.2003 26.4906C39.2663 26.257 39.3476 26.0235 39.444 25.795C39.6243 25.3634 39.8528 24.9419 40.1219 24.5484C40.3961 24.1472 40.7084 23.7766 41.0486 23.4567C41.3304 23.1952 41.63 22.9667 41.9398 22.7889C42.2495 22.6087 42.5491 22.4919 42.8309 22.4284C43.1711 22.3548 43.4834 22.3624 43.7576 22.4487C44.0267 22.53 44.2552 22.6874 44.4355 22.9133C44.532 23.0327 44.6132 23.1723 44.6792 23.3297L55.4897 17.0892V6.68738L16.9826 28.9203L16.9801 28.9178Z" fill="#E88000"/>
<path d="M22.8118 30.5808L55.1266 11.9226V11.5417L22.8118 30.1974V30.5808Z" fill="#322920"/>
<path d="M22.8118 32.358L55.1266 13.7024V13.3215L22.8118 31.9772V32.358Z" fill="#322920"/>
<path d="M22.8118 33.988V34.3713L39.4923 24.7414C39.7665 24.5129 40.0787 24.1422 40.4189 23.8248L22.8118 33.9905V33.988Z" fill="#322920"/>
<path d="M55.1266 16.7413L44.4354 22.9133C44.5319 23.0327 44.6131 23.1723 44.6791 23.3297L55.1266 17.2973V16.7413Z" fill="#C26100"/>
<path d="M22.8118 35.3995V35.9555L39.2002 26.4931C39.2662 26.2596 39.3475 26.026 39.444 25.7975L22.8118 35.3995Z" fill="#C26100"/>
<path d="M16.9826 28.9178L55.4897 6.68737L54.5402 4.92285L16.0737 27.1329L16.9826 28.9178Z" fill="#FFC71F"/>
<path d="M9.56647 41.1755L9.66548 42.9933L10.6226 42.4399L10.681 42.3992C10.676 42.3256 10.6734 42.252 10.6734 42.1733C10.6734 40.5738 11.8032 38.6239 13.1971 37.8191C14.4767 37.0803 15.5354 37.5627 15.7004 38.888L15.9416 38.7179L16.4265 33.7391L16.0736 30.1517L15.8908 29.7582C15.7613 29.4814 15.5303 29.2656 15.2459 29.1539L14.0882 28.7045C11.9581 27.8794 9.97523 26.7166 8.21325 25.2644L7.80449 24.9267C7.66485 24.8124 7.45159 24.8658 7.38558 25.0359L5.86732 28.9178L5.71753 29.6262L10.1301 37.4738L9.86098 38.2228L9.56393 41.1755H9.56647Z" fill="#E88000"/>
<path d="M15.5912 36.3389L14.4588 35.5646C14.4588 35.5646 13.3595 36.0317 12.9051 36.4583C12.4531 36.8848 10.1453 38.2989 10.1453 38.2989L9.5969 40.8962L9.5639 41.5487L10.2621 41.9498L11.9809 39.0758L14.3268 37.0854L15.5886 36.3389H15.5912Z" fill="#FFF133"/>
<path d="M16.2057 40.9495L14.2177 39.7385L14.6062 40.4036L10.6227 42.4424L11.4072 38.8651C11.4072 38.8651 14.5097 36.5776 14.6392 36.5268C14.7687 36.4785 16.2057 37.8216 16.2057 37.8216V40.9495Z" fill="#2D241B"/>
<path d="M15.5836 39.411L14.1542 41.927L13.9333 42.3155L12.3643 44.6766C12.3643 44.6766 11.524 44.1866 10.8715 43.8058C10.8029 43.7677 10.7394 43.7296 10.681 43.6966C10.6785 43.6966 10.6734 43.6941 10.6709 43.6916C10.318 43.4478 10.1047 42.9807 10.1047 42.3307C10.1047 42.1555 10.12 41.9778 10.1479 41.795C10.2444 41.1958 10.4957 40.5687 10.8461 40.0127C11.232 39.3983 11.7347 38.8702 12.2907 38.5503C12.8289 38.2406 13.324 38.1797 13.7074 38.3294C13.7709 38.3701 13.8445 38.4158 13.9283 38.4665C14.5274 38.8245 15.5836 39.4085 15.5836 39.4085V39.411Z" fill="#151B1F"/>
<path d="M14.3802 42.0565L13.9334 42.3155L12.4888 43.1482L10.1479 41.7976C10.2444 41.1984 10.4958 40.5713 10.8461 40.0153L14.1543 41.927L14.3802 42.0565Z" fill="#151B1F"/>
<path d="M10.3231 42.4652C10.3231 41.079 11.3031 39.3881 12.5116 38.6899L10.3231 42.4652Z" fill="#242726"/>
<path d="M12.7147 38.7992C13.3647 38.4234 13.9486 38.4107 14.3498 38.6976C14.3676 38.7103 14.3904 38.7255 14.4183 38.7433C14.0273 38.5554 13.5069 38.6037 12.9356 38.9337C11.7271 39.6319 10.7471 41.3228 10.7471 42.709C10.7471 43.3539 10.9604 43.816 11.3082 44.0597C11.2524 44.0267 11.2041 44.0013 11.1686 43.981C10.7725 43.7551 10.5262 43.2676 10.5262 42.5745C10.5262 41.1857 11.5062 39.4974 12.7147 38.7992Z" fill="#260E08"/>
<path d="M13.1107 39.0301C13.7607 38.6544 14.3446 38.6417 14.7458 38.9286C14.7636 38.9413 14.7864 38.9565 14.8143 38.9743C14.4233 38.7864 13.9029 38.8346 13.3316 39.1647C12.1231 39.8629 11.1431 41.5538 11.1431 42.94C11.1431 43.5849 11.3564 44.0469 11.7042 44.2907C11.6484 44.2577 11.6001 44.2323 11.5646 44.212C11.1685 43.986 10.9222 43.4985 10.9222 42.8054C10.9222 41.4167 11.9022 39.7283 13.1107 39.0301Z" fill="#260E08"/>
<path d="M13.5093 39.2612C14.1593 38.8855 14.7432 38.8728 15.1443 39.1597C15.1621 39.1723 15.185 39.1876 15.2129 39.2053C14.8219 39.0175 14.3014 39.0657 13.7302 39.3958C12.5217 40.094 11.5417 41.7848 11.5417 43.1711C11.5417 43.8159 11.7549 44.278 12.1028 44.5218C12.0469 44.4888 11.9987 44.4634 11.9631 44.4431C11.5671 44.2171 11.3208 43.7296 11.3208 43.0365C11.3208 41.6477 12.3008 39.9594 13.5093 39.2612Z" fill="#260E08"/>
<path d="M16.1396 40.7667C16.1396 42.1529 15.1596 43.8438 13.9511 44.542C12.7426 45.2402 11.7626 44.6816 11.7626 43.2929C11.7626 41.9041 12.7426 40.2158 13.9511 39.5176C15.1596 38.8194 16.1396 39.3779 16.1396 40.7667Z" fill="#585B5D"/>
<path d="M16.0787 40.8531C16.0787 42.2139 15.119 43.8693 13.9334 44.5548C12.7477 45.2377 11.788 44.6919 11.788 43.331C11.788 41.9702 12.7477 40.3148 13.9334 39.6293C15.119 38.9464 16.0787 39.4922 16.0787 40.8531Z" fill="#3A3E40"/>
<path d="M14.0172 44.4583C12.8087 45.1564 11.8287 44.5979 11.8287 43.2091C11.8287 42.318 12.2349 41.2999 12.8442 40.5027C12.1968 41.3126 11.7601 42.3713 11.7601 43.2954C11.7601 44.6817 12.7401 45.2428 13.9486 44.5446C14.3802 44.2958 14.7814 43.92 15.1216 43.4757C14.7966 43.8819 14.4183 44.2247 14.0146 44.4583H14.0172Z" fill="#260E08"/>
<path d="M15.7106 41.0155C15.7106 42.1301 14.9235 43.4884 13.9511 44.0495C12.9787 44.6105 12.1917 44.1612 12.1917 43.0466C12.1917 41.932 12.9787 40.5737 13.9511 40.0126C14.9235 39.4515 15.7106 39.9009 15.7106 41.0155Z" fill="#575E66"/>
<path d="M15.2968 41.2542C15.2968 42.1072 14.695 43.1456 13.9512 43.5747C13.2073 44.0038 12.6055 43.661 12.6055 42.808C12.6055 41.9549 13.2073 40.9165 13.9512 40.4874C14.695 40.0584 15.2968 40.4011 15.2968 41.2542Z" fill="#6C7277"/>
<path d="M15.2968 41.2542C15.2968 42.1072 14.695 43.1456 13.9512 43.5747C13.2073 44.0038 12.6055 43.661 12.6055 42.808C12.6055 41.9549 13.2073 40.9165 13.9512 40.4874C14.695 40.0584 15.2968 40.4011 15.2968 41.2542ZM15.1597 41.3024C15.1597 40.5078 14.5986 40.1879 13.908 40.589C13.2149 40.9876 12.6538 41.9549 12.6538 42.7496C12.6538 43.5442 13.2149 43.8641 13.908 43.463C14.6011 43.0644 15.1597 42.0971 15.1597 41.3024Z" fill="#A5A9B2"/>
<path d="M14.9209 41.3481C14.9209 42.0488 14.4258 42.9044 13.814 43.2573C13.2478 43.5823 12.7832 43.3665 12.7172 42.7775C12.7121 42.7293 12.7096 42.681 12.7096 42.6277C12.7096 42.1555 12.9355 41.6122 13.2707 41.2009C13.4306 41.0028 13.6185 40.8353 13.8165 40.721C14.4284 40.3681 14.9235 40.6499 14.9235 41.3506L14.9209 41.3481Z" fill="#2C3D4F"/>
<path d="M13.7201 40.9851C14.0832 40.7744 14.5427 40.7744 14.855 40.9572C14.7026 40.5535 14.2939 40.4367 13.8115 40.716C13.3393 40.9876 12.9381 41.5614 12.7782 42.1301C12.9737 41.6554 13.3215 41.2136 13.7176 40.9851H13.7201Z" fill="#0F2237"/>
<path d="M14.3472 41.5005C14.3472 42.0337 13.9714 42.6836 13.5068 42.9527C13.1438 43.1609 12.834 43.0772 12.7172 42.775C12.7122 42.7268 12.7096 42.6786 12.7096 42.6252C12.7096 42.153 12.9356 41.6097 13.2707 41.1984C13.3469 41.1298 13.4256 41.0689 13.5094 41.0207C13.974 40.7515 14.3497 40.9674 14.3497 41.5005H14.3472Z" fill="#260E08"/>
<path d="M12.867 42.2469C12.867 42.2646 12.867 42.2799 12.867 42.2977C12.8721 42.3967 12.8949 42.483 12.9304 42.5515C13.0422 42.7673 13.291 42.8207 13.5779 42.6531C13.9739 42.4246 14.2938 41.8737 14.2938 41.4217C14.2938 41.178 14.1999 41.013 14.0526 40.9495C14.0476 40.947 14.0399 40.9444 14.0349 40.9419C13.9358 40.9038 13.8165 40.9114 13.6845 40.9647C13.6515 40.9774 13.6159 40.9952 13.5804 41.0155C13.2808 41.1882 13.0244 41.5487 12.9178 41.9117C12.8949 41.9854 12.8797 42.0615 12.8721 42.1352C12.867 42.1732 12.8644 42.2113 12.8644 42.2494L12.867 42.2469Z" fill="#3D454B"/>
<path d="M12.9127 42.2824C12.9127 42.3002 12.9127 42.3154 12.9127 42.3332C12.9178 42.4322 12.9407 42.5185 12.9762 42.5871C13.0879 42.8029 13.3367 42.8562 13.6236 42.6886C14.0197 42.4601 14.337 41.9092 14.337 41.4573C14.337 41.2135 14.2431 41.0485 14.0958 40.985C14.0908 40.9825 14.0832 40.98 14.0781 40.9774C13.9791 40.9393 13.8597 40.947 13.7277 41.0003C13.6947 41.013 13.6592 41.0307 13.6236 41.051C13.324 41.2237 13.0676 41.5842 12.961 41.9473C12.9381 42.0209 12.9229 42.0971 12.9153 42.1707C12.9102 42.2088 12.9077 42.2469 12.9077 42.2849L12.9127 42.2824Z" fill="#7E8386"/>
<path d="M13.3266 42.0616L13.1565 42.4043L13.2859 42.4881L13.946 41.2542L13.8166 41.1704L13.3266 42.0616Z" fill="#3D454B"/>
<path d="M13.5805 41.899L13.286 42.488L13.4307 42.5515L14.0781 41.3532L13.9461 41.2542L13.5805 41.899Z" fill="#C6C9CA"/>
<path d="M13.1565 41.9422C13.1565 42.0311 13.1819 42.0971 13.2276 42.1352C13.2885 42.1885 13.4332 42.2647 13.4332 42.2647L13.9004 41.4649C13.9004 41.4649 13.7887 41.4091 13.743 41.371C13.682 41.3202 13.5907 41.3177 13.4866 41.3786C13.3038 41.4827 13.1565 41.7366 13.1565 41.9448V41.9422Z" fill="#6C7277"/>
<path d="M13.3342 42.0514C13.3342 42.2596 13.4814 42.3434 13.6642 42.2393C13.847 42.1352 13.9943 41.8813 13.9943 41.6731C13.9943 41.465 13.847 41.3812 13.6642 41.4853C13.4814 41.5894 13.3342 41.8432 13.3342 42.0514Z" fill="#C6C9CA"/>
<path d="M13.5068 41.9473C13.5068 41.9854 13.517 42.0133 13.5373 42.0286C13.5627 42.0514 13.6236 42.0819 13.6236 42.0819L13.8217 41.7417C13.8217 41.7417 13.7734 41.7188 13.7556 41.701C13.7303 41.6807 13.6922 41.6782 13.6465 41.7036C13.5703 41.7493 13.5068 41.8559 13.5068 41.9448V41.9473Z" fill="#6C7277"/>
<path d="M13.5805 41.9931C13.5805 42.0819 13.6439 42.1175 13.7201 42.0718C13.7963 42.0261 13.8597 41.9194 13.8597 41.8306C13.8597 41.7417 13.7963 41.7062 13.7201 41.7519C13.6439 41.7976 13.5805 41.9042 13.5805 41.9931Z" fill="#D6D8D9"/>
<path d="M16.9826 28.9178L23.0809 25.3964V37.6972L16.9826 41.2212V28.9178Z" fill="#E88000"/>
<path d="M17.861 40.4037L22.0197 38.002V37.7506L17.861 40.1498V40.4037Z" fill="#322920"/>
<path d="M17.861 29.5728L22.0197 27.171V26.9197L17.861 29.3189V29.5728Z" fill="#322920"/>
<path d="M20.2729 29.1894V32.7235C20.2729 32.9368 20.5039 33.0714 20.6893 32.9647L21.3214 32.5991C21.5652 32.4569 21.715 32.198 21.715 31.9162V28.3821C21.715 28.1688 21.4839 28.0342 21.2986 28.1409L20.6664 28.5065C20.4227 28.6486 20.2729 28.9076 20.2729 29.1894Z" fill="#768B9F"/>
<path d="M20.5522 32.8708C20.5775 32.8708 20.6029 32.8632 20.6258 32.8505L21.258 32.4849C21.4611 32.3681 21.588 32.1472 21.588 31.9136V28.3795C21.588 28.2881 21.5118 28.2297 21.4382 28.2297C21.4128 28.2297 21.3874 28.2374 21.3646 28.25L20.7324 28.6156C20.5293 28.7324 20.4024 28.9533 20.4024 29.1869V32.721C20.4024 32.8124 20.4785 32.8708 20.5522 32.8708Z" fill="#3E434A"/>
<path d="M18.1631 30.4082V33.9423C18.1631 34.1555 18.3942 34.2901 18.5795 34.1835L19.2117 33.8179C19.4554 33.6757 19.6052 33.4167 19.6052 33.1349V29.6008C19.6052 29.3875 19.3742 29.253 19.1888 29.3596L18.5567 29.7252C18.3129 29.8674 18.1631 30.1263 18.1631 30.4082Z" fill="#768B9F"/>
<path d="M18.4424 34.0896C18.4678 34.0896 18.4932 34.0819 18.516 34.0692L19.1482 33.7036C19.3513 33.5869 19.4783 33.366 19.4783 33.1324V29.5983C19.4783 29.5069 19.4021 29.4485 19.3285 29.4485C19.3031 29.4485 19.2777 29.4561 19.2549 29.4688L18.6227 29.8344C18.4196 29.9512 18.2926 30.1721 18.2926 30.4056V33.9398C18.2926 34.0312 18.3688 34.0896 18.4424 34.0896Z" fill="#3E434A"/>
<path d="M20.2729 34.351V38.0426C20.2729 38.2558 20.5039 38.3904 20.6893 38.2838L21.3214 37.9182C21.5652 37.776 21.715 37.517 21.715 37.2352V33.5437C21.715 33.3304 21.4839 33.1958 21.2986 33.3025L20.6664 33.6681C20.4227 33.8103 20.2729 34.0692 20.2729 34.351Z" fill="#768B9F"/>
<path d="M20.5522 38.1923C20.5775 38.1923 20.6029 38.1847 20.6258 38.172L21.258 37.8064C21.4611 37.6896 21.588 37.4687 21.588 37.2351V33.5436C21.588 33.4522 21.5118 33.3938 21.4382 33.3938C21.4128 33.3938 21.3874 33.4014 21.3646 33.4141L20.7324 33.7797C20.5293 33.8965 20.4024 34.1174 20.4024 34.351V38.0425C20.4024 38.1339 20.4785 38.1923 20.5522 38.1923Z" fill="#3E434A"/>
<path d="M18.1632 35.5671V39.2586C18.1632 39.4719 18.3942 39.6064 18.5795 39.4998L19.2117 39.1342C19.4555 38.992 19.6078 38.7331 19.6078 38.4512V34.7572C19.6078 34.5439 19.3768 34.4093 19.1914 34.516L18.5592 34.8816C18.3155 35.0238 18.1657 35.2827 18.1657 35.5645L18.1632 35.5671Z" fill="#768B9F"/>
<path d="M18.4424 39.4084C18.4678 39.4084 18.4932 39.4008 18.516 39.3881L19.1482 39.0225C19.3513 38.9057 19.4783 38.6849 19.4783 38.4513V34.7572C19.4783 34.6658 19.4021 34.6074 19.3285 34.6074C19.3031 34.6074 19.2777 34.615 19.2549 34.6277L18.6227 34.9933C18.4196 35.1101 18.2926 35.331 18.2926 35.5646V39.2561C18.2926 39.3475 18.3688 39.4059 18.4424 39.4059V39.4084Z" fill="#3E434A"/>
<path d="M19.8641 39.246L20.0165 39.1571V28.075L19.8641 28.1638V39.246Z" fill="#322920"/>
<path d="M10.2342 40.7033L9.96253 43.3564L11.1076 42.7217L11.166 42.6836C11.1609 42.6074 11.1583 42.5313 11.1583 42.4551C11.1583 40.8556 12.2881 38.9058 13.682 38.1009C14.9616 37.3621 16.1853 37.5348 16.1853 40.6855C16.1853 40.7718 16.2031 40.8581 16.2056 40.9495L16.4265 40.8074V38.1365C16.4265 37.4434 16.1218 36.7858 15.5912 36.3415C15.5912 36.3415 14.987 36.1231 13.974 36.7198C12.9609 37.3164 11.5823 38.563 11.5823 38.563L11.4072 38.8677L10.2342 40.7058V40.7033Z" fill="#E87100"/>
<path d="M55.1266 15.3323L43.3005 22.1593C43.6407 22.0857 43.953 22.0933 44.2272 22.007L55.1266 15.7131V15.3297V15.3323Z" fill="#322920"/>
<path d="M51.7931 13.2149L54.3878 11.7144V8.23108L51.7931 9.72902V13.2149Z" fill="#768B9F"/>
<path d="M51.9912 12.9609L54.1898 11.6889V8.48486L51.9912 9.7543V12.9609Z" fill="#3E434A"/>
<path d="M51.9912 11.5188L54.1898 10.2469V10.0869L51.9912 11.3564V11.5188Z" fill="#E88000"/>
<path d="M48.2438 15.2637L50.8385 13.7632V10.2799L48.2438 11.7778V15.2637Z" fill="#768B9F"/>
<path d="M48.4417 15.0099L50.6404 13.7404V10.5338L48.4417 11.8033V15.0099Z" fill="#3E434A"/>
<path d="M48.4417 13.5678L50.6404 12.2984V12.1359L48.4417 13.4053V13.5678Z" fill="#EB8704"/>
<path d="M44.6943 17.3126L47.2891 15.8121V12.3287L44.6943 13.8267V17.3126Z" fill="#768B9F"/>
<path d="M44.8924 17.0587L47.0911 15.7892V12.5826L44.8924 13.8521V17.0587Z" fill="#3E434A"/>
<path d="M44.8924 15.6166L47.0911 14.3472V14.1847L44.8924 15.4567V15.6166Z" fill="#EE8E08"/>
<path d="M41.145 19.3615L43.7397 17.861V14.3777L41.145 15.8782V19.3615Z" fill="#768B9F"/>
<path d="M41.3431 19.1076L43.5417 17.8382V14.6316L41.3431 15.901V19.1076Z" fill="#3E434A"/>
<path d="M41.3431 17.6654L43.5417 16.396V16.2335L41.3431 17.5055V17.6654Z" fill="#F1950C"/>
<path d="M37.5957 21.4103L40.193 19.9124V16.4265L37.5957 17.927V21.4103Z" fill="#768B9F"/>
<path d="M37.7937 21.1565L39.9949 19.887V16.6804L37.7937 17.9499V21.1565Z" fill="#3E434A"/>
<path d="M37.7937 19.7144L39.9949 18.445V18.2825L37.7937 19.5544V19.7144Z" fill="#F49B10"/>
<path d="M34.0463 23.4592L36.6436 21.9612V18.4753L34.0463 19.9758V23.4592Z" fill="#768B9F"/>
<path d="M34.2443 23.2053L36.4456 21.9359V18.7292L34.2443 19.9987V23.2053Z" fill="#3E434A"/>
<path d="M34.2443 21.7633L36.4456 20.4938V20.3339L34.2443 21.6033V21.7633Z" fill="#F7A214"/>
<path d="M30.497 25.5081L33.0942 24.0102V20.5243L30.497 22.0248V25.5081Z" fill="#768B9F"/>
<path d="M30.695 25.2542L32.8962 23.9848V20.7782L30.695 22.0476V25.2542Z" fill="#3E434A"/>
<path d="M30.695 23.8121L32.8962 22.5426V22.3827L30.695 23.6521V23.8121Z" fill="#FAA918"/>
<path d="M26.9477 27.557L29.5449 26.059V22.5757L26.9477 24.0736V27.557Z" fill="#768B9F"/>
<path d="M27.1457 27.3031L29.3469 26.0336V22.827L27.1457 24.099V27.3031Z" fill="#3E434A"/>
<path d="M27.1457 25.861L29.3469 24.5916V24.4316L27.1457 25.7011V25.861Z" fill="#FDB01C"/>
<path d="M22.855 29.9207L26.4856 27.8235V24.3402L22.855 26.4373V29.9207Z" fill="#768B9F"/>
<path d="M23.0529 29.6668L26.2875 27.8007V24.5941L23.0529 26.4602V29.6668Z" fill="#3E434A"/>
<path d="M23.0529 28.2247L26.2875 26.3587V26.1962L23.0529 28.0648V28.2247Z" fill="#E88000"/>
<g style="mix-blend-mode:multiply">
<path d="M22.0527 38.0603L22.0857 38.04V26.8004L17.8255 29.2606L17.7925 29.2809V40.5205L22.0527 38.0603ZM21.9511 27.0365V37.9639L17.927 40.2869V29.3596L21.9511 27.0365Z" fill="#6A635C"/>
</g>
<path d="M54.9768 16.0762L56 15.4846V17.3025L54.9768 17.894V16.0762Z" fill="#322920"/>
<path d="M46.0146 0L54.5402 4.92288L16.0736 27.133L7.54556 22.2101L46.0146 0Z" fill="#FFE62B"/>
<path d="M9.86353 38.2228L9.56648 41.1755L9.66549 42.9934L1.40145 38.2228L1.30243 36.405L1.59948 33.4523L9.86353 38.2228Z" fill="#FDAA0F"/>
<path d="M0.845485 35.2827L10.2343 40.7032L9.96259 43.3563L0.931809 37.7556L0.845485 35.2827Z" fill="#FDAA0F"/>
<path d="M9.87113 42.5262L11.0212 41.8534V42.1733L10.8004 43.2092L10.3713 43.9734L9.63502 44.41L9.78989 43.6458L9.87113 42.5262Z" fill="#2D241B"/>
<path d="M10.3002 42.2799L6.99202 40.6601C5.52962 39.9441 4.12562 39.119 2.78764 38.1897L0.891095 36.8568L0.870784 36.4176L0.081193 36.8746L-0.00259018 37.9917L0.210674 38.9387L2.93489 40.787C4.20179 41.6477 5.52962 42.4144 6.90569 43.0847L9.63245 44.41L9.78732 43.6458L9.8711 42.5287L10.2976 42.2824L10.3002 42.2799Z" fill="#322920"/>
<path d="M6.48176 42.026L9.78992 43.6458L9.63505 44.41L6.90829 43.0847C5.53222 42.4144 4.20439 41.6477 2.93749 40.787L0.213274 38.9387L5.72205e-06 37.9917L2.27738 39.5556C3.61283 40.4849 5.01937 41.31 6.48176 42.026Z" fill="#1D1309"/>
<path d="M2.35859 38.4385L0.0812225 36.8746L0.441742 36.6664L0.868276 36.4176L0.888583 36.8568L2.78512 38.1897C4.12057 39.119 5.52711 39.9441 6.98951 40.6601L9.99299 42.1301L10.8232 41.7543L11.0212 41.8508L9.87113 42.5261L6.56297 40.9063C5.10058 40.1904 3.69658 39.3652 2.35859 38.436V38.4385Z" fill="#6A635C"/>
<path d="M14.7712 25.9219L16.4265 26.9273L17.3126 28.7273L17.3329 29.3925L16.98 29.6337L14.3751 26.1504L14.7712 25.9219Z" fill="#484038"/>
<path d="M6.63662 22.9464L7.67756 24.264L16.98 29.6338L16.9825 28.9178L16.0736 27.133L7.54554 22.2101L6.63662 22.9464Z" fill="#3E362E"/>
<path d="M52.8417 3.94285L14.3752 26.1504L9.24409 23.1901L47.7131 0.97998L52.8417 3.94285Z" fill="#FFF133"/>
<g style="mix-blend-mode:multiply">
<path d="M55.3146 15.5989V6.78642L54.2914 5.0676L45.8141 0.114249L46.0147 0L54.5402 4.92288L55.4897 6.6874V15.1469L55.3146 15.5989Z" fill="#CCB368"/>
</g>
<path d="M6.436 30.3167L6.77113 30.6391C8.05073 31.873 9.57659 32.82 11.2497 33.4166L12.9965 34.0412C13.6185 34.2646 14.3091 34.1732 14.8524 33.8L15.1824 33.5741C15.4414 33.3963 15.6039 33.1094 15.6217 32.7946L15.7715 30.1466C15.7892 29.8597 15.6166 29.5956 15.3475 29.4915L12.8187 28.5268C11.1659 27.8971 9.6553 26.9374 8.38332 25.7086L8.09643 25.4319L7.84508 25.1907C7.81969 25.1678 7.7943 25.1501 7.76637 25.1374C7.6242 25.0714 7.44393 25.1374 7.383 25.2948L7.07072 26.1123L6.08056 28.6943C5.86475 29.258 6.00693 29.8978 6.44108 30.3167H6.436Z" fill="#768B9F"/>
<path d="M6.12637 29.3469C6.15176 29.6693 6.29393 29.9791 6.53767 30.2152L6.8728 30.5351C8.14478 31.7639 9.6351 32.6855 11.2981 33.2822L13.0448 33.9067C13.2505 33.9804 13.4663 34.0184 13.6871 34.0184C14.0756 34.0184 14.4488 33.9017 14.7687 33.6808L15.0988 33.4548C15.2003 33.3837 15.2841 33.2949 15.3476 33.1908C15.4212 33.0689 15.4669 32.9293 15.4745 32.7871L15.5862 30.8423L15.6268 30.139C15.6395 29.9156 15.5075 29.71 15.2968 29.6313L12.7681 28.6665C11.0873 28.0267 9.5767 27.067 8.28188 25.8179L7.74363 25.2999C7.71063 25.2669 7.67255 25.2593 7.64716 25.2593C7.604 25.2593 7.44151 25.1933 7.41612 25.2593L7.08353 26.1302L7.06322 26.1835L6.12383 28.5776C6.04767 28.7731 6.11114 29.1463 6.12891 29.3469H6.12637Z" fill="#53585E"/>
<path d="M6.07553 28.6969C6.0933 28.6664 6.79657 27.3792 7.29165 26.3637C7.60139 25.7289 7.82989 25.1983 7.76134 25.1425C7.63694 25.0384 7.47191 25.0384 7.38051 25.046C7.33989 25.0511 7.3145 25.0561 7.3145 25.0561C7.3145 25.0561 6.10599 28.2856 6.10853 28.3034C6.11107 28.3211 6.07553 28.6969 6.07553 28.6969Z" fill="#9FB8B9"/>
<path d="M6.12633 29.3469C6.15172 29.6694 6.2939 29.9791 6.53763 30.2152L6.87276 30.5376C8.14474 31.7639 9.63506 32.6881 11.298 33.2847L13.0448 33.9093C13.2504 33.9829 13.4688 34.021 13.6871 34.021C14.0756 34.021 14.4488 33.9042 14.7687 33.6859L15.0987 33.4599C15.2003 33.3888 15.2841 33.2999 15.3475 33.1959L12.6081 32.551L11.8667 31.7284L7.27137 29.2631L6.63919 29.2454L6.12887 29.3469H6.12633Z" fill="#737F82"/>
<path d="M14.3751 26.1504V28.1282L9.24405 25.1678V23.1901L14.3751 26.1504Z" fill="#FDC01F"/>
<path d="M14.5757 27.3437C14.568 27.6154 14.7483 27.9302 14.9819 28.047C15.2155 28.1637 15.4084 28.0368 15.416 27.7651C15.4236 27.4935 15.2434 27.1787 15.0098 27.0619C14.7762 26.9451 14.5833 27.072 14.5757 27.3437Z" fill="#281F16"/>
<path d="M14.6037 27.359C14.6037 27.359 14.6037 27.3844 14.6037 27.3971C14.6138 27.6408 14.7763 27.9125 14.982 28.0166C15.0962 28.075 15.2028 28.0673 15.2765 28.0115C15.3425 27.9607 15.3856 27.8718 15.3882 27.7525C15.3958 27.4986 15.2257 27.2041 15.0099 27.0949C14.7915 26.9858 14.6113 27.1051 14.6037 27.359Z" fill="#FF9500"/>
<path d="M14.6036 27.359C14.6036 27.359 14.6036 27.3844 14.6036 27.3971C14.6036 27.3971 14.9362 27.3565 15.058 27.5062C15.1723 27.6459 15.2713 27.7931 15.2789 28.0115C15.3449 27.9607 15.3881 27.8718 15.3906 27.7525C15.3982 27.4986 15.2281 27.2041 15.0123 27.0949C14.794 26.9858 14.6137 27.1051 14.6061 27.359H14.6036Z" fill="#E05D00"/>
<path d="M14.9286 27.3589C14.926 27.4858 15.0098 27.6356 15.119 27.6889C15.2281 27.7423 15.3195 27.6839 15.3246 27.5569C15.3297 27.43 15.2434 27.2802 15.1342 27.2269C15.025 27.1736 14.9336 27.2319 14.9286 27.3589Z" fill="#FFC226"/>
<path d="M15.4947 27.8795C15.4871 28.1511 15.6674 28.4659 15.9009 28.5827C16.1345 28.6995 16.3275 28.5726 16.3351 28.3009C16.3427 28.0293 16.1624 27.7144 15.9289 27.5976C15.6953 27.4809 15.5023 27.6078 15.4947 27.8795Z" fill="#281F16"/>
<path d="M15.5227 27.8921C15.5227 27.8921 15.5227 27.9175 15.5227 27.9302C15.5329 28.1739 15.6954 28.4455 15.901 28.5496C16.0153 28.608 16.1219 28.6004 16.1955 28.5446C16.2615 28.4938 16.3047 28.4049 16.3072 28.2856C16.3149 28.0317 16.1448 27.7372 15.929 27.628C15.7106 27.5189 15.5304 27.6382 15.5227 27.8921Z" fill="#FD3C1D"/>
<path d="M15.5226 27.8921C15.5226 27.8921 15.5226 27.9175 15.5226 27.9302C15.5226 27.9302 15.8552 27.8895 15.9771 28.0393C16.0913 28.179 16.1904 28.3262 16.198 28.5446C16.264 28.4938 16.3072 28.4049 16.3097 28.2856C16.3173 28.0317 16.1472 27.7372 15.9314 27.628C15.7131 27.5189 15.5328 27.6382 15.5252 27.8921H15.5226Z" fill="#FD1F00"/>
<path d="M15.8477 27.8946C15.8451 28.0216 15.9289 28.1714 16.0381 28.2247C16.1472 28.2805 16.2386 28.2196 16.2437 28.0927C16.2463 27.9657 16.1625 27.8159 16.0533 27.7626C15.9441 27.7068 15.8527 27.7677 15.8477 27.8946Z" fill="#FD593F"/>
<path d="M8.16001 23.5811C8.15239 23.8528 8.33265 24.1676 8.56623 24.2844C8.7998 24.4012 8.99276 24.2742 9.00038 24.0026C9.00799 23.7309 8.82773 23.4161 8.59416 23.2993C8.36058 23.1825 8.16763 23.3095 8.16001 23.5811Z" fill="#281F16"/>
<path d="M8.18789 23.5963C8.18789 23.5963 8.18789 23.6217 8.18789 23.6344C8.19805 23.8781 8.36054 24.1498 8.56619 24.2539C8.68044 24.3123 8.78707 24.3046 8.8607 24.2488C8.92671 24.198 8.96987 24.1091 8.97241 23.9898C8.98003 23.7359 8.80992 23.4414 8.59412 23.3323C8.37577 23.2231 8.19551 23.3424 8.18789 23.5963Z" fill="#FF9500"/>
<path d="M8.18792 23.5963C8.18792 23.5963 8.18792 23.6217 8.18792 23.6344C8.18792 23.6344 8.52052 23.5938 8.64238 23.7436C8.75663 23.8832 8.85565 24.0304 8.86326 24.2488C8.92927 24.198 8.97243 24.1091 8.97497 23.9898C8.98259 23.7359 8.81248 23.4414 8.59668 23.3323C8.37834 23.2231 8.19808 23.3424 8.19046 23.5963H8.18792Z" fill="#E05D00"/>
<path d="M8.51282 23.5963C8.51028 23.7233 8.59406 23.8731 8.70323 23.9264C8.8124 23.9797 8.9038 23.9213 8.90888 23.7944C8.91142 23.6674 8.82764 23.5176 8.71846 23.4643C8.60929 23.411 8.51789 23.4694 8.51282 23.5963Z" fill="#FFC226"/>
<path d="M7.23838 23.0251C7.23076 23.2967 7.41102 23.6116 7.6446 23.7284C7.87817 23.8451 8.07113 23.7182 8.07875 23.4465C8.08636 23.1749 7.9061 22.8601 7.67253 22.7433C7.43895 22.6265 7.246 22.7534 7.23838 23.0251Z" fill="#281F16"/>
<path d="M7.26627 23.0377C7.26627 23.0377 7.26627 23.0631 7.26627 23.0758C7.27642 23.3195 7.43891 23.5912 7.64456 23.6953C7.75881 23.7537 7.86544 23.746 7.93907 23.6902C8.00508 23.6394 8.04824 23.5506 8.05078 23.4312C8.0584 23.1773 7.88829 22.8828 7.67249 22.7737C7.45414 22.6645 7.27388 22.7838 7.26627 23.0377Z" fill="#FD3C1D"/>
<path d="M7.26629 23.0377C7.26629 23.0377 7.26629 23.0631 7.26629 23.0758C7.26629 23.0758 7.59888 23.0352 7.72075 23.185C7.835 23.3246 7.93402 23.4719 7.94164 23.6902C8.00765 23.6394 8.0508 23.5506 8.05334 23.4312C8.06096 23.1773 7.89086 22.8828 7.67505 22.7737C7.45671 22.6645 7.27645 22.7838 7.26883 23.0377H7.26629Z" fill="#FD1F00"/>
<path d="M7.59118 23.0403C7.58865 23.1672 7.67243 23.317 7.7816 23.3703C7.89077 23.4237 7.98217 23.3653 7.98725 23.2383C7.98979 23.1114 7.906 22.9616 7.79683 22.9083C7.68766 22.8549 7.59626 22.9133 7.59118 23.0403Z" fill="#FD593F"/>
<path d="M16.9825 28.9178L17.3126 28.7274L17.3329 29.3926L16.98 29.6338L16.9825 28.9178Z" fill="#322920"/>
<path d="M16.0736 27.1329L16.4265 26.9273L15.2256 25.6604L14.3751 26.1504L16.0736 27.1329Z" fill="#6A635C"/>
<path d="M9.2441 23.19L10.0337 22.7356L7.9442 21.979L7.54559 22.21L9.2441 23.19Z" fill="#6A635C"/>
<path d="M16.0736 30.1517L15.8908 29.7582C15.7613 29.4815 15.5303 29.2657 15.2459 29.1539L14.0882 28.7046C11.9581 27.8794 9.97523 26.7166 8.21324 25.2644L7.80449 24.9267C7.66485 24.8125 7.45158 24.8658 7.38557 25.0359L5.86732 28.9178L7.38811 24.8607C7.45158 24.6881 7.66739 24.6322 7.80702 24.749L8.21324 25.0841C9.97523 26.5364 11.9581 27.6992 14.0882 28.5243L15.2459 28.9737C15.5303 29.0854 15.7613 29.3012 15.8908 29.5779L16.0736 29.9715V30.1543V30.1517Z" fill="#FFC71F"/>
<path d="M1.59949 33.4522L2.7166 34.3459C4.21961 35.5468 5.88004 36.5369 7.65218 37.2885L9.86354 38.2253L10.1327 37.4763L13.9841 34.3992L12.212 33.9346C9.62996 33.2567 7.34751 31.7435 5.72009 29.6287L1.86861 32.7058L1.59949 33.4548V33.4522Z" fill="#FFE62B"/>
<path d="M1.59953 33.4522L2.71663 34.3459C4.21965 35.5468 5.88007 36.5369 7.65221 37.2885L9.86357 38.2253L10.1327 37.4763C10.1327 37.4763 7.22822 36.5623 5.44846 35.397C3.66871 34.2317 1.86865 32.7032 1.86865 32.7032L1.59953 33.4522Z" fill="#FFC71F"/>
<path d="M9.78994 43.6458L10.8004 43.2091L10.3713 43.9733L9.63507 44.41L9.78994 43.6458Z" fill="#1D1309"/>
<path d="M13.88 27.5341C13.9943 27.5417 14.0857 27.4554 14.0857 27.3411V26.6633C14.0857 26.4119 13.9461 26.1758 13.7252 26.0463L9.83561 23.8147C9.80515 23.7969 9.77468 23.7867 9.74168 23.7867C9.62743 23.7791 9.53603 23.8654 9.53603 23.9797V24.6855C9.53603 24.9394 9.67566 25.1755 9.90416 25.305L13.7886 27.5062C13.8191 27.5214 13.8496 27.5316 13.88 27.5341Z" fill="#3E362E"/>
<path d="M13.8902 27.3893C13.9182 27.3893 13.9385 27.369 13.9385 27.3411V26.6632C13.9385 26.4652 13.8268 26.2773 13.649 26.1732L9.76203 23.9416C9.76203 23.9416 9.74171 23.9314 9.73156 23.9314C9.70109 23.9314 9.68078 23.9517 9.68078 23.9796V24.6854C9.68078 24.886 9.79249 25.0764 9.97529 25.178L13.8598 27.3792C13.8598 27.3792 13.8801 27.3868 13.8902 27.3893Z" fill="#E0E4EA"/>
<path d="M13.9841 34.3967L14.2964 34.8131L9.86351 38.2228L10.1326 37.4738L13.9841 34.3967Z" fill="#FFC71F"/>
<path d="M7.08096 26.1302C7.13682 26.1936 7.2079 26.2723 7.29169 26.3612C7.91371 27.0365 9.21108 28.2349 10.2723 28.9178C11.6103 29.7836 14.855 30.6773 15.5837 30.8423L15.6243 30.139C15.637 29.9156 15.505 29.71 15.2942 29.6313L12.7655 28.6665C11.0848 28.0267 9.57414 27.067 8.27931 25.8179L7.74107 25.2999C7.70806 25.2669 7.66998 25.2593 7.64459 25.2593C7.60143 25.2593 7.43895 25.1933 7.41356 25.2593L7.08096 26.1302Z" fill="#3E362E"/>
<g style="mix-blend-mode:screen">
<path d="M7.91878 25.47L8.2793 25.8178C9.57412 27.0669 11.0848 28.0241 12.7655 28.6664L14.6036 29.3671C14.6036 29.3671 13.9029 33.2897 13.7328 33.9244C13.7226 33.9651 13.6922 33.9955 13.6439 34.0158C13.4383 34.0108 13.2377 33.9752 13.0448 33.9067L11.298 33.2821C9.63506 32.6855 8.14474 31.7638 6.87276 30.535L6.53763 30.2151C6.37514 30.0577 6.25835 29.8648 6.1898 29.6591C6.464 28.8162 7.52017 26.2799 7.91878 25.4725V25.47Z" fill="#151C24"/>
</g>
<path d="M10.6125 27.5189L8.99012 32.226L9.13483 32.3656L10.7419 27.6586L10.6125 27.5189Z" fill="#768B9F"/>
<path d="M10.1454 38.299L11.5824 38.5605L10.2343 40.7033L9.59954 40.3377L10.1454 38.299Z" fill="#FFC71F"/>
<path d="M5.8851 29.8369C5.8851 29.8369 7.08091 31.3602 8.89874 32.5052C10.7166 33.6503 13.7302 34.3307 13.7302 34.3307C13.7302 34.3307 11.59 34.3739 8.7388 32.7007C5.88764 31.0302 5.8851 29.8344 5.8851 29.8344V29.8369Z" fill="#322920"/>
<path d="M10.5261 33.6376L7.00978 36.2501L6.63657 36.8239L6.74827 36.1231L10.5261 33.6376Z" fill="#E88000"/>
<path d="M3.52906 34.9629L3.68647 34.1479L6.99463 31.4644L3.82611 34.252L3.52906 34.9629Z" fill="#E88000"/>
<path d="M7.99236 40.6652C8.165 40.6652 8.2564 40.5941 8.3021 40.5357C8.36811 40.4519 8.41127 40.3529 8.42904 40.2463C8.43412 40.2132 8.43666 40.1802 8.43666 40.1472V40.0736L8.48744 39.7867L8.61438 39.0631C8.62708 38.992 8.63215 38.9184 8.62961 38.8448C8.62708 38.7534 8.61184 38.6595 8.58392 38.5681C8.54583 38.4437 8.48998 38.3294 8.41381 38.2253L8.38081 38.1821C8.26909 38.0425 8.12184 37.9333 7.95681 37.8622L6.09582 37.06L4.14088 35.887L3.14056 35.1634C3.03901 35.0873 2.91714 35.0466 2.7902 35.0466C2.78004 35.0466 2.76989 35.0466 2.75719 35.0466C2.64802 35.0517 2.53885 35.0898 2.44745 35.1533C2.38144 35.199 2.32558 35.2574 2.28242 35.3234C2.23165 35.4021 2.20118 35.4909 2.19356 35.5874V35.5976L2.1631 36.0622L2.1504 36.2754L2.13517 36.5217V36.5268V36.5395V37.0092C2.13517 37.0092 2.13517 37.027 2.13771 37.0371C2.16818 37.3849 2.27989 37.4713 2.54647 37.6515L4.04948 38.7788L5.76576 39.8146L7.35256 40.4722C7.47189 40.5306 7.76386 40.6626 7.99743 40.6626L7.99236 40.6652Z" fill="#768B9F"/>
<path d="M2.27483 36.5394V36.999C2.27483 36.999 2.27483 37.0142 2.27483 37.0218C2.30022 37.3163 2.37893 37.3697 2.62266 37.5347L4.12313 38.6594L5.82418 39.6851L7.4059 40.3401C7.62425 40.4493 8.05078 40.6143 8.18534 40.4442C8.23358 40.3833 8.26912 40.3071 8.28182 40.2234C8.28689 40.198 8.28689 40.1726 8.28689 40.1472V40.0634L8.29705 40.0076L8.34021 39.7638L8.37829 39.5556L8.42145 39.3119L8.45954 39.1012L8.46969 39.0402C8.47985 38.9768 8.48492 38.9133 8.48239 38.8524C8.48239 38.7686 8.46715 38.6899 8.4443 38.6112C8.40876 38.4893 8.34783 38.3751 8.26658 38.276C8.17011 38.1567 8.0457 38.0628 7.89844 37.9993L6.02729 37.1919L4.05966 36.0114L3.05427 35.2852C2.96541 35.2192 2.86132 35.1913 2.76484 35.1964C2.68106 35.2015 2.59981 35.2294 2.53126 35.2776C2.48302 35.3106 2.43986 35.3538 2.40686 35.4071C2.36877 35.4655 2.34592 35.5341 2.3383 35.6102V35.6153L2.32561 35.8311L2.31038 36.0799L2.29768 36.2957L2.28245 36.5445V36.5496L2.27483 36.5394Z" fill="#322920"/>
<path d="M2.52365 35.2726L3.689 36.1892C4.9559 37.0498 4.80864 36.9991 6.18471 37.6693L8.44177 38.6062C8.40623 38.4843 8.3453 38.3701 8.26405 38.271L5.97145 37.2986C4.50905 36.5827 3.78802 35.9835 3.78802 35.9835L2.75723 35.1888C2.67345 35.1939 2.5922 35.2218 2.52365 35.2701V35.2726Z" fill="#768B9F"/>
<path d="M2.33066 35.6103L3.68896 36.6766C4.95586 37.5373 4.8086 37.4865 6.18468 38.1568L8.45697 39.0987L8.46713 39.0377C8.47728 38.9743 8.48236 38.9108 8.47982 38.8499L5.97141 37.7861C4.50902 37.0701 3.78798 36.4709 3.78798 36.4709L2.39921 35.3995C2.36113 35.4579 2.33828 35.5265 2.33066 35.6026V35.6077V35.6103Z" fill="#768B9F"/>
<path d="M2.30279 36.0724L3.68902 37.1616C4.95592 38.0223 4.80866 37.9715 6.18473 38.6417L8.37578 39.5532L8.41895 39.3095L5.97147 38.2711C4.50908 37.5551 3.78804 36.9559 3.78804 36.9559L2.31549 35.821L2.30026 36.0699L2.30279 36.0724Z" fill="#768B9F"/>
<path d="M2.27483 36.5369L3.68899 37.6489C4.95589 38.5096 4.80863 38.4588 6.1847 39.1291L8.29705 40.0076L8.34021 39.7638L5.97144 38.761C4.50904 38.045 3.78801 37.4458 3.78801 37.4458L2.28753 36.2906L2.2723 36.5395L2.27483 36.5369Z" fill="#768B9F"/>
<path d="M2.27486 36.7603V36.999C2.27486 36.999 2.27486 37.0142 2.27486 37.0219L3.68647 38.1313C4.95337 38.992 4.80612 38.9412 6.18219 39.6115L8.18282 40.4417C8.23106 40.3808 8.2666 40.3046 8.2793 40.2208L5.96892 39.2408C4.50653 38.5249 3.78549 37.9257 3.78549 37.9257L2.26978 36.7578L2.27486 36.7603Z" fill="#768B9F"/>
<path d="M5.14636 36.5623L4.85439 39.1291L4.62843 39.0732L4.97626 36.4658L5.14636 36.5623Z" fill="#768B9F"/>
<path d="M7.01489 37.4434L6.81178 40.2412L6.58582 40.1828L6.84479 37.3444L7.01489 37.4434Z" fill="#768B9F"/>
<path d="M3.37158 35.3615L3.16847 38.1593L2.93997 38.1035L3.20147 35.265L3.37158 35.3615Z" fill="#768B9F"/>
<path d="M8.80227 40.2412L10.2444 40.9521L10.3535 40.8556C10.4525 40.7693 10.6023 40.7693 10.6988 40.8582L10.7191 40.8759C10.7724 40.9242 10.8029 40.9927 10.8029 41.0638L10.808 41.4142C10.808 41.5183 10.7572 41.6148 10.6683 41.6706L10.1174 41.8356L8.79973 41.2009C8.60424 41.1095 8.48491 40.9064 8.50015 40.6906L8.52046 40.4037C8.53061 40.2666 8.67787 40.1803 8.80227 40.2438V40.2412Z" fill="#768B9F"/>
<path d="M0.853085 35.5215L1.74677 36.1435C1.90164 36.2501 1.99304 36.4278 1.99304 36.6157V36.9965C1.99304 37.121 1.85594 37.1946 1.75185 37.1286L0.893708 36.5878L0.853085 35.5189V35.5215Z" fill="#768B9F"/>
<path d="M8.79978 40.787L10.1022 41.4649L10.1327 40.9521L8.86833 40.3021L8.79978 40.787Z" fill="#DCDBDD"/>
<path d="M10.2189 41.0054H10.3002L10.5033 40.8835C10.5033 40.8835 10.6379 40.8429 10.7064 41.0054C10.775 41.1679 10.7293 41.4497 10.7318 41.5106C10.7318 41.5716 10.1529 41.762 10.1529 41.762L10.1885 41.5817L10.2189 41.0054Z" fill="#FD3C1D"/>
<path d="M0.901259 35.5848L1.10437 35.7296V36.4582L0.954577 36.5522L0.901259 35.5848Z" fill="#FD3C1D"/>
<path d="M1.20091 36.4582L1.94226 36.9533V36.5369C1.94226 36.5369 1.87879 36.3135 1.73915 36.2043C1.59951 36.0952 1.20091 35.8007 1.20091 35.8007V36.4582Z" fill="#DCDBDD"/>
<path d="M4.62843 37.9638L5.0575 38.2228L5.18445 37.225L4.75538 36.9661L4.62843 37.9638Z" fill="#DCDB48"/>
<path d="M56 15.4846L55.4897 15.147L55.3145 15.5989L54.7128 15.9518L54.6772 17.5564L54.9768 17.894V16.0762L56 15.4846Z" fill="#6A635C"/>
<path d="M49.8203 15.0555L48.7464 15.675L47.9898 16.9851V18.2164L48.7464 18.6481L49.8203 18.0286L50.5795 16.7185V15.4872L49.8203 15.0555Z" fill="#E87F00"/>
<path d="M50.0108 15.0555L48.9368 15.675L48.1777 16.9851V18.2164L48.9368 18.6481L50.0108 18.0286L50.7699 16.7185V15.4872L50.0108 15.0555Z" fill="white"/>
<path d="M49.9727 15.1825L48.9749 15.7588L48.2716 16.9749V18.12L48.9749 18.5211L49.9727 17.9448L50.6785 16.7287V15.5836L49.9727 15.1825Z" fill="#A61F1B"/>
<path d="M50.0108 16.7286C50.0108 16.8073 50.0286 16.8581 50.0616 16.8784C50.0946 16.8987 50.1454 16.8886 50.2088 16.8479C50.2723 16.8098 50.3256 16.7616 50.3713 16.7058V16.5509C50.318 16.627 50.2672 16.6778 50.2215 16.7058C50.1962 16.721 50.1758 16.7261 50.1632 16.7184C50.1505 16.7083 50.1428 16.6905 50.1428 16.6626C50.1428 16.6347 50.1505 16.6042 50.1657 16.5712C50.1809 16.5382 50.2063 16.4976 50.2419 16.4468C50.2723 16.4036 50.2952 16.3655 50.3129 16.3325C50.3282 16.2995 50.3409 16.2665 50.351 16.231C50.3586 16.198 50.3637 16.1624 50.3637 16.1243C50.3637 16.0507 50.3459 16.005 50.3104 15.9847C50.2774 15.9644 50.2292 15.972 50.1708 16.0076C50.1149 16.0431 50.0616 16.0939 50.0108 16.1624L50.0565 16.2589C50.0718 16.2386 50.0895 16.2183 50.1073 16.2005C50.1251 16.1827 50.1428 16.165 50.1632 16.1523C50.186 16.1396 50.2012 16.137 50.2139 16.1472C50.2266 16.1574 50.2317 16.1751 50.2317 16.2056C50.2317 16.2361 50.2241 16.2614 50.2114 16.2919C50.1987 16.3224 50.1733 16.3605 50.1378 16.4087C50.0895 16.4747 50.0565 16.5331 50.0387 16.5839C50.021 16.6347 50.0108 16.6829 50.0108 16.7311V16.7286Z" fill="white"/>
<path d="M49.6986 17.1552L49.8331 17.0715V16.3682L49.9702 16.2819V16.1448L49.5589 16.4012V16.5383L49.6986 16.452V17.1552Z" fill="white"/>
<path d="M48.9953 17.1678C48.9953 17.3075 49.0181 17.3989 49.0638 17.4471C49.1095 17.4953 49.173 17.4928 49.2568 17.4395C49.3406 17.3862 49.404 17.31 49.4497 17.2085C49.4954 17.1069 49.5157 16.985 49.5157 16.8429C49.5157 16.7032 49.4929 16.6093 49.4472 16.5636C49.4015 16.5179 49.338 16.5204 49.2517 16.5737C49.1679 16.6245 49.1044 16.7032 49.0587 16.8048C49.013 16.9063 48.9927 17.0282 48.9927 17.1678H48.9953ZM49.3786 16.9292C49.3786 17.0257 49.3685 17.1044 49.3482 17.1678C49.3279 17.2313 49.2974 17.2745 49.2568 17.2999C49.1755 17.3506 49.1349 17.277 49.1349 17.0815C49.1349 16.886 49.1755 16.7616 49.2542 16.7108C49.2949 16.6854 49.3253 16.6905 49.3482 16.7286C49.3685 16.7667 49.3786 16.8327 49.3786 16.9292Z" fill="white"/>
<path d="M48.4926 17.3177C48.4926 17.4066 48.5129 17.465 48.551 17.4878C48.5891 17.5107 48.6475 17.5005 48.7185 17.4548L48.7515 17.4345V17.7392L48.8861 17.6554V16.8125L48.7008 16.9267C48.5586 17.0131 48.49 17.1451 48.49 17.3177H48.4926ZM48.7541 17.2974L48.7287 17.3127C48.6957 17.333 48.6703 17.338 48.6551 17.3279C48.6398 17.3177 48.6297 17.2873 48.6297 17.239C48.6297 17.1908 48.6373 17.1578 48.6525 17.1273C48.6678 17.0969 48.6906 17.0715 48.7211 17.0512L48.7541 17.0308V17.2974Z" fill="white"/>
<path d="M16.8302 31.1393L17.14 31.1697C17.3938 31.2205 17.5995 31.5379 17.5995 31.8755V33.8432C17.5995 34.1834 17.3938 34.417 17.14 34.3636L16.7134 34.29C16.4595 34.2392 16.3681 33.965 16.3681 33.6248V31.6572C16.3681 31.317 16.5738 31.0834 16.8277 31.1367L16.8302 31.1393Z" fill="#484038"/>
<path d="M17.0105 34.7344L15.4567 33.828L15.5557 33.6604L16.8175 34.3992V30.9235L15.67 30.3446L15.7563 30.172L17.0105 30.8042V34.7344Z" fill="#3E362E"/>
<path d="M13.5449 35.2954C13.5449 35.6331 13.3063 35.7677 13.0143 35.5976C12.7198 35.4275 12.4837 35.0162 12.4837 34.681C12.4837 34.3434 12.7223 34.2088 13.0143 34.3789C13.3088 34.549 13.5449 34.9603 13.5449 35.2954Z" fill="#484038"/>
<path d="M13.3748 35.298C13.3748 35.5874 13.1691 35.7042 12.9178 35.5595C12.6639 35.4148 12.4608 35.0593 12.4608 34.7699C12.4608 34.4805 12.6664 34.3637 12.9178 34.5084C13.1716 34.6531 13.3748 35.0085 13.3748 35.298Z" fill="#6A635C"/>
<path d="M13.9841 36.6005L13.0117 35.1457L12.1206 36.1054L12.1053 35.9302L13.0397 34.8766L14.1212 36.5142L13.9841 36.6005Z" fill="#3E362E"/>
<path d="M12.9676 34.9759L13.1278 35.0029L12.7787 37.0759L12.6184 37.0489L12.9676 34.9759Z" fill="#3E362E"/>
<path d="M52.6716 4.61572L16.1625 25.4904L16.1346 25.5335L16.3453 25.6605L52.7173 4.70204L52.6716 4.61572Z" fill="#FDB01C"/>
<path d="M52.5065 4.51917L16.1625 25.4903L16.2996 25.5741L52.6715 4.61564L52.5065 4.51917Z" fill="#FFF947"/>
<path d="M51.4453 3.90991L14.9362 24.7846L14.9083 24.8277L15.119 24.9547L51.491 3.99623L51.4453 3.90991Z" fill="#FDB01C"/>
<path d="M51.2803 3.81335L14.9363 24.7845L15.0734 24.8683L51.4453 3.90983L51.2803 3.81335Z" fill="#FFF947"/>
<path d="M50.2189 3.20654L13.7099 24.0812L13.682 24.1218L13.8927 24.2513L50.2646 3.29286L50.2189 3.20654Z" fill="#FDB01C"/>
<path d="M50.054 3.11011L13.7099 24.0812L13.847 24.165L50.219 3.20658L50.054 3.11011Z" fill="#FFF947"/>
<path d="M48.9928 2.50073L12.4837 23.3754L12.4558 23.4185L12.6665 23.5455L49.0385 2.58705L48.9928 2.50073Z" fill="#FDB01C"/>
<path d="M48.8276 2.4043L12.4836 23.3754L12.6207 23.4592L48.9927 2.50077L48.8276 2.4043Z" fill="#FFF947"/>
<path d="M47.7664 1.79749L11.2574 22.6721L11.2295 22.7127L11.4402 22.8422L47.8121 1.88381L47.7664 1.79749Z" fill="#FDB01C"/>
<path d="M47.6015 1.70105L11.2574 22.6722L11.3945 22.756L47.7665 1.79753L47.6015 1.70105Z" fill="#FFF947"/>
<path d="M46.5401 1.09167L10.0311 21.9663L10.0006 22.0095L10.2113 22.1364L46.5858 1.178L46.5401 1.09167Z" fill="#FDB01C"/>
<path d="M46.3726 0.995239L10.0311 21.9664L10.1682 22.0501L46.5402 1.09172L46.3726 0.995239Z" fill="#FFF947"/>
</g>
<defs>
<clipPath id="clip0_160_12770">
<rect width="56" height="46.497" fill="white" transform="matrix(-1 0 0 1 56 0)"/>
</clipPath>
</defs>
</svg>
