<svg width="55" height="48" viewBox="0 0 55 48" fill="none" xmlns="http://www.w3.org/2000/svg">
<g clip-path="url(#clip0_160_14340)">
<g style="mix-blend-mode:multiply">
<path d="M29.915 44.0801L53.8163 30.6434C55.5705 29.6312 55.3474 27.8642 53.3274 26.6934L43.7506 21.1652C41.7263 19.9986 38.6641 19.87 36.9143 20.8821L13.0129 34.3188C11.2588 35.331 11.4818 37.098 13.5018 38.2688L23.0787 43.797C25.103 44.9636 28.1652 45.0923 29.915 44.0801Z" fill="#EAEAEA"/>
</g>
<path d="M52.5854 26.2559L47.4003 23.301C47.4003 23.301 49.9007 20.6376 51.2945 21.7013C52.6884 22.7649 52.7098 25.5654 52.5854 26.2559Z" fill="#A5510C"/>
<path d="M51.4618 22.9106C51.3932 22.872 51.3202 22.8377 51.2473 22.8077C51.2302 22.7991 51.2087 22.7948 51.1916 22.7862C51.1315 22.7648 51.0715 22.7476 51.0115 22.7348C50.9943 22.7348 50.9729 22.7262 50.9557 22.7219C50.8742 22.709 50.7927 22.6962 50.7112 22.6919H50.6641C50.5954 22.6919 50.5268 22.6919 50.4539 22.6919C50.4196 22.6919 50.3896 22.6962 50.3553 22.7004C50.2995 22.7047 50.2395 22.7176 50.1794 22.7262C50.1365 22.7348 50.0894 22.7433 50.0465 22.7562C49.9993 22.7691 49.9478 22.7819 49.9007 22.7948C49.8235 22.8162 49.7463 22.8463 49.6691 22.8763C49.6262 22.8934 49.5833 22.9106 49.5404 22.9277C49.4032 22.9878 49.2659 23.0521 49.1244 23.1336C49.0172 23.1937 48.9142 23.2623 48.8113 23.3309C48.777 23.3523 48.747 23.3781 48.7127 23.4038C48.644 23.4553 48.5754 23.5024 48.5068 23.5582C48.4682 23.5882 48.4339 23.6225 48.3953 23.6526C48.331 23.704 48.2709 23.7598 48.2109 23.8155C48.1723 23.8498 48.138 23.8841 48.0994 23.9185C48.0522 23.9613 48.005 24.0128 47.9621 24.0557C47.8892 24.1329 47.8163 24.2101 47.7434 24.2873C47.7005 24.3345 47.6576 24.3816 47.619 24.4288C47.5761 24.4803 47.5333 24.5318 47.4904 24.5875C47.4389 24.6518 47.3917 24.7119 47.3445 24.7762C47.3102 24.8148 47.2802 24.8577 47.2502 24.9006C47.1944 24.9778 47.143 25.055 47.0872 25.1365C47.0658 25.1708 47.0443 25.2008 47.0229 25.2308C46.95 25.3423 46.8814 25.4538 46.817 25.5696C46.8042 25.5868 46.7956 25.6039 46.7827 25.6254C46.727 25.724 46.6755 25.8184 46.6197 25.9213C46.6026 25.9556 46.5854 25.9856 46.5726 26.02C46.5211 26.1229 46.4696 26.2301 46.4225 26.3373C46.4182 26.3502 46.4096 26.3673 46.4053 26.3802C46.3538 26.5003 46.3067 26.6204 46.2595 26.7405C46.2466 26.7748 46.2338 26.8134 46.2209 26.8477C46.1909 26.9378 46.1608 27.0235 46.1308 27.1093C46.118 27.1522 46.1008 27.1994 46.0922 27.2423C46.0665 27.3195 46.0493 27.4009 46.0279 27.4781C46.015 27.5339 45.9979 27.5896 45.985 27.6454C45.9721 27.7054 45.9593 27.7655 45.9507 27.8255C45.9335 27.9156 45.9164 28.0014 45.9035 28.0871C45.8992 28.1343 45.8949 28.1815 45.8864 28.2244C45.8649 28.4174 45.8478 28.6147 45.8478 28.8034C45.8478 29.8413 46.2166 30.5704 46.8085 30.9135L44.7884 29.7426C44.2009 29.3995 43.832 28.6704 43.832 27.6325C43.832 27.4438 43.8449 27.2508 43.8664 27.0536C43.8664 27.0278 43.8663 27.0107 43.8706 26.9849C43.8706 26.9635 43.8792 26.9378 43.8835 26.9163C43.8964 26.8262 43.9135 26.7405 43.9264 26.6547C43.935 26.6161 43.9393 26.5732 43.9478 26.5346C43.9478 26.5132 43.9564 26.496 43.965 26.4746C43.9779 26.4188 43.9907 26.3631 44.0036 26.3073C44.0165 26.2558 44.025 26.2087 44.0379 26.1572C44.0465 26.1272 44.0551 26.1014 44.0636 26.0757C44.0765 26.0285 44.0937 25.9856 44.1065 25.9385C44.1194 25.8999 44.128 25.8613 44.1408 25.8227C44.158 25.7712 44.1751 25.724 44.1923 25.6769C44.2052 25.6425 44.218 25.6039 44.2309 25.5696C44.2352 25.5525 44.2438 25.5353 44.2523 25.5139C44.2867 25.4152 44.3295 25.3166 44.3724 25.218C44.3724 25.218 44.3724 25.2094 44.3767 25.2051C44.381 25.1922 44.3896 25.1794 44.3939 25.1665C44.4282 25.0893 44.4625 25.0121 44.5011 24.9349C44.514 24.9049 44.5311 24.8791 44.544 24.8491C44.5611 24.8148 44.5783 24.7848 44.5954 24.7505C44.6126 24.7162 44.6255 24.6861 44.6426 24.6518C44.6769 24.5875 44.7155 24.5189 44.7541 24.4546C44.767 24.4331 44.7756 24.416 44.7884 24.3945C44.7884 24.3902 44.797 24.3816 44.797 24.3774C44.8528 24.283 44.9085 24.1886 44.9686 24.0986C44.9771 24.0857 44.9857 24.0729 44.9943 24.06C45.0157 24.0257 45.0372 23.9957 45.0586 23.9656C45.0929 23.9142 45.123 23.867 45.1573 23.8155C45.1787 23.7855 45.2002 23.7555 45.2216 23.7298C45.2516 23.6869 45.2816 23.6483 45.3117 23.6054C45.3331 23.5754 45.3546 23.5453 45.376 23.5153C45.406 23.481 45.4318 23.4467 45.4618 23.4124C45.5047 23.3609 45.5476 23.3094 45.5904 23.258C45.6076 23.2365 45.6247 23.2151 45.6462 23.1937C45.6676 23.1679 45.6934 23.1422 45.7148 23.1207C45.7877 23.0393 45.8606 22.9621 45.9335 22.8891C45.9593 22.8634 45.9807 22.8377 46.0022 22.812C46.0236 22.7905 46.0493 22.7691 46.0708 22.7476C46.1051 22.7133 46.1437 22.679 46.1823 22.6447C46.2423 22.5889 46.3067 22.5332 46.371 22.4817C46.4053 22.4474 46.4439 22.4174 46.4825 22.3874C46.5511 22.3316 46.6197 22.2801 46.6884 22.2287C46.7227 22.2029 46.7527 22.1815 46.787 22.1601C46.8899 22.0871 46.9972 22.0228 47.1001 21.9585C47.2416 21.877 47.3789 21.8127 47.5161 21.7526C47.5333 21.7483 47.5504 21.7355 47.5633 21.7312C47.5933 21.7183 47.619 21.714 47.6448 21.7012C47.722 21.6711 47.7992 21.6454 47.8764 21.624C47.9021 21.6154 47.9278 21.6025 47.9493 21.5982C47.975 21.5939 47.9964 21.5896 48.0222 21.5811C48.0651 21.5725 48.1122 21.5596 48.1551 21.5511C48.1809 21.5511 48.2109 21.5382 48.2366 21.5339C48.2666 21.5339 48.2967 21.5339 48.3267 21.5253C48.3567 21.5253 48.3781 21.521 48.4039 21.5167C48.4082 21.5167 48.4167 21.5167 48.4253 21.5167C48.4425 21.5167 48.4639 21.5167 48.4811 21.5125C48.5368 21.5125 48.5883 21.5125 48.6398 21.5125H48.7041C48.7641 21.5125 48.8199 21.521 48.8756 21.5339C48.8842 21.5339 48.8928 21.5339 48.9014 21.5339C48.9142 21.5339 48.9228 21.5339 48.9357 21.5382C48.9571 21.5382 48.9743 21.5468 48.9957 21.5511C49.0257 21.5553 49.0601 21.5639 49.0901 21.5725C49.1201 21.5811 49.1458 21.5939 49.1759 21.6025C49.1973 21.6068 49.2145 21.6154 49.2316 21.6197C49.2402 21.624 49.2531 21.6282 49.2659 21.6325C49.3217 21.6583 49.3774 21.684 49.4289 21.714C49.4332 21.714 49.4418 21.7226 49.446 21.7226L51.4661 22.8977L51.4618 22.9106Z" fill="url(#paint0_linear_160_14340)"/>
<path d="M46.8059 30.9216C45.5239 30.1766 45.5265 27.7796 46.8117 25.5678C48.097 23.356 50.1781 22.1669 51.4602 22.9119C52.7422 23.6568 52.7396 26.0538 51.4544 28.2656C50.1691 30.4774 48.0879 31.6665 46.8059 30.9216Z" fill="url(#paint1_linear_160_14340)"/>
<path d="M51.6206 25.4753C51.6291 27.0579 50.5141 28.9835 49.1416 29.7727C48.374 30.2101 47.692 30.2101 47.2374 29.8499C47.6363 29.9356 48.1166 29.8413 48.6399 29.5454C50.0123 28.7434 51.1273 26.822 51.1188 25.248C51.1188 24.5489 50.9 24.0386 50.5398 23.7512C51.1917 23.8928 51.6206 24.506 51.6206 25.4753Z" fill="url(#paint2_linear_160_14340)"/>
<path d="M51.1186 25.2481C51.1272 26.8264 50.0121 28.7477 48.6397 29.5454C48.1122 29.8414 47.6361 29.9357 47.2373 29.85C46.8684 29.5583 46.6497 29.048 46.6497 28.3532C46.6411 26.7706 47.7562 24.8449 49.1286 24.0558C49.6561 23.7599 50.1408 23.657 50.531 23.7513H50.5396C50.8999 24.0429 51.1186 24.5533 51.1186 25.2481Z" fill="url(#paint3_linear_160_14340)"/>
<path d="M50.0508 25.9771C50.0508 25.9771 50.0165 25.9599 49.995 25.9514C49.9907 25.9514 49.9864 25.9514 49.9822 25.9471C49.9693 25.9428 49.9521 25.9385 49.935 25.9342C49.9307 25.9342 49.9264 25.9342 49.9221 25.9342C49.9007 25.9342 49.8835 25.9299 49.8621 25.9256H49.8492C49.8492 25.9256 49.8149 25.9256 49.7977 25.9256C49.7892 25.9256 49.7806 25.9256 49.772 25.9256C49.7591 25.9256 49.742 25.9256 49.7291 25.9342C49.7163 25.9342 49.7077 25.9385 49.6948 25.9428C49.6819 25.9428 49.6691 25.9514 49.6562 25.9514C49.6391 25.9557 49.6176 25.9642 49.5962 25.9728C49.5833 25.9728 49.5747 25.9814 49.5619 25.9857C49.5276 25.9985 49.4932 26.0157 49.4589 26.0371C49.4332 26.0543 49.4075 26.0715 49.3817 26.0886C49.3732 26.0929 49.3646 26.1015 49.356 26.1058C49.3388 26.1186 49.3217 26.1315 49.3045 26.1444C49.296 26.1529 49.2874 26.1615 49.2745 26.1658C49.2574 26.1787 49.2445 26.1915 49.2273 26.2087C49.2188 26.2173 49.2102 26.2259 49.1973 26.2344C49.1844 26.2473 49.1759 26.2559 49.163 26.2687C49.1458 26.2859 49.1244 26.3073 49.1073 26.3288C49.0987 26.3416 49.0858 26.3502 49.0772 26.3631C49.0644 26.376 49.0558 26.3888 49.0429 26.4017C49.0301 26.4188 49.0172 26.4317 49.0043 26.4489C48.9957 26.4574 48.9872 26.4703 48.9829 26.4789C48.97 26.496 48.9571 26.5175 48.9443 26.5389C48.94 26.5475 48.9314 26.5561 48.9271 26.5647C48.91 26.5947 48.8928 26.6204 48.8757 26.6504C48.8757 26.6547 48.8714 26.659 48.8671 26.6633C48.8542 26.689 48.8413 26.7105 48.8285 26.7362C48.8285 26.7448 48.8199 26.7534 48.8156 26.7619C48.8027 26.7877 48.7899 26.8134 48.777 26.8434C48.777 26.8434 48.777 26.852 48.7727 26.852C48.7599 26.882 48.747 26.9121 48.7341 26.9421C48.7341 26.9507 48.7255 26.9592 48.7255 26.9678C48.717 26.9893 48.7084 27.0107 48.7041 27.0364C48.7041 27.0493 48.6955 27.0579 48.6955 27.0707C48.6912 27.0922 48.6827 27.1093 48.6784 27.1308C48.6784 27.1436 48.6698 27.1608 48.6698 27.1737C48.6698 27.1908 48.6655 27.2037 48.6612 27.2208C48.6569 27.2423 48.6526 27.2637 48.6484 27.2895C48.6484 27.3023 48.6484 27.3109 48.6484 27.3238C48.6441 27.371 48.6398 27.4224 48.6398 27.4696C48.6398 27.7312 48.7341 27.9156 48.8799 28.0014L48.3696 27.7055C48.2195 27.6197 48.1294 27.4353 48.1294 27.1737C48.1294 27.1265 48.1294 27.0793 48.138 27.0279C48.138 27.0236 48.138 27.015 48.138 27.0107C48.138 27.0064 48.138 26.9978 48.138 26.9935C48.138 26.9721 48.1466 26.9507 48.1509 26.9249C48.1509 26.9163 48.1509 26.9035 48.1551 26.8949C48.1551 26.8906 48.1551 26.8863 48.1551 26.882C48.1551 26.8692 48.1637 26.852 48.1637 26.8391C48.1637 26.8263 48.168 26.8134 48.1723 26.8005C48.1723 26.792 48.1766 26.7877 48.1809 26.7791C48.1809 26.7662 48.1895 26.7577 48.1895 26.7448C48.1895 26.7362 48.1937 26.7276 48.198 26.7148C48.198 26.7019 48.2066 26.689 48.2109 26.6762C48.2109 26.6676 48.2195 26.659 48.2195 26.6504C48.2195 26.6462 48.2195 26.6419 48.2238 26.6376C48.2323 26.6118 48.2409 26.5861 48.2538 26.5647C48.2538 26.5647 48.2538 26.5561 48.2581 26.5561C48.2666 26.5346 48.2752 26.5175 48.2838 26.496C48.2838 26.4875 48.2924 26.4832 48.2967 26.4746C48.2967 26.466 48.3052 26.4574 48.3095 26.4489C48.3095 26.4403 48.3181 26.4317 48.3224 26.4231C48.331 26.406 48.3396 26.3888 48.3524 26.3717C48.3524 26.3674 48.3567 26.3631 48.361 26.3588C48.361 26.3588 48.361 26.3588 48.361 26.3545C48.3739 26.3288 48.391 26.3073 48.4039 26.2859C48.4039 26.2859 48.4082 26.2773 48.4125 26.2773C48.4168 26.2687 48.421 26.2602 48.4296 26.2516C48.4382 26.2387 48.4468 26.2259 48.4554 26.213C48.4596 26.2044 48.4639 26.2001 48.4725 26.1915C48.4811 26.183 48.4897 26.1701 48.494 26.1615C48.4982 26.1529 48.5025 26.1444 48.5111 26.1401C48.5197 26.1315 48.524 26.1229 48.5326 26.1143C48.5411 26.1015 48.554 26.0886 48.5626 26.0757C48.5669 26.0715 48.5712 26.0629 48.5754 26.0586C48.5797 26.05 48.5883 26.0457 48.5926 26.0414C48.6098 26.02 48.6312 26.0028 48.6484 25.9814C48.6526 25.9771 48.6612 25.9685 48.6655 25.9642C48.6698 25.9599 48.6784 25.9557 48.6827 25.9471C48.6912 25.9385 48.6998 25.9299 48.7127 25.9213C48.7298 25.9085 48.7427 25.8913 48.7599 25.8785C48.7684 25.8699 48.777 25.8613 48.7899 25.857C48.807 25.8442 48.8242 25.8313 48.8413 25.8184C48.8499 25.8141 48.8585 25.8056 48.8671 25.8013C48.8928 25.7841 48.9185 25.767 48.9443 25.7498C48.9786 25.7284 49.0129 25.7112 49.0472 25.6983C49.0472 25.6983 49.0558 25.6983 49.0601 25.694C49.0687 25.694 49.0729 25.6898 49.0815 25.6855C49.103 25.6769 49.1201 25.6726 49.1416 25.664C49.1458 25.664 49.1544 25.6597 49.1587 25.6554C49.163 25.6554 49.1716 25.6554 49.1759 25.6554C49.1887 25.6554 49.1973 25.6512 49.2102 25.6469C49.2188 25.6469 49.223 25.6469 49.2316 25.6426C49.2402 25.6426 49.2488 25.6426 49.2531 25.6426C49.2616 25.6426 49.2659 25.6426 49.2745 25.6426C49.2745 25.6426 49.2745 25.6426 49.2788 25.6426C49.2831 25.6426 49.2874 25.6426 49.2917 25.6426C49.3045 25.6426 49.3174 25.6426 49.3303 25.6426H49.3474C49.3474 25.6426 49.3774 25.6426 49.3903 25.6469C49.3903 25.6469 49.3903 25.6469 49.3946 25.6469C49.3946 25.6469 49.3989 25.6469 49.4032 25.6469C49.4075 25.6469 49.4118 25.6469 49.416 25.6469C49.4246 25.6469 49.4332 25.6469 49.4418 25.6512C49.4504 25.6512 49.4546 25.6554 49.4632 25.6597C49.4675 25.6597 49.4718 25.6597 49.4761 25.664C49.4761 25.664 49.4804 25.664 49.4847 25.664C49.4975 25.6683 49.5147 25.6769 49.5276 25.6855C49.5276 25.6855 49.5276 25.6855 49.5318 25.6855L50.0422 25.9814L50.0508 25.9771Z" fill="url(#paint4_linear_160_14340)"/>
<path d="M49.459 26.0372C49.9179 25.7713 50.291 25.9857 50.291 26.5133C50.291 27.0408 49.9222 27.6798 49.4633 27.9457C49.0044 28.2116 48.6313 27.9972 48.6313 27.4697C48.6313 26.9421 49.0001 26.3031 49.459 26.0372Z" fill="url(#paint5_linear_160_14340)"/>
<path d="M24.1294 26.1573L18.391 22.9922L24.1294 19.4625V26.1573Z" fill="url(#paint6_linear_160_14340)"/>
<path d="M22.521 21.6755C22.4224 21.6197 22.3194 21.5683 22.2122 21.5297C22.1865 21.5168 22.1565 21.5082 22.1307 21.4997C22.0492 21.4696 21.9592 21.4439 21.8734 21.4267C21.8477 21.4225 21.8176 21.4139 21.7919 21.4053C21.6761 21.3839 21.5603 21.371 21.4445 21.3624H21.3759C21.2773 21.3624 21.1786 21.3624 21.0757 21.3667C21.0285 21.3667 20.9813 21.3753 20.9341 21.3796C20.8527 21.3881 20.7712 21.401 20.6854 21.4182C20.6211 21.431 20.5567 21.4439 20.4967 21.4611C20.4281 21.4782 20.3552 21.4997 20.2865 21.5168C20.1793 21.5468 20.0678 21.5897 19.9563 21.6326C19.892 21.654 19.8319 21.6798 19.7719 21.7055C19.5746 21.787 19.3816 21.8814 19.18 21.9971C19.0256 22.0829 18.8798 22.1816 18.7297 22.2802C18.6825 22.3102 18.6354 22.3488 18.5882 22.3831C18.4895 22.456 18.3909 22.529 18.2923 22.6062C18.2365 22.649 18.185 22.6962 18.1293 22.7391C18.0392 22.812 17.9492 22.8935 17.8634 22.9707C17.8076 23.0179 17.7562 23.0693 17.7004 23.1208C17.6361 23.1851 17.5675 23.2538 17.5031 23.3181C17.3959 23.4253 17.293 23.5368 17.19 23.6526C17.13 23.7169 17.07 23.7856 17.0099 23.8542C16.9456 23.9271 16.8855 24.0043 16.8255 24.0772C16.7526 24.1673 16.684 24.2573 16.6154 24.3474C16.5682 24.4032 16.5253 24.4632 16.4824 24.5232C16.4052 24.6305 16.328 24.7463 16.2508 24.8578C16.2208 24.9049 16.1865 24.9478 16.1607 24.995C16.0578 25.1537 15.9592 25.3124 15.8648 25.4796C15.8477 25.5054 15.8348 25.5311 15.8176 25.5611C15.7404 25.6984 15.6632 25.8399 15.586 25.9857C15.5646 26.0329 15.5389 26.0758 15.5174 26.1272C15.4445 26.2773 15.3716 26.4275 15.303 26.5819C15.2944 26.6033 15.2858 26.6205 15.2773 26.6419C15.2043 26.8134 15.1314 26.985 15.0714 27.1565C15.0499 27.208 15.0328 27.2595 15.0156 27.3109C14.9727 27.4396 14.9299 27.5597 14.887 27.6884C14.8655 27.7527 14.8484 27.817 14.8312 27.8814C14.7969 27.9929 14.7669 28.1044 14.7412 28.2159C14.7197 28.2974 14.6983 28.3746 14.6811 28.456C14.664 28.5418 14.6468 28.6276 14.6339 28.7134C14.6082 28.842 14.5868 28.9664 14.5696 29.0908C14.561 29.1551 14.5567 29.2237 14.5482 29.2881C14.5181 29.5668 14.4924 29.8413 14.4924 30.1115C14.4967 31.5911 15.0199 32.6376 15.8648 33.1265L12.9785 31.4496C12.1336 30.9564 11.6103 29.9185 11.6103 28.4346C11.6103 28.1644 11.6318 27.8899 11.6618 27.6112C11.6661 27.5768 11.6618 27.5468 11.6704 27.5125C11.6704 27.4825 11.6833 27.4439 11.6875 27.4139C11.7047 27.2852 11.7261 27.1651 11.7519 27.0365C11.7647 26.9807 11.769 26.9207 11.7819 26.8649C11.7862 26.8349 11.7948 26.8092 11.8033 26.7834C11.8205 26.7019 11.8419 26.6205 11.8591 26.5433C11.8763 26.4703 11.8891 26.3974 11.9106 26.3288C11.9234 26.2902 11.9363 26.2516 11.9492 26.213C11.9706 26.1487 11.9878 26.0844 12.0092 26.0157C12.0264 25.96 12.0392 25.9085 12.0564 25.8528C12.0778 25.7799 12.1078 25.7112 12.1293 25.6426C12.1507 25.5911 12.1679 25.5397 12.185 25.4882C12.1936 25.4625 12.2022 25.4367 12.2151 25.411C12.2665 25.2652 12.3223 25.128 12.3866 24.9864C12.3866 24.9821 12.3909 24.9736 12.3952 24.9693C12.4038 24.9521 12.4123 24.9307 12.4209 24.9135C12.4724 24.802 12.5196 24.6905 12.5753 24.579C12.5968 24.5404 12.6182 24.4975 12.6397 24.4546C12.6611 24.4074 12.6868 24.3646 12.7126 24.3174C12.734 24.2702 12.7554 24.2273 12.7812 24.1801C12.8326 24.0858 12.8841 23.9914 12.9399 23.8971C12.957 23.8671 12.9699 23.8413 12.987 23.8156C12.9913 23.807 12.9999 23.7984 12.9999 23.7899C13.0814 23.6526 13.1629 23.524 13.2444 23.391C13.2572 23.3696 13.2701 23.3524 13.283 23.3352C13.313 23.2881 13.343 23.2452 13.373 23.198C13.4202 23.1251 13.4674 23.0522 13.5189 22.9836C13.5489 22.9407 13.5789 22.9021 13.6089 22.8592C13.6518 22.7991 13.6947 22.7434 13.7376 22.6834C13.7676 22.6405 13.7976 22.5976 13.8276 22.5547C13.8662 22.5075 13.9091 22.456 13.9477 22.4089C14.0078 22.336 14.0678 22.2588 14.1279 22.1859C14.1536 22.1558 14.1793 22.1215 14.2093 22.0915C14.2394 22.0529 14.2737 22.0186 14.308 21.9843C14.4109 21.8685 14.5138 21.757 14.6211 21.6498C14.6554 21.6154 14.6854 21.5768 14.7197 21.5425C14.7497 21.5125 14.784 21.4825 14.8184 21.4525C14.8698 21.4053 14.9213 21.3538 14.977 21.3067C15.0628 21.2252 15.1529 21.148 15.2429 21.0751C15.2944 21.0279 15.3459 20.985 15.4016 20.9421C15.5003 20.8649 15.5989 20.7877 15.6976 20.7191C15.7447 20.6848 15.7919 20.6505 15.8391 20.6205C15.9892 20.5175 16.1393 20.4232 16.2894 20.3331C16.491 20.2173 16.6883 20.123 16.8813 20.0415C16.9027 20.0329 16.9284 20.02 16.9456 20.0114C16.9842 19.9943 17.0228 19.9857 17.0614 19.9686C17.1729 19.9257 17.2844 19.8871 17.3916 19.857C17.4259 19.8442 17.4645 19.827 17.4988 19.8184C17.5331 19.8099 17.5675 19.8056 17.6018 19.797C17.6661 19.7841 17.7304 19.767 17.7948 19.7584C17.8334 19.7541 17.872 19.737 17.9106 19.7327C17.9534 19.7284 17.9963 19.7284 18.0392 19.7198C18.0778 19.7155 18.1121 19.7112 18.1507 19.7069C18.1593 19.7069 18.1722 19.7069 18.1808 19.7069C18.2065 19.7069 18.2365 19.7027 18.258 19.6984C18.3352 19.6984 18.4123 19.6984 18.481 19.6984H18.571C18.6525 19.7027 18.7383 19.7112 18.8198 19.7284C18.8326 19.7284 18.8412 19.7284 18.8541 19.7327C18.8712 19.7327 18.8841 19.737 18.9013 19.7413C18.9313 19.7455 18.957 19.7541 18.9828 19.7627C19.0256 19.7713 19.0728 19.7799 19.12 19.7927C19.1629 19.8056 19.2015 19.8227 19.2401 19.8356C19.2701 19.8442 19.2958 19.8528 19.3216 19.8613C19.3344 19.8699 19.3516 19.8742 19.3687 19.8785C19.4502 19.9128 19.5317 19.9514 19.6046 19.9943C19.6132 19.9986 19.6218 20.0072 19.6304 20.0072L22.5167 21.6884L22.521 21.6755Z" fill="url(#paint7_linear_160_14340)"/>
<path d="M15.8631 33.1356C14.0301 32.0705 14.0347 28.6421 15.8733 25.478C17.7119 22.3139 20.6883 20.6122 22.5213 21.6773C24.3542 22.7424 24.3496 26.1709 22.511 29.335C20.6724 32.4991 17.696 34.2007 15.8631 33.1356Z" fill="url(#paint8_linear_160_14340)"/>
<path d="M22.7485 25.3424C22.7613 27.6069 21.1659 30.356 19.2059 31.4882C18.108 32.1144 17.1302 32.1144 16.4783 31.5997C17.0487 31.7241 17.7349 31.5869 18.4854 31.1623C20.4497 30.0172 22.0408 27.2681 22.0322 25.0165C22.0322 24.0172 21.7192 23.2881 21.2002 22.8721C22.1309 23.0736 22.7485 23.9486 22.7485 25.3381V25.3424Z" fill="url(#paint9_linear_160_14340)"/>
<path d="M22.0321 25.0164C22.045 27.2723 20.4496 30.0214 18.4853 31.1622C17.7348 31.5868 17.0486 31.7241 16.4782 31.5997C15.9507 31.1837 15.6376 30.4546 15.6376 29.4553C15.6247 27.1908 17.2201 24.4417 19.1801 23.3095C19.9307 22.8849 20.6254 22.7391 21.1873 22.872H21.2001C21.7148 23.288 22.0321 24.0171 22.0321 25.0164Z" fill="url(#paint10_linear_160_14340)"/>
<path d="M20.5055 26.063C20.4797 26.0501 20.454 26.0372 20.4283 26.0244C20.4197 26.0244 20.4154 26.0201 20.4068 26.0158C20.3854 26.0072 20.3639 26.0029 20.3425 25.9986C20.3339 25.9986 20.3296 25.9986 20.3211 25.9943C20.291 25.9901 20.261 25.9858 20.2353 25.9815H20.2181C20.1924 25.9815 20.1667 25.9815 20.1409 25.9815C20.1281 25.9815 20.1152 25.9815 20.1066 25.9815C20.0852 25.9815 20.0637 25.9858 20.0423 25.9901C20.0251 25.9901 20.0123 25.9986 19.9951 26.0029C19.978 26.0072 19.9608 26.0115 19.9436 26.0158C19.9179 26.0244 19.8879 26.0329 19.8622 26.0458C19.845 26.0501 19.8321 26.0587 19.815 26.063C19.7635 26.0844 19.7163 26.1058 19.6649 26.1359C19.6263 26.1573 19.5877 26.183 19.5534 26.2088C19.5405 26.2174 19.5276 26.2259 19.5191 26.2345C19.4933 26.2517 19.4676 26.2688 19.4461 26.2903C19.4333 26.3031 19.4204 26.3117 19.4075 26.3246C19.3861 26.3417 19.3647 26.3632 19.3389 26.3846C19.3261 26.3975 19.3132 26.4104 19.3003 26.4232C19.2832 26.4404 19.266 26.4575 19.2489 26.4747C19.2231 26.5004 19.1974 26.5304 19.1717 26.5605C19.1545 26.5776 19.1416 26.5948 19.1288 26.6119C19.1116 26.6291 19.0988 26.6505 19.0816 26.6677C19.0644 26.6891 19.0473 26.7106 19.0301 26.7363C19.0173 26.7492 19.0087 26.7663 18.9958 26.7792C18.9744 26.8049 18.9572 26.8349 18.9358 26.865C18.9272 26.8778 18.9186 26.8864 18.9143 26.8993C18.8886 26.9379 18.8629 26.9808 18.8414 27.0194C18.8371 27.0279 18.8329 27.0322 18.8286 27.0408C18.8071 27.0751 18.79 27.1094 18.7685 27.148C18.7642 27.1609 18.7557 27.1695 18.7514 27.1823C18.7342 27.2209 18.7128 27.2595 18.6956 27.2981C18.6956 27.3024 18.6913 27.3067 18.687 27.3153C18.6699 27.3582 18.6527 27.4011 18.6356 27.4439C18.6313 27.4568 18.627 27.4697 18.6227 27.4825C18.6098 27.5126 18.6013 27.5469 18.5927 27.5769C18.5884 27.5941 18.5841 27.6112 18.5798 27.6241C18.5712 27.6541 18.5627 27.6798 18.5584 27.7099C18.5541 27.7313 18.5455 27.7485 18.5412 27.7699C18.5369 27.7913 18.5326 27.8128 18.5283 27.8342C18.5198 27.8642 18.5155 27.8986 18.5112 27.9286C18.5112 27.9457 18.5112 27.9629 18.5069 27.98C18.4983 28.0487 18.494 28.1216 18.494 28.1902C18.494 28.5633 18.627 28.8292 18.8414 28.9493L18.1123 28.5247C17.8979 28.4003 17.7692 28.1387 17.7649 27.7656C17.7649 27.697 17.7692 27.6284 17.7778 27.5555C17.7778 27.5469 17.7778 27.5383 17.7778 27.5297C17.7778 27.5211 17.7778 27.5126 17.7821 27.504C17.7864 27.474 17.7907 27.4397 17.7993 27.4096C17.7993 27.3968 17.8035 27.3796 17.8078 27.3667C17.8078 27.3582 17.8078 27.3539 17.8121 27.3453C17.8164 27.3239 17.8207 27.3067 17.825 27.2853C17.8293 27.2681 17.8336 27.251 17.8379 27.2295C17.8379 27.2209 17.8464 27.2081 17.8464 27.1995C17.8507 27.1823 17.855 27.1652 17.8636 27.148C17.8679 27.1352 17.8722 27.1223 17.8765 27.1051C17.8807 27.088 17.8893 27.0708 17.8936 27.0537C17.8979 27.0408 17.9022 27.0279 17.9065 27.0151C17.9065 27.0065 17.9108 27.0022 17.9151 26.9936C17.9279 26.9593 17.9408 26.9207 17.9579 26.8864C17.9579 26.8864 17.9579 26.8864 17.9579 26.8821C17.9579 26.8778 17.9622 26.8735 17.9665 26.8693C17.9794 26.8392 17.9923 26.8135 18.0051 26.7835C18.0094 26.7749 18.018 26.762 18.0223 26.7535C18.0266 26.7406 18.0351 26.732 18.0394 26.7191C18.0437 26.7063 18.0523 26.6977 18.0566 26.6848C18.0695 26.6591 18.0823 26.6377 18.0952 26.6119C18.0995 26.6033 18.1038 26.5991 18.1081 26.5905C18.1081 26.5905 18.1081 26.5862 18.1081 26.5819C18.1295 26.5476 18.1466 26.5133 18.1681 26.4833C18.1681 26.479 18.1767 26.4747 18.1767 26.4704C18.1852 26.4575 18.1938 26.449 18.1981 26.4361C18.211 26.4189 18.2238 26.4018 18.2324 26.3803C18.241 26.3675 18.2496 26.3589 18.2539 26.3503C18.2667 26.3332 18.2753 26.3203 18.2882 26.3074C18.2968 26.2946 18.3053 26.286 18.3096 26.2774C18.3182 26.2645 18.3311 26.2517 18.3396 26.2388C18.3568 26.2216 18.3697 26.2002 18.3868 26.183C18.3954 26.1745 18.3997 26.1659 18.4083 26.1573C18.4168 26.1487 18.4254 26.1402 18.434 26.1316C18.4597 26.1016 18.4855 26.0758 18.5112 26.0458C18.5198 26.0372 18.5284 26.0286 18.5369 26.0201C18.5455 26.0115 18.5541 26.0029 18.5627 25.9986C18.5755 25.9858 18.5884 25.9729 18.6013 25.96C18.6227 25.9386 18.6441 25.9214 18.6699 25.9C18.6827 25.8871 18.6956 25.8785 18.7085 25.8657C18.7342 25.8442 18.7599 25.8271 18.7814 25.8099C18.7943 25.8013 18.8071 25.7928 18.8157 25.7842C18.8543 25.7585 18.8929 25.7327 18.9272 25.7113C18.9787 25.6813 19.0258 25.6598 19.0773 25.6384C19.0816 25.6384 19.0902 25.6341 19.0945 25.6298C19.103 25.6255 19.1159 25.6212 19.1245 25.6169C19.1545 25.6041 19.1802 25.5955 19.206 25.5869C19.2146 25.5869 19.2231 25.5783 19.2317 25.5783C19.2403 25.5783 19.2489 25.5783 19.2574 25.574C19.2746 25.574 19.2918 25.5655 19.3046 25.5655C19.3132 25.5655 19.3261 25.5612 19.3346 25.5569C19.3475 25.5569 19.3561 25.5569 19.3689 25.5569C19.3775 25.5569 19.3861 25.5569 19.399 25.5569C19.399 25.5569 19.4033 25.5569 19.4075 25.5569C19.4161 25.5569 19.4204 25.5569 19.429 25.5569C19.4504 25.5569 19.4676 25.5569 19.4847 25.5569H19.5062C19.5062 25.5569 19.5491 25.5569 19.5705 25.5655C19.5705 25.5655 19.5748 25.5655 19.5791 25.5655C19.5834 25.5655 19.5877 25.5655 19.592 25.5655C19.6005 25.5655 19.6048 25.5655 19.6134 25.5698C19.6263 25.5698 19.6349 25.574 19.6477 25.5783C19.6606 25.5783 19.6692 25.5869 19.6777 25.5912C19.6863 25.5912 19.6906 25.5955 19.6992 25.5998C19.6992 25.5998 19.7078 25.5998 19.7121 25.6041C19.7335 25.6126 19.7507 25.6212 19.7721 25.6341C19.7721 25.6341 19.7764 25.6341 19.7807 25.6341L20.5098 26.0587L20.5055 26.063Z" fill="url(#paint11_linear_160_14340)"/>
<path d="M19.6605 26.1486C20.3167 25.7712 20.8485 26.0757 20.8528 26.8263C20.8528 27.5811 20.3253 28.4946 19.6691 28.8763C19.0129 29.2537 18.4811 28.9492 18.4768 28.1987C18.4768 27.4438 19.0043 26.5303 19.6605 26.1486Z" fill="url(#paint12_linear_160_14340)"/>
<path d="M24.3352 18.2101L17.7476 22.2587L13.4846 20.1057L20.0722 16.0571L24.3352 18.2101Z" fill="url(#paint13_linear_160_14340)"/>
<path d="M17.7478 22.2588V23.391L24.1295 19.4625V26.1573L24.9143 25.7498V18.669C24.9143 18.3088 24.5197 18.0901 24.2152 18.2788L17.7478 22.263V22.2588Z" fill="url(#paint14_linear_160_14340)"/>
<path d="M13.4848 20.1058L17.7478 22.2588V23.4039L13.4848 21.2509V20.1058Z" fill="url(#paint15_linear_160_14340)"/>
<path d="M52.6583 15.6326L45.0843 19.737C44.8613 19.2566 44.4753 18.8578 43.9778 18.6133L43.4246 18.3431L44.6683 17.6055L33.436 11.3567L39.2344 8.04578L51.7791 14.7706C52.1565 14.9722 52.461 15.2767 52.6626 15.6369L52.6583 15.6326Z" fill="url(#paint16_linear_160_14340)"/>
<path d="M53.2717 25.8742L52.5855 26.2559L52.3282 23.8241L52.311 23.8499C52.0023 22.1601 50.5784 21.5725 48.8714 22.5589C46.9458 23.674 45.3847 26.3674 45.3932 28.5847C45.3932 29.1851 45.5133 29.6869 45.7192 30.0815L38.4669 34.1258L38.1409 30.8663L44.4669 27.6669L45.2989 21.0536C45.3589 20.5904 45.2774 20.1358 45.0845 19.7369L52.6584 15.6326C52.8429 15.9585 52.9458 16.3316 52.9458 16.7219L53.2717 25.8742Z" fill="url(#paint17_linear_160_14340)"/>
<path d="M35.2159 10.3359L49 17.614" stroke="#753D10" stroke-width="0.1" stroke-miterlimit="10"/>
<path d="M33.8822 0L34.2725 0.214439L33.8822 11.6097L32.6384 12.3474L31.5534 20.5776L27.359 22.7134L22.5041 17.0822C22.5041 17.0822 22.5083 17.065 22.5169 17.035L24.404 8.1787C24.8028 6.30879 25.9694 4.68335 27.6163 3.70979L33.8822 0ZM33.4362 0.784846L28.0151 3.99714C26.364 4.97498 25.2017 6.59614 24.8028 8.46605L22.993 16.9578L27.4747 22.1515L31.1459 20.2816L32.231 12.0686L33.4404 11.3481V0.784846H33.4362Z" fill="url(#paint18_linear_160_14340)"/>
<path d="M34.2681 0.214478V11.8242L33.0243 12.5619L31.9393 20.792L27.7448 22.9278L22.8899 17.2967C22.8899 17.2967 22.8942 17.2795 22.9028 17.2495L24.7899 8.39318C25.1887 6.52327 26.3553 4.89782 28.0022 3.92427L34.2681 0.214478ZM33.822 0.999324L28.401 4.21162C26.7498 5.18946 25.5876 6.81062 25.1887 8.68052L23.3789 17.1723L27.8606 22.366L31.5318 20.4961L32.6169 12.2831L33.8263 11.5626V0.999324H33.822Z" fill="url(#paint19_linear_160_14340)"/>
<path d="M33.4316 11.3567L43.8276 17.1337L42.6182 17.8542L42.5324 18.5018L32.115 12.7077L32.2222 12.0729L33.4316 11.3567Z" fill="url(#paint20_linear_160_14340)"/>
<path d="M32.2224 12.0729L42.6184 17.8541L42.5326 18.5018L32.1152 12.7076L32.2224 12.0729Z" fill="url(#paint21_linear_160_14340)"/>
<path d="M28.8984 14.436L39.2301 20.2645L42.5325 18.5018L32.2051 12.6733L28.8984 14.436Z" fill="url(#paint22_linear_160_14340)"/>
<path d="M28.0665 17.5754L38.3939 23.4039L39.2302 20.2645L28.8986 14.436L28.0665 17.5754Z" fill="url(#paint23_linear_160_14340)"/>
<path d="M35.5675 25.0336L38.3938 23.4039L28.0664 17.5754L25.2358 19.2052L35.5675 25.0336Z" fill="url(#paint24_linear_160_14340)"/>
<path opacity="0.7" d="M34.4524 0.78479L43.9092 5.99565V17.1336L34.0536 11.6997L34.4524 0.78479Z" fill="url(#paint25_linear_160_14340)"/>
<path d="M41.1387 11.8028L41.0229 11.7341C41.0658 11.747 41.1087 11.7684 41.1387 11.8028Z" fill="url(#paint26_linear_160_14340)"/>
<path d="M41.0271 11.7341C40.9713 11.7169 40.9113 11.7212 40.8555 11.7513L40.5596 11.8971C40.3924 11.9828 40.2851 12.1544 40.2851 12.3388V15.1394C40.2851 15.3066 40.2508 15.4696 40.1822 15.6154C40.0836 15.8385 39.912 16.0315 39.689 16.1515L37.1458 17.5625C37.0214 17.6312 36.9313 17.7427 36.8927 17.8756C36.8756 17.9271 36.867 17.9786 36.867 18.0343V19.0593L32.4667 16.4989V15.4739C32.4667 15.371 32.4967 15.268 32.5525 15.1866C32.5997 15.1137 32.6683 15.0493 32.7455 15.0064L35.293 13.5954C35.5332 13.4625 35.7176 13.248 35.8119 12.995C35.8591 12.8663 35.8849 12.7248 35.8849 12.5833V9.7827C35.8849 9.59399 35.9921 9.42244 36.1593 9.34096L36.4553 9.19514C36.5582 9.14367 36.6697 9.16941 36.7383 9.23803H36.7426L41.0271 11.7341Z" fill="url(#paint27_linear_160_14340)"/>
<path d="M41.2073 11.97V15.8771C41.2073 16.2888 40.9885 16.6705 40.6326 16.8764L36.8627 19.0594V18.0344C36.8627 17.8414 36.97 17.657 37.1415 17.5626L39.6848 16.1516C40.0536 15.9457 40.2809 15.5597 40.2809 15.1394V12.3389C40.2809 12.1502 40.3881 11.9786 40.5554 11.8971L40.8513 11.7513C40.9071 11.7213 40.9671 11.717 41.0229 11.7342L41.1387 11.8028C41.1773 11.8457 41.2073 11.9014 41.2073 11.9743V11.97Z" fill="url(#paint28_linear_160_14340)"/>
<path d="M41.0272 11.7341C40.9715 11.7169 40.9114 11.7212 40.8557 11.7512L40.5597 11.8971C40.3968 11.9786 40.2938 12.1372 40.2895 12.3174C40.2895 12.3259 40.2895 12.3345 40.2895 12.3388V15.1394C40.2895 15.3066 40.2552 15.4696 40.1866 15.6154L35.8163 12.995C35.8635 12.8663 35.8892 12.7248 35.8892 12.5833V9.7827C35.8892 9.59399 35.9965 9.42244 36.1637 9.34096L36.4597 9.19514C36.5626 9.14367 36.6741 9.16941 36.7427 9.23803H36.747L41.0315 11.7341H41.0272Z" fill="url(#paint29_linear_160_14340)"/>
<path d="M36.8928 17.8799C36.8757 17.9313 36.8671 17.9828 36.8671 18.0386V19.0636L32.4668 16.5032V15.4782C32.4668 15.4053 32.484 15.3323 32.5097 15.268C32.5226 15.2423 36.8885 17.8799 36.8885 17.8799H36.8928Z" fill="url(#paint30_linear_160_14340)"/>
<path d="M41.0272 11.7341C40.9715 11.7169 40.9114 11.7212 40.8557 11.7512L40.5597 11.8971C40.3968 11.9786 40.2938 12.1372 40.2895 12.3174L35.8892 9.90279V9.7827C35.8892 9.59399 35.9965 9.42244 36.1637 9.34096L36.4597 9.19514C36.5626 9.14367 36.6741 9.16941 36.7427 9.23803H36.747L41.0315 11.7341H41.0272Z" fill="url(#paint31_linear_160_14340)"/>
<path opacity="0.5" d="M37.5532 10.2973C36.3524 11.2794 35.5118 12.6433 35.1858 14.1786L33.2988 23.035C33.2902 23.065 33.2859 23.0822 33.2859 23.0822L30.4896 21.5296L30.0178 21.268L24.005 17.9313L22.8727 17.3052C22.8727 17.3052 22.8727 17.3009 22.8727 17.2923V17.2794C22.9328 16.9363 23.5246 13.4067 24.3652 10.293L24.7684 8.40167C25.1072 6.80624 26.0035 5.39094 27.2816 4.40881L37.5446 10.293L37.5532 10.2973Z" fill="url(#paint32_linear_160_14340)"/>
<path d="M44.6642 5.99573L41.8507 7.86564C41.8507 7.86564 36.2882 10.8935 35.6492 13.3553C35.0359 15.7012 33.449 22.4089 33.3032 23.035L35.1903 14.1787C35.5891 12.3088 36.7557 10.6834 38.4026 9.70981L44.6685 6.00002L44.6642 5.99573Z" fill="url(#paint33_linear_160_14340)"/>
<path opacity="0.97" d="M22.8813 17.3009L27.7061 22.9321L38.145 28.7091L33.303 23.0307L22.8813 17.3009Z" fill="url(#paint34_linear_160_14340)"/>
<path d="M44.6642 5.99572L38.3983 9.70551C38.1023 9.88135 37.8193 10.0786 37.5534 10.2974L27.2903 4.41316C27.5133 4.23732 27.7449 4.07863 27.9894 3.93282L33.9165 0.424595C34.1352 0.295932 34.2596 0.223022 34.2596 0.223022L44.6685 6.00001L44.6642 5.99572Z" fill="url(#paint35_linear_160_14340)"/>
<path d="M44.2782 5.78125L44.6685 5.99569L44.2782 17.391L43.0344 18.1286L41.9494 26.3588L37.7549 28.4946L32.9001 22.8635C32.9001 22.8635 32.9043 22.8463 32.9129 22.8163L34.8 13.9599C35.1988 12.09 36.3654 10.4646 38.0123 9.49104L44.2782 5.78125ZM43.8321 6.5661L38.4111 9.77839C36.76 10.7562 35.5977 12.3774 35.1988 14.2473L33.389 22.7391L37.8707 27.9328L41.5419 26.0629L42.627 17.8499L43.8364 17.1294V6.5661H43.8321Z" fill="url(#paint36_linear_160_14340)"/>
<path d="M44.6641 5.99573V17.6054L43.4203 18.3431L42.3353 26.5733L38.1408 28.7091L33.2859 23.0779C33.2859 23.0779 33.2902 23.0608 33.2988 23.0308L35.1859 14.1744C35.5847 12.3045 36.7513 10.6791 38.3982 9.70552L44.6641 5.99573ZM44.218 6.78057L38.797 9.99287C37.1458 10.9707 35.9836 12.5919 35.5847 14.4618L33.7749 22.9536L38.2566 28.1473L41.9278 26.2774L43.0129 18.0643L44.2223 17.3438V6.78057H44.218Z" fill="url(#paint37_linear_160_14340)"/>
<path d="M42.5325 18.5018L39.2301 20.2645L38.3938 23.4039L35.5675 25.0336L38.0035 27.8642L41.5332 26.0672L42.5325 18.5018Z" fill="url(#paint38_linear_160_14340)"/>
<path d="M27.2903 4.40881L26.9343 4.70474L36.8671 10.3359L37.1716 10.0743L27.2903 4.40881Z" fill="url(#paint39_linear_160_14340)"/>
<path d="M22.9973 16.8806L33.0244 22.4217L32.9129 22.8163L22.8857 17.2752L22.9973 16.8806Z" fill="url(#paint40_linear_160_14340)"/>
<path d="M22.9972 16.8807L33.0243 22.4218L33.0801 22.0315L23.3789 16.7391L22.9972 16.8807Z" fill="url(#paint41_linear_160_14340)"/>
<path d="M33.8821 0L44.6641 5.99571L44.218 6.26162L33.3846 0.295926L33.8821 0Z" fill="url(#paint42_linear_160_14340)"/>
<path d="M43.4203 18.3431L44.0808 18.6648C44.9342 19.0808 45.4274 19.9943 45.3116 20.9336L44.4667 27.6669L42.3352 26.5733L43.4203 18.3431Z" fill="url(#paint43_linear_160_14340)"/>
<path d="M42.3353 26.5732L44.4668 27.6669L38.1451 30.8663V28.7091L42.3353 26.5732Z" fill="url(#paint44_linear_160_14340)"/>
<path d="M27.8264 29.2237L17.7478 23.4038V30.7805L27.8264 36.5961V29.2237Z" fill="url(#paint45_linear_160_14340)"/>
<path d="M17.7478 23.4039L24.3353 19.2052L33.9551 24.3088L27.8264 28.0744V29.2238L17.7478 23.4039Z" fill="url(#paint46_linear_160_14340)"/>
<path d="M28.8127 23.451C28.8127 23.451 28.8213 23.451 28.8256 23.4553C28.8556 23.4725 28.8899 23.4982 28.9157 23.524C28.9199 23.5282 28.9242 23.5325 28.9328 23.5411C28.9628 23.5711 28.9886 23.6054 29.01 23.644C29.0272 23.6698 29.04 23.7041 29.0529 23.7341C29.0658 23.7598 29.0786 23.7813 29.0872 23.807C29.1129 23.8799 29.1301 23.9571 29.1387 24.0386C29.1387 24.0686 29.1472 24.0944 29.1472 24.1244C29.1472 24.163 29.1515 24.1973 29.1558 24.2359C29.1558 24.2788 29.1558 24.326 29.1558 24.3731C29.1558 24.386 29.1558 24.3946 29.1558 24.4074C29.1515 24.4675 29.143 24.5318 29.1301 24.5919C29.1301 24.6004 29.1301 24.609 29.1258 24.6219C29.1129 24.6819 29.1001 24.742 29.0829 24.7977C29.0829 24.8063 29.0786 24.8149 29.0743 24.8235C29.0572 24.8792 29.0357 24.935 29.0143 24.9907C29.01 24.9993 29.0057 25.0122 29.0014 25.0207C28.98 25.0679 28.9543 25.1151 28.9285 25.1623C28.9242 25.1708 28.9199 25.1794 28.9157 25.188C28.8813 25.2438 28.847 25.2909 28.8084 25.3381C28.6455 25.5268 28.4653 25.604 28.3024 25.574L32.0036 26.3117C32.1665 26.3417 32.3467 26.2645 32.5096 26.0758C32.5482 26.0329 32.5826 25.9857 32.6126 25.9342C32.6126 25.9342 32.6126 25.93 32.6169 25.9257C32.6212 25.9171 32.6254 25.9085 32.6297 25.8999C32.6469 25.8699 32.664 25.8399 32.6812 25.8099C32.6898 25.7927 32.6984 25.7756 32.7026 25.7584C32.7069 25.7498 32.7112 25.737 32.7155 25.7284C32.7155 25.7198 32.7241 25.7112 32.7284 25.7027C32.7412 25.6683 32.7541 25.634 32.767 25.5997C32.767 25.5869 32.7756 25.574 32.7798 25.5611C32.7798 25.5525 32.7841 25.544 32.7884 25.5354C32.7884 25.5225 32.797 25.5097 32.8013 25.4968C32.8099 25.4625 32.8184 25.4282 32.827 25.3939C32.827 25.381 32.827 25.3724 32.8313 25.3595C32.8313 25.351 32.8313 25.3424 32.8356 25.3295C32.8356 25.3124 32.8399 25.2995 32.8442 25.2824C32.8485 25.2438 32.857 25.2009 32.857 25.1623C32.857 25.158 32.857 25.1537 32.857 25.1494C32.857 25.1365 32.857 25.128 32.857 25.1151C32.857 25.0851 32.857 25.0508 32.8613 25.0207C32.8613 25.0079 32.8613 24.995 32.8613 24.9778C32.8613 24.9392 32.8613 24.9006 32.8528 24.8663C32.8528 24.8449 32.8528 24.8277 32.8528 24.8063C32.8528 24.7977 32.8485 24.7891 32.8485 24.7806C32.8356 24.6991 32.8184 24.6219 32.797 24.549C32.797 24.5447 32.797 24.5404 32.7927 24.5361C32.7841 24.5147 32.7713 24.4975 32.7627 24.4761C32.7498 24.446 32.737 24.416 32.7198 24.386C32.7198 24.386 32.7198 24.3817 32.7198 24.3774C32.7026 24.3474 32.6812 24.3217 32.6598 24.2959C32.6555 24.2916 32.6512 24.2874 32.6469 24.2831C32.6426 24.2788 32.6383 24.2745 32.6297 24.2659C32.6212 24.2573 32.6126 24.2488 32.604 24.2402C32.5868 24.223 32.5654 24.2102 32.5482 24.2016C32.5482 24.2016 32.544 24.2016 32.5397 24.1973C32.5397 24.1973 32.5311 24.1973 32.5268 24.193C32.5139 24.1844 32.5011 24.1801 32.4882 24.1758C32.4668 24.1673 32.4496 24.163 32.4282 24.1587C32.4282 24.1587 32.4239 24.1587 32.4196 24.1587L28.7184 23.421C28.757 23.4296 28.7913 23.4425 28.8256 23.4596L28.8127 23.451Z" fill="url(#paint47_linear_160_14340)"/>
<path d="M28.1994 23.6441C28.521 23.2667 28.9199 23.3396 29.0829 23.8071C29.2459 24.2745 29.1215 24.9522 28.7955 25.3296C28.4739 25.707 28.075 25.6341 27.912 25.1709C27.7448 24.7034 27.8777 24.0215 28.1994 23.6441Z" fill="url(#paint48_linear_160_14340)"/>
<path d="M25.4418 23.108C25.4418 23.108 25.4461 23.108 25.4504 23.108C25.4718 23.1208 25.4933 23.138 25.5104 23.1551L25.519 23.1637C25.5361 23.1852 25.5533 23.2066 25.5705 23.2323C25.579 23.2495 25.5876 23.2709 25.6005 23.2924C25.6091 23.3095 25.6176 23.3224 25.6219 23.3396C25.6391 23.3867 25.6477 23.4382 25.6562 23.4897C25.6562 23.5068 25.6605 23.5283 25.6605 23.5454C25.6605 23.5711 25.6605 23.5926 25.6648 23.6183C25.6648 23.6483 25.6648 23.6784 25.6648 23.7084C25.6648 23.717 25.6648 23.7213 25.6648 23.7298C25.6648 23.7684 25.6562 23.8113 25.6477 23.8499C25.6477 23.8542 25.6477 23.8628 25.6477 23.8671C25.6391 23.9057 25.6305 23.9443 25.6176 23.9829C25.6176 23.9872 25.6176 23.9957 25.6133 24C25.6005 24.0386 25.5876 24.0729 25.5705 24.1115C25.5705 24.1201 25.5662 24.1244 25.5619 24.133C25.549 24.1673 25.5319 24.1973 25.5147 24.2273C25.5147 24.2316 25.5104 24.2402 25.5061 24.2445C25.4847 24.2788 25.4589 24.3131 25.4332 24.3431C25.326 24.4675 25.2059 24.519 25.0987 24.4975L28.2166 25.2009C28.3238 25.2223 28.4439 25.1709 28.5512 25.0465C28.5769 25.0165 28.5983 24.9864 28.6198 24.9521C28.6198 24.9521 28.6198 24.9521 28.6198 24.9478C28.6198 24.9436 28.6241 24.935 28.6284 24.9307C28.6412 24.9092 28.6498 24.8921 28.6627 24.8706C28.667 24.8578 28.6712 24.8492 28.6798 24.8363C28.6798 24.8278 28.6841 24.8235 28.6884 24.8149C28.6884 24.8106 28.6927 24.802 28.697 24.7977C28.7055 24.7763 28.7141 24.7549 28.7227 24.7291C28.7227 24.7205 28.727 24.712 28.7313 24.7034C28.7313 24.6991 28.7313 24.6905 28.7356 24.6862C28.7356 24.6777 28.7399 24.6691 28.7441 24.6605C28.7484 24.6391 28.757 24.6133 28.7613 24.5919C28.7613 24.5833 28.7613 24.579 28.7613 24.5704C28.7613 24.5661 28.7613 24.5576 28.7613 24.5533C28.7613 24.5447 28.7613 24.5318 28.7656 24.5233C28.7656 24.4975 28.7742 24.4718 28.7742 24.4418C28.7742 24.4418 28.7742 24.4375 28.7742 24.4332C28.7742 24.4246 28.7742 24.4203 28.7742 24.4117C28.7742 24.3903 28.7742 24.3689 28.7742 24.3517C28.7742 24.3431 28.7742 24.3346 28.7742 24.326C28.7742 24.3002 28.7742 24.2745 28.7699 24.2531C28.7699 24.2402 28.7699 24.2273 28.7699 24.2145C28.7699 24.2102 28.7699 24.2016 28.7699 24.1973C28.7613 24.1458 28.7527 24.0944 28.7356 24.0472V24.0386C28.7313 24.0258 28.7227 24.0129 28.7184 24C28.7098 23.9786 28.7013 23.9571 28.6884 23.94C28.6884 23.94 28.6884 23.94 28.6884 23.9357C28.6755 23.9143 28.6627 23.8971 28.6498 23.8842C28.6498 23.8842 28.6412 23.8799 28.6412 23.8757L28.6326 23.8671C28.6284 23.8628 28.6198 23.8542 28.6155 23.8499C28.6026 23.8413 28.5898 23.8328 28.5769 23.8242C28.5769 23.8242 28.5769 23.8242 28.5726 23.8242C28.5726 23.8242 28.5683 23.8242 28.564 23.8242C28.5554 23.8199 28.5469 23.8156 28.5383 23.8113C28.5254 23.807 28.5126 23.8027 28.4997 23.7985C28.4997 23.7985 28.4997 23.7985 28.4954 23.7985L25.3775 23.0951C25.4032 23.0994 25.4246 23.108 25.4504 23.1208L25.4418 23.108Z" fill="url(#paint49_linear_160_14340)"/>
<path d="M25.0386 23.2366C25.2531 22.9879 25.5147 23.035 25.6219 23.3438C25.7291 23.6526 25.6476 24.0987 25.4332 24.3474C25.2187 24.5962 24.9571 24.549 24.8499 24.2402C24.7427 23.9314 24.8242 23.4811 25.0386 23.2323V23.2366Z" fill="url(#paint50_linear_160_14340)"/>
<path d="M20.8313 19.2909C20.8313 19.2909 20.8399 19.2909 20.8441 19.2952C20.8742 19.3123 20.9085 19.3381 20.9342 19.3638C20.9385 19.3681 20.9428 19.3724 20.9514 19.3809C20.9814 19.411 21.0071 19.4453 21.0286 19.4839C21.0457 19.5096 21.0586 19.5439 21.0714 19.5739C21.0843 19.5997 21.0972 19.6211 21.1058 19.6469C21.1315 19.7198 21.1486 19.797 21.1572 19.8784C21.1572 19.9085 21.1658 19.9342 21.1658 19.9642C21.1658 20.0028 21.1701 20.0371 21.1744 20.0757C21.1744 20.1186 21.1744 20.1658 21.1744 20.213C21.1744 20.2258 21.1744 20.2344 21.1744 20.2473C21.1701 20.3073 21.1615 20.3717 21.1486 20.4317C21.1486 20.4403 21.1486 20.4489 21.1444 20.4617C21.1315 20.5218 21.1186 20.5818 21.1015 20.6376C21.1015 20.6461 21.0972 20.6547 21.0929 20.6633C21.0757 20.719 21.0543 20.7748 21.0329 20.8306C21.0286 20.8391 21.0243 20.852 21.02 20.8606C20.9985 20.9078 20.9728 20.9549 20.9471 21.0021C20.9428 21.0107 20.9385 21.0193 20.9342 21.0278C20.8999 21.0836 20.8656 21.1308 20.827 21.1779C20.664 21.3667 20.4839 21.4439 20.3209 21.4138L24.0221 22.1515C24.1851 22.1815 24.3652 22.1043 24.5282 21.9156C24.5668 21.8727 24.6011 21.8256 24.6311 21.7741C24.6311 21.7741 24.6311 21.7698 24.6354 21.7655C24.6397 21.7569 24.644 21.7484 24.6483 21.7398C24.6654 21.7098 24.6826 21.6797 24.6998 21.6497C24.7083 21.6326 24.7169 21.6154 24.7212 21.5982C24.7255 21.5897 24.7298 21.5768 24.7341 21.5682C24.7341 21.5596 24.7426 21.5511 24.7469 21.5425C24.7598 21.5082 24.7727 21.4739 24.7855 21.4396C24.7855 21.4267 24.7941 21.4138 24.7984 21.401C24.7984 21.3924 24.8027 21.3838 24.807 21.3752C24.807 21.3624 24.8156 21.3495 24.8198 21.3366C24.8284 21.3023 24.837 21.268 24.8456 21.2337C24.8456 21.2208 24.8456 21.2123 24.8499 21.1994C24.8499 21.1908 24.8499 21.1822 24.8542 21.1694C24.8542 21.1522 24.8584 21.1393 24.8627 21.1222C24.867 21.0836 24.8756 21.0407 24.8756 21.0021C24.8756 20.9978 24.8756 20.9935 24.8756 20.9892C24.8756 20.9764 24.8756 20.9678 24.8756 20.9549C24.8756 20.9249 24.8756 20.8906 24.8799 20.8606C24.8799 20.8477 24.8799 20.8348 24.8799 20.8177C24.8799 20.7791 24.8799 20.7405 24.8713 20.7062C24.8713 20.6847 24.8713 20.6676 24.8713 20.6461C24.8713 20.6376 24.867 20.629 24.867 20.6204C24.8542 20.5389 24.837 20.4617 24.8156 20.3888C24.8156 20.3845 24.8156 20.3802 24.8113 20.3759C24.8027 20.3545 24.7898 20.3373 24.7812 20.3159C24.7684 20.2859 24.7555 20.2559 24.7384 20.2258C24.7384 20.2258 24.7384 20.2216 24.7384 20.2173C24.7212 20.1872 24.6998 20.1615 24.6783 20.1358C24.674 20.1315 24.6697 20.1272 24.6654 20.1229C24.6612 20.1186 24.6569 20.1143 24.6483 20.1058C24.6397 20.0972 24.6311 20.0886 24.6226 20.08C24.6054 20.0629 24.584 20.05 24.5668 20.0414C24.5668 20.0414 24.5625 20.0414 24.5582 20.0371C24.5582 20.0371 24.5496 20.0371 24.5454 20.0328C24.5325 20.0243 24.5196 20.02 24.5068 20.0157C24.4853 20.0071 24.4682 20.0028 24.4467 19.9985C24.4467 19.9985 24.4424 19.9985 24.4381 19.9985L20.7369 19.2609C20.7755 19.2694 20.8098 19.2823 20.8441 19.2995L20.8313 19.2909Z" fill="url(#paint51_linear_160_14340)"/>
<path d="M20.2179 19.4839C20.5396 19.1065 20.9385 19.1794 21.1014 19.6469C21.2644 20.1144 21.14 20.792 20.8141 21.1694C20.4924 21.5468 20.0936 21.4739 19.9306 21.0107C19.7633 20.5433 19.8963 19.8613 20.2179 19.4839Z" fill="url(#paint52_linear_160_14340)"/>
<path d="M14.5182 18.3774C14.5182 18.3774 14.5225 18.3774 14.5268 18.3774C14.5483 18.3902 14.5697 18.4074 14.5869 18.4245L14.5954 18.4331C14.6126 18.4546 14.6298 18.476 14.6469 18.5017C14.6555 18.5189 14.6641 18.5403 14.6769 18.5618C14.6855 18.5789 14.6941 18.5918 14.6984 18.609C14.7155 18.6561 14.7241 18.7076 14.7327 18.7591C14.7327 18.7762 14.737 18.7977 14.737 18.8148C14.737 18.8406 14.737 18.862 14.7413 18.8877C14.7413 18.9178 14.7413 18.9478 14.7413 18.9778C14.7413 18.9864 14.7413 18.9907 14.7413 18.9992C14.7413 19.0378 14.7327 19.0807 14.7241 19.1193C14.7241 19.1236 14.7241 19.1322 14.7241 19.1365C14.7155 19.1751 14.7069 19.2137 14.6941 19.2523C14.6941 19.2566 14.6941 19.2651 14.6898 19.2694C14.6769 19.308 14.6641 19.3423 14.6469 19.3809C14.6469 19.3895 14.6426 19.3938 14.6383 19.4024C14.6255 19.4367 14.6083 19.4667 14.5912 19.4967C14.5912 19.501 14.5869 19.5096 14.5826 19.5139C14.5611 19.5482 14.5354 19.5825 14.5097 19.6125C14.4024 19.7369 14.2824 19.7884 14.1751 19.7669L20.2352 21.045C20.3424 21.0664 20.4625 21.015 20.5697 20.8906C20.5954 20.8606 20.6169 20.8305 20.6383 20.7962C20.6383 20.7962 20.6383 20.7962 20.6383 20.7919C20.6383 20.7877 20.6426 20.7791 20.6469 20.7748C20.6598 20.7534 20.6684 20.7362 20.6812 20.7148C20.6855 20.7019 20.6898 20.6933 20.6984 20.6804C20.6984 20.6719 20.7027 20.6676 20.707 20.659C20.707 20.6547 20.7112 20.6461 20.7155 20.6418C20.7241 20.6204 20.7327 20.599 20.7413 20.5732C20.7413 20.5646 20.7455 20.5561 20.7498 20.5475C20.7498 20.5432 20.7498 20.5346 20.7541 20.5303C20.7541 20.5218 20.7584 20.5132 20.7627 20.5046C20.767 20.4832 20.7756 20.4574 20.7799 20.436C20.7799 20.4274 20.7799 20.4231 20.7799 20.4145C20.7799 20.4102 20.7799 20.4017 20.7799 20.3974C20.7799 20.3888 20.7799 20.3759 20.7841 20.3674C20.7841 20.3416 20.7927 20.3159 20.7927 20.2859C20.7927 20.2859 20.7927 20.2816 20.7927 20.2773C20.7927 20.2687 20.7927 20.2644 20.7927 20.2559C20.7927 20.2344 20.7927 20.213 20.7927 20.1958C20.7927 20.1872 20.7927 20.1787 20.7927 20.1701C20.7927 20.1443 20.7927 20.1186 20.7884 20.0972C20.7884 20.0843 20.7884 20.0714 20.7884 20.0586C20.7884 20.0543 20.7884 20.0457 20.7884 20.0414C20.7799 19.9899 20.7713 19.9385 20.7541 19.8913V19.8827C20.7498 19.8699 20.7413 19.857 20.737 19.8441C20.7284 19.8227 20.7198 19.8012 20.707 19.7841C20.707 19.7841 20.707 19.7841 20.707 19.7798C20.6941 19.7584 20.6812 19.7412 20.6683 19.7283C20.6683 19.7283 20.6598 19.724 20.6598 19.7198L20.6512 19.7112C20.6469 19.7069 20.6383 19.6983 20.634 19.694C20.6212 19.6854 20.6083 19.6769 20.5954 19.6683C20.5954 19.6683 20.5954 19.6683 20.5912 19.6683C20.5912 19.6683 20.5869 19.6683 20.5826 19.6683C20.574 19.664 20.5654 19.6597 20.5568 19.6554C20.544 19.6511 20.5311 19.6468 20.5182 19.6426C20.5182 19.6426 20.5182 19.6426 20.514 19.6426L14.4539 18.3645C14.4796 18.3688 14.5011 18.3774 14.5268 18.3902L14.5182 18.3774Z" fill="url(#paint53_linear_160_14340)"/>
<path d="M14.115 18.506C14.3295 18.2573 14.5911 18.3045 14.6983 18.6132C14.8055 18.922 14.724 19.3681 14.5096 19.6168C14.2952 19.8656 14.0335 19.8184 13.9263 19.5096C13.8191 19.2008 13.9006 18.7505 14.115 18.5017V18.506Z" fill="url(#paint54_linear_160_14340)"/>
<path d="M27.8264 28.0744L33.9551 24.3088V28.7091L27.8264 32.4747V28.0744Z" fill="url(#paint55_linear_160_14340)"/>
<path d="M38.4668 34.1258L32.7327 30.965L38.4668 27.431V34.1258Z" fill="url(#paint56_linear_160_14340)"/>
<path d="M36.8628 29.6483C36.7642 29.5925 36.6612 29.5411 36.554 29.5025C36.5283 29.4896 36.4982 29.481 36.4725 29.4724C36.391 29.4424 36.301 29.4167 36.2152 29.3995C36.1895 29.3952 36.1594 29.3867 36.1337 29.3781C36.0179 29.3566 35.9021 29.3438 35.7863 29.3352H35.7177C35.619 29.3352 35.5204 29.3352 35.4175 29.3395C35.3703 29.3395 35.3231 29.3481 35.2759 29.3523C35.1945 29.3609 35.113 29.3738 35.0272 29.3909C34.9629 29.4038 34.8985 29.4167 34.8385 29.4338C34.7699 29.451 34.697 29.4724 34.6283 29.4896C34.5211 29.5196 34.4096 29.5625 34.2981 29.6054C34.2338 29.6268 34.1737 29.6526 34.1137 29.6783C33.9164 29.7598 33.7234 29.8541 33.5218 29.9699C33.3674 30.0557 33.2216 30.1543 33.0715 30.253C33.0243 30.283 32.9772 30.3216 32.93 30.3559C32.8313 30.4288 32.7327 30.5017 32.6341 30.5789C32.5783 30.6218 32.5268 30.669 32.4711 30.7119C32.381 30.7848 32.291 30.8663 32.2052 30.9435C32.1494 30.9907 32.098 31.0421 32.0422 31.0936C31.9779 31.1579 31.9093 31.2265 31.8449 31.2909C31.7377 31.3981 31.6348 31.5096 31.5318 31.6254C31.4718 31.6897 31.4118 31.7583 31.3517 31.827C31.2874 31.8999 31.2273 31.9771 31.1673 32.05C31.0944 32.1401 31.0258 32.2301 30.9571 32.3202C30.91 32.3759 30.8671 32.436 30.8242 32.496C30.747 32.6032 30.6698 32.719 30.5926 32.8305C30.5626 32.8777 30.5283 32.9206 30.5025 32.9678C30.3996 33.1265 30.301 33.2852 30.2066 33.4524C30.1895 33.4781 30.1766 33.5039 30.1594 33.5339C30.0822 33.6711 30.005 33.8127 29.9278 33.9585C29.9064 34.0057 29.8807 34.0486 29.8592 34.1C29.7863 34.2501 29.7134 34.4002 29.6448 34.5546C29.6362 34.5761 29.6276 34.5932 29.619 34.6147C29.5461 34.7862 29.4732 34.9578 29.4132 35.1293C29.3917 35.1808 29.3746 35.2323 29.3574 35.2837C29.3145 35.4124 29.2717 35.5325 29.2288 35.6611C29.2073 35.7255 29.1902 35.7898 29.173 35.8541C29.1387 35.9656 29.1087 36.0771 29.083 36.1887C29.0615 36.2701 29.0401 36.3473 29.0229 36.4288C29.0058 36.5146 28.9886 36.6004 28.9757 36.6862C28.95 36.8148 28.9286 36.9392 28.9114 37.0636C28.9028 37.1279 28.8985 37.1965 28.89 37.2608C28.8599 37.5396 28.8342 37.8141 28.8342 38.0843C28.8385 39.5639 29.3617 40.6104 30.2066 41.0993L27.3203 39.4224C26.4754 38.9292 25.9521 37.8913 25.9521 36.4074C25.9521 36.1372 25.9736 35.8627 26.0036 35.5839C26.0079 35.5496 26.0036 35.5196 26.0122 35.4853C26.0122 35.4553 26.0251 35.4167 26.0293 35.3867C26.0465 35.258 26.0679 35.1379 26.0937 35.0092C26.1065 34.9535 26.1108 34.8934 26.1237 34.8377C26.128 34.8077 26.1366 34.7819 26.1451 34.7562C26.1623 34.6747 26.1837 34.5932 26.2009 34.516C26.218 34.4431 26.2309 34.3702 26.2524 34.3016C26.2652 34.263 26.2781 34.2244 26.291 34.1858C26.3124 34.1215 26.3296 34.0571 26.351 33.9885C26.3682 33.9328 26.381 33.8813 26.3982 33.8255C26.4196 33.7526 26.4496 33.684 26.4711 33.6154C26.4925 33.5639 26.5097 33.5125 26.5268 33.461C26.5354 33.4353 26.544 33.4095 26.5569 33.3838C26.6083 33.238 26.6641 33.1007 26.7284 32.9592C26.7284 32.9549 26.7327 32.9463 26.737 32.9421C26.7456 32.9249 26.7541 32.9035 26.7627 32.8863C26.8142 32.7748 26.8614 32.6633 26.9171 32.5518C26.9386 32.5132 26.96 32.4703 26.9814 32.4274C27.0029 32.3802 27.0286 32.3373 27.0544 32.2902C27.0758 32.243 27.0972 32.2001 27.123 32.1529C27.1744 32.0586 27.2259 31.9642 27.2817 31.8699C27.2988 31.8398 27.3117 31.8141 27.3288 31.7884C27.3331 31.7798 27.3417 31.7712 27.3417 31.7626C27.4232 31.6254 27.5047 31.4967 27.5862 31.3638C27.599 31.3423 27.6119 31.3252 27.6248 31.308C27.6548 31.2609 27.6848 31.218 27.7148 31.1708C27.762 31.0979 27.8092 31.025 27.8606 30.9563C27.8907 30.9135 27.9207 30.8749 27.9507 30.832C27.9936 30.7719 28.0365 30.7162 28.0794 30.6561C28.1094 30.6132 28.1394 30.5704 28.1694 30.5275C28.208 30.4803 28.2509 30.4288 28.2895 30.3816C28.3496 30.3087 28.4096 30.2315 28.4697 30.1586C28.4954 30.1286 28.5211 30.0943 28.5511 30.0643C28.5812 30.0257 28.6155 29.9914 28.6498 29.9571C28.7527 29.8413 28.8556 29.7298 28.9629 29.6225C28.9972 29.5882 29.0272 29.5496 29.0615 29.5153C29.0915 29.4853 29.1258 29.4553 29.1601 29.4253C29.2116 29.3781 29.2631 29.3266 29.3188 29.2794C29.4046 29.1979 29.4947 29.1208 29.5847 29.0478C29.6362 29.0007 29.6877 28.9578 29.7434 28.9149C29.8421 28.8377 29.9407 28.7605 30.0393 28.6919C30.0865 28.6576 30.1337 28.6233 30.1809 28.5932C30.331 28.4903 30.4811 28.3959 30.6312 28.3059C30.8328 28.1901 31.0301 28.0957 31.2231 28.0142C31.2445 28.0057 31.2702 27.9928 31.2874 27.9842C31.326 27.9671 31.3646 27.9585 31.4032 27.9413C31.5147 27.8984 31.6262 27.8598 31.7334 27.8298C31.7677 27.817 31.8063 27.7998 31.8406 27.7912C31.8749 27.7827 31.9093 27.7784 31.9436 27.7698C32.0079 27.7569 32.0722 27.7398 32.1366 27.7312C32.1752 27.7269 32.2138 27.7097 32.2524 27.7055C32.2952 27.7012 32.3381 27.7012 32.381 27.6926C32.4196 27.6883 32.4539 27.684 32.4925 27.6797C32.5011 27.6797 32.514 27.6797 32.5226 27.6797C32.5483 27.6797 32.5783 27.6754 32.5997 27.6711C32.6769 27.6711 32.7541 27.6711 32.8228 27.6711H32.9128C32.9943 27.6754 33.0801 27.684 33.1616 27.7012C33.1744 27.7012 33.183 27.7012 33.1959 27.7055C33.213 27.7055 33.2259 27.7097 33.2431 27.714C33.2731 27.7183 33.2988 27.7269 33.3246 27.7355C33.3674 27.7441 33.4146 27.7526 33.4618 27.7655C33.5047 27.7784 33.5433 27.7955 33.5819 27.8084C33.6119 27.817 33.6376 27.8255 33.6634 27.8341C33.6762 27.8427 33.6934 27.847 33.7105 27.8513C33.792 27.8856 33.8735 27.9242 33.9464 27.9671C33.955 27.9714 33.9636 27.9799 33.9722 27.9799L36.8585 29.6611L36.8628 29.6483Z" fill="url(#paint57_linear_160_14340)"/>
<path d="M30.2046 41.1044C28.3717 40.0393 28.3763 36.6109 30.2149 33.4467C32.0535 30.2826 35.0299 28.581 36.8628 29.6461C38.6958 30.7112 38.6912 34.1396 36.8525 37.3037C35.0139 40.4679 32.0376 42.1695 30.2046 41.1044Z" fill="url(#paint58_linear_160_14340)"/>
<path d="M37.09 33.3152C37.1029 35.5797 35.5075 38.3288 33.5475 39.461C32.4496 40.0872 31.4717 40.0872 30.8198 39.5725C31.3902 39.6969 32.0764 39.5596 32.827 39.1351C34.7912 37.99 36.3824 35.2408 36.3738 32.9892C36.3738 31.99 36.0607 31.2609 35.5418 30.8448C36.4724 31.0464 37.09 31.9213 37.09 33.3109V33.3152Z" fill="url(#paint59_linear_160_14340)"/>
<path d="M36.3696 32.9893C36.3824 35.2452 34.787 37.9943 32.8227 39.1351C32.0722 39.5597 31.386 39.697 30.8156 39.5726C30.2881 39.1566 29.975 38.4275 29.975 37.4282C29.9621 35.1637 31.5575 32.4146 33.5175 31.2824C34.268 30.8578 34.9628 30.712 35.5247 30.8449H35.5375C36.0522 31.2609 36.3696 31.99 36.3696 32.9893Z" fill="url(#paint60_linear_160_14340)"/>
<path d="M34.8429 34.0357C34.8171 34.0229 34.7914 34.01 34.7657 33.9971C34.7571 33.9971 34.7528 33.9929 34.7442 33.9886C34.7228 33.98 34.7013 33.9757 34.6799 33.9714C34.6713 33.9714 34.667 33.9714 34.6585 33.9671C34.6284 33.9628 34.5984 33.9585 34.5727 33.9543H34.5555C34.5298 33.9543 34.5041 33.9543 34.4783 33.9543C34.4655 33.9543 34.4526 33.9543 34.444 33.9543C34.4226 33.9543 34.4011 33.9585 34.3797 33.9628C34.3625 33.9628 34.3497 33.9714 34.3325 33.9757C34.3154 33.98 34.2982 33.9843 34.281 33.9886C34.2553 33.9971 34.2253 34.0057 34.1996 34.0186C34.1824 34.0229 34.1695 34.0315 34.1524 34.0357C34.1009 34.0572 34.0537 34.0786 34.0023 34.1086C33.9637 34.1301 33.9251 34.1558 33.8908 34.1816C33.8779 34.1901 33.865 34.1987 33.8565 34.2073C33.8307 34.2244 33.805 34.2416 33.7836 34.263C33.7707 34.2759 33.7578 34.2845 33.745 34.2974C33.7235 34.3145 33.7021 34.336 33.6763 34.3574C33.6635 34.3703 33.6506 34.3831 33.6377 34.396C33.6206 34.4131 33.6034 34.4303 33.5863 34.4475C33.5605 34.4732 33.5348 34.5032 33.5091 34.5332C33.4919 34.5504 33.479 34.5675 33.4662 34.5847C33.449 34.6019 33.4362 34.6233 33.419 34.6405C33.4019 34.6619 33.3847 34.6833 33.3675 34.7091C33.3547 34.7219 33.3461 34.7391 33.3332 34.752C33.3118 34.7777 33.2946 34.8077 33.2732 34.8377C33.2646 34.8506 33.256 34.8592 33.2517 34.872C33.226 34.9106 33.2003 34.9535 33.1788 34.9921C33.1745 35.0007 33.1703 35.005 33.166 35.0136C33.1445 35.0479 33.1274 35.0822 33.1059 35.1208C33.1016 35.1337 33.0931 35.1422 33.0888 35.1551C33.0716 35.1937 33.0502 35.2323 33.033 35.2709C33.033 35.2752 33.0287 35.2795 33.0244 35.2881C33.0073 35.3309 32.9901 35.3738 32.973 35.4167C32.9687 35.4296 32.9644 35.4425 32.9601 35.4553C32.9472 35.4853 32.9387 35.5197 32.9301 35.5497C32.9258 35.5668 32.9215 35.584 32.9172 35.5969C32.9086 35.6269 32.9001 35.6526 32.8958 35.6826C32.8915 35.7041 32.8829 35.7212 32.8786 35.7427C32.8743 35.7641 32.87 35.7856 32.8658 35.807C32.8572 35.837 32.8529 35.8713 32.8486 35.9014C32.8486 35.9185 32.8486 35.9357 32.8443 35.9528C32.8357 36.0214 32.8314 36.0944 32.8314 36.163C32.8314 36.5361 32.9644 36.802 33.1788 36.9221L32.4497 36.4975C32.2353 36.3731 32.1066 36.1115 32.1024 35.7384C32.1024 35.6698 32.1066 35.6011 32.1152 35.5282C32.1152 35.5197 32.1152 35.5111 32.1152 35.5025C32.1152 35.4939 32.1152 35.4853 32.1195 35.4768C32.1238 35.4467 32.1281 35.4124 32.1367 35.3824C32.1367 35.3695 32.1409 35.3524 32.1452 35.3395C32.1452 35.331 32.1452 35.3267 32.1495 35.3181C32.1538 35.2966 32.1581 35.2795 32.1624 35.258C32.1667 35.2409 32.171 35.2237 32.1753 35.2023C32.1753 35.1937 32.1838 35.1808 32.1838 35.1723C32.1881 35.1551 32.1924 35.138 32.201 35.1208C32.2053 35.1079 32.2096 35.0951 32.2139 35.0779C32.2181 35.0608 32.2267 35.0436 32.231 35.0264C32.2353 35.0136 32.2396 35.0007 32.2439 34.9878C32.2439 34.9793 32.2482 34.975 32.2525 34.9664C32.2653 34.9321 32.2782 34.8935 32.2953 34.8592C32.2953 34.8592 32.2953 34.8592 32.2953 34.8549C32.2953 34.8506 32.2996 34.8463 32.3039 34.842C32.3168 34.812 32.3297 34.7863 32.3425 34.7563C32.3468 34.7477 32.3554 34.7348 32.3597 34.7262C32.364 34.7134 32.3725 34.7048 32.3768 34.6919C32.3811 34.6791 32.3897 34.6705 32.394 34.6576C32.4069 34.6319 32.4197 34.6104 32.4326 34.5847C32.4369 34.5761 32.4412 34.5718 32.4455 34.5633C32.4455 34.5633 32.4455 34.559 32.4455 34.5547C32.4669 34.5204 32.4841 34.4861 32.5055 34.456C32.5055 34.4517 32.5141 34.4475 32.5141 34.4432C32.5227 34.4303 32.5312 34.4217 32.5355 34.4089C32.5484 34.3917 32.5613 34.3746 32.5698 34.3531C32.5784 34.3402 32.587 34.3317 32.5913 34.3231C32.6041 34.3059 32.6127 34.2931 32.6256 34.2802C32.6342 34.2673 32.6427 34.2588 32.647 34.2502C32.6556 34.2373 32.6685 34.2244 32.677 34.2116C32.6942 34.1944 32.7071 34.173 32.7242 34.1558C32.7328 34.1472 32.7371 34.1387 32.7457 34.1301C32.7542 34.1215 32.7628 34.1129 32.7714 34.1044C32.7971 34.0743 32.8229 34.0486 32.8486 34.0186C32.8572 34.01 32.8658 34.0014 32.8743 33.9929C32.8829 33.9843 32.8915 33.9757 32.9001 33.9714C32.9129 33.9585 32.9258 33.9457 32.9387 33.9328C32.9601 33.9114 32.9816 33.8942 33.0073 33.8728C33.0201 33.8599 33.033 33.8513 33.0459 33.8385C33.0716 33.817 33.0973 33.7999 33.1188 33.7827C33.1317 33.7741 33.1445 33.7655 33.1531 33.757C33.1917 33.7312 33.2303 33.7055 33.2646 33.6841C33.3161 33.654 33.3633 33.6326 33.4147 33.6112C33.419 33.6112 33.4276 33.6069 33.4319 33.6026C33.4404 33.5983 33.4533 33.594 33.4619 33.5897C33.4919 33.5768 33.5176 33.5683 33.5434 33.5597C33.552 33.5597 33.5605 33.5511 33.5691 33.5511C33.5777 33.5511 33.5863 33.5511 33.5948 33.5468C33.612 33.5468 33.6292 33.5382 33.642 33.5382C33.6506 33.5382 33.6635 33.534 33.672 33.5297C33.6849 33.5297 33.6935 33.5297 33.7064 33.5297C33.7149 33.5297 33.7235 33.5297 33.7364 33.5297C33.7364 33.5297 33.7407 33.5297 33.745 33.5297C33.7535 33.5297 33.7578 33.5297 33.7664 33.5297C33.7878 33.5297 33.805 33.5297 33.8222 33.5297H33.8436C33.8436 33.5297 33.8865 33.5297 33.9079 33.5382C33.9079 33.5382 33.9122 33.5382 33.9165 33.5382C33.9208 33.5382 33.9251 33.5382 33.9294 33.5382C33.9379 33.5382 33.9422 33.5382 33.9508 33.5425C33.9637 33.5425 33.9723 33.5468 33.9851 33.5511C33.998 33.5511 34.0066 33.5597 34.0151 33.564C34.0237 33.564 34.028 33.5683 34.0366 33.5726C34.0366 33.5726 34.0452 33.5726 34.0495 33.5768C34.0709 33.5854 34.0881 33.594 34.1095 33.6069C34.1095 33.6069 34.1138 33.6069 34.1181 33.6069L34.8472 34.0314L34.8429 34.0357Z" fill="url(#paint61_linear_160_14340)"/>
<path d="M33.9979 34.1173C34.6541 33.7398 35.1859 34.0443 35.1902 34.7949C35.1902 35.5497 34.6627 36.4632 34.0065 36.8449C33.3503 37.2223 32.8185 36.9178 32.8142 36.1673C32.8142 35.4125 33.3417 34.499 33.9979 34.1173Z" fill="url(#paint62_linear_160_14340)"/>
<path d="M38.6726 26.1787L32.0893 30.2273L27.8263 28.0744L34.4139 24.0258L38.6726 26.1787Z" fill="url(#paint63_linear_160_14340)"/>
<path d="M32.0893 30.2273V31.3595L38.471 27.431V34.1258L39.2559 33.7183V26.6376C39.2559 26.2773 38.8613 26.0586 38.5568 26.2473L32.0893 30.2315V30.2273Z" fill="url(#paint64_linear_160_14340)"/>
<path d="M27.8263 28.0743L32.0894 30.2273V31.3767L27.8263 29.2237V28.0743Z" fill="url(#paint65_linear_160_14340)"/>
<path d="M13.4847 2.05005V33.9586L15.0544 33.0622V4.70909L25.7249 10.5976V38.9507L27.2903 39.817V9.6755L13.4847 2.05005Z" fill="url(#paint66_linear_160_14340)"/>
<path d="M11.9321 2.95068V33.0965L13.4975 33.9585V5.60544L24.168 11.4982V39.8513L25.7334 40.7177V10.5718L11.9321 2.95068Z" fill="url(#paint67_linear_160_14340)"/>
<path d="M11.9322 2.95069L13.4847 2.05005L27.2903 9.6755L25.7335 10.5718L11.9322 2.95069Z" fill="url(#paint68_linear_160_14340)"/>
<path d="M27.2903 9.67554L25.7335 10.5719V40.7177L27.2903 39.8171V9.67554Z" fill="url(#paint69_linear_160_14340)"/>
<path d="M18.4767 8.35449V35.6654L18.9099 36.0386V8.51318L18.4767 8.35449Z" fill="url(#paint70_linear_160_14340)"/>
<path d="M26.7498 26.1486V41.5968L25.7333 42.2444L10.0321 32.303V16.8549L26.7455 26.1486H26.7498ZM25.6304 26.8048L11.1558 18.7548V31.6426L25.6304 39.6926V26.8048Z" fill="url(#paint71_linear_160_14340)"/>
<path d="M25.7334 26.7962V42.2444L9.02003 32.9506V17.5024L25.7334 26.7962ZM24.614 27.4524L10.1394 19.4024V32.2901L24.614 40.3402V27.4524Z" fill="url(#paint72_linear_160_14340)"/>
<path d="M10.0364 16.8549L9.01995 17.5025L25.6304 26.8048L26.7498 26.1486L10.0364 16.8549Z" fill="url(#paint73_linear_160_14340)"/>
<path d="M10.1394 26.7105L24.614 35.3181V34.04L10.8942 26.406L10.1394 26.7105Z" fill="url(#paint74_linear_160_14340)"/>
<path d="M10.1394 27.9928L24.614 36.0385V34.7648L10.1394 26.7104V27.9928Z" fill="url(#paint75_linear_160_14340)"/>
<path d="M20.9771 28.3917L22.521 29.3138C22.521 29.3138 22.5468 40.9064 22.521 40.7391L21.9849 41.0565L20.9814 39.8213L20.4453 28.7134L20.9814 28.396L20.9771 28.3917Z" fill="url(#paint76_linear_160_14340)"/>
<path d="M20.4409 28.7091L21.9849 29.6312C21.9849 29.6312 22.0106 41.2238 21.9849 41.0565L20.4409 40.1344V28.7091Z" fill="url(#paint77_linear_160_14340)"/>
<path d="M10.118 48L21.9937 41.0565V40.5375L20.4411 40.1344L8.56549 46.5633V47.0822L10.118 48Z" fill="url(#paint78_linear_160_14340)"/>
<path d="M10.118 47.4854L21.9937 40.5376L20.4411 39.6155L8.56549 46.5633L10.118 47.4854Z" fill="url(#paint79_linear_160_14340)"/>
<path d="M12.6226 23.7255L14.1665 24.6476C14.1665 24.6476 14.1923 36.2401 14.1665 36.0729L13.6304 36.3902L12.6269 35.1551L12.0908 24.0471L12.6269 23.7298L12.6226 23.7255Z" fill="url(#paint80_linear_160_14340)"/>
<path d="M12.0823 24.0428L13.6263 24.9649C13.6263 24.9649 13.652 36.5575 13.6263 36.3902L12.0823 35.4681V24.0428Z" fill="url(#paint81_linear_160_14340)"/>
<path d="M1.75925 43.338L13.6392 36.3902V35.8713L12.0823 35.4681L0.206708 41.897V42.416L1.75925 43.338Z" fill="url(#paint82_linear_160_14340)"/>
<path d="M1.75925 42.8191L13.6392 35.8713L12.0823 34.9535L0.206708 41.897L1.75925 42.8191Z" fill="url(#paint83_linear_160_14340)"/>
<path d="M47.6833 20.5303L47.5118 20.629V19.6769L47.6833 19.5825V20.5303Z" fill="#492E02"/>
<path d="M48.0564 20.3203L47.8848 20.4189V19.4668L48.0564 19.3724V20.3203Z" fill="#492E02"/>
<path d="M48.4253 20.1101L48.2537 20.2087V19.2566L48.4253 19.1622V20.1101Z" fill="#492E02"/>
<path d="M48.7983 19.9L48.6268 19.9986V19.0465L48.7983 18.9521V19.9Z" fill="#492E02"/>
<path d="M49.1716 19.6898L49.0001 19.7884V18.8363L49.1716 18.7419V19.6898Z" fill="#492E02"/>
<path d="M49.5447 19.4797L49.3731 19.5783V18.6262L49.5447 18.5319V19.4797Z" fill="#492E02"/>
<path d="M49.9177 19.2695L49.7462 19.3681V18.416L49.9177 18.3217V19.2695Z" fill="#492E02"/>
<path d="M50.291 19.0593L50.1195 19.1579V18.2058L50.291 18.1115V19.0593Z" fill="#492E02"/>
<path d="M50.6641 18.8492L50.4925 18.9478V17.9957L50.6641 17.9014V18.8492Z" fill="#492E02"/>
<path d="M51.0371 18.639L50.8656 18.7376V17.7855L51.0371 17.6912V18.639Z" fill="#492E02"/>
<path d="M52.9885 18.8448L45.0114 23.1636L42.9399 22.0014" stroke="#753D10" stroke-width="0.1" stroke-miterlimit="10"/>
<path d="M26.9341 4.70483L26.8526 5.37388L36.3737 10.8421L36.8669 10.336L26.9341 4.70483Z" fill="url(#paint84_linear_160_14340)"/>
</g>
<defs>
<linearGradient id="paint0_linear_160_14340" x1="43.8278" y1="26.2172" x2="51.4618" y2="26.2172" gradientUnits="userSpaceOnUse">
<stop stop-color="#303030"/>
<stop offset="1" stop-color="#383838"/>
</linearGradient>
<linearGradient id="paint1_linear_160_14340" x1="50.1222" y1="29.1427" x2="48.0851" y2="24.5623" gradientUnits="userSpaceOnUse">
<stop stop-color="#303030"/>
<stop offset="1" stop-color="#727272"/>
</linearGradient>
<linearGradient id="paint2_linear_160_14340" x1="51.5777" y1="24.5146" x2="48.0694" y2="29.9571" gradientUnits="userSpaceOnUse">
<stop stop-color="#303030"/>
<stop offset="1" stop-color="#383838"/>
</linearGradient>
<linearGradient id="paint3_linear_160_14340" x1="47.3316" y1="29.1209" x2="50.7841" y2="23.9529" gradientUnits="userSpaceOnUse">
<stop stop-color="#303030"/>
<stop offset="1" stop-color="#727272"/>
</linearGradient>
<linearGradient id="paint4_linear_160_14340" x1="48.1251" y1="26.8134" x2="50.0508" y2="26.8134" gradientUnits="userSpaceOnUse">
<stop stop-color="#303030"/>
<stop offset="1" stop-color="#383838"/>
</linearGradient>
<linearGradient id="paint5_linear_160_14340" x1="49.712" y1="27.5511" x2="49.2017" y2="26.3932" gradientUnits="userSpaceOnUse">
<stop stop-color="#303030"/>
<stop offset="1" stop-color="#727272"/>
</linearGradient>
<linearGradient id="paint6_linear_160_14340" x1="21.4832" y1="24.3046" x2="24.8714" y2="20.1873" gradientUnits="userSpaceOnUse">
<stop stop-color="#FFBC00"/>
<stop offset="1" stop-color="#FF9A21"/>
</linearGradient>
<linearGradient id="paint7_linear_160_14340" x1="11.6061" y1="26.406" x2="22.521" y2="26.406" gradientUnits="userSpaceOnUse">
<stop stop-color="#303030"/>
<stop offset="1" stop-color="#383838"/>
</linearGradient>
<linearGradient id="paint8_linear_160_14340" x1="20.603" y1="30.5893" x2="17.6952" y2="24.0361" gradientUnits="userSpaceOnUse">
<stop stop-color="#303030"/>
<stop offset="1" stop-color="#727272"/>
</linearGradient>
<linearGradient id="paint9_linear_160_14340" x1="22.6841" y1="23.97" x2="17.6705" y2="31.7498" gradientUnits="userSpaceOnUse">
<stop stop-color="#303030"/>
<stop offset="1" stop-color="#383838"/>
</linearGradient>
<linearGradient id="paint10_linear_160_14340" x1="16.6154" y1="30.5575" x2="21.5518" y2="23.1637" gradientUnits="userSpaceOnUse">
<stop stop-color="#303030"/>
<stop offset="1" stop-color="#727272"/>
</linearGradient>
<linearGradient id="paint11_linear_160_14340" x1="17.7478" y1="27.2595" x2="20.5055" y2="27.2595" gradientUnits="userSpaceOnUse">
<stop stop-color="#303030"/>
<stop offset="1" stop-color="#383838"/>
</linearGradient>
<linearGradient id="paint12_linear_160_14340" x1="20.0208" y1="28.3145" x2="19.2874" y2="26.659" gradientUnits="userSpaceOnUse">
<stop stop-color="#303030"/>
<stop offset="1" stop-color="#727272"/>
</linearGradient>
<linearGradient id="paint13_linear_160_14340" x1="17.0486" y1="21.4224" x2="21.4917" y2="16.0185" gradientUnits="userSpaceOnUse">
<stop stop-color="#FFBC00"/>
<stop offset="1" stop-color="#FF9A21"/>
</linearGradient>
<linearGradient id="paint14_linear_160_14340" x1="20.9815" y1="24.4332" x2="25.429" y2="19.0207" gradientUnits="userSpaceOnUse">
<stop stop-color="#C66610"/>
<stop offset="1" stop-color="#F6921E"/>
</linearGradient>
<linearGradient id="paint15_linear_160_14340" x1="15.1874" y1="22.276" x2="16.2167" y2="21.0279" gradientUnits="userSpaceOnUse">
<stop stop-color="#FFBC00"/>
<stop offset="1" stop-color="#FF9A21"/>
</linearGradient>
<linearGradient id="paint16_linear_160_14340" x1="40.2166" y1="16.9364" x2="45.9764" y2="9.93713" gradientUnits="userSpaceOnUse">
<stop stop-color="#FFBC00"/>
<stop offset="1" stop-color="#FF9A21"/>
</linearGradient>
<linearGradient id="paint17_linear_160_14340" x1="41.5076" y1="32.1315" x2="53.8979" y2="17.0693" gradientUnits="userSpaceOnUse">
<stop stop-color="#C66610"/>
<stop offset="1" stop-color="#F6921E"/>
</linearGradient>
<linearGradient id="paint18_linear_160_14340" x1="22.5083" y1="11.3567" x2="34.2725" y2="11.3567" gradientUnits="userSpaceOnUse">
<stop stop-color="#404040"/>
<stop offset="1" stop-color="#282828"/>
</linearGradient>
<linearGradient id="paint19_linear_160_14340" x1="33.4875" y1="19.2266" x2="25.9907" y2="3.22091" gradientUnits="userSpaceOnUse">
<stop stop-color="#404040"/>
<stop offset="1" stop-color="#727272"/>
</linearGradient>
<linearGradient id="paint20_linear_160_14340" x1="42.5367" y1="13.5139" x2="34.7526" y2="15.9328" gradientUnits="userSpaceOnUse">
<stop stop-color="#404040"/>
<stop offset="1" stop-color="#727272"/>
</linearGradient>
<linearGradient id="paint21_linear_160_14340" x1="41.3018" y1="14.0714" x2="34.5941" y2="16.1515" gradientUnits="userSpaceOnUse">
<stop stop-color="#404040"/>
<stop offset="1" stop-color="#282828"/>
</linearGradient>
<linearGradient id="paint22_linear_160_14340" x1="28.9027" y1="16.4689" x2="42.5368" y2="16.4689" gradientUnits="userSpaceOnUse">
<stop stop-color="#404040"/>
<stop offset="1" stop-color="#727272"/>
</linearGradient>
<linearGradient id="paint23_linear_160_14340" x1="38.2052" y1="17.5068" x2="30.4254" y2="19.9214" gradientUnits="userSpaceOnUse">
<stop stop-color="#404040"/>
<stop offset="1" stop-color="#282828"/>
</linearGradient>
<linearGradient id="paint24_linear_160_14340" x1="25.2358" y1="21.3067" x2="38.3981" y2="21.3067" gradientUnits="userSpaceOnUse">
<stop stop-color="#404040"/>
<stop offset="1" stop-color="#727272"/>
</linearGradient>
<linearGradient id="paint25_linear_160_14340" x1="34.0536" y1="8.9592" x2="43.9135" y2="8.9592" gradientUnits="userSpaceOnUse">
<stop stop-color="#404040"/>
<stop offset="1" stop-color="#727272"/>
</linearGradient>
<linearGradient id="paint26_linear_160_14340" x1="41.0272" y1="11.7684" x2="41.143" y2="11.7684" gradientUnits="userSpaceOnUse">
<stop stop-color="#404040"/>
<stop offset="1" stop-color="#727272"/>
</linearGradient>
<linearGradient id="paint27_linear_160_14340" x1="34.7569" y1="16.6276" x2="39.6075" y2="10.7305" gradientUnits="userSpaceOnUse">
<stop stop-color="#404040"/>
<stop offset="1" stop-color="#727272"/>
</linearGradient>
<linearGradient id="paint28_linear_160_14340" x1="36.867" y1="15.3925" x2="41.2116" y2="15.3925" gradientUnits="userSpaceOnUse">
<stop stop-color="#404040"/>
<stop offset="1" stop-color="#282828"/>
</linearGradient>
<linearGradient id="paint29_linear_160_14340" x1="37.8707" y1="13.188" x2="38.6126" y2="10.8335" gradientUnits="userSpaceOnUse">
<stop stop-color="#404040"/>
<stop offset="1" stop-color="#727272"/>
</linearGradient>
<linearGradient id="paint30_linear_160_14340" x1="34.2852" y1="17.6569" x2="35.2116" y2="16.5289" gradientUnits="userSpaceOnUse">
<stop stop-color="#404040"/>
<stop offset="1" stop-color="#282828"/>
</linearGradient>
<linearGradient id="paint31_linear_160_14340" x1="37.9693" y1="11.2623" x2="38.9557" y2="10.0615" gradientUnits="userSpaceOnUse">
<stop stop-color="#404040"/>
<stop offset="1" stop-color="#727272"/>
</linearGradient>
<linearGradient id="paint32_linear_160_14340" x1="22.8813" y1="13.7455" x2="37.5575" y2="13.7455" gradientUnits="userSpaceOnUse">
<stop stop-color="#404040"/>
<stop offset="1" stop-color="#727272"/>
</linearGradient>
<linearGradient id="paint33_linear_160_14340" x1="33.3032" y1="14.5132" x2="44.6685" y2="14.5132" gradientUnits="userSpaceOnUse">
<stop stop-color="#404040"/>
<stop offset="1" stop-color="#727272"/>
</linearGradient>
<linearGradient id="paint34_linear_160_14340" x1="22.8813" y1="23.005" x2="38.145" y2="23.005" gradientUnits="userSpaceOnUse">
<stop stop-color="#404040"/>
<stop offset="1" stop-color="#727272"/>
</linearGradient>
<linearGradient id="paint35_linear_160_14340" x1="27.2903" y1="5.25805" x2="44.6685" y2="5.25805" gradientUnits="userSpaceOnUse">
<stop stop-color="#404040"/>
<stop offset="1" stop-color="#727272"/>
</linearGradient>
<linearGradient id="paint36_linear_160_14340" x1="32.9043" y1="17.1379" x2="44.6685" y2="17.1379" gradientUnits="userSpaceOnUse">
<stop stop-color="#404040"/>
<stop offset="1" stop-color="#282828"/>
</linearGradient>
<linearGradient id="paint37_linear_160_14340" x1="43.8835" y1="25.0079" x2="36.3867" y2="9.00216" gradientUnits="userSpaceOnUse">
<stop stop-color="#404040"/>
<stop offset="1" stop-color="#727272"/>
</linearGradient>
<linearGradient id="paint38_linear_160_14340" x1="35.5675" y1="23.1809" x2="42.5368" y2="23.1809" gradientUnits="userSpaceOnUse">
<stop stop-color="#404040"/>
<stop offset="1" stop-color="#727272"/>
</linearGradient>
<linearGradient id="paint39_linear_160_14340" x1="35.8335" y1="6.2101" x2="29.3789" y2="8.21296" gradientUnits="userSpaceOnUse">
<stop stop-color="#404040"/>
<stop offset="1" stop-color="#727272"/>
</linearGradient>
<linearGradient id="paint40_linear_160_14340" x1="31.7249" y1="18.6819" x2="25.2917" y2="20.6762" gradientUnits="userSpaceOnUse">
<stop stop-color="#404040"/>
<stop offset="1" stop-color="#727272"/>
</linearGradient>
<linearGradient id="paint41_linear_160_14340" x1="31.832" y1="18.4546" x2="25.4418" y2="20.4361" gradientUnits="userSpaceOnUse">
<stop stop-color="#404040"/>
<stop offset="1" stop-color="#282828"/>
</linearGradient>
<linearGradient id="paint42_linear_160_14340" x1="43.2187" y1="1.8356" x2="36.0565" y2="4.05718" gradientUnits="userSpaceOnUse">
<stop stop-color="#404040"/>
<stop offset="1" stop-color="#282828"/>
</linearGradient>
<linearGradient id="paint43_linear_160_14340" x1="42.2366" y1="25.0851" x2="46.1051" y2="20.3803" gradientUnits="userSpaceOnUse">
<stop stop-color="#FFBC00"/>
<stop offset="1" stop-color="#FF9A21"/>
</linearGradient>
<linearGradient id="paint44_linear_160_14340" x1="39.3288" y1="30.5918" x2="42.7813" y2="26.3974" gradientUnits="userSpaceOnUse">
<stop stop-color="#FFBC00"/>
<stop offset="1" stop-color="#FF9A21"/>
</linearGradient>
<linearGradient id="paint45_linear_160_14340" x1="23.7178" y1="27.5811" x2="19.6734" y2="38.0972" gradientUnits="userSpaceOnUse">
<stop stop-color="#C66610"/>
<stop offset="1" stop-color="#F6921E"/>
</linearGradient>
<linearGradient id="paint46_linear_160_14340" x1="27.0373" y1="29.9829" x2="25.2789" y2="20.895" gradientUnits="userSpaceOnUse">
<stop stop-color="#FFBC00"/>
<stop offset="1" stop-color="#FF9A21"/>
</linearGradient>
<linearGradient id="paint47_linear_160_14340" x1="30.4745" y1="25.9746" x2="30.8882" y2="23.7745" gradientUnits="userSpaceOnUse">
<stop stop-color="#303030"/>
<stop offset="1" stop-color="#727272"/>
</linearGradient>
<linearGradient id="paint48_linear_160_14340" x1="28.3922" y1="23.2397" x2="28.6203" y2="25.4384" gradientUnits="userSpaceOnUse">
<stop stop-color="#303030"/>
<stop offset="1" stop-color="#727272"/>
</linearGradient>
<linearGradient id="paint49_linear_160_14340" x1="28.1018" y1="26.4311" x2="28.392" y2="24.8894" gradientUnits="userSpaceOnUse">
<stop stop-color="#DBDBDB"/>
<stop offset="1" stop-color="#F7F7F7"/>
</linearGradient>
<linearGradient id="paint50_linear_160_14340" x1="26.3936" y1="24.4666" x2="26.5464" y2="25.9247" gradientUnits="userSpaceOnUse">
<stop stop-color="#DBDBDB"/>
<stop offset="1" stop-color="#F7F7F7"/>
</linearGradient>
<linearGradient id="paint51_linear_160_14340" x1="22.4894" y1="21.8154" x2="22.9032" y2="19.6152" gradientUnits="userSpaceOnUse">
<stop stop-color="#303030"/>
<stop offset="1" stop-color="#727272"/>
</linearGradient>
<linearGradient id="paint52_linear_160_14340" x1="20.4114" y1="19.0812" x2="20.6394" y2="21.2799" gradientUnits="userSpaceOnUse">
<stop stop-color="#303030"/>
<stop offset="1" stop-color="#727272"/>
</linearGradient>
<linearGradient id="paint53_linear_160_14340" x1="18.6088" y1="21.9758" x2="18.9033" y2="20.4116" gradientUnits="userSpaceOnUse">
<stop stop-color="#DBDBDB"/>
<stop offset="1" stop-color="#F7F7F7"/>
</linearGradient>
<linearGradient id="paint54_linear_160_14340" x1="15.4262" y1="19.7144" x2="15.5752" y2="21.1718" gradientUnits="userSpaceOnUse">
<stop stop-color="#DBDBDB"/>
<stop offset="1" stop-color="#F7F7F7"/>
</linearGradient>
<linearGradient id="paint55_linear_160_14340" x1="31.6177" y1="32.1401" x2="30.4683" y2="26.2045" gradientUnits="userSpaceOnUse">
<stop stop-color="#C66610"/>
<stop offset="1" stop-color="#F6921E"/>
</linearGradient>
<linearGradient id="paint56_linear_160_14340" x1="35.8249" y1="32.2773" x2="39.213" y2="28.1558" gradientUnits="userSpaceOnUse">
<stop stop-color="#FFBC00"/>
<stop offset="1" stop-color="#FF9A21"/>
</linearGradient>
<linearGradient id="paint57_linear_160_14340" x1="25.9479" y1="34.3788" x2="36.8628" y2="34.3788" gradientUnits="userSpaceOnUse">
<stop stop-color="#303030"/>
<stop offset="1" stop-color="#383838"/>
</linearGradient>
<linearGradient id="paint58_linear_160_14340" x1="34.9467" y1="38.5656" x2="32.0346" y2="32.0123" gradientUnits="userSpaceOnUse">
<stop stop-color="#303030"/>
<stop offset="1" stop-color="#727272"/>
</linearGradient>
<linearGradient id="paint59_linear_160_14340" x1="37.0214" y1="31.9385" x2="32.0121" y2="39.7226" gradientUnits="userSpaceOnUse">
<stop stop-color="#303030"/>
<stop offset="1" stop-color="#383838"/>
</linearGradient>
<linearGradient id="paint60_linear_160_14340" x1="30.9571" y1="38.5261" x2="35.8935" y2="31.1366" gradientUnits="userSpaceOnUse">
<stop stop-color="#303030"/>
<stop offset="1" stop-color="#727272"/>
</linearGradient>
<linearGradient id="paint61_linear_160_14340" x1="32.0895" y1="35.228" x2="34.8429" y2="35.228" gradientUnits="userSpaceOnUse">
<stop stop-color="#303030"/>
<stop offset="1" stop-color="#383838"/>
</linearGradient>
<linearGradient id="paint62_linear_160_14340" x1="34.3625" y1="36.2831" x2="33.6248" y2="34.6276" gradientUnits="userSpaceOnUse">
<stop stop-color="#303030"/>
<stop offset="1" stop-color="#727272"/>
</linearGradient>
<linearGradient id="paint63_linear_160_14340" x1="33.3717" y1="30.8535" x2="33.2259" y2="26.3803" gradientUnits="userSpaceOnUse">
<stop stop-color="#FFBC00"/>
<stop offset="1" stop-color="#FF9A21"/>
</linearGradient>
<linearGradient id="paint64_linear_160_14340" x1="35.3188" y1="32.4017" x2="39.7705" y2="26.9935" gradientUnits="userSpaceOnUse">
<stop stop-color="#C66610"/>
<stop offset="1" stop-color="#F6921E"/>
</linearGradient>
<linearGradient id="paint65_linear_160_14340" x1="27.539" y1="27.7227" x2="31.6133" y2="31.0936" gradientUnits="userSpaceOnUse">
<stop stop-color="#FFBC00"/>
<stop offset="1" stop-color="#FF9A21"/>
</linearGradient>
<linearGradient id="paint66_linear_160_14340" x1="13.8192" y1="28.9192" x2="28.4568" y2="11.1294" gradientUnits="userSpaceOnUse">
<stop stop-color="#404040"/>
<stop offset="1" stop-color="#727272"/>
</linearGradient>
<linearGradient id="paint67_linear_160_14340" x1="13" y1="28.9235" x2="26.9171" y2="12.0129" gradientUnits="userSpaceOnUse">
<stop stop-color="#404040"/>
<stop offset="1" stop-color="#282828"/>
</linearGradient>
<linearGradient id="paint68_linear_160_14340" x1="28.0837" y1="8.23447" x2="15.9422" y2="5.48107" gradientUnits="userSpaceOnUse">
<stop stop-color="#404040"/>
<stop offset="1" stop-color="#727272"/>
</linearGradient>
<linearGradient id="paint69_linear_160_14340" x1="20.9472" y1="31.96" x2="34.221" y2="15.8257" gradientUnits="userSpaceOnUse">
<stop stop-color="#404040"/>
<stop offset="1" stop-color="#727272"/>
</linearGradient>
<linearGradient id="paint70_linear_160_14340" x1="18.4767" y1="22.1987" x2="18.9099" y2="22.1987" gradientUnits="userSpaceOnUse">
<stop stop-color="#404040"/>
<stop offset="1" stop-color="#282828"/>
</linearGradient>
<linearGradient id="paint71_linear_160_14340" x1="14.9642" y1="33.3924" x2="23.1429" y2="23.4553" gradientUnits="userSpaceOnUse">
<stop stop-color="#404040"/>
<stop offset="1" stop-color="#727272"/>
</linearGradient>
<linearGradient id="paint72_linear_160_14340" x1="13.9521" y1="34.04" x2="22.1265" y2="24.1029" gradientUnits="userSpaceOnUse">
<stop stop-color="#404040"/>
<stop offset="1" stop-color="#282828"/>
</linearGradient>
<linearGradient id="paint73_linear_160_14340" x1="26.6768" y1="25.1751" x2="11.9277" y2="19.5954" gradientUnits="userSpaceOnUse">
<stop stop-color="#404040"/>
<stop offset="1" stop-color="#727272"/>
</linearGradient>
<linearGradient id="paint74_linear_160_14340" x1="16.9028" y1="31.5911" x2="18.7856" y2="29.3052" gradientUnits="userSpaceOnUse">
<stop stop-color="#404040"/>
<stop offset="1" stop-color="#727272"/>
</linearGradient>
<linearGradient id="paint75_linear_160_14340" x1="16.4954" y1="32.4531" x2="18.6054" y2="29.8884" gradientUnits="userSpaceOnUse">
<stop stop-color="#404040"/>
<stop offset="1" stop-color="#282828"/>
</linearGradient>
<linearGradient id="paint76_linear_160_14340" x1="18.5797" y1="38.2516" x2="24.5582" y2="30.9864" gradientUnits="userSpaceOnUse">
<stop stop-color="#404040"/>
<stop offset="1" stop-color="#727272"/>
</linearGradient>
<linearGradient id="paint77_linear_160_14340" x1="18.3266" y1="38.3932" x2="24.1036" y2="31.3724" gradientUnits="userSpaceOnUse">
<stop stop-color="#404040"/>
<stop offset="1" stop-color="#282828"/>
</linearGradient>
<linearGradient id="paint78_linear_160_14340" x1="10.9629" y1="49.0551" x2="19.5962" y2="38.5647" gradientUnits="userSpaceOnUse">
<stop stop-color="#404040"/>
<stop offset="1" stop-color="#727272"/>
</linearGradient>
<linearGradient id="paint79_linear_160_14340" x1="19.8364" y1="38.702" x2="13.5619" y2="45.3839" gradientUnits="userSpaceOnUse">
<stop stop-color="#404040"/>
<stop offset="1" stop-color="#727272"/>
</linearGradient>
<linearGradient id="paint80_linear_160_14340" x1="10.2209" y1="33.5854" x2="16.1994" y2="26.3202" gradientUnits="userSpaceOnUse">
<stop stop-color="#404040"/>
<stop offset="1" stop-color="#727272"/>
</linearGradient>
<linearGradient id="paint81_linear_160_14340" x1="9.96793" y1="33.7269" x2="15.7449" y2="26.7062" gradientUnits="userSpaceOnUse">
<stop stop-color="#404040"/>
<stop offset="1" stop-color="#282828"/>
</linearGradient>
<linearGradient id="paint82_linear_160_14340" x1="2.60842" y1="44.3888" x2="11.2417" y2="33.8984" gradientUnits="userSpaceOnUse">
<stop stop-color="#404040"/>
<stop offset="1" stop-color="#727272"/>
</linearGradient>
<linearGradient id="paint83_linear_160_14340" x1="11.4819" y1="34.0357" x2="5.20314" y2="40.7176" gradientUnits="userSpaceOnUse">
<stop stop-color="#404040"/>
<stop offset="1" stop-color="#727272"/>
</linearGradient>
<linearGradient id="paint84_linear_160_14340" x1="35.5589" y1="6.56187" x2="29.1772" y2="8.54329" gradientUnits="userSpaceOnUse">
<stop stop-color="#404040"/>
<stop offset="1" stop-color="#282828"/>
</linearGradient>
<clipPath id="clip0_160_14340">
<rect width="54.7934" height="48" fill="white" transform="matrix(-1 0 0 1 55 0)"/>
</clipPath>
</defs>
</svg>
