<svg width="56" height="52" viewBox="0 0 56 52" fill="none" xmlns="http://www.w3.org/2000/svg">
<g clip-path="url(#clip0_160_15533)">
<g style="mix-blend-mode:multiply">
<path d="M16.8924 50.5448L54.7354 28.6956C56.6703 27.5776 56.352 25.4935 54.0229 24.0402L46.8328 19.5341C44.5037 18.0809 41.0481 17.8077 39.1132 18.923L1.27015 40.7721C-0.664673 41.8902 -0.346428 43.9743 1.98268 45.4275L9.17278 49.9336C11.5019 51.3869 14.9575 51.66 16.8924 50.5448Z" fill="#EAEAEA"/>
</g>
<path d="M46.1964 28.2478L42.6337 26.2708L46.3992 25.7159L46.1964 28.2478Z" fill="#3A4044"/>
<path d="M50.8123 21.2351L46.2751 23.8402L42.6477 21.7561L47.1904 19.1454L50.8123 21.2351Z" fill="#851F1F"/>
<path d="M50.8179 21.2407L47.2777 27.431L43.6503 25.347L42.6477 23.3445V21.7561L46.2751 23.8402L50.8122 21.2351L50.8179 21.2407Z" fill="#3A4044"/>
<path d="M50.8179 21.2351V25.3977L47.2777 27.431L46.2751 25.4286V23.8402L50.8122 21.2351H50.8179Z" fill="#C13F3C"/>
<path d="M46.2751 23.8403V25.4287L42.6477 23.3446V21.7562L46.2751 23.8403Z" fill="#630B0B"/>
<path d="M39.6625 32.185L35.6295 29.0307C35.6295 29.0307 38.1192 27.6564 40.0568 26.068C41.9269 24.5359 39.5358 22.1871 40.6567 22.3222C40.9299 22.356 41.2791 22.5898 41.5241 22.7334L45.9655 26.1778L46.3513 27.6676C46.3513 27.6676 45.1685 25.0118 42.7295 26.5721C40.9806 27.6902 40.8285 28.3943 40.5947 29.2476C40.4089 29.9376 39.6653 32.1822 39.6653 32.1822L39.6625 32.185Z" fill="#3A4044"/>
<path d="M11.0879 35.0014L22.3757 41.4931V38.781L11.0879 32.2893V35.0014Z" fill="#3A4044"/>
<path d="M32.0781 20.2157L38.8401 29.2702L22.3758 38.781L11.0879 32.2893L32.0781 20.2157Z" fill="#FE9310"/>
<path d="M38.8401 32.0048L22.3758 41.493V38.7584L38.8401 29.2701V32.0048Z" fill="#666666"/>
<path d="M10.5781 32.7878L22.2236 39.4822V37.7981L10.5781 31.1008V32.7878Z" fill="#630B0B"/>
<path d="M32.233 18.647L39.3499 27.9071L22.2237 37.7981L10.5782 31.1008L32.233 18.647Z" fill="#851F1F"/>
<path d="M39.3499 29.6138L22.2237 39.4822V37.7784L39.3499 27.9071V29.6138Z" fill="#B53633"/>
<path d="M21.5647 40.9214L20.7902 42.1831L18.9033 45.2642L17.9711 46.785L16.7375 46.0696C16.7375 46.0696 16.7178 46.0584 16.7065 46.0527L16.6699 46.0302C16.3995 45.8528 16.2024 45.5599 16.101 45.174C16.0897 45.1318 16.0813 45.0924 16.07 45.0501C16.0644 45.022 16.0588 44.991 16.0559 44.9628C16.0475 44.9149 16.0419 44.8671 16.0362 44.8192C16.0362 44.7938 16.0306 44.7685 16.0278 44.7403C16.0222 44.6643 16.0193 44.5826 16.0193 44.5009C16.039 42.9632 17.1571 41.0988 18.5202 40.3356C18.5963 40.2933 18.6695 40.2567 18.7427 40.2229C19.3285 39.9526 19.8524 39.9469 20.2438 40.1666V40.161L21.5591 40.9214H21.5647Z" fill="url(#paint0_linear_160_15533)"/>
<path d="M22.218 42.4619C22.1983 43.9996 21.0802 45.864 19.7171 46.6273C18.354 47.3905 17.2641 46.7624 17.2838 45.2247C17.3035 43.687 18.4216 41.8226 19.7847 41.0594C21.1478 40.2961 22.2377 40.9242 22.218 42.4619Z" fill="#555D69"/>
<path d="M21.4971 42.8618C21.4971 43.0082 21.4802 43.1575 21.452 43.3096C21.3675 43.7602 21.1732 44.2277 20.9085 44.6445C20.7423 44.9064 20.5451 45.1486 20.3311 45.357C20.1424 45.5401 19.9368 45.6978 19.7256 45.8161C19.5594 45.909 19.3961 45.9738 19.244 46.0104C18.9708 46.0752 18.7258 46.0498 18.5258 45.9485C18.5202 45.9456 18.5146 45.94 18.5089 45.9372C18.4357 45.8978 18.3681 45.8443 18.3062 45.7795C18.2611 45.7288 18.2189 45.6753 18.1851 45.6133C18.1682 45.588 18.1541 45.557 18.1428 45.5288C18.1118 45.4697 18.0865 45.4049 18.0696 45.3345C18.0611 45.3148 18.0583 45.2951 18.0527 45.2754C18.0358 45.2106 18.0245 45.1402 18.0161 45.0613C18.0076 44.9853 18.002 44.9064 18.0048 44.8191C18.0048 44.7938 18.0048 44.7684 18.0076 44.7403C18.0104 44.636 18.0189 44.5347 18.0386 44.4305C18.0527 44.3431 18.0724 44.253 18.0978 44.1629C18.1316 44.0305 18.1766 43.8982 18.2273 43.763C18.3005 43.5743 18.3878 43.3912 18.492 43.211C18.492 43.211 18.492 43.211 18.492 43.2082C18.5174 43.1631 18.5427 43.118 18.5709 43.073C18.7089 42.8561 18.8638 42.6449 19.0384 42.4618C19.0384 42.4618 19.0394 42.4609 19.0412 42.459C19.0722 42.4224 19.106 42.3858 19.1426 42.352C19.2834 42.2112 19.4327 42.0844 19.5904 41.9802C19.6496 41.938 19.7115 41.9014 19.7763 41.8648C19.8326 41.8338 19.8861 41.8056 19.9396 41.7803C20.0072 41.7493 20.0748 41.724 20.1368 41.7042C20.1847 41.6902 20.2297 41.6789 20.272 41.6676C20.3396 41.6535 20.4071 41.6423 20.4691 41.6395C20.562 41.631 20.6494 41.6367 20.731 41.6507C20.8211 41.6676 20.9056 41.6958 20.9817 41.738C21.2183 41.8648 21.3872 42.107 21.4576 42.4478C21.483 42.5689 21.4971 42.7069 21.4943 42.8561L21.4971 42.8618Z" fill="#AEAEAE"/>
<path d="M20.1987 42.2225C20.1987 42.369 20.1818 42.5183 20.1537 42.6703C20.0692 43.121 19.8749 43.5885 19.6101 44.0053C19.444 44.2672 19.2468 44.5094 19.0328 44.7178C18.8441 44.9009 18.6385 45.0586 18.4273 45.1769C18.3062 45.2473 18.1822 45.298 18.0668 45.3374C18.0583 45.3177 18.033 45.1966 18.0273 45.1741C18.0104 45.1093 18.0189 45.1403 18.0133 45.0642C18.0048 44.9882 17.9992 44.9093 18.002 44.822C18.002 44.6953 18.0133 44.5657 18.0358 44.4334C18.0499 44.3461 18.0696 44.2559 18.0949 44.1658C18.1794 43.8419 18.3146 43.5181 18.4892 43.2111C18.5146 43.166 18.5399 43.121 18.5681 43.0759C18.7061 42.8562 18.8638 42.6478 19.0384 42.4619C19.0694 42.4253 19.1032 42.3887 19.1398 42.3549C19.3369 42.1578 19.5482 41.9916 19.7735 41.8677C19.8298 41.8367 19.8833 41.8085 19.9368 41.7832C20.0044 41.7522 20.072 41.7269 20.134 41.7072C20.1452 41.7409 20.1537 41.7776 20.1593 41.8114C20.1846 41.9325 20.1987 42.0705 20.1959 42.2197L20.1987 42.2225Z" fill="#3A4044"/>
<path d="M20.8747 41.6958C21.1084 41.8986 21.2436 42.245 21.238 42.7097C21.2239 43.7996 20.4297 45.1205 19.4637 45.6612C19.0441 45.8978 18.6611 45.9456 18.3625 45.8358C18.678 46.1118 19.168 46.1287 19.7228 45.8161C20.6888 45.2754 21.483 43.9545 21.4971 42.8646C21.5056 42.2478 21.2605 41.8394 20.8747 41.6958Z" fill="url(#paint1_linear_160_15533)"/>
<path d="M21.0239 42.9998L19.9339 43.6278L20.4381 45.2529C20.4099 45.3345 20.1142 45.1599 20.1142 45.1599L19.3622 44.3516L18.813 45.6978C18.6384 45.7401 18.7567 46.0161 18.6103 45.9879C18.4019 45.9147 18.2808 45.7514 18.2808 45.7514L18.6046 44.3967L18.0048 44.7431C18.0076 44.6389 18.016 44.5375 18.0357 44.4333C18.0498 44.346 18.1061 44.0475 18.185 43.87L18.7004 43.4927L18.5258 43.1491C18.5258 43.1491 18.5399 43.1237 18.568 43.0787C18.706 42.8618 18.8609 42.6506 19.0355 42.4675L19.2665 42.7689L19.6974 41.9127C19.7565 41.8705 19.7086 41.9042 19.7706 41.8704C19.8269 41.8395 19.8804 41.8113 19.9339 41.786C20.0015 41.755 20.0691 41.7296 20.1311 41.7099C20.179 41.6958 20.224 41.6846 20.2663 41.6733C20.3339 41.6592 20.4015 41.648 20.4634 41.6451L20.0212 42.7238L21.1816 42.2619C21.1816 42.2619 21.4745 42.4084 21.4717 42.5576C21.4717 42.7041 21.0436 42.8477 21.0154 42.997L21.0239 42.9998Z" fill="#AEAEAE"/>
<path d="M21.4773 43.1941L20.362 43.9376L20.7704 44.8444C20.6042 45.1064 20.6324 45.0613 20.4183 45.2697L19.7903 44.6614L19.1481 46.0273C18.875 46.0921 18.8074 46.0893 18.6074 45.9879L19.0299 44.7064L18.0329 45.2162C17.9991 45.081 17.9963 44.9881 17.9991 44.8191C17.9991 44.6924 17.9991 44.6473 18.0216 44.5149L19.1284 43.7996L18.6468 42.9491C18.813 42.6843 18.8243 42.6702 19.0383 42.4618L19.6973 43.0758L20.3873 41.6507C20.6295 41.6141 20.6662 41.6085 20.8746 41.693L20.4577 43.0307L21.4801 42.5548C21.5054 42.6759 21.4998 42.7097 21.4998 42.8589C21.4998 43.0054 21.5082 43.0392 21.4801 43.1913L21.4773 43.1941Z" fill="#E0E0E0"/>
<path d="M20.134 43.6279C20.1312 43.8673 19.9566 44.1574 19.7453 44.2756C19.5341 44.3939 19.3623 44.2954 19.3651 44.056C19.368 43.8166 19.5426 43.5265 19.7538 43.4082C19.965 43.2899 20.1368 43.3885 20.134 43.6279Z" fill="#6B777F"/>
<path d="M3.35137 22.7926L9.1333 20.5311V34.303L1.72352 38.5219V31.8274L3.35137 22.7926Z" fill="#F28832"/>
<path d="M1.72348 31.8274C1.72348 31.8274 1.09826 35.7139 1.72348 38.3585C2.49516 41.6254 13.3662 45.0557 13.3662 45.0557V38.5246C13.3662 38.5246 4.61868 35.7139 1.72348 31.8274Z" fill="#CF4242"/>
<path d="M22.8884 24.8682L53.9272 7.80686L42.2817 1.10962L11.2457 18.171L22.8884 24.8682Z" fill="#F05959"/>
<path d="M22.8884 24.8682V36.9897L53.9272 19.1314V7.80688L22.8884 24.8682Z" fill="#CC3B3B"/>
<path d="M11.2457 30.2249L22.8884 36.9222V24.7472L11.2457 18.0499V30.2249Z" fill="#801B09"/>
<path d="M3.57947 36.6715C3.33727 36.4885 2.99086 36.6602 2.99931 36.9644C3.01057 37.4573 3.02184 37.9304 3.10915 38.6007C3.12886 38.7556 3.23025 38.8908 3.35417 38.9894C3.88083 39.4118 5.63822 40.6707 10.2711 42.9294C10.5217 43.0505 10.8118 42.8562 10.7893 42.5774C10.7527 42.093 10.7358 41.6114 10.7668 41.0678C10.7837 40.7721 10.6119 40.5017 10.3415 40.3834C9.09949 39.8427 5.71989 38.2994 3.57947 36.6687V36.6715Z" fill="#202A32"/>
<path d="M45.405 27.0903L44.6305 28.352L42.7436 31.4331L41.8114 32.9539L40.5778 32.2386C40.5778 32.2386 40.5581 32.2273 40.5469 32.2217L40.5102 32.1991C40.2399 32.0217 40.0427 31.7288 39.9413 31.343C39.9301 31.3007 39.9216 31.2613 39.9104 31.2191C39.9047 31.1909 39.8991 31.1599 39.8963 31.1318C39.8878 31.0839 39.8822 31.036 39.8766 30.9881C39.8766 30.9628 39.8709 30.9374 39.8681 30.9093C39.8625 30.8332 39.8597 30.7516 39.8597 30.6699C39.8794 29.1322 40.9975 27.2677 42.3606 26.5045C42.4366 26.4623 42.5098 26.4257 42.5831 26.3919C43.1689 26.1215 43.6927 26.1159 44.0842 26.3355V26.3299L45.3994 27.0903H45.405Z" fill="url(#paint2_linear_160_15533)"/>
<path d="M46.0583 28.6308C46.0386 30.1686 44.9205 32.033 43.5574 32.7962C42.1943 33.5594 41.1044 32.9314 41.1241 31.3937C41.1438 29.8559 42.2619 27.9915 43.625 27.2283C44.9881 26.4651 46.078 27.0931 46.0583 28.6308Z" fill="#555D69"/>
<path d="M45.3374 29.0336C45.3374 29.1801 45.3205 29.3293 45.2923 29.4814C45.2079 29.9349 45.0135 30.3996 44.7488 30.8164C44.5826 31.0783 44.3855 31.3205 44.1714 31.5289C43.9827 31.712 43.7772 31.8697 43.5659 31.988C43.3998 32.0809 43.2364 32.1457 43.0843 32.1823C42.8112 32.2471 42.5661 32.2217 42.3662 32.1203C42.3605 32.1175 42.3549 32.1119 42.3493 32.1091C42.276 32.0696 42.2085 32.0161 42.1465 31.9514C42.1014 31.9007 42.0592 31.8472 42.0254 31.7852C42.0085 31.7598 41.9944 31.7289 41.9831 31.7007C41.9522 31.6416 41.9268 31.5768 41.9099 31.5064C41.9015 31.4867 41.8987 31.4669 41.893 31.4472C41.8761 31.3825 41.8649 31.312 41.8564 31.2332C41.848 31.1571 41.8423 31.0783 41.8451 30.991C41.8451 30.9656 41.8451 30.9403 41.848 30.9121C41.8508 30.8079 41.8592 30.7065 41.8789 30.6023C41.893 30.515 41.9127 30.4249 41.9381 30.3348C41.9719 30.2024 42.0169 30.07 42.0676 29.9349C42.1409 29.7462 42.2282 29.5631 42.3324 29.3829C42.3324 29.3829 42.3324 29.3829 42.3324 29.38C42.3577 29.335 42.3831 29.2899 42.4112 29.2449C42.5492 29.028 42.7041 28.8168 42.8787 28.6337C42.8787 28.6337 42.8797 28.6328 42.8816 28.6309C42.9125 28.5943 42.9463 28.5577 42.9829 28.5239C43.1238 28.3831 43.273 28.2563 43.4307 28.1521C43.4899 28.1099 43.5518 28.0733 43.6166 28.0367C43.6729 28.0057 43.7265 27.9775 43.78 27.9522C43.8476 27.9212 43.9152 27.8958 43.9771 27.8761C44.025 27.862 44.0701 27.8508 44.1123 27.8395C44.1799 27.8254 44.2475 27.8142 44.3094 27.8113C44.4024 27.8029 44.4897 27.8085 44.5714 27.8226C44.6615 27.8395 44.746 27.8677 44.822 27.9099C45.0586 28.0366 45.2276 28.2789 45.298 28.6196C45.3233 28.7407 45.3374 28.8787 45.3346 29.028L45.3374 29.0336Z" fill="#AEAEAE"/>
<path d="M44.0391 28.3915C44.0391 28.5379 44.0222 28.6872 43.994 28.8393C43.9095 29.2927 43.7152 29.7574 43.4504 30.1742C43.2843 30.4361 43.0871 30.6784 42.8731 30.8868C42.6844 31.0698 42.4788 31.2275 42.2676 31.3458C42.1465 31.4162 42.0226 31.4669 41.9071 31.5064C41.8986 31.4866 41.8733 31.3655 41.8677 31.343C41.8508 31.2782 41.8592 31.3092 41.8536 31.2332C41.8451 31.1571 41.8395 31.0783 41.8423 30.991C41.8423 30.8642 41.8536 30.7347 41.8761 30.6023C41.8902 30.515 41.9099 30.4249 41.9353 30.3348C42.0198 30.0109 42.1549 29.687 42.3295 29.38C42.3549 29.335 42.3802 29.2899 42.4084 29.2448C42.5464 29.0252 42.7041 28.8168 42.8787 28.6309C42.9097 28.5943 42.9435 28.5577 42.9801 28.5239C43.1773 28.3267 43.3885 28.1605 43.6138 28.0366C43.6701 28.0056 43.7236 27.9775 43.7771 27.9521C43.8447 27.9212 43.9123 27.8958 43.9743 27.8761C43.9856 27.9099 43.994 27.9465 43.9996 27.9803C44.025 28.1014 44.0391 28.2394 44.0362 28.3887L44.0391 28.3915Z" fill="#3A4044"/>
<path d="M44.715 27.8649C44.9488 28.0676 45.084 28.4141 45.0783 28.8787C45.0643 29.9687 44.27 31.2895 43.304 31.8303C42.8844 32.0668 42.5014 32.1147 42.2029 32.0049C42.5183 32.2809 43.0083 32.2978 43.5631 31.9852C44.5291 31.4444 45.3234 30.1236 45.3374 29.0336C45.3459 28.4169 45.1009 28.0085 44.715 27.8649Z" fill="url(#paint3_linear_160_15533)"/>
<path d="M44.8642 29.1687L43.7743 29.7968L44.2784 31.4218C44.2502 31.5035 43.9545 31.3289 43.9545 31.3289L43.2026 30.5206L42.6534 31.8668C42.4788 31.909 42.597 32.185 42.4506 32.1569C42.2422 32.0836 42.1211 31.9203 42.1211 31.9203L42.445 30.5656L41.8451 30.9121C41.8479 30.8079 41.8563 30.7065 41.8761 30.6023C41.8901 30.515 41.9465 30.2164 42.0253 30.039L42.5407 29.6616L42.3661 29.318C42.3661 29.318 42.3802 29.2927 42.4084 29.2476C42.5464 29.0307 42.7013 28.8195 42.8759 28.6365L43.1068 28.9378L43.5377 28.0816C43.5968 28.0394 43.549 28.0732 43.6109 28.0394C43.6673 28.0084 43.7208 27.9803 43.7743 27.9549C43.8419 27.9239 43.9095 27.8986 43.9714 27.8789C44.0193 27.8648 44.0644 27.8535 44.1066 27.8422C44.1742 27.8282 44.2418 27.8169 44.3037 27.8141L43.8616 28.8927L45.0219 28.4309C45.0219 28.4309 45.3148 28.5773 45.312 28.7266C45.312 28.873 44.8839 29.0167 44.8557 29.1659L44.8642 29.1687Z" fill="#AEAEAE"/>
<path d="M45.3176 29.3631L44.2023 30.1067L44.6107 31.0135C44.4445 31.2754 44.4727 31.2304 44.2586 31.4388L43.6306 30.8305L42.9885 32.1964C42.7153 32.2611 42.6477 32.2583 42.4477 32.1569L42.8702 30.8755L41.8732 31.3853C41.8394 31.2501 41.8366 31.1571 41.8394 30.9882C41.8394 30.8614 41.8394 30.8164 41.8619 30.684L42.9688 29.9687L42.4872 29.1181C42.6533 28.8534 42.6646 28.8393 42.8786 28.6309L43.5377 29.2449L44.2277 27.8198C44.4699 27.7832 44.5065 27.7775 44.7149 27.862L44.2981 29.1998L45.3204 28.7238C45.3458 28.8449 45.3401 28.8787 45.3401 29.028C45.3401 29.1744 45.3486 29.2082 45.3204 29.3603L45.3176 29.3631Z" fill="#E0E0E0"/>
<path d="M43.9743 29.7968C43.9715 30.0362 43.7969 30.3263 43.5857 30.4446C43.3745 30.5629 43.2027 30.4643 43.2055 30.2249C43.2083 29.9855 43.3829 29.6954 43.5941 29.5772C43.8054 29.4589 43.9771 29.5574 43.9743 29.7968Z" fill="#6B777F"/>
<path d="M1.13205 38.6964C4.84961 41.4283 12.7748 45.3908 12.7748 45.3908L13.3662 48.2494C13.3662 48.2494 11.4736 48.9732 1.74601 42.4112C1.36018 42.1521 1.13205 41.7155 1.13205 41.2508V38.6964Z" fill="#9B9D9E"/>
<path d="M1.72359 31.8274C1.72359 31.8274 1.60531 32.2696 1.52645 33.1285C4.67793 37.0123 13.341 39.7976 13.341 39.7976L13.3691 38.5246C13.3691 38.5246 4.6216 35.7139 1.72641 31.8274H1.72359Z" fill="#3A4044"/>
<path d="M20.4521 26.2511L20.7788 39.4794C20.393 39.4935 19.779 40.13 19.365 40.3694C18.6271 40.7834 18.1709 41.7888 17.6837 42.5915C17.633 42.6788 17.5823 42.7689 17.5316 42.8534L13.3634 45.2219C13.3634 45.2219 12.648 43.3575 13.3634 38.5191C13.6985 36.2491 14.9969 29.4899 14.9969 29.4899L20.4521 26.2511Z" fill="#B53633"/>
<path d="M18.2329 37.4854C18.2329 38.1219 18.4216 38.3331 18.7962 38.1163C18.8581 38.0797 18.9116 38.0431 18.9511 38.0093V37.7502C18.906 37.7924 18.8638 37.8262 18.8243 37.8487C18.7145 37.9135 18.63 37.9191 18.5709 37.8628C18.5145 37.8093 18.4807 37.6882 18.4751 37.5051L18.4835 37.4995C18.5061 37.5474 18.5342 37.5755 18.5737 37.5868C18.6131 37.5981 18.661 37.5868 18.7145 37.5558C18.8131 37.4995 18.8891 37.4094 18.9454 37.2855C18.9989 37.1615 19.0271 37.0207 19.0271 36.8602C19.0271 36.6828 18.9905 36.5645 18.9201 36.5025C18.8497 36.4406 18.7539 36.4434 18.6328 36.5138C18.5033 36.5898 18.4019 36.7109 18.3343 36.8771C18.2639 37.0433 18.2301 37.2488 18.2301 37.4882L18.2329 37.4854ZM18.6356 36.7729C18.6751 36.7504 18.706 36.756 18.7314 36.7926C18.7539 36.8292 18.768 36.8996 18.768 37.0038C18.768 37.0911 18.7567 37.1644 18.737 37.2235C18.7173 37.2826 18.6863 37.3277 18.6441 37.3502C18.6075 37.3728 18.5737 37.3671 18.5455 37.3333C18.5173 37.2995 18.5033 37.2517 18.5033 37.1897C18.5033 37.0911 18.5145 37.0038 18.5399 36.925C18.5652 36.8461 18.5962 36.7954 18.6384 36.7729H18.6356Z" fill="#E0E0E0"/>
<path d="M17.4274 38.8824L17.6949 38.7275V37.7587C17.6949 37.6545 17.6893 37.5334 17.6808 37.4038C17.6865 37.4094 17.7034 37.4207 17.7315 37.4432C17.7625 37.4658 17.8188 37.4996 17.9033 37.5503L18.0554 37.2743L17.6668 37.0912L17.4246 37.2292V38.8824H17.4274Z" fill="#E0E0E0"/>
<path d="M16.4811 39.4286L16.7486 39.2737V38.3049C16.7486 38.2007 16.743 38.0796 16.7346 37.9501C16.7402 37.9557 16.7571 37.967 16.7852 37.9895C16.8162 38.012 16.8726 38.0458 16.957 38.0965L17.1091 37.8205L16.7205 37.6375L16.4783 37.7783V39.4315L16.4811 39.4286Z" fill="#E0E0E0"/>
<path d="M14.7971 43.0168L15.6674 42.5718C15.9856 42.4084 16.2194 42.1296 16.3264 41.786C16.5545 41.0369 17.0108 39.6935 17.5008 39.102C17.681 38.8852 17.9486 38.6402 18.2978 38.3726C19.3793 37.5474 20.0017 36.3167 20.0017 34.993V27.5889L16.608 29.2308L13.9607 37.5953V37.6066L14.2564 42.707C14.2648 42.8337 14.3324 42.9463 14.4423 43.0083C14.4986 43.0421 14.5634 43.059 14.6281 43.059C14.6873 43.059 14.7436 43.0449 14.7971 43.0168ZM16.7235 29.3294L19.8637 27.8085V34.993C19.8637 36.2744 19.2638 37.4658 18.2162 38.2628C17.8585 38.536 17.5797 38.7894 17.3938 39.0147C16.8897 39.6259 16.425 40.989 16.194 41.7466C16.1011 42.0536 15.8899 42.3042 15.6054 42.4507L14.7352 42.8956C14.6648 42.9323 14.5831 42.9294 14.5127 42.89C14.4423 42.8506 14.4 42.7802 14.3944 42.7013L14.0959 37.6263L16.7207 29.3294H16.7235Z" fill="#851F1F"/>
<path d="M21.0916 38.9359C21.0916 38.9359 19.4468 39.9216 18.7906 40.5158C18.1316 41.1101 17.2557 42.2704 17.067 42.9182C16.8783 43.5659 16.6192 44.3123 16.6615 44.9882C16.7037 45.6613 16.7628 45.7852 16.7628 45.7852L16.577 45.8894L16.1968 46.0725C16.1968 46.0725 15.4054 42.8759 17.5993 40.5947C19.6975 38.412 20.7818 38.4599 20.7818 38.4599L21.0916 38.9359Z" fill="#D2D6D9"/>
<path d="M1.72348 38.3556C1.59675 38.2402 1.13205 38.6964 1.13205 38.6964C4.40745 41.2593 12.7748 45.3908 12.7748 45.3908L13.3662 45.0529C13.3662 45.0529 4.17651 40.6172 1.72348 38.3556Z" fill="#D2D6D9"/>
<path d="M7.66602 43.5237V44.2531C7.66602 44.2784 7.66038 44.2981 7.65475 44.3179C6.95066 43.9433 6.19871 43.5124 5.44393 43.0167C5.43266 42.9914 5.42985 42.966 5.42985 42.9463V42.2169C5.42985 42.0704 5.53686 42.0197 5.66642 42.0958L7.42663 43.1237C7.55899 43.1998 7.6632 43.3828 7.6632 43.5237H7.66602Z" fill="#1E252A"/>
<path d="M5.66923 43.197C5.53968 43.1209 5.43266 42.9407 5.43266 42.7999V42.0704C5.43266 41.9268 5.53968 41.8733 5.66923 41.9493L7.42944 42.9773C7.55899 43.0533 7.66602 43.2336 7.66602 43.3744V44.1038C7.66602 44.2475 7.55899 44.301 7.42944 44.2249L5.66923 43.197Z" fill="#E0E0E0"/>
<path d="M7.42958 44.1771L5.66937 43.1491C5.56235 43.0871 5.47786 42.9407 5.47786 42.8252V42.0958C5.47786 41.9803 5.56517 41.9353 5.66937 41.9972L7.42958 43.0252C7.5366 43.0871 7.62109 43.2308 7.62109 43.3491V44.0785C7.62109 44.194 7.53379 44.239 7.42958 44.1771Z" fill="#FCF9A4"/>
<path d="M7.62096 43.3434C7.62096 43.228 7.53366 43.0871 7.42945 43.0252L5.66924 41.9972C5.56504 41.9353 5.48055 41.9775 5.47773 42.0902L7.62378 43.3434H7.62096Z" fill="#E0BA60"/>
<path d="M5.47493 42.8308C5.47493 42.9463 5.56224 43.0871 5.66644 43.1491L7.42665 44.177C7.53086 44.239 7.61535 44.1967 7.61816 44.0841L5.47211 42.8308H5.47493Z" fill="#E0BA60"/>
<path d="M12.2342 47.3313V46.692C12.2286 46.4808 12.1131 46.3033 11.9329 46.2217L10.2825 45.4669L9.96143 45.3204C9.80372 45.2472 9.60657 45.3852 9.60939 45.5655L9.61502 46.34C9.61502 46.5455 9.73331 46.7258 9.91355 46.8075L11.885 47.7087C12.0427 47.7819 12.2398 47.6439 12.237 47.4609V47.3313H12.2342Z" fill="#BDCEDF"/>
<path d="M12.1046 47.5003L10.1332 46.5991C9.95293 46.5174 9.83747 46.3372 9.83465 46.1316L9.82902 45.3571C9.82902 45.3374 9.83747 45.3233 9.8431 45.3036C9.71918 45.3177 9.60653 45.4303 9.60934 45.5655L9.61498 46.34C9.61498 46.5456 9.73326 46.7258 9.91351 46.8075L11.8849 47.7087C12.0258 47.7735 12.1891 47.6693 12.2229 47.5172C12.1835 47.5229 12.144 47.5172 12.1046 47.5003Z" fill="#6B777F"/>
<path d="M12.2286 46.6892C12.2286 46.478 12.1103 46.3006 11.9301 46.2189L10.2797 45.4641L10.1981 45.4275L10.2037 45.8781C10.2037 46.0837 10.322 46.2639 10.5022 46.3456L12.2314 47.137V46.6892H12.2286Z" fill="#E2E9EC"/>
<path d="M12.2285 45.6302C12.2285 45.419 12.1102 45.2416 11.9299 45.1599L10.2796 44.4051L9.9585 44.2587C9.80079 44.1854 9.60364 44.3235 9.60646 44.5037L9.61209 44.7008C9.61209 44.9064 9.73038 45.0867 9.91062 45.1684L11.8821 46.0696C12.0398 46.1428 12.2369 46.0048 12.2341 45.8217L12.2285 45.6274V45.6302Z" fill="#ED9F51"/>
<path d="M12.1047 45.864L10.1333 44.9628C9.95303 44.8811 9.83756 44.7009 9.83475 44.4953L9.82911 44.2981C9.82911 44.2784 9.83756 44.2643 9.84319 44.2446C9.71928 44.2587 9.60662 44.3714 9.60944 44.5065L9.61507 44.7037C9.61507 44.9093 9.73336 45.0895 9.9136 45.1712L11.885 46.0724C12.0259 46.1372 12.1948 46.0386 12.2314 45.8865C12.192 45.8922 12.1441 45.8809 12.1075 45.8612L12.1047 45.864Z" fill="#6B777F"/>
<path d="M3.79634 42.8111V42.169C3.7907 41.9577 3.68368 41.7606 3.5147 41.6451L1.97417 40.6003L1.67564 40.3975C1.52637 40.2961 1.34331 40.4003 1.34613 40.5806L1.35176 41.3551C1.35176 41.5635 1.46159 41.7606 1.63057 41.8761L3.47246 43.1265C3.62172 43.2279 3.80479 43.1237 3.80197 42.9406V42.8083L3.79634 42.8111Z" fill="#BDCEDF"/>
<path d="M3.67521 42.9575L1.83332 41.7071C1.66434 41.5916 1.55732 41.3945 1.5545 41.1861L1.54888 40.4116C1.54888 40.3919 1.55732 40.3778 1.56014 40.3609C1.44467 40.3524 1.34046 40.4454 1.34046 40.5806L1.3461 41.355C1.3461 41.5635 1.45593 41.7606 1.62491 41.8761L3.4668 43.1265C3.59917 43.2166 3.75125 43.1406 3.78223 42.9942C3.74561 42.9942 3.709 42.9801 3.67239 42.9575H3.67521Z" fill="#6B777F"/>
<path d="M3.79088 42.169C3.79088 41.9577 3.68105 41.7606 3.51207 41.6451L1.97153 40.6003L1.89549 40.5496V41.0002C1.90112 41.2086 2.00814 41.4057 2.17712 41.5212L3.7937 42.6196V42.1718L3.79088 42.169Z" fill="#E2E9EC"/>
<path d="M3.79084 41.11C3.79084 40.8988 3.681 40.7016 3.51202 40.5862L1.97149 39.5413L1.67295 39.3385C1.52369 39.2372 1.34062 39.3414 1.34344 39.5216L1.34907 39.7216C1.34907 39.93 1.45891 40.1271 1.62789 40.2426L3.46977 41.493C3.61904 41.5944 3.8021 41.4902 3.79928 41.3072L3.79365 41.11H3.79084Z" fill="#ED9F51"/>
<path d="M3.67519 41.3212L1.8333 40.0708C1.66432 39.9553 1.5573 39.7582 1.55449 39.5498L1.54886 39.3498C1.54886 39.3301 1.5573 39.316 1.56012 39.2991C1.44465 39.2907 1.34045 39.3836 1.34045 39.5188L1.34608 39.7188C1.34608 39.9272 1.45591 40.1243 1.62489 40.2398L3.46678 41.4902C3.59915 41.5804 3.75686 41.5128 3.78784 41.3663C3.75123 41.3663 3.70617 41.3438 3.67237 41.3184L3.67519 41.3212Z" fill="#6B777F"/>
<path d="M9.71623 19.8016C13.9323 21.9702 18.7651 24.9442 20.2916 25.8962C20.5141 26.0342 20.5056 26.358 20.2775 26.4876L14.9969 29.487C14.9969 29.487 6.51687 26.6538 3.35131 22.7926C3.22458 22.6377 7.06606 20.593 8.5559 19.8101C8.91921 19.6185 9.35011 19.6129 9.71623 19.8016Z" fill="#FC928B"/>
<path d="M3.35141 22.7926C3.35141 22.7926 1.23916 31.174 1.72357 31.8246C4.61876 35.7111 13.3663 38.5218 13.3663 38.5218L14.9941 29.487C14.9941 29.487 6.70285 26.4961 3.3486 22.7926H3.35141Z" fill="#3A4044"/>
<path d="M2.59939 32.0386C2.6867 32.1653 2.77964 32.2808 2.89229 32.3878C2.90355 32.3991 2.90919 32.4019 2.91764 32.4132C3.31193 32.8018 3.76535 33.1764 4.25258 33.5369C5.20168 34.241 6.28879 34.8831 7.37871 35.4492C8.03773 35.79 8.69394 36.1082 9.3248 36.3898C10.2429 36.8038 11.0963 37.1502 11.7919 37.4178C12.0848 37.5304 12.3918 37.5051 12.6453 37.3727C12.9213 37.2291 13.1325 36.9672 13.1944 36.6292C13.6028 34.379 14.4224 29.8165 14.4224 29.8165C13.9661 29.6419 13.1522 29.3208 12.1496 28.8843C11.1639 28.4534 9.99509 27.9098 8.79533 27.2762C8.29402 27.0114 7.78708 26.7326 7.28859 26.4369C7.13651 26.3468 6.98724 26.2567 6.83798 26.1637C5.97618 25.6371 5.14536 25.0653 4.4103 24.4683C4.15964 24.2683 3.91743 24.0599 3.68931 23.8459C3.6696 23.8262 3.64989 23.8064 3.63017 23.7896C3.00776 26.3355 2.44449 28.9575 2.2389 30.4474C2.15723 31.0134 2.29241 31.5795 2.60221 32.0386H2.59939Z" fill="#1E2329"/>
<path d="M2.91763 32.416L7.28857 28.5829V26.4369C6.26624 25.8342 5.2749 25.1723 4.41028 24.4683L3.59636 24.9076L2.59938 29.7573V32.0386L2.91763 32.4131V32.416Z" fill="#313942"/>
<path d="M21.0886 39.8681C21.0886 39.8681 19.7565 40.3976 19.0975 40.9918C18.4385 41.586 17.5626 42.7464 17.3739 43.3941C17.1852 44.0419 16.9261 44.7882 16.9683 45.4641C17.0106 46.1372 17.0697 46.2612 17.0697 46.2612L16.8838 46.3654L16.5036 46.5484C16.5036 46.5484 15.7122 43.3519 17.9062 41.0707C20.0043 38.888 21.0886 38.9359 21.0886 38.9359V39.8681Z" fill="#B6BBC3"/>
<path d="M14.8083 37.9164C14.4535 37.9164 14.1662 37.6291 14.1662 37.2742V36.6293L14.5802 33.582L15.0027 31.022C15.1012 30.5404 15.4054 30.132 15.8363 29.9011L18.0528 28.7098C18.1682 28.6478 18.2893 28.6168 18.4161 28.6168C18.8413 28.6168 19.1877 28.9632 19.1877 29.3885V32.8019C19.1877 33.613 18.8047 34.3959 18.1626 34.8916L17.3092 35.5535L16.8417 36.542C16.715 36.8095 16.5122 37.032 16.2531 37.1813L15.1266 37.8319C15.028 37.8882 14.9182 37.9192 14.8055 37.9192L14.8083 37.9164Z" fill="#555D69"/>
<path d="M14.5153 36.4744V37.0912C14.5153 37.3841 14.8307 37.5643 15.0842 37.4179L16.16 36.7954C16.3628 36.6772 16.5261 36.4997 16.6275 36.2885L17.0641 35.3676L17.0979 35.2943L17.9568 34.6297C18.1793 34.4551 18.3652 34.2467 18.5088 34.0129C18.7257 33.658 18.844 33.2469 18.844 32.8216V29.5631C18.844 29.1857 18.4413 28.9407 18.1061 29.1237L17.5738 29.4082L16.022 30.2418L15.9882 30.2587C15.6362 30.4474 15.3912 30.7826 15.3095 31.1712L14.9068 33.613L14.5181 36.4744H14.5153Z" fill="#1E2329"/>
<path d="M16.6642 43.1716C16.2559 43.9263 16.8755 44.0643 16.8642 44.8276C16.8642 45.0135 16.6135 45.3148 16.6389 45.481C16.6248 45.6077 16.8755 45.6105 16.8755 45.7316C16.8755 45.8217 16.8755 45.909 16.8867 45.9935L12.7777 45.388V45.0191L13.3663 44.6783L16.2587 43.0336C16.208 43.1209 16.7177 43.0843 16.667 43.1688L16.6642 43.1716Z" fill="#D2D6D9"/>
<path d="M17.5316 42.8561C17.1233 43.6109 16.8754 44.4333 16.8641 45.1993C16.8641 45.3852 16.8754 45.5626 16.9008 45.7316C16.8867 45.8584 16.8754 45.9851 16.8754 46.1062C16.8754 46.1963 16.8754 46.2836 16.8867 46.3681L13.6958 48.1734C13.2846 48.4043 12.7776 48.1086 12.7776 47.6383V45.3965L13.3663 45.0557L17.6865 42.597C17.6358 42.6844 17.5851 42.7745 17.5344 42.859L17.5316 42.8561Z" fill="#B6BBC3"/>
<path d="M11.8567 42.9209C11.8511 43.0477 11.8511 43.1688 11.8567 43.2842C9.97538 42.4591 5.46924 40.3665 2.56842 38.1613C2.56279 38.1613 2.56279 38.1557 2.55715 38.1557C2.55152 38.029 2.54589 37.9022 2.54589 37.7811C2.55152 37.7868 2.55997 37.7924 2.5656 37.7952C5.46361 40.0004 9.96975 42.0958 11.8539 42.9181L11.8567 42.9209Z" fill="#CF4242"/>
<path d="M11.8567 42.2366C11.8511 42.3633 11.8511 42.4844 11.8567 42.5999C9.97538 41.7747 5.46924 39.6822 2.56842 37.477C2.56279 37.477 2.56279 37.4714 2.55715 37.4714C2.55152 37.3446 2.54589 37.2179 2.54589 37.0968C2.55152 37.1024 2.55997 37.1081 2.5656 37.1109C5.46361 39.3161 9.96975 41.4114 11.8539 42.2338L11.8567 42.2366Z" fill="#CF4242"/>
<path d="M11.8567 41.5494C11.8511 41.6761 11.8511 41.7972 11.8567 41.9127C9.97538 41.0875 5.46924 38.9949 2.56842 36.7898C2.56279 36.7898 2.56279 36.7841 2.55715 36.7841C2.55152 36.6574 2.54589 36.5306 2.54589 36.4095C2.55152 36.4152 2.55997 36.4208 2.5656 36.4236C5.46361 38.6288 9.96975 40.7242 11.8539 41.5465L11.8567 41.5494Z" fill="#CF4242"/>
<path d="M4.46387 42.9941L4.50048 43.7348C4.50048 43.7348 5.40734 44.4023 6.80706 45.1655C8.20959 45.9288 8.59825 46.0921 8.59825 46.0921L8.80103 45.4838C8.80103 45.4838 6.31138 44.3122 4.46105 42.9941H4.46387Z" fill="#0F1921"/>
<path d="M7.06904 45.0698C5.6665 44.3065 4.76246 43.6391 4.76246 43.6391L4.73993 43.1856C4.64699 43.1237 4.55405 43.0589 4.46675 42.9969L4.50336 43.7376C4.50336 43.7376 5.41022 44.4051 6.80994 45.1683C8.21247 45.9316 8.60113 46.0949 8.60113 46.0949L8.66309 45.9062C8.42651 45.7908 7.94492 45.5485 7.06904 45.0726V45.0698Z" fill="#B6BBC3"/>
<path d="M2.11211 29.2701C2.17689 28.9632 2.2304 28.6534 2.26138 28.3464C2.28954 28.0676 2.33742 27.7493 2.20505 27.4874C2.06987 27.2198 1.80513 26.9776 1.53195 26.8622C1.39676 26.8058 1.20244 26.7692 1.07007 26.8537C0.895458 27.5381 0.751825 28.2337 0.6786 28.9378C0.636355 29.3603 0.57721 29.7855 0.580027 30.2108C0.580027 30.5825 0.495537 30.9937 0.602558 31.357C0.656068 31.5345 0.819415 31.6528 0.971497 31.7541C1.03064 31.7936 1.09823 31.8358 1.16864 31.8189C1.26721 31.7964 1.29819 31.6753 1.31509 31.5767C1.38268 31.5852 1.83893 31.9963 1.88681 31.9147C2.03044 31.6612 1.61926 31.0332 1.7826 30.791C1.90371 30.6079 2.15717 30.4783 2.22476 30.2587C2.26138 30.1404 2.24448 30.0418 2.15718 29.9658C2.06424 29.8869 1.95158 29.9348 1.99946 29.7545C2.0417 29.594 2.08113 29.4307 2.11493 29.2673L2.11211 29.2701Z" fill="#3A4044"/>
<path d="M13.9915 37.1221C14.0647 36.618 13.938 35.821 14.3576 35.4351C14.4787 35.3225 14.6364 35.3394 14.7885 35.3366C14.9687 35.3366 15.149 35.3309 15.3292 35.3225C15.5348 35.3112 15.7235 35.4154 15.884 35.5478C16.2192 35.8266 16.0953 36.4603 16.0643 36.8405C16.0249 37.3221 15.9488 37.8009 15.8925 38.2825C15.8643 38.5303 15.8418 38.7838 15.746 39.0147C15.5855 39.4005 15.1321 39.471 14.7603 39.485C14.5604 39.4935 14.3407 39.4569 14.2055 39.2992C14.1041 39.1781 14.0872 39.0513 14.0985 38.9049C14.1126 38.7049 14.1097 38.5021 14.1154 38.3022C14.1154 38.2487 14.1154 38.1923 14.0985 38.1416C14.0929 38.1276 14.0872 38.1107 14.0731 38.1022C14.0562 38.0909 14.0337 38.0909 14.014 38.0938C13.8478 38.1135 13.7098 38.2402 13.5662 38.3163C13.4282 38.3895 13.2677 38.4796 13.1043 38.4458C13.0818 38.4402 13.0593 38.4345 13.0424 38.4176C13.0255 38.4007 13.0198 38.3754 13.0142 38.3529C12.9325 37.9755 13.0142 37.6234 13.2592 37.3277C13.4338 37.1165 13.6648 37.1447 13.9126 37.1559C13.9239 37.1559 13.9323 37.1559 13.9436 37.1559C13.9548 37.1559 13.9689 37.1559 13.9774 37.1503C13.9858 37.1418 13.9886 37.1306 13.9886 37.1193L13.9915 37.1221Z" fill="#3A4044"/>
<path d="M16.3657 43.3574C16.3657 43.3574 15.9743 44.1967 16.0841 44.9346L16.1939 45.6724L13.8169 46.9792V44.7684L16.3657 43.3574Z" fill="#82888C"/>
<path d="M16.3657 43.3574L15.963 43.5799C15.2814 44.5178 15.4222 45.2725 15.4222 45.2725L13.8169 46.154V46.9792L16.1939 45.6724L16.0841 44.9346C15.9743 44.1967 16.3657 43.3574 16.3657 43.3574Z" fill="#9B9D9E"/>
<path d="M19.3877 34.7226C19.3483 35.2042 19.399 35.6773 19.399 35.6773C19.399 36.0012 19.6102 35.821 19.9228 35.6323L19.9341 33.996C19.9341 33.996 19.4271 34.2692 19.3877 34.7226Z" fill="#555D69"/>
<path d="M40.4482 31.8077L39.6624 32.1851C39.6624 32.1851 39.1414 28.5549 41.0791 26.9664C42.9491 25.4344 43.5687 25.3442 44.6896 25.4794C46.3343 25.6794 46.8103 27.8677 46.8103 27.8677L46.1597 28.2704C46.1597 28.2704 45.5261 25.0006 42.8449 26.6144C41.0678 27.6846 40.8622 28.538 40.6115 29.3885C40.3158 30.3883 40.4482 31.8077 40.4482 31.8077Z" fill="#555D69"/>
<path d="M38.5555 29.2926V29.4673C38.5527 29.5433 38.5105 29.6165 38.4429 29.656L37.705 30.084C37.6459 30.1178 37.5726 30.0756 37.5726 30.008V29.9601L38.1922 29.5996C38.2598 29.5602 38.3021 29.487 38.3049 29.4109V29.287L38.426 29.2166C38.4851 29.1828 38.5583 29.2251 38.5583 29.2926H38.5555Z" fill="#851F1F"/>
<path d="M38.3049 29.2843V29.4082C38.3049 29.4843 38.2599 29.5575 38.1923 29.5969L37.5755 29.9574V29.8335C37.5755 29.7546 37.6206 29.6842 37.6882 29.6448L38.3049 29.2871V29.2843Z" fill="#E2E9EC"/>
<path d="M22.6716 24.2768L54.3525 6.86058L42.4986 0.0422363L10.8176 17.4585L22.6716 24.2768Z" fill="#FC928B"/>
<path d="M22.6716 25.9384L54.3525 8.33354V6.8606L22.6716 24.2768V25.9384Z" fill="#B53633"/>
<path d="M22.8884 31.1176V33.8354L53.9272 16.5882V14.0563L22.8884 31.1176Z" fill="#E0E0E0"/>
<path d="M10.8174 19.0526L22.6714 25.8709V24.1557L10.8174 17.3374V19.0526Z" fill="#CF4242"/>
<path d="M14.4394 19.3116L14.4338 19.8213L27.51 12.4341L27.5156 11.9243L14.4394 19.3116Z" fill="#B53633"/>
<path d="M14.4392 19.3116L14.4336 19.8214L14.1773 19.6721L14.1829 19.1595L14.4392 19.3116Z" fill="#B53633"/>
<path d="M27.5156 11.9244L14.4394 19.3117L14.1831 19.1596L27.2593 11.7723L27.5156 11.9244Z" fill="#B53633"/>
<path d="M28.3296 14.2817L28.3268 14.583L26.1188 13.0988L26.1216 12.7975L28.3296 14.2817Z" fill="#B53633"/>
<path d="M28.3295 14.2817L28.3267 14.583L28.5858 14.4366L28.5886 14.1381L28.3295 14.2817Z" fill="#B53633"/>
<path d="M26.1215 12.7975L28.3295 14.2817L28.5886 14.138L26.3778 12.651L26.1215 12.7975Z" fill="#B53633"/>
<path d="M26.6904 15.2054L26.6876 15.5067L24.4768 14.0225L24.4796 13.7212L26.6904 15.2054Z" fill="#B53633"/>
<path d="M26.6904 15.2054L26.6875 15.5068L26.9466 15.3603L26.9495 15.059L26.6904 15.2054Z" fill="#B53633"/>
<path d="M24.4795 13.7212L26.6904 15.2054L26.9495 15.0589L24.7386 13.5747L24.4795 13.7212Z" fill="#B53633"/>
<path d="M25.0486 16.1263L25.0458 16.4276L22.8349 14.9434L22.8378 14.6421L25.0486 16.1263Z" fill="#B53633"/>
<path d="M25.0485 16.1263L25.0457 16.4276L25.3048 16.2812L25.3076 15.9827L25.0485 16.1263Z" fill="#B53633"/>
<path d="M22.8377 14.6422L25.0485 16.1264L25.3076 15.9799L23.0968 14.4957L22.8377 14.6422Z" fill="#B53633"/>
<path d="M23.4094 17.0501L23.4066 17.3515L21.1958 15.8673L21.1986 15.5659L23.4094 17.0501Z" fill="#B53633"/>
<path d="M23.4094 17.0501L23.4065 17.3515L23.6656 17.205L23.6685 16.9037L23.4094 17.0501Z" fill="#B53633"/>
<path d="M21.1985 15.5659L23.4094 17.0501L23.6685 16.9036L21.4576 15.4194L21.1985 15.5659Z" fill="#B53633"/>
<path d="M21.7673 17.971L21.7645 18.2724L19.5537 16.7882L19.5565 16.4868L21.7673 17.971Z" fill="#B53633"/>
<path d="M21.7675 17.971L21.7647 18.2724L22.0238 18.1259L22.0266 17.8246L21.7675 17.971Z" fill="#B53633"/>
<path d="M19.5567 16.4868L21.7675 17.971L22.0266 17.8245L19.8158 16.3403L19.5567 16.4868Z" fill="#B53633"/>
<path d="M20.1284 18.8947L20.1256 19.1961L17.9148 17.7119L17.9176 17.4105L20.1284 18.8947Z" fill="#B53633"/>
<path d="M20.1282 18.8947L20.1254 19.1961L20.3817 19.0496L20.3845 18.7483L20.1282 18.8947Z" fill="#B53633"/>
<path d="M17.9174 17.4106L20.1282 18.8948L20.3845 18.7484L18.1765 17.2642L17.9174 17.4106Z" fill="#B53633"/>
<path d="M18.4863 19.8158L18.4835 20.1171L16.2727 18.6329L16.2755 18.3315L18.4863 19.8158Z" fill="#B53633"/>
<path d="M18.4865 19.8158L18.4837 20.1171L18.7428 19.9707L18.7456 19.6693L18.4865 19.8158Z" fill="#B53633"/>
<path d="M16.2757 18.3315L18.4865 19.8157L18.7456 19.6693L16.5348 18.1851L16.2757 18.3315Z" fill="#B53633"/>
<path d="M16.8445 20.7395L16.8417 21.0408L14.6337 19.5538L14.6365 19.2552L16.8445 20.7395Z" fill="#B53633"/>
<path d="M16.8444 20.7395L16.8416 21.0408L17.1007 20.8944L17.1035 20.593L16.8444 20.7395Z" fill="#B53633"/>
<path d="M14.6364 19.2553L16.8444 20.7395L17.1035 20.5931L14.8955 19.1089L14.6364 19.2553Z" fill="#B53633"/>
<path d="M16.67 20.8156L16.6644 21.3253L29.7406 13.9381L29.7434 13.4283L16.67 20.8156Z" fill="#B53633"/>
<path d="M16.6699 20.8155L16.6643 21.3253L16.408 21.1732L16.4136 20.6635L16.6699 20.8155Z" fill="#B53633"/>
<path d="M29.7434 13.4283L16.67 20.8156L16.4137 20.6635L29.4899 13.2762L29.7434 13.4283Z" fill="#B53633"/>
<path d="M30.1658 12.8988L30.4446 13.0368L30.4389 13.5466L29.4673 14.0901L29.4729 13.5804L29.2138 13.4311L30.1658 12.8988Z" fill="#B53633"/>
<path d="M30.4446 13.0368L30.1658 12.8988L29.2138 13.4311L29.4729 13.5804L30.4446 13.0368Z" fill="#B53633"/>
<path d="M24.4288 12.9072L24.4232 13.4761L44.6247 2.11784L44.6304 1.55176L24.4288 12.9072Z" fill="#B53633"/>
<path d="M24.429 12.9073L24.4233 13.4762L24.1192 13.2959L24.1248 12.7299L24.429 12.9073Z" fill="#B53633"/>
<path d="M44.6304 1.55182L24.4288 12.9073L24.1246 12.7299L44.3262 1.37439L44.6304 1.55182Z" fill="#B53633"/>
<path d="M44.7515 4.74546L44.7486 5.06934L42.1886 3.37954L42.1914 3.05566L44.7515 4.74546Z" fill="#B53633"/>
<path d="M44.7515 4.74548L44.7486 5.06936L45.0275 4.91165L45.0303 4.58777L44.7515 4.74548Z" fill="#B53633"/>
<path d="M42.1914 3.05566L44.7515 4.74547L45.0303 4.58775L42.4702 2.89795L42.1914 3.05566Z" fill="#B53633"/>
<path d="M42.6702 5.90867L42.6674 6.23255L40.1073 4.54275L40.1101 4.21887L42.6702 5.90867Z" fill="#B53633"/>
<path d="M42.6702 5.90869L42.6673 6.23257L42.9462 6.07767L42.949 5.75098L42.6702 5.90869Z" fill="#B53633"/>
<path d="M40.1101 4.21887L42.6702 5.90867L42.949 5.75096L40.3889 4.06116L40.1101 4.21887Z" fill="#B53633"/>
<path d="M40.5862 7.07469L40.5834 7.39857L38.0233 5.70877L38.0261 5.38489L40.5862 7.07469Z" fill="#B53633"/>
<path d="M40.5862 7.07459L40.5834 7.39846L40.8622 7.24075L40.865 6.91687L40.5862 7.07459Z" fill="#B53633"/>
<path d="M38.0261 5.38489L40.5862 7.07469L40.865 6.91697L38.3049 5.22717L38.0261 5.38489Z" fill="#B53633"/>
<path d="M38.5049 8.24058L38.5021 8.56446L35.942 6.87466L35.9448 6.55078L38.5049 8.24058Z" fill="#B53633"/>
<path d="M38.5049 8.2406L38.5021 8.56448L38.7809 8.40676L38.7837 8.08289L38.5049 8.2406Z" fill="#B53633"/>
<path d="M35.9448 6.55078L38.5049 8.24058L38.7837 8.08287L36.2236 6.39307L35.9448 6.55078Z" fill="#B53633"/>
<path d="M36.4236 9.40379L36.4208 9.73048L33.8607 8.03787L33.8635 7.71399L36.4236 9.40379Z" fill="#B53633"/>
<path d="M36.4236 9.4038L36.4208 9.73049L36.6968 9.57278L36.7024 9.2489L36.4236 9.4038Z" fill="#B53633"/>
<path d="M33.8635 7.71398L36.4236 9.40378L36.7024 9.24888L34.1423 7.55908L33.8635 7.71398Z" fill="#B53633"/>
<path d="M34.3396 10.5697L34.3368 10.8936L31.7767 9.20376L31.7796 8.87988L34.3396 10.5697Z" fill="#B53633"/>
<path d="M34.3396 10.5697L34.3368 10.8936L34.6156 10.7359L34.6184 10.412L34.3396 10.5697Z" fill="#B53633"/>
<path d="M31.7795 8.87988L34.3396 10.5697L34.6184 10.412L32.0584 8.72217L31.7795 8.87988Z" fill="#B53633"/>
<path d="M32.2583 11.7357L32.2555 12.0596L29.6954 10.3698L29.6983 10.0459L32.2583 11.7357Z" fill="#B53633"/>
<path d="M32.2583 11.7357L32.2555 12.0596L32.5343 11.9019L32.5371 11.578L32.2583 11.7357Z" fill="#B53633"/>
<path d="M29.6982 10.0459L32.2583 11.7357L32.5371 11.578L29.9771 9.88818L29.6982 10.0459Z" fill="#B53633"/>
<path d="M30.1743 12.9016L30.1715 13.2255L27.6114 11.5357L27.6143 11.209L30.1743 12.9016Z" fill="#B53633"/>
<path d="M30.1743 12.9016L30.1715 13.2255L30.4503 13.0678L30.4531 12.7439L30.1743 12.9016Z" fill="#B53633"/>
<path d="M27.6143 11.209L30.1743 12.9016L30.4531 12.7439L27.8931 11.0541L27.6143 11.209Z" fill="#B53633"/>
<path d="M27.2564 14.7914L27.2536 15.3575L47.4552 4.002L47.458 3.43591L27.2564 14.7914Z" fill="#B53633"/>
<path d="M47.458 3.43598L27.2564 14.7914L26.9523 14.614L47.1538 3.25574L47.458 3.43598Z" fill="#B53633"/>
<path d="M27.8339 14.6309C27.8986 14.521 28.0029 14.4619 28.0648 14.4985L28.1465 14.5464L27.9015 14.9407L27.8282 14.8984C27.7663 14.8618 27.7691 14.7435 27.8339 14.6309Z" fill="#B53633"/>
<path d="M27.9015 14.9407C27.8396 14.904 27.8424 14.7829 27.9072 14.6731C27.9719 14.5633 28.0761 14.5013 28.1381 14.5407C28.2001 14.5773 28.1972 14.6985 28.1325 14.8083C28.0677 14.9181 27.9635 14.9801 27.9015 14.9407Z" fill="#B53633"/>
<path d="M28.5634 14.2112C28.6281 14.1014 28.7323 14.0422 28.7943 14.0788L28.876 14.1267L28.631 14.521L28.5577 14.4787C28.4958 14.4421 28.4986 14.3239 28.5634 14.2112Z" fill="#B53633"/>
<path d="M28.6308 14.5182C28.5688 14.4816 28.5716 14.3605 28.6364 14.2506C28.7012 14.1408 28.8054 14.0788 28.8673 14.1183C28.9293 14.1549 28.9265 14.276 28.8617 14.3858C28.7969 14.4956 28.6927 14.5576 28.6308 14.5182Z" fill="#B53633"/>
<path d="M48.0383 2.7572L48.365 2.92337L48.3622 3.49227L46.3823 4.6019L46.3879 4.03582L46.0838 3.85557L48.0383 2.7572Z" fill="#B53633"/>
<path d="M48.365 2.92337L48.0383 2.7572L46.0838 3.85557L46.3879 4.03582L48.365 2.92337Z" fill="#B53633"/>
<path d="M45.2107 0.875854L45.5374 1.04202L45.5317 1.6081L43.5547 2.72055L43.5603 2.15165L43.2561 1.97423L45.2107 0.875854Z" fill="#B53633"/>
<path d="M45.5374 1.04202L45.2107 0.875854L43.2561 1.97423L43.5603 2.15165L45.5374 1.04202Z" fill="#B53633"/>
<path d="M16.4022 20.6747L16.6838 20.8127L16.6782 21.3253L15.7066 21.866L15.7122 21.3562L15.4531 21.207L16.4022 20.6747Z" fill="#B53633"/>
<path d="M16.6838 20.8127L16.4022 20.6747L15.4531 21.207L15.7122 21.3562L16.6838 20.8127Z" fill="#B53633"/>
<path d="M15.7236 21.3563L15.4533 21.207L15.4476 21.7168L15.7067 21.8661L15.7236 21.3563Z" fill="#B53633"/>
<path d="M14.1859 19.1595L14.4675 19.2975L14.4619 19.8073L13.4903 20.3509L13.4959 19.8411L13.2368 19.6918L14.1859 19.1595Z" fill="#B53633"/>
<path d="M14.4675 19.2975L14.1859 19.1595L13.2368 19.6918L13.4959 19.8411L14.4675 19.2975Z" fill="#B53633"/>
<path d="M13.5071 19.841L13.2367 19.6918L13.2311 20.2015L13.4902 20.3508L13.5071 19.841Z" fill="#B53633"/>
<path d="M27.2593 14.7915L27.2536 15.3575L26.9495 15.1773L26.9551 14.6112L27.2593 14.7915Z" fill="#B53633"/>
<path d="M14.5915 18.7596L14.5858 19.2693L27.6621 11.8821L27.6677 11.3723L14.5915 18.7596Z" fill="#C9BDB1"/>
<path d="M14.5913 18.7596L14.5857 19.2694L14.3322 19.1173L14.335 18.6075L14.5913 18.7596Z" fill="#FFF4E0"/>
<path d="M27.6677 11.3724L14.5915 18.7597L14.3352 18.6076L27.4114 11.2203L27.6677 11.3724Z" fill="#FFF7E0"/>
<path d="M28.4844 13.7297L28.4816 14.031L26.2707 12.5468L26.2736 12.2455L28.4844 13.7297Z" fill="#BABABA"/>
<path d="M28.4843 13.7296L28.4815 14.0309L28.7406 13.8845L28.7434 13.5831L28.4843 13.7296Z" fill="#68716E"/>
<path d="M26.2735 12.2454L28.4843 13.7297L28.7434 13.5832L26.5326 12.099L26.2735 12.2454Z" fill="#FFF7E0"/>
<path d="M26.8425 14.6534L26.8397 14.9519L24.6289 13.4677L24.6317 13.1664L26.8425 14.6534Z" fill="#BABABA"/>
<path d="M26.8425 14.6534L26.8396 14.9519L27.0987 14.8083L27.1016 14.507L26.8425 14.6534Z" fill="#68716E"/>
<path d="M24.6316 13.1663L26.8425 14.6534L27.1016 14.5069L24.8907 13.0227L24.6316 13.1663Z" fill="#FFF7E0"/>
<path d="M25.2034 15.5743L25.2006 15.8756L22.9897 14.3914L22.9925 14.0901L25.2034 15.5743Z" fill="#BABABA"/>
<path d="M25.2034 15.5743L25.2006 15.8757L25.4569 15.7292L25.4597 15.4279L25.2034 15.5743Z" fill="#68716E"/>
<path d="M22.9926 14.0902L25.2034 15.5744L25.4597 15.4279L23.2517 13.9437L22.9926 14.0902Z" fill="#FFF7E0"/>
<path d="M23.5615 16.4981L23.5587 16.7967L21.3479 15.3125L21.3507 15.0111L23.5615 16.4981Z" fill="#BABABA"/>
<path d="M23.5615 16.4981L23.5586 16.7967L23.8177 16.6502L23.8206 16.3517L23.5615 16.4981Z" fill="#68716E"/>
<path d="M21.3506 15.0111L23.5615 16.4981L23.8206 16.3516L21.6097 14.8674L21.3506 15.0111Z" fill="#FFF7E0"/>
<path d="M21.9194 17.419L21.9166 17.7204L19.7086 16.2362L19.7114 15.9348L21.9194 17.419Z" fill="#BABABA"/>
<path d="M21.9196 17.419L21.9168 17.7204L22.1759 17.5739L22.1787 17.2726L21.9196 17.419Z" fill="#68716E"/>
<path d="M19.7116 15.9348L21.9196 17.419L22.1787 17.2725L19.9707 15.7883L19.7116 15.9348Z" fill="#FFF7E0"/>
<path d="M20.2805 18.3399L20.2777 18.6413L18.0669 17.1571L18.0697 16.8557L20.2805 18.3399Z" fill="#BABABA"/>
<path d="M20.2804 18.3399L20.2776 18.6413L20.5367 18.4948L20.5396 18.1963L20.2804 18.3399Z" fill="#68716E"/>
<path d="M18.0696 16.8558L20.2804 18.34L20.5396 18.1964L18.3287 16.7094L18.0696 16.8558Z" fill="#FFF7E0"/>
<path d="M18.6384 19.2637L18.6356 19.5651L16.4276 18.0809L16.4304 17.7795L18.6384 19.2637Z" fill="#BABABA"/>
<path d="M18.6386 19.2638L18.6358 19.5651L18.8949 19.4187L18.8977 19.1173L18.6386 19.2638Z" fill="#68716E"/>
<path d="M16.4306 17.7795L18.6386 19.2637L18.8977 19.1173L16.6869 17.6331L16.4306 17.7795Z" fill="#FFF7E0"/>
<path d="M16.9993 20.1846L16.9964 20.486L14.7856 19.0018L14.7884 18.7004L16.9993 20.1846Z" fill="#BABABA"/>
<path d="M16.9994 20.1846L16.9966 20.486L17.2557 20.3395L17.2585 20.041L16.9994 20.1846Z" fill="#68716E"/>
<path d="M14.7886 18.7004L16.9994 20.1846L17.2585 20.041L15.0477 18.554L14.7886 18.7004Z" fill="#FFF7E0"/>
<path d="M16.8219 20.2607L16.8163 20.7704L29.8926 13.3832L29.8982 12.8734L16.8219 20.2607Z" fill="#C9BDB1"/>
<path d="M16.822 20.2607L16.8164 20.7705L16.5629 20.6212L16.5657 20.1115L16.822 20.2607Z" fill="#FFF4E0"/>
<path d="M29.8982 12.8735L16.822 20.2608L16.5657 20.1115L29.6419 12.7242L29.8982 12.8735Z" fill="#FFF7E0"/>
<path d="M30.3179 12.3468L30.5967 12.4848L30.591 12.9946L29.6222 13.5381L29.625 13.0284L29.3659 12.8763L30.3179 12.3468Z" fill="#333232"/>
<path d="M30.5967 12.4848L30.3179 12.3468L29.3659 12.8763L29.625 13.0284L30.5967 12.4848Z" fill="#969696"/>
<path d="M24.5809 12.3552L24.5753 12.9213L44.7768 1.56584L44.7825 0.999756L24.5809 12.3552Z" fill="#C9BDB1"/>
<path d="M24.5811 12.3553L24.5754 12.9214L24.2713 12.7439L24.2769 12.1779L24.5811 12.3553Z" fill="#FFF4E0"/>
<path d="M44.7825 0.999825L24.5809 12.3553L24.2767 12.175L44.4783 0.81958L44.7825 0.999825Z" fill="#FFF7E0"/>
<path d="M44.9036 4.19066L44.9007 4.51453L42.3407 2.82473L42.3435 2.50085L44.9036 4.19066Z" fill="#BABABA"/>
<path d="M44.9036 4.19067L44.9007 4.51455L45.1796 4.35684L45.1824 4.03296L44.9036 4.19067Z" fill="#68716E"/>
<path d="M42.3435 2.50085L44.9036 4.19066L45.1824 4.03294L42.6223 2.34314L42.3435 2.50085Z" fill="#FFF7E0"/>
<path d="M42.8223 5.35667L42.8194 5.68055L40.2594 3.99075L40.2622 3.66687L42.8223 5.35667Z" fill="#BABABA"/>
<path d="M42.8223 5.35669L42.8194 5.68057L43.0983 5.52285L43.1011 5.19897L42.8223 5.35669Z" fill="#68716E"/>
<path d="M40.2622 3.66687L42.8223 5.35667L43.1011 5.19896L40.541 3.50916L40.2622 3.66687Z" fill="#FFF7E0"/>
<path d="M40.741 6.52269L40.7382 6.84657L38.1781 5.15676L38.1809 4.83289L40.741 6.52269Z" fill="#BABABA"/>
<path d="M40.7412 6.52258L40.7384 6.84646L41.0172 6.68875L41.02 6.36487L40.7412 6.52258Z" fill="#68716E"/>
<path d="M38.1812 4.83289L40.7412 6.52269L41.02 6.36497L38.46 4.67517L38.1812 4.83289Z" fill="#FFF7E0"/>
<path d="M38.657 7.68577L38.6542 8.00965L36.0941 6.31985L36.0969 5.99597L38.657 7.68577Z" fill="#BABABA"/>
<path d="M38.657 7.68578L38.6542 8.00966L38.933 7.85476L38.9358 7.53088L38.657 7.68578Z" fill="#68716E"/>
<path d="M36.0969 5.99597L38.657 7.68577L38.9358 7.53087L36.3757 5.83826L36.0969 5.99597Z" fill="#FFF7E0"/>
<path d="M36.5757 8.85179L36.5729 9.17567L34.0128 7.48587L34.0156 7.16199L36.5757 8.85179Z" fill="#BABABA"/>
<path d="M36.5757 8.85168L36.5729 9.17556L36.8517 9.01785L36.8545 8.69397L36.5757 8.85168Z" fill="#68716E"/>
<path d="M34.0156 7.16199L36.5757 8.85179L36.8545 8.69407L34.2944 7.00427L34.0156 7.16199Z" fill="#FFF7E0"/>
<path d="M34.4944 10.0177L34.4888 10.3416L31.9287 8.65176L31.9343 8.32788L34.4944 10.0177Z" fill="#BABABA"/>
<path d="M34.4945 10.0177L34.4889 10.3416L34.7677 10.1839L34.7705 9.85999L34.4945 10.0177Z" fill="#68716E"/>
<path d="M31.9345 8.32788L34.4945 10.0177L34.7705 9.85997L32.2105 8.17017L31.9345 8.32788Z" fill="#FFF7E0"/>
<path d="M32.4104 11.1837L32.4076 11.5076L29.8475 9.81778L29.8504 9.49109L32.4104 11.1837Z" fill="#BABABA"/>
<path d="M32.4104 11.1837L32.4076 11.5076L32.6864 11.3499L32.6892 11.026L32.4104 11.1837Z" fill="#68716E"/>
<path d="M29.8503 9.49108L32.4104 11.1837L32.6892 11.026L30.1292 9.33618L29.8503 9.49108Z" fill="#FFF7E0"/>
<path d="M30.3291 12.3468L30.3263 12.6707L27.7662 10.9809L27.7691 10.657L30.3291 12.3468Z" fill="#BABABA"/>
<path d="M30.3291 12.3468L30.3263 12.6707L30.6051 12.513L30.6079 12.1891L30.3291 12.3468Z" fill="#68716E"/>
<path d="M27.769 10.657L30.3291 12.3468L30.6079 12.1891L28.0479 10.4993L27.769 10.657Z" fill="#FFF7E0"/>
<path d="M27.4115 14.2394L27.4058 14.8055L47.6074 3.44999L47.613 2.88391L27.4115 14.2394Z" fill="#C9BDB1"/>
<path d="M47.613 2.88398L27.4115 14.2394L27.1073 14.0592L47.3089 2.70374L47.613 2.88398Z" fill="#FFF7E0"/>
<path d="M27.986 14.0761C28.0507 13.9662 28.155 13.9071 28.2169 13.9437L28.2986 13.9916L28.0536 14.3859L27.9803 14.3436C27.9184 14.307 27.9212 14.1887 27.986 14.0761Z" fill="url(#paint4_linear_160_15533)"/>
<path d="M28.0563 14.3858C27.9944 14.3492 27.9972 14.2281 28.0619 14.1183C28.1267 14.0085 28.2309 13.9465 28.2929 13.9859C28.3548 14.0225 28.352 14.1436 28.2873 14.2535C28.2225 14.3633 28.1183 14.4253 28.0563 14.3858Z" fill="#6D6D6D"/>
<path d="M28.7152 13.6564C28.78 13.5466 28.8842 13.4874 28.9462 13.524L29.0278 13.5719L28.7828 13.9662L28.7096 13.9239C28.6476 13.8873 28.6504 13.769 28.7152 13.6564Z" fill="url(#paint5_linear_160_15533)"/>
<path d="M28.7858 13.9662C28.7238 13.9296 28.7267 13.8085 28.7914 13.6986C28.8562 13.5888 28.9604 13.5268 29.0224 13.5662C29.0843 13.6029 29.0815 13.724 29.0167 13.8338C28.952 13.9436 28.8478 14.0056 28.7858 13.9662Z" fill="#6D6D6D"/>
<path d="M48.1903 2.2052L48.5198 2.37136L48.5141 2.93745L46.5371 4.0499L46.5427 3.48382L46.2385 3.30357L48.1903 2.2052Z" fill="#C9BDB1"/>
<path d="M48.5198 2.37136L48.1903 2.2052L46.2385 3.30357L46.5427 3.48382L48.5198 2.37136Z" fill="#FFF7E0"/>
<path d="M45.3628 0.321045L45.6895 0.487209L45.6866 1.05329L43.7068 2.16574L43.7124 1.59966L43.4082 1.41942L45.3628 0.321045Z" fill="#C9BDB1"/>
<path d="M45.6895 0.487209L45.3628 0.321045L43.4082 1.41942L43.7124 1.59966L45.6895 0.487209Z" fill="#FFF7E0"/>
<path d="M16.5571 20.1227L16.8359 20.2607L16.8303 20.7704L15.8587 21.314L15.8643 20.8042L15.6052 20.655L16.5571 20.1227Z" fill="#C9BDB1"/>
<path d="M16.8359 20.2607L16.5571 20.1227L15.6052 20.655L15.8643 20.8042L16.8359 20.2607Z" fill="#FFF7E0"/>
<path d="M15.8784 20.8043L15.6052 20.655L15.6024 21.1648L15.8587 21.3141L15.8784 20.8043Z" fill="#BABABA"/>
<path d="M14.3408 18.6047L14.6196 18.7456L14.614 19.2553L13.6424 19.7989L13.648 19.2891L13.3889 19.137L14.3408 18.6047Z" fill="#C9BDB1"/>
<path d="M14.6196 18.7456L14.3408 18.6047L13.3889 19.137L13.648 19.2891L14.6196 18.7456Z" fill="#FFF7E0"/>
<path d="M13.6621 19.289L13.3889 19.137L13.3861 19.6467L13.6424 19.7988L13.6621 19.289Z" fill="#BABABA"/>
<path d="M27.4114 14.2393L27.4086 14.8054L27.1044 14.6252L27.1072 14.0591L27.4114 14.2393Z" fill="#FFF4E0"/>
<path d="M7.16745 21.3957L7.41811 20.3142L8.71362 21.0549L8.46297 22.1505L7.16745 21.3957Z" fill="#A71414"/>
<path d="M8.7137 21.0549L9.82051 20.4071L10.2683 21.1084L8.46304 22.1504L8.7137 21.0549Z" fill="#C0473C"/>
<path d="M8.96998 20.3593L10.2683 21.1085L9.82051 20.4072L8.525 19.6637L8.96998 20.3593Z" fill="#D92F29"/>
<path d="M7.41822 20.3143L8.71374 21.055L9.82056 20.4072L8.52504 19.6637L7.41822 20.3143Z" fill="#E69998"/>
<path d="M8.63205 22.2435L8.88271 21.1592L10.1782 21.8999L9.92757 22.9954L8.63205 22.2435Z" fill="#C9A11C"/>
<path d="M10.1783 21.8998L11.2851 21.2521L11.7329 21.9533L9.92764 22.9954L10.1783 21.8998Z" fill="#DFC54A"/>
<path d="M10.4346 21.2042L11.7329 21.9533L11.2851 21.2521L9.9896 20.5085L10.4346 21.2042Z" fill="#F4CC33"/>
<path d="M8.88282 21.1591L10.1783 21.8998L11.2852 21.2521L9.98964 20.5085L8.88282 21.1591Z" fill="#FFEDAE"/>
<path d="M10.0967 23.0883L10.3473 22.0068L11.6428 22.7447L11.3922 23.8431L10.0967 23.0883Z" fill="#A71414"/>
<path d="M11.6426 22.7447L12.7495 22.0997L13.1973 22.7982L11.392 23.843L11.6426 22.7447Z" fill="#C0473C"/>
<path d="M11.8989 22.049L13.1973 22.7982L12.7495 22.0997L11.454 21.3534L11.8989 22.049Z" fill="#D92F29"/>
<path d="M10.3472 22.0068L11.6427 22.7447L12.7495 22.0997L11.454 21.3534L10.3472 22.0068Z" fill="#E69998"/>
<path d="M11.561 23.936L11.8117 22.8517L13.1072 23.5924L12.8565 24.6879L11.561 23.936Z" fill="#C9A11C"/>
<path d="M13.1072 23.5925L14.2141 22.9447L14.6619 23.646L12.8566 24.688L13.1072 23.5925Z" fill="#DFC54A"/>
<path d="M13.3663 22.8968L14.6619 23.646L14.2169 22.9447L12.9186 22.2012L13.3663 22.8968Z" fill="#F4CC33"/>
<path d="M11.8116 22.8517L13.1072 23.5924L14.2168 22.9447L12.9185 22.2012L11.8116 22.8517Z" fill="#FFEDAE"/>
<path d="M13.0256 24.7809L13.2763 23.6967L14.5718 24.4374L14.3211 25.5357L13.0256 24.7809Z" fill="#A71414"/>
<path d="M14.5716 24.4373L15.6812 23.7896L16.1262 24.4908L14.3209 25.5357L14.5716 24.4373Z" fill="#C0473C"/>
<path d="M14.8307 23.7417L16.1262 24.4908L15.6812 23.7895L14.3829 23.046L14.8307 23.7417Z" fill="#D92F29"/>
<path d="M13.2762 23.6966L14.5718 24.4373L15.6814 23.7895L14.3831 23.046L13.2762 23.6966Z" fill="#E69998"/>
<path d="M14.49 25.6258L14.7406 24.5443L16.0361 25.2822L15.7855 26.3806L14.49 25.6258Z" fill="#C9A11C"/>
<path d="M16.0362 25.2823L17.1458 24.6373L17.5908 25.3358L15.7856 26.3806L16.0362 25.2823Z" fill="#DFC54A"/>
<path d="M16.2953 24.5866L17.5908 25.3358L17.1458 24.6373L15.8475 23.891L16.2953 24.5866Z" fill="#F4CC33"/>
<path d="M14.7406 24.5444L16.0361 25.2823L17.1458 24.6373L15.8474 23.891L14.7406 24.5444Z" fill="#FFEDAE"/>
<path d="M15.9546 26.4736L16.2052 25.3893L17.5007 26.13L17.2501 27.2255L15.9546 26.4736Z" fill="#A71414"/>
<path d="M17.5008 26.1299L18.6104 25.4822L19.0554 26.1834L17.2501 27.2255L17.5008 26.1299Z" fill="#C0473C"/>
<path d="M17.7599 25.4343L19.0554 26.1834L18.6104 25.4822L17.3121 24.7386L17.7599 25.4343Z" fill="#D92F29"/>
<path d="M16.2052 25.3892L17.5035 26.1299L18.6104 25.4822L17.312 24.7386L16.2052 25.3892Z" fill="#E69998"/>
<path d="M33.32 23.9135L33.6467 23.7248V21.7252L32.8553 22.1815V22.5025L33.32 22.235V22.7898L32.8863 23.0404V23.3615L33.32 23.1109V23.9107V23.9135Z" fill="#E0E0E0"/>
<path d="M32.5764 24.3444V22.3448L32.2666 22.5223V24.5219L32.5764 24.3444Z" fill="#E0E0E0"/>
<path d="M31.5683 24.1501V24.9274L31.895 24.7387V22.7391L31.4669 22.987C31.2867 23.0912 31.1515 23.2179 31.0642 23.3644C30.9769 23.5108 30.9346 23.6854 30.9346 23.8854C30.9346 24.1389 31.0107 24.2712 31.16 24.2853L30.822 25.3583L31.174 25.1556L31.4529 24.2177L31.5711 24.1501H31.5683ZM31.5683 23.8291L31.4838 23.8769C31.4078 23.922 31.3515 23.9276 31.3177 23.8995C31.2839 23.8685 31.267 23.8037 31.267 23.7051C31.267 23.6066 31.2839 23.5193 31.3205 23.4573C31.3571 23.3925 31.4106 23.339 31.4866 23.2968L31.5683 23.2489V23.8291Z" fill="#E0E0E0"/>
<path d="M29.8645 25.9103L30.6587 25.4513V23.4517L29.8645 23.9107V24.2318L30.332 23.9614V24.4374L29.8983 24.688V25.0119L30.332 24.7613V25.3161L29.8645 25.5864V25.9131V25.9103Z" fill="#E0E0E0"/>
<path d="M27.8762 26.0398C27.8762 26.3693 27.9353 26.589 28.0536 26.6932C28.1719 26.8002 28.3437 26.789 28.5662 26.6594L28.9971 26.4088V24.4092L28.5267 24.6824C28.3211 24.8007 28.1634 24.9781 28.048 25.2175C27.9325 25.454 27.8762 25.73 27.8762 26.0398ZM28.2113 25.8568C28.2113 25.409 28.3211 25.1245 28.538 24.9978L28.6704 24.9218V26.2736L28.5634 26.3356C28.4423 26.406 28.3549 26.4003 28.2986 26.3187C28.2423 26.237 28.2141 26.0849 28.2141 25.8568H28.2113Z" fill="#E0E0E0"/>
<path d="M26.8257 27.6648L27.6199 27.2058V25.2062L26.8257 25.6652V25.9863L27.2932 25.7159V26.1919L26.8595 26.4425V26.7664L27.2932 26.5158V27.0706L26.8257 27.341V27.6677V27.6648Z" fill="#E0E0E0"/>
<path d="M25.6062 26.9862C25.6062 27.1974 25.654 27.3354 25.747 27.3917C25.8427 27.4509 25.9779 27.4283 26.1554 27.3241L26.237 27.2763V28.0001L26.5637 27.8114V25.8118L26.1159 26.0709C25.7723 26.268 25.6033 26.5722 25.6033 26.9834L25.6062 26.9862ZM26.2398 26.958L26.1779 26.9946C26.0962 27.0425 26.0371 27.051 25.9976 27.0228C25.9582 26.9946 25.9385 26.9242 25.9385 26.8116C25.9385 26.7074 25.9554 26.6201 25.992 26.5468C26.0286 26.4764 26.0849 26.4173 26.161 26.375L26.2398 26.33V26.9608V26.958Z" fill="#E0E0E0"/>
<path d="M25.5638 28.2056C25.5638 28.1352 25.5469 28.0901 25.5131 28.0704C25.4793 28.0507 25.4286 28.0591 25.3639 28.0986C25.2991 28.138 25.2484 28.1859 25.2146 28.2422C25.1808 28.3014 25.1639 28.3661 25.1639 28.4365C25.1639 28.5069 25.1808 28.552 25.2174 28.5717C25.2512 28.5914 25.3019 28.583 25.3667 28.5464C25.4315 28.5098 25.4822 28.4619 25.516 28.4027C25.5498 28.3436 25.5667 28.2788 25.5667 28.2084L25.5638 28.2056Z" fill="#E0E0E0"/>
<path d="M52.3979 12.2483L47.8721 14.9661V20.9958L52.3979 18.2217V12.2483Z" fill="#FC7B72"/>
<path d="M52.2261 12.3496L47.872 14.8449V15.2392L52.2261 12.7214V12.3496Z" fill="#CDDBDC"/>
<path d="M52.2261 12.7073L47.872 15.2025V15.5968L52.2261 13.079V12.7073Z" fill="#B4C9CB"/>
<path d="M52.2261 13.0593L47.872 15.5546V15.9489L52.2261 13.4311V13.0593Z" fill="#CDDBDC"/>
<path d="M52.2261 13.417L47.872 15.9123V16.3066L52.2261 13.7887V13.417Z" fill="#B4C9CB"/>
<path d="M52.2261 13.769L47.872 16.2643V16.6614L52.2261 14.1408V13.769Z" fill="#CDDBDC"/>
<path d="M52.2261 14.1267L47.872 16.622V17.0163L52.2261 14.4985V14.1267Z" fill="#B4C9CB"/>
<path d="M52.2261 14.4816L47.872 16.9768V17.3711L52.2261 14.8533V14.4816Z" fill="#CDDBDC"/>
<path d="M52.2261 14.8364L47.872 17.3345V17.7288L52.2261 15.211V14.8364Z" fill="#B4C9CB"/>
<path d="M52.2261 15.1913L47.872 17.6866V18.0808L52.2261 15.563V15.1913Z" fill="#CDDBDC"/>
<path d="M52.2261 15.549L47.872 18.0442V18.4385L52.2261 15.9207V15.549Z" fill="#B4C9CB"/>
<path d="M52.2261 15.901L47.872 18.3963V18.7906L52.2261 16.2728V15.901Z" fill="#CDDBDC"/>
<path d="M52.2261 16.2587L47.872 18.7539V19.1482L52.2261 16.6304V16.2587Z" fill="#B4C9CB"/>
<path d="M52.2261 16.6107L47.872 19.1088V19.5031L52.2261 16.9825V16.6107Z" fill="#CDDBDC"/>
<path d="M52.2261 16.9684L47.872 19.4637V19.8579L52.2261 17.3401V16.9684Z" fill="#B4C9CB"/>
<path d="M52.2261 17.3232L47.872 19.8185V20.2128L52.2261 17.695V17.3232Z" fill="#CDDBDC"/>
<path d="M52.2261 17.5626L47.872 20.0607V20.4972L52.2261 17.8668V17.5626Z" fill="#B4C9CB"/>
<path d="M52.2261 17.8668L47.872 20.4945V20.9225L52.2261 18.2583V17.8668Z" fill="#CDDBDC"/>
<path d="M46.7258 15.6306L42.1972 18.3512V24.3782L46.7258 21.6041V15.6306Z" fill="#FC7B72"/>
<path d="M46.554 15.7321L42.1971 18.2273V18.6216L46.554 16.1038V15.7321Z" fill="#CDDBDC"/>
<path d="M46.554 16.0897L42.1971 18.585V18.9793L46.554 16.4615V16.0897Z" fill="#B4C9CB"/>
<path d="M46.554 16.4418L42.1971 18.937V19.3313L46.554 16.8135V16.4418Z" fill="#CDDBDC"/>
<path d="M46.554 16.7994L42.1971 19.2947V19.689L46.554 17.1712V16.7994Z" fill="#B4C9CB"/>
<path d="M46.554 17.1515L42.1971 19.6496V20.0439L46.554 17.5261V17.1515Z" fill="#CDDBDC"/>
<path d="M46.554 17.5092L42.1971 20.0044V20.4015L46.554 17.8809V17.5092Z" fill="#B4C9CB"/>
<path d="M46.554 17.864L42.1971 20.3593V20.7536L46.554 18.2358V17.864Z" fill="#CDDBDC"/>
<path d="M46.554 18.2217L42.1971 20.717V21.1112L46.554 18.5934V18.2217Z" fill="#B4C9CB"/>
<path d="M46.554 18.5737L42.1971 21.069V21.4633L46.554 18.9455V18.5737Z" fill="#CDDBDC"/>
<path d="M46.554 18.9314L42.1971 21.4267V21.821L46.554 19.3032V18.9314Z" fill="#B4C9CB"/>
<path d="M46.554 19.2834L42.1971 21.7787V22.173L46.554 19.6552V19.2834Z" fill="#CDDBDC"/>
<path d="M46.554 19.6411L42.1971 22.1364V22.5307L46.554 20.0129V19.6411Z" fill="#B4C9CB"/>
<path d="M46.554 19.996L42.1971 22.4912V22.8855L46.554 20.3677V19.996Z" fill="#CDDBDC"/>
<path d="M46.554 20.3508L42.1971 22.8489V23.2432L46.554 20.7226V20.3508Z" fill="#B4C9CB"/>
<path d="M46.554 20.7057L42.1971 23.201V23.5952L46.554 21.0774V20.7057Z" fill="#CDDBDC"/>
<path d="M46.554 20.9479L42.1971 23.4431V23.8797L46.554 21.2492V20.9479Z" fill="#B4C9CB"/>
<path d="M46.554 21.2493L42.1971 23.8797V24.305L46.554 21.6407V21.2493Z" fill="#CDDBDC"/>
<path d="M41.0508 19.0131L36.5249 21.7336V27.7606L41.0508 24.9865V19.0131Z" fill="#FC7B72"/>
<path d="M40.8792 19.1145L36.5251 21.6098V22.0041L40.8792 19.4863V19.1145Z" fill="#CDDBDC"/>
<path d="M40.8792 19.4722L36.5251 21.9674V22.3617L40.8792 19.8439V19.4722Z" fill="#B4C9CB"/>
<path d="M40.8792 19.8242L36.5251 22.3223V22.7166L40.8792 20.196V19.8242Z" fill="#CDDBDC"/>
<path d="M40.8792 20.1819L36.5251 22.6772V23.0714L40.8792 20.5536V20.1819Z" fill="#B4C9CB"/>
<path d="M40.8792 20.5367L36.5251 23.032V23.4263L40.8792 20.9085V20.5367Z" fill="#CDDBDC"/>
<path d="M40.8792 20.8916L36.5251 23.3897V23.784L40.8792 21.2662V20.8916Z" fill="#B4C9CB"/>
<path d="M40.8792 21.2465L36.5251 23.7417V24.136L40.8792 21.6182V21.2465Z" fill="#CDDBDC"/>
<path d="M40.8792 21.6041L36.5251 24.0994V24.4937L40.8792 21.9759V21.6041Z" fill="#B4C9CB"/>
<path d="M40.8792 21.9562L36.5251 24.4514V24.8457L40.8792 22.3279V21.9562Z" fill="#CDDBDC"/>
<path d="M40.8792 22.3138L36.5251 24.8091V25.2034L40.8792 22.6856V22.3138Z" fill="#B4C9CB"/>
<path d="M40.8792 22.6659L36.5251 25.164V25.5583L40.8792 23.0376V22.6659Z" fill="#CDDBDC"/>
<path d="M40.8792 23.0236L36.5251 25.5188V25.9131L40.8792 23.3953V23.0236Z" fill="#B4C9CB"/>
<path d="M40.8792 23.3784L36.5251 25.8737V26.268L40.8792 23.7502V23.3784Z" fill="#CDDBDC"/>
<path d="M40.8792 23.7361L36.5251 26.2314V26.6256L40.8792 24.1078V23.7361Z" fill="#B4C9CB"/>
<path d="M40.8792 24.0881L36.5251 26.5834V26.9777L40.8792 24.4599V24.0881Z" fill="#CDDBDC"/>
<path d="M40.8792 24.3303L36.5251 26.8256V27.2621L40.8792 24.6317V24.3303Z" fill="#B4C9CB"/>
<path d="M40.8792 24.6317L36.5251 27.2622V27.6874L40.8792 25.0232V24.6317Z" fill="#CDDBDC"/>
<path d="M49.6576 7.35064L49.9082 6.26917L51.2065 7.00704L50.9559 8.10542L49.6576 7.35064Z" fill="#2F8FA7"/>
<path d="M51.2065 7.007L52.3133 6.36206L52.7583 7.06051L50.9558 8.10537L51.2065 7.007Z" fill="#5B96C0"/>
<path d="M51.4628 6.31136L52.7583 7.0605L52.3133 6.36205L51.015 5.61572L51.4628 6.31136Z" fill="#4CB0D9"/>
<path d="M49.9083 6.26911L51.2067 7.00699L52.3135 6.36205L51.0151 5.61572L49.9083 6.26911Z" fill="#BDDCE6"/>
<path d="M40.2933 1.7348L40.544 0.650513L41.8423 1.39121L41.5916 2.48958L40.2933 1.7348Z" fill="#A71414"/>
<path d="M41.8422 1.39128L42.9491 0.746338L43.394 1.44479L41.5916 2.48965L41.8422 1.39128Z" fill="#C0473C"/>
<path d="M42.0985 0.695635L43.394 1.44478L42.9491 0.743512L41.6507 0L42.0985 0.695635Z" fill="#D92F29"/>
<path d="M40.5438 0.650573L41.8422 1.39127L42.949 0.743512L41.6506 0L40.5438 0.650573Z" fill="#E69998"/>
<path d="M21.3393 22.6152L21.59 21.5337L22.8855 22.2716L22.6348 23.3699L21.3393 22.6152Z" fill="#A71414"/>
<path d="M22.8856 22.2715L23.9924 21.6266L24.4402 22.325L22.6349 23.3699L22.8856 22.2715Z" fill="#C0473C"/>
<path d="M23.1419 21.5759L24.4402 22.325L23.9924 21.6266L22.6969 20.8802L23.1419 21.5759Z" fill="#D92F29"/>
<path d="M21.5901 21.5336L22.8856 22.2715L23.9924 21.6266L22.6969 20.8802L21.5901 21.5336Z" fill="#E69998"/>
<path d="M12.4538 17.5373L12.7045 16.453L14 17.1937L13.7493 18.2893L12.4538 17.5373Z" fill="#2F8FA7"/>
<path d="M14.0029 17.1938L15.1097 16.546L15.5547 17.2473L13.7494 18.2893L14.0029 17.1938Z" fill="#5B96C0"/>
<path d="M14.2592 16.4981L15.5547 17.2473L15.1097 16.546L13.8114 15.8025L14.2592 16.4981Z" fill="#4CB0D9"/>
<path d="M12.7045 16.4531L14.0028 17.1938L15.1096 16.546L13.8113 15.8025L12.7045 16.4531Z" fill="#BDDCE6"/>
<g style="mix-blend-mode:screen">
<path d="M8.79533 27.2762L9.32481 36.3899C10.2429 36.8039 11.0963 37.1503 11.7919 37.4179C12.0848 37.5305 12.3918 37.5052 12.6453 37.3728L12.1496 28.8844C11.1639 28.4535 9.99509 27.9099 8.79533 27.2762Z" fill="#0B0E0F"/>
</g>
<g style="mix-blend-mode:screen">
<path d="M3.68938 23.8459L4.25546 33.537C5.20457 34.241 6.29167 34.8832 7.38159 35.4492L6.84086 26.1638C5.97906 25.6371 5.14824 25.0654 4.41318 24.4684C4.16252 24.2684 3.92032 24.06 3.6922 23.8459H3.68938Z" fill="#0B0E0F"/>
</g>
</g>
<defs>
<linearGradient id="paint0_linear_160_15533" x1="16.5852" y1="45.993" x2="20.0254" y2="40.0345" gradientUnits="userSpaceOnUse">
<stop offset="0.16" stop-color="#50585E"/>
<stop offset="0.56" stop-color="#6C7880"/>
<stop offset="0.87" stop-color="#68737B"/>
</linearGradient>
<linearGradient id="paint1_linear_160_15533" x1="19.0553" y1="46.2498" x2="21.4887" y2="42.0366" gradientUnits="userSpaceOnUse">
<stop offset="0.16" stop-color="#F0F0F0"/>
<stop offset="0.56" stop-color="#D9D9D9"/>
<stop offset="0.87" stop-color="#C4C4C4"/>
</linearGradient>
<linearGradient id="paint2_linear_160_15533" x1="40.4276" y1="32.1617" x2="43.8664" y2="26.2056" gradientUnits="userSpaceOnUse">
<stop offset="0.16" stop-color="#50585E"/>
<stop offset="0.56" stop-color="#6C7880"/>
<stop offset="0.87" stop-color="#68737B"/>
</linearGradient>
<linearGradient id="paint3_linear_160_15533" x1="42.8957" y1="32.4217" x2="45.329" y2="28.2056" gradientUnits="userSpaceOnUse">
<stop offset="0.16" stop-color="#F0F0F0"/>
<stop offset="0.56" stop-color="#D9D9D9"/>
<stop offset="0.87" stop-color="#C4C4C4"/>
</linearGradient>
<linearGradient id="paint4_linear_160_15533" x1="28.2986" y1="14.1523" x2="27.9269" y2="14.1489" gradientUnits="userSpaceOnUse">
<stop offset="0.16" stop-color="#4F4F4F"/>
<stop offset="0.56" stop-color="#919191"/>
<stop offset="0.87" stop-color="#828282"/>
</linearGradient>
<linearGradient id="paint5_linear_160_15533" x1="29.0261" y1="13.7308" x2="28.6543" y2="13.7274" gradientUnits="userSpaceOnUse">
<stop offset="0.16" stop-color="#4F4F4F"/>
<stop offset="0.56" stop-color="#919191"/>
<stop offset="0.87" stop-color="#828282"/>
</linearGradient>
<clipPath id="clip0_160_15533">
<rect width="56" height="51.2319" fill="white" transform="matrix(-1 0 0 1 56 0)"/>
</clipPath>
</defs>
</svg>
