<svg width="55" height="56" viewBox="0 0 55 56" fill="none" xmlns="http://www.w3.org/2000/svg">
<g clip-path="url(#clip0_160_15328)">
<g style="mix-blend-mode:multiply">
<path d="M17.2396 55.2723L53.7402 34.1981C55.6083 33.1192 55.373 31.2366 53.2189 29.9948L45.3735 25.4657C43.2194 24.2203 39.9574 24.0864 38.093 25.1652L1.5923 46.2395C-0.275814 47.3183 -0.0404892 49.1973 2.11364 50.4427L9.95899 54.9718C12.1131 56.2172 15.3751 56.3512 17.2396 55.2723Z" fill="#EAEAEA"/>
</g>
<path d="M0.893504 34.4117H0.911607L1.32433 34.3139C1.36415 34.3067 1.41484 34.3357 1.46914 34.4081L1.86376 34.9222C2.00134 35.1032 2.11719 35.4869 2.11719 35.7766V38.3217C2.11719 38.6113 2.00496 38.7018 1.86376 38.5208L1.46914 38.0067C1.33157 37.8257 1.21572 37.442 1.21572 37.1523V35.8236L0.88988 34.4153L0.893504 34.4117Z" fill="#2E2E3B"/>
<path d="M1.02037 38.1009L1.41499 38.615C1.55257 38.796 1.66479 38.7091 1.66479 38.4158V35.8707C1.66479 35.5811 1.55257 35.1973 1.41499 35.0163L1.02037 34.5022C0.882794 34.3212 0.80315 34.4117 0.770567 34.7013C0.567826 36.4572 0.770567 37.2464 0.770567 37.2464C0.839354 37.5868 0.882794 37.9198 1.02037 38.1009Z" fill="url(#paint0_linear_160_15328)"/>
<path d="M23.0105 46.6558L51.8577 30.0021V28.6698L23.0105 45.3235V46.6558Z" fill="#1B1B1B"/>
<path d="M48.0744 31.4973L47.4807 31.8412L48.6247 32.4422L49.2148 32.1019L48.0744 31.4973Z" fill="#602929"/>
<path d="M45.7427 32.6341L48.3276 34.361V31.0411L45.7427 29.3142V32.6341Z" fill="#1A1A1A"/>
<path d="M48.6245 34.1872L48.3276 34.361V31.0411L48.6245 30.8673V34.1872Z" fill="#292929"/>
<path d="M45.8478 32.4711L47.4625 33.9012L47.6218 35.3168L46.3692 34.5927L46.2099 33.1771L44.5952 31.7471L45.8478 32.4711Z" fill="#292929"/>
<path d="M23.416 48.0641L21.642 46.8476L16.664 50.0951L17.4533 45.3017L22.7861 43.9767L23.416 48.0641Z" fill="#222222"/>
<path d="M15.7913 51.2211C15.7913 49.6209 16.9209 47.6695 18.3184 46.8621C19.0135 46.4603 19.6434 46.4204 20.0996 46.6775C20.0996 46.6775 20.1068 46.6811 20.1104 46.6847L21.707 47.6079V48.8425L18.1229 53.7626L16.6276 52.8937C16.5552 52.8611 16.4901 52.8213 16.4285 52.7778C16.0339 52.4954 15.795 51.9596 15.795 51.2247L15.7913 51.2211Z" fill="url(#paint1_linear_160_15328)"/>
<path d="M22.4058 49.2045C22.4058 50.8047 21.2762 52.7561 19.8787 53.5635C18.4849 54.3708 17.3517 53.7228 17.3517 52.1226C17.3517 50.5224 18.4813 48.571 19.8787 47.7636C21.2726 46.9599 22.4058 47.6043 22.4058 49.2045Z" fill="url(#paint2_linear_160_15328)"/>
<path d="M17.493 52.0791C17.493 53.6178 18.5827 54.2405 19.9223 53.4657C21.2654 52.691 22.3516 50.8156 22.3516 49.2733C22.3516 47.7311 21.2618 47.112 19.9223 47.8867C18.5791 48.6615 17.493 50.5368 17.493 52.0791Z" fill="url(#paint3_linear_160_15328)"/>
<path d="M21.345 49.8164C21.345 50.7469 20.6897 51.8764 19.8787 52.3434C19.0678 52.8105 18.4125 52.4376 18.4125 51.5071C18.4125 50.5767 19.0678 49.4471 19.8787 48.9801C20.6897 48.5131 21.345 48.886 21.345 49.8164Z" fill="#CBCAE8"/>
<path d="M21.135 49.9394C21.135 50.7359 20.5739 51.7062 19.8787 52.1044C19.1872 52.5063 18.6225 52.1841 18.6225 51.3876C18.6225 50.5911 19.1836 49.6208 19.8787 49.2226C20.5702 48.8207 21.135 49.1429 21.135 49.9394Z" fill="#93949C"/>
<path d="M20.6355 50.6129C20.5523 50.8663 20.4762 51.0003 20.3025 51.2066C20.2409 51.279 20.2011 51.3804 20.2192 51.442C20.2373 51.5035 20.3278 51.4854 20.4111 51.3877C20.5921 51.1813 20.7731 50.8591 20.8528 50.602C20.8926 50.4826 20.86 50.3993 20.7948 50.4174C20.7297 50.4355 20.6645 50.5224 20.6319 50.6129H20.6355Z" fill="#504F58"/>
<path d="M19.1222 50.5875C19.2055 50.3341 19.2815 50.2001 19.4553 49.9938C19.5169 49.9214 19.5567 49.82 19.5386 49.7584C19.5205 49.6969 19.43 49.715 19.3467 49.8128C19.1657 50.0191 18.9847 50.3413 18.9014 50.5984C18.8616 50.7178 18.8941 50.8011 18.9593 50.783C19.0245 50.7649 19.0896 50.678 19.1222 50.5875Z" fill="#504F58"/>
<path d="M19.4879 51.6954C19.3069 51.7026 19.2308 51.6628 19.1403 51.5144C19.1077 51.4601 19.039 51.4565 18.9738 51.5144C18.9086 51.5723 18.8797 51.6954 18.9231 51.7642C19.01 51.9235 19.1982 52.0212 19.3865 52.0068C19.4698 52.0068 19.5603 51.9126 19.5784 51.8294C19.5965 51.7461 19.553 51.6918 19.4879 51.6954Z" fill="#504F58"/>
<path d="M19.2778 51.9741C19.3611 51.9741 19.4516 51.88 19.4697 51.7967C19.477 51.7532 19.4697 51.7207 19.4552 51.6953C19.4661 51.6953 19.477 51.6953 19.4878 51.6953C19.553 51.6953 19.5928 51.746 19.5783 51.8293C19.5602 51.9125 19.4733 52.003 19.3864 52.0067C19.3068 52.0139 19.2272 51.9958 19.1547 51.9668C19.1946 51.9741 19.238 51.9777 19.2778 51.9741Z" fill="#9C9AAB"/>
<path d="M19.0279 51.4782C19.0714 51.4601 19.1148 51.4782 19.1366 51.5144C19.18 51.5868 19.2198 51.6302 19.2705 51.6592C19.1619 51.6447 19.1004 51.5976 19.0279 51.4818V51.4782Z" fill="#9C9AAB"/>
<path d="M20.2735 49.505C20.4545 49.4978 20.5305 49.5376 20.621 49.686C20.6536 49.7404 20.7224 49.744 20.7875 49.686C20.8527 49.6281 20.8817 49.505 20.8382 49.4362C20.7513 49.2769 20.5631 49.1792 20.3748 49.1937C20.2916 49.1937 20.201 49.2878 20.1829 49.3711C20.1648 49.4543 20.2083 49.5086 20.2735 49.505Z" fill="#504F58"/>
<path d="M20.3531 51.308C20.5341 51.1017 20.7151 50.7794 20.7984 50.5224C20.8128 50.4826 20.8128 50.45 20.8128 50.421C20.8671 50.421 20.8961 50.4934 20.8599 50.6057C20.7803 50.8627 20.5992 51.1849 20.4146 51.3913C20.3313 51.489 20.2408 51.5071 20.2227 51.4456C20.2191 51.4311 20.2263 51.413 20.2263 51.3985C20.2625 51.3913 20.3096 51.3659 20.3531 51.3116V51.308Z" fill="#93949C"/>
<path d="M18.9014 50.6998C18.9666 50.6817 19.0318 50.5948 19.0643 50.5043C19.1476 50.2509 19.2236 50.1169 19.3974 49.9106C19.4481 49.8526 19.4735 49.7802 19.4771 49.7223C19.5097 49.7187 19.5314 49.7259 19.5422 49.7549C19.5603 49.8164 19.5205 49.9178 19.459 49.9902C19.2816 50.1966 19.2092 50.3269 19.1259 50.5839C19.0969 50.6745 19.0281 50.7613 18.963 50.7794C18.9195 50.7903 18.8942 50.7541 18.8906 50.6962C18.8942 50.6962 18.8978 50.6962 18.9014 50.6962V50.6998Z" fill="#93949C"/>
<path d="M20.726 49.6064C20.7875 49.5485 20.8165 49.4326 20.7766 49.3602C20.7984 49.3856 20.8201 49.4073 20.8346 49.4363C20.878 49.505 20.849 49.6281 20.7839 49.6861C20.7187 49.744 20.6499 49.7404 20.6173 49.6861C20.5992 49.6571 20.5811 49.6318 20.563 49.61C20.5956 49.6571 20.6608 49.6607 20.7223 49.6028L20.726 49.6064Z" fill="#93949C"/>
<path d="M20.2119 49.4218C20.3857 49.4145 20.4617 49.4544 20.5486 49.5919C20.4798 49.5195 20.4038 49.4978 20.2734 49.5051C20.2228 49.5051 20.1938 49.4689 20.1902 49.4146C20.1974 49.4146 20.2047 49.4254 20.2119 49.4254V49.4218Z" fill="#93949C"/>
<path d="M19.81 52.0067C20.4761 51.6229 21.0155 50.6889 21.0155 49.925C21.0155 49.3168 20.6752 49.0018 20.201 49.0851C20.7368 48.9402 21.135 49.2697 21.135 49.9358C21.135 50.7323 20.5739 51.699 19.8787 52.1008C19.2922 52.4412 18.7999 52.2601 18.6623 51.7135C18.8216 52.1769 19.2741 52.3144 19.81 52.0031V52.0067Z" fill="#9C9AAB"/>
<path d="M20.6897 50.1965C20.6897 50.7106 20.3277 51.3369 19.8787 51.5976C19.4298 51.8582 19.0678 51.6483 19.0678 51.1342C19.0678 50.6201 19.4298 49.9937 19.8787 49.7331C20.3277 49.4724 20.6897 49.6824 20.6897 50.1965Z" fill="#CBCAE8"/>
<path d="M20.5522 50.2762C20.5522 50.7034 20.2518 51.2247 19.8789 51.4383C19.506 51.6519 19.2055 51.4817 19.2055 51.0545C19.2055 50.6273 19.506 50.106 19.8789 49.8924C20.2518 49.6788 20.5522 49.849 20.5522 50.2762Z" fill="#93949C"/>
<path d="M19.7883 51.3297C20.1359 51.127 20.4183 50.6418 20.4183 50.2436C20.4183 49.9866 20.2988 49.8273 20.125 49.8019C20.3748 49.7693 20.5522 49.9467 20.5522 50.2726C20.5522 50.6998 20.2518 51.2211 19.8789 51.4347C19.5856 51.6049 19.3322 51.5325 19.2417 51.2827C19.3503 51.4347 19.553 51.4637 19.7883 51.3297Z" fill="#9C9AAB"/>
<path d="M4.52124 43.126V43.3613L0.889997 45.3163V45.081L4.52124 43.126Z" fill="#292929"/>
<path d="M0.889997 46.6775L4.52124 44.7225V45.0592L3.9456 46.0729L1.67562 47.2423L0.889997 46.8477V46.6775Z" fill="#292929"/>
<path d="M4.52124 43.3612V44.7225L0.889997 46.6775V45.3162L4.52124 43.3612Z" fill="#222222"/>
<path d="M15.9941 50.2726V51.6338L12.486 53.6613V52.3L15.9941 50.2726Z" fill="#222222"/>
<path d="M16.7581 50.1929V50.4246L13.2499 52.452V52.2203L16.7581 50.1929Z" fill="#292929"/>
<path d="M1.28823 47.8651L0.249187 46.75L1.38236 47.8651L10.9365 53.3825L14.3904 53.3536L14.2383 53.8459L13.2681 54.3057C13.2681 54.3057 11.5556 53.8423 11.0995 53.6613C8.67018 52.691 4.53209 50.1423 2.25126 48.6579C2.11006 48.5674 1.28823 47.8687 1.28823 47.8687V47.8651Z" fill="#B9B3C0"/>
<path d="M0.339739 46.9961C0.339739 46.9961 0.929859 47.5391 1.10726 47.6803C2.2694 48.6144 7.93891 52.1479 11.1828 53.4983C11.4362 53.6033 12.4282 53.9364 12.4282 53.9364C12.8807 54.1029 13.2536 54.0015 13.6338 53.7843L14.394 53.3571V51.9886L2.19699 47.0504L1.03485 46.0005L0.495413 46.1706C0.115273 46.3915 0.274572 46.9273 0.339739 46.9925V46.9961Z" fill="#404B4D"/>
<path d="M0.249058 45.2583V46.7535C0.249058 46.7535 1.1107 47.626 1.38223 47.8686C2.80866 49.1285 8.46369 52.242 10.9364 53.3861C11.3528 53.5779 12.6633 54.0015 12.6633 54.0015V52.5063L10.9364 51.8908L1.38223 46.3734L0.249058 45.2583Z" fill="#404B4D"/>
<path d="M0.339739 45.6276C0.339739 45.6276 0.929859 46.1707 1.10726 46.3119C2.2694 47.2459 7.93891 50.7794 11.1828 52.1298C11.4362 52.2348 12.211 52.5063 12.211 52.5063C12.6635 52.6729 13.2536 52.6331 13.6338 52.4158L14.394 51.9886L14.0755 51.7569L12.2725 51.5035L2.18975 45.7471L0.933481 44.5524L0.491795 44.8058C0.111655 45.0266 0.270948 45.5625 0.336116 45.6276H0.339739Z" fill="#535C5E"/>
<path d="M12.8228 52.4955C13.1052 52.4955 13.3803 52.4303 13.5758 52.3181L14.1804 51.9778L14.0284 51.8692L12.2327 51.6158L2.12094 45.8413L0.918976 44.6936L0.553319 44.9072C0.459189 44.9615 0.404885 45.0412 0.379542 45.1534C0.339719 45.3272 0.397641 45.5118 0.426604 45.5516C0.491771 45.6132 1.02035 46.0983 1.17964 46.225C2.32368 47.1446 8.02216 50.6889 11.2262 52.0249C11.4724 52.1262 12.2399 52.3978 12.2471 52.3978C12.4209 52.4593 12.62 52.4955 12.8228 52.4955Z" fill="#535C5E"/>
<path d="M39.8778 37.279C39.8778 35.6788 41.0073 33.7275 42.4048 32.9201C43.0999 32.5182 43.7298 32.4784 44.186 32.7355C44.186 32.7355 44.1933 32.7391 44.1969 32.7427L45.7935 33.6659V34.9005L42.2093 39.8205L40.7141 38.9517C40.6417 38.9191 40.5765 38.8792 40.5149 38.8358C40.1203 38.5534 39.8814 38.0176 39.8814 37.2827L39.8778 37.279Z" fill="url(#paint4_linear_160_15328)"/>
<path d="M46.4922 35.2625C46.4922 36.8627 45.3626 38.8141 43.9652 39.6214C42.5713 40.4252 41.4381 39.7807 41.4381 38.1805C41.4381 36.5803 42.5677 34.6289 43.9652 33.8216C45.359 33.0179 46.4922 33.6623 46.4922 35.2625Z" fill="url(#paint5_linear_160_15328)"/>
<path d="M41.5794 38.1371C41.5794 39.6758 42.6692 40.2985 44.0087 39.5237C45.3519 38.749 46.438 36.8736 46.438 35.3313C46.438 33.789 45.3483 33.17 44.0087 33.9447C42.6656 34.7195 41.5794 36.5948 41.5794 38.1371Z" fill="url(#paint6_linear_160_15328)"/>
<path d="M42.4989 37.5686C42.4989 38.499 43.1542 38.8719 43.9651 38.4049C44.7761 37.9379 45.4314 36.8047 45.4314 35.8779C45.4314 34.9511 44.7761 34.5746 43.9651 35.0416C43.1542 35.5086 42.4989 36.6418 42.4989 37.5686Z" fill="#CBCAE8"/>
<path d="M42.6473 37.4818C42.6473 38.3181 43.2374 38.6548 43.9651 38.2348C44.6928 37.8149 45.283 36.7976 45.283 35.9612C45.283 35.1249 44.6928 34.7882 43.9651 35.2082C43.9 35.248 43.8312 35.2915 43.7696 35.3385C43.2012 35.7657 42.7523 36.5369 42.6618 37.2392C42.6509 37.3225 42.6473 37.4022 42.6473 37.4818Z" fill="#CBCAE8"/>
<path d="M43.4873 37.8945C44.1751 37.4962 44.7363 36.5332 44.7363 35.7403C44.7363 35.4218 44.6458 35.1792 44.4901 35.0271C44.9571 34.9909 45.283 35.3349 45.283 35.9576C45.283 36.7939 44.6928 37.8112 43.9651 38.2312C43.4329 38.5389 42.9768 38.4411 42.7668 38.0429C42.9695 38.09 43.2193 38.0429 43.4873 37.8909V37.8945Z" fill="#93949C"/>
<g style="mix-blend-mode:multiply">
<path d="M42.7234 37.3333C42.7234 37.8474 43.0855 38.0538 43.5308 37.7931C43.9761 37.5361 44.3381 36.9097 44.3381 36.3993C44.3381 35.8888 43.9761 35.6788 43.5308 35.9395C43.0855 36.1965 42.7234 36.8228 42.7234 37.3333Z" fill="#91929A"/>
</g>
<path d="M42.6619 37.2392C42.7995 37.4419 43.0638 37.4781 43.3643 37.3044C43.8096 37.0473 44.1716 36.421 44.1716 35.9105C44.1716 35.5666 44.0087 35.3602 43.7661 35.3385C43.1977 35.7657 42.7488 36.5368 42.6583 37.2392H42.6619Z" fill="#93949C"/>
<path d="M43.9652 35.4073L44.5698 35.7585L43.3751 37.6954L42.7777 37.3515L43.1868 36.3776L43.9652 35.4073Z" fill="#93949C"/>
<path d="M43.1544 37.1885C43.1544 37.7026 43.5164 37.909 43.9617 37.6483C44.407 37.3913 44.769 36.7649 44.769 36.2545C44.769 35.744 44.407 35.534 43.9617 35.7947C43.5164 36.0517 43.1544 36.6781 43.1544 37.1885Z" fill="#93949C"/>
<path d="M43.2339 37.174C43.2339 37.6628 43.5815 37.8619 44.0087 37.6157C44.4359 37.3695 44.7834 36.7722 44.7834 36.2834C44.7834 35.7946 44.4359 35.5955 44.0087 35.8417C43.5815 36.0879 43.2339 36.6853 43.2339 37.174Z" fill="#CBCAE8"/>
<path d="M10.9112 16.6646V35.896L11.2878 36.1132L24.8895 43.9658L25.5557 44.3496V25.1181L10.9112 16.6646Z" fill="#CFD3D6"/>
<path d="M11.9211 25.9762L11.5591 32.6739V36.8518L6.44351 40.3201L4.77452 42.9738L1.28447 44.8456V42.1954L0.994843 42.4923L1.11793 40.3744L0.994843 39.9291L1.07449 39.5164L1.30981 38.5461C1.30981 38.5461 1.67909 36.9712 2.10992 35.4724C2.54436 33.9699 4.05044 30.4473 4.05044 30.4473L4.33283 30.0961L11.7329 25.8241L11.9139 25.9762H11.9211Z" fill="#98AC9F"/>
<path d="M11.5591 32.674V36.8555L6.44711 40.3238L4.77811 42.9775L1.28807 44.8493V42.2028L0.998439 42.496L1.12153 40.3781L4.0468 38.5607L8.64106 34.361L11.5591 32.674Z" fill="#7B9685"/>
<path d="M1.43656 44.6718L4.47044 43.0608V43.039C4.47044 43.039 4.56457 42.6553 5.10763 41.5728C5.73033 40.3274 6.96488 39.2014 6.97574 39.1906L10.5527 37.1125C10.788 36.9749 10.969 36.6599 10.969 36.3884L11.3311 26.9573C11.3311 26.8342 11.2876 26.7401 11.208 26.693C11.1283 26.646 11.0233 26.6532 10.9147 26.7184L4.57181 30.3822C4.41976 30.4691 4.27856 30.6392 4.19891 30.8311C4.07944 31.1135 3.86946 31.6457 3.52552 32.5725C2.92454 34.1908 1.66827 38.0067 1.63206 38.2094C1.59948 38.3941 1.51621 39.4114 1.51259 39.4549L1.43294 44.6791L1.43656 44.6718ZM4.37993 42.9956L1.53793 44.4944L1.61758 39.4549C1.6212 39.4005 1.70447 38.3977 1.73343 38.2239C1.76602 38.0393 3.02953 34.1981 3.61965 32.6051C3.95997 31.6819 4.17357 31.1497 4.29304 30.8709C4.36545 30.7008 4.48854 30.5487 4.6225 30.4727L10.9654 26.8089C11.0414 26.7654 11.1066 26.7582 11.1537 26.7835C11.2007 26.8089 11.2261 26.8704 11.2261 26.9573L10.864 36.3884C10.864 36.6237 10.7011 36.9061 10.4984 37.022L6.91419 39.1073C6.89247 39.1254 5.64706 40.2658 5.01349 41.5257C4.53198 42.4887 4.40527 42.8978 4.37993 42.9956Z" fill="#6F8B79"/>
<path d="M10.1509 42.1195C10.1509 43.7124 9.02494 45.6493 7.63833 46.4531C6.25173 47.2532 5.1258 46.6124 5.1258 45.0194C5.1258 43.4264 6.25173 41.4895 7.63833 40.6858C9.02494 39.8857 10.1509 40.5265 10.1509 42.1195Z" fill="#222222"/>
<path d="M10.4513 34.3248L9.84668 34.676C9.79599 34.705 9.75255 34.7846 9.75255 34.8534V36.3342C9.75255 36.4029 9.79237 36.4355 9.84668 36.4029L10.4513 36.0518C10.502 36.0228 10.5454 35.9432 10.5454 35.8744V34.3936C10.5454 34.3248 10.5056 34.2923 10.4513 34.3248Z" fill="#0C100F"/>
<path d="M10.4368 35.2878L9.86117 35.6209V36.1966C9.86117 36.2291 9.87927 36.2436 9.90462 36.2291L10.397 35.9468C10.4223 35.9323 10.4404 35.8961 10.4404 35.8635V35.2878H10.4368Z" fill="#222222"/>
<path d="M39.7728 0L10.9112 16.6646L25.5556 25.1182L54.4172 8.45358L39.7728 0Z" fill="#EAEAEA"/>
<path d="M25.5556 24.6801L54.0371 8.23633L54.4172 8.45355L25.5556 25.1181L10.9112 16.6646L11.2877 16.4437L25.5556 24.6801Z" fill="#F2EFEC"/>
<path d="M11.7041 40.2116L10.7592 40.7582L10.2777 39.73L9.45947 39.006L6.76591 40.5627C6.76591 40.5627 5.69065 41.2578 4.87245 43.3106C4.64798 43.8645 4.39094 45.1353 4.39094 45.1353L4.19906 45.0991C4.19906 45.0991 4.15199 44.4836 4.47058 43.2853C4.7928 42.0869 5.99476 40.3998 6.86003 39.6794C7.72531 38.9589 11.5593 36.8555 11.5593 36.8555L11.7041 38.8286V40.2116Z" fill="#292929"/>
<path d="M0.908124 44.4474L3.61979 46.8296L10.6831 50.9062L13.6519 51.9887V49.172L0.890021 42.916L0.908124 44.4474Z" fill="#CFD3D6"/>
<path d="M0.904346 44.3568V44.5994L1.74065 45.4429L2.7616 46.2973L3.61963 46.8295L2.40318 44.7876L0.904346 44.3568Z" fill="#CFD3D6"/>
<path d="M23.4378 32.6268L23.7998 39.7445V43.9224L18.6842 47.3907L17.0152 50.0445L13.6483 51.9886V49.3385L13.1378 49.505V46.9418L13.4419 46.6558L13.5541 45.6167C13.5541 45.6167 13.9994 44.0636 14.3542 42.543C14.709 41.0152 15.5526 37.0944 15.5707 37.1016L15.8531 36.7504L23.2531 32.4784L23.4341 32.6304L23.4378 32.6268Z" fill="#BEC3C7"/>
<path d="M23.7998 39.7408V43.9188L18.6842 47.3871L17.0188 50.0444L13.6519 51.9886L13.25 51.7533L13.1414 51.1885V47.3183L16.2875 45.6276L20.8818 41.4279L23.7998 39.7408Z" fill="#AFB4B8"/>
<path d="M13.7786 51.8583L13.6845 51.4818V49.4761V47.036L13.7171 46.6377L15.7119 37.308L16.0594 36.8555L23.3979 32.5907L23.2604 32.4712L15.8531 36.7469L15.5779 37.098L13.4781 46.2069L13.2573 46.5689L13.4419 46.6558L13.1414 46.9418V51.6954L13.5469 51.9271H13.6519L13.7786 51.8583Z" fill="#BEC3C7"/>
<path d="M13.6518 51.9886L17.0188 50.0445V49.9829L13.6518 51.9271V51.9886Z" fill="#292929"/>
<path d="M21.0191 34.6181L16.3742 37.3008C16.1859 37.4094 16.0556 37.594 16.0121 37.804C15.8637 38.5281 15.5017 40.3057 15.1758 41.7575C14.7631 43.593 14.6762 44.4148 14.6762 44.4148V45.7797C14.6762 45.9136 14.7704 45.9643 14.8862 45.8992L15.9832 45.2656C16.1932 45.1461 19.2813 41.3556 19.6977 41.1166L21.3884 40.1428C21.5043 40.0776 21.5984 39.9147 21.5984 39.7843L21.2364 34.7375C21.2364 34.6072 21.1422 34.5529 21.0264 34.6181H21.0191Z" fill="#1E1E1E"/>
<path d="M15.8963 45.1317C15.9868 45.0629 16.6059 44.3388 17.2033 43.6401C18.4559 42.1738 19.361 41.1239 19.6108 40.9827L21.3016 40.0088C21.3703 39.969 21.4319 39.8604 21.4319 39.7844L21.0735 34.7701L16.4502 37.4384C16.3018 37.5252 16.1968 37.6701 16.1642 37.8366C16.0194 38.5426 15.6538 40.3383 15.3243 41.7937C14.9405 43.5025 14.8392 44.3352 14.8283 44.4257V45.7544L15.8999 45.1353L15.8963 45.1317Z" fill="#1E2329"/>
<path d="M21.6456 42.4525L21.041 42.8037C20.9903 42.8327 20.9469 42.9123 20.9469 42.9811V44.4618C20.9469 44.5306 20.9867 44.5632 21.041 44.5306L21.6456 44.1795C21.6963 44.1505 21.7397 44.0708 21.7397 44.0021V42.5213C21.7397 42.4525 21.6999 42.42 21.6456 42.4525Z" fill="#3C4749"/>
<path d="M21.6311 43.4155L21.0555 43.7486V44.3242C21.0555 44.3568 21.0736 44.3713 21.099 44.3568L21.5913 44.0744C21.6167 44.06 21.6348 44.0238 21.6348 43.9912V43.4155H21.6311Z" fill="#222222"/>
<path d="M40.6163 39.234L40.772 37.8039L42.021 34.5746L41.8255 34.4985L40.5692 37.7677L40.4099 39.2123L40.6163 39.234Z" fill="#292929"/>
<path d="M40.41 39.2123L40.5693 37.7823L41.8147 34.5529L40.2978 33.6152L39.0415 36.8881L38.8822 38.329L40.41 39.2123Z" fill="#1D1D1D"/>
<path d="M54.4172 8.45361L25.5556 25.1182V44.3497L54.4172 27.6887V8.45361Z" fill="#BEC3C7"/>
<path d="M26.1927 25.5019V43.2273L53.7764 27.3048V9.57947L53.3455 9.82565L53.0414 9.99943L26.1927 25.5019Z" fill="#A5ABAF"/>
<path d="M26.1963 29.0933V43.2273L53.7764 27.3048L52.8568 26.7763L45.2214 22.3666L37.0104 21.4615L26.1963 29.0933Z" fill="#A5ABAF"/>
<path d="M26.1929 25.502L26.1965 42.7821L53.3892 27.0805V9.80042L26.1929 25.502Z" fill="#BEC3C7"/>
<path d="M49.2148 33.847L48.6247 34.1873V32.4422L49.2148 32.1019V33.847Z" fill="#862929"/>
<path d="M23.9445 47.2785L23.3146 47.4451L22.8331 46.4169L21.6999 46.0729L19.0063 47.6297C19.0063 47.6297 17.9311 48.3248 17.1129 50.3776C16.8884 50.9315 16.7472 52.3398 16.7472 52.3398L16.4395 52.1624C16.4395 52.1624 16.3924 51.547 16.711 50.3486C17.0332 49.1503 18.2352 47.4632 19.1004 46.7427C19.9657 46.0223 23.7997 43.9188 23.7997 43.9188L24.1074 44.0962L23.9445 47.2749V47.2785Z" fill="#535C5E"/>
<path d="M24.3608 47.5174L23.4159 48.0641L22.9344 47.0359L22.0076 46.2467L19.314 47.8035C19.314 47.8035 18.2388 48.4986 17.4206 50.5513C17.1961 51.1052 16.9391 52.376 16.9391 52.376L16.7472 52.3398C16.7472 52.3398 16.7001 51.7243 17.0187 50.526C17.3409 49.3276 18.5429 47.6405 19.4082 46.9201C20.2734 46.1996 24.1074 44.0962 24.1074 44.0962L24.3608 46.1345V47.5174Z" fill="#3C4749"/>
<path d="M4.34016 30.0962L4.48859 30.1831L15.1977 36.3703L15.853 36.7468L23.2603 32.4712L22.7244 31.91L22.5579 31.7326L12.6887 26.0377L11.7402 25.8278L4.58634 29.955L4.34016 30.0962Z" fill="#EAEAEA"/>
<path d="M0.889998 42.9159L3.41703 44.8492L4.34746 45.1823L9.45581 48.1329L11.8272 49.2335L13.1414 49.7078V47.0359L0.889998 40.1246V41.4316V42.9159Z" fill="#CFD3D6"/>
<path d="M0.907939 42.0507L2.19317 43.1368L10.6069 48.1691L12.6814 49.0416L13.1557 49.038L13.572 48.9764V50.8735L13.1557 50.9858L12.5728 50.9676L10.5816 50.1567L10.5924 49.1647L10.5816 50.1567L9.21671 49.4978L3.40238 46.062L1.85648 44.842L0.907939 43.955V42.0507Z" fill="#1E1E1E"/>
<path d="M12.6525 49.1393H13.1557L13.4924 49.0814V50.7649L13.1557 50.8409L12.5548 50.812L12.6525 49.1393Z" fill="#F39737"/>
<path d="M1.10721 42.3585L2.39606 43.4156C2.44675 43.4554 2.48657 43.5532 2.48657 43.6292V44.0238C2.48657 44.1035 2.44675 44.1324 2.39606 44.0926L1.10721 43.0355C1.05652 42.9956 1.0167 42.8979 1.0167 42.8219V42.4272C1.0167 42.3476 1.05652 42.3186 1.10721 42.3585Z" fill="#E5E6EA"/>
<path d="M1.10721 43.2165L2.39606 44.2736C2.44675 44.3135 2.48657 44.4112 2.48657 44.4872V44.8819C2.48657 44.9615 2.44675 44.9905 2.39606 44.9507L1.10721 43.8935C1.05652 43.8537 1.0167 43.7559 1.0167 43.6799V43.2853C1.0167 43.2056 1.05652 43.1767 1.10721 43.2165Z" fill="#E5E6EA"/>
<path d="M10.5926 48.3755L12.2435 49.1141C12.3051 49.143 12.3594 49.2299 12.3594 49.306V49.7006C12.3594 49.7802 12.3087 49.8201 12.2435 49.7911L10.5926 49.0525C10.5311 49.0236 10.4768 48.9367 10.4768 48.8607V48.466C10.4768 48.3864 10.5275 48.3466 10.5926 48.3755Z" fill="#E5E6EA"/>
<path d="M10.5926 49.2299L12.2435 49.9685C12.3051 49.9974 12.3594 50.0843 12.3594 50.1603V50.555C12.3594 50.6346 12.3087 50.6744 12.2435 50.6455L10.5926 49.9069C10.5311 49.8779 10.4768 49.7911 10.4768 49.715V49.3204C10.4768 49.2408 10.5275 49.2009 10.5926 49.2299Z" fill="#E5E6EA"/>
<path d="M12.9712 47.1301L13.2065 46.9563L0.890017 39.8386V40.2151L1.76977 41.2071L3.77908 42.6372L9.73098 46.0729L11.7041 46.9418L12.9712 47.1301Z" fill="#DFE0EA"/>
<path d="M0.890043 39.8387L2.28027 40.9827L4.00719 42.2281L9.89754 45.6277L11.5593 46.3409L13.2211 47.0143L13.4419 46.6559L1.2195 38.9445L1.08193 39.5201L0.890043 39.8387Z" fill="#DFE0EA"/>
<path d="M13.4419 46.6558H13.8075L14.6692 46.33L13.8075 46.873L12.9712 47.1301L13.4419 46.6558Z" fill="#CFD3D6"/>
<path d="M13.7965 51.8113L16.7073 50.1314V50.1097C16.7073 50.1097 16.8015 49.7259 17.3445 48.6434C17.9672 47.398 19.2018 46.2721 19.2126 46.2612L21.9714 44.6538C22.2067 44.5162 22.3877 44.2012 22.3877 43.9297L21.7071 34.2633C21.7071 34.1438 21.6636 34.0497 21.584 34.0063C21.5043 33.9592 21.3993 33.9664 21.2907 34.0316L16.0846 37.0365C15.9326 37.1234 15.7914 37.2936 15.7117 37.4854C15.6466 37.6411 15.614 37.7968 15.5597 38.0538C15.5126 38.2747 15.4511 38.5788 15.3352 39.0241C14.9225 40.6243 13.8979 45.1063 13.8689 45.2765C13.8364 45.4611 13.7531 46.4785 13.7495 46.5219L13.7929 51.8149L13.7965 51.8113ZM16.6204 50.0626L13.8979 51.6339L13.8545 46.5219C13.8581 46.4676 13.9414 45.4648 13.9703 45.291C13.9993 45.1208 15.0202 40.6424 15.4366 39.0458C15.5524 38.5969 15.6176 38.2928 15.661 38.0719C15.7117 37.8221 15.7443 37.6701 15.8058 37.5216C15.8783 37.3515 16.0014 37.1994 16.1353 37.1234L21.3414 34.1185C21.4138 34.075 21.4826 34.0678 21.5297 34.0931C21.5767 34.1221 21.6021 34.18 21.6021 34.2669L22.2827 43.9333C22.2827 44.1614 22.1198 44.4438 21.917 44.5633L19.1511 46.178C19.1294 46.1961 17.8839 47.3365 17.2504 48.5964C16.7689 49.5594 16.6422 49.9685 16.6168 50.0662L16.6204 50.0626Z" fill="#A5ABAF"/>
<path d="M1.48371 39.9545L1.92178 40.4288L2.91376 41.2579L4.23158 42.268L9.83592 45.5046L12.3448 46.33L13.2572 46.569L13.478 46.2069L15.5742 37.0981L4.0578 30.451L2.7255 33.6515L1.31717 38.5498L1.21942 38.9445V39.5997L1.48371 39.9545Z" fill="#DFE0EA"/>
<path d="M13.0471 45.1823L12.9276 45.595L12.772 45.9136L12.3592 46.1236L9.88653 45.2982L4.30391 42.0833L3.00057 41.0768L1.96514 40.2043L1.60673 39.6866L1.55604 39.368L1.68638 38.6113L13.0471 45.1823Z" fill="#1E1E1E"/>
<path d="M1.74077 38.6729L3.36632 40.4867L4.5538 41.4389L8.78964 43.8392L10.7374 44.6683L13.0472 45.1824L13.3513 44.3461L12.4897 43.5351L10.531 42.554L7.9823 41.0334L7.42114 39.111L4.3402 37.3986L1.83852 38.6005L1.74077 38.6729Z" fill="#5C5973"/>
<path d="M1.90719 37.7678L1.95788 37.8221L3.58342 39.6395L4.77091 40.588L9.00675 42.992L10.9545 43.821L13.2643 44.3315L13.5684 43.4952L14.097 41.5873L15.0781 37.6302L14.774 37.2211L13.6155 36.8156L11.5555 35.8635L8.06907 33.8578L6.8309 33.1409L5.23431 31.986L4.30388 31.1027L4.1301 31.1316L2.62041 35.0597L1.90719 37.7678Z" fill="#1E1E1E"/>
<path d="M2.08101 37.7244L2.43218 38.119L2.92455 38.6693L3.69207 39.5237L4.86145 40.4578L9.07557 42.8508L11.0016 43.6727L13.1666 44.1506L13.42 43.4482L13.9486 41.5439L14.9116 37.6628L14.6763 37.3515L13.5576 36.9605L11.4831 36.0047L7.99308 33.9918L7.95326 33.9701L6.74405 33.2713L5.1366 32.1056L4.46683 31.472L4.23875 31.2874L2.7725 35.1069L2.08101 37.7244Z" fill="#1E2329"/>
<path d="M2.43229 37.3478V38.1189L2.92466 38.6692L3.73563 38.2022C3.90216 38.1081 6.65003 35.2335 7.95337 33.97L6.74778 33.2713L5.13672 32.1019L4.46694 31.4719L4.31489 31.3452C3.94561 32.1779 3.27584 33.7853 2.9138 35.0054C2.37799 36.8084 2.43229 37.3442 2.43229 37.3442V37.3478Z" fill="#313942"/>
<g style="mix-blend-mode:screen">
<path d="M11.5628 36.1133C12.4606 36.4826 13.4599 36.9641 13.4599 36.9641L14.6437 37.3225L14.9333 37.699L13.1919 44.1578L12.9385 44.9506L10.8206 44.5053L8.91628 43.7016L8.95973 42.9196L11.5628 36.1133Z" fill="#0B0E0F"/>
</g>
<path d="M1.68652 38.6114L1.74082 38.6729L3.36637 40.4867L4.55386 41.4389L8.78607 43.8392L10.7375 44.6683L13.0473 45.1824L13.3514 44.346L13.956 42.1593L14.0972 41.5873L13.5686 43.4953L13.2645 44.3316L10.9547 43.8211L9.00692 42.992L4.77108 40.5881L3.58359 39.6396L1.95805 37.8221L1.90736 37.7678L1.68652 38.6114Z" fill="#1E1E1E"/>
<path d="M4.05783 30.4474L5.38289 31.4068L7.39945 32.7608L11.8235 35.3132L13.2826 35.9684L15.5779 37.098L15.853 36.7468L15.1977 36.3703L4.48866 30.1831L4.34023 30.0962L4.05783 30.4474Z" fill="#EAEAEA"/>
<path d="M4.05777 30.4473L5.38283 31.4067L7.39938 32.7607L11.8235 35.3131L13.2825 35.9684L15.5778 37.098L15.853 36.7468L23.2603 32.4711L22.7244 31.91L22.8511 32.2829L15.6249 36.4644L15.1977 36.3703L14.9877 36.3232L12.0552 35.0669L8.83667 33.2097L5.68694 31.204L4.48859 30.1867V30.183L4.58635 29.955L4.34016 30.0962L4.05777 30.4473Z" fill="#DFE0EA"/>
<path d="M8.46021 34.8678L8.90914 35.1249C9.15894 35.2697 9.40875 35.4326 9.6477 35.61C9.72734 35.6679 9.77079 35.7874 9.74907 35.8851L9.69476 36.1458C9.67304 36.2436 9.59339 36.2906 9.51012 36.258C9.25307 36.1494 8.99965 36.0227 8.74622 35.8779L8.29729 35.6209C8.04749 35.476 7.79768 35.3131 7.55874 35.1357C7.47909 35.0778 7.43564 34.9583 7.45736 34.8606L7.51167 34.5999C7.53339 34.5022 7.61304 34.4551 7.69631 34.4877C7.95336 34.5963 8.20678 34.723 8.46021 34.8678Z" fill="#272E36"/>
<path d="M8.35878 35.201C8.3624 35.0743 8.39136 34.7195 8.39136 34.7195L8.83667 34.7303C8.83667 34.7303 8.78598 35.23 8.78236 35.2481C8.75702 35.3313 8.64841 35.4182 8.60134 35.4146C8.49273 35.4037 8.35154 35.3386 8.35878 35.201Z" fill="#272E36"/>
<path d="M8.43112 34.6108C8.36233 34.705 8.39129 34.8281 8.49266 34.8896C8.59404 34.9475 8.73523 34.9222 8.8004 34.8281C8.86919 34.7339 8.84022 34.6108 8.73885 34.5493C8.63748 34.4914 8.49629 34.5167 8.43112 34.6108Z" fill="#272E36"/>
<path d="M15.5344 43.0897C15.6539 42.9449 15.8421 42.8291 15.8421 42.8291V42.8363C15.9254 42.782 16.0304 42.7639 16.1607 42.7929L16.7979 42.9341C17.0948 42.9992 17.3337 43.2889 17.3337 43.5785V46.1236C17.3337 46.2286 17.3012 46.3191 17.2469 46.3915C17.2469 46.3915 17.2469 46.3952 17.2432 46.3988C17.1636 46.5146 16.9283 46.6739 16.9283 46.6739L16.8559 46.54C16.8377 46.54 16.8196 46.54 16.8015 46.5327L16.1644 46.3915C15.8675 46.3264 15.7516 46.3264 15.6032 46.0404C15.6032 46.0404 15.6104 44.2338 15.6213 43.5025L15.5344 43.0934V43.0897Z" fill="#2E2E3B"/>
<path d="M15.5598 44.6501L15.1507 44.9543L14.5679 45.3199C14.5679 45.3199 14.2963 45.4502 14.3506 45.7869C14.4303 46.2721 14.7996 46.1019 14.7996 46.1019L15.625 45.8087L15.5598 44.6501Z" fill="#2E2E3B"/>
<path d="M15.9217 46.5906L16.5589 46.7318C16.8558 46.797 17.0947 46.616 17.0947 46.3263V43.7812C17.0947 43.4916 16.8558 43.2019 16.5589 43.1368L15.9217 42.9956C15.6249 42.9304 15.4547 43.0861 15.3859 43.4011C15.3714 43.4626 15.3606 46.2394 15.3606 46.2394C15.509 46.5218 15.6249 46.5255 15.9217 46.5906Z" fill="url(#paint7_linear_160_15328)"/>
<g style="mix-blend-mode:multiply">
<path d="M35.6565 15.0209L24.56 21.429H23.5427L27.8075 11.053H28.7814L35.6565 15.0209Z" fill="#E8E8E8"/>
</g>
<path d="M34.6392 14.706L23.5427 21.114L16.6676 17.1461L27.7641 10.738L34.6392 14.706Z" fill="#F1F1F1"/>
<path d="M34.6392 15.0209L23.5427 21.429V21.114L34.6392 14.7059V15.0209Z" fill="#BEC3C7"/>
<path d="M16.6676 17.4611L23.5427 21.429V21.1141L16.6676 17.1461V17.4611Z" fill="#E0E0E0"/>
<path d="M27.279 10.2095L33.2924 13.6814L33.7305 14.7349L27.717 11.263L27.279 10.2095Z" fill="#E0DAD3"/>
<path d="M17.5799 17.1171L23.5897 20.5891L23.9807 19.0576L17.9673 15.5857L17.5799 17.1171Z" fill="#E0E0E0"/>
<path d="M17.9672 15.5857L23.9806 19.0577L33.2922 13.6814L27.2788 10.2095L17.9672 15.5857Z" fill="#F1F1F1"/>
<path d="M24.98 17.7254L24.8533 17.7978L20.1504 15.0825L20.2771 15.0101L24.98 17.7254Z" fill="#493F41"/>
<path d="M25.4216 17.4684L25.2949 17.5444L20.592 14.8291L20.7188 14.7567L25.4216 17.4684Z" fill="#493F41"/>
<path d="M25.8633 17.2149L25.7366 17.2873L21.0337 14.5757L21.1604 14.4996L25.8633 17.2149Z" fill="#493F41"/>
<path d="M26.3049 16.9615L26.1746 17.0339L21.4753 14.3186L21.6021 14.2462L26.3049 16.9615Z" fill="#493F41"/>
<path d="M26.7432 16.7045L26.6165 16.7805L21.9172 14.0652L22.0439 13.9928L26.7432 16.7045Z" fill="#493F41"/>
<path d="M27.1848 16.451L27.0581 16.5234L22.3589 13.8081L22.4856 13.7357L27.1848 16.451Z" fill="#493F41"/>
<path d="M27.6265 16.1976L27.4998 16.27L22.7969 13.5547L22.9272 13.4823L27.6265 16.1976Z" fill="#493F41"/>
<path d="M28.0681 15.9405L27.9414 16.0166L23.2385 13.3013L23.3652 13.2289L28.0681 15.9405Z" fill="#493F41"/>
<path d="M28.5098 15.6871L28.3831 15.7595L23.6802 13.0442L23.8069 12.9718L28.5098 15.6871Z" fill="#493F41"/>
<path d="M28.9514 15.4337L28.8211 15.5061L24.1218 12.7908L24.2485 12.7184L28.9514 15.4337Z" fill="#493F41"/>
<path d="M29.3896 15.1766L29.2629 15.249L24.5637 12.5373L24.6904 12.4613L29.3896 15.1766Z" fill="#493F41"/>
<path d="M29.8313 14.9232L29.7046 14.9956L25.0053 12.2803L25.132 12.2079L29.8313 14.9232Z" fill="#493F41"/>
<path d="M30.2729 14.6698L30.1462 14.7422L25.4434 12.0269L25.5737 11.9545L30.2729 14.6698Z" fill="#493F41"/>
<path d="M30.7146 14.4127L30.5879 14.4851L25.885 11.7734L26.0117 11.6974L30.7146 14.4127Z" fill="#493F41"/>
<path d="M31.1562 14.1593L31.0295 14.2317L26.3267 11.5164L26.4534 11.444L31.1562 14.1593Z" fill="#493F41"/>
<path d="M28.9731 12.8994L22.6701 16.5378L22.3334 16.3423L28.6364 12.7039L28.9731 12.8994Z" fill="#F1F1F1"/>
<path d="M33.7305 14.7349L23.5898 20.5891L23.9808 19.0577L33.2924 13.6814L33.7305 14.7349Z" fill="#BEC3C7"/>
<path d="M13.7316 35.6896L21.4502 31.2149L21.3126 31.1316L13.6845 35.6896H13.7316Z" fill="#BEC3C7"/>
<path d="M13.6844 35.6426L21.4031 31.1678L21.2655 31.0881L13.5432 35.5629L13.6844 35.6426Z" fill="#EAEAEA"/>
<path d="M13.6843 35.6426V35.6897L13.5431 35.6064V35.563L13.6843 35.6426Z" fill="#F4F1EE"/>
<path d="M13.6844 35.6897L21.4031 31.2149V31.1678L13.6844 35.6426V35.6897Z" fill="#BEC3C7"/>
<path d="M12.2001 34.8027L19.9187 30.3279L19.7811 30.2483L12.153 34.8027H12.2001Z" fill="#BEC3C7"/>
<path d="M12.1529 34.7592L19.8716 30.2844L19.7304 30.2012L12.0117 34.676L12.1529 34.7592Z" fill="#EAEAEA"/>
<path d="M12.1528 34.7593V34.8027L12.0116 34.7231V34.676L12.1528 34.7593Z" fill="#F4F1EE"/>
<path d="M12.1529 34.8027L19.8716 30.3279V30.2844L12.1529 34.7592V34.8027Z" fill="#BEC3C7"/>
<path d="M10.6686 33.9193L18.3872 29.4445L18.246 29.3649L10.6179 33.9193H10.6686Z" fill="#BEC3C7"/>
<path d="M10.618 33.8723L18.3367 29.3975L18.1991 29.3179L10.4804 33.7927L10.618 33.8723Z" fill="#EAEAEA"/>
<path d="M10.6179 33.8723V33.9193L10.4803 33.8397V33.7926L10.6179 33.8723Z" fill="#F4F1EE"/>
<path d="M10.618 33.9193L18.3367 29.4445V29.3975L10.618 33.8722V33.9193Z" fill="#BEC3C7"/>
<path d="M9.13345 33.036L16.8557 28.5612L16.7145 28.4779L9.08638 33.036H9.13345Z" fill="#BEC3C7"/>
<path d="M9.08653 32.9889L16.8052 28.5141L16.6676 28.4344L8.94896 32.9092L9.08653 32.9889Z" fill="#EAEAEA"/>
<path d="M9.08643 32.9888V33.0359L8.94885 32.9526V32.9092L9.08643 32.9888Z" fill="#F4F1EE"/>
<path d="M9.08653 33.0359L16.8052 28.5611V28.514L9.08653 32.9888V33.0359Z" fill="#BEC3C7"/>
<path d="M7.60216 32.1489L15.3208 27.6741L15.1832 27.5945L7.55509 32.1489H7.60216Z" fill="#BEC3C7"/>
<path d="M7.55504 32.1055L15.2737 27.6308L15.1325 27.5475L7.41384 32.0223L7.55504 32.1055Z" fill="#EAEAEA"/>
<path d="M7.55518 32.1055V32.1489L7.41398 32.0693V32.0222L7.55518 32.1055Z" fill="#F4F1EE"/>
<path d="M7.55504 32.149L15.2737 27.6742V27.6307L7.55504 32.1055V32.149Z" fill="#BEC3C7"/>
<path d="M6.07066 31.2656L13.7893 26.7908L13.6517 26.7112L6.0236 31.2656H6.07066Z" fill="#BEC3C7"/>
<path d="M6.02354 31.2185L13.7422 26.7437L13.601 26.6641L5.88235 31.1388L6.02354 31.2185Z" fill="#EAEAEA"/>
<path d="M6.02368 31.2186V31.2656L5.88249 31.186V31.1389L6.02368 31.2186Z" fill="#F4F1EE"/>
<path d="M6.02354 31.2656L13.7422 26.7908V26.7438L6.02354 31.2186V31.2656Z" fill="#BEC3C7"/>
<path d="M11.9212 34.5747L12.3521 34.3285L12.0117 34.1257L11.6787 34.5747H11.9212Z" fill="#EBE7E3"/>
<path d="M11.6787 34.5746L11.3384 34.3719V34.2053L11.6787 34.4044V34.5746Z" fill="#E07427"/>
<path d="M11.6788 34.4044L12.1096 34.1618L11.7693 33.9591L11.3385 34.2053L11.6788 34.4044Z" fill="#FF9A2E"/>
<path d="M11.6788 34.4044L12.1096 34.1619V34.3284L11.6788 34.5746V34.4044Z" fill="#E06F2E"/>
<path d="M10.2269 33.5645L10.6577 33.3183L10.3174 33.1156L9.98433 33.5645H10.2269Z" fill="#EBE7E3"/>
<path d="M9.98438 33.5645L9.64406 33.3617V33.1952L9.98438 33.3979V33.5645Z" fill="#E07427"/>
<path d="M9.98442 33.398L10.4116 33.1518L10.0713 32.9491L9.6441 33.1953L9.98442 33.398Z" fill="#FF9A2E"/>
<path d="M9.98442 33.398L10.4116 33.1519V33.3184L9.98442 33.5646V33.398Z" fill="#E06F2E"/>
<path d="M8.53251 32.5544L8.95972 32.3082L8.6194 32.1091L8.28633 32.5544H8.53251Z" fill="#EBE7E3"/>
<path d="M8.28638 32.5545L7.94606 32.3553V32.1852L8.28638 32.3879V32.5545Z" fill="#E07427"/>
<path d="M8.28646 32.3879L8.71729 32.1417L8.37697 31.939L7.94614 32.1852L8.28646 32.3879Z" fill="#FF9A2E"/>
<path d="M8.28646 32.3879L8.71729 32.1417V32.3083L8.28646 32.5544V32.3879Z" fill="#E06F2E"/>
<path d="M0.908125 44.5995V45.0194L1.36791 45.501L2.38524 46.4169L3.28309 47.0541L7.63479 49.516L10.5709 51.1343L12.9242 51.9887H13.6519L13.5469 51.9271L13.25 51.7534L9.6803 50.0771L2.97536 46.3119L0.908125 44.5995Z" fill="#CFD3D6"/>
<path d="M0.908125 44.9579V45.0194L1.36791 45.5009L2.38524 46.4169L3.28309 47.0541L9.52825 50.5876L10.5709 51.1343L12.9242 51.9887H13.6519V51.9271H12.9242L10.5709 51.0727L9.52825 50.5296L3.28309 46.9925L2.38524 46.359L1.36791 45.4394L0.908125 44.9579Z" fill="#292929"/>
<path d="M10.7735 19.5971L21.4102 25.7409L23.5317 24.5172L12.8951 18.3734L10.7735 19.5971Z" fill="#F1F1F1"/>
<path d="M10.0314 20.589V23.2572L11.2478 23.9524L20.668 29.3938L21.8845 30.0961L23.5317 24.5171L21.4102 25.7408L10.7735 19.597L10.0314 20.589Z" fill="#E0E0E0"/>
<path d="M20.668 26.7293V29.4011L21.8845 30.0962L23.5317 29.1441V24.5172L21.4102 25.7409L20.668 26.7293Z" fill="#CFD3D6"/>
<path d="M23.5317 29.1441V24.7815L21.6057 25.893L20.8997 26.8343V29.4011L21.9967 30.0274L23.5317 29.1441Z" fill="#BEC3C7"/>
<path d="M10.0313 20.589L20.668 26.7292L21.4102 25.7408L10.7735 19.597L10.0313 20.589Z" fill="#EAEAEA"/>
<path d="M15.3498 24.662L15.7227 24.8756V24.5135L15.3498 24.2999V24.662Z" fill="url(#paint8_linear_160_15328)"/>
<path d="M14.6728 24.271L15.0457 24.4846V24.1225L14.6728 23.9089V24.271Z" fill="url(#paint9_linear_160_15328)"/>
<path d="M13.9958 23.88L14.3687 24.0936V23.7315L13.9958 23.5179V23.88Z" fill="url(#paint10_linear_160_15328)"/>
<path d="M13.3188 23.489L13.6917 23.7026V23.3406L13.3188 23.127V23.489Z" fill="url(#paint11_linear_160_15328)"/>
<path d="M12.6417 23.098L13.0146 23.3116V22.9496L12.6417 22.736V23.098Z" fill="url(#paint12_linear_160_15328)"/>
<path d="M11.9647 22.707L12.3376 22.9206V22.5586L11.9647 22.345V22.707Z" fill="url(#paint13_linear_160_15328)"/>
<path d="M11.2877 22.316L11.6606 22.5296V22.1676L11.2877 21.954V22.316Z" fill="url(#paint14_linear_160_15328)"/>
<path d="M10.6107 21.925L10.9836 22.1386V21.7766L10.6107 21.563V21.925Z" fill="url(#paint15_linear_160_15328)"/>
<path d="M15.3498 25.2376L15.7227 25.4513V25.0892L15.3498 24.8756V25.2376Z" fill="url(#paint16_linear_160_15328)"/>
<path d="M14.6728 24.8467L15.0457 25.0603V24.6982L14.6728 24.4846V24.8467Z" fill="url(#paint17_linear_160_15328)"/>
<path d="M13.9958 24.4557L14.3687 24.6693V24.3072L13.9958 24.0936V24.4557Z" fill="url(#paint18_linear_160_15328)"/>
<path d="M13.3188 24.0647L13.6917 24.2783V23.9162L13.3188 23.7026V24.0647Z" fill="url(#paint19_linear_160_15328)"/>
<path d="M12.6417 23.6737L13.0146 23.8873V23.5252L12.6417 23.3116V23.6737Z" fill="url(#paint20_linear_160_15328)"/>
<path d="M11.9647 23.2827L12.3376 23.4963V23.1343L11.9647 22.9207V23.2827Z" fill="url(#paint21_linear_160_15328)"/>
<path d="M11.2877 22.8917L11.6606 23.1053V22.7433L11.2877 22.5297V22.8917Z" fill="url(#paint22_linear_160_15328)"/>
<path d="M10.6107 22.5007L10.9836 22.7143V22.3523L10.6107 22.1387V22.5007Z" fill="url(#paint23_linear_160_15328)"/>
<path d="M15.3498 25.8133L15.7227 26.0269V25.6649L15.3498 25.4513V25.8133Z" fill="url(#paint24_linear_160_15328)"/>
<path d="M14.6728 25.4223L15.0457 25.6359V25.2739L14.6728 25.0603V25.4223Z" fill="url(#paint25_linear_160_15328)"/>
<path d="M13.9958 25.0313L14.3687 25.245V24.8829L13.9958 24.6693V25.0313Z" fill="url(#paint26_linear_160_15328)"/>
<path d="M13.3188 24.6402L13.6917 24.8538V24.4918L13.3188 24.2782V24.6402Z" fill="url(#paint27_linear_160_15328)"/>
<path d="M12.6417 24.2492L13.0146 24.4628V24.1008L12.6417 23.8872V24.2492Z" fill="url(#paint28_linear_160_15328)"/>
<path d="M11.9647 23.8583L12.3376 24.0719V23.7098L11.9647 23.4962V23.8583Z" fill="url(#paint29_linear_160_15328)"/>
<path d="M11.2877 23.4673L11.6606 23.6809V23.3188L11.2877 23.1052V23.4673Z" fill="url(#paint30_linear_160_15328)"/>
<path d="M10.6107 23.0763L10.9836 23.2935V22.9278L10.6107 22.7142V23.0763Z" fill="url(#paint31_linear_160_15328)"/>
<path d="M38.0532 27.4099C38.0532 27.5873 38.198 27.6489 38.3754 27.5475L40.4354 26.36L39.0922 28.2462C38.9546 28.4381 38.9365 28.6517 39.0488 28.7241C39.161 28.7965 39.3674 28.6988 39.5013 28.5069L41.4454 25.7771L44.4431 24.0502L42.3216 27.3918L39.809 29.0753C39.6316 29.1948 39.5013 29.4265 39.5194 29.593C39.5375 29.7596 39.6932 29.7994 39.8706 29.6835L41.6084 28.5178L40.1494 30.8167C40.0226 31.0158 40.0226 31.2186 40.1494 31.2729C40.2761 31.3272 40.4788 31.2077 40.6055 31.0086L42.0645 28.7097L41.9016 30.5416C41.8835 30.7298 42.0138 30.8095 42.1912 30.7262C42.289 30.6791 42.3831 30.5886 42.4483 30.4836C42.499 30.404 42.5352 30.3135 42.5424 30.2338L42.7777 27.5837L44.8993 24.2421V27.2398L43.2882 30.1107C43.176 30.3135 43.1941 30.5054 43.3317 30.5416C43.4692 30.5778 43.672 30.4402 43.7842 30.2374L44.8957 28.2535V30.3135C44.8957 30.4909 45.0405 30.5524 45.2179 30.4511C45.3084 30.4004 45.388 30.3171 45.446 30.2266C45.5039 30.1361 45.5401 30.0347 45.5401 29.9442V27.8842L46.6516 28.5866C46.7638 28.659 46.9701 28.5612 47.1041 28.3693C47.1113 28.3585 47.1186 28.3476 47.1258 28.3367C47.2417 28.1521 47.2525 27.9602 47.1475 27.8914L45.5365 26.8777V23.8801L47.658 24.7779L47.8933 27.1529C47.9114 27.3194 48.0671 27.3592 48.2445 27.2434C48.4219 27.1239 48.5523 26.8922 48.5341 26.7257L48.3712 25.082L49.8302 25.7011C49.957 25.7554 50.1597 25.6359 50.2864 25.4368C50.4131 25.2377 50.4131 25.035 50.2864 24.9807L48.8274 24.3616L50.5652 23.5253C50.6629 23.4782 50.7571 23.3877 50.8222 23.2827C50.8729 23.2031 50.9091 23.1125 50.9164 23.0293C50.9345 22.841 50.8041 22.7614 50.6267 22.8446L48.1142 24.0575L45.9926 23.1596L48.9903 21.4327L50.9345 21.9251C51.0648 21.9576 51.2531 21.8382 51.3689 21.6535C51.3761 21.6427 51.3834 21.6318 51.3906 21.621C51.5029 21.4182 51.4848 21.2263 51.3472 21.1901L50.004 20.8498L52.064 19.6623C52.1545 19.6116 52.2342 19.5284 52.2921 19.4379C52.35 19.3474 52.3862 19.246 52.3862 19.1555C52.3862 18.9781 52.2414 18.9165 52.064 19.0179L50.004 20.2054L51.3472 18.3192C51.4848 18.1273 51.5029 17.9137 51.3906 17.8413C51.2784 17.7689 51.072 17.8666 50.9381 18.0585L48.9939 20.7883L45.9963 22.5152L48.1178 19.1736L50.6303 17.4901C50.7064 17.4394 50.7752 17.3634 50.8295 17.2837C50.8946 17.1824 50.9308 17.0665 50.9236 16.9724C50.9055 16.8058 50.7498 16.766 50.5724 16.8819L48.8346 18.0476L50.2937 15.7487C50.4204 15.5496 50.4204 15.3468 50.2937 15.2925C50.1669 15.2382 49.9642 15.3577 49.8375 15.5568L48.3785 17.8558L48.5414 16.0238C48.5595 15.8356 48.4292 15.7559 48.2518 15.8392C48.0744 15.9261 47.9187 16.1469 47.9006 16.3316L47.6653 18.9817L45.5437 22.3233V19.3256L47.1548 16.4547C47.267 16.2519 47.2489 16.06 47.1113 16.0238C46.9738 15.9876 46.771 16.1252 46.6588 16.328L45.5473 18.3119V16.2519C45.5473 16.0745 45.4025 16.013 45.2251 16.1144C45.0477 16.2157 44.9029 16.4438 44.9029 16.6212V18.6812L43.7915 17.9789C43.6792 17.9064 43.4729 18.0042 43.3389 18.1961C43.2013 18.388 43.1832 18.6016 43.2955 18.674L44.9065 19.6877V22.6853L42.785 21.7875L42.5497 19.4125C42.5316 19.246 42.3759 19.2062 42.1985 19.322C42.0211 19.4415 41.8908 19.6732 41.9089 19.8397L42.0718 21.4834L40.6128 20.8643C40.486 20.81 40.2833 20.9295 40.1566 21.1286C40.0299 21.3277 40.0299 21.5304 40.1566 21.5847L41.6156 22.2038L39.8778 23.0401C39.7004 23.127 39.5448 23.3479 39.5266 23.5325C39.5085 23.7208 39.6389 23.8004 39.8163 23.7171L42.3288 22.5043L44.4504 23.4022L41.4527 25.1291L39.5085 24.6367C39.371 24.6041 39.1682 24.7381 39.056 24.9408C38.9438 25.1436 38.9619 25.3355 39.0994 25.3717L40.4426 25.712L38.3826 26.8995C38.2052 27.0008 38.0604 27.2289 38.0604 27.4063L38.0532 27.4099Z" fill="#12A4D8"/>
</g>
<defs>
<linearGradient id="paint0_linear_160_15328" x1="65.7894" y1="120.444" x2="64.7989" y2="119.153" gradientUnits="userSpaceOnUse">
<stop offset="0.02" stop-color="#2E2E3B"/>
<stop offset="0.14" stop-color="#393945"/>
<stop offset="0.3" stop-color="#40404B"/>
<stop offset="0.77" stop-color="#42424D"/>
</linearGradient>
<linearGradient id="paint1_linear_160_15328" x1="16.7181" y1="52.9516" x2="20.2806" y2="46.7825" gradientUnits="userSpaceOnUse">
<stop stop-color="#181818"/>
<stop offset="0.27" stop-color="#262626"/>
<stop offset="0.77" stop-color="#2E2E2E"/>
</linearGradient>
<linearGradient id="paint2_linear_160_15328" x1="21.135" y1="52.8394" x2="18.6225" y2="48.4913" gradientUnits="userSpaceOnUse">
<stop stop-color="#141414"/>
<stop offset="0.44" stop-color="#1E1E1E"/>
<stop offset="0.78" stop-color="#202020"/>
<stop offset="0.98" stop-color="#282828"/>
<stop offset="1" stop-color="#2A2A2A"/>
</linearGradient>
<linearGradient id="paint3_linear_160_15328" x1="21.1315" y1="52.7706" x2="18.7167" y2="48.5855" gradientUnits="userSpaceOnUse">
<stop stop-color="#161616"/>
<stop offset="0.3" stop-color="#1A1A1A"/>
<stop offset="0.79" stop-color="#1D1D1D"/>
<stop offset="0.8" stop-color="#1E1E1E"/>
</linearGradient>
<linearGradient id="paint4_linear_160_15328" x1="40.8046" y1="39.0096" x2="44.367" y2="32.8405" gradientUnits="userSpaceOnUse">
<stop stop-color="#181818"/>
<stop offset="0.27" stop-color="#262626"/>
<stop offset="0.77" stop-color="#2E2E2E"/>
</linearGradient>
<linearGradient id="paint5_linear_160_15328" x1="45.2214" y1="38.8938" x2="42.7089" y2="34.5457" gradientUnits="userSpaceOnUse">
<stop stop-color="#141414"/>
<stop offset="0.44" stop-color="#1E1E1E"/>
<stop offset="0.78" stop-color="#202020"/>
<stop offset="0.98" stop-color="#282828"/>
<stop offset="1" stop-color="#2A2A2A"/>
</linearGradient>
<linearGradient id="paint6_linear_160_15328" x1="45.2179" y1="38.825" x2="42.8031" y2="34.6434" gradientUnits="userSpaceOnUse">
<stop stop-color="#161616"/>
<stop offset="0.3" stop-color="#1A1A1A"/>
<stop offset="0.79" stop-color="#1D1D1D"/>
<stop offset="0.8" stop-color="#1E1E1E"/>
</linearGradient>
<linearGradient id="paint7_linear_160_15328" x1="17.1684" y1="45.0692" x2="15.4407" y2="44.6858" gradientUnits="userSpaceOnUse">
<stop offset="0.02" stop-color="#2E2E3B"/>
<stop offset="0.14" stop-color="#393945"/>
<stop offset="0.3" stop-color="#40404B"/>
<stop offset="0.77" stop-color="#42424D"/>
</linearGradient>
<linearGradient id="paint8_linear_160_15328" x1="15.7082" y1="24.8864" x2="15.3642" y2="24.2891" gradientUnits="userSpaceOnUse">
<stop stop-color="#161616"/>
<stop offset="0.3" stop-color="#1A1A1A"/>
<stop offset="0.79" stop-color="#1D1D1D"/>
<stop offset="0.8" stop-color="#1E1E1E"/>
</linearGradient>
<linearGradient id="paint9_linear_160_15328" x1="15.0312" y1="24.4954" x2="14.6872" y2="23.8981" gradientUnits="userSpaceOnUse">
<stop stop-color="#161616"/>
<stop offset="0.3" stop-color="#1A1A1A"/>
<stop offset="0.79" stop-color="#1D1D1D"/>
<stop offset="0.8" stop-color="#1E1E1E"/>
</linearGradient>
<linearGradient id="paint10_linear_160_15328" x1="14.3542" y1="24.1044" x2="14.0102" y2="23.5071" gradientUnits="userSpaceOnUse">
<stop stop-color="#161616"/>
<stop offset="0.3" stop-color="#1A1A1A"/>
<stop offset="0.79" stop-color="#1D1D1D"/>
<stop offset="0.8" stop-color="#1E1E1E"/>
</linearGradient>
<linearGradient id="paint11_linear_160_15328" x1="13.6772" y1="23.7135" x2="13.3332" y2="23.1161" gradientUnits="userSpaceOnUse">
<stop stop-color="#161616"/>
<stop offset="0.3" stop-color="#1A1A1A"/>
<stop offset="0.79" stop-color="#1D1D1D"/>
<stop offset="0.8" stop-color="#1E1E1E"/>
</linearGradient>
<linearGradient id="paint12_linear_160_15328" x1="13.0002" y1="23.3225" x2="12.6562" y2="22.7251" gradientUnits="userSpaceOnUse">
<stop stop-color="#161616"/>
<stop offset="0.3" stop-color="#1A1A1A"/>
<stop offset="0.79" stop-color="#1D1D1D"/>
<stop offset="0.8" stop-color="#1E1E1E"/>
</linearGradient>
<linearGradient id="paint13_linear_160_15328" x1="12.3232" y1="22.9315" x2="11.9792" y2="22.3377" gradientUnits="userSpaceOnUse">
<stop stop-color="#161616"/>
<stop offset="0.3" stop-color="#1A1A1A"/>
<stop offset="0.79" stop-color="#1D1D1D"/>
<stop offset="0.8" stop-color="#1E1E1E"/>
</linearGradient>
<linearGradient id="paint14_linear_160_15328" x1="11.6462" y1="22.5405" x2="11.3022" y2="21.9467" gradientUnits="userSpaceOnUse">
<stop stop-color="#161616"/>
<stop offset="0.3" stop-color="#1A1A1A"/>
<stop offset="0.79" stop-color="#1D1D1D"/>
<stop offset="0.8" stop-color="#1E1E1E"/>
</linearGradient>
<linearGradient id="paint15_linear_160_15328" x1="10.9692" y1="22.1495" x2="10.6252" y2="21.5557" gradientUnits="userSpaceOnUse">
<stop stop-color="#161616"/>
<stop offset="0.3" stop-color="#1A1A1A"/>
<stop offset="0.79" stop-color="#1D1D1D"/>
<stop offset="0.8" stop-color="#1E1E1E"/>
</linearGradient>
<linearGradient id="paint16_linear_160_15328" x1="15.7082" y1="25.4621" x2="15.3642" y2="24.8648" gradientUnits="userSpaceOnUse">
<stop stop-color="#161616"/>
<stop offset="0.3" stop-color="#1A1A1A"/>
<stop offset="0.79" stop-color="#1D1D1D"/>
<stop offset="0.8" stop-color="#1E1E1E"/>
</linearGradient>
<linearGradient id="paint17_linear_160_15328" x1="15.0312" y1="25.0711" x2="14.6872" y2="24.4738" gradientUnits="userSpaceOnUse">
<stop stop-color="#161616"/>
<stop offset="0.3" stop-color="#1A1A1A"/>
<stop offset="0.79" stop-color="#1D1D1D"/>
<stop offset="0.8" stop-color="#1E1E1E"/>
</linearGradient>
<linearGradient id="paint18_linear_160_15328" x1="14.3542" y1="24.6801" x2="14.0102" y2="24.0828" gradientUnits="userSpaceOnUse">
<stop stop-color="#161616"/>
<stop offset="0.3" stop-color="#1A1A1A"/>
<stop offset="0.79" stop-color="#1D1D1D"/>
<stop offset="0.8" stop-color="#1E1E1E"/>
</linearGradient>
<linearGradient id="paint19_linear_160_15328" x1="13.6772" y1="24.2891" x2="13.3332" y2="23.6918" gradientUnits="userSpaceOnUse">
<stop stop-color="#161616"/>
<stop offset="0.3" stop-color="#1A1A1A"/>
<stop offset="0.79" stop-color="#1D1D1D"/>
<stop offset="0.8" stop-color="#1E1E1E"/>
</linearGradient>
<linearGradient id="paint20_linear_160_15328" x1="13.0002" y1="23.8981" x2="12.6562" y2="23.3044" gradientUnits="userSpaceOnUse">
<stop stop-color="#161616"/>
<stop offset="0.3" stop-color="#1A1A1A"/>
<stop offset="0.79" stop-color="#1D1D1D"/>
<stop offset="0.8" stop-color="#1E1E1E"/>
</linearGradient>
<linearGradient id="paint21_linear_160_15328" x1="12.3232" y1="23.5072" x2="11.9792" y2="22.9134" gradientUnits="userSpaceOnUse">
<stop stop-color="#161616"/>
<stop offset="0.3" stop-color="#1A1A1A"/>
<stop offset="0.79" stop-color="#1D1D1D"/>
<stop offset="0.8" stop-color="#1E1E1E"/>
</linearGradient>
<linearGradient id="paint22_linear_160_15328" x1="11.6462" y1="23.1162" x2="11.3022" y2="22.5224" gradientUnits="userSpaceOnUse">
<stop stop-color="#161616"/>
<stop offset="0.3" stop-color="#1A1A1A"/>
<stop offset="0.79" stop-color="#1D1D1D"/>
<stop offset="0.8" stop-color="#1E1E1E"/>
</linearGradient>
<linearGradient id="paint23_linear_160_15328" x1="10.9692" y1="22.7252" x2="10.6252" y2="22.1314" gradientUnits="userSpaceOnUse">
<stop stop-color="#161616"/>
<stop offset="0.3" stop-color="#1A1A1A"/>
<stop offset="0.79" stop-color="#1D1D1D"/>
<stop offset="0.8" stop-color="#1E1E1E"/>
</linearGradient>
<linearGradient id="paint24_linear_160_15328" x1="15.7082" y1="26.0378" x2="15.3642" y2="25.4404" gradientUnits="userSpaceOnUse">
<stop stop-color="#161616"/>
<stop offset="0.3" stop-color="#1A1A1A"/>
<stop offset="0.79" stop-color="#1D1D1D"/>
<stop offset="0.8" stop-color="#1E1E1E"/>
</linearGradient>
<linearGradient id="paint25_linear_160_15328" x1="15.0312" y1="25.6468" x2="14.6872" y2="25.0494" gradientUnits="userSpaceOnUse">
<stop stop-color="#161616"/>
<stop offset="0.3" stop-color="#1A1A1A"/>
<stop offset="0.79" stop-color="#1D1D1D"/>
<stop offset="0.8" stop-color="#1E1E1E"/>
</linearGradient>
<linearGradient id="paint26_linear_160_15328" x1="14.3542" y1="25.2558" x2="14.0102" y2="24.6585" gradientUnits="userSpaceOnUse">
<stop stop-color="#161616"/>
<stop offset="0.3" stop-color="#1A1A1A"/>
<stop offset="0.79" stop-color="#1D1D1D"/>
<stop offset="0.8" stop-color="#1E1E1E"/>
</linearGradient>
<linearGradient id="paint27_linear_160_15328" x1="13.6772" y1="24.8647" x2="13.3332" y2="24.2673" gradientUnits="userSpaceOnUse">
<stop stop-color="#161616"/>
<stop offset="0.3" stop-color="#1A1A1A"/>
<stop offset="0.79" stop-color="#1D1D1D"/>
<stop offset="0.8" stop-color="#1E1E1E"/>
</linearGradient>
<linearGradient id="paint28_linear_160_15328" x1="13.0002" y1="24.4737" x2="12.6562" y2="23.88" gradientUnits="userSpaceOnUse">
<stop stop-color="#161616"/>
<stop offset="0.3" stop-color="#1A1A1A"/>
<stop offset="0.79" stop-color="#1D1D1D"/>
<stop offset="0.8" stop-color="#1E1E1E"/>
</linearGradient>
<linearGradient id="paint29_linear_160_15328" x1="12.3232" y1="24.0827" x2="11.9792" y2="23.489" gradientUnits="userSpaceOnUse">
<stop stop-color="#161616"/>
<stop offset="0.3" stop-color="#1A1A1A"/>
<stop offset="0.79" stop-color="#1D1D1D"/>
<stop offset="0.8" stop-color="#1E1E1E"/>
</linearGradient>
<linearGradient id="paint30_linear_160_15328" x1="11.6462" y1="23.6917" x2="11.3022" y2="23.098" gradientUnits="userSpaceOnUse">
<stop stop-color="#161616"/>
<stop offset="0.3" stop-color="#1A1A1A"/>
<stop offset="0.79" stop-color="#1D1D1D"/>
<stop offset="0.8" stop-color="#1E1E1E"/>
</linearGradient>
<linearGradient id="paint31_linear_160_15328" x1="10.9692" y1="23.3007" x2="10.6252" y2="22.707" gradientUnits="userSpaceOnUse">
<stop stop-color="#161616"/>
<stop offset="0.3" stop-color="#1A1A1A"/>
<stop offset="0.79" stop-color="#1D1D1D"/>
<stop offset="0.8" stop-color="#1E1E1E"/>
</linearGradient>
<clipPath id="clip0_160_15328">
<rect width="54.751" height="56" fill="white" transform="matrix(-1 0 0 1 55 0)"/>
</clipPath>
</defs>
</svg>
