<svg width="38" height="40" viewBox="0 0 38 40" fill="none" xmlns="http://www.w3.org/2000/svg">
<g clip-path="url(#clip0_160_13476)">
<g style="mix-blend-mode:multiply">
<path d="M28.0637 38.9645L35.9913 34.1321C38.9507 32.5251 38.5998 29.6053 35.2047 27.6192L22.2411 20.0255C18.846 18.0393 13.6967 17.7338 10.7373 19.3408L2.80977 24.1731C-0.149632 25.7802 0.201195 28.7 3.5963 30.6861L16.5599 38.2798C19.9551 40.2659 25.1043 40.5715 28.0637 38.9645Z" fill="#EAEAEA"/>
</g>
<path d="M32.4717 14.865C32.6641 17.813 32.8508 20.7611 33.0432 23.7149L32.4434 24.1053C32.2567 21.1572 32.0643 18.2035 31.8719 15.2554C31.8549 14.9611 31.7531 14.7348 31.6003 14.5933C31.7587 14.367 31.9115 14.135 32.0473 13.8804C32.285 14.0841 32.4434 14.4179 32.4717 14.865Z" fill="#35353F"/>
<path d="M31.4871 14.5084L7.9986 0.860107C8.21362 0.984595 8.36074 1.24489 8.38338 1.60703C8.57577 4.55511 8.7625 7.5032 8.95489 10.4569L32.4434 24.1053C32.2566 21.1572 32.0642 18.2034 31.8718 15.2554C31.8492 14.8932 31.7078 14.6329 31.4871 14.5084Z" fill="#2E2E37"/>
<mask id="mask0_160_13476" style="mask-type:luminance" maskUnits="userSpaceOnUse" x="4" y="0" width="28" height="17">
<path d="M31.538 14.5933L8.12879 0.990237C7.81192 0.809165 7.37621 0.831799 6.89524 1.10907C6.06344 1.59004 5.2373 2.06535 4.40549 2.54633L27.8204 16.1494C28.6522 15.6684 29.4783 15.1931 30.3101 14.7121C30.7911 14.4349 31.2268 14.4066 31.5437 14.5933H31.538Z" fill="white"/>
</mask>
<g mask="url(#mask0_160_13476)">
<path d="M31.5381 14.5933L8.12883 0.990289C7.85157 0.826192 7.47245 0.83185 7.05938 1.02424L30.4686 14.6273C30.8817 14.4292 31.2608 14.4292 31.5381 14.5933Z" fill="#25252E"/>
<path d="M30.4685 14.6273L7.0536 1.02991C7.00267 1.05254 6.94608 1.08083 6.89516 1.11478C6.06336 1.59576 5.23722 2.07107 4.40541 2.55205L27.8203 16.1494C28.6521 15.6685 29.4783 15.1932 30.3101 14.7122C30.3667 14.6782 30.4176 14.6556 30.4685 14.6273Z" fill="#25252E"/>
</g>
<mask id="mask1_160_13476" style="mask-type:luminance" maskUnits="userSpaceOnUse" x="1" y="2" width="27" height="36">
<path d="M2.02341 24.1675L25.4327 37.7649C25.2233 37.6404 25.0988 37.3745 25.1214 36.9897C25.444 30.9917 25.7722 24.9936 26.1004 18.9956C26.157 17.9149 26.9095 16.6756 27.8206 16.1494L4.40565 2.552C3.49463 3.07824 2.74204 4.32312 2.68546 5.39823C2.35727 11.3963 2.02907 17.3943 1.70654 23.3923C1.6839 23.7771 1.80839 24.0487 2.01776 24.1675H2.02341Z" fill="white"/>
</mask>
<g mask="url(#mask1_160_13476)">
<path d="M27.8206 16.1494L4.40565 2.552C4.13404 2.71044 3.87941 2.92546 3.64741 3.18575L27.0623 16.7888C27.2887 16.5285 27.5489 16.3078 27.8206 16.1551V16.1494Z" fill="#25252E"/>
<path d="M27.0623 16.7888L3.653 3.18579C3.38139 3.49135 3.15505 3.85915 2.9853 4.23827L26.3946 17.8413C26.5643 17.4622 26.7963 17.0944 27.0623 16.7888Z" fill="#BB9081"/>
<path d="M26.3945 17.8413L2.97962 4.23828C2.82119 4.60043 2.71933 4.97389 2.69104 5.33037L26.1003 18.9278C26.1286 18.5713 26.2304 18.1922 26.3889 17.8357L26.3945 17.8413Z" fill="#25252E"/>
<path d="M26.1003 18.9334L2.69109 5.33032C2.69109 5.33032 2.69109 5.37559 2.69109 5.39257C2.3629 11.3906 2.03471 17.3886 1.71217 23.3866C1.68954 23.7714 1.81402 24.043 2.02339 24.1618L25.4326 37.7592C25.2233 37.6348 25.0988 37.3688 25.1214 36.984C25.444 30.986 25.7721 24.988 26.1003 18.99C26.1003 18.9673 26.1003 18.9447 26.1003 18.9277V18.9334Z" fill="#25252E"/>
</g>
<path d="M27.8204 16.1494C26.9094 16.6757 26.1568 17.9206 26.1003 18.9957C25.7721 24.9937 25.4439 30.9917 25.1213 36.9897C25.0817 37.7366 25.5797 38.0479 26.1908 37.697C26.2304 37.6744 26.2644 37.6518 26.304 37.6235C27.2489 36.9671 28.1826 36.3673 29.1162 35.8241C30.0499 35.2809 30.9892 34.7999 31.9342 34.3698C31.9738 34.3529 32.0134 34.3302 32.0474 34.3132C32.6585 33.9624 33.1564 33.0684 33.1112 32.378C32.7547 26.7705 32.3982 21.1685 32.036 15.5723C31.9738 14.5651 31.2156 14.1916 30.3045 14.7178C29.4727 15.1988 28.6466 15.6741 27.8148 16.1551L27.8204 16.1494Z" fill="#15151A"/>
<path d="M1.9724 13.8012L25.4665 27.3703C25.591 25.1012 25.7155 22.7586 25.8513 20.3085C25.9701 18.1752 27.4696 15.6911 29.269 14.6556L5.78057 0.995972C4.01512 2.0145 2.54391 4.41937 2.37415 6.52433C2.37415 6.56394 2.36849 6.60921 2.36849 6.64882C2.23269 9.12725 2.10254 11.5038 1.97806 13.7955L1.9724 13.8012Z" fill="#2E2E37"/>
<mask id="mask2_160_13476" style="mask-type:luminance" maskUnits="userSpaceOnUse" x="7" y="-1" width="25" height="15">
<path d="M31.9116 13.7842L8.42315 0.130178C8.07232 -0.0735281 7.58569 -0.0452355 7.05379 0.260324L30.5423 13.9143C31.0742 13.6087 31.5608 13.5805 31.9116 13.7842Z" fill="white"/>
</mask>
<g mask="url(#mask2_160_13476)">
<path d="M31.9116 13.7839L8.42315 0.129877C8.11193 -0.0511953 7.6932 -0.0511953 7.2292 0.169487L30.7177 13.8178C31.1817 13.6028 31.6004 13.5971 31.9116 13.7782V13.7839Z" fill="#2E2E37"/>
<path d="M30.7178 13.8181L7.2293 0.1698C7.17272 0.198092 7.11048 0.226385 7.05389 0.260336L30.5424 13.9143C30.6046 13.8804 30.6612 13.8464 30.7178 13.8238V13.8181Z" fill="#35353F"/>
</g>
<path d="M30.5422 13.9144L7.05377 0.260376L5.78061 0.995982L29.2747 14.65L30.5422 13.9144Z" fill="#35353F"/>
<path d="M29.2747 14.65L5.78053 0.995972C4.01508 2.0145 2.5382 4.41937 2.37411 6.52433L25.8626 20.1783C26.0323 18.0734 27.5092 15.6685 29.269 14.65H29.2747Z" fill="#35353F"/>
<path d="M25.4721 27.3646L26.0719 27.0194C26.1908 24.7673 26.3209 22.436 26.4567 20.0085C26.5529 18.2487 27.7921 16.1947 29.2803 15.3403L30.5535 14.6047C30.9835 14.3557 31.3626 14.3727 31.6116 14.599C31.7701 14.3727 31.9228 14.1407 32.053 13.886C31.6965 13.5861 31.1533 13.5691 30.5535 13.92L29.2803 14.6556C27.4809 15.6911 25.9814 18.1752 25.8626 20.3084C25.7268 22.7586 25.6023 25.1068 25.4778 27.3702L25.4721 27.3646Z" fill="#25252E"/>
<path d="M14.8794 3.44043L13.1988 4.41369C12.8876 4.59477 12.6499 4.85506 12.4915 5.20023L14.1721 4.22696C14.3305 3.88179 14.5738 3.6215 14.8794 3.44043Z" fill="#25252E"/>
<mask id="mask3_160_13476" style="mask-type:luminance" maskUnits="userSpaceOnUse" x="12" y="3" width="3" height="3">
<path d="M14.8794 3.44043L13.1988 4.41369C12.8876 4.59477 12.6499 4.85506 12.4915 5.20023L14.1721 4.22696C14.3305 3.88179 14.5738 3.6215 14.8794 3.44043Z" fill="white"/>
</mask>
<g mask="url(#mask3_160_13476)">
<path d="M12.4915 5.20023L14.1721 4.22696C14.3305 3.88179 14.5738 3.6215 14.8794 3.44043L13.1988 4.41369C12.8876 4.59477 12.6499 4.85506 12.4915 5.20023Z" fill="#25252E"/>
</g>
<mask id="mask4_160_13476" style="mask-type:luminance" maskUnits="userSpaceOnUse" x="12" y="2" width="7" height="3">
<path d="M14.636 2.98778L12.9554 3.96104C13.9174 3.40085 15.4508 3.5989 17.1371 4.57216L18.8176 3.5989C17.1314 2.62563 15.5979 2.42758 14.636 2.98778Z" fill="white"/>
</mask>
<g mask="url(#mask4_160_13476)">
<path d="M17.1427 4.57223L18.8232 3.59897C18.099 3.18024 17.403 2.90863 16.7692 2.77283L15.0886 3.74609C15.7224 3.88189 16.4184 4.1535 17.1427 4.57223Z" fill="#35353F"/>
<path d="M15.0887 3.74607L16.7693 2.7728C15.9658 2.60305 15.2585 2.65963 14.7152 2.94822L13.0347 3.92148C13.5779 3.63856 14.2852 3.57631 15.0887 3.74607Z" fill="#2E2E37"/>
<path d="M13.0345 3.92151L14.7151 2.94824C14.7151 2.94824 14.6642 2.97653 14.6415 2.98785L12.961 3.96112C12.961 3.96112 13.0119 3.93282 13.0345 3.92151Z" fill="#25252E"/>
</g>
<mask id="mask5_160_13476" style="mask-type:luminance" maskUnits="userSpaceOnUse" x="17" y="3" width="7" height="8">
<path d="M22.1053 10.5928L23.7859 9.61953C23.1069 7.33915 21.1151 4.92297 18.8234 3.59888L17.1428 4.57214C19.4345 5.89623 21.4263 8.31241 22.1053 10.5928Z" fill="white"/>
</mask>
<g mask="url(#mask5_160_13476)">
<path d="M22.1053 10.5928L23.7859 9.61958C23.6897 9.3027 23.5709 8.98582 23.4294 8.66895L21.7488 9.64221C21.8903 9.95909 22.0091 10.276 22.1053 10.5928Z" fill="#25252E"/>
<path d="M21.7489 9.6422L23.4294 8.66894C23.0616 7.84846 22.5467 7.03363 21.9243 6.27539L20.2437 7.24865C20.8661 8.00689 21.3811 8.82172 21.7489 9.6422Z" fill="#2E2E37"/>
<path d="M20.2494 7.243L21.9299 6.26974C21.0585 5.20594 19.9777 4.26097 18.8234 3.59326L17.1428 4.56653C18.2972 5.23423 19.3779 6.1792 20.2494 7.243Z" fill="#35353F"/>
</g>
<path d="M17.1427 4.57217C14.851 3.24808 12.8479 3.36125 12.1632 4.84944L12.4914 5.20027C13.1139 3.85354 15.0264 3.76301 17.1371 4.98524C19.2533 6.20748 21.1546 8.49918 21.7714 10.5589L22.1052 10.5928C21.4262 8.31245 19.4344 5.89626 17.1427 4.57217Z" fill="#15151A"/>
<path d="M18.6761 21.8532L18.2574 22.0965C18.3366 22.0513 18.4441 22.0569 18.563 22.1248L18.9817 21.8815C18.8629 21.8136 18.7553 21.808 18.6761 21.8532Z" fill="#E7E6F1"/>
<mask id="mask6_160_13476" style="mask-type:luminance" maskUnits="userSpaceOnUse" x="18" y="21" width="1" height="2">
<path d="M18.6761 21.8532L18.2574 22.0965C18.3366 22.0513 18.4441 22.0569 18.563 22.1248L18.9817 21.8815C18.8629 21.8136 18.7553 21.808 18.6761 21.8532Z" fill="white"/>
</mask>
<g mask="url(#mask6_160_13476)">
<path d="M18.563 22.1305L18.9817 21.8872C18.9364 21.8589 18.8912 21.842 18.8515 21.8363L18.4328 22.0796C18.4724 22.0909 18.5177 22.1079 18.563 22.1305Z" fill="#E7E6F1"/>
<path d="M18.4328 22.0739L18.8516 21.8306C18.7893 21.8193 18.7327 21.825 18.6875 21.8476L18.2687 22.0909C18.314 22.0683 18.3706 22.0569 18.4328 22.0739Z" fill="#E7E6F1"/>
<path d="M18.2632 22.0966L18.6819 21.8533C18.6819 21.8533 18.6819 21.8533 18.6762 21.8533L18.2575 22.0966C18.2575 22.0966 18.2575 22.0966 18.2632 22.0966Z" fill="#E7E6F1"/>
</g>
<path d="M20.9736 26.2895L21.3923 26.0462C21.6696 25.8821 21.845 25.5369 21.845 25.0503L21.4262 25.2936C21.4262 25.7859 21.2508 26.1311 20.9736 26.2895Z" fill="#CED4F1"/>
<mask id="mask7_160_13476" style="mask-type:luminance" maskUnits="userSpaceOnUse" x="20" y="25" width="2" height="2">
<path d="M20.9736 26.2895L21.3923 26.0462C21.6696 25.8821 21.845 25.5369 21.845 25.0503L21.4262 25.2936C21.4262 25.7859 21.2508 26.1311 20.9736 26.2895Z" fill="white"/>
</mask>
<g mask="url(#mask7_160_13476)">
<path d="M20.9736 26.2895L21.3923 26.0462C21.6696 25.8821 21.845 25.5369 21.845 25.0503L21.4262 25.2936C21.4262 25.7859 21.2508 26.1311 20.9736 26.2895Z" fill="#CED4F1"/>
</g>
<path d="M21.4262 25.2936L21.8449 25.0503L21.8506 24.0317L21.4319 24.2751L21.4262 25.2936Z" fill="#CED4F1"/>
<path d="M21.0019 23.5395L21.4207 23.2962L18.9818 21.8872L18.5631 22.1305L21.0019 23.5395Z" fill="#E7E6F1"/>
<path d="M21.4319 24.2751L21.8506 24.0318C21.8506 23.7602 21.6582 23.4263 21.4205 23.2905L21.0018 23.5338C21.2395 23.6696 21.4319 24.0035 21.4319 24.2751Z" fill="#E7E6F1"/>
<mask id="mask8_160_13476" style="mask-type:luminance" maskUnits="userSpaceOnUse" x="21" y="23" width="1" height="2">
<path d="M21.4319 24.2751L21.8506 24.0318C21.8506 23.7602 21.6582 23.4263 21.4205 23.2905L21.0018 23.5338C21.2395 23.6696 21.4319 24.0035 21.4319 24.2751Z" fill="white"/>
</mask>
<g mask="url(#mask8_160_13476)">
<path d="M21.4319 24.2751L21.8506 24.0318C21.8506 23.9299 21.8223 23.8167 21.777 23.7092L21.3583 23.9525C21.4036 24.0601 21.4319 24.1732 21.4319 24.2751Z" fill="#CED4F1"/>
<path d="M21.3528 23.9525L21.7715 23.7092C21.7319 23.6243 21.6866 23.5451 21.63 23.4772L21.2113 23.7205C21.2679 23.7884 21.3188 23.8733 21.3528 23.9525Z" fill="#E7E6F1"/>
<path d="M21.2112 23.7205L21.6299 23.4772C21.5676 23.4037 21.4997 23.3414 21.4205 23.2961L21.0018 23.5395C21.0753 23.5847 21.1489 23.647 21.2112 23.7205Z" fill="#E7E6F1"/>
</g>
<path d="M18.563 22.1305C18.3254 21.9947 18.133 22.1022 18.133 22.3738V23.3923C18.1273 24.3826 18.8233 25.5822 19.6834 26.0801L19.8701 26.1876C20.7302 26.6856 21.4262 26.2838 21.4319 25.2992V24.2864C21.4319 24.0148 21.2452 23.6809 21.0075 23.5451L18.5687 22.1361L18.563 22.1305Z" fill="#DEDDEC"/>
<path d="M6.0067 14.6499L5.58797 14.8932C5.66719 14.8479 5.7747 14.8536 5.89353 14.9215L6.31226 14.6782C6.19343 14.6102 6.08591 14.6046 6.0067 14.6499Z" fill="#E7E6F1"/>
<mask id="mask9_160_13476" style="mask-type:luminance" maskUnits="userSpaceOnUse" x="5" y="14" width="2" height="1">
<path d="M6.0067 14.6499L5.58797 14.8932C5.66719 14.8479 5.7747 14.8536 5.89353 14.9215L6.31226 14.6782C6.19343 14.6102 6.08591 14.6046 6.0067 14.6499Z" fill="white"/>
</mask>
<g mask="url(#mask9_160_13476)">
<path d="M5.89353 14.9272L6.31226 14.6839C6.26699 14.6556 6.22172 14.6386 6.18211 14.6329L5.76338 14.8763C5.80299 14.8876 5.84826 14.9045 5.89353 14.9272Z" fill="#E7E6F1"/>
<path d="M5.75779 14.8706L6.17651 14.6272C6.11427 14.6159 6.05769 14.6216 6.01242 14.6442L5.59369 14.8875C5.63896 14.8649 5.69554 14.8536 5.75779 14.8706Z" fill="#E7E6F1"/>
<path d="M5.59372 14.8932L6.01245 14.6499C6.01245 14.6499 6.01245 14.6499 6.00679 14.6499L5.58806 14.8932C5.58806 14.8932 5.58806 14.8932 5.59372 14.8932Z" fill="#E7E6F1"/>
</g>
<path d="M8.30413 19.0861L8.72285 18.8428C9.00012 18.6787 9.17554 18.3336 9.17554 17.8469L8.75681 18.0902C8.75681 18.5825 8.58139 18.9277 8.30413 19.0861Z" fill="#CED4F1"/>
<mask id="mask10_160_13476" style="mask-type:luminance" maskUnits="userSpaceOnUse" x="8" y="17" width="2" height="3">
<path d="M8.30413 19.0861L8.72285 18.8428C9.00012 18.6787 9.17554 18.3336 9.17554 17.8469L8.75681 18.0902C8.75681 18.5825 8.58139 18.9277 8.30413 19.0861Z" fill="white"/>
</mask>
<g mask="url(#mask10_160_13476)">
<path d="M8.30413 19.0861L8.72285 18.8428C9.00012 18.6787 9.17554 18.3336 9.17554 17.8469L8.75681 18.0902C8.75681 18.5825 8.58139 18.9277 8.30413 19.0861Z" fill="#CED4F1"/>
</g>
<path d="M8.75676 18.0902L9.17549 17.8469L9.18115 16.8284L8.75676 17.0717V18.0902Z" fill="#CED4F1"/>
<path d="M8.33249 16.3361L8.75122 16.0928L6.3124 14.6838L5.89367 14.9272L8.33249 16.3361Z" fill="#E7E6F1"/>
<path d="M8.75681 17.0717L9.17554 16.8284C9.17554 16.5568 8.98315 16.223 8.74549 16.0872L8.32676 16.3305C8.56442 16.4663 8.75681 16.8001 8.75681 17.0717Z" fill="#E7E6F1"/>
<mask id="mask11_160_13476" style="mask-type:luminance" maskUnits="userSpaceOnUse" x="8" y="16" width="2" height="2">
<path d="M8.75681 17.0717L9.17554 16.8284C9.17554 16.5568 8.98315 16.223 8.74549 16.0872L8.32676 16.3305C8.56442 16.4663 8.75681 16.8001 8.75681 17.0717Z" fill="white"/>
</mask>
<g mask="url(#mask11_160_13476)">
<path d="M8.75681 17.0717L9.17554 16.8284C9.17554 16.7265 9.14724 16.6134 9.10198 16.5059L8.68325 16.7492C8.72851 16.8567 8.75681 16.9699 8.75681 17.0717Z" fill="#CED4F1"/>
<path d="M8.68332 16.7491L9.10205 16.5058C9.06244 16.4209 9.01717 16.3417 8.96059 16.2738L8.54186 16.5171C8.59844 16.585 8.64937 16.6699 8.68332 16.7491Z" fill="#E7E6F1"/>
<path d="M8.54172 16.5172L8.96045 16.2738C8.89821 16.2003 8.8303 16.138 8.75109 16.0928L8.33235 16.3361C8.40592 16.3814 8.47948 16.4436 8.54172 16.5172Z" fill="#E7E6F1"/>
</g>
<path d="M5.89359 14.9271C5.65593 14.7913 5.46354 14.8988 5.46354 15.1704V16.1833C5.45788 17.1735 6.15388 18.3731 7.01397 18.8711L7.2007 18.9786C8.06079 19.4766 8.75679 19.0748 8.76245 18.0902V17.0773C8.76245 16.8057 8.57572 16.4719 8.33806 16.3361L5.89925 14.9271H5.89359Z" fill="#DEDDEC"/>
</g>
<defs>
<clipPath id="clip0_160_13476">
<rect width="37.199" height="40" fill="white" transform="matrix(-1 0 0 1 38 0)"/>
</clipPath>
</defs>
</svg>
