<svg width="48" height="44" viewBox="0 0 48 44" fill="none" xmlns="http://www.w3.org/2000/svg">
<g clip-path="url(#clip0_160_13222)">
<g style="mix-blend-mode:multiply">
<path d="M18.5816 42.5037L46.6464 26.2989C48.6535 25.1397 48.4007 23.117 46.0863 21.7828L37.2409 16.6755C34.9265 15.3374 31.4218 15.1935 29.4185 16.3527L1.35368 32.5536C-0.653454 33.7128 -0.40062 35.7355 1.91381 37.0697L10.7592 42.177C13.0736 43.5151 16.5783 43.659 18.5816 42.4998V42.5037Z" fill="#EAEAEA"/>
</g>
<path d="M17.9008 5.90855L18.2197 6.30531C18.5698 6.75653 18.8577 7.50337 18.8577 7.97403V10.4324C18.8577 10.903 18.4298 10.9731 18.0797 10.518L17.8969 10.0084C17.5468 9.55717 17.4184 9.03983 17.4184 8.57306L17.2784 6.11471C17.2784 5.64405 17.5468 5.45734 17.9008 5.90855Z" fill="#1F140B"/>
<path d="M17.9165 6.08364L18.0798 6.30536C18.4299 6.75658 18.7178 7.50342 18.7178 7.97408V10.4324C18.7178 10.9031 18.4338 10.9148 18.0798 10.4635L17.757 10.0123C17.4069 9.56112 17.2785 9.04377 17.2785 8.577V6.11865C17.2785 5.64799 17.5625 5.63632 17.9165 6.08753V6.08364Z" fill="#332D28"/>
<path d="M19.7681 13.6376L18.4922 12.0583C18.1655 11.6538 17.9865 11.1442 17.9865 10.623L17.9943 5.55073C17.9943 5.13063 18.4844 4.89725 18.8112 5.16564L20.2893 6.37537L20.1609 6.66321L18.7178 5.42237C18.5195 5.25122 18.2083 5.39125 18.2083 5.65575V10.5219C18.2083 11.047 18.3911 11.5566 18.7217 11.965L19.9081 13.4159L19.7642 13.6376H19.7681Z" fill="#312821"/>
<path d="M10.6036 25.5054L10.8525 25.482L10.7981 26.12L10.5297 26.3339L10.5141 26.5051L10.4713 26.684L10.6931 26.7345L10.5297 27.4075L10.2574 27.5592L10.2146 27.7381L10.1446 27.9209L10.3313 28.0415L10.0668 28.7222L9.8023 28.8078L9.73228 28.9906L9.63892 29.1657L9.77896 29.3524L9.42499 30.0098L9.17993 30.0214L9.08657 30.1965L8.96988 30.3598L9.05935 30.6049L8.62758 31.2117L8.40975 31.1495L8.29306 31.3128L8.16469 31.4529L8.19581 31.7446L7.70959 32.2736L7.53066 32.1414L7.4023 32.2814L7.26226 32.3942L7.23892 32.7209L6.71769 33.1488L6.58544 32.9543L6.44541 33.0671L6.30537 33.1488L6.22369 33.495L5.75303 33.7673L5.04119 35.4438L1.70376 33.5145L1.74265 33.4133L1.41202 33.2227L1.14752 32.8493L1.2681 32.6315L0.945246 32.4448L0.781876 31.9585L1.00359 31.6512L0.676849 31.4606L0.622393 30.885L0.871339 30.6166L0.855783 30.4649L0.871339 30.2937L0.622393 30.317L0.676849 29.6791L0.945246 29.4652L0.960806 29.294L1.00359 29.1151L0.781876 29.0645L0.945246 28.3916L1.21753 28.2399L1.26032 28.061L1.33033 27.8781L1.14363 27.7576L1.40813 27.0768L1.67264 26.9913L1.74265 26.8085L1.83601 26.6334L1.69598 26.4467L2.04995 25.7893L2.295 25.7777L2.38836 25.6026L2.50505 25.4392L2.41559 25.1942L2.84735 24.5874L3.06518 24.6496L3.18187 24.4863L3.31024 24.3462L3.27912 24.0545L3.76534 23.5255L3.94427 23.6577L4.07264 23.5177L4.21267 23.4049L4.23601 23.0781L4.75724 22.6503L4.88949 22.8448L5.02952 22.732L5.16956 22.6503L5.25124 22.3041L5.78414 21.9968L5.86583 22.2496L6.00586 22.1679L6.1459 22.1213L6.27815 21.7712L6.79938 21.5961L6.82272 21.8918L6.96275 21.8451L7.09111 21.8373L7.27004 21.4989L7.75627 21.4678L8.16081 22.0512L8.28917 22.0435L8.40586 22.0746L8.18803 21.5067L9.05157 21.8723L8.9621 22.2185L9.0788 22.2496L9.17215 22.3157L9.41721 22.0435L9.77118 22.2924L9.63115 22.6425L9.7245 22.7086L9.79452 22.8098L10.059 22.588L10.3235 22.9615L10.1368 23.296L10.2068 23.3971L10.2496 23.5255L10.5219 23.3621L10.6853 23.8483L10.4636 24.1556L10.5063 24.284L10.5219 24.4357L10.7903 24.3423L10.8448 24.918L10.5958 25.1864L10.6114 25.3381L10.5958 25.5093L10.6036 25.5054ZM5.46518 33.635L5.39906 33.6584L5.65967 33.7245L5.60521 33.5533L5.46518 33.635Z" fill="#481018"/>
<path d="M3.38807 30.5777L0.774132 29.0645L1.3576 28.0454L4.11157 28.8817L3.38807 30.5777Z" fill="#481018"/>
<path d="M2.85139 24.5835L4.61347 25.1086L5.46533 26.0966L5.03357 26.7034L4.20504 25.7271L2.41963 25.1903L2.85139 24.5835Z" fill="#4F1F26"/>
<path d="M3.76546 23.5216L5.53142 24.0467L6.37939 25.0386L5.89317 25.5637L5.06465 24.5874L3.27923 24.0506L3.76546 23.5216Z" fill="#4F1F26"/>
<path d="M4.7574 22.6464L6.52336 23.1715L7.37134 24.1634L6.8501 24.5874L6.02158 23.611L4.23617 23.0742L4.7574 22.6464Z" fill="#4F1F26"/>
<path d="M2.0499 25.7854L3.81586 26.3066L4.66772 27.2985L4.30986 27.9559L3.44244 26.9601L1.69593 26.4428L2.0499 25.7854Z" fill="#4F1F26"/>
<path d="M5.78036 21.9967L8.39819 23.5098L7.87696 23.9377L5.26302 22.4246L5.78036 21.9967Z" fill="#481018"/>
<path d="M5.78036 21.9967L7.54633 22.5218L8.39819 23.5098L7.86529 23.8171L7.03288 22.8408L5.25135 22.304L5.78036 21.9967Z" fill="#4F1F26"/>
<path d="M6.79549 21.5961L9.40942 23.1131L8.88819 23.5371L6.27425 22.0239L6.79549 21.5961Z" fill="#481018"/>
<path d="M7.75252 21.4678L10.3665 22.9848L9.84911 23.4088L7.66694 22.1524L7.75252 21.4678Z" fill="#481018"/>
<path d="M9.04779 21.8723L11.2261 23.1287L10.7087 23.5566L8.52656 22.3002L9.04779 21.8723Z" fill="#481018"/>
<path d="M6.79549 21.5961L8.55756 22.1212L9.40942 23.1131L8.88819 23.2842L8.05967 22.3079L6.27425 21.7711L6.79549 21.5961Z" fill="#4F1F26"/>
<path d="M10.0707 22.3235L11.9495 23.5449L11.4321 23.9728L9.10214 21.954L10.0707 22.3235Z" fill="#481018"/>
<path d="M10.0629 22.5802L12.2412 23.8366L11.7239 24.2645L9.54559 23.0081L10.0629 22.5802Z" fill="#481018"/>
<path d="M7.75252 21.4678L9.51848 21.9929L10.3665 22.9848L9.88023 23.0159L9.05171 22.0357L7.26629 21.5028L7.75252 21.4678Z" fill="#4F1F26"/>
<path d="M9.04779 21.8722L10.4209 22.4207L11.2261 23.1286L10.7982 23.0197L10.0125 22.3196L8.18426 21.5066L9.04779 21.8722Z" fill="#4F1F26"/>
<path d="M10.5297 23.3582L12.7119 24.6146L12.1907 25.0424L10.0124 23.786L10.5297 23.3582Z" fill="#481018"/>
<path d="M10.798 24.3423L12.9763 25.5987L12.459 26.0266L10.2768 24.7663L10.798 24.3423Z" fill="#481018"/>
<path d="M10.8525 25.4858L13.0347 26.7422L12.5134 27.1701L10.3352 25.9098L10.8525 25.4858Z" fill="#481018"/>
<path d="M10.697 26.7384L12.8752 27.9987L12.354 28.4227L10.1757 27.1663L10.697 26.7384Z" fill="#481018"/>
<path d="M7.23114 32.7286L9.40942 33.9889L8.88819 34.4129L6.70991 33.1565L7.23114 32.7286Z" fill="#481018"/>
<path d="M6.2043 33.3822L8.38647 34.6386L7.86524 35.0665L5.68696 33.8062L6.2043 33.3822Z" fill="#481018"/>
<path d="M5.19305 33.7789L7.37134 35.0392L6.8501 35.4632L4.67182 34.2068L5.19305 33.7789Z" fill="#481018"/>
<path d="M4.23603 33.9073L6.41431 35.1676L5.89308 35.5916L3.71479 34.3352L4.23603 33.9073Z" fill="#481018"/>
<path d="M3.22865 31.834L0.614709 30.3209L1.63383 29.5585L3.95215 30.1381L3.22865 31.834Z" fill="#481018"/>
<path d="M0.937575 28.3916L2.53239 28.835L3.55151 29.9047L3.38814 30.5777L2.35346 29.5041L0.774201 29.0645L0.937575 28.3916Z" fill="#4F1F26"/>
<path d="M1.40437 27.0729L2.99918 27.5202L4.01831 28.586L3.7538 29.2667L2.71912 28.1931L1.13987 27.7536L1.40437 27.0729Z" fill="#4F1F26"/>
<path d="M0.66902 29.683L2.07712 30.0642L3.28296 31.1961L3.2285 31.834L2.00711 30.6943L0.614563 30.3209L0.66902 29.683Z" fill="#4F1F26"/>
<path d="M0.614563 30.8888L2.08101 31.3906L3.2285 32.4019L3.28296 32.9776L2.1238 31.9585L0.66902 31.4645L0.614563 30.8888Z" fill="#4F1F26"/>
<path d="M0.774201 31.9624L2.19398 32.4564L3.38814 33.4755L3.55151 33.9618L2.34179 32.9348L0.937575 32.4447L0.774201 31.9624Z" fill="#4F1F26"/>
<path d="M1.13987 32.8492L2.55964 33.3471L3.7538 34.3624L4.01831 34.7397L2.80859 33.7128L1.40437 33.2227L1.13987 32.8492Z" fill="#4F1F26"/>
<path d="M3.28297 31.1961L3.55136 30.9821L3.56692 30.811L3.60971 30.6282L3.38799 30.5776L3.55136 29.9047L3.82365 29.753L3.86643 29.5702L3.93645 29.3912L3.75363 29.2667L4.01814 28.586L4.28264 28.5005L4.35655 28.3215L4.4499 28.1426L4.30987 27.9559L4.66773 27.2985L4.91279 27.2868L5.00614 27.1118L5.12283 26.9484L5.03337 26.7034L5.46514 26.0966L5.68297 26.1588L5.79577 25.9993L5.92802 25.8554L5.89301 25.5637L6.37924 25.0386L6.55817 25.1669L6.69042 25.0269L6.82656 24.9141L6.8499 24.5873L7.37114 24.1633L7.50339 24.3578L7.64342 24.245L7.78345 24.1633L7.86514 23.8172L8.39804 23.5099L8.47583 23.7627L8.61976 23.681L8.7559 23.6343L8.88815 23.2843L9.40938 23.1131L9.43272 23.4087L9.57275 23.3621L9.70112 23.3543L9.88005 23.0159L10.3663 22.9847L10.3352 23.3115L10.4635 23.3037L10.5802 23.3309L10.798 23.0197L11.2259 23.1287L11.1403 23.4749L11.2531 23.506L11.3465 23.5721L11.5954 23.2959L11.9494 23.5449L11.8094 23.895L11.9066 23.9611L11.9766 24.0622L12.2412 23.8366L12.5095 24.2139L12.3228 24.5484L12.3929 24.6496L12.4395 24.7779L12.7118 24.6146L12.8752 25.1008L12.6535 25.4081L12.6963 25.5403L12.7118 25.692L12.9763 25.5987L13.0347 26.1744L12.7818 26.4389L12.7974 26.5945L12.7818 26.7656L13.0347 26.7423L12.9763 27.3802L12.7118 27.5941L12.6963 27.7653L12.6535 27.9442L12.8752 27.9987L12.7118 28.6716L12.4395 28.8233L12.3929 29.0061L12.3228 29.1851L12.5095 29.3095L12.2412 29.9903L11.9766 30.0758L11.9066 30.2548L11.8094 30.4298L11.9494 30.6204L11.5954 31.2778L11.3465 31.2894L11.2531 31.4645L11.1403 31.6279L11.2259 31.8729L10.798 32.4797L10.5802 32.4175L10.4635 32.577L10.3352 32.7209L10.3663 33.0126L9.88005 33.5377L9.70112 33.4055L9.57275 33.5494L9.43272 33.6622L9.40938 33.989L8.88815 34.4129L8.7559 34.2185L8.61976 34.3313L8.47583 34.4129L8.39804 34.7591L7.86514 35.0664L7.78345 34.8136L7.64342 34.8953L7.50339 34.942L7.37114 35.292L6.8499 35.4632L6.82656 35.1676L6.69042 35.2142L6.55817 35.222L6.37924 35.5604L5.89301 35.5915L5.92802 35.2648L5.79577 35.2726L5.68297 35.2454L5.46514 35.5565L5.03337 35.4476L5.12283 35.1014L5.00614 35.0703L4.91279 35.0042L4.66773 35.2765L4.30987 35.0314L4.4499 34.6813L4.35655 34.6152L4.28264 34.5141L4.01814 34.7397L3.75363 34.3624L3.93645 34.0279L3.86643 33.9267L3.82365 33.7984L3.55136 33.9617L3.38799 33.4755L3.60971 33.1682L3.56692 33.036L3.55136 32.8843L3.28297 32.9776L3.22851 32.4019L3.47746 32.1374L3.4619 31.9818L3.47746 31.8107L3.22851 31.834L3.28297 31.1961Z" fill="#67383F"/>
<path d="M5.16492 34.3599C3.54769 33.4145 3.5647 30.3763 5.2029 27.574C6.84111 24.7717 9.48016 23.2664 11.0974 24.2118C12.7146 25.1572 12.6976 28.1953 11.0594 30.9976C9.4212 33.8 6.78215 35.3053 5.16492 34.3599Z" fill="#5C2930"/>
<path d="M4.59384 31.4996C4.59384 33.8101 6.22366 34.7398 8.23857 33.5767C10.2496 32.4137 11.8833 29.6013 11.8833 27.2908C11.8833 24.9803 10.2535 24.0506 8.23857 25.2137C6.22755 26.3767 4.59384 29.189 4.59384 31.4996Z" fill="#67383F"/>
<path d="M5.34843 31.0639C5.34843 32.896 6.64373 33.6312 8.23855 32.7132C9.83336 31.7913 11.1287 29.5586 11.1287 27.7304C11.1287 25.9022 9.83336 25.1631 8.23855 26.0811C6.64373 27.003 5.34843 29.2357 5.34843 31.0639Z" fill="#5C2930"/>
<path d="M5.85038 30.6049C5.85038 32.0519 6.8734 32.6315 8.13369 31.9041C9.39398 31.1767 10.417 29.4146 10.417 27.9676C10.417 26.5206 9.39398 25.9411 8.13369 26.6684C6.8734 27.3958 5.85038 29.1579 5.85038 30.6049Z" fill="#E89E00"/>
<path d="M5.95922 30.4571V30.4765C5.95922 31.8107 6.90055 32.3514 8.06359 31.6746C9.22275 31.0055 10.168 29.3835 10.168 28.0493C10.168 26.7151 9.22664 26.1822 8.06359 26.8512C8.03637 26.8668 8.00914 26.8862 7.98191 26.9018C7.79909 27.0146 7.62016 27.1546 7.4529 27.3102C7.31675 27.4347 7.1845 27.5747 7.05614 27.7225C6.91221 27.8976 6.77996 28.0804 6.65549 28.2788C6.58158 28.4033 6.51157 28.5316 6.43766 28.6639C6.33264 28.8817 6.23539 29.1034 6.16537 29.329C6.10314 29.5118 6.04868 29.6947 6.02145 29.8775C5.98256 30.072 5.96311 30.2665 5.96311 30.4532L5.95922 30.4571Z" fill="#E68F00"/>
<path d="M7.56567 31.4295C8.72871 30.7604 9.67004 29.1345 9.67004 27.8042C9.67004 27.2518 9.50667 26.8395 9.23438 26.5906C9.79451 26.6995 10.1602 27.2246 10.1602 28.057C10.1602 29.3912 9.21883 31.0133 8.05578 31.6823C7.37507 32.0752 6.77215 32.0518 6.38706 31.6979C6.72158 31.764 7.12612 31.6823 7.56178 31.4295H7.56567Z" fill="#BF5300"/>
<path d="M6.8228 29.4573C6.8228 29.9708 7.18455 30.1808 7.63577 29.9202C8.08309 29.6596 8.44873 29.0334 8.44873 28.5199C8.44873 28.0065 8.08698 27.7964 7.63577 28.057C7.18844 28.3176 6.8228 28.9439 6.8228 29.4573Z" fill="#481018"/>
<path d="M7.06391 29.4185C7.06391 29.8347 7.35954 30.002 7.72129 29.7919C8.08304 29.5819 8.37866 29.0762 8.37866 28.6561C8.37866 28.236 8.08304 28.0726 7.72129 28.2827C7.35954 28.4927 7.06391 28.9984 7.06391 29.4185Z" fill="#BF5300"/>
<path d="M7.29352 29.4107C7.29352 29.7258 7.51524 29.8502 7.79141 29.6946C8.0637 29.5351 8.28931 29.154 8.28931 28.8389C8.28931 28.5238 8.06759 28.3993 7.79141 28.5549C7.51913 28.7144 7.29352 29.0956 7.29352 29.4107Z" fill="#E89E00"/>
<path d="M8.50694 27.3957C8.50694 27.5708 8.62752 27.6369 8.77923 27.5513C8.93093 27.4658 9.05151 27.2518 9.05151 27.0807C9.05151 26.9095 8.93093 26.8395 8.77923 26.9251C8.62752 27.0106 8.50694 27.2246 8.50694 27.3957Z" fill="#BF5300"/>
<path d="M8.86485 28.232C8.86485 28.4071 8.98544 28.4732 9.13714 28.3876C9.28884 28.3021 9.40942 28.0881 9.40942 27.917C9.40942 27.7458 9.28884 27.6758 9.13714 27.7614C8.98544 27.847 8.86485 28.0609 8.86485 28.232Z" fill="#BF5300"/>
<path d="M8.67052 29.2823C8.67052 29.4574 8.7911 29.5235 8.9428 29.4379C9.0945 29.3524 9.21509 29.1384 9.21509 28.9673C9.21509 28.7961 9.0945 28.7261 8.9428 28.8117C8.7911 28.8972 8.67052 29.1112 8.67052 29.2823Z" fill="#BF5300"/>
<path d="M8.04039 30.2704C8.04039 30.4454 8.16098 30.5115 8.31268 30.426C8.46438 30.3404 8.58496 30.1264 8.58496 29.9553C8.58496 29.7841 8.46438 29.7141 8.31268 29.7997C8.16098 29.8853 8.04039 30.0992 8.04039 30.2704Z" fill="#BF5300"/>
<path d="M7.24278 30.9744C7.24278 31.1494 7.36336 31.2155 7.51507 31.1299C7.66677 31.0444 7.78735 30.8304 7.78735 30.6593C7.78735 30.4881 7.66677 30.4181 7.51507 30.5037C7.36336 30.5893 7.24278 30.8032 7.24278 30.9744Z" fill="#BF5300"/>
<path d="M6.33653 31.0444C6.33653 31.2195 6.45711 31.2856 6.60882 31.2C6.76052 31.1144 6.8811 30.9005 6.8811 30.7293C6.8811 30.5582 6.76052 30.4882 6.60882 30.5738C6.45711 30.6593 6.33653 30.8733 6.33653 31.0444Z" fill="#BF5300"/>
<path d="M5.95912 30.457C6.0058 30.4687 6.06025 30.4609 6.12249 30.4259C6.2703 30.3365 6.39478 30.1264 6.39478 29.9514C6.39478 29.7763 6.2703 29.7063 6.12249 29.7997C6.08359 29.8191 6.04858 29.8463 6.02136 29.8814C5.98246 30.0758 5.96301 30.2703 5.96301 30.457H5.95912Z" fill="#BF5300"/>
<path d="M6.16161 29.3329C6.18105 29.329 6.20828 29.3173 6.23162 29.3018C6.38332 29.2123 6.50391 29.0022 6.50391 28.8272C6.50391 28.7494 6.47668 28.6911 6.43389 28.6677C6.32887 28.8817 6.23162 29.1034 6.16161 29.329V29.3329Z" fill="#BF5300"/>
<path d="M6.65163 28.2827C6.69053 28.2866 6.73721 28.2788 6.78777 28.2477C6.93948 28.1582 7.06006 27.9482 7.06006 27.7731C7.06006 27.7576 7.06006 27.7381 7.05228 27.7264C6.90836 27.9015 6.7761 28.0843 6.65163 28.2827Z" fill="#BF5300"/>
<path d="M7.44907 27.3141C7.45685 27.4658 7.57743 27.5319 7.71746 27.4463C7.86916 27.3607 7.98975 27.1468 7.98975 26.9756C7.98975 26.9484 7.98586 26.9251 7.97808 26.9017C7.79526 27.0145 7.61633 27.1546 7.44907 27.3102V27.3141Z" fill="#BF5300"/>
<path d="M12.9959 26.2211C12.9959 26.2211 12.922 23.5215 12.6342 22.8019C12.463 22.3663 11.475 21.7867 10.6504 21.3783C10.3159 21.071 9.93077 20.7676 9.75184 20.7559C8.45265 20.6898 6.39884 22.3196 6.2627 22.4324C6.25881 22.4324 6.25492 22.4363 6.25492 22.4363L4.84293 21.6233L4.87793 21.1682C4.87793 21.1682 7.05233 19.7718 8.31262 19.6201C8.70549 19.5734 9.17615 19.729 9.64293 19.974C10.6659 20.5108 11.7668 21.1527 11.8523 21.2849C11.8873 21.3471 12.7042 22.1873 12.8715 22.9186C13.2099 24.3812 12.992 26.2249 12.992 26.2249L12.9959 26.2211Z" fill="#4DCCDB"/>
<path d="M13.4392 25.9216L12.9958 26.2211C12.9958 26.2211 12.9219 23.5215 12.634 22.8019C12.4629 22.3663 11.4749 21.7867 10.6502 21.3783C10.1095 21.1138 9.64277 20.9232 9.51441 20.8959C9.20323 20.8298 6.4337 22.3429 6.26255 22.4324C6.25866 22.4324 6.25477 22.4363 6.25477 22.4363L6.28977 21.9812C6.28977 21.9812 8.46417 20.5848 9.72446 20.4331C10.3468 20.3553 11.1676 20.7948 11.8522 21.281C12.5523 21.775 13.1047 22.3196 13.163 22.413C13.2719 22.5919 13.4353 25.9216 13.4353 25.9216H13.4392Z" fill="#008FD5"/>
<path d="M5.95156 28.0025V30.173L12.5292 33.9695L18.1033 26.2171L21.6235 23.8444L23.0589 20.7131L25.6417 18.3831L30.9862 12.494L33.1762 10.7397L33.6196 8.47969L32.0287 8.0946L27.6644 10.2729L18.8579 17.7491C18.8579 17.7491 5.95156 25.8282 5.95156 27.9987V28.0025Z" fill="#380009"/>
<path d="M8.22304 29.8347L6.18868 31.1261L6.35983 32.1841L7.95076 33.106L9.81396 30.7566L8.22304 29.8347Z" fill="#463C34"/>
<path d="M9.81399 30.7566L7.77574 32.048L7.95078 33.106L9.93457 31.9624L9.81399 30.7566Z" fill="#23170D"/>
<path d="M28.9324 1.05798L35.51 4.85831L28.3761 9.38602L26.6957 18.7915L23.1366 17.8658L19.2001 20.2424L19.3596 13.9565L20.7988 5.57792L28.2205 1.29137L28.9324 1.05798Z" fill="#0BC0D7"/>
<path d="M20.8843 6.73706L19.7174 13.5753L25.7504 17.0567L26.9446 10.2923L20.8843 6.73706Z" fill="#67383F"/>
<path d="M20.2386 13.198L21.3005 7.66284L24.0623 9.25765L24.5913 14.2444L22.0591 12.8324H20.7482L20.2386 13.198Z" fill="#7E7E7E"/>
<path d="M19.7174 13.5753L20.7482 12.8324H22.0591L26.1006 15.0885L25.7505 17.0567L19.7174 13.5753Z" fill="#784A51"/>
<path d="M5.34085 28.4188L5.84652 22.9809L6.38332 22.1135L9.55738 19.6629L14.0618 16.7028L19.7136 13.941V14.9757L19.383 20.0169L15.7499 21.9151L13.6961 24.1945L8.54215 26.9718L6.81897 27.4075L5.34085 28.4188Z" fill="#3BB1D1"/>
<path d="M19.7136 13.941L26.2913 17.7375L11.9185 32.2192L5.34086 28.4188L13.595 18.0992L19.7136 13.941Z" fill="#3BB1D1"/>
<path d="M5.34077 28.4188L5.42245 27.5591L5.80754 23.4009L5.84644 22.9808L12.4241 26.7812L11.9184 32.2191L8.67042 31.3167L7.00171 30.3559L5.34077 28.4188Z" fill="#0BC0D7"/>
<path d="M5.42254 27.5591L5.50033 26.6995L5.88542 22.5413L5.92432 22.1212L12.502 25.9176L12.0002 31.3595L8.74831 30.457L7.08348 29.4963L5.42254 27.5591Z" fill="#0BC0D7"/>
<path d="M5.84636 22.9847L7.50341 24.9179L9.47164 26.0382L12.4201 26.7773V26.7734L12.5212 25.6609L6.38704 22.1134L5.84636 22.9847Z" fill="#64D6E5"/>
<path d="M12.5292 31.7991V33.9696L16.8819 34.8953L24.6809 30.0136L28.2012 27.6409L29.6365 24.5096L32.2193 22.1796L37.5639 16.2905L39.7538 14.5362L40.1973 12.2762L38.6063 11.8911L34.242 14.0694L25.4355 21.5456C25.4355 21.5456 12.5292 29.6247 12.5292 31.7952V31.7991Z" fill="#380009"/>
<path d="M23.4284 27.8664L25.4977 26.6722L26.5247 26.2405L26.6958 28.6132L24.6809 30.0175L23.2728 30.5504L23.4284 27.8664Z" fill="#5C2930"/>
<path d="M42.0799 18.0486L42.3794 18.0214L42.3133 18.7877L41.9943 19.0444L41.9749 19.2506L41.9204 19.4684L42.1888 19.5306L41.9904 20.3397L41.6637 20.5225L41.6092 20.7403L41.5237 20.9582L41.7454 21.106L41.4264 21.9228L41.1075 22.024L41.0219 22.2418L40.9091 22.4518L41.0763 22.6775L40.6485 23.4671L40.3528 23.4788L40.24 23.6888L40.1039 23.8833L40.2089 24.175L39.6955 24.9024L39.4348 24.8285L39.2987 25.023L39.1431 25.1903L39.182 25.5403L38.5985 26.1744L38.3846 26.0149L38.229 26.1822L38.0617 26.3183L38.0306 26.7073L37.4083 27.2207L37.2488 26.9873L37.0815 27.1235L36.9104 27.2207L36.8131 27.633L36.2491 27.9559L35.3933 29.963L31.912 27.9559L31.9587 27.8353L31.5619 27.6058L31.2429 27.1585L31.3869 26.8979L31.0018 26.6762L30.8034 26.0966L31.0718 25.727L30.6828 25.5014L30.6167 24.8129L30.9162 24.494L30.8968 24.3112L30.9162 24.105L30.6167 24.1322L30.6828 23.3659L31.0018 23.1092L31.0212 22.9031L31.0718 22.6852L30.8034 22.623L31.0018 21.8139L31.3285 21.6311L31.383 21.4133L31.4686 21.1954L31.2468 21.0476L31.5658 20.2308L31.8848 20.1296L31.9703 19.9118L32.0831 19.7018L31.9159 19.4762L32.3438 18.6865L32.6394 18.6749L32.7522 18.4648L32.8883 18.2703L32.7833 17.9786L33.2968 17.2512L33.5574 17.3251L33.6935 17.1306L33.8491 16.9634L33.8102 16.6133L34.3937 15.9792L34.6076 16.1387L34.7632 15.9715L34.9305 15.8353L34.9616 15.4463L35.584 14.9329L35.7434 15.1663L35.9107 15.0301L36.0818 14.9329L36.1791 14.5206L36.817 14.151L36.9143 14.4544L37.0854 14.3572L37.2527 14.3027L37.4122 13.8826L38.0345 13.6765L38.0656 14.0343L38.2329 13.9799L38.3885 13.9682L38.6024 13.5637L39.1859 13.5248L39.147 13.9176L39.3026 13.906L39.4387 13.941L39.6993 13.5676L40.2128 13.6998L40.1078 14.116L40.2439 14.151L40.3567 14.2288L40.6523 13.9021L41.0802 14.1977L40.913 14.6139L41.0258 14.6917L41.1113 14.8123L41.4303 14.5439L41.7493 14.9912L41.5275 15.3919L41.6131 15.5125L41.6676 15.6681L41.9943 15.4736L42.1927 16.0531L41.9243 16.4227L41.9788 16.5783L41.9982 16.7611L42.3172 16.6483L42.3833 17.3368L42.0838 17.6557L42.1032 17.8386L42.0838 18.0447L42.0799 18.0486ZM35.9185 27.7964L35.8407 27.8236L36.1557 27.9014L36.0896 27.6992L35.9185 27.7964Z" fill="#481018"/>
<path d="M33.429 24.1322L30.8189 22.623L31.5191 21.4016L34.2964 22.0979L33.429 24.1322Z" fill="#481018"/>
<path d="M33.3084 17.2512L34.8993 17.5741L35.9185 18.7605L35.405 19.4878L34.4092 18.3131L32.7911 17.9786L33.3084 17.2512Z" fill="#4F1F26"/>
<path d="M34.4053 15.9792L35.9963 16.3021L37.0154 17.4885L36.4358 18.1225L35.44 16.9478L33.8219 16.6133L34.4053 15.9792Z" fill="#4F1F26"/>
<path d="M35.5955 14.929L37.1864 15.2518L38.2056 16.4382L37.5832 16.9516L36.5874 15.7769L34.9693 15.4424L35.5955 14.929Z" fill="#4F1F26"/>
<path d="M32.3514 18.6904L33.9423 19.0133L34.9614 20.1997L34.5374 20.9893L33.4989 19.7912L31.9235 19.4801L32.3514 18.6904Z" fill="#4F1F26"/>
<path d="M31.5736 20.2347L33.0828 20.5343L34.1875 21.7401L33.8685 22.5569L32.7444 21.3394L31.2546 21.0516L31.5736 20.2347Z" fill="#4F1F26"/>
<path d="M36.8209 14.151L39.4348 15.6563L38.8124 16.1698L36.1985 14.6606L36.8209 14.151Z" fill="#481018"/>
<path d="M36.8209 14.151L38.4157 14.4739L39.4348 15.6563L38.7969 16.0259L37.8011 14.8551L36.1868 14.5166L36.8209 14.151Z" fill="#4F1F26"/>
<path d="M38.0384 13.6726L40.6484 15.178L40.0261 15.6914L37.4121 14.1822L38.0384 13.6726Z" fill="#481018"/>
<path d="M39.1858 13.517L41.7959 15.0262L41.1735 15.5358L38.5635 14.0304L39.1858 13.517Z" fill="#481018"/>
<path d="M40.2166 13.692L42.8267 15.2013L42.2043 15.7147L39.5904 14.2055L40.2166 13.692Z" fill="#481018"/>
<path d="M38.0384 13.6726L39.6293 13.9955L40.6484 15.178L40.0261 15.388L39.0303 14.2172L37.4121 13.8788L38.0384 13.6726Z" fill="#4F1F26"/>
<path d="M41.084 14.1938L43.6941 15.6992L43.0717 16.2126L40.4617 14.7034L41.084 14.1938Z" fill="#481018"/>
<path d="M41.4341 14.5439L44.0442 16.0493L43.4218 16.5627L40.8118 15.0535L41.4341 14.5439Z" fill="#481018"/>
<path d="M39.1858 13.517L40.7768 13.8398L41.7959 15.0262L41.2163 15.0651L40.2205 13.8904L38.6024 13.5559L39.1858 13.517Z" fill="#4F1F26"/>
<path d="M40.2166 13.6921L41.8814 14.5011L42.8267 15.2013L42.3132 15.0691L41.3913 14.3806L39.6993 13.5598L40.2166 13.6921Z" fill="#4F1F26"/>
<path d="M41.9942 15.4736L44.6042 16.9829L43.9819 17.4963L41.3718 15.9871L41.9942 15.4736Z" fill="#481018"/>
<path d="M42.3133 16.6522L44.9272 18.1615L44.301 18.671L41.6909 17.1657L42.3133 16.6522Z" fill="#481018"/>
<path d="M42.3792 18.0253L44.9932 19.5306L44.3708 20.0441L41.7569 18.5348L42.3792 18.0253Z" fill="#481018"/>
<path d="M42.1888 19.5267L44.8027 21.036L44.1804 21.5494L41.5664 20.0402L42.1888 19.5267Z" fill="#481018"/>
<path d="M38.0384 26.7073L40.6484 28.2165L40.0261 28.73L37.4121 27.2207L38.0384 26.7073Z" fill="#481018"/>
<path d="M36.8091 27.4891L39.4192 28.9984L38.7968 29.5079L36.1868 28.0026L36.8091 27.4891Z" fill="#481018"/>
<path d="M35.5955 27.9675L38.2056 29.4768L37.5832 29.9863L34.9693 28.481L35.5955 27.9675Z" fill="#481018"/>
<path d="M34.4481 28.1232L37.0581 29.6285L36.4357 30.142L33.8218 28.6327L34.4481 28.1232Z" fill="#481018"/>
<path d="M33.2383 25.6337L30.6282 24.1284L31.3284 22.907L34.1057 23.5994L33.2383 25.6337Z" fill="#481018"/>
<path d="M31.0133 21.814L32.4019 22.0435L33.6272 23.3232L33.4288 24.1323L32.188 22.8409L30.8188 22.623L31.0133 21.814Z" fill="#4F1F26"/>
<path d="M30.6944 23.3621L31.8613 23.5138L33.3044 24.8713L33.2383 25.6337L31.7758 24.2723L30.6283 24.1283L30.6944 23.3621Z" fill="#4F1F26"/>
<path d="M30.6283 24.8091L31.8652 25.1047L33.2383 26.3183L33.3044 27.0068L31.9119 25.7815L30.6944 25.4976L30.6283 24.8091Z" fill="#4F1F26"/>
<path d="M30.8188 26.0927L31.9974 26.3844L33.4288 27.6019L33.6272 28.1854L32.1763 26.9523L31.0133 26.6761L30.8188 26.0927Z" fill="#4F1F26"/>
<path d="M31.2546 27.1584L32.4371 27.4463L33.8685 28.6677L34.1875 29.115L32.7366 27.8858L31.5736 27.6097L31.2546 27.1584Z" fill="#4F1F26"/>
<path d="M33.3043 24.8713L33.6272 24.6107L33.6428 24.4084L33.6972 24.1906L33.4288 24.1322L33.6272 23.3232L33.9539 23.1403L34.0045 22.9225L34.0901 22.7047L33.8684 22.5569L34.1873 21.74L34.5063 21.6428L34.5919 21.4249L34.7047 21.211L34.5374 20.9893L34.9614 20.1997L35.257 20.1841L35.3737 19.9741L35.5099 19.7796L35.4048 19.4878L35.9183 18.7604L36.1828 18.8343L36.3189 18.6399L36.4745 18.4687L36.4356 18.1225L37.0152 17.4885L37.233 17.6441L37.3886 17.4768L37.552 17.3407L37.5831 16.9517L38.2055 16.4382L38.365 16.6716L38.5322 16.5355L38.6995 16.4382L38.7967 16.0259L39.4347 15.6564L39.5319 15.9598L39.6992 15.8625L39.8664 15.8081L40.0259 15.388L40.6483 15.1779L40.6794 15.5358L40.8428 15.4813L40.9984 15.4697L41.2162 15.0651L41.7958 15.0262L41.7569 15.4191L41.9125 15.4074L42.0525 15.4463L42.3131 15.069L42.8266 15.2013L42.7215 15.6175L42.8577 15.6525L42.9744 15.7303L43.27 15.4036L43.694 15.6992L43.5267 16.1193L43.6434 16.1971L43.7251 16.3177L44.0441 16.0493L44.363 16.5005L44.1413 16.9011L44.2269 17.0217L44.2774 17.1773L44.6042 16.9828L44.8026 17.5663L44.5342 17.9358L44.5886 18.0914L44.6042 18.2742L44.927 18.1614L44.9932 18.8499L44.6937 19.1689L44.7092 19.3556L44.6937 19.5578L44.9932 19.5306L44.927 20.2969L44.6042 20.5536L44.5886 20.7598L44.5342 20.9737L44.8026 21.036L44.6042 21.845L44.2774 22.0279L44.2269 22.2457L44.1413 22.4635L44.363 22.6074L44.0441 23.4243L43.7251 23.5254L43.6434 23.7433L43.5267 23.9533L43.694 24.1789L43.27 24.9685L42.9744 24.9802L42.8577 25.1942L42.7215 25.3886L42.8266 25.6804L42.3131 26.4078L42.0525 26.3339L41.9125 26.5283L41.7569 26.6956L41.7958 27.0457L41.2162 27.6797L40.9984 27.5202L40.8428 27.6914L40.6794 27.8275L40.6483 28.2165L40.0259 28.73L39.8664 28.4927L39.6992 28.6288L39.5319 28.73L39.4347 29.1423L38.7967 29.5079L38.6995 29.2084L38.5322 29.3057L38.365 29.3601L38.2055 29.7802L37.5831 29.9864L37.552 29.6324L37.3886 29.6869L37.233 29.6985L37.0152 30.1031L36.4356 30.142L36.4745 29.7491L36.3189 29.7569L36.1828 29.7219L35.9183 30.0992L35.4048 29.9669L35.5099 29.5507L35.3737 29.5157L35.257 29.434L34.9614 29.7647L34.5374 29.469L34.7047 29.0489L34.5919 28.9711L34.5063 28.8506L34.1873 29.1151L33.8684 28.6677L34.0901 28.2632L34.0045 28.1465L33.9539 27.9909L33.6272 28.1854L33.4288 27.6019L33.6972 27.2324L33.6428 27.0768L33.6272 26.894L33.3043 27.0068L33.2382 26.3183L33.5377 25.9955L33.5222 25.8126L33.5377 25.6104L33.2382 25.6337L33.3043 24.8713Z" fill="#67383F"/>
<path d="M34.1175 25.4704C34.1175 28.6367 36.3541 29.9125 39.1159 28.3177C41.8737 26.7229 44.1143 22.8642 44.1143 19.6979C44.1143 16.5317 41.8776 15.2558 39.1159 16.8506C36.358 18.4454 34.1175 22.3041 34.1175 25.4704Z" fill="#5C2930"/>
<path d="M34.8758 25.2369C34.8758 28.0064 36.8324 29.1189 39.2441 27.7264C41.6557 26.3338 43.6123 22.9614 43.6123 20.1919C43.6123 17.4223 41.6557 16.3098 39.2441 17.7024C36.8324 19.0949 34.8758 22.4674 34.8758 25.2369Z" fill="#67383F"/>
<path d="M35.7822 24.7118C35.7822 26.9056 37.3343 27.7925 39.2441 26.6878C41.1579 25.5831 42.7061 22.9069 42.7061 20.7131C42.7061 18.5192 41.154 17.6324 39.2441 18.7371C37.3304 19.8418 35.7822 22.5179 35.7822 24.7118Z" fill="#5C2930"/>
<path d="M36.3813 24.1634C36.3813 25.8982 37.6066 26.5945 39.1158 25.7232C40.6251 24.8519 41.8503 22.7397 41.8503 21.0049C41.8503 19.27 40.6251 18.5737 39.1158 19.445C37.6066 20.3164 36.3813 22.4285 36.3813 24.1634Z" fill="#E89E00"/>
<path d="M36.5096 24.0155C36.5096 25.6142 37.6377 26.2561 39.0302 25.4509C40.4227 24.6457 41.5508 22.7008 41.5508 21.1021C41.5508 19.5034 40.4227 18.8616 39.0302 19.6668C37.6377 20.4719 36.5096 22.4168 36.5096 24.0155Z" fill="#E68F00"/>
<path d="M38.4389 25.1513C39.8315 24.3462 40.9595 22.4013 40.9595 20.8026C40.9595 20.1413 40.765 19.6473 40.4383 19.3478C41.1073 19.48 41.5508 20.1063 41.5508 21.106C41.5508 22.7047 40.4227 24.6496 39.0302 25.4547C38.2133 25.9254 37.4898 25.8982 37.0308 25.4742C37.4315 25.552 37.9177 25.4547 38.4389 25.1552V25.1513Z" fill="#BF5300"/>
<path d="M37.6453 22.728C37.6453 23.2843 38.0382 23.506 38.5205 23.2259C39.0029 22.9459 39.3958 22.2729 39.3958 21.7167C39.3958 21.1605 39.0029 20.9387 38.5205 21.2188C38.0382 21.4989 37.6453 22.1718 37.6453 22.728Z" fill="#481018"/>
<path d="M37.9682 22.6308C37.9682 23.0314 38.2522 23.1909 38.5984 22.9886C38.9485 22.7864 39.2285 22.3001 39.2285 21.8995C39.2285 21.4989 38.9446 21.3394 38.5984 21.5416C38.2483 21.7439 37.9682 22.2301 37.9682 22.6308Z" fill="#BF5300"/>
<path d="M38.1901 22.6269C38.1901 22.9265 38.404 23.0509 38.6646 22.8992C38.9291 22.7475 39.1392 22.3819 39.1392 22.0785C39.1392 21.7751 38.9252 21.6545 38.6646 21.8062C38.4001 21.9579 38.1901 22.3235 38.1901 22.6269Z" fill="#E89E00"/>
<path d="M11.9185 32.2191L12.4242 26.7812L12.961 25.9099L16.135 23.4593L20.6394 20.4992L26.2913 17.7374V18.7721L25.9606 23.8133L22.3237 25.7115L20.2738 27.9909L15.1159 30.7682L13.3966 31.2039L11.9185 32.2191Z" fill="#007881"/>
<path d="M21.8179 22.6307L21.0361 23.0742V23.4554L21.9424 22.7008L21.8179 22.6307Z" fill="#E06E36"/>
<path d="M21.9424 22.7008L21.1644 23.1481V23.5293L21.9424 23.0703V22.7008Z" fill="#FF8D36"/>
<path d="M21.1643 23.1481L21.0359 23.0742V23.4554L21.1643 23.5293V23.1481Z" fill="#DB5716"/>
<path d="M13.5171 26.8745L12.3891 27.2013L12.4241 26.7812L12.9609 25.9099L16.1349 23.4593L20.6393 20.4992L25.9333 17.9125L26.1006 18.636L25.91 18.7332L20.9466 21.1799L13.5171 26.8745Z" fill="#00B3C9"/>
<path d="M15.816 27.2597L16.6756 28.5589L20.2737 27.991L21.1411 27.0302L19.733 26.0266L15.816 27.2597Z" fill="#005E6F"/>
<path d="M24.2567 31.7834L21.7206 29.5857L21.141 27.2518L20.1841 26.3572L21.3355 26.4855L23.8444 28.1815C23.8444 28.1815 24.4668 30.6009 24.2606 31.7795L24.2567 31.7834Z" fill="#00454A"/>
<path d="M35.5099 4.8584L36.9841 12.2218L34.9537 13.1825L31.8496 17.0684L29.7141 21.6623L25.7776 23.9067L25.9371 17.7531L27.3764 9.37444L34.7981 5.0879L35.5099 4.8584Z" fill="#0097AA"/>
<path d="M36.2373 10.4597L35.3621 5.32129L33.3005 6.40265L33.6817 12.0584L36.2373 10.4597Z" fill="#380009"/>
<path d="M35.1598 5.73352L33.5844 6.56205L33.9229 11.5915L35.9417 10.3274L35.1598 5.73352Z" fill="#4F2F32"/>
<path d="M35.51 10.2185L33.7518 9.06323L33.5846 6.5621L34.9149 5.86194L35.51 10.2185Z" fill="#664A4C"/>
<path d="M33.0789 6.72546L33.3745 11.895L30.1382 17.7102L28.9557 21.2655L26.4351 22.7203L28.0883 9.38219L33.0789 6.72546Z" fill="#380009"/>
<path d="M26.7697 22.2146L28.734 21.0827L29.8893 17.5974L33.0984 11.8367L32.9117 8.53812L32.83 7.16113L31.6981 7.76016L28.3373 9.54946L26.7697 22.2146Z" fill="#4F2F32"/>
<path d="M31.698 7.76016L32.9116 8.53812L32.8299 7.16113L31.698 7.76016Z" fill="#664A4C"/>
<path d="M36.0506 11.9495L33.6117 13.1281L30.5893 17.8269L28.94 22.129L29.7141 21.6623L31.9974 17.3718L34.8486 13.7699L36.9841 12.2217L36.9297 11.9495H36.0506Z" fill="#007881"/>
<path d="M20.9465 21.18L25.9099 18.7333L25.8827 19.838L21.1566 22.2574L13.3226 27.8821L13.517 26.8746L20.9465 21.18Z" fill="#E68F00"/>
<path d="M12.3891 27.2013L13.5171 26.8745L12.9492 29.7646L12.0001 31.3594L12.3891 27.2013Z" fill="#380009"/>
<path d="M21.5689 31.1611L21.8179 31.1378L21.7634 31.7757L21.495 31.9896L21.4795 32.1608L21.4367 32.3397L21.6584 32.3903L21.495 33.0632L21.2227 33.2149L21.1799 33.3939L21.1099 33.5767L21.2966 33.6973L21.0321 34.378L20.7676 34.4635L20.6976 34.6464L20.6043 34.8214L20.7443 35.0081L20.3903 35.6655L20.1453 35.6772L20.0519 35.8522L19.9352 36.0156L20.0247 36.2606L19.5929 36.8674L19.3751 36.8052L19.2584 36.9686L19.13 37.1086L19.1611 37.4003L18.6749 37.9294L18.496 37.7971L18.3676 37.9371L18.2276 38.0499L18.2043 38.3767L17.683 38.8046L17.5508 38.6101L17.4107 38.7229L17.2707 38.8046L17.189 39.1507L16.7184 39.423L16.0065 41.0956L12.6691 39.1663L12.708 39.0652L12.3774 38.8746L12.1128 38.5012L12.2334 38.2833L11.9106 38.0966L11.7472 37.6104L11.9689 37.3031L11.6422 37.1125L11.5877 36.5368L11.8367 36.2684L11.8211 36.1167L11.8367 35.9456L11.5877 35.9689L11.6422 35.331L11.9106 35.117L11.9261 34.9459L11.9689 34.767L11.7472 34.7164L11.9106 34.0435L12.1829 33.8917L12.2256 33.7128L12.2957 33.53L12.109 33.4094L12.3735 32.7287L12.638 32.6431L12.708 32.4603L12.8013 32.2853L12.6613 32.0986L13.0153 31.4412L13.2603 31.4295L13.3537 31.2545L13.4704 31.0911L13.3809 30.846L13.8127 30.2392L14.0305 30.3015L14.1472 30.1381L14.2756 29.9981L14.2445 29.7063L14.7307 29.1773L14.9096 29.3096L15.038 29.1695L15.178 29.0567L15.2013 28.73L15.7226 28.3021L15.8548 28.4966L15.9949 28.3838L16.1349 28.3021L16.2166 27.9559L16.7495 27.6486L16.8312 27.9015L16.9712 27.8198L17.1112 27.7731L17.2435 27.423L17.7647 27.248L17.788 27.5436L17.9281 27.4969L18.0564 27.4892L18.2354 27.1507L18.7216 27.1196L19.1261 27.7031L19.2545 27.6953L19.3712 27.7264L19.1534 27.1585L20.0169 27.5242L19.9274 27.8704L20.0441 27.9015L20.1375 27.9676L20.3825 27.6953L20.7365 27.9443L20.5965 28.2943L20.6898 28.3605L20.7598 28.4616L21.0244 28.2399L21.2889 28.6133L21.1021 28.9478L21.1722 29.049L21.215 29.1773L21.4872 29.014L21.6506 29.5002L21.4289 29.8075L21.4717 29.9358L21.4872 30.0875L21.7556 29.9942L21.8101 30.5699L21.5611 30.8383L21.5767 30.99L21.5611 31.1611H21.5689ZM16.4305 39.2908L16.3644 39.3141L16.625 39.3802L16.5705 39.2091L16.4305 39.2908Z" fill="#481018"/>
<path d="M14.3534 36.2334L11.7356 34.7164L12.3229 33.7012L15.073 34.5336L14.3534 36.2334Z" fill="#481018"/>
<path d="M13.8167 30.2354L15.5788 30.7605L16.4307 31.7524L15.9989 32.3592L15.1704 31.3789L13.385 30.8422L13.8167 30.2354Z" fill="#4F1F26"/>
<path d="M14.7308 29.1774L16.4929 29.7025L17.3447 30.6905L16.8585 31.2195L16.03 30.2393L14.2446 29.7064L14.7308 29.1774Z" fill="#4F1F26"/>
<path d="M15.7225 28.3021L17.4846 28.8272L18.3364 29.8153L17.8152 30.2431L16.9867 29.2629L15.2013 28.7261L15.7225 28.3021Z" fill="#4F1F26"/>
<path d="M13.0152 31.4373L14.7773 31.9624L15.6292 32.9504L15.2752 33.6116L14.4078 32.612L12.6612 32.0946L13.0152 31.4373Z" fill="#4F1F26"/>
<path d="M16.7457 27.6487L19.3596 29.1657L18.8423 29.5897L16.2283 28.0766L16.7457 27.6487Z" fill="#481018"/>
<path d="M16.7457 27.6487L18.5116 28.1738L19.3596 29.1657L18.8306 29.4691L17.9982 28.4928L16.2167 27.956L16.7457 27.6487Z" fill="#4F1F26"/>
<path d="M17.7608 27.2518L20.3748 28.765L19.8535 29.1928L17.2396 27.6797L17.7608 27.2518Z" fill="#481018"/>
<path d="M18.7178 27.1235L21.3318 28.6367L20.8106 29.0645L18.6323 27.8042L18.7178 27.1235Z" fill="#481018"/>
<path d="M20.0131 27.5242L22.1914 28.7845L21.6702 29.2084L19.4919 27.952L20.0131 27.5242Z" fill="#481018"/>
<path d="M17.7608 27.2518L19.5229 27.777L20.3748 28.765L19.8535 28.94L19.025 27.9598L17.2396 27.423L17.7608 27.2518Z" fill="#4F1F26"/>
<path d="M21.036 27.9754L22.9148 29.2007L22.3975 29.6247L20.0675 27.6097L21.036 27.9754Z" fill="#481018"/>
<path d="M21.0283 28.2321L23.2065 29.4923L22.6892 29.9163L20.507 28.6599L21.0283 28.2321Z" fill="#481018"/>
<path d="M18.7178 27.1235L20.4799 27.6487L21.3318 28.6367L20.8456 28.6678L20.017 27.6914L18.2316 27.1547L18.7178 27.1235Z" fill="#4F1F26"/>
<path d="M20.0131 27.5241L21.3862 28.0725L22.1914 28.7844L21.7596 28.6716L20.9778 27.9753L19.1457 27.1584L20.0131 27.5241Z" fill="#4F1F26"/>
<path d="M21.4951 29.01L23.6733 30.2703L23.156 30.6982L20.9777 29.4379L21.4951 29.01Z" fill="#481018"/>
<path d="M21.7634 29.9941L23.9417 31.2505L23.4204 31.6784L21.2421 30.422L21.7634 29.9941Z" fill="#481018"/>
<path d="M21.8178 31.1378L23.9961 32.3942L23.4788 32.8221L21.3005 31.5657L21.8178 31.1378Z" fill="#481018"/>
<path d="M21.6584 32.3942L23.8406 33.6506L23.3193 34.0784L21.1411 32.8182L21.6584 32.3942Z" fill="#481018"/>
<path d="M18.1965 38.3844L20.3748 39.6408L19.8535 40.0687L17.6752 38.8084L18.1965 38.3844Z" fill="#481018"/>
<path d="M17.1696 39.0341L19.3479 40.2905L18.8306 40.7183L16.6523 39.4619L17.1696 39.0341Z" fill="#481018"/>
<path d="M16.1581 39.4347L18.3364 40.6911L17.8152 41.119L15.6369 39.8587L16.1581 39.4347Z" fill="#481018"/>
<path d="M15.2014 39.563L17.3796 40.8194L16.8584 41.2473L14.6801 39.987L15.2014 39.563Z" fill="#481018"/>
<path d="M14.194 37.4859L11.58 35.9727L12.5992 35.2103L14.9175 35.7899L14.194 37.4859Z" fill="#481018"/>
<path d="M11.9029 34.0435L13.4938 34.4908L14.5168 35.5566L14.3535 36.2334L13.3149 35.1559L11.7356 34.7164L11.9029 34.0435Z" fill="#4F1F26"/>
<path d="M12.3697 32.7249L13.9645 33.1722L14.9836 34.238L14.7191 34.9226L13.6845 33.8451L12.1052 33.4056L12.3697 32.7249Z" fill="#4F1F26"/>
<path d="M11.6344 35.3348L13.0425 35.7199L14.2483 36.848L14.1938 37.4859L12.9724 36.3501L11.5799 35.9728L11.6344 35.3348Z" fill="#4F1F26"/>
<path d="M11.5799 36.5406L13.0463 37.0463L14.1938 38.0577L14.2483 38.6295L13.0852 37.6103L11.6344 37.1163L11.5799 36.5406Z" fill="#4F1F26"/>
<path d="M11.7356 37.6143L13.1554 38.1122L14.3535 39.1274L14.5168 39.6136L13.3071 38.5867L11.9029 38.1005L11.7356 37.6143Z" fill="#4F1F26"/>
<path d="M12.1052 38.5011L13.525 38.999L14.7191 40.0181L14.9836 40.3915L13.7739 39.3646L12.3697 38.8784L12.1052 38.5011Z" fill="#4F1F26"/>
<path d="M14.2483 36.8479L14.5167 36.634L14.5322 36.4629L14.575 36.2839L14.3533 36.2334L14.5167 35.5565L14.789 35.4048L14.8318 35.2259L14.9018 35.0431L14.7189 34.9225L14.9835 34.2379L15.248 34.1562L15.318 33.9734L15.4152 33.7983L15.2752 33.6116L15.6292 32.9504L15.8781 32.9387L15.9715 32.7637L16.0882 32.6042L15.9987 32.3591L16.4305 31.7523L16.6483 31.8146L16.7611 31.6512L16.8933 31.5112L16.8583 31.2194L17.3446 30.6904L17.5235 30.8227L17.6518 30.6826L17.7919 30.5659L17.8152 30.2431L18.3364 29.8152L18.4687 30.0097L18.6087 29.8969L18.7488 29.8152L18.8305 29.469L19.3595 29.1656L19.4412 29.4146L19.5812 29.3329L19.7212 29.2862L19.8535 28.94L20.3747 28.765L20.398 29.0606L20.5381 29.0139L20.6664 29.0061L20.8454 28.6677L21.3316 28.6366L21.3005 28.9633L21.4288 28.9556L21.5416 28.9867L21.7595 28.6716L22.1912 28.7844L22.1018 29.1306L22.2185 29.1578L22.3118 29.224L22.5608 28.9517L22.9147 29.2006L22.7747 29.5468L22.8719 29.6129L22.942 29.7141L23.2065 29.4923L23.471 29.8658L23.2882 30.2003L23.3582 30.3014L23.401 30.4298L23.6732 30.2703L23.8405 30.7565L23.6149 31.0638L23.6616 31.1922L23.6732 31.3439L23.9416 31.2505L23.9961 31.8262L23.7471 32.0946L23.7627 32.2463L23.7471 32.4175L23.9961 32.3941L23.9416 33.0359L23.6732 33.2499L23.6616 33.421L23.6149 33.6L23.8405 33.6505L23.6732 34.3235L23.401 34.4791L23.3582 34.658L23.2882 34.8408L23.471 34.9614L23.2065 35.6421L22.942 35.7277L22.8719 35.9105L22.7747 36.0855L22.9147 36.2723L22.5608 36.9296L22.3118 36.9413L22.2185 37.1163L22.1018 37.2797L22.1912 37.5248L21.7595 38.1316L21.5416 38.0693L21.4288 38.2327L21.3005 38.3727L21.3316 38.6645L20.8454 39.1935L20.6664 39.0612L20.5381 39.2013L20.398 39.3141L20.3747 39.6408L19.8535 40.0687L19.7212 39.8703L19.5812 39.987L19.4412 40.0687L19.3595 40.411L18.8305 40.7183L18.7488 40.4654L18.6087 40.5471L18.4687 40.5938L18.3364 40.9439L17.8152 41.1189L17.7919 40.8194L17.6518 40.8661L17.5235 40.8739L17.3446 41.2123L16.8583 41.2473L16.8933 40.9167L16.7611 40.9244L16.6483 40.8972L16.4305 41.2084L15.9987 41.0995L16.0882 40.7533L15.9715 40.7222L15.8781 40.656L15.6292 40.9322L15.2752 40.6833L15.4152 40.3332L15.318 40.2671L15.248 40.1698L14.9835 40.3915L14.7189 40.0181L14.9018 39.6797L14.8318 39.5825L14.789 39.4502L14.5167 39.6136L14.3533 39.1274L14.575 38.8201L14.5322 38.6917L14.5167 38.5361L14.2483 38.6295L14.1938 38.0577L14.4428 37.7893L14.4272 37.6376L14.4428 37.4664L14.1938 37.4859L14.2483 36.8479Z" fill="#67383F"/>
<path d="M14.9252 37.3497C14.9252 39.9909 16.7923 41.0567 19.095 39.7264C21.3978 38.3961 23.2649 35.1792 23.2649 32.538C23.2649 29.8969 21.3978 28.8311 19.095 30.1614C16.7923 31.4917 14.9252 34.7085 14.9252 37.3497Z" fill="#5C2930"/>
<path d="M15.2286 37.2369C15.2286 39.6952 16.9635 40.6833 19.1067 39.4463C21.2461 38.2093 22.9849 35.2142 22.9849 32.7598C22.9849 30.3053 21.25 29.3134 19.1067 30.5503C16.9674 31.7873 15.2286 34.7824 15.2286 37.2369Z" fill="#67383F"/>
<path d="M15.7614 36.9258C15.7614 39.0457 17.259 39.8976 19.1028 38.8318C20.9504 37.766 22.4441 35.1831 22.4441 33.0671C22.4441 30.9511 20.9465 30.0953 19.1028 31.1611C17.2551 32.2269 15.7614 34.8097 15.7614 36.9258Z" fill="#5C2930"/>
<path d="M16.1933 36.6146C16.1933 38.4544 17.4925 39.1935 19.095 38.2677C20.6976 37.3419 21.9968 35.1014 21.9968 33.2616C21.9968 31.4217 20.6976 30.6826 19.095 31.6084C17.4925 32.5342 16.1933 34.7747 16.1933 36.6146Z" fill="#E89E00"/>
<path d="M16.3332 36.4279V36.4551C16.3332 38.1549 17.5313 38.8356 19.0094 37.9799C20.4836 37.128 21.6855 35.0664 21.6855 33.3666C21.6855 31.6668 20.4875 30.9899 19.0094 31.8418C18.9783 31.8651 18.9394 31.8846 18.9043 31.9079C18.671 32.048 18.4415 32.2269 18.2314 32.4292C18.0564 32.5847 17.8891 32.7637 17.7257 32.9543C17.5429 33.176 17.3718 33.4094 17.2162 33.6583C17.1228 33.8139 17.0334 33.9773 16.94 34.1484C16.8039 34.4246 16.6833 34.7086 16.5938 34.9964C16.5121 35.2298 16.446 35.4632 16.411 35.6966C16.3604 35.9455 16.3332 36.1906 16.3332 36.4279Z" fill="#E68F00"/>
<path d="M18.3794 37.6649C19.8576 36.813 21.0517 34.7475 21.0517 33.0516C21.0517 32.3514 20.8456 31.8263 20.4994 31.5073C21.2112 31.6474 21.678 32.3125 21.678 33.3705C21.678 35.0665 20.4799 37.132 19.0057 37.9838C18.1422 38.4817 17.372 38.4506 16.8858 38.0033C17.3136 38.0888 17.8271 37.9838 18.3794 37.6649Z" fill="#BF5300"/>
<path d="M17.7842 35.1092C17.7842 35.6226 18.146 35.8327 18.5972 35.5721C19.0445 35.3115 19.4102 34.6852 19.4102 34.1718C19.4102 33.6583 19.0484 33.4483 18.5972 33.7089C18.1499 33.9695 17.7842 34.5957 17.7842 35.1092Z" fill="#481018"/>
<path d="M17.7375 35.1053C17.7375 35.6343 18.111 35.8483 18.5739 35.5838C19.0367 35.3154 19.4102 34.6697 19.4102 34.1407C19.4102 33.6117 19.0367 33.3977 18.5739 33.6622C18.111 33.9306 17.7375 34.5763 17.7375 35.1053Z" fill="#BF5300"/>
<path d="M18.0293 35.0976C18.0293 35.4982 18.3132 35.6577 18.6594 35.4554C19.0095 35.2532 19.2896 34.7669 19.2896 34.3663C19.2896 33.9656 19.0056 33.8062 18.6594 34.0084C18.3093 34.2107 18.0293 34.6969 18.0293 35.0976Z" fill="#E89E00"/>
<path d="M19.5774 32.5381C19.5774 32.7599 19.733 32.8454 19.9236 32.7365C20.1142 32.6276 20.2698 32.3553 20.2698 32.1375C20.2698 31.9197 20.1142 31.8302 19.9236 31.9391C19.733 32.048 19.5774 32.3203 19.5774 32.5381Z" fill="#BF5300"/>
<path d="M20.0247 33.5961C20.0247 33.8178 20.1803 33.9034 20.3708 33.7945C20.5614 33.6856 20.717 33.4133 20.717 33.1955C20.717 32.9776 20.5614 32.8882 20.3708 32.9971C20.1803 33.106 20.0247 33.3783 20.0247 33.5961Z" fill="#BF5300"/>
<path d="M19.7795 34.9341C19.7795 35.1559 19.9351 35.2414 20.1257 35.1325C20.3163 35.0236 20.4719 34.7513 20.4719 34.5335C20.4719 34.3157 20.3163 34.2262 20.1257 34.3351C19.9351 34.444 19.7795 34.7163 19.7795 34.9341Z" fill="#BF5300"/>
<path d="M18.9783 36.1945C18.9783 36.4162 19.1339 36.5018 19.3245 36.3929C19.5151 36.284 19.6707 36.0117 19.6707 35.7939C19.6707 35.576 19.5151 35.4866 19.3245 35.5955C19.1339 35.7044 18.9783 35.9767 18.9783 36.1945Z" fill="#BF5300"/>
<path d="M17.967 37.0853C17.967 37.307 18.1226 37.3926 18.3132 37.2836C18.5038 37.1747 18.6594 36.9024 18.6594 36.6846C18.6594 36.4668 18.5038 36.3773 18.3132 36.4862C18.1226 36.5951 17.967 36.8674 17.967 37.0853Z" fill="#BF5300"/>
<path d="M16.8157 37.1747C16.8157 37.3965 16.9713 37.482 17.1619 37.3731C17.3525 37.2642 17.5081 36.9919 17.5081 36.7741C17.5081 36.5563 17.3525 36.4668 17.1619 36.5757C16.9713 36.6846 16.8157 36.9569 16.8157 37.1747Z" fill="#BF5300"/>
<path d="M16.3334 36.4278C16.3917 36.4434 16.4618 36.4317 16.5396 36.3889C16.7302 36.2761 16.8857 36.0077 16.8857 35.786C16.8857 35.5643 16.7302 35.4748 16.5396 35.5915C16.489 35.6187 16.4462 35.6499 16.4112 35.6927C16.3606 35.9416 16.3334 36.1867 16.3334 36.4239V36.4278Z" fill="#BF5300"/>
<path d="M16.59 34.9964C16.6172 34.9925 16.6483 34.9731 16.6755 34.9575C16.87 34.8447 17.0217 34.5763 17.0217 34.3546C17.0217 34.2574 16.9906 34.1796 16.9362 34.1523C16.8 34.4246 16.6794 34.7047 16.59 34.9925V34.9964Z" fill="#BF5300"/>
<path d="M17.2163 33.6622C17.2669 33.6661 17.3252 33.6583 17.3914 33.6194C17.5858 33.5066 17.7375 33.2382 17.7375 33.0165C17.7375 32.9931 17.7375 32.9737 17.7259 32.9581C17.5431 33.1798 17.3719 33.4132 17.2163 33.6622Z" fill="#BF5300"/>
<path d="M18.2314 32.4292C18.2431 32.6237 18.3948 32.7054 18.5737 32.5965C18.7682 32.4875 18.9199 32.2153 18.9199 32.0013C18.9199 31.9702 18.916 31.9352 18.9044 31.908C18.671 32.048 18.4415 32.2269 18.2314 32.4292Z" fill="#BF5300"/>
<path d="M23.6033 28.4383C23.4322 28.0026 22.4442 27.423 21.6195 27.0146C21.285 26.7073 20.8999 26.4039 20.721 26.3922C19.4218 26.3261 17.368 27.9559 17.2319 28.0687C17.228 28.0687 17.2241 28.0726 17.2241 28.0726L15.8121 27.2597L15.8471 26.8046C15.8471 26.8046 18.0215 25.4081 19.2818 25.2564C19.6746 25.2098 20.1453 25.3653 20.6121 25.6104C21.6351 26.1472 22.7359 26.789 22.8215 26.9213C22.8565 26.9835 23.6733 27.8237 23.8406 28.555C24.179 30.0175 23.8873 29.1618 23.5994 28.4422L23.6033 28.4383Z" fill="#4DCCDB"/>
<path d="M24.6963 31.484L24.2529 31.7835C24.2529 31.7835 23.8911 29.1579 23.6033 28.4383C23.4321 28.0026 22.4441 27.4231 21.6195 27.0146C21.0788 26.7501 20.612 26.5595 20.4836 26.5323C20.1725 26.4662 17.4029 27.9793 17.2318 28.0688C17.2279 28.0688 17.224 28.0727 17.224 28.0727L17.259 27.6175C17.259 27.6175 19.4334 26.2211 20.6937 26.0694C21.3161 25.9916 22.1368 26.4312 22.8214 26.9174C23.5216 27.4114 24.0739 27.956 24.1323 28.0493C24.2412 28.2282 24.6963 31.484 24.6963 31.484Z" fill="#007881"/>
<path d="M29.3758 22.3897L31.5269 23.6305L34.3625 18.3871L37.2877 14.5829L40.6951 13.0542L41.9321 13.3498L44.1104 13.6727L41.9593 12.4279L40.9518 11.9222L38.7113 11.4049L34.9538 13.1825L31.8497 17.0684L29.3758 22.3897Z" fill="#64D6E5"/>
<path d="M40.9518 11.9222L41.9593 12.4279L44.1104 13.6727L43.1068 13.167L40.8624 12.6457L38.7113 11.4049L40.9518 11.9222Z" fill="#3FBEE0"/>
<path d="M31.5269 23.6305L32.2309 23.2999L34.3198 18.6555L37.381 14.8668L40.7574 13.3342L42.78 13.8438L43.6125 14.4389L44.1104 13.6727L43.1068 13.167L40.8624 12.6458L37.1087 14.4234L34.0047 18.3132L31.5269 23.6305Z" fill="#007881"/>
<path d="M36.0935 3.83144L29.5198 0.0350081L29.2202 0L20.1143 4.85057L19.4608 5.74522L19.6397 6.66321L26.2173 10.4596L27.6566 8.65867L36.0935 3.83144Z" fill="#DBDBDB"/>
<path d="M19.4607 5.74524L26.0384 9.54167L26.2173 10.4597L19.6397 6.66323L19.4607 5.74524Z" fill="#96D0D7"/>
<path d="M25.1748 9.86065L24.9414 9.16437L20.8377 6.81494L20.5032 7.16502L25.1748 9.86065Z" fill="#332D28"/>
<path d="M24.3463 8.94263L24.8325 9.2188V9.45608L24.2685 8.98541L24.3463 8.94263Z" fill="#E06E36"/>
<path d="M24.2684 8.98535L24.7546 9.26542V9.50269L24.2684 9.21874V8.98535Z" fill="#FF8D36"/>
<path d="M24.7547 9.26543L24.8325 9.21875V9.45603L24.7547 9.5027V9.26543Z" fill="#DB5716"/>
<path d="M22.6969 8.00134L23.1831 8.27752V8.51479L22.6191 8.04413L22.6969 8.00134Z" fill="#E06E36"/>
<path d="M22.6192 8.04407L23.1016 8.32413V8.55752L22.6192 8.27745V8.04407Z" fill="#FF8D36"/>
<path d="M23.1014 8.32414L23.1831 8.27747V8.51474L23.1014 8.55753V8.32414Z" fill="#DB5716"/>
<path d="M21.0477 7.05994L21.53 7.33611V7.57339L20.966 7.10272L21.0477 7.05994Z" fill="#E06E36"/>
<path d="M20.9659 7.10278L21.4521 7.38285V7.61624L20.9659 7.33617V7.10278Z" fill="#FF8D36"/>
<path d="M21.4522 7.38286L21.53 7.33618V7.57346L21.4522 7.61625V7.38286Z" fill="#DB5716"/>
<path d="M20.1143 4.85059L26.6919 8.64702L26.0384 9.54167L19.4608 5.74524L20.1143 4.85059Z" fill="#E5E5E5"/>
<path d="M36.3657 4.54712L36.0934 3.83139L35.7978 3.79639L26.6918 8.64695L26.0383 9.5416L26.2173 10.4596L27.7304 9.26154L36.3657 4.54712Z" fill="#6EA3AA"/>
<path d="M5.42255 27.5631L7.08349 29.4963L9.04783 30.6127L11.9963 31.3556L12.3892 27.2013L9.1373 26.2989L7.46858 25.3342L5.80764 23.401L5.42255 27.5631Z" fill="#471920"/>
<path d="M9.13721 26.2989L9.04774 30.6127L7.0834 29.4963L7.46849 25.3342L9.13721 26.2989Z" fill="#4F1F26"/>
<path d="M5.84653 22.9847L12.4203 26.7734V26.7773H12.4242L12.9648 25.9098L12.5214 25.6609L6.38721 22.1134L5.84653 22.9847Z" fill="#64D6E5"/>
<path d="M9.55739 19.6629L14.0618 16.7028L20.6394 20.4992L16.135 23.4593L9.55739 19.6629Z" fill="#3FBEE0"/>
<path d="M6.38331 22.1134L9.55737 19.6628L16.135 23.4593L12.9609 25.9098L6.38331 22.1134Z" fill="#4DCCDB"/>
<path d="M27.4113 17.0412L31.27 15.1196L29.8891 17.5974L27.1819 18.8849L27.4113 17.0412Z" fill="#380009"/>
<path d="M34.8564 3.45801L26.3728 7.94293L26.3417 7.98961L26.5712 8.12964L34.907 3.55525L34.8564 3.45801Z" fill="#6EA3AA"/>
<path d="M34.6736 3.35303L26.3728 7.94298L26.5206 8.03633L34.8564 3.45805L34.6736 3.35303Z" fill="#E5E5E5"/>
<path d="M33.5146 2.68787L25.031 7.17279L24.9999 7.21947L25.2294 7.3595L33.5652 2.78511L33.5146 2.68787Z" fill="#6EA3AA"/>
<path d="M33.3316 2.58276L25.0308 7.17272L25.1786 7.26218L33.5144 2.68779L33.3316 2.58276Z" fill="#E5E5E5"/>
<path d="M32.1726 1.91772L23.6889 6.40265L23.6578 6.44933L23.8873 6.58936L32.2231 2.01108L32.1726 1.91772Z" fill="#6EA3AA"/>
<path d="M31.9898 1.81262L23.689 6.40257L23.8368 6.49204L32.1726 1.91765L31.9898 1.81262Z" fill="#E5E5E5"/>
<path d="M30.8305 1.14746L22.3469 5.63239L22.3158 5.67907L22.5453 5.8191L30.8811 1.24082L30.8305 1.14746Z" fill="#6EA3AA"/>
<path d="M30.6477 1.04248L22.3469 5.63243L22.4947 5.7219L30.8306 1.1475L30.6477 1.04248Z" fill="#E5E5E5"/>
<path d="M29.4885 0.377319L21.0049 4.86225L20.9737 4.90892L21.2032 5.04507L29.5391 0.470674L29.4885 0.377319Z" fill="#6EA3AA"/>
<path d="M29.3057 0.272339L21.0049 4.86229L21.1527 4.95176L29.4885 0.377363L29.3057 0.272339Z" fill="#E5E5E5"/>
<path d="M31.8497 17.0684L34.0046 18.3131L31.5268 23.6304L29.3758 22.3896L31.8497 17.0684Z" fill="#3FBEE0"/>
<path d="M34.9537 13.1825L37.1087 14.4234L40.8623 12.6457L38.7113 11.4049L34.9537 13.1825Z" fill="#4DCCDB"/>
<path d="M38.8591 10.9575L40.4111 11.8522V12.6223L38.6063 11.1053L38.8591 10.9575Z" fill="#64D6E5"/>
<path d="M38.6062 11.1053L40.1543 12V12.7663L38.6062 11.8716V11.1053Z" fill="#0097AA"/>
<path d="M40.1544 12L40.4111 11.8522V12.6224L40.1544 12.7663V12Z" fill="#00608C"/>
<path d="M15.8511 26.8046L15.8161 27.2597L17.232 28.0726L17.2397 27.6798L15.8511 26.8046Z" fill="#3FBEE0"/>
<path d="M23.751 18.4727L23.8172 20.3553C23.8172 20.4253 23.9261 20.7521 24.0116 20.7949C24.0311 20.8026 24.0428 20.8143 24.0622 20.8182C24.1789 20.8727 24.2139 20.9427 24.3462 20.9116H24.3539L24.4745 20.861C24.5601 20.8104 24.6418 20.297 24.634 20.2347V18.7411L23.7471 18.4727H23.751Z" fill="#615851"/>
<path d="M22.8059 21.7128C22.8098 21.9384 22.8759 22.0629 22.977 22.1679C22.9887 22.1874 23.0043 22.1991 23.0159 22.2146C23.0743 22.273 23.2415 22.3119 23.2766 22.2535L24.3462 20.9154H24.354L24.4746 20.8649V20.6393L24.0351 19.7524H24.0312L23.895 19.5696L23.7511 19.449L23.7628 20.0791L22.9109 21.2772C22.7709 21.3978 22.802 21.5806 22.802 21.7128H22.8059Z" fill="#615851"/>
<path d="M22.977 22.1641C22.977 22.1641 23.0042 22.1952 23.0159 22.2108C23.0742 22.2691 23.2415 22.308 23.2765 22.2497L24.4745 20.861C24.5601 20.8104 24.6418 20.297 24.634 20.2347V18.9005C24.4512 18.8733 24.2411 18.85 24.0855 18.8422C23.9883 18.8344 23.8599 18.7644 23.7471 18.7061V19.4762C23.7471 19.4762 23.7471 19.484 23.7549 19.5035C23.7627 19.5268 23.7783 19.5657 23.8133 19.6085C23.8522 19.6591 23.9183 19.7057 24.0233 19.7485H24.0272C24.2878 19.8574 24.3306 19.8535 24.3306 19.8847C24.3306 19.9158 24.3112 20.2736 24.3112 20.2736C24.3112 20.2736 24.3189 20.5809 24.1244 20.8299C23.9611 21.0438 23.082 22.1719 22.9653 22.1719L22.977 22.1641Z" fill="#463C34"/>
<path d="M23.3854 10.3663V18.9083C23.3854 19.0328 23.4555 19.1572 23.6149 19.2506C23.6227 19.2545 23.6266 19.2584 23.6383 19.2623C23.79 19.3517 23.9884 19.3984 24.1867 19.4023C24.3423 19.4101 24.5018 19.3945 24.6418 19.3478C24.7157 19.3284 24.7819 19.3012 24.8402 19.2662C25.0153 19.1611 25.0969 19.0289 25.0814 18.8966V10.3624H23.3854V10.3663Z" fill="#69645F"/>
<path d="M24.6379 10.3663V19.3478C24.7118 19.3284 24.778 19.3012 24.8363 19.2662C25.0114 19.1611 25.093 19.0289 25.0775 18.8966V10.3624H24.6379V10.3663Z" fill="#615851"/>
<path d="M23.615 10.3663V19.2506C23.615 19.2506 23.6266 19.2584 23.6383 19.2623C23.79 19.3517 23.9884 19.3984 24.1868 19.4023V10.3663H23.615Z" fill="#737373"/>
<path d="M24.8326 10.7125C24.502 10.9031 23.9652 10.9031 23.6345 10.7125C23.3039 10.5219 23.3 10.2107 23.6345 10.0201C23.9652 9.82955 24.502 9.82955 24.8326 10.0201C25.1632 10.2107 25.1671 10.5219 24.8326 10.7125Z" fill="#878787"/>
<path d="M24.6418 8.73253H23.825V10.2223C23.8211 10.2846 23.86 10.3507 23.9456 10.3974C24.1051 10.4907 24.3618 10.4907 24.5213 10.3974C24.6068 10.3507 24.6457 10.2846 24.638 10.2184V8.72864L24.6418 8.73253Z" fill="#615851"/>
<path d="M24.5213 8.89979C24.3618 8.99315 24.1051 8.98926 23.9456 8.89979C23.7861 8.80644 23.7861 8.65862 23.9456 8.56527C24.1051 8.47191 24.3618 8.4758 24.5213 8.56527C24.6807 8.65862 24.6807 8.80644 24.5213 8.89979Z" fill="#878787"/>
<path d="M24.4357 8.84928C24.3229 8.91541 24.1439 8.91152 24.0311 8.84928C23.9183 8.78315 23.9183 8.67813 24.0311 8.61589C24.1439 8.55365 24.3229 8.55365 24.4357 8.61589C24.5485 8.68202 24.5485 8.78704 24.4357 8.84928Z" fill="#282721"/>
<path d="M6.18861 31.1261L7.77564 32.048L7.95068 33.106L6.35976 32.1841L6.18861 31.1261Z" fill="#362B22"/>
<g style="mix-blend-mode:screen">
<path d="M22.9966 19.3478L20.3749 20.3514L15.816 23.3582L12.712 25.8165L12.2413 26.3572L9.57292 25.6026L7.4452 24.354L6.33272 22.9148L6.62057 22.2418L9.81409 19.8068L14.2446 16.8934L17.6598 14.9446L14.0617 16.7028L9.55736 19.6629L6.38329 22.1135L5.8465 22.9809L7.50355 24.918L9.47178 26.0383L12.4241 26.7812L12.9609 25.9099L16.135 23.4593L20.6394 20.4992L22.9966 19.3478Z" fill="#2E698F"/>
</g>
<path d="M9.79452 28.9789L11.5255 29.3912L11.6033 28.2048L9.8762 27.7925L9.79452 28.9789Z" fill="#F5F5F5"/>
<path d="M5.86982 26.2328L6.98619 27.1547L7.06787 25.9683L5.9515 25.0464L5.86982 26.2328Z" fill="#F5F5F5"/>
<path d="M9.8762 27.7925L10.3897 28.1698L10.623 28.6521L11.436 28.8466L11.5255 29.3912L11.6033 28.2048L9.8762 27.7925Z" fill="#AEAEAE"/>
<path d="M5.9515 25.0464L6.25491 25.5637L6.35215 26.085L6.87338 26.5712L6.98619 27.1547L7.06787 25.9683L5.9515 25.0464Z" fill="#AEAEAE"/>
<path d="M29.4535 11.8133L29.8853 11.8561C30.2353 11.9261 30.5232 12.3656 30.5232 12.8324V15.5552C30.5232 16.0259 30.2392 16.3488 29.8853 16.2749L29.2979 16.1737C28.9478 16.1037 28.8195 15.7225 28.8195 15.2557V12.5329C28.8195 12.0622 29.1034 11.7394 29.4574 11.8133H29.4535Z" fill="#1F140B"/>
<path d="M29.4535 11.8872L29.8853 11.93C30.2353 12 30.5232 12.4396 30.5232 12.9064V15.6292C30.5232 16.0999 30.2392 16.4227 29.8853 16.3488L29.2979 16.2477C28.9478 16.1777 28.8195 15.7965 28.8195 15.3297V12.6069C28.8195 12.1362 29.1034 11.8133 29.4574 11.8872H29.4535Z" fill="#332D28"/>
<path d="M29.3991 15.9871V12.6574C29.3991 12.1284 29.1851 11.6227 28.8117 11.2493L27.3375 9.79842L27.3219 9.61949L27.4581 9.55725L29.0529 11.082C29.4457 11.4555 29.6636 11.9728 29.6636 12.5135V16.0571C29.6636 16.7106 29.3368 17.3213 28.7923 17.6791L26.6918 19.0678L26.5128 19.0017L26.6179 18.741L28.6717 17.3563C29.1268 17.049 29.3991 16.5355 29.3991 15.9871Z" fill="#312821"/>
<g style="mix-blend-mode:multiply">
<path d="M27.182 6.99774L27.2715 6.0603L29.5548 6.10309C29.7337 6.11476 29.9087 6.14977 30.041 6.21589C30.321 6.35982 30.3016 6.58931 29.9982 6.72157C29.8854 6.77213 29.7493 6.79547 29.6092 6.80714L27.182 6.99385V6.99774Z" fill="#96D0D7"/>
</g>
<path d="M28.0532 5.95521L26.3106 5.92798V6.5659C26.3028 6.67093 26.3767 6.77984 26.5401 6.86153C26.8668 7.02879 27.4192 7.04046 27.7732 6.88098C27.9521 6.80318 28.0454 6.69816 28.0532 6.58924V5.95132V5.95521Z" fill="#6EA3AA"/>
<path d="M27.9754 4.36822L26.474 4.35266L26.3106 5.93192C26.3028 6.03694 26.3767 6.14585 26.5401 6.22754C26.8668 6.3948 27.4192 6.40647 27.7732 6.24699C27.9521 6.16919 28.0454 6.06028 28.0532 5.95525L27.9715 4.36822H27.9754Z" fill="#DB6600"/>
<path d="M27.7732 4.11543C27.4931 3.97151 27.0147 3.96373 26.7113 4.09987C26.4078 4.23601 26.3884 4.46162 26.6685 4.60554C26.9485 4.74946 27.427 4.75724 27.7304 4.6211C28.0338 4.48496 28.0532 4.25935 27.7732 4.11543Z" fill="#FFAB1E"/>
<path d="M27.7848 5.65963C27.4814 5.50404 26.968 5.49626 26.6412 5.64018C26.3106 5.78799 26.2912 6.02916 26.5946 6.18864C26.898 6.34423 27.4114 6.35201 27.7382 6.20809C28.0649 6.06417 28.0882 5.81911 27.7848 5.65963Z" fill="#FFA000"/>
<path d="M26.9603 5.06445C26.8825 5.2745 26.8475 5.61291 26.9331 5.81129C27.0148 6.00578 27.3804 5.95132 27.4582 5.74127C27.536 5.53122 27.5126 5.42231 27.431 5.22393C27.3493 5.02944 27.0381 4.8544 26.9603 5.06445Z" fill="#FFA000"/>
<path d="M27.2519 5.24349C27.1858 5.46132 27.1897 5.76083 27.2597 5.92032C27.3297 6.0798 27.4386 6.02923 27.5047 5.81529C27.5709 5.60135 27.567 5.29795 27.497 5.13847C27.4269 4.97899 27.318 5.02955 27.2519 5.24349Z" fill="#FFAB1E"/>
</g>
<defs>
<clipPath id="clip0_160_13222">
<rect width="48" height="43.2856" fill="white" transform="matrix(-1 0 0 1 48 0)"/>
</clipPath>
</defs>
</svg>
