<svg width="16" height="40" viewBox="0 0 16 40" fill="none" xmlns="http://www.w3.org/2000/svg">
<g clip-path="url(#clip0_160_16373)">
<g style="mix-blend-mode:multiply">
<path d="M15.4785 37.341C15.4785 38.8089 13.1286 40 10.225 40C7.32143 40 4.97151 38.8089 4.97151 37.341C4.97151 35.8731 7.32143 34.6757 10.225 34.6757C13.1286 34.6757 15.4785 35.8667 15.4785 37.341Z" fill="#EAEAEA"/>
</g>
<path d="M5.58955 16.1789C5.19039 16.636 4.87492 17.1511 4.59808 17.679C5.11957 17.8722 5.84708 17.9816 6.26555 17.5696C6.4587 17.3829 6.65184 17.1189 6.81279 16.9064C7.14757 16.4493 6.98018 16.3528 6.83211 15.8506L5.58955 16.1789Z" fill="#FFCCBC"/>
<path d="M4.97154 17.1511C5.31919 17.1189 5.78918 17.4022 6.14971 17.7563C6.92228 17.4022 8.45456 14.357 8.89879 13.3526C9.24644 12.5736 8.95029 11.9942 8.32579 11.8654C7.3987 11.6723 7.49528 11.2796 6.81927 11.9298C6.24628 12.4835 6.36217 12.5929 6.01451 13.6938C5.8278 14.2733 4.75264 16.5331 4.86853 17.1382L4.97154 17.1576V17.1511Z" fill="#FF8500"/>
<path d="M6.43296 7.48108C6.63898 6.66988 8.31289 5.76854 9.08546 6.34797C9.43956 6.3866 10.1349 7.44889 9.88379 8.16352C10.1799 10.404 9.03396 12.8569 9.03396 12.8569C9.03396 12.8569 6.65186 13.4492 6.66473 12.1358C6.67117 10.8225 5.74408 10.1336 6.42652 7.48108H6.43296Z" fill="#FF8500"/>
<path d="M13.3346 12.3998C13.2573 13.4492 12.9612 15.8699 13.0063 17.4215C13.1415 18.4065 12.4333 18.8186 11.3388 18.9087C9.95459 19.0246 7.77851 18.149 7.87508 16.7262C7.93302 15.9214 8.03603 13.2045 8.04247 10.6872C8.04247 10.6035 8.04247 10.2044 8.04247 10.1142C8.04247 9.74725 8.11973 9.01974 8.15836 8.68496C8.23561 7.95745 7.69481 7.28789 7.97165 6.83722C8.11329 6.60545 8.82148 6.05177 9.72282 5.92301C10.0834 5.86507 10.4761 5.88438 10.8817 6.01958C12.3174 6.496 13.0835 7.07543 14.0814 8.10553L13.7853 9.15494C13.4956 10.0756 13.4827 10.4748 13.3346 12.3933V12.3998Z" fill="#FEA600"/>
<path d="M7.46957 17.9559H9.65209C9.85167 15.4836 9.98043 13.0049 9.92893 10.6228C9.91605 10.2237 9.90318 9.82452 9.88386 9.42535C9.81948 7.93815 9.31731 8.21499 9.36881 5.83289C9.25293 5.88439 9.63278 5.83289 9.49114 5.89083C9.25937 5.96809 9.00184 6.04534 8.75075 6.13548C8.39022 6.2578 8.05544 6.39944 7.85586 6.6119C7.27643 7.22352 7.19273 7.77076 7.17985 8.00253C7.03178 10.2816 7.57902 14.769 7.48245 16.6554C7.45669 17.0803 7.46313 17.5245 7.46957 17.9687V17.9559Z" fill="#FEA600"/>
<path d="M12.5363 6.79222C12.6587 6.76647 13.4055 7.44247 13.3797 7.43603C13.0643 7.33946 12.3239 7.3974 11.9762 8.09272C11.2873 9.49623 10.959 14.8592 10.8946 16.8099L9.91602 17.3443C9.92889 17.0481 9.80013 10.5907 11.2165 7.82876C11.3839 7.50685 11.8539 6.89523 12.5299 6.79866L12.5363 6.79222Z" fill="#0072D4"/>
<path d="M9.63268 6.22563C9.54255 6.18057 9.4846 6.18057 9.45241 6.187C9.2142 6.21276 8.79573 6.56041 8.46094 7.26217C7.82357 8.56911 7.49523 13.2947 7.39222 15.5158C7.33427 13.8741 6.9158 12.5414 6.98662 10.1207C6.98662 10.0306 6.98662 9.93399 6.99949 9.85029C6.99949 9.78591 6.99949 9.72153 7.01237 9.65715C7.1862 8.45966 7.36646 7.58407 7.67549 6.87588C8.24205 6.09687 8.52532 6.10975 9.39447 5.96167C9.54255 6.08399 9.64556 6.19344 9.63912 6.22563H9.63268Z" fill="#0072D4"/>
<path d="M12.8518 21.3037C11.1586 21.7158 9.42028 21.7995 7.7013 21.587C7.45665 19.559 7.15406 16.4043 7.20557 13.5844V13.5715C7.25063 11.0607 7.37296 8.91035 7.66267 8.25366C9.38809 9.68936 11.1779 9.55416 11.577 9.55416C11.3775 10.5843 12.9419 12.8698 13.3153 12.7217C13.2831 13.0372 13.3153 13.6102 13.2638 13.9643C12.9548 16.121 14.0879 16.2112 13.6308 19.2822C13.663 19.4045 13.0449 20.1062 12.8518 21.3037Z" fill="#0072D4"/>
<path d="M11.4482 3.57954L11.577 6.35437C11.5963 6.82435 9.83226 7.19776 9.83226 7.19776C9.83226 7.19776 9.64556 6.86298 9.62624 6.39944C9.62624 6.36081 9.62624 6.31574 9.62624 6.27711L9.90952 3.65036C9.94815 3.28983 10.2701 3.02587 10.637 3.07093C10.9654 3.10312 11.4289 3.25764 11.4418 3.57954H11.4482Z" fill="#F2B09E"/>
<path d="M11.12 5.44017C10.9204 5.60756 10.9333 6.04535 10.4955 6.40589C9.90318 6.88874 9.4332 6.97244 9.21431 7.06257C8.83446 7.21709 8.38379 7.00463 8.28722 6.78573C8.07476 6.29644 7.97819 5.84577 7.90093 5.31784C7.71423 4.07529 8.03613 2.87136 8.20996 2.30481C8.8924 1.15239 9.73579 1.01075 11.1457 1.41635C12.7553 1.87989 12.7295 4.10748 11.12 5.44661V5.44017Z" fill="#FFCCBC"/>
<path d="M10.5405 3.45082C10.7401 3.82423 10.5663 4.47448 10.7401 4.89295C11.0041 5.09253 11.2616 5.31143 11.2616 5.31143C11.796 5.02815 11.9633 4.63543 12.2144 4.03025C12.4269 3.52807 12.5106 2.76194 12.3239 2.43359L10.5341 3.45082H10.5405Z" fill="#38201C"/>
<path d="M8.12627 3.30917C9.43965 3.90147 11.3968 4.13968 12.3239 2.67823C12.5428 1.32623 10.4569 0.431331 9.02117 1.17815C7.8945 1.75758 7.61122 3.08383 8.12627 3.31561V3.30917Z" fill="#38201C"/>
<path d="M11.165 4.54532C11.6157 3.81138 12.0406 4.31999 12.0084 4.64189C11.9633 5.02818 11.4998 5.48529 11.062 5.51104C11.0041 5.51104 10.9912 5.12475 11.0234 4.98955C11.062 4.80285 11.0942 4.66765 11.165 4.54532Z" fill="#FFCCBC"/>
<path d="M10.695 34.4439C10.8238 35.5577 10.6049 36.0406 10.6049 36.0406L10.5469 36.3174C10.5469 36.3174 9.73575 36.4977 9.27864 36.4526C8.74428 36.4011 8.20991 36.5685 7.27639 36.5814C6.3493 36.5942 5.34495 36.5814 5.21619 36.1243C5.07455 35.635 5.36427 35.0877 6.79997 34.8881C8.23567 34.6886 8.6477 33.7615 8.6477 33.7615L10.695 34.4439Z" fill="black"/>
<path d="M11.7252 19.1791C11.7574 20.7435 11.223 21.1234 10.9075 22.6621C10.6951 23.7244 10.341 25.952 10.6049 27.0014C11.017 28.6302 11.4419 29.6603 10.9848 34.4631C9.76155 35.4997 8.61556 35.0361 7.95888 34.4631C8.62844 30.684 7.58546 28.3727 7.50177 27.7289C7.27644 26.0807 6.70988 19.237 7.37945 17.5567C8.04901 15.8827 9.87743 18.252 11.3067 18.8121L11.7187 19.1791H11.7252Z" fill="#1F4895"/>
<path d="M15.3756 35.2358C15.7619 36.4204 15.4271 39.2274 14.0815 39.5429C13.6631 39.6394 12.5815 39.5944 12.3819 39.1888C12.0471 38.5128 12.8003 37.6372 13.1738 36.9483C13.4055 36.5169 13.309 36.1371 13.2639 35.6671C13.2059 35.0491 13.7532 35.1649 14.2167 35.0941L15.382 35.2358H15.3756Z" fill="black"/>
<path d="M7.20557 15.0458L13.7338 18.3228C13.7338 18.3228 14.2424 24.2072 14.4678 25.8682C14.6802 27.4456 15.2918 28.9328 15.588 30.4972C15.852 31.8814 16.1803 34.3022 15.8777 36.2916C15.5043 36.8066 13.4634 36.7487 12.8389 36.5298C13.0707 35.1263 12.9484 34.1992 12.9419 33.8258C12.8904 32.0295 12.7423 30.7548 11.9955 29.1066C11.1714 27.2911 10.489 25.5657 10.1993 23.5763C10.077 22.7522 9.73575 21.2006 9.47179 19.9259C8.79578 19.3014 7.83651 18.4837 7.39228 17.5566C7.3279 16.5008 7.20557 15.8699 7.21201 15.0458H7.20557Z" fill="#0072D4"/>
<path d="M10.0191 1.21038C8.29367 1.13312 6.86441 1.822 6.81934 2.75553C6.77428 3.68905 8.13916 4.51313 9.85813 4.59039C11.5771 4.66765 13.0128 3.97877 13.0579 3.04524C13.1029 2.11172 11.7381 1.28764 10.0191 1.21038Z" fill="#FF8500"/>
<path d="M7.53386 2.16317C7.48235 2.45932 7.55961 2.71041 7.73344 2.92931C7.75919 2.9615 7.78494 2.99369 7.8107 3.01944C7.83001 3.04519 7.8622 3.06451 7.88795 3.09026C8.0811 3.26409 8.33862 3.40573 8.64121 3.53449C8.6734 3.54736 8.69916 3.56024 8.73135 3.56668C9.09832 3.70832 9.52323 3.81133 9.98034 3.90146C11.3388 4.15255 12.5298 3.73407 12.8324 3.13532C12.8582 3.08382 12.8775 3.02588 12.8904 2.96793C13.0578 2.12454 12.6522 1.18458 11.886 0.59227C11.841 0.553641 11.783 0.508574 11.7251 0.476384C11.5319 0.347622 11.3259 0.238174 11.0941 0.160916C11.0104 0.128726 10.9203 0.102973 10.8302 0.0772209C10.7915 0.0643447 10.74 0.0579065 10.695 0.0450303C9.37516 -0.218932 7.78494 0.605146 7.52742 2.15673L7.53386 2.16317Z" fill="#FEA600"/>
<path d="M11.6993 1.4485C12.3045 1.65452 12.7166 2.22108 12.8904 2.96146C12.8839 3.02584 12.8582 3.07735 12.8324 3.12885C12.6844 2.34984 12.2788 1.74466 11.6671 1.5322C10.6242 1.17167 9.36229 2.06656 8.73136 3.56021C8.69917 3.54733 8.67342 3.54089 8.64123 3.52802C9.28504 1.98931 10.6049 1.06866 11.6993 1.4485Z" fill="#FF7D1F"/>
<path d="M7.81715 3.01296C8.39014 1.37124 9.61982 0.225257 10.8366 0.0836182C10.9268 0.102933 11.0169 0.128685 11.1006 0.167314C9.84515 0.167314 8.49959 1.32617 7.90084 3.05803L7.88797 3.09022C7.88797 3.09022 7.83646 3.04515 7.81071 3.0194L7.81715 3.01296Z" fill="#FF7D1F"/>
<path d="M2.70529 9.68935L3.41349 9.28375L5.6282 8.00256L11.3259 11.2924L9.11122 12.5736L8.39659 12.9857L5.9501 14.3956L0.25881 11.1057L2.69886 9.68935H2.70529Z" fill="#FFDDA8"/>
<path d="M5.63469 8.11194L11.1393 11.2924L5.96304 14.2475L0.46489 11.1057L5.63469 8.11838V8.11194Z" fill="#F9C98A"/>
<path d="M5.96301 14.3891L5.96945 21.7157L8.42237 20.3122L9.137 19.9066L11.3324 18.6511V11.2924L5.96301 14.3891Z" fill="#BC7C46"/>
<path d="M5.96301 14.3891V21.7093L0.265282 18.4451V11.0992L5.96301 14.3891Z" fill="#DDA866"/>
<path d="M8.42233 12.9921V20.3123L9.13696 19.9067V12.5801L8.42233 12.9921Z" fill="#9B7451"/>
<path d="M2.70529 9.68938L4.7011 10.8418L5.40929 11.2538L8.40302 12.9793L8.42877 12.9921L9.13696 12.5801L9.11765 12.5672L6.12393 10.8418L5.40929 10.4298L3.41992 9.27734L2.70529 9.68938Z" fill="#CAAF8F"/>
<path d="M10.4891 18.413C10.4955 18.5031 10.4891 18.5868 10.4762 18.6769C10.4311 18.9345 10.2702 19.1855 10.0126 19.4302C9.87743 19.5654 9.71648 19.7457 9.59415 19.8229C9.76798 20.074 9.22074 20.8981 8.89884 21.0912C8.89884 21.0912 8.8924 21.0848 8.88596 21.0783C8.83446 21.1492 8.76364 21.2135 8.73145 21.2264C8.55118 21.1427 8.38379 21.0397 8.19708 20.9625C8.01682 20.8916 7.79792 20.8208 7.64341 20.6985C7.68203 20.544 7.13479 19.7972 7.48889 19.4431C7.61121 19.3207 8.53187 18.4709 8.89884 18.3035C9.02116 18.2456 9.23362 18.2456 9.37526 18.2391C9.40745 18.2391 9.44608 18.2391 9.48471 18.2391C9.80017 18.2456 10.1865 18.3615 10.4891 18.413Z" fill="#202427"/>
<path d="M15.2403 10.1721C15.1631 9.14203 14.6416 8.49178 14.178 8.16344C13.2896 7.79003 12.2208 8.49822 12.0792 9.97255C11.9698 11.1057 12.253 13.153 11.8989 14.2668C11.1521 14.9556 8.90522 18.1683 8.90522 18.1683L10.225 19.3593L13.0063 17.4279C13.0063 17.4279 14.3068 16.0694 14.7317 15.3162C15.3626 14.1895 15.324 12.5414 15.2403 10.1721Z" fill="#FF8500"/>
</g>
<defs>
<clipPath id="clip0_160_16373">
<rect width="15.7348" height="40" fill="white" transform="matrix(-1 0 0 1 16 0)"/>
</clipPath>
</defs>
</svg>
