<svg width="32" height="33" viewBox="0 0 32 33" fill="none" xmlns="http://www.w3.org/2000/svg">
<g clip-path="url(#clip0_160_16504)">
<g style="mix-blend-mode:multiply">
<path d="M9.28705 31.5887L30.7097 19.2225C32.6232 18.1192 32.3802 16.187 30.1737 14.9155C27.9672 13.6377 24.6201 13.5006 22.7066 14.6039L1.29016 26.97C-0.623352 28.0733 -0.380268 30.0055 1.8262 31.277C4.03267 32.5548 7.37976 32.6919 9.29328 31.5887H9.28705Z" fill="#EAEAEA"/>
</g>
<path d="M27.157 11.9611C27.4063 11.8177 27.6432 11.7491 27.8551 11.7429C28.4098 11.7242 28.79 12.148 28.79 12.8898C28.79 13.9244 28.0546 15.1835 27.157 15.7008C26.5025 16.0748 25.9416 15.9626 25.6736 15.4764C25.5801 15.2957 25.524 15.0588 25.524 14.7721C25.524 13.7437 26.2595 12.4846 27.157 11.9611Z" fill="#676A68"/>
<path d="M27.7803 11.6743C27.7367 11.7055 27.6931 11.7304 27.6495 11.7616C27.8551 11.6432 28.0421 11.5746 28.2354 11.5559V11.5434C28.2354 11.5434 28.2354 11.4873 28.2229 11.4686C28.0795 11.5247 27.9299 11.5871 27.7866 11.6743H27.7803Z" fill="#4C4C4C"/>
<path d="M25.3619 15.8505C25.3619 16.0126 25.3743 16.1684 25.4055 16.318C25.5364 16.2743 25.6798 16.1995 25.8293 16.131C25.686 15.9004 25.5987 15.5887 25.5987 15.2147C25.5987 15.0527 25.6112 14.8969 25.6424 14.7348C25.6548 14.5727 25.6984 14.3982 25.7608 14.2362C25.8044 14.0741 25.8605 13.912 25.9353 13.7562C25.5676 14.4419 25.3681 15.1836 25.3681 15.8567L25.3619 15.8505Z" fill="#4C4C4C"/>
<path d="M22.7628 15.9378C22.7628 13.5318 24.4519 10.6024 26.54 9.40563C27.5559 8.81973 28.3039 8.65767 28.8088 8.90076C28.9334 8.96309 29.1827 9.10021 29.1827 9.10021L30.4231 9.817L30.1613 10.2845L29.6377 11.2319C29.6377 11.3503 29.6377 11.4812 29.6253 11.5996V11.6121C29.4383 13.7687 27.9922 16.2494 26.1847 17.4773C26.1411 17.5085 26.0974 17.5334 26.0413 17.5646L25.3245 18.8174L25.1625 19.1103L23.866 18.3686C23.866 18.3686 23.6416 18.219 23.5294 18.1567C23.0246 17.8762 22.7753 17.147 22.7753 15.9502L22.7628 15.9378ZM25.8855 16.2307C25.8855 16.2307 25.8855 16.2432 25.898 16.2432C26.2345 16.3616 26.6709 16.2993 27.1383 16.025C28.2353 15.3955 29.1079 13.8809 29.1079 12.6405C29.1079 12.5657 29.1079 12.4972 29.0955 12.4348C29.0643 12.0733 28.9646 11.7804 28.7901 11.5872C28.4722 11.4874 28.092 11.5311 27.6494 11.7617C27.6494 11.7617 27.637 11.7617 27.637 11.7742C27.6245 11.7742 27.6058 11.7866 27.5933 11.8053C27.4936 11.8489 27.3876 11.9362 27.2879 12.011C26.8204 12.4037 26.3966 12.9148 26.06 13.482C26.0039 13.5692 25.9728 13.6565 25.9291 13.7438C25.711 14.2237 25.5926 14.7348 25.5926 15.2023C25.5926 15.6386 25.711 15.9876 25.8855 16.2245V16.2307Z" fill="url(#paint0_linear_160_16504)"/>
<path d="M27.7803 10.1037C28.3662 9.76709 28.9022 9.60504 29.4009 9.59257C30.6849 9.54894 31.5762 10.54 31.5762 12.2603C31.5762 14.6662 29.8683 17.5957 27.7865 18.7924C26.2719 19.665 24.9568 19.4032 24.3459 18.2688C24.1278 17.845 23.9969 17.2903 23.9969 16.6358C23.9969 14.2424 25.7047 11.3129 27.7865 10.1037H27.7803ZM25.5925 15.2085C25.5925 15.6448 25.711 15.9938 25.8855 16.2307C25.8855 16.2307 25.8855 16.2431 25.8979 16.2431C26.2345 16.3616 26.6708 16.2992 27.1383 16.025C28.2353 15.3955 29.1079 13.8808 29.1079 12.6405C29.1079 12.1855 28.9895 11.824 28.79 11.5933C28.4722 11.4936 28.0919 11.5373 27.6494 11.7679C27.531 11.8427 27.4001 11.9299 27.2817 12.0172C26.8142 12.4099 26.3904 12.921 26.0538 13.4882C25.9977 13.5754 25.9665 13.6627 25.9229 13.75C25.7047 14.2299 25.5863 14.741 25.5863 15.2085H25.5925Z" fill="url(#paint1_linear_160_16504)"/>
<path d="M27.911 10.6273C28.5094 10.2907 29.0641 10.1349 29.5441 10.1598C29.7622 10.1598 29.9679 10.2034 30.1549 10.2782C30.9278 10.5712 31.4077 11.3815 31.4077 12.6218C31.4077 14.8221 29.8308 17.5272 27.9048 18.6429C26.8826 19.2412 25.9476 19.2537 25.3057 18.8049C25.0875 18.6553 24.8943 18.4372 24.7509 18.1816C24.5203 17.7889 24.4019 17.2591 24.4019 16.6483C24.4019 14.4294 25.9726 11.7305 27.9048 10.6273H27.911ZM25.8978 16.2432C26.2281 16.3616 26.6707 16.3055 27.1381 16.025C28.2289 15.3955 29.1078 13.8809 29.1078 12.6405C29.1078 12.5657 29.1078 12.4909 29.0953 12.4348C29.0704 12.0733 28.9644 11.7804 28.7899 11.5872C28.472 11.4874 28.0918 11.5311 27.6555 11.7617C27.6555 11.7617 27.643 11.7617 27.643 11.7741C27.6305 11.7741 27.6118 11.7866 27.5994 11.8053C27.4934 11.8614 27.3937 11.9362 27.294 12.011C26.8265 12.4037 26.4027 12.9148 26.0661 13.482C26.01 13.5692 25.9788 13.6565 25.9352 13.7438C25.717 14.2237 25.5986 14.7348 25.5986 15.2023C25.5986 15.6448 25.717 15.9876 25.8915 16.2245C25.8915 16.2245 25.8915 16.2369 25.904 16.2369L25.8978 16.2432Z" fill="url(#paint2_linear_160_16504)"/>
<path d="M27.8612 11.4624C28.3037 11.2131 28.7151 11.0947 29.0766 11.1134C29.2387 11.1134 29.3883 11.1445 29.5316 11.2006C30.105 11.4188 30.4666 12.0234 30.4666 12.9459C30.4666 14.5851 29.2948 16.5921 27.8612 17.4273C27.1008 17.8699 26.4089 17.8824 25.929 17.5458C25.7669 17.4398 25.6235 17.2778 25.5176 17.0783C25.3431 16.7854 25.2558 16.3927 25.2558 15.9377C25.2558 14.2859 26.4276 12.2789 27.8612 11.4562V11.4624ZM25.8853 16.2306C25.8853 16.2306 25.8853 16.2431 25.8978 16.2431C26.2281 16.3615 26.6707 16.3054 27.1382 16.0249C28.2289 15.3954 29.1078 13.8808 29.1078 12.6404C29.1078 12.5656 29.1078 12.4908 29.0953 12.4348C29.0704 12.0732 28.9644 11.7803 28.7899 11.5871C28.472 11.4873 28.0918 11.531 27.6555 11.7616C27.6555 11.7616 27.643 11.7616 27.643 11.7741C27.6306 11.7741 27.6119 11.7865 27.5994 11.8052C27.4934 11.8613 27.3937 11.9361 27.294 12.0109C26.8265 12.4036 26.4027 12.9147 26.0661 13.4819C26.01 13.5691 25.9788 13.6564 25.9352 13.7437C25.717 14.2236 25.5986 14.7347 25.5986 15.2022C25.5986 15.6447 25.717 15.9875 25.8916 16.2244L25.8853 16.2306Z" fill="#2C2C2C"/>
<path d="M25.362 15.8504C25.362 16.0125 25.3744 16.1683 25.4056 16.3179C25.4928 16.9038 25.7858 17.2965 26.1785 17.471C26.6023 17.6455 27.1695 17.5894 27.7803 17.2404C29.1204 16.4675 30.1987 14.5976 30.1987 13.0705C30.1987 12.3849 29.9806 11.8738 29.6128 11.612V11.5995C29.2638 11.3377 28.7838 11.2817 28.2104 11.4811C28.0671 11.5372 27.9175 11.5995 27.7741 11.6868C27.7305 11.718 27.6868 11.7429 27.6432 11.7741C27.8489 11.6556 28.0359 11.5871 28.2291 11.5684V11.5559C28.4348 11.5247 28.6093 11.5434 28.7838 11.5995C28.9895 11.8302 29.1017 12.1979 29.1017 12.6467C29.1017 13.887 28.2291 15.4016 27.1321 16.0312C26.6646 16.3054 26.2283 16.3677 25.8918 16.2493C25.8793 16.2493 25.8793 16.2369 25.8793 16.2369C25.8481 16.2057 25.8357 16.1808 25.8232 16.1371C25.6798 15.9065 25.5926 15.5949 25.5926 15.2209C25.5926 15.0588 25.605 14.903 25.6362 14.7409C25.6487 14.5789 25.6923 14.4044 25.7546 14.2423C25.7983 14.0803 25.8544 13.9182 25.9292 13.7624C25.5614 14.448 25.362 15.1897 25.362 15.8629V15.8504Z" fill="#9FA1A0"/>
<path d="M27.4874 17.1407C28.8275 16.3678 29.9058 14.4979 29.9058 12.9709C29.9058 12.2852 29.6876 11.7741 29.3199 11.5124V11.4999C29.2576 11.45 29.189 11.4126 29.1142 11.3815C29.3012 11.4189 29.4695 11.4874 29.6128 11.5934V11.6059C29.9806 11.8676 30.1987 12.3787 30.1987 13.0644C30.1987 14.5977 29.1204 16.4613 27.7803 17.2342C27.1695 17.5833 26.5961 17.6394 26.1785 17.4648C26.1598 17.4586 26.1473 17.4461 26.1286 17.4399C26.5151 17.5147 26.9888 17.4212 27.4874 17.1407Z" fill="#686B6A"/>
<path d="M25.8979 16.2432C26.247 16.667 26.8578 16.7231 27.5621 16.3304C28.6404 15.7009 29.5317 14.1738 29.5317 12.9335C29.5317 12.2042 29.2388 11.7367 28.79 11.5934C28.9957 11.824 29.1079 12.1917 29.1079 12.6405C29.1079 13.8809 28.2353 15.3955 27.1383 16.025C26.6708 16.2993 26.2345 16.3616 25.8979 16.2432Z" fill="#CCCECD"/>
<path d="M27.2878 12.0109C27.4062 11.9237 27.5371 11.8364 27.6555 11.7616C27.6244 11.7741 27.5994 11.7928 27.5683 11.8052C27.4685 11.8613 27.3813 11.9237 27.294 12.0109H27.2878Z" fill="#0C100F"/>
<path d="M26.0599 13.4882C26.3965 12.921 26.8204 12.4099 27.2878 12.0172C26.7892 12.3663 26.3529 12.8898 26.0599 13.4882Z" fill="#0C100F"/>
<path d="M27.4124 12.1107C27.6617 11.9674 27.8985 11.8988 28.1105 11.8926C28.6652 11.8739 29.0454 12.2977 29.0454 13.0394C29.0454 14.0741 28.3099 15.3332 27.4124 15.8505C26.7579 16.2245 26.1969 16.1123 25.9289 15.6261C25.8354 15.4453 25.7793 15.2085 25.7793 14.9218C25.7793 13.8933 26.5148 12.6343 27.4124 12.1107Z" fill="#9FA1A0"/>
<path d="M27.7179 12.8961C27.8799 12.8026 28.0295 12.759 28.1604 12.7527C28.5157 12.7403 28.7588 13.0145 28.7588 13.4882C28.7588 14.1489 28.2913 14.9592 27.7179 15.2833C27.3003 15.5264 26.9388 15.4516 26.7705 15.14C26.7081 15.0215 26.677 14.8719 26.677 14.6912C26.677 14.0305 27.1445 13.2264 27.7179 12.8961Z" fill="#B9BAB9"/>
<path d="M27.7179 13.6751C27.774 13.6439 27.8239 13.6252 27.8738 13.6252C27.9984 13.6252 28.0857 13.7187 28.0857 13.8808C28.0857 14.1114 27.9236 14.3919 27.7242 14.5103C27.5808 14.5976 27.4499 14.5664 27.3938 14.4605C27.3751 14.4168 27.3627 14.367 27.3627 14.3046C27.3627 14.074 27.5247 13.7935 27.7304 13.6751H27.7179Z" fill="#959795"/>
<path d="M27.4685 12.3849C28.6777 10.2844 28.7774 9.3744 30.4666 8.7885C32.1557 8.2026 31.7568 4.22598 29.4818 2.97938C27.2067 1.73279 24.7634 7.7289 24.7634 7.7289L27.4623 12.3911L27.4685 12.3849Z" fill="#313942"/>
<path d="M8.88198 19.6463C9.44295 19.7959 9.76083 19.7024 10.54 19.4718C11.3191 19.2412 19.9891 14.0117 19.9891 14.0117L23.2988 15.9252L23.8286 18.2065C23.8286 18.2065 16.8415 22.4262 16.0623 22.6568C15.2832 22.8874 14.9653 22.9809 14.4044 22.8314L11.0947 20.9178L8.88822 19.6401L8.88198 19.6463Z" fill="#9BA1A6"/>
<path d="M14.903 22.0896C15.1586 22.0896 15.4515 22.0023 15.9377 21.859C16.48 21.6844 20.7994 19.1227 24.6389 16.829L19.9954 14.1488C17.9073 15.4016 11.4313 19.291 10.6709 19.5216C10.5587 19.5528 10.4527 19.5839 10.3592 19.6151L14.5727 22.0522C14.6974 22.0834 14.8033 22.0958 14.9093 22.0958L14.903 22.0896Z" fill="#535C5E"/>
<path d="M15.626 16.2992C15.4141 17.8637 10.6084 19.7585 10.6084 19.7585C10.6084 19.7585 9.53638 19.6525 10.4464 19.0043C11.3564 18.3561 15.6197 16.2992 15.6197 16.2992H15.626Z" fill="#535C5E"/>
<path d="M16.6108 17.3339C16.6108 17.3339 14.1799 9.41803 16.9536 6.58203C19.4842 3.99535 23.118 3.24117 24.0467 3.55281C26.2469 4.29454 27.774 5.43517 28.0171 9.09391C24.7635 10.97 16.6108 17.3339 16.6108 17.3339Z" fill="#AFB4B8"/>
<path d="M15.3331 8.9132C15.3331 8.9132 16.4301 10.9451 16.6171 12.4348C16.8041 13.9245 16.6171 17.3339 16.6171 17.3339L19.9268 19.2474L26.7893 9.59259C26.7893 9.59259 29.4071 5.00513 27.2692 3.22251C25.5988 1.82633 22.4947 3.30354 22.4947 3.30354L14.9466 8.02188L15.3331 8.91943V8.9132Z" fill="#AFB4B8"/>
<path d="M23.7412 1.85749C26.5959 0.286786 29.4382 2.54935 30.4666 3.75231C31.495 4.95527 29.4382 7.37366 28.3287 8.33977C27.2192 9.30588 22.3014 15.4266 21.0237 15.2521C19.7459 15.0776 14.0241 12.921 14.4354 10.1598C14.8406 7.39859 23.7412 1.85126 23.7412 1.85126V1.85749Z" fill="#AFB4B8"/>
<path d="M22.3887 1.99464L15.0962 6.72545C15.0962 6.72545 14.3607 8.50808 14.5726 8.67637C14.7845 8.84466 16.8476 10.1598 16.8476 10.1598L23.1304 4.87427C23.1304 4.87427 24.6762 3.09164 24.7635 2.83609C24.8507 2.58054 23.9283 1.30901 23.8971 1.29655C23.8722 1.28408 22.3887 1.99464 22.3887 1.99464Z" fill="#484848"/>
<path d="M14.7222 22.9187L13.5441 22.233C13.7498 22.526 13.9555 22.7441 14.2298 22.8439C14.3731 22.9 14.5352 22.9187 14.7222 22.9062V22.9187Z" fill="#AFB4B8"/>
<path d="M7.69146 16.6919C7.85351 17.1843 8.24619 17.6829 8.62017 18.113C8.88195 18.4184 9.1375 18.6864 9.2871 18.8984C9.34942 18.9856 9.40552 19.0667 9.46162 19.1477C10.222 20.2572 10.4901 21.0737 11.4063 20.9989L11.5434 21.0799L11.7055 21.1734L12.9957 21.9214L13.5317 22.233C13.27 21.859 12.9957 21.3666 12.5968 20.8119C12.4784 20.6561 12.3101 20.4628 12.1231 20.2447C12.1106 20.226 12.0919 20.2073 12.0732 20.1886C11.8239 19.9081 11.5497 19.5902 11.3315 19.2599C11.3253 19.2474 11.3128 19.2287 11.3003 19.2162C11.1694 19.0168 11.0635 18.8111 10.9949 18.6054C10.7643 17.9073 11.1507 16.3179 11.5746 14.5041C12.2041 11.7679 12.9271 8.50803 11.7553 6.94356C11.6494 6.8002 11.506 6.66307 11.3377 6.53218C10.5088 5.87149 9.14374 5.43518 9.14374 5.43518C9.14374 5.76553 9.11257 6.13327 9.07517 6.53841C8.7199 9.83565 7.18036 15.1337 7.69146 16.6981V16.6919Z" fill="#AFB4B8"/>
<path d="M7.80991 19.0355L8.04053 18.8174C8.04053 18.8174 5.51618 16.1622 5.59098 14.4793C5.64707 13.2451 6.40126 10.6771 6.85626 9.14384C6.94976 8.82596 7.03079 8.55794 7.08688 8.33979C7.18038 8.00321 7.26764 7.72273 7.34867 7.46094C7.57929 6.72545 7.39853 7.57937 7.57929 6.37018L7.26141 6.32031C7.08065 7.50457 7.26141 6.63819 7.04325 7.36122C6.96222 7.623 6.87496 7.90972 6.78147 8.2463C6.71914 8.45822 6.64434 8.73247 6.55085 9.04411C6.09584 10.5899 5.33542 13.1828 5.27309 14.4543C5.19206 16.2743 7.70395 18.9171 7.80991 19.0293V19.0355Z" fill="#9DA2B0"/>
<path d="M9.19982 19.7274C8.21501 19.8084 7.84104 18.9483 6.94349 17.7142C6.56328 17.1968 5.75923 16.2494 5.48498 15.4142C4.91155 13.6565 7.62288 7.61677 7.64158 4.56262C7.64158 4.56262 9.59873 5.18592 10.2532 6.071C10.2283 9.12515 8.22125 15.5763 8.79468 17.3277C9.06893 18.1629 10.0163 19.0168 10.3903 19.5342C11.2879 20.7683 11.5247 21.7157 12.5095 21.6347L9.19982 19.7212V19.7274Z" fill="#AFB4B8"/>
<path d="M6.17061 16.7418L7.78495 18.9545L8.10906 19.4033C8.10906 19.4033 10.0475 21.7344 12.7027 22.7192C13.0954 22.8688 13.5006 22.981 13.9244 23.0558C13.9244 23.0558 13.9493 23.0558 13.9556 23.062C14.1924 23.0994 14.4293 23.1306 14.6724 23.1431C14.5477 23.0932 14.3919 22.981 14.2298 22.8501C13.9119 22.6008 13.6003 22.2892 13.5442 22.2393L12.148 20.2821C12.148 20.2821 12.148 20.2821 12.148 20.2759L12.0857 20.1949L11.425 19.2724V19.2662L11.319 19.2225L10.97 19.0792C10.97 19.0792 10.9326 19.0667 10.9264 19.0605H10.9139L10.6957 18.967L8.63886 18.1255L8.5142 18.0757L6.18308 16.7543L6.17061 16.7418Z" fill="#9BA1A6"/>
<path d="M6.19558 24.0656C6.4449 23.9222 6.68175 23.8536 6.89367 23.8474C7.4484 23.8287 7.82861 24.2525 7.82861 24.9943C7.82861 26.0289 7.09312 27.288 6.19558 27.8053C5.54112 28.1793 4.98015 28.0671 4.71213 27.5809C4.61864 27.4002 4.56254 27.1633 4.56254 26.8766C4.56254 25.8482 5.29803 24.5891 6.19558 24.0656Z" fill="#676A68"/>
<path d="M6.81892 23.7788C6.77529 23.81 6.73166 23.8349 6.68803 23.8661C6.89371 23.7476 7.0807 23.6791 7.27393 23.6604V23.6479C7.27393 23.6479 7.27393 23.5918 7.26146 23.5731C7.1181 23.6292 6.96851 23.6915 6.82515 23.7788H6.81892Z" fill="#4C4C4C"/>
<path d="M4.40045 27.9486C4.40045 28.1107 4.41291 28.2665 4.44408 28.4161C4.57497 28.3725 4.71833 28.2977 4.86792 28.2291C4.72456 27.9985 4.6373 27.6869 4.6373 27.3129C4.6373 27.1508 4.64976 26.995 4.68093 26.8329C4.69339 26.6709 4.73703 26.4964 4.79935 26.3343C4.84299 26.1723 4.89908 26.0102 4.97388 25.8544C4.60613 26.54 4.40668 27.2817 4.40668 27.9549L4.40045 27.9486Z" fill="#4C4C4C"/>
<path d="M1.80137 28.0359C1.80137 25.63 3.4905 22.7005 5.57854 21.5038C6.59451 20.9179 7.34246 20.7558 7.84733 20.9989C7.97199 21.0612 8.22131 21.1984 8.22131 21.1984L9.46167 21.9151L9.19988 22.3826L8.67632 23.33C8.67632 23.4485 8.67632 23.5793 8.66385 23.6978V23.7102C8.47686 25.8668 7.03082 28.3476 5.22326 29.5755C5.17963 29.6066 5.136 29.6315 5.0799 29.6627L4.36311 30.9155L4.20106 31.2085L2.9046 30.4668C2.9046 30.4668 2.68021 30.3172 2.56802 30.2548C2.06315 29.9744 1.81383 29.2451 1.81383 28.0484L1.80137 28.0359ZM4.92408 28.3289C4.92408 28.3289 4.92408 28.3413 4.93654 28.3413C5.27312 28.4598 5.70943 28.3974 6.1769 28.1232C7.2739 27.4936 8.14652 25.979 8.14652 24.7387C8.14652 24.6639 8.14652 24.5953 8.13405 24.533C8.10288 24.1652 8.00316 23.8785 7.82864 23.6853C7.51076 23.5856 7.13054 23.6292 6.688 23.8598C6.688 23.8598 6.67554 23.8598 6.67554 23.8723C6.66307 23.8723 6.64437 23.8848 6.63191 23.9035C6.53218 23.9471 6.42622 24.0344 6.32649 24.1091C5.85902 24.5018 5.43518 25.0129 5.0986 25.5801C5.0425 25.6674 5.01134 25.7546 4.96771 25.8419C4.74956 26.3218 4.63113 26.833 4.63113 27.3004C4.63113 27.7367 4.74956 28.0858 4.92408 28.3226V28.3289Z" fill="url(#paint3_linear_160_16504)"/>
<path d="M6.81888 22.2018C7.40477 21.8652 7.94081 21.7032 8.43945 21.6907C9.72343 21.6471 10.6147 22.6381 10.6147 24.3584C10.6147 26.7643 8.90692 29.6938 6.82511 30.8906C5.3105 31.7632 3.99535 31.5014 3.38452 30.367C3.16636 29.9432 3.03547 29.3884 3.03547 28.734C3.03547 26.3405 4.7433 23.411 6.82511 22.2018H6.81888ZM4.63111 27.3066C4.63111 27.7429 4.74954 28.092 4.92406 28.3288C4.92406 28.3288 4.92406 28.3413 4.93652 28.3413C5.2731 28.4597 5.70941 28.3974 6.17688 28.1231C7.27388 27.4936 8.1465 25.979 8.1465 24.7386C8.1465 24.2836 8.02807 23.9221 7.82862 23.6915C7.51074 23.5918 7.13052 23.6354 6.68798 23.866C6.56956 23.9408 6.43866 24.0281 6.32024 24.1153C5.85277 24.508 5.42893 25.0191 5.09235 25.5863C5.03625 25.6736 5.00508 25.7608 4.96145 25.8481C4.7433 26.328 4.62488 26.8391 4.62488 27.3066H4.63111Z" fill="url(#paint4_linear_160_16504)"/>
<path d="M6.9496 22.7316C7.54797 22.3951 8.1027 22.2392 8.58264 22.2642C8.80079 22.2642 9.00648 22.3078 9.19347 22.3826C9.96635 22.6756 10.4463 23.4858 10.4463 24.7262C10.4463 26.9264 8.86935 29.6315 6.94337 30.7472C5.92116 31.3456 4.98622 31.3581 4.34423 30.9093C4.12607 30.7659 3.93285 30.5415 3.78949 30.286C3.55887 29.8933 3.44045 29.3635 3.44045 28.7527C3.44045 26.5338 5.01115 23.8349 6.94337 22.7316H6.9496ZM4.93636 28.3475C5.2667 28.466 5.70924 28.4099 6.17671 28.1294C7.26748 27.4999 8.14633 25.9853 8.14633 24.7449C8.14633 24.6701 8.14633 24.5953 8.13386 24.5392C8.10893 24.1777 8.00297 23.8847 7.82845 23.6915C7.51057 23.5918 7.13036 23.6354 6.69405 23.866C6.69405 23.866 6.68159 23.866 6.68159 23.8785C6.66912 23.8785 6.65042 23.891 6.63795 23.9097C6.53199 23.9658 6.43227 24.0406 6.33254 24.1154C5.86507 24.508 5.44123 25.0191 5.10465 25.5863C5.04855 25.6736 5.01738 25.7609 4.97375 25.8481C4.7556 26.3281 4.63717 26.8392 4.63717 27.3066C4.63717 27.7492 4.7556 28.092 4.93012 28.3288C4.93012 28.3288 4.93012 28.3413 4.94259 28.3413L4.93636 28.3475Z" fill="url(#paint5_linear_160_16504)"/>
<path d="M6.89975 23.5669C7.34229 23.3176 7.75367 23.1992 8.11518 23.2179C8.27723 23.2179 8.42683 23.249 8.57018 23.3051C9.14362 23.5233 9.50513 24.1279 9.50513 25.0503C9.50513 26.6896 8.33333 28.6966 6.89975 29.5318C6.13933 29.9744 5.44747 29.9868 4.96754 29.6503C4.80548 29.5443 4.66212 29.3823 4.55616 29.1828C4.38164 28.8898 4.29437 28.4972 4.29437 28.0422C4.29437 26.3904 5.46617 24.3834 6.89975 23.5607V23.5669ZM4.9239 28.3351C4.9239 28.3351 4.9239 28.3476 4.93637 28.3476C5.26672 28.466 5.70926 28.4099 6.17673 28.1294C7.2675 27.4999 8.14634 25.9853 8.14634 24.7449C8.14634 24.6701 8.14634 24.5953 8.13388 24.5392C8.10894 24.1777 8.00299 23.8848 7.82846 23.6916C7.51058 23.5918 7.13037 23.6355 6.69406 23.8661C6.69406 23.8661 6.6816 23.8661 6.6816 23.8786C6.66913 23.8786 6.65043 23.891 6.63797 23.9097C6.53201 23.9658 6.43228 24.0406 6.33255 24.1154C5.86508 24.5081 5.44124 25.0192 5.10466 25.5864C5.04856 25.6736 5.0174 25.7609 4.97377 25.8482C4.75561 26.3281 4.63719 26.8392 4.63719 27.3067C4.63719 27.7492 4.75561 28.092 4.93014 28.3289L4.9239 28.3351Z" fill="#2C2C2C"/>
<path d="M4.40053 27.9487C4.40053 28.1107 4.413 28.2666 4.44416 28.4161C4.53142 29.002 4.82437 29.3947 5.21705 29.5692C5.64089 29.7438 6.20809 29.6877 6.81892 29.3386C8.159 28.5657 9.2373 26.6959 9.2373 25.1688C9.2373 24.4832 9.01915 23.972 8.65141 23.7103V23.6978C8.30236 23.436 7.82242 23.3799 7.24899 23.5794C7.10563 23.6355 6.95604 23.6978 6.81269 23.7851C6.76905 23.8162 6.72542 23.8412 6.68179 23.8723C6.88748 23.7539 7.07447 23.6853 7.26769 23.6666V23.6542C7.47338 23.623 7.6479 23.6417 7.82242 23.6978C8.02811 23.9284 8.14031 24.2962 8.14031 24.7449C8.14031 25.9853 7.26769 27.4999 6.17069 28.1294C5.70322 28.4037 5.26691 28.466 4.93033 28.3476C4.91787 28.3476 4.91787 28.3351 4.91787 28.3351C4.8867 28.304 4.87423 28.279 4.86177 28.2354C4.71841 28.0048 4.63115 27.6931 4.63115 27.3191C4.63115 27.1571 4.64362 27.0013 4.67478 26.8392C4.68725 26.6772 4.73088 26.5026 4.79321 26.3406C4.83684 26.1785 4.89293 26.0165 4.96773 25.8606C4.59999 26.5463 4.40053 27.288 4.40053 27.9611V27.9487Z" fill="#9FA1A0"/>
<path d="M6.52597 29.2389C7.86606 28.466 8.94435 26.5961 8.94435 25.069C8.94435 24.3834 8.7262 23.8723 8.35846 23.6105V23.598C8.29613 23.5482 8.22757 23.5108 8.15277 23.4796C8.33976 23.517 8.50805 23.5856 8.65141 23.6915V23.704C9.01915 23.9658 9.2373 24.4769 9.2373 25.1625C9.2373 26.6958 8.159 28.5595 6.81892 29.3324C6.20809 29.6814 5.63466 29.7375 5.21705 29.563C5.19835 29.5567 5.18588 29.5443 5.16718 29.538C5.55363 29.6128 6.02733 29.5194 6.52597 29.2389Z" fill="#686B6A"/>
<path d="M4.9365 28.3475C5.28555 28.7714 5.89637 28.8275 6.6007 28.4348C7.679 27.8053 8.57031 26.2782 8.57031 25.0378C8.57031 24.3086 8.27736 23.8411 7.82859 23.6978C8.03428 23.9284 8.14647 24.2961 8.14647 24.7449C8.14647 25.9852 7.27386 27.4999 6.17686 28.1294C5.70938 28.4036 5.27308 28.466 4.9365 28.3475Z" fill="#CCCECD"/>
<path d="M6.32635 24.1154C6.44477 24.0281 6.57567 23.9409 6.69409 23.8661C6.66293 23.8786 6.63799 23.8973 6.60683 23.9097C6.5071 23.9658 6.41984 24.0281 6.33258 24.1154H6.32635Z" fill="#0C100F"/>
<path d="M5.09852 25.5863C5.4351 25.0191 5.85894 24.508 6.32642 24.1154C5.82778 24.4644 5.39147 24.988 5.09852 25.5863Z" fill="#0C100F"/>
<path d="M6.45095 24.2089C6.70027 24.0655 6.93712 23.9969 7.14904 23.9907C7.70377 23.972 8.08398 24.3958 8.08398 25.1376C8.08398 26.1722 7.34849 27.4313 6.45095 27.9486C5.79649 28.3226 5.23552 28.2104 4.96751 27.7242C4.87401 27.5435 4.81791 27.3066 4.81791 27.0199C4.81791 25.9915 5.5534 24.7324 6.45095 24.2089Z" fill="#9FA1A0"/>
<path d="M6.75646 25.0005C6.91852 24.907 7.06811 24.8633 7.199 24.8571C7.55428 24.8446 7.79736 25.1189 7.79736 25.5926C7.79736 26.2533 7.32989 27.0636 6.75646 27.3877C6.33885 27.6308 5.97734 27.556 5.80905 27.2443C5.74672 27.1259 5.71556 26.9763 5.71556 26.7955C5.71556 26.1349 6.18303 25.3308 6.75646 25.0005Z" fill="#B9BAB9"/>
<path d="M6.75652 25.7734C6.81262 25.7422 6.86248 25.7235 6.91235 25.7235C7.03701 25.7235 7.12427 25.817 7.12427 25.9791C7.12427 26.2097 6.96221 26.4902 6.76275 26.6086C6.6194 26.6959 6.48851 26.6647 6.43241 26.5587C6.41371 26.5151 6.40124 26.4652 6.40124 26.4029C6.40124 26.1723 6.5633 25.8918 6.76899 25.7734H6.75652Z" fill="#959795"/>
<path d="M6.8874 26.7457C6.82507 26.6896 6.80014 26.6273 6.8126 26.5774L7.31124 24.5392C7.29877 24.5891 7.9096 21.9339 7.97193 21.9962C8.10283 22.1209 8.57653 22.1894 8.76975 22.152C8.86948 22.1333 8.13399 24.8073 8.15269 24.7512L7.65405 26.7893C7.64159 26.8454 7.57926 26.8953 7.47953 26.914C7.28631 26.9514 7.02452 26.8766 6.89363 26.7519L6.8874 26.7457Z" fill="url(#paint6_linear_160_16504)"/>
<path d="M10.6397 19.9642C9.91041 18.9295 8.23998 18.2626 7.3362 18.1317C7.3362 18.1317 7.32996 18.1317 7.32373 18.1317C7.23647 18.1192 7.15544 18.113 7.07441 18.1067C4.83055 17.9758 1.17804 21.3354 0.760428 24.0654C0.747963 24.2836 1.65174 25.0129 2.53059 25.0876C3.35334 24.7635 4.47527 22.2579 5.67823 21.3853C6.28906 21.2481 6.84379 21.217 7.15544 21.379C8.02182 21.8216 8.3584 22.0896 8.62642 22.2205C8.89444 22.3514 10.0288 21.9961 10.0288 21.9961C10.0288 21.9961 10.0039 21.4414 9.81068 20.7557C10.3716 20.575 10.9513 20.4067 10.6397 19.9642Z" fill="#BEC3C7"/>
<path d="M2.53665 25.0939C3.30954 24.9318 3.92037 24.5267 4.59353 23.76C5.26669 22.9934 8.05905 21.9587 8.92543 22.4012C9.79182 22.8438 10.1284 23.1118 10.3964 23.2427C10.6644 23.3736 11.7988 23.0183 11.7988 23.0183C11.7988 23.0183 11.6181 19.291 8.84441 19.1352C6.60054 19.0043 2.94803 22.3638 2.53042 25.0939H2.53665Z" fill="#AFB4B8"/>
<path d="M6.99342 18.4745C6.688 18.4995 6.56957 18.7239 6.82513 18.8298C7.08691 18.9296 7.61048 18.9046 7.88473 18.9171C8.55166 18.9482 9.15625 19.1789 9.15625 19.1789C9.15625 19.1789 8.47686 18.7052 7.90343 18.5556C7.32999 18.406 6.98718 18.4745 6.98718 18.4745H6.99342Z" fill="#232323"/>
<path d="M8.85083 18.4059L8.75733 19.0479C8.65761 19.0604 8.15897 18.9233 7.80993 18.917C7.46088 18.9108 7.21156 18.9046 7.21156 18.9046L7.36739 17.7452C7.36739 17.7452 8.39582 17.8948 8.85083 18.4059Z" fill="#959795"/>
<path d="M14.7597 23.1493C14.903 23.1493 15.0651 23.1368 15.2459 23.0994C15.9252 22.9685 16.2618 22.8625 17.4461 22.1956C18.5867 21.5536 23.1305 18.836 23.1929 18.7986L22.9685 18.4184C22.9124 18.4558 18.3686 21.1672 17.2342 21.8092C16.106 22.4449 15.8068 22.5384 15.1711 22.6631C14.6163 22.769 14.2423 22.8314 13.9743 22.7067C13.4882 22.127 11.8676 19.3285 11.7492 18.7613C11.6619 18.3312 11.5746 16.7231 11.8053 15.2957C11.8925 14.7472 12.1169 13.1641 12.5719 11.0199C12.9958 9.00044 12.0421 8.05926 12.1169 6.9872L11.5746 6.56335C11.4998 7.61672 12.5594 8.93188 12.1418 10.9264C11.7554 12.7589 11.0885 14.8345 10.9887 15.4453C10.8454 16.3179 10.6272 17.8762 10.7644 18.5369C10.9264 19.3285 13.5754 22.6506 13.7499 22.8501L13.8247 22.9062C14.0616 23.0184 14.3421 23.143 14.7659 23.143L14.7597 23.1493Z" fill="#AFB4B8"/>
<path d="M10.8951 19.2412C10.8951 19.3285 10.8951 19.4469 10.9013 19.5715C10.9262 19.8894 10.9886 20.2946 11.1631 20.5813C11.213 20.6623 11.3314 20.7932 11.4872 20.9553C11.5558 21.0176 11.6306 21.0924 11.7054 21.1672C12.4471 21.8653 13.6625 22.875 13.9118 23.0433C13.9492 23.0745 13.9679 23.0745 13.943 23.0495C13.9243 23.0184 13.8557 22.956 13.7311 22.8376C13.4693 22.5945 13.22 22.2704 12.9894 21.9089C12.6465 21.3729 12.3474 20.762 12.1292 20.2634C12.1292 20.2634 12.1292 20.2634 12.1292 20.2572C12.1292 20.2509 12.123 20.2447 12.1167 20.2322C11.8674 19.6775 11.7241 19.2661 11.7241 19.2661C11.7241 19.2661 11.5994 19.3222 11.4934 19.2786C11.4685 19.2724 11.4436 19.2599 11.4186 19.2474C11.4186 19.2474 11.4186 19.2474 11.4062 19.2474C11.375 19.235 11.3376 19.2225 11.3002 19.21C11.1631 19.1539 11.026 19.0978 10.9512 19.0604C10.9325 19.0542 10.9138 19.048 10.9075 19.0417C10.9013 19.0417 10.8951 19.0417 10.8951 19.0417C10.8951 19.0417 10.8951 19.1165 10.8951 19.235V19.2412Z" fill="#9BA1A6"/>
<path d="M3.01666 16.748C3.78332 18.3811 6.78137 18.7176 7.70385 18.942C7.72878 18.942 7.75371 18.9545 7.78488 18.9607C8.15885 19.0417 8.80708 19.1041 9.46777 19.1539C9.92278 19.1851 10.3903 19.2163 10.7767 19.235C10.8203 19.235 10.8577 19.235 10.8951 19.2412C11.0634 19.2474 11.213 19.2599 11.3377 19.2661C11.3688 19.2661 11.3938 19.2661 11.4187 19.2661H11.4249C11.6181 19.2724 11.7366 19.2786 11.7366 19.2786L11.5807 14.4979L11.4312 9.92916L11.4 8.98175L10.839 8.38962L9.99134 7.49831L9.0751 6.5322L7.43583 4.79944C6.52582 5.98993 5.01744 7.98448 4.33805 9.58635C3.78955 10.8703 3.40311 11.9611 3.14756 12.8898C3.07276 13.1454 3.01666 13.3885 2.96057 13.6128C2.63645 15.0838 2.69878 16.0749 3.01043 16.7418L3.01666 16.748Z" fill="#BEC3C7"/>
<path d="M11.4374 9.92909C11.0011 11.9984 10.0537 16.3179 10.2033 17.1967C10.2656 17.5832 10.4401 18.2314 10.6832 18.9544C10.7144 19.0479 10.7455 19.1352 10.7767 19.2287C10.8141 19.3409 10.8577 19.453 10.9014 19.5715C11.0759 20.0389 11.2753 20.5189 11.4873 20.9552L11.5496 21.0736C11.9111 21.8029 12.31 22.4199 12.7027 22.7129C13.0954 22.8625 13.5005 22.9747 13.9243 23.0495C13.9617 23.0806 13.9804 23.0806 13.9555 23.0557C14.1924 23.0931 14.4292 23.1243 14.6723 23.1367C14.5476 23.0869 14.3918 22.9747 14.2298 22.8438C14.3731 22.8999 14.5352 22.9186 14.7222 22.9061L13.5441 22.2205C13.2824 21.8465 13.0081 21.3541 12.6092 20.7994C12.4908 20.6435 12.3225 20.4503 12.1355 20.2322C11.8862 19.6774 11.7428 19.2661 11.7428 19.2661L11.587 14.4854C12.2165 11.7491 12.9395 8.48928 11.7677 6.9248C11.6618 6.78144 11.5184 6.64432 11.3501 6.51343L10.0038 7.48577L9.46778 7.87221C10.0786 8.06543 10.5274 8.23996 10.8515 8.37708C11.4187 8.61393 11.6057 8.76353 11.6493 8.81339C11.668 8.83209 11.5808 9.26216 11.4436 9.91662L11.4374 9.92909Z" fill="#AFB4B8"/>
<path d="M2.96689 13.6191C3.01675 13.3885 3.07908 13.1454 3.15388 12.8961C3.40943 11.9674 3.79587 10.8766 4.34437 9.59261C4.70589 8.74493 5.29178 7.79128 5.90261 6.9062C6.20179 6.55092 6.39501 6.32654 6.39501 6.32654C6.71913 7.42354 10.7332 8.83219 10.7332 8.83219C10.7332 8.83219 9.14998 14.6912 9.05026 16.3055C6.17063 16.748 4.98014 16.106 3.9891 15.6074C3.55279 15.3893 3.16011 14.7971 2.8734 14.1053C2.89833 13.9494 2.92949 13.7874 2.96689 13.6191Z" fill="#C9CDD0"/>
<path d="M5.58466 9.7982C6.72529 9.05648 7.67893 10.515 7.67893 10.515C7.67893 10.515 7.98435 11.1507 7.62907 12.0358C7.27379 12.9147 6.64426 14.0117 5.57843 13.6938C3.80827 13.164 5.57843 9.7982 5.57843 9.7982H5.58466Z" fill="#DBDCE2"/>
<path d="M6.58813 9.64246C7.23636 9.83568 7.6789 10.5213 7.6789 10.5213C7.6789 10.5213 7.87835 10.9576 7.75369 11.6121C7.5667 11.7991 7.32985 11.9175 7.06183 11.9175C6.48217 11.9175 6.0147 11.3752 6.0147 10.7145C6.0147 10.2471 6.24532 9.84814 6.5819 9.64869L6.58813 9.64246Z" fill="#EDEDED"/>
<path d="M26.7455 10.0101C27.5558 11.3752 29.8059 12.8898 27.7178 14.5103C25.6298 16.1309 24.994 15.7195 21.516 17.5645L22.7128 17.9759L19.6524 18.5929C19.6524 18.5929 21.6719 17.6268 23.8285 14.0117C25.9851 10.3966 26.7455 10.0039 26.7455 10.0039V10.0101Z" fill="#313942"/>
<path d="M30.4231 5.71571C30.8656 7.72895 25.1624 10.5774 24.4706 15.9253C24.2026 18.0071 23.1991 18.7987 23.1991 18.7987L19.6587 18.593L25.5177 10.1598L30.4355 5.70947L30.4231 5.71571Z" fill="#BEC3C7"/>
<path d="M19.6525 18.5929C20.8119 17.7203 23.3736 17.5084 23.8286 17.6393C21.3791 19.023 16.2057 22.9872 14.5664 22.0397L12.9272 21.0923L18.0569 19.0916L19.6525 18.5867V18.5929Z" fill="#535C5E"/>
<path d="M20.4192 9.59253C19.6775 10.4714 18.9856 17.1967 19.6463 18.5992C18.8236 19.7273 14.5477 18.3187 15.1212 16.91C15.7008 15.5014 14.286 11.5684 14.286 11.5684L20.413 9.59253H20.4192Z" fill="#404B4D"/>
<path d="M26.0911 7.67908C23.5729 9.58636 20.6435 11.0823 20.4191 12.3912C20.1947 13.7001 19.6462 18.5992 19.6462 18.5992C19.6462 18.5992 17.2153 17.7204 17.7327 15.034C18.25 12.3476 17.3088 11.0511 20.3318 9.86685C23.3548 8.68258 26.0848 7.67908 26.0848 7.67908H26.0911Z" fill="#404B4D"/>
<path d="M29.0455 5.2669C27.6182 7.17419 20.4503 11.1446 18.9668 11.6183C17.4896 12.092 16.243 13.189 14.7097 11.9549C13.7873 11.2194 13.5816 10.3966 13.6875 9.58634C13.7499 9.05654 13.9555 8.52051 14.1799 8.01564C14.7534 6.75658 17.1157 5.41649 17.1157 5.41649L23.8971 1.29651C24.8321 1.29651 25.5488 1.43987 26.3778 1.73905C28.5033 2.49324 30.0677 3.88942 29.0393 5.2669H29.0455Z" fill="#535C5E"/>
<path d="M14.5725 8.67633C14.7408 9.06277 18.2001 11.1383 18.8296 11.1321C19.3968 10.7831 28.5406 4.40052 28.1541 3.75229C27.7677 3.09783 24.2897 1.19678 23.897 1.2965C23.5355 1.75774 14.5725 8.67633 14.5725 8.67633Z" fill="#535C5E"/>
<path d="M29.0455 5.26691C27.6182 7.17419 20.4503 11.1446 18.9668 11.6183C17.4896 12.092 16.243 13.189 14.7097 11.9549C13.7873 11.2194 13.5816 10.3966 13.6875 9.58635C14.1799 10.2657 15.5262 10.8018 16 10.7768C16.536 10.7457 18.3311 9.92916 19.3533 9.18121C20.3817 8.42702 26.6458 4.44416 26.6458 4.44416C26.6458 4.44416 27.4312 3.61518 27.3502 3.29106C27.2629 2.96072 26.141 1.96968 23.8971 1.29028C24.8321 1.29028 25.5488 1.43364 26.3778 1.73282C28.5033 2.48701 30.0677 3.88319 29.0393 5.26068L29.0455 5.26691Z" fill="#4B5557"/>
<path d="M7.0244 15.3954L8.73847 15.6073C8.91922 15.6323 9.08128 15.5014 9.09998 15.3269C9.12491 15.1461 8.99402 14.984 8.81949 14.9653L7.10543 14.7534C6.92468 14.7285 6.76262 14.8594 6.74392 15.0339C6.71899 15.2147 6.84988 15.3767 7.0244 15.3954Z" fill="#FFB317"/>
<path d="M2.96681 13.619L3.34079 13.993C3.46545 14.1177 3.63997 14.0927 3.72723 13.9307C3.7584 13.8683 3.7771 13.7935 3.7771 13.7188C3.7771 13.6003 3.7397 13.4819 3.65867 13.4071L3.1538 12.8898C3.07901 13.1453 3.02291 13.3884 2.96681 13.6128V13.619Z" fill="#FFB317"/>
<path d="M3.54647 0.130924C3.6649 0.0810608 3.76463 0.0872937 3.83942 0.130924L3.98901 0.236885C3.92045 0.187021 3.81449 0.180788 3.69606 0.236885C3.47791 0.336612 3.29092 0.604629 3.28469 0.835249C3.28469 0.941209 3.31585 1.02847 3.37818 1.0721L3.22859 0.966141C3.16626 0.92251 3.12886 0.841482 3.1351 0.729288C3.14133 0.498669 3.32209 0.230652 3.54647 0.130924Z" fill="url(#paint7_linear_160_16504)"/>
<path d="M3.68996 0.243151C3.84578 0.174589 3.98291 0.205754 4.04524 0.32418C4.0577 0.355345 4.0764 0.380276 4.08887 0.411441C4.03277 0.305481 3.90811 0.274316 3.76475 0.342879C3.5653 0.43014 3.39701 0.679458 3.39077 0.891379C3.39077 1.03474 3.4531 1.122 3.55906 1.1407C3.5279 1.1407 3.49674 1.12823 3.46557 1.122C3.35338 1.1033 3.27858 1.00357 3.27858 0.847748C3.28481 0.617129 3.46557 0.349112 3.68996 0.249384V0.243151Z" fill="url(#paint8_linear_160_16504)"/>
<path d="M3.76467 0.330387C3.87064 0.280524 3.96413 0.286757 4.03269 0.330387L5.70312 1.54581C5.6408 1.49595 5.54107 1.49595 5.43511 1.54581C5.23565 1.63308 5.06736 1.88239 5.06113 2.09431C5.06113 2.19404 5.09229 2.26884 5.14839 2.31247L3.47796 1.09704C3.42186 1.05341 3.38446 0.978615 3.3907 0.878888C3.3907 0.666967 3.56522 0.423882 3.76467 0.330387Z" fill="url(#paint9_linear_160_16504)"/>
<path d="M5.15462 2.31254L4.69962 1.98219C4.64976 1.93856 4.62482 1.87 4.62482 1.78273C4.62482 1.57081 4.79935 1.32773 4.9988 1.23423C5.10476 1.18437 5.19826 1.1906 5.26682 1.23423L5.14216 1.14697C5.14216 1.14697 5.15462 1.14697 5.15462 1.15321L5.70312 1.55211C5.6408 1.50225 5.54107 1.50225 5.43511 1.55211C5.23565 1.63938 5.06736 1.88869 5.06113 2.10062C5.06113 2.20034 5.09229 2.27514 5.14839 2.31877L5.15462 2.31254Z" fill="#C5C7C8"/>
<path d="M5.44128 1.55205C5.48491 1.53335 5.52854 1.52089 5.56594 1.52089C5.62827 1.52089 5.6906 1.51466 5.75293 1.50842C5.70307 1.50842 5.64697 1.52712 5.59711 1.55205C5.33532 1.67048 5.1234 1.98213 5.11717 2.25638C5.11717 2.30001 5.11717 2.33741 5.12963 2.3748C5.11717 2.31247 5.09847 2.25638 5.086 2.19405C5.07977 2.16912 5.07354 2.13795 5.07977 2.10055C5.07977 1.88863 5.25429 1.64555 5.45375 1.55205H5.44128Z" fill="url(#paint10_linear_160_16504)"/>
<path d="M5.59079 1.54578C5.72791 1.48345 5.85257 1.48969 5.9336 1.54578L6.23901 1.77017C6.15799 1.70784 6.03333 1.70161 5.8962 1.77017C5.63442 1.8886 5.4225 2.20024 5.41626 2.47449C5.41626 2.60539 5.45366 2.69888 5.52846 2.75498L5.22304 2.53059C5.14825 2.47449 5.10462 2.381 5.11085 2.25011C5.11708 1.97586 5.33524 1.66421 5.59079 1.54578Z" fill="url(#paint11_linear_160_16504)"/>
<path d="M5.41013 2.47452C5.4039 2.74877 5.60335 2.87342 5.86513 2.755C6.12692 2.63657 6.33884 2.32492 6.34507 2.05067C6.35131 1.77642 6.15185 1.65177 5.89007 1.77019C5.62828 1.88862 5.41636 2.20027 5.41013 2.47452Z" fill="#394344"/>
<path d="M7.86586 4.41916L8.57642 3.67743L6.27646 1.95714C6.22659 1.89481 6.13933 1.86988 6.0209 1.89481C5.79029 1.93844 5.622 2.21892 5.54097 2.44331C5.50357 2.54927 5.51604 2.64276 5.55967 2.69886L7.85339 4.41292L7.86586 4.41916Z" fill="#C5C7C8"/>
<path d="M7.84092 4.15745C7.75989 4.37561 7.88455 4.51897 8.11517 4.48157C8.34579 4.43794 8.51408 4.15745 8.59511 3.93307C8.67614 3.71491 8.55148 3.57156 8.32086 3.60895C8.09024 3.65258 7.92195 3.93307 7.84092 4.15745Z" fill="#C5C7C8"/>
<path d="M12.7028 8.11537C14.4355 6.83762 11.5746 5.32924 10.9825 4.98643C10.3903 4.64362 8.28984 6.01487 8.74484 6.27665C9.19985 6.53843 12.0171 8.61401 12.6965 8.11537H12.7028Z" fill="#AFB4B8"/>
<path d="M13.2326 7.41101C13.4383 6.65682 13.5006 6.501 13.5256 6.0086C13.5505 5.50996 5.82787 2.23142 5.78424 2.46828C5.74061 2.69889 5.73438 4.17611 5.75931 4.3257C5.79048 4.46905 11.905 7.64786 13.2264 7.41724L13.2326 7.41101Z" fill="#AFB4B8"/>
<path d="M5.92755 2.35611C8.09662 1.80138 10.5524 3.28482 11.3876 3.80839C12.2291 4.31949 14.6412 5.82787 12.9272 6.66309C12.2602 6.9872 9.77329 5.17964 9.01287 4.65607C8.14649 4.1699 5.09234 2.56803 5.93379 2.35611H5.92755Z" fill="#AFB4B8"/>
<path d="M5.78405 2.46204C5.36644 3.37828 5.17322 4.2135 5.74666 5.19207C6.32009 6.16441 6.96832 6.86874 7.816 7.49203C8.66368 8.11533 12.0606 8.32102 12.7026 8.12156C11.9609 6.43243 5.78405 2.46827 5.78405 2.46827V2.46204Z" fill="#AFB4B8"/>
<path d="M12.1293 6.34518L12.8274 6.56333C12.8274 6.56333 12.0296 7.09313 10.4152 6.90614C8.8009 6.71915 7.1367 5.70318 6.51341 5.02379C5.89011 4.3444 5.41017 3.35336 5.59716 2.90458L5.78415 2.45581L12.1293 6.33894V6.34518Z" fill="#CFD3D6"/>
<path d="M10.3092 3.62762C9.79809 3.51542 8.48294 3.45933 8.86315 3.80214C9.24336 4.13872 10.6832 5.17339 10.9761 4.92407C11.294 4.64982 11.375 4.61866 11.3626 4.42544C11.3501 4.23221 10.3092 3.63385 10.3092 3.63385V3.62762Z" fill="#FFF0FF"/>
<path d="M10.8515 5.02377C10.92 5.02377 10.9761 5.00507 11.0198 4.97391C11.0634 4.93651 11.107 4.89911 11.1444 4.86795C11.3626 4.68719 11.4436 4.61863 11.4311 4.41294C11.4187 4.20102 10.6645 3.75225 10.3404 3.56526H10.3217C9.99756 3.49046 8.86939 3.37204 8.7385 3.62759C8.71357 3.67745 8.70734 3.75225 8.8133 3.84574C8.99405 4.0078 10.2967 5.02377 10.8452 5.02377H10.8515ZM10.2843 3.68992C10.758 3.96417 11.2753 4.31945 11.294 4.42541C11.3002 4.55007 11.2753 4.58123 11.0572 4.76199C11.0198 4.79315 10.9761 4.83055 10.9325 4.86795C10.7143 5.05494 9.38673 4.16986 8.91302 3.74601C8.86939 3.70862 8.86939 3.68992 8.86939 3.68992C8.92549 3.58396 9.77317 3.58396 10.2905 3.68992H10.2843Z" fill="#C5C7C8"/>
<path d="M14.1488 8.02188L15.894 7.89099L13.3697 6.63193C13.3011 6.61323 13.2139 6.65063 13.1391 6.73166C12.9895 6.89372 12.9022 7.12434 12.9708 7.33626C13.002 7.44222 13.0643 7.49831 13.1328 7.51701L14.1488 8.02188Z" fill="#C5C7C8"/>
<path d="M14.3294 7.09318C14.479 6.99345 14.6037 7.01215 14.6598 7.12435C14.691 7.18668 14.7284 7.25524 14.7595 7.31757C14.7159 7.23031 14.6162 7.21784 14.504 7.29264C14.3357 7.40483 14.1986 7.66661 14.1923 7.87853C14.1923 8.04059 14.2609 8.12785 14.3668 8.10915C14.292 8.12162 14.2235 8.13408 14.1487 8.14655C14.0116 8.17148 13.9118 8.05929 13.9181 7.8536C13.9243 7.57935 14.1051 7.24277 14.317 7.09941L14.3294 7.09318Z" fill="url(#paint12_linear_160_16504)"/>
<path d="M13.9618 6.91234C14.0615 6.84378 14.1488 6.83132 14.2173 6.86248L14.5913 7.04947C14.5227 7.0183 14.4355 7.03077 14.3358 7.09933C14.1238 7.24269 13.9431 7.57927 13.9368 7.85352C13.9368 7.99688 13.9805 8.09661 14.0553 8.134L13.6813 7.94701C13.6065 7.90962 13.5629 7.80989 13.5629 7.66653C13.5691 7.39228 13.7499 7.0557 13.9618 6.91234Z" fill="url(#paint13_linear_160_16504)"/>
<path d="M14.5102 7.29266C14.585 7.2428 14.6535 7.23033 14.7096 7.25526L16.7603 8.27124C16.7104 8.2463 16.6418 8.25877 16.5608 8.30863C16.3925 8.42083 16.2554 8.68261 16.2492 8.89453C16.2492 9.00672 16.2803 9.08152 16.3426 9.11268L14.292 8.09671C14.2359 8.06555 14.1985 7.99075 14.1985 7.87856C14.1985 7.66664 14.3419 7.40485 14.5102 7.29266Z" fill="url(#paint14_linear_160_16504)"/>
<path d="M16.5548 8.30853C16.6108 8.27113 16.6607 8.25867 16.7043 8.25867C16.7417 8.25867 16.7729 8.25867 16.8103 8.2649C16.7604 8.2649 16.7106 8.27737 16.6482 8.321C16.4675 8.44566 16.3179 8.73237 16.3117 8.96299C16.3117 9.05649 16.3304 9.12505 16.3678 9.16868C16.3428 9.14375 16.3241 9.11258 16.2992 9.08765C16.268 9.05025 16.2493 8.98792 16.2493 8.90066C16.2556 8.68874 16.3927 8.42696 16.561 8.31476L16.5548 8.30853Z" fill="url(#paint15_linear_160_16504)"/>
<path d="M16.6482 8.32101C16.7292 8.26492 16.8103 8.25245 16.8664 8.27738L17.0471 8.36464C16.991 8.33971 16.9162 8.34594 16.829 8.40204C16.6482 8.5267 16.4986 8.81342 16.4924 9.04403C16.4924 9.16869 16.5298 9.24972 16.5921 9.28089L16.4114 9.19363C16.349 9.16246 16.3116 9.08143 16.3116 8.95677C16.3179 8.72615 16.4675 8.43944 16.6482 8.31478V8.32101Z" fill="url(#paint16_linear_160_16504)"/>
<path d="M16.4924 9.05032C16.4862 9.28094 16.6233 9.3682 16.8041 9.24977C16.9848 9.12511 17.1344 8.8384 17.1407 8.60778C17.1469 8.37716 17.0098 8.2899 16.829 8.40832C16.6483 8.53298 16.4987 8.8197 16.4924 9.05032Z" fill="#394344"/>
<path d="M10.6521 1.30274C9.0378 0.311695 7.04949 -1.58312 5.96495 2.55556C7.04949 5.92136 12.1293 6.33897 12.1293 6.33897C12.1293 6.33897 13.0144 2.74878 10.6521 1.30274Z" fill="#313942"/>
</g>
<defs>
<linearGradient id="paint0_linear_160_16504" x1="23.5232" y1="18.1629" x2="28.8649" y2="8.91323" gradientUnits="userSpaceOnUse">
<stop stop-color="#181818"/>
<stop offset="0.27" stop-color="#262626"/>
<stop offset="0.77" stop-color="#2E2E2E"/>
</linearGradient>
<linearGradient id="paint1_linear_160_16504" x1="29.6564" y1="17.7079" x2="25.8979" y2="11.1882" gradientUnits="userSpaceOnUse">
<stop stop-color="#141414"/>
<stop offset="0.44" stop-color="#1E1E1E"/>
<stop offset="0.78" stop-color="#202020"/>
<stop offset="0.98" stop-color="#282828"/>
<stop offset="1" stop-color="#2A2A2A"/>
</linearGradient>
<linearGradient id="paint2_linear_160_16504" x1="29.6563" y1="17.6456" x2="26.1783" y2="11.6246" gradientUnits="userSpaceOnUse">
<stop stop-color="#161616"/>
<stop offset="0.3" stop-color="#1A1A1A"/>
<stop offset="0.79" stop-color="#1D1D1D"/>
<stop offset="0.8" stop-color="#1E1E1E"/>
</linearGradient>
<linearGradient id="paint3_linear_160_16504" x1="2.56179" y1="30.2673" x2="7.90343" y2="21.0176" gradientUnits="userSpaceOnUse">
<stop stop-color="#181818"/>
<stop offset="0.27" stop-color="#262626"/>
<stop offset="0.77" stop-color="#2E2E2E"/>
</linearGradient>
<linearGradient id="paint4_linear_160_16504" x1="8.695" y1="29.8123" x2="4.93029" y2="23.2926" gradientUnits="userSpaceOnUse">
<stop stop-color="#141414"/>
<stop offset="0.44" stop-color="#1E1E1E"/>
<stop offset="0.78" stop-color="#202020"/>
<stop offset="0.98" stop-color="#282828"/>
<stop offset="1" stop-color="#2A2A2A"/>
</linearGradient>
<linearGradient id="paint5_linear_160_16504" x1="8.6886" y1="29.7437" x2="5.21684" y2="23.7289" gradientUnits="userSpaceOnUse">
<stop stop-color="#161616"/>
<stop offset="0.3" stop-color="#1A1A1A"/>
<stop offset="0.79" stop-color="#1D1D1D"/>
<stop offset="0.8" stop-color="#1E1E1E"/>
</linearGradient>
<linearGradient id="paint6_linear_160_16504" x1="8.45224" y1="24.741" x2="7.3614" y2="24.4034" gradientUnits="userSpaceOnUse">
<stop offset="0.05" stop-color="#7D7D7D"/>
<stop offset="0.95" stop-color="#8E8E8E"/>
</linearGradient>
<linearGradient id="paint7_linear_160_16504" x1="3.22859" y1="0.991073" x2="3.75216" y2="0.087293" gradientUnits="userSpaceOnUse">
<stop offset="0.05" stop-color="#424E50"/>
<stop offset="0.95" stop-color="#545F61"/>
</linearGradient>
<linearGradient id="paint8_linear_160_16504" x1="3.38454" y1="1.07837" x2="3.89564" y2="0.193287" gradientUnits="userSpaceOnUse">
<stop offset="0.05" stop-color="#364041"/>
<stop offset="0.95" stop-color="#475152"/>
</linearGradient>
<linearGradient id="paint9_linear_160_16504" x1="4.19475" y1="1.76397" x2="4.77441" y2="0.760461" gradientUnits="userSpaceOnUse">
<stop offset="0.05" stop-color="#424E50"/>
<stop offset="0.95" stop-color="#545F61"/>
</linearGradient>
<linearGradient id="paint10_linear_160_16504" x1="5.06107" y1="2.33741" x2="5.59087" y2="1.41493" gradientUnits="userSpaceOnUse">
<stop offset="0.05" stop-color="#364041"/>
<stop offset="0.95" stop-color="#475152"/>
</linearGradient>
<linearGradient id="paint11_linear_160_16504" x1="5.27914" y1="2.61162" x2="5.90244" y2="1.53332" gradientUnits="userSpaceOnUse">
<stop offset="0.05" stop-color="#424E50"/>
<stop offset="0.95" stop-color="#545F61"/>
</linearGradient>
<linearGradient id="paint12_linear_160_16504" x1="14.0178" y1="8.11539" x2="14.6224" y2="7.06825" gradientUnits="userSpaceOnUse">
<stop offset="0.05" stop-color="#364041"/>
<stop offset="0.95" stop-color="#475152"/>
</linearGradient>
<linearGradient id="paint13_linear_160_16504" x1="13.7062" y1="7.96571" x2="14.3233" y2="6.89365" gradientUnits="userSpaceOnUse">
<stop offset="0.05" stop-color="#424E50"/>
<stop offset="0.95" stop-color="#545F61"/>
</linearGradient>
<linearGradient id="paint14_linear_160_16504" x1="15.1584" y1="8.60158" x2="15.7007" y2="7.66041" gradientUnits="userSpaceOnUse">
<stop offset="0.05" stop-color="#424E50"/>
<stop offset="0.95" stop-color="#545F61"/>
</linearGradient>
<linearGradient id="paint15_linear_160_16504" x1="16.2244" y1="9.08142" x2="16.7293" y2="8.21504" gradientUnits="userSpaceOnUse">
<stop offset="0.05" stop-color="#364041"/>
<stop offset="0.95" stop-color="#475152"/>
</linearGradient>
<linearGradient id="paint16_linear_160_16504" x1="16.3677" y1="9.17493" x2="16.8913" y2="8.27738" gradientUnits="userSpaceOnUse">
<stop offset="0.05" stop-color="#424E50"/>
<stop offset="0.95" stop-color="#545F61"/>
</linearGradient>
<clipPath id="clip0_160_16504">
<rect width="32" height="32.3366" fill="white" transform="matrix(-1 0 0 1 32 0)"/>
</clipPath>
</defs>
</svg>
