<svg width="56" height="47" viewBox="0 0 56 47" fill="none" xmlns="http://www.w3.org/2000/svg">
<g style="mix-blend-mode:multiply">
<path d="M13.926 46.4378L55.0895 22.6747C56.4395 21.8951 56.2694 20.5346 54.7128 19.6373L47.3429 15.3833C45.7862 14.4833 43.429 14.3865 42.0817 15.1662L0.918224 38.9318C-0.43174 39.7115 -0.261688 41.0719 1.29496 41.9693L8.66483 46.2232C10.2215 47.1232 12.5787 47.22 13.926 46.4404V46.4378Z" fill="#EAEAEA"/>
</g>
<path d="M45.5875 25.9005L43.8687 24.8461L37.3491 28.8699L22.782 39.0678L21.2384 37.8461L15.3389 41.6919L17.2304 31.7869L47.5261 16.4742L45.5875 25.9005Z" fill="#1E1E1E"/>
<path d="M17.5312 39.8371C17.5312 38.6049 18.3997 37.1058 19.4724 36.4857C20.0061 36.177 20.4901 36.1456 20.8433 36.3445C20.8433 36.3445 20.8485 36.3471 20.8511 36.3497L22.0781 37.0587V38.0084L19.3233 41.7888L18.1721 41.1217C18.1172 41.0981 18.0675 41.0667 18.0178 41.0327C17.7143 40.813 17.5312 40.4048 17.5312 39.8371Z" fill="url(#paint0_linear_160_13793)"/>
<path d="M19.2926 41.7723C18.5392 41.3319 18.5474 39.9161 19.3108 38.6101C20.0743 37.3041 21.304 36.6024 22.0574 37.0428C22.8109 37.4833 22.8027 38.8991 22.0392 40.2051C21.2758 41.5111 20.0461 42.2128 19.2926 41.7723Z" fill="#2D2C37"/>
<path d="M19.2926 41.7723C18.5392 41.3319 18.5474 39.9161 19.3108 38.6101C20.0743 37.3041 21.304 36.6024 22.0574 37.0428C22.8109 37.4833 22.8027 38.8991 22.0392 40.2051C21.2758 41.5111 20.0461 42.2128 19.2926 41.7723Z" fill="url(#paint1_linear_160_13793)"/>
<path d="M18.8524 40.5069C18.8524 41.692 19.6896 42.1682 20.7204 41.5717C21.7512 40.9752 22.5884 39.5336 22.5884 38.3485C22.5884 37.1634 21.7512 36.6872 20.7204 37.2837C19.6896 37.8802 18.8524 39.3217 18.8524 40.5069Z" fill="url(#paint2_linear_160_13793)"/>
<path d="M19.3599 40.2138C19.3599 41.0693 19.9642 41.4146 20.7098 40.983C21.4555 40.5539 22.0598 39.51 22.0598 38.6545C22.0598 37.799 21.4555 37.4537 20.7098 37.8854C19.9642 38.3144 19.3599 39.3583 19.3599 40.2138Z" fill="#504F58"/>
<path d="M19.4515 40.1144C19.4515 40.8888 19.9983 41.2001 20.6732 40.8103C21.3482 40.4205 21.895 39.476 21.895 38.7016C21.895 37.9272 21.3482 37.6159 20.6732 38.0057C19.9983 38.3955 19.4515 39.34 19.4515 40.1144Z" fill="#CBCAE8"/>
<path d="M19.6058 40.0254C19.6058 40.703 20.0846 40.9777 20.6758 40.635C21.2671 40.2949 21.7458 39.4681 21.7458 38.7905C21.7458 38.1129 21.2671 37.8382 20.6758 38.181C20.0846 38.5211 19.6058 39.3478 19.6058 40.0254Z" fill="#93949C"/>
<path d="M19.7367 39.9495C19.7367 40.5434 20.1552 40.7841 20.6733 40.4833C21.1913 40.185 21.6099 39.4603 21.6099 38.8664C21.6099 38.2726 21.1913 38.0319 20.6733 38.3327C20.1552 38.631 19.7367 39.3557 19.7367 39.9495Z" fill="#CBCAE8"/>
<path d="M20.1918 39.8031C20.1918 40.1589 20.4429 40.3001 20.7517 40.1222C21.0604 39.9443 21.3115 39.5101 21.3115 39.1569C21.3115 38.8037 21.0604 38.6598 20.7517 38.8377C20.4429 39.0156 20.1918 39.4499 20.1918 39.8031Z" fill="#93949C"/>
<path d="M21.2096 39.4185C21.1495 39.599 21.0971 39.6906 20.9742 39.8371C20.9297 39.8894 20.9009 39.96 20.9166 40.0045C20.9297 40.049 20.9951 40.0359 21.0527 39.9679C21.1808 39.824 21.309 39.5964 21.3666 39.4132C21.3954 39.3295 21.3718 39.2693 21.3247 39.2824C21.2803 39.2955 21.2332 39.3557 21.2096 39.4211V39.4185Z" fill="#504F58"/>
<path d="M20.3253 39.7664C20.3253 40.0803 20.545 40.2059 20.8197 40.0489C21.0918 39.892 21.3142 39.51 21.3142 39.1987C21.3142 38.8873 21.0944 38.7591 20.8197 38.9161C20.5477 39.0731 20.3253 39.455 20.3253 39.7664Z" fill="#CBCAE8"/>
<path d="M20.553 39.6357C20.553 39.8057 20.6733 39.8737 20.8198 39.7874C20.9689 39.7011 21.0867 39.4944 21.0867 39.3243C21.0867 39.1543 20.9663 39.0862 20.8198 39.1726C20.6707 39.2589 20.553 39.4656 20.553 39.6357Z" fill="#93949C"/>
<path d="M20.1394 39.3976C20.1996 39.2171 20.2519 39.1255 20.3749 38.979C20.4194 38.9267 20.4481 38.856 20.4324 38.8116C20.4194 38.7671 20.354 38.7802 20.2964 38.8482C20.1682 38.9921 20.04 39.2197 19.9825 39.4028C19.9537 39.4866 19.9772 39.5467 20.0243 39.5336C20.0688 39.5206 20.1159 39.4604 20.1394 39.395V39.3976Z" fill="#504F58"/>
<path d="M20.3959 40.1824C20.2703 40.1877 20.2154 40.1589 20.15 40.0542C20.1264 40.0176 20.0793 40.0124 20.0349 40.0542C19.9904 40.0961 19.9694 40.1824 19.9982 40.2321C20.061 40.3446 20.1944 40.4127 20.3253 40.4022C20.3854 40.4022 20.4482 40.3368 20.4587 40.2766C20.4718 40.2164 20.4404 40.1798 20.3959 40.1824Z" fill="#504F58"/>
<path d="M20.9531 38.6337C21.0787 38.6284 21.1337 38.6572 21.1991 38.7619C21.2226 38.7985 21.2697 38.8037 21.3142 38.7619C21.3586 38.72 21.3796 38.6337 21.3508 38.584C21.288 38.4715 21.1546 38.4034 21.0238 38.4139C20.9636 38.4139 20.9008 38.4793 20.8903 38.5395C20.8773 38.5996 20.9087 38.6363 20.9531 38.6337Z" fill="#504F58"/>
<path d="M21.0082 39.9077C21.1364 39.7638 21.2646 39.5362 21.3221 39.353C21.3326 39.3243 21.3326 39.3007 21.3326 39.2798C21.3718 39.2798 21.3902 39.3321 21.364 39.4106C21.3064 39.5937 21.1782 39.8213 21.0501 39.9652C20.9925 40.0333 20.9271 40.0463 20.914 40.0019C20.9114 39.9914 20.914 39.9783 20.9166 39.9678C20.9428 39.9626 20.9742 39.9443 21.0056 39.9077H21.0082Z" fill="#93949C"/>
<path d="M19.9824 39.4787C20.0269 39.4656 20.074 39.4054 20.0976 39.34C20.1577 39.1595 20.2101 39.0679 20.333 38.9214C20.367 38.8795 20.3853 38.8298 20.388 38.788C20.4089 38.7854 20.4272 38.7906 20.435 38.8115C20.4481 38.856 20.4193 38.9266 20.3775 38.979C20.2545 39.1255 20.1996 39.217 20.142 39.3976C20.1211 39.4603 20.074 39.5231 20.0269 39.5362C19.9955 39.5441 19.9772 39.5205 19.9746 39.4787C19.9772 39.4787 19.9798 39.4787 19.9824 39.4787Z" fill="#93949C"/>
<path d="M20.2834 40.3447C20.3436 40.3447 20.4064 40.2793 20.4168 40.2191C20.4168 40.206 20.4142 40.2008 20.4116 40.1903C20.4456 40.1982 20.4691 40.2269 20.4587 40.2766C20.4456 40.3368 20.3828 40.3996 20.3252 40.4022C20.1944 40.4127 20.061 40.342 19.9982 40.2322C19.9982 40.2322 19.9982 40.2322 19.9982 40.2296C20.0689 40.308 20.1761 40.3551 20.2834 40.3473V40.3447Z" fill="#93949C"/>
<path d="M21.2723 38.7043C21.3168 38.6624 21.3377 38.5813 21.3089 38.5316C21.3246 38.5499 21.3403 38.5656 21.3508 38.5839C21.3822 38.6336 21.3613 38.72 21.3142 38.7618C21.2697 38.8037 21.22 38.7985 21.1991 38.7618C21.186 38.7409 21.1729 38.7252 21.1598 38.7095C21.1834 38.7435 21.2304 38.7461 21.2723 38.7069V38.7043Z" fill="#93949C"/>
<path d="M20.9087 38.576C21.0316 38.5708 21.0866 38.5996 21.1467 38.6937C21.0996 38.644 21.0447 38.6283 20.9505 38.631C20.9139 38.631 20.8956 38.6048 20.893 38.5656C20.8982 38.5656 20.9034 38.5734 20.9087 38.5734V38.576Z" fill="#93949C"/>
<path d="M40.3968 26.6251C40.3968 25.3929 41.2653 23.8938 42.338 23.2738C42.9057 22.9467 43.4159 22.9311 43.7717 23.1717L44.9856 23.8755L44.1641 25.215C43.9496 26.0129 43.4577 26.8187 42.8482 27.3603L42.1235 28.5402L41.056 27.9176C40.988 27.8888 40.9226 27.8495 40.8624 27.8051C40.572 27.5827 40.3941 27.1798 40.3941 26.6251H40.3968Z" fill="url(#paint3_linear_160_13793)"/>
<path d="M41.5978 27.3185C41.5978 28.5508 42.4663 29.0452 43.539 28.4252C44.6116 27.8051 45.4802 26.3061 45.4802 25.0738C45.4802 23.8416 44.6116 23.3471 43.539 23.9672C42.4663 24.5872 41.5978 26.0863 41.5978 27.3185Z" fill="url(#paint4_linear_160_13793)"/>
<path d="M41.7914 27.295C41.7914 28.4801 42.6286 28.9563 43.6594 28.3598C44.6902 27.7633 45.5273 26.3217 45.5273 25.1366C45.5273 23.9514 44.6902 23.4753 43.6594 24.0718C42.6286 24.6683 41.7914 26.1098 41.7914 27.295Z" fill="url(#paint5_linear_160_13793)"/>
<path d="M42.2256 27.0019C42.2256 27.8574 42.83 28.2027 43.5756 27.7711C44.3212 27.342 44.9255 26.2981 44.9255 25.4426C44.9255 24.5871 44.3212 24.2418 43.5756 24.6735C42.83 25.1025 42.2256 26.1464 42.2256 27.0019Z" fill="#504F58"/>
<path d="M42.3172 26.9025C42.3172 27.6769 42.864 27.9882 43.539 27.5984C44.214 27.2086 44.7607 26.2641 44.7607 25.4897C44.7607 24.7153 44.214 24.404 43.539 24.7938C42.864 25.1836 42.3172 26.1281 42.3172 26.9025Z" fill="#CBCAE8"/>
<path d="M42.4401 26.8319C42.4401 27.5278 42.9319 27.8104 43.5389 27.4598C44.1458 27.1092 44.6377 26.259 44.6377 25.5631C44.6377 24.8671 44.1458 24.5846 43.5389 24.9352C43.4839 24.9666 43.429 25.0032 43.3767 25.0424C42.9031 25.3982 42.5264 26.0418 42.4532 26.6279C42.4453 26.6959 42.4401 26.7639 42.4401 26.8319Z" fill="#CBCAE8"/>
<path d="M43.1413 27.1746C43.7169 26.8424 44.1825 26.0392 44.1825 25.3799C44.1825 25.1131 44.1067 24.9116 43.9785 24.786C44.3683 24.7572 44.6404 25.045 44.6404 25.563C44.6404 26.259 44.1485 27.1092 43.5416 27.4598C43.0994 27.7162 42.7175 27.6351 42.5422 27.3028C42.7122 27.3421 42.9189 27.3028 43.1439 27.1746H43.1413Z" fill="#93949C"/>
<path d="M42.5028 26.7089C42.5028 27.1354 42.8037 27.308 43.1778 27.0935C43.5493 26.879 43.8528 26.3584 43.8528 25.9293C43.8528 25.5002 43.5519 25.3302 43.1778 25.5447C42.8063 25.7592 42.5028 26.2799 42.5028 26.7089Z" fill="#91929A"/>
<path d="M42.4531 26.6278C42.5682 26.7952 42.788 26.8266 43.0391 26.6827C43.4106 26.4682 43.7141 25.9476 43.7141 25.5185C43.7141 25.2307 43.5781 25.0581 43.3766 25.0424C42.9031 25.3982 42.5264 26.0418 42.4531 26.6278Z" fill="#93949C"/>
<path d="M43.539 25.1L44.0439 25.393L43.0472 27.0098L42.5501 26.722L42.8902 25.9084L43.539 25.1Z" fill="#93949C"/>
<path d="M42.8639 26.586C42.8639 27.0124 43.1648 27.1851 43.5389 26.9706C43.9104 26.7561 44.2139 26.2354 44.2139 25.8064C44.2139 25.3773 43.913 25.2073 43.5389 25.4218C43.1674 25.6363 42.8639 26.1569 42.8639 26.586Z" fill="#93949C"/>
<path d="M42.9293 26.5755C42.9293 26.9836 43.2171 27.1485 43.5755 26.9444C43.9313 26.7377 44.2217 26.2406 44.2217 25.8325C44.2217 25.4244 43.9339 25.2596 43.5755 25.4636C43.2197 25.6703 42.9293 26.1674 42.9293 26.5755Z" fill="#CBCAE8"/>
<path d="M11.2131 45.5431C6.94868 44.5724 1.11715 40.4885 0.729949 39.6932C0.680241 39.5886 0.847677 39.3008 0.847677 39.3008L10.8468 45.2553C10.8468 45.2553 11.3256 45.5692 11.2131 45.5431Z" fill="#AFB4B8"/>
<path d="M0.101929 37.9953C0.169949 38.4453 0.321686 39.1752 0.321686 39.1752L0.687958 39.463L1.20335 39.9077L9.72174 35.4183V33.7466C9.72174 33.5346 9.77929 33.294 9.88394 33.0585L10.2581 32.2292C10.4255 31.8577 10.7002 31.5359 10.9932 31.3658L12.5839 30.4475C12.8769 30.2775 13.1516 30.2853 13.319 30.4606L13.6931 30.8556C13.8004 30.9681 13.8554 31.1408 13.8554 31.3527V33.0245L32.5246 22.2457V20.5739C32.5246 20.362 32.5822 20.1213 32.6868 19.8859L33.061 19.0565C33.2284 18.685 33.5031 18.3632 33.7961 18.1932L35.3842 17.2749C35.6772 17.1048 35.9519 17.1101 36.1193 17.288L36.4934 17.683C36.6007 17.7955 36.6556 17.9682 36.6556 18.1801V19.8519L43.3845 15.9668L46.6443 13.2145C46.6443 13.2145 47.0603 8.50797 47.0603 7.87223C47.0603 7.23649 45.4644 0.219812 45.4644 0.219812L45.365 0.0157471L0.983593 25.6389L0.585926 26.0627C0.585926 26.0627 0.572845 31.7085 0.468201 34.207C0.431572 35.1044 0.222275 35.4235 0.222275 35.5282C0.222275 35.9259 0.243206 37.37 0.251053 37.4563C0.251053 37.4747 0.101929 37.9927 0.101929 37.9927V37.9953Z" fill="#DB9845"/>
<path d="M1.94384 33.9898V26.1569L44.1669 1.78162L45.7654 9.65903L1.94384 33.9898Z" fill="#2D2C37"/>
<path d="M9.85251 34.4947C9.85251 35.7217 10.7211 37.1031 11.7911 36.4857C12.8612 35.8683 13.7297 33.4849 13.7297 32.2579C13.7297 31.0309 12.8612 30.5364 11.7911 31.1538C10.7211 31.7713 9.85251 33.2677 9.85251 34.4947Z" fill="#2D2C37"/>
<path d="M10.5694 34.0788C10.5694 34.8532 11.1162 35.1645 11.7912 34.7747C12.4662 34.3849 13.0129 33.4431 13.0129 32.6687C13.0129 31.8943 12.4662 31.5829 11.7912 31.9727C10.2398 32.8675 10.5694 33.3044 10.5694 34.0788Z" fill="#DB9845"/>
<path d="M32.6582 21.3274C32.6582 22.5544 33.5268 23.0488 34.5968 22.4314C35.6668 21.814 36.5354 20.3175 36.5354 19.0905C36.5354 17.8635 35.6668 17.3691 34.5968 17.9865C33.5268 18.6039 32.6582 20.1004 32.6582 21.3274Z" fill="#2D2C37"/>
<path d="M33.3748 20.914C33.3748 21.6884 33.9216 21.9997 34.5966 21.6099C35.2716 21.2201 35.8184 20.2783 35.8184 19.5039C35.8184 18.7295 35.2716 18.4181 34.5966 18.808C33.9216 19.1978 33.3748 20.1396 33.3748 20.914Z" fill="#DB9845"/>
<path d="M14.7685 27.1641L19.6948 24.3177L18.0937 17.0289L13.1674 19.8754L14.7685 27.1641Z" fill="#1E2329"/>
<path d="M9.25337 30.348L14.1797 27.5016L12.5786 20.2155L7.65224 23.0593L9.25337 30.348Z" fill="#1E2329"/>
<path d="M31.2061 17.6725L36.135 14.8261L34.5339 7.53992L29.6049 10.3837L31.2061 17.6725Z" fill="#1E2329"/>
<path d="M42.8744 10.9358L45.3389 9.51259L43.7377 2.22644L41.2733 3.64704L42.8744 10.9358Z" fill="#1E2329"/>
<path d="M25.6912 20.8565L30.6201 18.01L29.019 10.7239L24.0901 13.5677L25.6912 20.8565Z" fill="#1E2329"/>
<path d="M6.41486 32.8701L8.43457 31.7059L6.83345 23.8651L4.81374 25.0293L6.41486 32.8701Z" fill="#1E2329"/>
<path d="M6.41486 37.9717L8.43457 36.292V32.5953L6.41486 33.7596V37.9717Z" fill="#1E2329"/>
<path d="M2.20282 34.8506L5.82104 33.2129L4.21992 25.3721L2.20282 26.5389V34.8506Z" fill="#1E2329"/>
<path d="M1.65865 38.89L5.60652 38.4662L5.82104 34.9893L1.9883 35.8892L1.65865 38.89Z" fill="#1E2329"/>
<path d="M23.0645 23.2582L25.0842 22.0913L23.4831 14.2532L21.4634 15.4174L23.0645 23.2582Z" fill="#1E2329"/>
<path d="M23.0645 26.9574L25.0842 25.7932V22.9834L23.0645 24.1476V26.9574Z" fill="#1E2329"/>
<path d="M20.4534 24.7651L22.4705 23.6009L20.8693 15.7601L18.8522 16.927L20.4534 24.7651Z" fill="#1E2329"/>
<path d="M20.4534 28.467L22.4705 27.3002V24.4904L20.4534 25.6572V28.467Z" fill="#1E2329"/>
<path d="M40.2058 13.361L42.2229 12.1967L40.6218 4.35596L38.6047 5.52279L40.2058 13.361Z" fill="#1E2329"/>
<path d="M40.2058 17.0629L42.2229 15.8961V13.0863L40.2058 14.2531V17.0629Z" fill="#1E2329"/>
<path d="M37.5923 14.8706L39.6121 13.7038L38.0109 5.8656L35.9912 7.02981L37.5923 14.8706Z" fill="#1E2329"/>
<path d="M37.5923 18.5699L39.6121 17.4056V14.5958L37.5923 15.76V18.5699Z" fill="#1E2329"/>
<path d="M20.4535 28.9693L25.0842 26.2955V26.5467L20.4535 29.2205V28.9693Z" fill="#696B6F"/>
<path d="M1.64565 39.3975L8.42163 36.8022V37.0534L1.64565 39.6513V39.3975Z" fill="#696B6F"/>
<path d="M37.5922 19.0722L42.2229 16.3984V16.6496L37.5922 19.3234V19.0722Z" fill="#696B6F"/>
<path d="M20.1893 29.3932L20.2155 29.3775L25.3433 26.4159L23.7421 13.7456L23.716 13.7613L18.5882 16.7229L20.1893 29.3932ZM25.3093 26.395L20.226 29.3304L18.6248 16.7438L23.7081 13.8084L25.3093 26.395Z" fill="#BD6326"/>
<path d="M1.38126 39.8266L8.68311 36.9226L7.08199 23.368L7.05582 23.3837L1.92805 26.3453V26.3558L1.38126 39.8292V39.8266ZM8.64648 36.9017L1.4205 39.756L1.96206 26.3636L7.04536 23.4282L8.64648 36.9017Z" fill="#BD6326"/>
<path d="M37.3307 19.4961L37.3568 19.4804L42.4846 16.5188L40.8835 3.84851L40.8573 3.86421L35.7296 6.82576L37.3307 19.4961ZM42.4506 16.4979L37.3673 19.4333L35.7662 6.84669L40.8495 3.9113L42.4506 16.4979Z" fill="#BD6326"/>
<path d="M10.627 44.078C10.695 44.528 10.8468 45.2579 10.8468 45.2579L11.213 45.5457L12.1287 45.1899L12.27 45.1349L18.6431 41.4566V39.7848C18.6431 39.5729 18.7006 39.3322 18.8053 39.0967L19.1794 38.2674C19.3468 37.8959 19.6216 37.5741 19.9146 37.404L21.5052 36.4857C21.7982 36.3157 22.0729 36.3209 22.2404 36.4988L22.6145 36.8939C22.7218 37.0064 22.7767 37.179 22.7767 37.3936V39.0653L41.446 28.2865V26.6148C41.446 26.4029 41.5035 26.1622 41.6082 25.9293L41.9823 25.1C42.1497 24.7285 42.4244 24.4067 42.7175 24.2366L44.3055 23.3184C44.5985 23.1483 44.8732 23.1562 45.0407 23.3314L45.4148 23.7265C45.522 23.839 45.577 24.0117 45.577 24.2236V25.8953L52.3059 22.0103L55.5657 19.258C55.5657 19.258 55.9895 14.5567 55.9895 13.9209V6.77606C55.9895 6.48042 55.9895 6.55891 55.9895 6.55891L55.8901 6.10107L11.5087 31.7242L11.0901 32.1481C10.9514 39.6147 10.7474 40.6508 10.7474 41.6135C10.7474 42.0112 10.7683 43.4553 10.7761 43.5417C10.7761 43.56 10.627 44.078 10.627 44.078Z" fill="#BEC3C7"/>
<path d="M41.4512 27.7816L22.7819 38.5499V39.068L41.4512 28.2892V27.7816Z" fill="#A5ABAF"/>
<path d="M51.3928 22.0495L45.5874 25.3982V25.9005L52.3163 22.0155L55.5761 19.2632C55.5761 19.2632 55.9895 14.5566 55.9895 13.9209V6.55888L55.8247 6.39929V14.5331L55.3616 18.9336L51.3928 22.0495Z" fill="#A5ABAF"/>
<path d="M12.1314 45.1898L12.2727 45.1349L18.6458 41.4565V40.9332L12.1706 44.6666L12.1314 45.1898Z" fill="#A5ABAF"/>
<path d="M12.2725 45.1349L12.1704 44.6666V43.5233L11.9637 43.3899L11.8172 43.0498L12.0396 42.1367L12.126 32.3442L11.9245 32.0591L11.0193 32.1847L10.7655 42.5161L10.7786 43.5416L10.6269 44.078L10.8466 45.2552L11.2129 45.543L12.2725 45.1349Z" fill="#AFB4B8"/>
<path d="M12.4689 40.4937V32.0408L54.6919 7.66553V16.1159L12.4689 40.4937Z" fill="#383F46"/>
<path d="M29.1315 35.4L34.2515 32.4437V19.8623L29.1315 22.816V35.4Z" fill="#383F46"/>
<path d="M29.0583 35.5256L34.3247 32.4855V19.7341L29.0583 22.7742V35.5256ZM34.1782 32.4018L29.2048 35.2744V22.8605L34.1782 19.9879V32.4018Z" fill="#29202B"/>
<path d="M46.2729 25.5055L51.3928 22.5492V9.96521L46.2729 12.9215V25.5055Z" fill="#383F46"/>
<path d="M46.1996 25.6311L51.4661 22.591V9.8396L46.1996 12.8796V25.6311ZM51.3196 22.5073L46.3461 25.3799V12.966L51.3196 10.0934V22.5073Z" fill="#29202B"/>
<path d="M12.4687 45.0197L17.5886 42.066V29.4821L12.4687 32.4384V45.0197Z" fill="#383F46"/>
<path d="M12.3981 45.148L17.6646 42.108V29.3566L12.3981 32.3966V45.148ZM17.518 42.0243L12.5446 44.8969V32.4829L17.518 29.6103V42.0243Z" fill="#29202B"/>
<path d="M23.6923 33.6131L28.6187 30.7667V23.525L23.6923 26.3688V33.6131Z" fill="#1E2329"/>
<path d="M18.1774 36.797L23.1038 33.9505V26.7089L18.1774 29.5527V36.797Z" fill="#1E2329"/>
<path d="M40.1299 24.1214L45.0588 21.275V14.0333L40.1299 16.8771V24.1214Z" fill="#1E2329"/>
<path d="M51.7982 17.3847L54.2627 15.9615V8.71985L51.7982 10.1431V17.3847Z" fill="#1E2329"/>
<path d="M34.615 27.3054L39.5439 24.459V17.2173L34.615 20.0611V27.3054Z" fill="#1E2329"/>
<path d="M15.3387 39.319L17.3584 38.1548V30.3585L15.3387 31.5227V39.319Z" fill="#1E2329"/>
<path d="M15.3387 42.6103L17.3584 41.4435V38.6337L15.3387 39.8005V42.6103Z" fill="#1E2329"/>
<path d="M12.7278 40.8286L14.7449 39.6617V31.868L12.7278 33.0323V40.8286Z" fill="#1E2329"/>
<path d="M12.7278 44.1172L14.7449 42.953V40.1432L12.7278 41.3074V44.1172Z" fill="#1E2329"/>
<path d="M31.9883 29.7071L34.0081 28.5429V20.7466L31.9883 21.9108V29.7071Z" fill="#1E2329"/>
<path d="M31.9883 32.9956L34.0081 31.8314V29.0216L31.9883 30.1858V32.9956Z" fill="#1E2329"/>
<path d="M29.3774 31.2167L31.3945 30.0498V22.2535L29.3774 23.4204V31.2167Z" fill="#1E2329"/>
<path d="M29.3774 34.5052L31.3945 33.341V30.5286L29.3774 31.6954V34.5052Z" fill="#1E2329"/>
<path d="M49.1299 19.4019L51.147 18.235V10.4387L49.1299 11.6056V19.4019Z" fill="#1E2329"/>
<path d="M49.1299 23.1012L51.147 21.9343V19.1245L49.1299 20.2913V23.1012Z" fill="#1E2329"/>
<path d="M46.5162 20.9088L48.5359 19.7446V11.9482L46.5162 13.1125V20.9088Z" fill="#1E2329"/>
<path d="M46.5162 24.6081L48.5359 23.4438V20.634L46.5162 21.7982V24.6081Z" fill="#1E2329"/>
<path d="M29.3774 35.0075L34.0081 32.3337V32.5849L29.3774 35.2587V35.0075Z" fill="#696B6F"/>
<path d="M12.7148 44.6274L17.3455 41.9536V42.2048L12.7148 44.8785V44.6274Z" fill="#696B6F"/>
<path d="M46.5163 25.1104L51.147 22.4366V22.6904L46.5163 25.3642V25.1104Z" fill="#696B6F"/>
<path d="M10.7656 43.2747C10.7656 43.2747 11.3202 43.0524 11.5583 42.7567C11.7728 42.4899 11.8853 41.7129 11.9036 41.6605C11.9429 41.548 12.0083 32.509 12.0083 32.509L11.09 32.4724L10.7211 41.6056L10.7656 43.2747Z" fill="#383F46"/>
<path d="M0.586067 26.0627L11.1111 31.5803L11.0902 32.4725L10.6245 34.8035L0.565137 28.9877L0.586067 26.0627Z" fill="#CFD3D6"/>
<path d="M0.986214 25.6415L0.588549 26.0653C0.52576 26.7167 3.8562 28.6815 5.82359 29.8274C7.99243 31.091 10.4517 32.4332 11.1136 32.148L11.5112 31.7242L0.986214 25.6415Z" fill="#E3E3E3"/>
<path d="M10.6271 44.078L10.7657 43.0838L0.253794 37.459L2.09808e-05 37.5924C2.09808e-05 37.5924 0.0601931 38.7488 0.321814 39.1726C1.55928 41.1714 9.79773 45.2631 10.8468 45.2553C11.3465 45.2527 10.6271 44.0754 10.6271 44.0754V44.078Z" fill="#AFB4B8"/>
<path d="M10.7788 43.5416L10.7657 43.0837L0.24071 36.7133L0.253792 37.4589L10.423 43.7169L10.7788 43.5416Z" fill="#AFB4B8"/>
<path d="M10.6269 44.078C10.7656 44.078 10.9173 43.5416 10.776 43.5416C9.3005 43.5416 3.16025 40.724 0.251024 37.4589C0.159456 37.3543 0.101898 37.9953 0.101898 37.9953C0.813507 39.2903 8.22 44.078 10.6269 44.078Z" fill="#EAEAEA"/>
<path d="M11.964 43.3899L12.1707 43.5233C12.1707 43.5233 11.3413 44.0753 10.6271 44.0753L10.7762 43.539L11.2 43.5599L11.9614 43.3899H11.964Z" fill="#EAEAEA"/>
<path d="M0.240604 37.1921C0.240604 37.5296 3.7097 40.1877 5.7268 41.4199C7.98982 42.8013 10.2973 43.4736 10.7656 43.2774L10.7604 42.9452L10.7473 41.6161L0.222293 35.5334L0.237989 37.1947L0.240604 37.1921Z" fill="#404B4D"/>
<path d="M6.09302 40.6664L5.87064 40.5382V40.0071L6.09302 40.1379V40.6664Z" fill="#BFC0C4"/>
<path d="M0.22503 35.5307C0.306132 35.6066 0.387236 35.6799 0.470955 35.7531C0.504965 35.7819 0.538976 35.8133 0.572987 35.8421C0.641008 35.9022 0.709029 35.9598 0.777051 36.02C0.910478 36.1325 1.0439 36.245 1.17733 36.3522C3.54762 38.2856 7.58966 40.4021 9.13584 41.0326C9.55444 41.2027 9.90763 41.3335 10.1771 41.4277C10.2556 41.4538 10.3262 41.48 10.389 41.5009C10.6245 41.5794 10.7527 41.616 10.7527 41.616V41.3753L10.7579 41.2105L10.7684 40.4728L10.7814 40.1614L10.9646 35.2743L11.0928 32.4724C10.2974 32.7602 7.83559 31.9491 5.67983 30.6829C4.63596 30.0707 2.05899 28.5795 1.40232 28.0745C0.892164 27.6821 0.572986 27.3211 0.567753 26.9993L0.562524 27.2687L0.470955 34.2095L0.308751 35.0886L0.227649 35.5307H0.22503Z" fill="#1E2329"/>
<path d="M0.468288 34.2096V35.7532C0.502299 35.782 0.53631 35.8133 0.57032 35.8421C0.638342 35.9023 0.706363 35.9599 0.774384 36.02C0.907811 36.1325 1.04124 36.245 1.17466 36.3523C3.54495 38.2857 7.587 40.4022 9.13318 41.0327C9.55177 41.2027 9.90496 41.3336 10.1744 41.4277C10.2529 41.4539 10.3236 41.4801 10.3863 41.501C10.5145 41.4591 10.6401 41.4173 10.7552 41.3754V41.2106L10.7683 40.4728C10.6767 40.4624 10.5826 40.4493 10.4858 40.4388L10.525 40.0856C10.5067 40.0804 10.491 40.0778 10.4727 40.0725C10.1666 39.9967 8.80877 39.4002 8.45035 39.183C8.09193 38.9633 6.01727 37.5217 5.876 37.3177C5.73734 37.111 5.57775 35.8997 5.32136 35.6956C5.06497 35.4889 2.29702 33.9585 2.29702 33.9585L1.65605 34.0631C1.65605 34.0631 1.16681 33.7465 0.46567 34.2122L0.468288 34.2096Z" fill="#272E36"/>
<path d="M0.468221 34.2069C0.651356 34.3744 0.82664 33.6915 1.00977 33.8511C1.04117 33.804 1.27924 30.3768 1.39697 28.0745C0.886811 27.6821 0.567637 27.3211 0.562405 26.9993L0.465602 34.2095L0.468221 34.2069Z" fill="#313942"/>
<path d="M0.224908 34.7695C0.224908 34.7695 0.253686 34.8977 0.30601 35.0861C0.366182 35.2928 0.455136 35.5753 0.57025 35.8395C0.638271 35.8997 0.706292 35.9573 0.774314 36.0174C0.907741 36.1299 1.04117 36.2424 1.17459 36.3497C3.54488 38.2831 7.58693 40.3996 9.13311 41.0301C9.36857 41.1269 9.5831 41.208 9.77408 41.2813C9.79501 41.2891 9.81594 41.297 9.83687 41.3048C9.8578 41.3127 9.87873 41.3205 9.89704 41.3284C9.9389 41.3441 9.97814 41.3571 10.0148 41.3702C10.0514 41.3833 10.0854 41.3964 10.1194 41.4068C10.1377 41.4121 10.1534 41.4199 10.1717 41.4252C10.3941 41.3545 10.593 41.2786 10.7552 41.208L10.7656 40.6011C10.6767 40.6063 10.5799 40.601 10.4778 40.5827L10.4883 40.4362C10.2973 40.4127 10.1116 40.397 9.98338 40.4127C9.77408 40.4362 9.48107 40.8522 9.2613 40.8391C9.04154 40.826 7.41949 39.9235 6.20295 39.3217C4.98641 38.72 1.76848 36.5198 1.73185 36.3994C1.69522 36.2817 1.24785 35.0128 1.17721 34.9082C1.10657 34.8035 0.470833 34.207 0.470833 34.207L0.245838 34.5131L0.227527 34.7669L0.224908 34.7695Z" fill="#535C5E"/>
<path d="M45.3677 0.0157162C45.836 -0.204045 49.729 1.76596 51.7984 2.95634C53.9594 4.20165 55.8901 5.61964 55.8901 6.10102L11.5087 31.7242C10.8416 31.9937 7.86435 30.4553 5.58563 29.0792C3.59208 27.8757 0.586048 25.9188 0.986328 25.6415L45.3677 0.0157162Z" fill="#EAEAEA"/>
<path d="M55.9895 6.55891L11.8305 31.9859L11.0901 32.1559L11.5113 31.7242L55.8901 6.10107L55.9895 6.55891Z" fill="#E3E3E3"/>
<path d="M8.96558 44.8471L8.61239 44.4913C8.61239 44.4913 8.47634 43.9393 8.45018 43.8739C8.42402 43.8085 7.34091 43.6201 5.49125 42.4873C3.64159 41.3545 1.39949 39.7979 1.39949 39.7979C1.39949 39.7979 1.37333 40.2819 1.4335 40.3289C1.49367 40.376 1.82593 40.7815 1.82593 40.7815C1.82593 40.7815 6.09036 43.819 8.96296 44.8471H8.96558Z" fill="#1E1E1E"/>
<path d="M1.91228 37.8722C1.94891 38.4557 2.29163 38.9475 2.43291 39.0469C2.8018 39.3112 6.09822 41.4434 7.36447 42.0059C7.82754 42.2125 8.4502 41.6762 8.4502 41.6762C8.4502 41.6762 7.84847 41.9849 7.35924 41.7939C6.63978 41.514 2.80703 39.1045 2.41459 38.7775C2.02216 38.4504 1.91228 37.8696 1.91228 37.8696V37.8722Z" fill="#535C5E"/>
<path d="M9.61978 42.2596C9.58577 42.4689 9.4131 42.5736 9.22996 42.4925C9.04683 42.414 8.92649 42.1812 8.95788 41.9719C8.98927 41.7626 9.16456 41.6579 9.34769 41.739C9.53083 41.8175 9.65118 42.0503 9.61978 42.2596Z" fill="#BFC0C4"/>
<path d="M8.97887 41.9824C8.94748 42.1786 9.06259 42.3984 9.23265 42.4716C9.35299 42.5213 9.4681 42.4925 9.53874 42.4036C9.57014 42.3643 9.59106 42.312 9.60153 42.2518C9.63292 42.0556 9.51781 41.8359 9.34514 41.76C9.28235 41.7338 9.22218 41.7286 9.16986 41.7443C9.07306 41.7705 8.9998 41.8542 8.97887 41.9824Z" fill="#CFD3D6"/>
<path d="M9.10707 41.8934C9.07567 42.0896 9.19079 42.3093 9.36346 42.3826C9.42625 42.4088 9.48642 42.414 9.53874 42.4009C9.57014 42.3617 9.59106 42.3093 9.60153 42.2492C9.63292 42.0529 9.51781 41.8332 9.34514 41.7573C9.28235 41.7312 9.22218 41.7259 9.16986 41.7416C9.13846 41.7809 9.11753 41.8332 9.10707 41.8934Z" fill="#F9FFFF"/>
<path d="M9.26142 41.9509C9.24049 42.0765 9.31635 42.2178 9.42623 42.2649C9.46548 42.2832 9.50472 42.2858 9.53873 42.2753C9.55966 42.2492 9.57274 42.2178 9.57798 42.1785C9.59891 42.053 9.52565 41.9117 9.41315 41.862C9.37391 41.8463 9.33467 41.841 9.30066 41.8515C9.27973 41.8777 9.26665 41.9091 9.26142 41.9483V41.9509Z" fill="#F9FFFF"/>
<path d="M10.4673 41.8568C10.4386 42.0347 10.2894 42.1237 10.1325 42.0583C9.9755 41.9903 9.87347 41.7914 9.89963 41.6135C9.92841 41.4356 10.0775 41.3467 10.2345 41.4121C10.3915 41.4801 10.4935 41.6789 10.4673 41.8568Z" fill="#BFC0C4"/>
<path d="M9.91801 41.6214C9.89185 41.7888 9.98865 41.9772 10.1352 42.04C10.2372 42.0844 10.3366 42.0583 10.3968 41.9798C10.4229 41.9458 10.4413 41.9013 10.4491 41.849C10.4753 41.6815 10.3785 41.4932 10.2293 41.4278C10.177 41.4042 10.1247 41.4016 10.0776 41.4147C9.99388 41.4356 9.9311 41.5089 9.9154 41.6188L9.91801 41.6214Z" fill="#CFD3D6"/>
<path d="M10.028 41.5455C10.0018 41.7129 10.0986 41.9013 10.2477 41.9641C10.3001 41.9876 10.3524 41.9903 10.3995 41.9798C10.4256 41.9458 10.4439 41.9013 10.4518 41.849C10.478 41.6815 10.3812 41.4932 10.232 41.4278C10.1797 41.4042 10.1274 41.4016 10.0803 41.4147C10.0541 41.4487 10.0358 41.4932 10.028 41.5429V41.5455Z" fill="#F9FFFF"/>
<path d="M10.1613 41.5926C10.1429 41.6999 10.2084 41.8202 10.3025 41.8621C10.3366 41.8778 10.3706 41.8804 10.3993 41.8725C10.415 41.8516 10.4281 41.8228 10.4334 41.7888C10.4517 41.6816 10.3889 41.5586 10.2921 41.5194C10.2581 41.5037 10.2241 41.5037 10.1953 41.5115C10.1796 41.5324 10.1665 41.5612 10.1613 41.5952V41.5926Z" fill="#F9FFFF"/>
<path d="M1.38909 37.4014C1.38124 37.6185 1.22689 37.7075 1.04375 37.5976C0.86062 37.4877 0.719343 37.2235 0.727191 37.0063C0.73504 36.7892 0.889398 36.7002 1.07253 36.8101C1.25567 36.92 1.39694 37.1842 1.38909 37.4014Z" fill="#BFC0C4"/>
<path d="M0.745668 37.0168C0.737819 37.2209 0.871246 37.4721 1.04392 37.5741C1.16426 37.6447 1.26891 37.629 1.32647 37.5427C1.35263 37.5035 1.36571 37.4511 1.36832 37.3883C1.37617 37.1817 1.24275 36.9331 1.07008 36.8285C1.00729 36.7918 0.949731 36.7788 0.900023 36.7866C0.811072 36.7997 0.7509 36.8808 0.745668 37.0142V37.0168Z" fill="#CFD3D6"/>
<path d="M0.858163 36.941C0.850314 37.1477 0.983741 37.3962 1.15641 37.4982C1.2192 37.5349 1.27676 37.5479 1.32647 37.5427C1.35263 37.5035 1.36571 37.4511 1.36832 37.3883C1.37617 37.1817 1.24275 36.9331 1.07008 36.8285C1.00729 36.7918 0.949731 36.7788 0.900023 36.7866C0.873861 36.8232 0.860779 36.8756 0.858163 36.9384V36.941Z" fill="#F9FFFF"/>
<path d="M1.01235 37.0221C1.00711 37.1529 1.09345 37.3151 1.20333 37.3805C1.24257 37.404 1.28182 37.4119 1.31321 37.4093C1.32891 37.3831 1.33937 37.3517 1.33937 37.3098C1.34461 37.179 1.25827 37.0168 1.14839 36.9514C1.10914 36.9279 1.0699 36.92 1.03851 36.9253C1.02281 36.9488 1.01234 36.9828 1.00973 37.0221H1.01235Z" fill="#F9FFFF"/>
<path d="M10.0644 44.5933C10.0356 44.7608 9.8839 44.8445 9.72693 44.7817C9.56996 44.7189 9.46269 44.5331 9.49147 44.3657C9.52025 44.1983 9.67199 44.1146 9.82896 44.1773C9.98593 44.2401 10.0932 44.4259 10.0644 44.5933Z" fill="#BFC0C4"/>
<path d="M9.50724 44.371C9.48108 44.528 9.5805 44.7032 9.72962 44.7634C9.83427 44.8053 9.93369 44.7791 9.99386 44.7085C10.02 44.6771 10.041 44.6352 10.0488 44.5881C10.075 44.4312 9.97555 44.2533 9.82642 44.1957C9.77148 44.1748 9.71916 44.1722 9.67468 44.1826C9.59096 44.2035 9.52556 44.2716 9.50986 44.3736L9.50724 44.371Z" fill="#1E1E1E"/>
<path d="M9.61974 44.303C9.59358 44.4599 9.693 44.6352 9.84212 44.6954C9.89706 44.7163 9.94938 44.7216 9.99386 44.7085C10.02 44.6771 10.041 44.6352 10.0488 44.5881C10.075 44.4312 9.97555 44.2533 9.82642 44.1957C9.77148 44.1748 9.71916 44.1722 9.67468 44.1826C9.64852 44.214 9.62759 44.2559 9.61974 44.303Z" fill="#383F46"/>
<path d="M9.75329 44.3448C9.73498 44.4468 9.80039 44.5593 9.89719 44.596C9.9312 44.609 9.96521 44.6116 9.9966 44.6038C10.0149 44.5829 10.0254 44.5567 10.0306 44.5253C10.0489 44.4233 9.98352 44.3108 9.88934 44.2715C9.85533 44.2585 9.82131 44.2558 9.78992 44.2637C9.77161 44.2846 9.76114 44.3108 9.75591 44.3422L9.75329 44.3448Z" fill="#EAEAEA"/>
<path d="M0.95747 39.3216C0.939157 39.4838 0.842358 39.544 0.737709 39.4551C0.635677 39.3661 0.567655 39.1647 0.585969 39.0024C0.604282 38.8402 0.701081 38.7801 0.805729 38.869C0.907762 38.958 0.975784 39.1594 0.95747 39.3216Z" fill="#BFC0C4"/>
<path d="M0.599162 39.013C0.580849 39.1647 0.646251 39.3583 0.74305 39.4394C0.811072 39.497 0.873863 39.4865 0.913107 39.4264C0.93142 39.3976 0.941886 39.361 0.947119 39.3139C0.965432 39.1595 0.900026 38.9685 0.803226 38.8848C0.769215 38.856 0.735203 38.8429 0.703809 38.8482C0.648868 38.856 0.607008 38.9136 0.596543 39.013H0.599162Z" fill="#1E1E1E"/>
<path d="M0.669797 38.9607C0.651483 39.115 0.716889 39.306 0.813689 39.3871C0.8477 39.4185 0.881712 39.429 0.913107 39.4264C0.93142 39.3976 0.941886 39.361 0.947119 39.3139C0.965432 39.1595 0.900026 38.9685 0.803226 38.8848C0.769215 38.856 0.735203 38.8429 0.703809 38.8482C0.685495 38.8743 0.675029 38.9136 0.669797 38.9607Z" fill="#1E1E1E"/>
<path d="M0.755958 39.026C0.745493 39.1254 0.787354 39.2484 0.847527 39.3007C0.871073 39.319 0.892 39.3269 0.910314 39.3243C0.920779 39.3059 0.92863 39.2824 0.933863 39.251C0.944328 39.1516 0.905083 39.0286 0.842294 38.9763C0.818748 38.958 0.797817 38.9501 0.779503 38.9528C0.769038 38.9711 0.761191 38.9946 0.755958 39.026Z" fill="white"/>
<path d="M0.562457 29.2415C0.664489 29.4665 0.886867 29.7699 1.28191 30.0682C1.67696 30.3664 4.17544 31.876 5.82366 32.8858C7.47187 33.8957 9.43141 34.8925 10.2634 35.1358C11.0979 35.3791 10.9488 35.1593 10.9645 35.3556C10.9802 35.5492 10.627 40.3865 10.627 40.5383C10.627 40.5906 10.5642 40.5958 10.4753 40.5854C10.3078 40.5618 10.0515 40.4781 9.95465 40.5383C9.80815 40.6298 9.51775 41.0301 9.13055 41.0327C9.36601 41.1295 9.58054 41.2106 9.77152 41.2839C9.79245 41.2917 9.81338 41.2996 9.83431 41.3074C9.85524 41.3153 9.87617 41.3231 9.89448 41.331C9.93634 41.3467 9.97558 41.3598 10.0122 41.3728C10.0488 41.3859 10.0828 41.399 10.1169 41.4095C10.1352 41.4147 10.1509 41.4225 10.1692 41.4278C10.5381 41.556 10.7474 41.6161 10.7474 41.6161L10.7526 41.2106L10.7631 40.6037L11.0901 32.4751C10.2948 32.7629 7.8329 31.3868 5.67715 30.1205C4.63328 29.5083 2.05631 28.0171 1.39964 27.5122C0.889482 27.1197 0.570304 26.7587 0.565071 26.4369L0.559838 27.2715C0.559838 27.3316 0.559838 29.2075 0.559838 29.2467L0.562457 29.2415Z" fill="#404B4D"/>
<path d="M0.224955 35.5308C0.40809 35.6982 0.625237 35.918 0.810988 36.0776C0.944415 36.1901 1.41272 36.538 1.54614 36.6479C1.18772 36.1299 1.01767 35.2979 0.852848 35.1671C0.444719 34.8401 0.282512 34.5471 0.245885 34.5183L0.227574 35.5334L0.224955 35.5308Z" fill="#41404A"/>
<path d="M0.237965 36.9514C0.237965 36.9514 0.0129704 37.4249 -0.000110686 37.5924C-0.0131918 37.7572 0.101921 37.9927 0.101921 37.9927L0.24058 37.8409L0.253662 37.4563L0.237965 36.9514Z" fill="#EAEAEA"/>
<path d="M10.4753 40.5827C10.8887 40.6586 11.425 40.3577 11.5061 40.2086C11.4956 40.2165 11.1084 40.5069 10.8337 40.4755C10.8128 40.4755 10.7893 40.4702 10.7683 40.4676C10.6768 40.4572 10.5826 40.4441 10.4858 40.4336L10.4753 40.5801V40.5827Z" fill="#535C5E"/>
<path d="M10.4856 40.4362C10.5798 40.4467 10.6766 40.4597 10.7682 40.4702C10.7917 40.4702 10.8126 40.4754 10.8336 40.4781C10.9487 40.4911 11.0873 40.4467 11.2051 40.3917C11.0743 40.2818 10.9225 40.2112 10.7813 40.1589C10.6897 40.1249 10.6007 40.1013 10.5249 40.083L10.4856 40.4362Z" fill="#272E36"/>
<path d="M10.5249 40.083C10.6007 40.1039 10.6897 40.1275 10.7812 40.1589C10.9225 40.2112 11.0743 40.2818 11.2051 40.3917C11.3699 40.3158 11.5007 40.2138 11.5059 40.2112C11.587 40.0647 11.6603 36.1534 11.5949 36.088C11.5321 36.0226 11.2836 35.2535 10.9618 35.2692V35.2744L10.5222 40.083H10.5249Z" fill="#1E2329"/>
<g style="mix-blend-mode:multiply">
<path d="M11.459 31.0989L55.1235 5.85246L55.0137 5.78967L11.4224 31.0989H11.459Z" fill="#EBEBEB"/>
</g>
<path d="M11.4223 31.0623L55.0842 5.81584L54.9743 5.75305L11.3098 30.9995L11.4223 31.0623Z" fill="#EAEAEA"/>
<path d="M11.4224 31.0623V31.0989L11.3099 31.0361V30.9995L11.4224 31.0623Z" fill="#EAE9E6"/>
<path d="M11.4223 31.0989L55.0842 5.85242V5.8158L11.4223 31.0622V31.0989Z" fill="#E6E4E1"/>
<g style="mix-blend-mode:multiply">
<path d="M10.1116 30.3192L53.7761 5.0728L53.6636 5.01001L10.0723 30.3192H10.1116Z" fill="#EBEBEB"/>
</g>
<path d="M10.0723 30.2826L53.7368 5.03879L53.6269 4.97339L9.96237 30.2198L10.0723 30.2826Z" fill="#EAEAEA"/>
<path d="M10.0723 30.2826V30.3193L9.96239 30.2565V30.2198L10.0723 30.2826Z" fill="#EAE9E6"/>
<path d="M10.0723 30.3193L53.7368 5.07283V5.03882L10.0723 30.2826V30.3193Z" fill="#E6E4E1"/>
<g style="mix-blend-mode:multiply">
<path d="M8.76433 29.5397L52.4263 4.29587L52.3164 4.23047L8.72509 29.5397H8.76433Z" fill="#EBEBEB"/>
</g>
<path d="M8.72509 29.5031L52.3896 4.25925L52.2772 4.19385L8.61521 29.4403L8.72509 29.5031Z" fill="#EAEAEA"/>
<path d="M8.7251 29.503V29.5396L8.61522 29.4768V29.4402L8.7251 29.503Z" fill="#EAE9E6"/>
<path d="M8.72509 29.5396L52.3896 4.29578V4.25916L8.72509 29.503V29.5396Z" fill="#E6E4E1"/>
<g style="mix-blend-mode:multiply">
<path d="M7.41429 28.76L51.0789 3.51621L50.969 3.45081L7.37766 28.76H7.41429Z" fill="#EBEBEB"/>
</g>
<path d="M7.3776 28.7234L51.0396 3.47959L50.9297 3.41418L7.2651 28.6606L7.3776 28.7234Z" fill="#EAEAEA"/>
<path d="M7.37769 28.7234V28.7601L7.26519 28.6973V28.6606L7.37769 28.7234Z" fill="#EAE9E6"/>
<path d="M7.3776 28.7601L51.0396 3.51624V3.47961L7.3776 28.7234V28.7601Z" fill="#E6E4E1"/>
<g style="mix-blend-mode:multiply">
<path d="M6.06688 27.9804L49.7314 2.73655L49.6189 2.67114L6.02764 27.9804H6.06688Z" fill="#EBEBEB"/>
</g>
<path d="M6.02758 27.9464L49.6921 2.7L49.5823 2.63721L5.9177 27.881L6.02758 27.9464Z" fill="#EAEAEA"/>
<path d="M6.02759 27.9464V27.9804L5.91771 27.9176V27.881L6.02759 27.9464Z" fill="#EAE9E6"/>
<path d="M6.02758 27.9804L49.6921 2.73658V2.69995L6.02758 27.9464V27.9804Z" fill="#E6E4E1"/>
<g style="mix-blend-mode:multiply">
<path d="M4.71964 27.2008L48.3816 1.95695L48.2717 1.89417L4.6804 27.2008H4.71964Z" fill="#EBEBEB"/>
</g>
<path d="M4.6804 27.1668L48.345 1.92033L48.2351 1.85754L4.57052 27.1014L4.6804 27.1668Z" fill="#EAEAEA"/>
<path d="M4.68042 27.1667V27.2007L4.57054 27.1379V27.1013L4.68042 27.1667Z" fill="#EAE9E6"/>
<path d="M4.6804 27.2007L48.345 1.95692V1.92029L4.6804 27.1667V27.2007Z" fill="#E6E4E1"/>
<g style="mix-blend-mode:multiply">
<path d="M3.36962 26.4237L47.0342 1.17729L46.9243 1.1145L3.333 26.4237H3.36962Z" fill="#EBEBEB"/>
</g>
<path d="M3.33292 26.3871L46.9949 1.14067L46.885 1.07788L3.22042 26.3217L3.33292 26.3871Z" fill="#EAEAEA"/>
<path d="M3.33301 26.3872V26.4238L3.22051 26.3584V26.3218L3.33301 26.3872Z" fill="#EAE9E6"/>
<path d="M3.33292 26.4238L46.9949 1.17737V1.14075L3.33292 26.3872V26.4238Z" fill="#E6E4E1"/>
<g style="mix-blend-mode:multiply">
<path d="M2.0222 25.6441L45.6868 0.397628L45.5743 0.334839L1.98296 25.6441H2.0222Z" fill="#EBEBEB"/>
</g>
<path d="M1.98314 25.6074L45.6477 0.361007L45.5378 0.298218L1.87326 25.5447L1.98314 25.6074Z" fill="#EAEAEA"/>
<path d="M1.98291 25.6075V25.6441L1.87303 25.5787V25.5447L1.98291 25.6075Z" fill="#EAE9E6"/>
<path d="M1.98314 25.6441L45.6477 0.397711V0.361084L1.98314 25.6075V25.6441Z" fill="#E6E4E1"/>
<path d="M0.857984 36.1849C0.852752 36.3706 0.740257 36.4387 0.60683 36.334C0.473403 36.2294 0.368754 35.9965 0.376602 35.8108C0.381835 35.625 0.494333 35.557 0.62776 35.6616C0.761187 35.7663 0.865833 35.9991 0.857984 36.1849Z" fill="#BFC0C4"/>
<path d="M0.387105 35.8185C0.381872 35.9938 0.478673 36.2162 0.604251 36.313C0.693202 36.381 0.769074 36.3705 0.810934 36.3025C0.829247 36.2711 0.839711 36.2266 0.842327 36.1743C0.847559 35.999 0.75076 35.7767 0.622566 35.6799C0.57809 35.6459 0.533616 35.6302 0.496989 35.6354C0.431584 35.6432 0.387106 35.7086 0.38449 35.8211L0.387105 35.8185Z" fill="#CFD3D6"/>
<path d="M0.468211 35.761C0.462978 35.9362 0.559777 36.1586 0.687971 36.2554C0.732447 36.2921 0.776923 36.3051 0.810934 36.3025C0.829247 36.2711 0.839711 36.2266 0.842327 36.1743C0.847559 35.999 0.75076 35.7767 0.622566 35.6799C0.57809 35.6459 0.533616 35.6302 0.496989 35.6354C0.478676 35.6668 0.468208 35.7086 0.465592 35.7636L0.468211 35.761Z" fill="#F9FFFF"/>
<path d="M0.58083 35.8395C0.578214 35.952 0.641005 36.0933 0.722108 36.1561C0.750886 36.1796 0.779664 36.1875 0.80321 36.1848C0.813675 36.1639 0.821524 36.1377 0.82414 36.1011C0.826756 35.9886 0.763965 35.8447 0.682862 35.7819C0.654084 35.7584 0.625306 35.7506 0.60176 35.7532C0.591295 35.7741 0.583446 35.8003 0.58083 35.8343V35.8395Z" fill="#F9FFFF"/>
<path d="M10.0173 32.8884L9.90745 34.6648L1.18239 29.5893L1.30273 28.017L10.0173 32.8884Z" fill="#1E1E1E"/>
<path d="M23.2475 36.7656C23.2475 36.8624 23.3156 36.9017 23.3993 36.852C23.483 36.8022 23.551 36.6871 23.551 36.5903C23.551 36.4935 23.483 36.4543 23.3993 36.504C23.3156 36.5537 23.2475 36.6688 23.2475 36.7656Z" fill="#A5ABAF"/>
<path d="M23.2319 36.6871C23.2319 36.7839 23.2999 36.8232 23.3837 36.7735C23.4674 36.7238 23.5354 36.6086 23.5354 36.5118C23.5354 36.415 23.4674 36.3758 23.3837 36.4255C23.2999 36.4752 23.2319 36.5903 23.2319 36.6871Z" fill="#9DA1BF"/>
<path d="M23.2659 36.7029C23.2659 36.7997 23.3339 36.8389 23.4176 36.7892C23.5013 36.7395 23.5693 36.6244 23.5693 36.5276C23.5693 36.4308 23.5013 36.3915 23.4176 36.4413C23.3339 36.491 23.2659 36.6061 23.2659 36.7029Z" fill="#F9F1EC"/>
<path d="M23.2868 36.6898C23.2868 36.7709 23.3444 36.8049 23.415 36.7631C23.4857 36.7212 23.5432 36.6218 23.5432 36.5407C23.5432 36.4596 23.4857 36.4256 23.415 36.4674C23.3444 36.5093 23.2868 36.6087 23.2868 36.6898Z" fill="#E06F2E"/>
<path d="M28.1321 34.0421C28.1321 34.1389 28.2001 34.1782 28.2838 34.1284C28.3675 34.0787 28.4355 33.9636 28.4355 33.8668C28.4355 33.77 28.3675 33.7308 28.2838 33.7805C28.2001 33.8302 28.1321 33.9453 28.1321 34.0421Z" fill="#A5ABAF"/>
<path d="M28.1164 33.9663C28.1164 34.0631 28.1845 34.1023 28.2682 34.0526C28.3519 34.0029 28.4199 33.8878 28.4199 33.791C28.4199 33.6942 28.3519 33.655 28.2682 33.7047C28.1845 33.7544 28.1164 33.8695 28.1164 33.9663Z" fill="#9DA1BF"/>
<path d="M28.1504 33.9794C28.1504 34.0762 28.2184 34.1154 28.3021 34.0657C28.3858 34.016 28.4539 33.9009 28.4539 33.8041C28.4539 33.7073 28.3858 33.668 28.3021 33.7177C28.2184 33.7674 28.1504 33.8826 28.1504 33.9794Z" fill="#F9F1EC"/>
<path d="M28.1713 33.9663C28.1713 34.0474 28.2289 34.0814 28.2995 34.0396C28.3702 33.9977 28.4277 33.8983 28.4277 33.8172C28.4277 33.7361 28.3702 33.7021 28.2995 33.7439C28.2289 33.7858 28.1713 33.8852 28.1713 33.9663Z" fill="#E06F2E"/>
<path d="M35.3999 30.1047C35.3999 30.2015 35.4679 30.2408 35.5516 30.1911C35.6353 30.1414 35.7034 30.0262 35.7034 29.9294C35.7034 29.8326 35.6353 29.7934 35.5516 29.8431C35.4679 29.8928 35.3999 30.0079 35.3999 30.1047Z" fill="#A5ABAF"/>
<path d="M35.3843 30.0289C35.3843 30.1257 35.4523 30.165 35.536 30.1153C35.6197 30.0656 35.6877 29.9504 35.6877 29.8536C35.6877 29.7568 35.6197 29.7176 35.536 29.7673C35.4523 29.817 35.3843 29.9321 35.3843 30.0289Z" fill="#9DA1BF"/>
<path d="M35.4182 30.042C35.4182 30.1388 35.4862 30.178 35.5699 30.1283C35.6537 30.0786 35.7217 29.9635 35.7217 29.8667C35.7217 29.7699 35.6537 29.7307 35.5699 29.7804C35.4862 29.8301 35.4182 29.9452 35.4182 30.042Z" fill="#F9F1EC"/>
<path d="M35.4392 30.0289C35.4392 30.11 35.4967 30.144 35.5674 30.1022C35.638 30.0603 35.6956 29.9609 35.6956 29.8798C35.6956 29.7987 35.638 29.7647 35.5674 29.8066C35.4967 29.8484 35.4392 29.9478 35.4392 30.0289Z" fill="#E06F2E"/>
<path d="M40.5068 27.3054C40.5068 27.4022 40.5748 27.4415 40.6586 27.3917C40.7423 27.342 40.8103 27.2269 40.8103 27.1301C40.8103 27.0333 40.7423 26.9941 40.6586 27.0438C40.5748 27.0935 40.5068 27.2086 40.5068 27.3054Z" fill="#A5ABAF"/>
<path d="M40.491 27.2269C40.491 27.3237 40.559 27.363 40.6427 27.3133C40.7264 27.2635 40.7944 27.1484 40.7944 27.0516C40.7944 26.9548 40.7264 26.9156 40.6427 26.9653C40.559 27.015 40.491 27.1301 40.491 27.2269Z" fill="#9DA1BF"/>
<path d="M40.5224 27.2427C40.5224 27.3395 40.5905 27.3787 40.6742 27.329C40.7579 27.2793 40.8259 27.1642 40.8259 27.0674C40.8259 26.9706 40.7579 26.9313 40.6742 26.981C40.5905 27.0308 40.5224 27.1459 40.5224 27.2427Z" fill="#F9F1EC"/>
<path d="M40.5459 27.2295C40.5459 27.3106 40.6034 27.3446 40.6741 27.3027C40.7447 27.2609 40.8022 27.1615 40.8022 27.0804C40.8022 26.9993 40.7447 26.9653 40.6741 27.0071C40.6034 27.049 40.5459 27.1484 40.5459 27.2295Z" fill="#E06F2E"/>
<path d="M53.9409 19.2945C53.9409 19.3913 54.0089 19.4306 54.0926 19.3809C54.1764 19.3312 54.2444 19.2161 54.2444 19.1193C54.2444 19.0225 54.1764 18.9832 54.0926 19.0329C54.0089 19.0826 53.9409 19.1977 53.9409 19.2945Z" fill="#A5ABAF"/>
<path d="M53.9253 19.2161C53.9253 19.3129 53.9933 19.3521 54.077 19.3024C54.1607 19.2527 54.2288 19.1376 54.2288 19.0408C54.2288 18.944 54.1607 18.9047 54.077 18.9544C53.9933 19.0041 53.9253 19.1193 53.9253 19.2161Z" fill="#9DA1BF"/>
<path d="M53.9568 19.2318C53.9568 19.3286 54.0248 19.3678 54.1085 19.3181C54.1922 19.2684 54.2603 19.1533 54.2603 19.0565C54.2603 18.9597 54.1922 18.9205 54.1085 18.9702C54.0248 19.0199 53.9568 19.135 53.9568 19.2318Z" fill="#F9F1EC"/>
<path d="M53.9802 19.2187C53.9802 19.2999 54.0377 19.3339 54.1084 19.292C54.179 19.2501 54.2366 19.1507 54.2366 19.0696C54.2366 18.9885 54.179 18.9545 54.1084 18.9964C54.0377 19.0382 53.9802 19.1376 53.9802 19.2187Z" fill="#E06F2E"/>
<g style="mix-blend-mode:multiply">
<path d="M8.09969 30.1649L8.45288 29.9635L8.17295 29.796L7.89825 30.1649H8.09969Z" fill="#EBE7E3"/>
</g>
<path d="M7.89819 30.165L7.61826 29.9975V29.8589L7.89819 30.0263V30.165Z" fill="#E07427"/>
<path d="M7.89827 30.0262L8.25146 29.8248L7.97153 29.6573L7.61834 29.8588L7.89827 30.0262Z" fill="#FF9A2E"/>
<path d="M7.89827 30.0263L8.25146 29.8248V29.9635L7.89827 30.1649V30.0263Z" fill="#E06F2E"/>
<g style="mix-blend-mode:multiply">
<path d="M6.70272 29.3356L7.05591 29.1315L6.77859 28.9667L6.50389 29.3356H6.70272Z" fill="#EBE7E3"/>
</g>
<path d="M6.50391 29.3356L6.22397 29.1682V29.0295L6.50391 29.197V29.3356Z" fill="#E07427"/>
<path d="M6.50374 29.1969L6.85693 28.9928L6.577 28.828L6.22381 29.0295L6.50374 29.1969Z" fill="#FF9A2E"/>
<path d="M6.50374 29.197L6.85693 28.9929V29.1316L6.50374 29.3356V29.197Z" fill="#E06F2E"/>
<g style="mix-blend-mode:multiply">
<path d="M5.30819 28.5036L5.66138 28.3021L5.38406 28.1373L5.10936 28.5036H5.30819Z" fill="#EBE7E3"/>
</g>
<path d="M5.10938 28.5037L4.82944 28.3389V28.2002L5.10938 28.365V28.5037Z" fill="#E07427"/>
<path d="M5.10946 28.3649L5.46265 28.1635L5.18271 27.9987L4.82952 28.2001L5.10946 28.3649Z" fill="#FF9A2E"/>
<path d="M5.10946 28.365L5.46265 28.1636V28.3022L5.10946 28.5037V28.365Z" fill="#E06F2E"/>
<path d="M23.3077 19.8022L27.9175 17.1415C28.1713 16.995 28.1373 16.7412 27.8469 16.5711L25.8455 15.4148C25.5551 15.2473 25.1129 15.229 24.8592 15.3729L20.2494 18.0336C19.9956 18.1801 20.0296 18.4339 20.32 18.6039L22.3214 19.7603C22.6144 19.9277 23.054 19.946 23.3077 19.8022Z" fill="#7A7F84"/>
<path d="M22.8787 19.9905C23.054 19.9905 23.224 19.9539 23.3522 19.8806L27.962 17.2199C28.1006 17.1388 28.1765 17.0237 28.1765 16.8955C28.1765 16.7464 28.0719 16.6025 27.8913 16.4978L25.8899 15.3415C25.5682 15.1557 25.0972 15.1374 24.8147 15.2996L20.2049 17.9603C20.0663 18.0414 19.9904 18.1565 19.9904 18.2847C19.9904 18.4338 20.095 18.5777 20.2756 18.6824L22.277 19.8387C22.4522 19.9382 22.6694 19.9905 22.8787 19.9905ZM23.2633 19.7262C23.0383 19.8544 22.6275 19.8361 22.3659 19.6844L20.3645 18.528C20.2415 18.4574 20.1683 18.3658 20.1683 18.2821C20.1683 18.1984 20.2363 18.1461 20.2939 18.112L24.9036 15.4514C25.1286 15.3232 25.5394 15.3415 25.801 15.4932L27.8024 16.6496C27.9254 16.7202 27.9986 16.8118 27.9986 16.8955C27.9986 16.9792 27.9306 17.0315 27.873 17.0656L23.2633 19.7262Z" fill="#383F46"/>
<path d="M39.3712 10.5276L43.981 7.86693C44.2348 7.72042 44.2007 7.46665 43.9103 7.2966L41.9089 6.14023C41.6159 5.97279 41.1764 5.95448 40.9226 6.09837L36.3129 8.75906C36.0591 8.90557 36.0931 9.15934 36.3835 9.32939L38.3849 10.4858C38.6779 10.6532 39.1174 10.6715 39.3712 10.5276Z" fill="#7A7F84"/>
<path d="M38.9422 10.7134C39.1174 10.7134 39.2875 10.6768 39.4157 10.6035L44.0255 7.94281C44.1641 7.86171 44.24 7.7466 44.24 7.6184C44.24 7.46928 44.1353 7.32539 43.9548 7.22074L41.9534 6.06437C41.6316 5.87862 41.1607 5.86031 40.8782 6.02252L36.2684 8.6832C36.1297 8.7643 36.0539 8.87942 36.0539 9.00761C36.0539 9.15674 36.1585 9.30063 36.339 9.40528L38.3404 10.5616C38.5157 10.6611 38.7329 10.7134 38.9422 10.7134ZM41.3517 6.09054C41.5296 6.09054 41.7206 6.1324 41.8671 6.21873L43.8685 7.3751C43.9915 7.44573 44.0647 7.5373 44.0647 7.62102C44.0647 7.70474 43.9967 7.75706 43.9391 7.79107L39.3294 10.4518C39.1044 10.58 38.6936 10.5616 38.432 10.4099L36.4306 9.25354C36.3076 9.1829 36.2344 9.09133 36.2344 9.00761C36.2344 8.92389 36.3024 8.87157 36.36 8.83756L40.9697 6.17687C41.0691 6.11932 41.2078 6.09054 41.3517 6.09054Z" fill="#383F46"/>
<defs>
<linearGradient id="paint0_linear_160_13793" x1="18.2454" y1="41.1661" x2="20.9819" y2="36.423" gradientUnits="userSpaceOnUse">
<stop stop-color="#181818"/>
<stop offset="0.27" stop-color="#262626"/>
<stop offset="0.77" stop-color="#2E2E2E"/>
</linearGradient>
<linearGradient id="paint1_linear_160_13793" x1="21.6367" y1="41.0792" x2="19.7085" y2="37.7357" gradientUnits="userSpaceOnUse">
<stop stop-color="#141414"/>
<stop offset="0.44" stop-color="#1E1E1E"/>
<stop offset="0.78" stop-color="#202020"/>
<stop offset="0.98" stop-color="#282828"/>
<stop offset="1" stop-color="#2A2A2A"/>
</linearGradient>
<linearGradient id="paint2_linear_160_13793" x1="21.6492" y1="41.0353" x2="19.7943" y2="37.82" gradientUnits="userSpaceOnUse">
<stop stop-color="#161616"/>
<stop offset="0.3" stop-color="#1A1A1A"/>
<stop offset="0.79" stop-color="#1D1D1D"/>
<stop offset="0.8" stop-color="#1E1E1E"/>
</linearGradient>
<linearGradient id="paint3_linear_160_13793" x1="40.9697" y1="27.8757" x2="43.7089" y2="23.1325" gradientUnits="userSpaceOnUse">
<stop stop-color="#181818"/>
<stop offset="0.27" stop-color="#262626"/>
<stop offset="0.77" stop-color="#2E2E2E"/>
</linearGradient>
<linearGradient id="paint4_linear_160_13793" x1="44.5044" y1="27.8679" x2="42.5736" y2="24.5244" gradientUnits="userSpaceOnUse">
<stop stop-color="#141414"/>
<stop offset="0.44" stop-color="#1E1E1E"/>
<stop offset="0.78" stop-color="#202020"/>
<stop offset="0.98" stop-color="#282828"/>
<stop offset="1" stop-color="#2A2A2A"/>
</linearGradient>
<linearGradient id="paint5_linear_160_13793" x1="44.5881" y1="27.826" x2="42.7332" y2="24.6081" gradientUnits="userSpaceOnUse">
<stop stop-color="#161616"/>
<stop offset="0.3" stop-color="#1A1A1A"/>
<stop offset="0.79" stop-color="#1D1D1D"/>
<stop offset="0.8" stop-color="#1E1E1E"/>
</linearGradient>
</defs>
</svg>
