<svg width="96" height="32" viewBox="0 0 96 32" fill="none" xmlns="http://www.w3.org/2000/svg">
<g clip-path="url(#clip0_339_50)">
<path d="M18.1638 3.2879C17.1736 1.99884 15.9431 1.16167 14.4722 0.776398C13.5153 0.519847 11.462 0.391571 8.31225 0.391571H0.777756C0.571482 0.391571 0.373657 0.473514 0.2278 0.619371C0.0819428 0.765228 0 0.963053 0 1.16933V3.95358C0 4.15985 0.0819428 4.35768 0.2278 4.50353C0.373657 4.64939 0.571482 4.73133 0.777756 4.73133H7.68167C9.54774 4.73133 10.7904 4.7894 11.4098 4.90552C12.2128 5.0379 12.947 5.43927 13.4919 6.0438C14.0401 6.65052 14.3142 7.42017 14.3142 8.35275C14.3286 9.06241 14.124 9.75927 13.7282 10.3484C13.3303 10.9248 12.7645 11.3647 12.1079 11.6082C11.4192 11.8783 10.0541 12.0133 8.01249 12.0133H5.18098H0.779103C0.57283 12.0133 0.375005 12.0953 0.229147 12.2411C0.0832903 12.387 0.00135159 12.5848 0.00135159 12.7911V25.2757C0.00135159 25.4819 0.0832903 25.6798 0.229147 25.8256C0.375005 25.9715 0.57283 26.0534 0.779103 26.0534H4.40322C4.6095 26.0534 4.80732 25.9715 4.95318 25.8256C5.09903 25.6798 5.18098 25.4819 5.18098 25.2757V17.1457C5.18098 16.9394 5.26292 16.7416 5.40878 16.5957C5.55464 16.4499 5.75246 16.3679 5.95873 16.3679H8.55665C10.9025 16.3679 12.6934 16.2455 13.9294 16.0007C14.8962 15.7774 15.8091 15.3643 16.615 14.7854C17.5337 14.1293 18.2812 13.2619 18.7944 12.2564C19.366 11.1843 19.6518 9.86055 19.6518 8.28524C19.6518 6.24274 19.1558 4.57695 18.1638 3.2879Z" fill="#0568A0"/>
<path d="M28.9254 10.7076V25.2676C28.9254 25.4738 28.8434 25.6717 28.6976 25.8175C28.5517 25.9634 28.3539 26.0453 28.1476 26.0453H24.5235C24.3172 26.0453 24.1194 25.9634 23.9735 25.8175C23.8277 25.6717 23.7457 25.4738 23.7457 25.2676V10.7076C23.7457 10.5013 23.8277 10.3035 23.9735 10.1577C24.1194 10.0118 24.3172 9.92986 24.5235 9.92986H28.1476C28.3539 9.92986 28.5517 10.0118 28.6976 10.1577C28.8434 10.3035 28.9254 10.5013 28.9254 10.7076ZM23.7457 7.46697V1.16933C23.7457 0.963053 23.8277 0.765228 23.9735 0.619371C24.1194 0.473514 24.3172 0.391571 24.5235 0.391571H28.1476C28.3539 0.391571 28.5517 0.473514 28.6976 0.619371C28.8434 0.765228 28.9254 0.963053 28.9254 1.16933V7.46427C28.9254 7.67055 28.8434 7.86837 28.6976 8.01423C28.5517 8.16009 28.3539 8.24203 28.1476 8.24203H24.5235C24.3172 8.24203 24.1194 8.16009 23.9735 8.01423C23.8277 7.86837 23.7457 7.67055 23.7457 7.46427V7.46697Z" fill="#0568A0"/>
<path d="M40.4122 0.391571H51.6302C51.8365 0.391571 52.0343 0.473514 52.1801 0.619371C52.326 0.765228 52.4079 0.963053 52.4079 1.16933V3.95358C52.4079 4.15985 52.326 4.35768 52.1801 4.50353C52.0343 4.64939 51.8365 4.73133 51.6302 4.73133H45.5931C45.3869 4.73133 45.189 4.81328 45.0432 4.95913C44.8973 5.10499 44.8154 5.30281 44.8154 5.50909V25.2676C44.8154 25.4738 44.7334 25.6717 44.5876 25.8175C44.4417 25.9634 44.2439 26.0453 44.0376 26.0453H40.4122C40.3101 26.0453 40.209 26.0252 40.1147 25.9861C40.0205 25.947 39.9348 25.8897 39.8627 25.8174C39.7906 25.7452 39.7334 25.6594 39.6945 25.5651C39.6555 25.4707 39.6356 25.3696 39.6358 25.2676V1.16933C39.6356 1.06725 39.6555 0.96615 39.6945 0.871796C39.7334 0.777443 39.7906 0.691692 39.8627 0.619453C39.9348 0.547215 40.0205 0.489904 40.1147 0.450802C40.209 0.411699 40.3101 0.391571 40.4122 0.391571ZM37.1715 4.73133H32.8007C32.5944 4.73133 32.3966 4.64939 32.2507 4.50353C32.1049 4.35768 32.0229 4.15985 32.0229 3.95358V1.16933C32.0229 0.963053 32.1049 0.765228 32.2507 0.619371C32.3966 0.473514 32.5944 0.391571 32.8007 0.391571H37.1688C37.3751 0.391571 37.5729 0.473514 37.7188 0.619371C37.8646 0.765228 37.9466 0.963053 37.9466 1.16933V3.95358C37.9466 4.15985 37.8646 4.35768 37.7188 4.50353C37.5729 4.64939 37.3751 4.73133 37.1688 4.73133H37.1715Z" fill="#0568A0"/>
<path d="M64.1417 22.7534C64.1409 22.5745 64.0788 22.4014 63.9658 22.2628C63.8528 22.1242 63.6956 22.0286 63.5206 21.9918C62.7595 21.8368 62.0576 21.4703 61.4952 20.9346C60.785 20.2522 60.2809 19.2382 59.9829 17.8924C59.9421 17.7052 59.8334 17.5397 59.6778 17.4278C59.5223 17.3158 59.3309 17.2654 59.1404 17.2861L56.1549 17.6129C56.0503 17.6248 55.9493 17.6576 55.8577 17.7095C55.7661 17.7614 55.686 17.8312 55.6221 17.9148C55.5581 17.9984 55.5118 18.094 55.4857 18.196C55.4596 18.2979 55.4544 18.4041 55.4703 18.5081C55.8511 20.9836 56.7396 22.8983 58.1358 24.2522C59.4041 25.4827 61.1216 26.2078 63.2884 26.4275C63.3965 26.438 63.5055 26.4258 63.6086 26.3917C63.7117 26.3575 63.8065 26.3021 63.8869 26.2291C63.9673 26.1561 64.0315 26.0671 64.0754 25.9677C64.1193 25.8684 64.1419 25.761 64.1417 25.6524V22.7534Z" fill="#0568A0"/>
<path d="M73.6058 14.487C72.9486 13.3853 72.0032 12.4838 70.8715 11.8797C69.7066 11.2432 67.909 10.628 65.4785 10.0338C63.048 9.43973 61.5177 8.86812 60.8876 8.31901C60.6554 8.13111 60.4683 7.89364 60.3398 7.62403C60.2113 7.35441 60.1447 7.05947 60.1449 6.7608C60.1365 6.45067 60.2045 6.14322 60.343 5.86558C60.4814 5.58795 60.6861 5.34866 60.9389 5.16883C61.5533 4.70569 62.4445 4.40188 63.4491 4.27901C63.6393 4.25781 63.8152 4.16741 63.9432 4.025C64.0711 3.88259 64.1423 3.69811 64.1431 3.50665V0.777762C64.143 0.670601 64.1208 0.564606 64.0779 0.466407C64.035 0.368207 63.9724 0.279911 63.8938 0.207042C63.8152 0.134173 63.7224 0.0782982 63.6213 0.0429069C63.5201 0.00751556 63.4128 -0.00662806 63.3059 0.00135795C61.8908 0.103978 60.573 0.384831 59.5252 0.846623C58.1803 1.44074 57.1505 2.30672 56.4358 3.44454C55.7342 4.53844 55.3621 5.811 55.3637 7.11052C55.3637 9.14132 56.1234 10.862 57.6429 12.2726C58.7231 13.2772 60.6027 14.1234 63.2816 14.8111C65.3628 15.3512 66.696 15.7243 67.2811 15.9305C68.1372 16.2446 68.7367 16.6151 69.0797 17.0417C69.4275 17.4817 69.6096 18.0299 69.5941 18.5905C69.5941 19.5357 69.1863 20.3611 68.3708 21.0669C67.7848 21.5732 67.35 21.8662 66.4885 21.9972C66.3048 22.0253 66.1372 22.1182 66.0161 22.2591C65.895 22.4001 65.8284 22.5797 65.8282 22.7655V25.6483C65.8281 25.7554 65.8501 25.8613 65.8929 25.9594C65.9356 26.0576 65.9982 26.1458 66.0767 26.2186C66.1552 26.2914 66.2479 26.3471 66.349 26.3824C66.45 26.4176 66.5573 26.4316 66.664 26.4234C67.8412 26.3465 68.9944 26.055 70.0667 25.5633C71.4542 24.9853 72.6238 23.9839 73.4086 22.7021C74.1838 21.4646 74.5934 20.0332 74.5901 18.5729C74.5919 16.9517 74.2638 15.5897 73.6058 14.487Z" fill="#0568A0"/>
<path d="M65.8309 3.62817C65.8301 3.8055 65.8903 3.97772 66.0014 4.1159C66.1126 4.25409 66.2679 4.34982 66.4413 4.38702C67.0381 4.49267 67.601 4.73943 68.0832 5.10672C68.68 5.59011 69.1035 6.33096 69.3538 7.32926C69.397 7.50386 69.4992 7.65816 69.6432 7.76596C69.7872 7.87376 69.964 7.92842 70.1437 7.92067L73.7638 7.75864C73.87 7.75447 73.9742 7.72847 74.0699 7.68226C74.1656 7.63605 74.2507 7.57062 74.32 7.49004C74.3893 7.40947 74.4413 7.31548 74.4726 7.21394C74.504 7.11241 74.5141 7.00549 74.5024 6.89987C74.2728 4.92398 73.455 3.31446 72.0489 2.07131C70.7689 0.937088 68.9802 0.259254 66.683 0.0378096C66.5751 0.027463 66.4663 0.0397706 66.3634 0.0739398C66.2606 0.108109 66.1661 0.163385 66.0858 0.236229C66.0056 0.309073 65.9415 0.397878 65.8976 0.496945C65.8537 0.596012 65.831 0.703158 65.8309 0.811515V3.62817Z" fill="#0568A0"/>
<path d="M38.8296 29.6303C39.3837 29.5288 39.944 29.4639 40.5066 29.4358" stroke="#0268A1" stroke-width="0.810161" stroke-linecap="round" stroke-linejoin="round"/>
<path d="M43.0803 29.4953C45.8524 29.7653 48.4301 30.4877 50.6418 30.3054C54.5414 29.9759 56.2751 27.5684 57.9468 27.8304C64.1904 28.812 65.7446 32.0851 69.2512 31.3546C71.1119 30.967 72.9591 29.7883 74.9088 27.4172C76.1376 25.9211 78.699 26.8163 80.291 26.4301C81.54 26.1263 83.1806 25.755 85.0872 25.0556" stroke="#0268A1" stroke-width="0.810161" stroke-linecap="round" stroke-linejoin="round" stroke-dasharray="2.42 1.93"/>
<path d="M86.2888 24.583C86.7857 24.3737 87.2988 24.1414 87.8241 23.8808" stroke="#0268A1" stroke-width="0.810161" stroke-linecap="round" stroke-linejoin="round"/>
<path d="M94.4822 24.7693L87.4608 20.2365L78.4289 23.1706C78.3332 23.1611 78.2416 23.1271 78.1628 23.072C78.0841 23.0168 78.0209 22.9423 77.9792 22.8557C77.9376 22.769 77.9189 22.6731 77.9251 22.5771C77.9313 22.4812 77.962 22.3884 78.0144 22.3078L91.301 1.90253C91.3638 1.80658 91.4544 1.7322 91.5608 1.68941C91.6672 1.64662 91.7841 1.63749 91.8958 1.66325C92.0076 1.68901 92.1087 1.74842 92.1856 1.83346C92.2625 1.9185 92.3114 2.02508 92.3259 2.13883L95.0912 24.1482C95.1006 24.231 95.0914 24.3148 95.0643 24.3936C95.0372 24.4724 94.9929 24.5442 94.9345 24.6037C94.8762 24.6632 94.8053 24.7089 94.7271 24.7376C94.6488 24.7662 94.5652 24.7771 94.4822 24.7693Z" stroke="#F7941D" stroke-width="0.911431" stroke-miterlimit="10"/>
</g>
<defs>
<clipPath id="clip0_339_50">
<rect width="95.7056" height="32" fill="white"/>
</clipPath>
</defs>
</svg>
