<svg width="22" height="23" viewBox="0 0 22 23" fill="none" xmlns="http://www.w3.org/2000/svg">
<path d="M15.2427 4.75732C17.5858 7.10047 17.5858 10.8995 15.2427 13.2426M6.75737 13.2426C4.41422 10.8995 4.41422 7.10047 6.75737 4.75732M3.85832 16C0.023618 12.0894 0.0470843 5.81059 3.92872 1.92896M18.0713 1.92896C21.9529 5.81059 21.9764 12.0894 18.1417 16M11 16V9M4.00001 22H18C18.9319 22 19.3978 22 19.7654 21.8478C20.2554 21.6448 20.6448 21.2554 20.8478 20.7654C21 20.3978 21 19.9319 21 19C21 18.0681 21 17.6022 20.8478 17.2346C20.6448 16.7446 20.2554 16.3552 19.7654 16.1522C19.3978 16 18.9319 16 18 16H4.00001C3.06812 16 2.60218 16 2.23464 16.1522C1.74458 16.3552 1.35524 16.7446 1.15225 17.2346C1.00001 17.6022 1.00001 18.0681 1.00001 19C1.00001 19.9319 1.00001 20.3978 1.15225 20.7654C1.35524 21.2554 1.74458 21.6448 2.23464 21.8478C2.60218 22 3.06812 22 4.00001 22Z" stroke="#778897" stroke-width="2" stroke-linecap="round" stroke-linejoin="round"/>
</svg>
