<svg width="16" height="16" viewBox="0 0 16 16" fill="none" xmlns="http://www.w3.org/2000/svg">
<path d="M2.66675 4.53333C2.66675 3.41323 2.66675 2.85318 2.88474 2.42535C3.07648 2.04903 3.38244 1.74307 3.75877 1.55132C4.18659 1.33333 4.74664 1.33333 5.86675 1.33333H8.00793C8.49711 1.33333 8.7417 1.33333 8.97188 1.38859C9.17595 1.43759 9.37104 1.5184 9.54998 1.62805C9.75182 1.75174 9.92477 1.92469 10.2707 2.27059L12.3962 4.39607C12.7421 4.74198 12.915 4.91493 13.0387 5.11676C13.1484 5.29571 13.2292 5.4908 13.2782 5.69487C13.3334 5.92504 13.3334 6.16964 13.3334 6.65882V11.4667C13.3334 12.5868 13.3334 13.1468 13.1154 13.5746C12.9237 13.951 12.6177 14.2569 12.2414 14.4487C11.8136 14.6667 11.2535 14.6667 10.1334 14.6667H5.86675C4.74664 14.6667 4.18659 14.6667 3.75877 14.4487C3.38244 14.2569 3.07648 13.951 2.88474 13.5746C2.66675 13.1468 2.66675 12.5868 2.66675 11.4667V4.53333Z" fill="#00B175"/>
<path d="M9.33341 1.51297V4.26667C9.33341 4.64004 9.33341 4.82672 9.40608 4.96933C9.46999 5.09477 9.57198 5.19676 9.69742 5.26067C9.84003 5.33333 10.0267 5.33333 10.4001 5.33333H13.1538M13.3334 6.65882V11.4667C13.3334 12.5868 13.3334 13.1468 13.1154 13.5746C12.9237 13.951 12.6177 14.2569 12.2414 14.4487C11.8136 14.6667 11.2535 14.6667 10.1334 14.6667H5.86675C4.74664 14.6667 4.18659 14.6667 3.75877 14.4487C3.38244 14.2569 3.07648 13.951 2.88474 13.5746C2.66675 13.1468 2.66675 12.5868 2.66675 11.4667V4.53333C2.66675 3.41323 2.66675 2.85318 2.88474 2.42535C3.07648 2.04903 3.38244 1.74307 3.75877 1.55132C4.18659 1.33333 4.74664 1.33333 5.86675 1.33333H8.00793C8.49711 1.33333 8.7417 1.33333 8.97188 1.38859C9.17595 1.43759 9.37104 1.5184 9.54998 1.62805C9.75182 1.75174 9.92477 1.92469 10.2707 2.27059L12.3962 4.39607C12.7421 4.74198 12.915 4.91493 13.0387 5.11676C13.1484 5.29571 13.2292 5.4908 13.2782 5.69487C13.3334 5.92504 13.3334 6.16964 13.3334 6.65882Z" stroke="#005C34" stroke-linecap="round" stroke-linejoin="round"/>
<path d="M6.87993 12.6667L5.78126 11.0027H5.66926L4.19193 8.93335H4.91726L6.02126 10.5013H6.13326L7.5946 12.6667H6.87993ZM4.12793 12.6667L5.5466 10.672L5.96793 11.0293L4.81593 12.6667H4.12793ZM6.17593 10.88L5.7546 10.5227L6.8426 8.93335H7.5306L6.17593 10.88Z" fill="white"/>
</svg>
