<svg width="32" height="32" viewBox="0 0 32 32" fill="none" xmlns="http://www.w3.org/2000/svg">
<circle opacity="0.15" cx="16" cy="16" r="16" transform="rotate(180 16 16)" fill="#F73A1D"/>
<path d="M16 6V8.5M16 6C10.4772 6 6 10.4772 6 16M16 6C21.5228 6 26 10.4772 26 16M16 23.5V26M16 26C21.5228 26 26 21.5228 26 16M16 26C10.4772 26 6 21.5228 6 16M8.5 16H6M26 16H23.5M23.0784 23.0784L21.3047 21.3047M8.92163 23.0784L10.6972 21.3029M8.92163 9L10.6581 10.7365M23.0784 9L17.4999 14.5M18 16C18 17.1046 17.1046 18 16 18C14.8954 18 14 17.1046 14 16C14 14.8954 14.8954 14 16 14C17.1046 14 18 14.8954 18 16Z" stroke="#F73A1D" stroke-width="2" stroke-linecap="round" stroke-linejoin="round"/>
</svg>
