<svg width="32" height="32" viewBox="0 0 32 32" fill="none" xmlns="http://www.w3.org/2000/svg">
<circle opacity="0.15" cx="16" cy="16" r="16" fill="#F7941D"/>
<path d="M25 7L19 7M25 11L19 11M25 15L19 15M9.5 17.7578V8.5C9.5 7.11929 10.6193 6 12 6C13.3807 6 14.5 7.11929 14.5 8.5V17.7578C15.706 18.565 16.5 19.9398 16.5 21.5C16.5 23.9853 14.4853 26 12 26C9.51472 26 7.5 23.9853 7.5 21.5C7.5 19.9398 8.29401 18.565 9.5 17.7578ZM13 21.5C13 22.0523 12.5523 22.5 12 22.5C11.4477 22.5 11 22.0523 11 21.5C11 20.9477 11.4477 20.5 12 20.5C12.5523 20.5 13 20.9477 13 21.5Z" stroke="#F7941D" stroke-width="2" stroke-linecap="round" stroke-linejoin="round"/>
</svg>
