<svg width="32" height="32" viewBox="0 0 32 32" fill="none" xmlns="http://www.w3.org/2000/svg">
<circle opacity="0.15" cx="16" cy="16" r="16" fill="#0568A0"/>
<path d="M13 11H8.6C8.03995 11 7.75992 11 7.54601 11.109C7.35785 11.2049 7.20487 11.3578 7.10899 11.546C7 11.7599 7 12.0399 7 12.6V23.4C7 23.9601 7 24.2401 7.10899 24.454C7.20487 24.6422 7.35785 24.7951 7.54601 24.891C7.75992 25 8.03995 25 8.6 25H13M13 25H19M13 25L13 8.6C13 8.03995 13 7.75992 13.109 7.54601C13.2049 7.35785 13.3578 7.20487 13.546 7.10899C13.7599 7 14.0399 7 14.6 7L17.4 7C17.9601 7 18.2401 7 18.454 7.10899C18.6422 7.20487 18.7951 7.35785 18.891 7.54601C19 7.75992 19 8.03995 19 8.6V25M19 15H23.4C23.9601 15 24.2401 15 24.454 15.109C24.6422 15.2049 24.7951 15.3578 24.891 15.546C25 15.7599 25 16.0399 25 16.6V23.4C25 23.9601 25 24.2401 24.891 24.454C24.7951 24.6422 24.6422 24.7951 24.454 24.891C24.2401 25 23.9601 25 23.4 25H19" stroke="#0568A0" stroke-width="2" stroke-linecap="round" stroke-linejoin="round"/>
</svg>
