<svg width="72" height="24" viewBox="0 0 72 24" fill="none" xmlns="http://www.w3.org/2000/svg">
<g clip-path="url(#clip0_1_622)">
<path d="M13.6228 2.46593C12.8802 1.49914 11.9573 0.871264 10.8541 0.582306C10.1364 0.389893 8.59645 0.293686 6.23416 0.293686H0.583286C0.428581 0.293686 0.280212 0.355143 0.17082 0.464536C0.0614266 0.573929 -3.05176e-05 0.722298 -3.05176e-05 0.877003V2.96519C-3.05176e-05 3.1199 0.0614266 3.26827 0.17082 3.37766C0.280212 3.48705 0.428581 3.54851 0.583286 3.54851H5.76122C7.16078 3.54851 8.0928 3.59206 8.55729 3.67915C9.15956 3.77843 9.7102 4.07946 10.1189 4.53285C10.53 4.98789 10.7356 5.56513 10.7356 6.26457C10.7464 6.79681 10.593 7.31946 10.2961 7.76134C9.99768 8.19364 9.57337 8.52354 9.08086 8.70619C8.56438 8.90873 7.54054 9.01 6.00934 9.01H3.8857H0.584297C0.429592 9.01 0.281223 9.07146 0.17183 9.18085C0.0624372 9.29025 0.000983172 9.43862 0.000983172 9.59332V18.9568C0.000983172 19.1115 0.0624372 19.2598 0.17183 19.3692C0.281223 19.4786 0.429592 19.5401 0.584297 19.5401H3.30239C3.45709 19.5401 3.60546 19.4786 3.71485 19.3692C3.82425 19.2598 3.8857 19.1115 3.8857 18.9568V12.8593C3.8857 12.7046 3.94716 12.5562 4.05655 12.4468C4.16595 12.3374 4.31431 12.276 4.46902 12.276H6.41746C8.17685 12.276 9.52003 12.1841 10.447 12.0005C11.1721 11.833 11.8568 11.5232 12.4613 11.0891C13.1503 10.597 13.7108 9.94643 14.0958 9.19229C14.5245 8.3882 14.7388 7.39542 14.7388 6.21394C14.7388 4.68206 14.3668 3.43272 13.6228 2.46593Z" fill="#0568A0"/>
<path d="M21.694 8.03072V18.9507C21.694 19.1054 21.6326 19.2537 21.5232 19.3631C21.4138 19.4725 21.2654 19.534 21.1107 19.534H18.3926C18.2379 19.534 18.0896 19.4725 17.9802 19.3631C17.8708 19.2537 17.8093 19.1054 17.8093 18.9507V8.03072C17.8093 7.87602 17.8708 7.72765 17.9802 7.61826C18.0896 7.50886 18.2379 7.44741 18.3926 7.44741H21.1107C21.2654 7.44741 21.4138 7.50886 21.5232 7.61826C21.6326 7.72765 21.694 7.87602 21.694 8.03072ZM17.8093 5.60024V0.877003C17.8093 0.722298 17.8708 0.573929 17.9802 0.464536C18.0896 0.355143 18.2379 0.293686 18.3926 0.293686H21.1107C21.2654 0.293686 21.4138 0.355143 21.5232 0.464536C21.6326 0.573929 21.694 0.722298 21.694 0.877003V5.59821C21.694 5.75292 21.6326 5.90129 21.5232 6.01068C21.4138 6.12007 21.2654 6.18153 21.1107 6.18153H18.3926C18.2379 6.18153 18.0896 6.12007 17.9802 6.01068C17.8708 5.90129 17.8093 5.75292 17.8093 5.59821V5.60024Z" fill="#0568A0"/>
<path d="M30.3091 0.293686H38.7226C38.8773 0.293686 39.0257 0.355143 39.1351 0.464536C39.2445 0.573929 39.3059 0.722298 39.3059 0.877003V2.96519C39.3059 3.1199 39.2445 3.26827 39.1351 3.37766C39.0257 3.48705 38.8773 3.54851 38.7226 3.54851H34.1948C34.0401 3.54851 33.8917 3.60997 33.7824 3.71936C33.673 3.82875 33.6115 3.97712 33.6115 4.13182V18.9507C33.6115 19.1054 33.5501 19.2537 33.4407 19.3631C33.3313 19.4725 33.1829 19.534 33.0282 19.534H30.3091C30.2325 19.534 30.1567 19.5189 30.086 19.4896C30.0153 19.4602 29.9511 19.4173 29.897 19.3631C29.8429 19.3089 29.8 19.2446 29.7708 19.1738C29.7416 19.1031 29.7267 19.0272 29.7268 18.9507V0.877003C29.7267 0.800448 29.7416 0.72462 29.7708 0.653855C29.8 0.58309 29.8429 0.518777 29.897 0.464598C29.9511 0.410419 30.0153 0.367436 30.086 0.338109C30.1567 0.308782 30.2325 0.293686 30.3091 0.293686ZM27.8786 3.54851H24.6005C24.4458 3.54851 24.2974 3.48705 24.188 3.37766C24.0786 3.26827 24.0172 3.1199 24.0172 2.96519V0.877003C24.0172 0.722298 24.0786 0.573929 24.188 0.464536C24.2974 0.355143 24.4458 0.293686 24.6005 0.293686H27.8766C28.0313 0.293686 28.1797 0.355143 28.2891 0.464536C28.3984 0.573929 28.4599 0.722298 28.4599 0.877003V2.96519C28.4599 3.1199 28.3984 3.26827 28.2891 3.37766C28.1797 3.48705 28.0313 3.54851 27.8766 3.54851H27.8786Z" fill="#0568A0"/>
<path d="M48.1063 17.065C48.1057 16.9309 48.0591 16.801 47.9743 16.6971C47.8896 16.5932 47.7717 16.5214 47.6405 16.4939C47.0696 16.3776 46.5432 16.1028 46.1214 15.7009C45.5887 15.1892 45.2107 14.4286 44.9872 13.4193C44.9565 13.2789 44.875 13.1548 44.7584 13.0708C44.6417 12.9869 44.4981 12.949 44.3553 12.9646L42.1162 13.2097C42.0378 13.2186 41.9619 13.2432 41.8933 13.2821C41.8246 13.321 41.7645 13.3734 41.7166 13.4361C41.6686 13.4988 41.6338 13.5705 41.6143 13.647C41.5947 13.7235 41.5908 13.8031 41.6027 13.8811C41.8883 15.7377 42.5547 17.1737 43.6018 18.1891C44.5531 19.112 45.8412 19.6559 47.4663 19.8206C47.5473 19.8285 47.6292 19.8194 47.7065 19.7937C47.7838 19.7681 47.8549 19.7266 47.9152 19.6718C47.9755 19.6171 48.0236 19.5503 48.0565 19.4758C48.0895 19.4013 48.1064 19.3207 48.1063 19.2393V17.065Z" fill="#0568A0"/>
<path d="M55.2043 10.8653C54.7115 10.039 54.0024 9.36282 53.1536 8.90975C52.28 8.43243 50.9317 7.97097 49.1089 7.52538C47.286 7.07979 46.1383 6.65108 45.6657 6.23925C45.4916 6.09833 45.3512 5.92023 45.2548 5.71802C45.1584 5.51581 45.1085 5.2946 45.1087 5.0706C45.1024 4.838 45.1534 4.60741 45.2572 4.39918C45.3611 4.19096 45.5146 4.01149 45.7042 3.87662C46.165 3.52926 46.8333 3.30141 47.5868 3.20925C47.7295 3.19335 47.8614 3.12555 47.9574 3.01874C48.0533 2.91194 48.1067 2.77358 48.1073 2.62999V0.583318C48.1073 0.502947 48.0906 0.423451 48.0585 0.349801C48.0263 0.276152 47.9793 0.20993 47.9203 0.155278C47.8614 0.100626 47.7918 0.0587198 47.716 0.0321763C47.6401 0.00563285 47.5596 -0.00497486 47.4794 0.00101465C46.4181 0.0779799 45.4297 0.28862 44.6439 0.634963C43.6352 1.08055 42.8629 1.73003 42.3268 2.5834C41.8007 3.40382 41.5216 4.35824 41.5227 5.33288C41.5227 6.85599 42.0926 8.14651 43.2322 9.20444C44.0423 9.95789 45.452 10.5925 47.4612 11.1083C49.0221 11.5134 50.022 11.7932 50.4608 11.9478C51.1029 12.1835 51.5525 12.4613 51.8098 12.7813C52.0706 13.1113 52.2072 13.5224 52.1956 13.9429C52.1956 14.6518 51.8898 15.2709 51.2781 15.8002C50.8386 16.1799 50.5125 16.3997 49.8664 16.4979C49.7286 16.519 49.6029 16.5886 49.5121 16.6943C49.4213 16.8 49.3713 16.9348 49.3712 17.0741V19.2363C49.3711 19.3165 49.3876 19.396 49.4197 19.4696C49.4517 19.5432 49.4987 19.6093 49.5575 19.6639C49.6164 19.7185 49.6859 19.7603 49.7617 19.7868C49.8375 19.8132 49.918 19.8237 49.998 19.8175C50.8809 19.7599 51.7458 19.5413 52.55 19.1725C53.5907 18.739 54.4678 17.988 55.0565 17.0265C55.6379 16.0984 55.9451 15.0249 55.9426 13.9297C55.9439 12.7138 55.6979 11.6923 55.2043 10.8653Z" fill="#0568A0"/>
<path d="M49.3732 2.72113C49.3726 2.85413 49.4177 2.98329 49.5011 3.08693C49.5844 3.19057 49.7009 3.26237 49.8309 3.29027C50.2786 3.36951 50.7008 3.55457 51.0624 3.83004C51.51 4.19259 51.8276 4.74822 52.0153 5.49695C52.0477 5.6279 52.1244 5.74362 52.2324 5.82447C52.3404 5.90532 52.473 5.94632 52.6078 5.94051L55.3228 5.81898C55.4025 5.81586 55.4806 5.79636 55.5524 5.7617C55.6242 5.72704 55.688 5.67797 55.74 5.61754C55.792 5.55711 55.8309 5.48661 55.8545 5.41046C55.878 5.33431 55.8856 5.25412 55.8768 5.17491C55.7046 3.69299 55.0912 2.48585 54.0367 1.55349C53.0766 0.70282 51.7351 0.194444 50.0122 0.028361C49.9313 0.0206011 49.8497 0.0298318 49.7726 0.0554586C49.6954 0.0810855 49.6245 0.122543 49.5644 0.177176C49.5042 0.231809 49.4561 0.298412 49.4232 0.372713C49.3903 0.447013 49.3732 0.527372 49.3732 0.60864V2.72113Z" fill="#0568A0"/>
<path d="M29.1222 22.2227C29.5378 22.1466 29.958 22.0979 30.38 22.0769" stroke="#0268A1" stroke-width="0.810161" stroke-linecap="round" stroke-linejoin="round"/>
<path d="M32.3102 22.1214C34.3893 22.324 36.3225 22.8658 37.9813 22.7291C40.906 22.482 42.2063 20.6763 43.46 20.8728C48.1428 21.609 49.3084 24.0638 51.9384 23.5159C53.3339 23.2253 54.7192 22.3412 56.1816 20.5629C57.1031 19.4408 59.0242 20.1122 60.2182 19.8226C61.155 19.5948 62.3854 19.3163 63.8153 18.7917" stroke="#0268A1" stroke-width="0.810161" stroke-linecap="round" stroke-linejoin="round" stroke-dasharray="2.42 1.93"/>
<path d="M64.7166 18.4372C65.0893 18.2803 65.4741 18.1061 65.8681 17.9106" stroke="#0268A1" stroke-width="0.810161" stroke-linecap="round" stroke-linejoin="round"/>
<path d="M70.8617 18.577L65.5957 15.1773L58.8217 17.3779C58.7499 17.3708 58.6812 17.3453 58.6222 17.304C58.5631 17.2626 58.5157 17.2067 58.4844 17.1417C58.4532 17.0767 58.4392 17.0048 58.4439 16.9328C58.4485 16.8609 58.4715 16.7913 58.5108 16.7308L68.4758 1.4269C68.5228 1.35494 68.5909 1.29915 68.6706 1.26706C68.7504 1.23497 68.8381 1.22812 68.9219 1.24744C69.0057 1.26676 69.0815 1.31131 69.1392 1.3751C69.1969 1.43888 69.2336 1.51881 69.2444 1.60412L71.3184 18.1111C71.3255 18.1732 71.3186 18.2361 71.2983 18.2952C71.2779 18.3543 71.2447 18.4081 71.2009 18.4528C71.1572 18.4974 71.104 18.5317 71.0453 18.5532C70.9867 18.5747 70.9239 18.5828 70.8617 18.577Z" stroke="#F7941D" stroke-width="0.911431" stroke-miterlimit="10"/>
</g>
<defs>
<clipPath id="clip0_1_622">
<rect width="71.7792" height="24" fill="white"/>
</clipPath>
</defs>
</svg>
