<svg width="16" height="16" viewBox="0 0 16 16" fill="none" xmlns="http://www.w3.org/2000/svg">
<path d="M2.66675 4.53333C2.66675 3.41323 2.66675 2.85317 2.88474 2.42535C3.07648 2.04903 3.38244 1.74307 3.75877 1.55132C4.18659 1.33333 4.74664 1.33333 5.86675 1.33333H8.00793C8.49711 1.33333 8.7417 1.33333 8.97188 1.38859C9.17595 1.43759 9.37104 1.51839 9.54998 1.62805C9.75182 1.75174 9.92477 1.92469 10.2707 2.27059L12.3962 4.39607C12.7421 4.74198 12.915 4.91493 13.0387 5.11676C13.1484 5.29571 13.2292 5.4908 13.2782 5.69487C13.3334 5.92504 13.3334 6.16963 13.3334 6.65881V11.4667C13.3334 12.5868 13.3334 13.1468 13.1154 13.5746C12.9237 13.951 12.6177 14.2569 12.2414 14.4487C11.8136 14.6667 11.2535 14.6667 10.1334 14.6667H5.86675C4.74664 14.6667 4.18659 14.6667 3.75877 14.4487C3.38244 14.2569 3.07648 13.951 2.88474 13.5746C2.66675 13.1468 2.66675 12.5868 2.66675 11.4667V4.53333Z" fill="#E2574C"/>
<path d="M9.33341 1.51297V4.26667C9.33341 4.64003 9.33341 4.82672 9.40608 4.96933C9.46999 5.09477 9.57198 5.19675 9.69742 5.26067C9.84003 5.33333 10.0267 5.33333 10.4001 5.33333H13.1538M13.3334 6.65882V11.4667C13.3334 12.5868 13.3334 13.1468 13.1154 13.5746C12.9237 13.951 12.6177 14.2569 12.2414 14.4487C11.8136 14.6667 11.2535 14.6667 10.1334 14.6667H5.86675C4.74664 14.6667 4.18659 14.6667 3.75877 14.4487C3.38244 14.2569 3.07648 13.951 2.88474 13.5746C2.66675 13.1468 2.66675 12.5868 2.66675 11.4667V4.53333C2.66675 3.41323 2.66675 2.85317 2.88474 2.42535C3.07648 2.04903 3.38244 1.74307 3.75877 1.55132C4.18659 1.33333 4.74664 1.33333 5.86675 1.33333H8.00793C8.49711 1.33333 8.7417 1.33333 8.97188 1.38859C9.17595 1.43759 9.37104 1.51839 9.54998 1.62805C9.75182 1.75174 9.92477 1.92469 10.2707 2.27059L12.3962 4.39607C12.7421 4.74198 12.915 4.91493 13.0387 5.11676C13.1484 5.29571 13.2292 5.4908 13.2782 5.69487C13.3334 5.92504 13.3334 6.16963 13.3334 6.65882Z" stroke="#B53629" stroke-linecap="round" stroke-linejoin="round"/>
<path d="M4.05665 11.4346V10.968H4.87332C4.98532 10.968 5.08332 10.9462 5.16732 10.9026C5.25443 10.856 5.32288 10.7922 5.37265 10.7113C5.42243 10.6273 5.44732 10.5293 5.44732 10.4173C5.44732 10.3053 5.42243 10.2089 5.37265 10.128C5.32288 10.044 5.25443 9.9802 5.16732 9.93665C5.08332 9.88998 4.98532 9.86665 4.87332 9.86665H4.05665V9.39998H4.90132C5.10666 9.39998 5.29021 9.44198 5.45199 9.52598C5.61688 9.60998 5.74599 9.7282 5.83932 9.88065C5.93577 10.0331 5.98399 10.212 5.98399 10.4173C5.98399 10.6226 5.93577 10.8015 5.83932 10.954C5.74599 11.1064 5.61688 11.2246 5.45199 11.3086C5.29021 11.3926 5.10666 11.4346 4.90132 11.4346H4.05665ZM3.68799 12.6666V9.39998H4.22466V12.6666H3.68799Z" fill="white"/>
<path d="M6.8366 12.6666V12.1766H7.69527C7.91927 12.1766 8.11527 12.1284 8.28327 12.032C8.45438 11.9355 8.5866 11.8018 8.67994 11.6306C8.77638 11.4564 8.8246 11.2558 8.8246 11.0286C8.8246 10.8046 8.77638 10.6071 8.67994 10.436C8.58349 10.2649 8.44971 10.1311 8.2786 10.0346C8.1106 9.9382 7.91616 9.88998 7.69527 9.88998H6.8366V9.39998H7.70927C7.94571 9.39998 8.16505 9.44198 8.36727 9.52598C8.56949 9.60687 8.74527 9.72198 8.8946 9.87132C9.04705 10.0175 9.16527 10.1902 9.24927 10.3893C9.33327 10.5853 9.37527 10.8 9.37527 11.0333C9.37527 11.2635 9.33327 11.4782 9.24927 11.6773C9.16527 11.8764 9.0486 12.0506 8.89927 12.2C8.74994 12.3462 8.57416 12.4613 8.37194 12.5453C8.16971 12.6262 7.95194 12.6666 7.7186 12.6666H6.8366ZM6.46794 12.6666V9.39998H7.0046V12.6666H6.46794Z" fill="white"/>
<path d="M9.92236 12.6666V9.39998H10.459V12.6666H9.92236ZM10.291 11.2666V10.7766H11.9524V11.2666H10.291ZM10.291 9.88998V9.39998H12.0317V9.88998H10.291Z" fill="white"/>
</svg>
