<svg width="16" height="16" viewBox="0 0 16 16" fill="none" xmlns="http://www.w3.org/2000/svg">
<g id="settings-01" clip-path="url(#clip0_1414_16349)">
<g id="Icon">
<path d="M7.9987 9.99967C9.10327 9.99967 9.9987 9.10424 9.9987 7.99967C9.9987 6.8951 9.10327 5.99967 7.9987 5.99967C6.89413 5.99967 5.9987 6.8951 5.9987 7.99967C5.9987 9.10424 6.89413 9.99967 7.9987 9.99967Z" stroke="#21282E" stroke-width="1.5" stroke-linecap="round" stroke-linejoin="round"/>
<path d="M12.4835 9.81786C12.4029 10.0007 12.3788 10.2034 12.4145 10.4C12.4501 10.5966 12.5438 10.7781 12.6835 10.9209L12.7199 10.9572C12.8326 11.0698 12.922 11.2035 12.983 11.3507C13.044 11.4978 13.0754 11.6555 13.0754 11.8148C13.0754 11.9741 13.044 12.1318 12.983 12.279C12.922 12.4261 12.8326 12.5598 12.7199 12.6724C12.6073 12.7851 12.4737 12.8745 12.3265 12.9355C12.1794 12.9965 12.0216 13.0279 11.8623 13.0279C11.703 13.0279 11.5453 12.9965 11.3982 12.9355C11.251 12.8745 11.1173 12.7851 11.0048 12.6724L10.9684 12.636C10.8256 12.4963 10.6441 12.4026 10.4475 12.3669C10.2509 12.3313 10.0482 12.3554 9.86536 12.436C9.68611 12.5129 9.53323 12.6404 9.42555 12.803C9.31787 12.9656 9.26008 13.1562 9.2593 13.3512V13.4542C9.2593 13.7757 9.1316 14.084 8.90428 14.3113C8.67696 14.5386 8.36866 14.6663 8.04718 14.6663C7.72571 14.6663 7.4174 14.5386 7.19008 14.3113C6.96277 14.084 6.83506 13.7757 6.83506 13.4542V13.3997C6.83037 13.1991 6.76544 13.0045 6.6487 12.8413C6.53197 12.6781 6.36884 12.5538 6.18052 12.4845C5.99772 12.4038 5.79494 12.3798 5.59834 12.4154C5.40174 12.4511 5.22032 12.5448 5.07749 12.6845L5.04112 12.7209C4.92855 12.8336 4.79487 12.923 4.64772 12.984C4.50057 13.045 4.34284 13.0764 4.18355 13.0764C4.02425 13.0764 3.86653 13.045 3.71938 12.984C3.57223 12.923 3.43854 12.8336 3.32597 12.7209C3.21327 12.6083 3.12387 12.4746 3.06287 12.3275C3.00187 12.1803 2.97047 12.0226 2.97047 11.8633C2.97047 11.704 3.00187 11.5463 3.06287 11.3991C3.12387 11.252 3.21327 11.1183 3.32597 11.0057L3.36233 10.9694C3.50205 10.8265 3.59578 10.6451 3.63143 10.4485C3.66708 10.2519 3.64301 10.0491 3.56233 9.86634C3.48551 9.68709 3.35794 9.53421 3.19534 9.42653C3.03274 9.31884 2.8422 9.26106 2.64718 9.26028H2.54415C2.22268 9.26028 1.91437 9.13257 1.68705 8.90526C1.45974 8.67794 1.33203 8.36963 1.33203 8.04816C1.33203 7.72668 1.45974 7.41838 1.68705 7.19106C1.91437 6.96374 2.22268 6.83604 2.54415 6.83604H2.5987C2.7993 6.83135 2.99385 6.76641 3.15706 6.64968C3.32027 6.53295 3.44459 6.36982 3.51385 6.18149C3.59453 5.99869 3.61859 5.79592 3.58294 5.59932C3.5473 5.40271 3.45357 5.2213 3.31385 5.07846L3.27749 5.0421C3.16479 4.92953 3.07538 4.79584 3.01438 4.64869C2.95338 4.50154 2.92199 4.34381 2.92199 4.18452C2.92199 4.02523 2.95338 3.8675 3.01438 3.72035C3.07538 3.5732 3.16479 3.43952 3.27749 3.32695C3.39006 3.21425 3.52374 3.12484 3.67089 3.06384C3.81804 3.00285 3.97577 2.97145 4.13506 2.97145C4.29435 2.97145 4.45208 3.00285 4.59923 3.06384C4.74638 3.12484 4.88006 3.21425 4.99264 3.32695L5.029 3.36331C5.17184 3.50303 5.35325 3.59676 5.54986 3.6324C5.74646 3.66805 5.94923 3.64399 6.13203 3.56331H6.18052C6.35977 3.48648 6.51265 3.35892 6.62033 3.19632C6.72801 3.03372 6.7858 2.84318 6.78658 2.64816V2.54513C6.78658 2.22365 6.91428 1.91535 7.1416 1.68803C7.36892 1.46071 7.67722 1.33301 7.9987 1.33301C8.32017 1.33301 8.62848 1.46071 8.8558 1.68803C9.08311 1.91535 9.21082 2.22365 9.21082 2.54513V2.59967C9.2116 2.7947 9.26938 2.98524 9.37707 3.14784C9.48475 3.31044 9.63763 3.438 9.81688 3.51483C9.99968 3.5955 10.2025 3.61957 10.3991 3.58392C10.5957 3.54827 10.7771 3.45455 10.9199 3.31483L10.9563 3.27846C11.0688 3.16576 11.2025 3.07636 11.3497 3.01536C11.4968 2.95436 11.6546 2.92296 11.8138 2.92296C11.9731 2.92296 12.1309 2.95436 12.278 3.01536C12.4252 3.07636 12.5589 3.16576 12.6714 3.27846C12.7841 3.39104 12.8735 3.52472 12.9345 3.67187C12.9955 3.81902 13.0269 3.97675 13.0269 4.13604C13.0269 4.29533 12.9955 4.45306 12.9345 4.60021C12.8735 4.74736 12.7841 4.88104 12.6714 4.99361L12.6351 5.02998C12.4953 5.17281 12.4016 5.35423 12.366 5.55083C12.3303 5.74744 12.3544 5.95021 12.4351 6.13301V6.18149C12.5119 6.36075 12.6395 6.51362 12.8021 6.62131C12.9647 6.72899 13.1552 6.78678 13.3502 6.78755H13.4532C13.7747 6.78755 14.083 6.91526 14.3103 7.14258C14.5377 7.36989 14.6654 7.6782 14.6654 7.99967C14.6654 8.32115 14.5377 8.62946 14.3103 8.85677C14.083 9.08409 13.7747 9.2118 13.4532 9.2118H13.3987C13.2037 9.21257 13.0131 9.27036 12.8505 9.37804C12.6879 9.48572 12.5604 9.6386 12.4835 9.81786Z" stroke="#21282E" stroke-width="1.5" stroke-linecap="round" stroke-linejoin="round"/>
</g>
</g>
<defs>
<clipPath id="clip0_1414_16349">
<rect width="16" height="16" fill="white"/>
</clipPath>
</defs>
</svg>
