<svg width="17" height="16" viewBox="0 0 17 16" fill="none" xmlns="http://www.w3.org/2000/svg">
<path d="M4.41667 10.6667C4.41667 11.0809 4.75245 11.4167 5.16667 11.4167C5.58088 11.4167 5.91667 11.0809 5.91667 10.6667H5.16667H4.41667ZM5.16667 2.66666L5.697 2.13633C5.4041 1.84343 4.92923 1.84343 4.63634 2.13633L5.16667 2.66666ZM1.96967 4.80299C1.67678 5.09589 1.67678 5.57076 1.96967 5.86365C2.26256 6.15655 2.73744 6.15655 3.03033 5.86365L2.5 5.33332L1.96967 4.80299ZM7.303 5.86365C7.5959 6.15655 8.07077 6.15655 8.36366 5.86365C8.65656 5.57076 8.65656 5.09589 8.36366 4.80299L7.83333 5.33332L7.303 5.86365ZM12.5833 5.33332C12.5833 4.91911 12.2475 4.58332 11.8333 4.58332C11.4191 4.58332 11.0833 4.91911 11.0833 5.33332H11.8333H12.5833ZM11.8333 13.3333L11.303 13.8637C11.5959 14.1565 12.0708 14.1565 12.3637 13.8637L11.8333 13.3333ZM15.0303 11.197C15.3232 10.9041 15.3232 10.4292 15.0303 10.1363C14.7374 9.84343 14.2626 9.84343 13.9697 10.1363L14.5 10.6667L15.0303 11.197ZM9.697 10.1363C9.4041 9.84343 8.92923 9.84343 8.63634 10.1363C8.34344 10.4292 8.34344 10.9041 8.63634 11.197L9.16667 10.6667L9.697 10.1363ZM5.16667 10.6667H5.91667V2.66666H5.16667H4.41667V10.6667H5.16667ZM2.5 5.33332L3.03033 5.86365L5.697 3.19699L5.16667 2.66666L4.63634 2.13633L1.96967 4.80299L2.5 5.33332ZM5.16667 2.66666L4.63634 3.19699L7.303 5.86365L7.83333 5.33332L8.36366 4.80299L5.697 2.13633L5.16667 2.66666ZM11.8333 5.33332H11.0833V13.3333H11.8333H12.5833V5.33332H11.8333ZM14.5 10.6667L13.9697 10.1363L11.303 12.803L11.8333 13.3333L12.3637 13.8637L15.0303 11.197L14.5 10.6667ZM11.8333 13.3333L12.3637 12.803L9.697 10.1363L9.16667 10.6667L8.63634 11.197L11.303 13.8637L11.8333 13.3333Z" fill="#A5B2BE"/>
</svg>
