<svg width="17" height="16" viewBox="0 0 17 16" fill="none" xmlns="http://www.w3.org/2000/svg">
<path d="M11.1667 4.00001V3.46668C11.1667 2.71994 11.1667 2.34657 11.0213 2.06136C10.8935 1.81047 10.6895 1.6065 10.4387 1.47867C10.1534 1.33334 9.78007 1.33334 9.03333 1.33334H7.96667C7.21993 1.33334 6.84656 1.33334 6.56135 1.47867C6.31046 1.6065 6.10649 1.81047 5.97866 2.06136C5.83333 2.34657 5.83333 2.71994 5.83333 3.46668V4.00001M7.16667 7.66668V11M9.83333 7.66668V11M2.5 4.00001H14.5M13.1667 4.00001V11.4667C13.1667 12.5868 13.1667 13.1468 12.9487 13.5747C12.7569 13.951 12.451 14.2569 12.0746 14.4487C11.6468 14.6667 11.0868 14.6667 9.96667 14.6667H7.03333C5.91323 14.6667 5.35318 14.6667 4.92535 14.4487C4.54903 14.2569 4.24307 13.951 4.05132 13.5747C3.83333 13.1468 3.83333 12.5868 3.83333 11.4667V4.00001" stroke="#A5B2BE" stroke-width="1.5" stroke-linecap="round" stroke-linejoin="round"/>
</svg>
